<svg xmlns="http://www.w3.org/2000/svg"  viewBox="0 0 48 48" width="50px" height="50px"><path fill="#607d8b" d="M-0.232 22.989H48.232V25.008000000000003H-0.232z" transform="rotate(-45.001 24 24)"/><path fill="#90a4ae" d="M15.973 27.989H22.031V30.008000000000003H15.973z" transform="rotate(-44.992 19.003 28.999)"/><path fill="#90a4ae" d="M25.968 17.992H32.027V20.012H25.968z" transform="rotate(-45.009 28.996 19.002)"/><path fill="#5f6ec4" d="M26.855,5.438l-1.428,1.428c-0.395,0.395-0.395,1.033,0,1.427l14.279,14.28c0.394,0.395,1.033,0.395,1.428,0l1.428-1.428c0.395-0.395,0.395-1.035,0-1.428L28.283,5.438C27.89,5.043,27.25,5.043,26.855,5.438"/><path fill="#606fc4" d="M21.144,42.563l1.428-1.428c0.393-0.395,0.393-1.033,0-1.428L8.293,25.428c-0.394-0.394-1.033-0.394-1.428,0l-1.428,1.428c-0.394,0.394-0.394,1.035,0,1.428l14.278,14.279C20.11,42.957,20.75,42.957,21.144,42.563"/><path fill="#ffb74d" d="M30.426 3.297l-1.429 1.426c-.394.394-.394 1.035 0 1.43l12.851 12.852c.394.393 1.034.393 1.428 0l1.428-1.43c.394-.394.394-1.034 0-1.428L31.854 3.297C31.459 2.902 30.819 2.902 30.426 3.297M17.574 44.703l1.429-1.426c.394-.395.394-1.035 0-1.43L6.151 28.996c-.394-.393-1.034-.393-1.428 0l-1.428 1.43c-.395.394-.395 1.033 0 1.428l12.851 12.85C16.541 45.098 17.181 45.098 17.574 44.703"/><path fill="#5ec08f" d="M33.281 3.297L33.281 3.297c-.395.393-.395 1.033 0 1.426l9.995 9.996c.393.395 1.034.395 1.428 0 .394-.395.394-1.035 0-1.428l-9.995-9.994C34.315 2.902 33.675 2.902 33.281 3.297M14.719 44.703L14.719 44.703c.394-.393.394-1.033 0-1.426l-9.995-9.996c-.393-.395-1.034-.395-1.428 0-.395.395-.395 1.035 0 1.427l9.995 9.995C13.685 45.098 14.324 45.098 14.719 44.703"/></svg>