<svg xmlns="http://www.w3.org/2000/svg"  viewBox="0 0 48 48" width="50px" height="50px"><path fill="#c5cae9" d="M29.975,18.025c1.365,1.365,1.365,3.585,0,4.95l-7,7c-1.322,1.322-3.628,1.322-4.95,0l-2.121,2.122	C17.132,33.324,18.764,34,20.5,34s3.368-0.676,4.596-1.904l7-7C33.324,23.869,34,22.236,34,20.5s-0.676-3.369-1.904-4.597	L29.975,18.025z"/><path fill="#7986cb" d="M32,23.5c-0.772,0-1.516-0.117-2.216-0.334l-6.617,6.617C23.383,30.484,23.5,31.228,23.5,32	c0,0.453-0.047,0.894-0.124,1.325c0.628-0.311,1.21-0.719,1.72-1.229l7-7c0.51-0.51,0.919-1.092,1.229-1.72	C32.894,23.453,32.453,23.5,32,23.5z"/><path fill="#9fa8da" d="M12,45c-2.404,0-4.664-0.936-6.364-2.636C3.936,40.664,3,38.404,3,36s0.936-4.664,2.636-6.364l4-4	C11.336,23.936,13.596,23,16,23s4.664,0.936,6.364,2.636l0,0l0,0C24.064,27.336,25,29.596,25,32s-0.936,4.664-2.636,6.364l-4,4	C16.664,44.064,14.404,45,12,45z M16,26c-1.603,0-3.109,0.624-4.243,1.757l-4,4C6.624,32.891,6,34.397,6,36s0.624,3.109,1.757,4.243	S10.397,42,12,42s3.109-0.624,4.243-1.757l4-4C21.376,35.109,22,33.603,22,32s-0.624-3.109-1.757-4.243l0,0	C19.109,26.624,17.603,26,16,26z"/><path fill="#9fa8da" d="M32,25c-2.404,0-4.664-0.936-6.364-2.636C23.936,20.664,23,18.404,23,16s0.936-4.664,2.636-6.364l4-4	C31.336,3.936,33.596,3,36,3s4.664,0.936,6.364,2.636l0,0l0,0C44.064,7.336,45,9.596,45,12s-0.936,4.664-2.636,6.364l-4,4	C36.664,24.064,34.404,25,32,25z M36,6c-1.603,0-3.109,0.624-4.243,1.757l-4,4C26.624,12.891,26,14.397,26,16	s0.624,3.109,1.757,4.243S30.397,22,32,22s3.109-0.624,4.243-1.757l4-4C41.376,15.109,42,13.603,42,12s-0.624-3.109-1.757-4.243l0,0	C39.109,6.624,37.603,6,36,6z"/><path fill="#7986cb" d="M12.003,27.5c0,0.011,0.002,0.022,0.002,0.033C13.106,26.546,14.51,26,16,26	c1.124,0,2.198,0.313,3.132,0.888c0.073-0.163,0.174-0.315,0.307-0.449l1.77-1.77C19.696,23.59,17.895,23,16,23	c-1.045,0-2.06,0.187-3.016,0.527"/><path fill="#7986cb" d="M24.669,21.209l1.77-1.769c0.131-0.131,0.285-0.232,0.45-0.305C26.314,18.199,26,17.125,26,16	c0-1.49,0.545-2.893,1.532-3.994c-1.379-0.005-2.758,0.322-4.006,0.981C23.187,13.943,23,14.956,23,16	C23,17.896,23.59,19.697,24.669,21.209z"/><path fill="#c5cae9" d="M18.025,29.975C17.364,29.314,17,28.435,17,27.5s0.364-1.814,1.025-2.475l7-7	c0.682-0.682,1.579-1.023,2.475-1.023s1.793,0.341,2.475,1.023L32,18l0.096-2.097c-2.534-2.533-6.658-2.533-9.192,0l-7,7	c-2.535,2.534-2.535,6.658,0,9.193L18,32L18.025,29.975z"/></svg>