<svg xmlns="http://www.w3.org/2000/svg"  viewBox="0 0 48 48" width="50px" height="50px"><path fill="#ffb300" d="M27,24c0,1.7-1.3,3-3,3s-3-1.3-3-3s1.3-3,3-3S27,22.3,27,24z"/><path fill="#3f51b5" d="M24,43c-4.6,0-7.9-8-7.9-19c0-11,3.3-19,7.9-19c4.6,0,7.9,8,7.9,19C31.9,35,28.6,43,24,43z M24,7 c-2.8,0-5.9,6.5-5.9,17c0,10.5,3.1,17,5.9,17c2.8,0,5.9-6.5,5.9-17C29.9,13.5,26.8,7,24,7z"/><path fill="#3f51b5" d="M35,35.9c-0.8,0-1.6-0.1-2.5-0.2c-3.6-0.6-8.1-2.3-12.5-4.8c-4.4-2.5-8.1-5.5-10.4-8.4 c-2.5-3.1-3.3-5.9-2.1-8c1.2-2,4-2.8,8-2.2c3.6,0.6,8.1,2.3,12.5,4.8c9.5,5.5,14.8,12.4,12.5,16.4C39.5,35.1,37.6,35.9,35,35.9z M13,14.1c-1.9,0-3.2,0.5-3.7,1.4C7.9,18,11.9,23.9,21,29.1c4.2,2.4,8.4,4.1,11.8,4.6c3,0.5,5.2,0,5.9-1.2C40.1,30,36,24.1,27,18.9 c-4.2-2.4-8.4-4.1-11.8-4.6C14.4,14.2,13.7,14.1,13,14.1z"/><path fill="#3f51b5" d="M13,35.9c-2.6,0-4.5-0.8-5.5-2.4l0,0c-1.2-2-0.4-4.9,2.1-8c2.3-2.9,6-5.8,10.4-8.4 c4.4-2.5,8.8-4.3,12.5-4.8c3.9-0.6,6.8,0.2,8,2.2c2.3,4-3,10.9-12.5,16.4c-4.4,2.5-8.8,4.3-12.5,4.8C14.6,35.8,13.8,35.9,13,35.9z M35,14.1c-0.7,0-1.4,0.1-2.2,0.2c-3.4,0.5-7.6,2.2-11.8,4.6c-4.2,2.4-7.7,5.2-9.9,7.9c-1.9,2.4-2.6,4.5-1.9,5.7c0,0,0,0,0,0 c0.7,1.3,2.9,1.7,5.9,1.2c3.4-0.5,7.6-2.2,11.8-4.6c9.1-5.2,13.2-11.2,11.8-13.6C38.2,14.6,36.9,14.1,35,14.1z"/></svg>