<svg xmlns="http://www.w3.org/2000/svg"  viewBox="0 0 48 48" width="48px" height="48px"><path fill="#62808c" d="M30,23.328H12v-2.02c0-1.105,0.895-2,2-2h14c1.105,0,2,0.895,2,2V23.328z"/><path fill="#ff3d00" d="M13,32h27v10H13c-2.761,0-5-2.239-5-5v0C8,34.239,10.239,32,13,32z"/><path fill="#ffe0b2" d="M13,34h26v6H13c-1.657,0-3-1.343-3-3v0C10,35.343,11.343,34,13,34z"/><path fill="#7e57c2" d="M13,22h26v10H13c-2.761,0-5-2.239-5-5v0C8,24.239,10.239,22,13,22z"/><path fill="#ffe0b2" d="M13,24h26v6H13c-1.657,0-3-1.343-3-3v0C10,25.343,11.343,24,13,24z"/><path fill="#ffc107" d="M5,28.684V16H3v12.684c-1.163,0.413-2,1.512-2,2.816c0,1.656,3,6,3,6s3-4.344,3-6 C7,30.196,6.163,29.097,5,28.684z"/><path fill="#455a64" d="M30,21L30,21l9-5L21,5L3,16l9,5C12,16.029,30,13.365,30,21z"/><path fill="#62808c" d="M30,21c0,0-4-1-9-1s-9,1-9,1c0-4,1-6,1-6s1.376-2,8.25-2c6.875,0,7.75,2,7.75,2S30,17,30,21L30,21z"/><g><rect width="6" height="31" x="39" y="9" fill="#4caf50"/><rect width="6" height="3" x="39" y="7" fill="#b0bec5"/><path fill="#e57373" d="M41,4h2c1.105,0,2,0.895,2,2v1h-6V6C39,4.895,39.895,4,41,4z"/><polygon fill="#ffc107" points="39,40 42,40 45,40 42,45"/><polygon fill="#37474f" points="40.8,43 42,45 43.2,43"/></g></svg>