<svg xmlns="http://www.w3.org/2000/svg"  viewBox="0 0 48 48" width="50px" height="50px"><path fill="#BBDEFB" d="M33,34.251c0-4.972-9-12.376-9-12.376s-9,7.404-9,12.376s4.029,7.874,9,7.874S33,39.223,33,34.251z"/><path fill="#BBDEFB" d="M33,13.75c0,4.973-9,12.376-9,12.376s-9-7.403-9-12.376c0-4.972,4.028-7.875,9-7.875S33,8.778,33,13.75z"/><path fill="#FF9800" d="M17.699 16c1.235 2.373 3.906 5.313 6.301 7.481 2.395-2.169 5.065-5.108 6.301-7.481H17.699zM24 25.001A1 1 0 1 0 24 27.001 1 1 0 1 0 24 25.001zM24 28.001A1 1 0 1 0 24 30.001 1 1 0 1 0 24 28.001zM24 40.125c2.308 0 4.885-.793 6.172-2.824C27.533 33.907 24 31 24 31s-3.533 2.907-6.171 6.301C19.115 39.332 21.692 40.125 24 40.125z"/><g><path fill="#6D4C41" d="M33 39c0-.553-.447-1-1-1H16c-.552 0-1 .447-1 1v4c0 .553.448 1 1 1h16c.553 0 1-.447 1-1V39zM33 9c0 .553-.447 1-1 1H16c-.552 0-1-.447-1-1V5c0-.553.448-1 1-1h16c.553 0 1 .447 1 1V9z"/></g><g><path fill="#8D6E63" d="M36 42c0-.553-.447-1-1-1H13c-.552 0-1 .447-1 1v1c0 .553.448 1 1 1h22c.553 0 1-.447 1-1V42zM36 6c0 .553-.447 1-1 1H13c-.552 0-1-.447-1-1V5c0-.553.448-1 1-1h22c.553 0 1 .447 1 1V6z"/></g></svg>