<svg xmlns="http://www.w3.org/2000/svg"  viewBox="0 0 48 48" width="50px" height="50px"><path fill="#bf360c" d="M16 15H32V33H16z"/><path fill="#bf360c" d="M16 15H32V33H16z"/><path fill="#4e342e" d="M16 15H32V33H16z"/><path fill="#ff9800" d="M24,37c-2.193,0-5-6-5-6v-6h10v6C29,31,26.192,37,24,37"/><path fill="#ffb74d" d="M33,14c0-7.635-18-4.971-18,0v7c0,4.971,4.028,9,9,9c4.971,0,9-4.029,9-9V14z"/><path fill="#795548" d="M24,4C17.925,4,9,7.404,9,27.286L16,32V19l12-7l4,5v15l7-6c0-4.025-0.674-20-11-20l-1-2H24z"/><path fill="#ffb74d" d="M24,38c-4.42,0-5-7-5-7s2.507,4,5,4s5-4,5-4S28.42,38,24,38"/><path fill="#784719" d="M27 21c0 .551.448 1 1 1s1-.449 1-1-.448-1-1-1S27 20.449 27 21M19 21c0 .551.448 1 1 1s1-.449 1-1-.448-1-1-1S19 20.449 19 21"/><path fill="#ff9800" d="M24,37c-2.193,0-5-6-5-6v-6h10v6C29,31,26.192,37,24,37"/><path fill="#ffb74d" d="M33,14c0-7.635-18-4.971-18,0v7c0,4.971,4.028,9,9,9c4.971,0,9-4.029,9-9V14z"/><path fill="#795548" d="M24,4C17.925,4,9,7.404,9,27.286L16,32V19l12-7l4,5v15l7-6c0-4.025-0.674-20-11-20l-1-2H24z"/><path fill="#ffb74d" d="M24,38c-4.42,0-5-7-5-7s2.507,4,5,4s5-4,5-4S28.42,38,24,38"/><path fill="#784719" d="M27 21c0 .551.448 1 1 1s1-.449 1-1-.448-1-1-1S27 20.449 27 21M19 21c0 .551.448 1 1 1s1-.449 1-1-.448-1-1-1S19 20.449 19 21"/><path fill="#4fc3f7" d="M29,31L29,31c0,0-1,4-5,4s-5-4-5-4S8,32.986,8,44h32C40,33.025,29,31,29,31"/><path fill="#ff9800" d="M24,37c-2.193,0-5-6-5-6v-6h10v6C29,31,26.192,37,24,37"/><path fill="#ffb74d" d="M33,14c0-7.635-18-4.971-18,0v7c0,4.971,4.028,9,9,9c4.971,0,9-4.029,9-9V14z"/><path fill="#795548" d="M24,4C17.925,4,9,7.404,9,27.286L16,32V19l12-7l4,5v15l7-6c0-4.025-0.674-20-11-20l-1-2H24z"/><path fill="#ffb74d" d="M24,38c-4.42,0-5-7-5-7s2.507,4,5,4s5-4,5-4S28.42,38,24,38"/><path fill="#01579b" d="M24,40c4.746,0,6.571-5.115,6.949-8.428C29.793,31.148,29,31,29,31s-0.58,7-5,7c-4.42,0-5-7-5-7s-0.794,0.145-1.95,0.566C17.427,34.878,19.251,40,24,40z"/><path fill="#784719" d="M27,21c0-0.551,0.448-1,1-1s1,0.449,1,1s-0.448,1-1,1S27,21.551,27,21 M19,21c0,0.551,0.448,1,1,1s1-0.449,1-1s-0.448-1-1-1S19,20.449,19,21"/><path fill="#e57373" d="M45.678,29.141l-2.82-2.818c-0.429-0.43-1.126-0.43-1.555,0l-1.328,1.328l4.376,4.375l1.327-1.328C46.107,30.268,46.107,29.572,45.678,29.141"/><path fill="#ff9800" d="M25.109 35.088H42.526V41.276H25.109z" transform="rotate(-45.001 33.82 38.183)"/><path fill="#b0bec5" d="M39.522 27.836H42.616V34.025H39.522z" transform="rotate(134.999 41.069 30.93)"/><path fill="#ffc107" d="M25.473 42.152L24 48 29.848 46.527z"/><path fill="#37474f" d="M24.744 45.042L24 48 26.956 47.256z"/></svg>