<svg xmlns="http://www.w3.org/2000/svg"  viewBox="0 0 48 48" width="50px" height="50px"><path fill="#9C27B0" d="M6 21c0 1.104.896 2 2 2h13c1.104 0 2-.896 2-2V8c0-1.104-.896-2-2-2H8C6.896 6 6 6.896 6 8V21zM25 21c0 1.104.896 2 2 2h13c1.104 0 2-.896 2-2V8c0-1.104-.896-2-2-2H27c-1.104 0-2 .896-2 2V21zM6 40c0 1.104.896 2 2 2h13c1.104 0 2-.896 2-2V27c0-1.104-.896-2-2-2H8c-1.104 0-2 .896-2 2V40zM25 40c0 1.104.896 2 2 2h13c1.104 0 2-.896 2-2V27c0-1.104-.896-2-2-2H27c-1.104 0-2 .896-2 2V40z"/><g><path fill="#E1BEE7" d="M9 13H20V16H9zM28 13H39V16H28zM28 29H39V32H28zM28 35H39V38H28z"/><path fill="#E1BEE7" d="M13.001 9H16.000999999999998V20H13.001z"/><path fill="#E1BEE7" d="M13.001 28H16.000999999999998V39H13.001z" transform="rotate(-134.999 14.5 33.5)"/><path fill="#E1BEE7" d="M13.001 27.999H16.000999999999998V38.998999999999995H13.001z" transform="rotate(135.008 14.501 33.5)"/></g></svg>