<svg xmlns="http://www.w3.org/2000/svg"  viewBox="0 0 48 48" width="50px" height="50px"><path fill="#5d4037" d="M26,33.5h-2c0,6-6,7-6,7v2h14v-2C32,40.5,26,39.5,26,33.5z"/><path fill="#90caf9" d="M35.5,18c0,6.1-4.9,11-11,11s-11-4.9-11-11c0-6.1,4.9-11,11-11S35.5,11.9,35.5,18z"/><path fill="#8d6e63" d="M24.4 -0.7H26.4V38.5H24.4z" transform="rotate(-45.001 25.443 18.873)"/><path fill="#1e88e5" d="M24.5,30c-6.6,0-12-5.4-12-12s5.4-12,12-12c6.6,0,12,5.4,12,12S31.2,30,24.5,30z M24.5,8 c-5.5,0-10,4.5-10,10s4.5,10,10,10c5.5,0,10-4.5,10-10S30,8,24.5,8z"/><path fill="#1e88e5" d="M29.8,27.6c-2.9,0-6.6-1.8-9.8-5.1c-2.2-2.2-3.8-4.7-4.6-7c-0.9-2.6-0.6-4.7,0.7-6.1 c1.3-1.3,3.5-1.6,6-0.7c2.3,0.8,4.8,2.4,7,4.6c4.8,4.8,6.5,10.5,3.9,13.1C32.2,27.3,31.1,27.6,29.8,27.6z M19.3,10.3 c-0.8,0-1.4,0.2-1.8,0.6l0,0c-0.7,0.7-0.8,2.2-0.2,4c0.7,2.1,2.1,4.3,4.1,6.2c4.2,4.2,8.8,5.4,10.3,3.9c1.5-1.5,0.3-6.1-3.9-10.3 c-2-2-4.2-3.4-6.2-4.1C20.7,10.4,19.9,10.3,19.3,10.3z"/><path fill="#1e88e5" d="M14.2 21.6c-.3 0-.5-.1-.7-.3-.4-.4-.4-1 0-1.4l13-13c.4-.4 1-.4 1.4 0s.4 1 0 1.4l-13 13C14.7 21.5 14.4 21.6 14.2 21.6zM21.9 29.3c-.3 0-.5-.1-.7-.3-.4-.4-.4-1 0-1.4l13-13c.4-.4 1-.4 1.4 0s.4 1 0 1.4l-13 13C22.5 29.2 22.2 29.3 21.9 29.3z"/><path fill="#1e88e5" d="M13.5 17H35.5V19H13.5z" transform="rotate(-45.001 24.535 17.963)"/><path fill="#1e88e5" d="M23.5 7H25.5V29H23.5z" transform="rotate(-44.992 24.536 17.963)"/><path fill="#795548" d="M24.5 34.5c-4.4 0-8.5-1.7-11.7-4.8C9.8 26.5 8 22.4 8 18c0-4.4 1.7-8.6 4.8-11.7.9-.9 1.9-1.7 2.9-2.3l1.6 2.5c-.9.5-1.6 1.2-2.4 1.9-2.6 2.6-4 5.9-4 9.5 0 3.6 1.4 7 4 9.5 2.5 2.6 5.9 4 9.5 4 3.6 0 7-1.4 9.5-4l.7-.7 2.1 2.2-.7.7C33.1 32.7 28.9 34.5 24.5 34.5zM18 40.5h14v2H18V40.5z"/></svg>