<svg xmlns="http://www.w3.org/2000/svg"  viewBox="0 0 48 48" width="50px" height="50px"><polygon fill="#c5e1a5" points="37.5,6 24,17.898 10.5,6 3,12.61 3,42 45,42 45,12.61"/><rect width="4" height="5" x="34" y="28" fill="#a0530e"/><path fill="#c16e14" d="M36,29c2.758,0,5-2.242,5-5s-2.242-5-5-5s-5,2.242-5,5S33.242,29,36,29"/><path fill="#689f38" d="M32,34v8h7v-9c0-1.657-1.343-3-3-3l0,0C34.343,30,32,34,32,34z"/><path fill="#424242" d="M36,18c2.761,0,5,2.239,5,5v1c0,0.71-0.15,1.39-0.41,2h-2.594l-0.536-1.63	C37.18,23.55,37,23,35.56,23c-0.96,0-2.09-1.76-2.8-2.81C32.3,19.54,32,18.77,32,18H36z"/><path fill="#c16e14" d="M30,38c0.38,0,0.756-0.108,1.079-0.316c0.028-0.018,5.609-3.943,5.609-3.943	c0.899-0.643,0.832-1.755,0.19-2.653c-0.642-0.899-2.515-0.602-2.515-0.602l-4.82,3.384l-4.15-0.83	c-1.087-0.213-2.137,0.486-2.353,1.568c-0.217,1.083,0.485,2.137,1.569,2.354l5,1C29.738,37.987,29.869,38,30,38z"/><path fill="#689f38" d="M31,32.846c0,0,3.137-2.199,3.184-2.235c1.176-0.897,2.863-0.807,3.938,0.267	C38.707,31.464,39,32.232,39,33s0,4,0,4h-5L31,32.846z"/><path fill="#558b2f" d="M32.054,37c0.81-0.569,1.97-1.385,2.946-2.072L32,40L32.054,37z"/><rect width="4" height="5" x="10" y="28" fill="#ff9800"/><path fill="#ffb74d" d="M12,29c2.758,0,5-2.242,5-5s-2.242-5-5-5s-5,2.242-5,5S9.242,29,12,29"/><path fill="#2196f3" d="M12,30L12,30c-1.657,0-3,1.343-3,3v9h7v-8C16,34,13.657,30,12,30z"/><path fill="#424242" d="M16,18c0,0.77-0.3,1.54-0.76,2.19C14.53,21.24,13.4,23,12.44,23c-1.44,0-1.62,0.55-1.9,1.37	L10.004,26H7.41C7.15,25.39,7,24.71,7,24v-1c0-2.761,2.239-5,5-5H16z"/><path fill="#ffb74d" d="M18,38c-0.38,0-0.756-0.108-1.079-0.316c-0.028-0.018-5.609-3.943-5.609-3.943	c-0.899-0.643-0.832-1.755-0.19-2.653c0.642-0.899,2.515-0.602,2.515-0.602l4.82,3.384l4.15-0.83	c1.087-0.213,2.137,0.486,2.353,1.568c0.217,1.083-0.485,2.137-1.569,2.354l-5,1C18.262,37.987,18.131,38,18,38z"/><path fill="#2196f3" d="M17,32.846c0,0-3.137-2.199-3.184-2.235c-1.176-0.897-2.863-0.807-3.938,0.267	C9.293,31.464,9,32.232,9,33s0,4,0,4h5L17,32.846z"/><path fill="#1976d2" d="M15.946,37c-0.81-0.569-1.97-1.385-2.946-2.072L16,40L15.946,37z"/></svg>