<svg xmlns="http://www.w3.org/2000/svg" viewBox="0 0 3000 2550" width="3000" height="2550"><g transform="translate(2871.0 154.5) rotate(0.0 -771.75 1116.375) scale(-2.238536474294176 2.239713268551928)"><svg width="689.513" height="996.891" viewBox="0 0 689.513 996.891"><path d="M120.371 957.717a2.5 2.5 0 0 1-2.5-2.5V2.5a2.5 2.5 0 1 1 5 0v952.717a2.5 2.5 0 0 1-2.5 2.5z"/><path d="M565.125 186.834H2.5a2.5 2.5 0 1 1 0-5h562.625a2.5 2.5 0 1 1 0 5z"/><circle cx="120.788" cy="184.334" fill="#fff" r="22.748"/><path d="M120.788 209.581c-13.922 0-25.248-11.326-25.248-25.247 0-13.922 11.326-25.248 25.248-25.248 13.921 0 25.247 11.326 25.247 25.248 0 13.921-11.326 25.247-25.247 25.247zm0-45.495c-11.165 0-20.248 9.083-20.248 20.248 0 11.164 9.083 20.247 20.248 20.247 11.164 0 20.247-9.083 20.247-20.247 0-11.165-9.083-20.248-20.247-20.248z"/><path d="M17.301 955.217h669.712v39.174H17.301z" fill="#fff"/><path d="M687.013 996.892H17.301a2.5 2.5 0 0 1-2.5-2.5v-39.175a2.5 2.5 0 0 1 2.5-2.5h669.712a2.5 2.5 0 0 1 2.5 2.5v39.175a2.5 2.5 0 0 1-2.5 2.5zm-667.212-5h664.712v-34.175H19.801z"/></svg></g><g transform="translate(131.25 2386.5) rotate(0.0 928.875 -324.375) scale(1.2282295445484857 -1.230676715691389)"><svg width="1512.543" height="527.149" viewBox="0 0 1512.543 527.149"><path d="M1509.043 504.649c0 13-11 20-25 20L50.32 523.565c-17.921 0-32.277-8.916-36.414-24.938C7.913 475.412 2.5 437.153 2.5 392.733c0-41.008 4.923-80.101 11.643-103.801 4.9-17.284 18.452-25.099 36.448-25.099l1432.452.415c18.387.097 27 7.4 27 20.4 0 21-27.519 19.998-27.519 19.998l1.841 179.485c0 .001 24.678-.482 24.678 20.518z" fill="#6f5490"/><path d="M1484.043 527.149 50.318 526.064c-19.682 0-34.563-10.274-38.833-26.812C4.294 471.394 0 431.574 0 392.733c0-38.912 4.498-78.948 11.737-104.483 4.921-17.358 18.72-26.917 38.854-26.917l1432.453.415c24.384.128 29.5 12.524 29.5 22.9 0 5.944-1.984 10.871-5.898 14.645-6.57 6.335-16.807 7.588-21.596 7.816l1.792 174.621c4.219.328 12.785 1.717 18.671 7.489 4.002 3.925 6.032 9.116 6.032 15.43-.002 13.458-11.053 22.5-27.502 22.5zM50.59 266.333c-12.518 0-28.587 4.039-34.042 23.281C9.425 314.737 5 354.25 5 392.733c0 38.443 4.235 77.796 11.327 105.269 3.728 14.441 16.436 23.062 33.993 23.062l1433.725 1.084c10.377 0 22.498-4.583 22.498-17.5 0-4.921-1.525-8.911-4.533-11.86-6.427-6.303-17.488-6.159-17.597-6.157a2.504 2.504 0 0 1-2.549-2.475l-1.841-179.484a2.498 2.498 0 0 1 .755-1.816 2.536 2.536 0 0 1 1.835-.708c.131.006 13.489.379 20.572-6.466 2.932-2.833 4.356-6.442 4.356-11.034 0-11.958-8.018-17.813-24.513-17.9z"/><path d="M68.33 302.257s1414.193 1.952 1414.193 2.393l1.837 178.69c0 .442-.518.792-1.155.792H68.33c-.635 0-1.148-.35-1.148-.792 0 0-9.68-29.126-9.68-88.99 0-58.898 9.68-91.302 9.68-91.302.001-.441.514-.791 1.148-.791z" fill="#fff"/><path d="M1483.205 486.631H68.33c-1.842 0-3.324-1.172-3.601-2.752-1.006-3.153-9.727-32.16-9.727-89.529 0-56.702 8.79-88.584 9.719-91.792.255-1.605 1.749-2.801 3.609-2.801h.003s353.548.488 707.097 1.031c205.272.315 368.83.585 486.129.802 66.291.123 121.533.235 160.203.331 19.336.048 34.528.091 44.887.13 5.182.02 9.154.038 11.832.054 1.343.009 2.362.017 3.044.024 1.046.012 3.497.039 3.497 2.521l1.837 178.665c.002 1.871-1.604 3.316-3.654 3.316zm-1413.93-5h1412.568l-1.794-174.518c-63.126-.486-1367.871-2.296-1410.746-2.355-1.57 5.866-9.301 37.421-9.301 89.592 0 52.903 7.694 81.892 9.273 87.281z"/><path d="M507.555 369.664h-.013l-338.961-1.682a2.5 2.5 0 0 1 .012-5h.013l338.96 1.682a2.5 2.5 0 0 1-.011 5zm58.643 67.894H329.254a2.5 2.5 0 1 1 0-5h236.944a2.5 2.5 0 1 1 0 5zm89.444-68.217a2.5 2.5 0 0 1-.005-5l621.977-1.359h.005a2.5 2.5 0 0 1 .005 5l-621.977 1.359h-.005zm566.723 71.808a2.5 2.5 0 0 1 0-5l210.23-.06a2.5 2.5 0 0 1 0 5z"/><path d="M1319.528 243.007c.492 13.642-11.307 20.642-22.123 20.199l-1059.52-.975c-13.075 0-22.648-10.87-26.567-24.938-6.309-22.645-8.322-61.473-8.322-105.893 0-41.008 2.997-80.751 8.494-103.801C214.893 13.328 224.952 2.5 238.082 2.5l1056.286.415c13.415.097 23.685 4.733 23.825 20.189.177 19.544-21.612 20.209-21.612 20.209l1.343 179.485s20.876.014 21.604 20.209z" fill="#ff6996"/><path d="M1298.378 265.727c-.358 0-.716-.007-1.075-.022l-1059.421-.974c-13.271 0-24.374-10.256-28.973-26.767-5.662-20.323-8.414-55.18-8.414-106.564 0-42.88 3.201-81.901 8.562-104.381C212.973 10.605 224.365 0 238.082 0L1294.37.415c17.338.125 26.189 7.751 26.324 22.667.144 15.82-12.922 21.454-21.595 22.537l1.309 174.882c6.025.774 20.974 4.503 21.619 22.416.225 6.24-1.86 11.731-6.029 15.88-4.402 4.38-10.923 6.929-17.62 6.93zM238.081 5c-11.318 0-20.802 9.098-24.16 23.179-5.276 22.122-8.426 60.709-8.426 103.221 0 50.924 2.692 85.343 8.231 105.223 3.112 11.171 11.093 23.108 24.159 23.108l1059.523.976c5.792.234 11.395-1.804 15.063-5.454 3.156-3.141 4.733-7.344 4.559-12.156-.63-17.496-18.358-17.794-19.112-17.798l-2.468-.014-.025-2.468-1.361-181.928 2.442-.074c.785-.027 19.341-.861 19.188-17.688-.11-12.144-6.692-17.606-21.343-17.712z" fill="#111"/><path d="M268.438 40.923s1028.142 1.952 1028.142 2.393l1.34 178.69c0 .442-.378.792-.843.792H268.438c-.463 0-.837-.35-.837-.792 0 0-7.063-29.126-7.063-88.99 0-58.898 7.063-91.302 7.063-91.302 0-.441.374-.791.837-.791z" fill="#fff"/><path d="M1297.078 225.298H268.438c-1.706 0-3.117-1.269-3.314-2.899-.67-2.862-7.086-31.784-7.086-89.382 0-56.228 6.514-88.914 7.081-91.65.177-1.652 1.598-2.943 3.319-2.943h.005s257.036.488 514.072 1.031c149.237.315 268.146.585 353.425.802 48.195.123 88.357.235 116.471.331 14.059.048 25.104.091 32.636.13 3.769.02 6.658.038 8.605.054.98.008 1.724.016 2.222.024 2.65.041 3.207 1.394 3.207 2.521l1.341 178.671c-.001 1.833-1.5 3.31-3.344 3.31zm-1027.294-5h1025.625l-1.31-174.524c-52.982-.492-982.557-2.268-1024.292-2.348-1.225 6.326-6.769 37.835-6.769 89.591 0 52.407 5.502 81.4 6.746 87.281zm.317-178.583v.012-.012z"/><path d="M585.247 97.933h-.016L311.18 96.251a2.5 2.5 0 0 1 .015-5h.016l274.052 1.682a2.5 2.5 0 0 1-.016 5zm128.021 67.971H498.242a2.5 2.5 0 1 1 0-5h215.026a2.5 2.5 0 1 1 0 5zM693.292 97.61a2.5 2.5 0 0 1-.007-5l453.792-1.359h.008a2.5 2.5 0 0 1 .007 5L693.299 97.61h-.007zm566.861 71.748H890.158a2.5 2.5 0 1 1 0-5h369.995a2.5 2.5 0 1 1 0 5z"/></svg></g><g transform="translate(148.5 240.75) rotate(0.0 667.5 604.125) scale(1.2702188392007612 1.2692821635522462)"><svg width="1051" height="951.916" viewBox="0 0 1051 951.916"><circle cx="525.5" cy="489.778" fill="#92acef" r="93.393"/><path d="M525.5 585.671c-52.875 0-95.893-43.018-95.893-95.893s43.018-95.893 95.893-95.893 95.893 43.018 95.893 95.893-43.017 95.893-95.893 95.893zm0-186.785c-50.119 0-90.893 40.774-90.893 90.893s40.774 90.893 90.893 90.893 90.893-40.774 90.893-90.893-40.774-90.893-90.893-90.893z"/><path d="M525.5 641.707c-139.924 0-271.505-15.577-370.504-43.863C55.045 569.287 0 530.908 0 489.778s55.045-79.509 154.997-108.065c98.999-28.286 230.58-43.863 370.504-43.863s271.505 15.577 370.503 43.863c99.951 28.557 154.997 66.936 154.997 108.065s-55.045 79.509-154.997 108.065c-98.999 28.286-230.579 43.863-370.503 43.863zm0-298.857c-139.473 0-270.566 15.509-369.13 43.671-47.777 13.65-85.248 29.519-111.371 47.165-26.542 17.929-40 36.802-40 56.093s13.458 38.164 40 56.093c26.123 17.646 63.593 33.515 111.371 47.165 98.564 28.162 229.658 43.671 369.13 43.671s270.565-15.509 369.13-43.671c47.777-13.65 85.248-29.519 111.371-47.165 26.542-17.929 40-36.802 40-56.093s-13.458-38.164-40-56.093c-26.123-17.646-63.593-33.515-111.371-47.165-98.564-28.162-229.657-43.671-369.13-43.671z"/><path d="M762.244 951.428c-36.072 0-86.276-29.769-145.139-86.737-73.984-71.604-153.248-177.78-223.191-298.969S271.69 322.784 246.702 222.902C221.474 122.059 227.198 55.2 262.821 34.64c35.622-20.56 96.378 7.932 171.073 80.225 73.984 71.604 153.248 177.78 223.191 298.969s122.224 242.938 147.212 342.82c25.229 100.843 19.504 167.702-16.119 188.262-7.551 4.358-16.231 6.513-25.935 6.513zM288.827 33.089c-8.86 0-16.709 1.959-23.506 5.882-16.708 9.644-26.327 30.732-28.588 62.683-2.225 31.446 2.761 71.831 14.82 120.035 24.878 99.444 76.974 220.736 146.692 341.534 69.717 120.798 148.678 226.585 222.338 297.876 35.705 34.557 68.179 59.077 96.52 72.882 28.795 14.025 51.867 16.248 68.577 6.605l1.25 2.165-1.25-2.165c16.708-9.644 26.327-30.732 28.588-62.683 2.225-31.446-2.761-71.831-14.82-120.035-24.878-99.444-76.974-220.736-146.691-341.534s-148.68-226.586-222.34-297.876c-35.705-34.557-68.179-59.078-96.52-72.882-17.082-8.32-32.15-12.487-45.07-12.487z"/><path d="M289.557 951.906c-9.652 0-18.289-2.136-25.815-6.46-35.665-20.487-41.524-87.335-16.5-188.229 24.786-99.933 76.821-221.787 146.519-343.117s148.748-227.666 222.587-299.42c74.549-72.443 135.248-101.061 170.911-80.57 35.665 20.488 41.524 87.335 16.5 188.229-24.786 99.933-76.821 221.787-146.519 343.117s-148.747 227.666-222.586 299.42c-58.815 57.153-109.015 87.03-145.095 87.03zm-23.325-10.796c16.729 9.609 39.796 7.34 68.563-6.743 28.313-13.862 60.738-38.448 96.373-73.077 73.515-71.439 152.263-177.386 221.735-298.324 69.473-120.938 121.324-242.336 146.001-341.83 11.962-48.229 16.867-88.624 14.578-120.064-2.326-31.945-11.987-53.016-28.714-62.625-16.728-9.609-39.795-7.34-68.563 6.743-28.313 13.862-60.738 38.448-96.373 73.077-73.515 71.439-152.262 177.386-221.735 298.324-69.474 120.938-121.324 242.336-146.001 341.83-11.962 48.229-16.867 88.624-14.578 120.064 2.326 31.945 11.987 53.016 28.714 62.625z"/><circle cx="259.119" cy="40.138" fill="#ff6996" r="37.638"/><circle cx="618.893" cy="856.136" fill="#ff6996" r="37.638"/><path d="M259.119 80.277c-22.132 0-40.138-18.006-40.138-40.139S236.987 0 259.119 0s40.139 18.006 40.139 40.139-18.006 40.139-40.139 40.139zm0-75.277c-19.375 0-35.138 15.763-35.138 35.139s15.763 35.139 35.138 35.139 35.139-15.763 35.139-35.139S278.495 5 259.119 5zm359.774 891.274c-22.132 0-40.138-18.006-40.138-40.139s18.006-40.139 40.138-40.139 40.139 18.006 40.139 40.139-18.006 40.139-40.139 40.139zm0-75.277c-19.375 0-35.138 15.763-35.138 35.139s15.763 35.139 35.138 35.139 35.139-15.763 35.139-35.139-15.763-35.139-35.139-35.139z"/></svg></g><g transform="translate(1621.5 991.5) rotate(0.0 448.875 697.875) scale(2.7235494880546076 2.7230586440406817)"><svg width="329.625" height="512.567" viewBox="0 0 329.625 512.567"><path d="M219.204 194.81V21.445H112.137v172.768C48.356 216.089 2.5 276.558 2.5 347.758c0 89.641 72.668 162.309 162.309 162.309 89.642 0 162.31-72.668 162.31-162.309 0-70.559-45.031-130.583-107.915-152.948z" fill="#cad5f3"/><path d="M327.114 348.168c-142.933 57.701-185.981-94.469-307.033-73.949C8.841 296.297 2.5 321.286 2.5 347.758c0 89.641 72.668 162.309 162.309 162.309 89.504 0 162.083-72.447 162.305-161.899z" fill="#92acef"/><path d="M222.564 52.602H107.055c-12.319 0-22.305-9.987-22.305-22.305v-5.491c0-12.319 9.987-22.305 22.305-22.305h115.509c12.319 0 22.305 9.987 22.305 22.305v5.491c.001 12.318-9.986 22.305-22.305 22.305z" fill="#cad5f3"/><path d="M164.829 512.567c-.791 0-1.576-.006-2.369-.017-43.808-.61-84.888-18.397-115.672-50.085C15.972 430.745-.639 389.113.018 345.24c1.029-68.677 45.001-129.854 109.619-152.805V55.915c-15.155-.306-27.389-12.728-27.389-27.954C82.249 12.543 94.791 0 110.209 0h109.199c15.418 0 27.961 12.543 27.961 27.961 0 14.645-11.317 26.695-25.666 27.866v137.229c64.623 23.768 107.916 85.711 107.916 154.702 0 44.456-17.435 86.132-49.091 117.352-31.086 30.656-72.097 47.455-115.699 47.457zM110.209 5c-12.661 0-22.96 10.3-22.96 22.961 0 12.66 10.3 22.96 22.961 22.96h1.928a2.5 2.5 0 0 1 2.5 2.5v140.791a2.5 2.5 0 0 1-1.689 2.365C49.398 218.372 6.024 278.145 5.018 345.315c-.638 42.537 15.471 82.905 45.355 113.667 29.854 30.729 69.685 47.978 112.156 48.568 43.145.613 83.798-15.735 114.488-46.002 30.696-30.271 47.602-70.684 47.602-113.791 0-67.471-42.7-127.989-106.254-150.593a2.5 2.5 0 0 1-1.662-2.355V53.421a2.5 2.5 0 0 1 2.5-2.5h.205c12.661 0 22.961-10.3 22.961-22.96C242.37 15.3 232.07 5 219.409 5z"/><path d="M265.097 363.835c-45.863.001-80.628-23.002-114.574-45.462-39.451-26.103-76.71-50.754-130.028-41.715a2.5 2.5 0 1 1-.836-4.93c55.256-9.375 95.098 16.982 133.623 42.475 23.464 15.524 47.726 31.577 75.313 39.467 30.845 8.821 62.769 6.271 97.594-7.793a2.5 2.5 0 1 1 1.873 4.637c-23.345 9.427-44.094 13.321-62.965 13.321zm-193.77 18.933c-17.274 0-31.328-14.054-31.328-31.328s14.054-31.328 31.328-31.328 31.328 14.054 31.328 31.328-14.054 31.328-31.328 31.328zm0-57.656c-14.518 0-26.328 11.811-26.328 26.328s11.811 26.328 26.328 26.328 26.328-11.811 26.328-26.328-11.811-26.328-26.328-26.328zm42.394 106.833c-8.859 0-16.066-7.207-16.066-16.066 0-8.858 7.207-16.065 16.066-16.065 8.858 0 16.065 7.207 16.065 16.065.001 8.859-7.206 16.066-16.065 16.066zm0-27.132c-6.102 0-11.066 4.964-11.066 11.065s4.965 11.066 11.066 11.066 11.065-4.965 11.065-11.066-4.963-11.065-11.065-11.065zm123.102 53.903c-6.543 0-11.866-5.323-11.866-11.866s5.323-11.866 11.866-11.866 11.866 5.323 11.866 11.866-5.323 11.866-11.866 11.866zm0-18.733c-3.786 0-6.866 3.08-6.866 6.866s3.08 6.866 6.866 6.866 6.866-3.08 6.866-6.866-3.08-6.866-6.866-6.866z"/></svg></g><g transform="translate(1231.5 1301.25) rotate(25.78402936832016 510.0 621.375) scale(2.6649457735788915 2.67078289237567)"><svg width="382.747" height="465.313" viewBox="0 0 382.747 465.313"><path d="M92.1 201.556 34.517 82.8s-19.79 9.6-29.39-10.2 10.2-29.39 10.2-29.39L94.5 4.826s19.79-9.6 29.39 10.2-10.2 29.389-10.2 29.389l57.58 118.757 175.74 110.359s68.37 40.185 9 68.975L118.487 457.664s-59.38 28.79-48.58-49.782S92.1 201.556 92.1 201.556z" fill="#cad5f3"/><g fill="#111"><path d="M96.457 465.332c-5.911 0-12.082-1.29-17.369-5.128-11.4-8.279-15.323-26-11.657-52.663 10.25-74.648 21.192-195.274 22.114-205.519L33.269 85.955c-5.967 2-21.873 5.3-30.391-12.262C-2.639 62.319.794 53.965 4.646 48.961a29.88 29.88 0 0 1 9.591-8L93.406 2.577c.221-.108 22.162-10.435 32.731 11.355 8.51 17.564-3.935 28.008-9.2 31.454L173.2 161.432l175.137 109.979c1.382.811 35.316 21.028 34.391 44.175-.453 11.325-9.076 21.138-25.63 29.166l-237.52 115.162c-.666.322-11.378 5.417-23.121 5.418zM34.517 80.3a2.5 2.5 0 0 1 2.25 1.41l57.58 118.756a2.5 2.5 0 0 1 .24 1.314c-.114 1.277-11.529 128.712-22.2 206.443-3.393 24.688-.153 40.813 9.63 47.927 13.357 9.714 35.165-.63 35.384-.734l237.518-115.16c14.764-7.16 22.44-15.525 22.816-24.863.812-20.161-31.665-39.515-31.993-39.708l-175.8-110.4a2.494 2.494 0 0 1-.92-1.027L111.438 45.5a2.5 2.5 0 0 1 1.158-3.34 25.157 25.157 0 0 0 7.9-6.676c4.258-5.626 4.641-12.145 1.138-19.374S112.776 5.146 105.722 5a24.774 24.774 0 0 0-10.139 2.078L16.418 45.462a25.132 25.132 0 0 0-7.907 6.675C4.252 57.763 3.87 64.282 7.377 71.511c8.411 17.345 25.332 9.384 26.049 9.038a2.5 2.5 0 0 1 1.091-.249z"/><path d="M168.891 384.407a24.523 24.523 0 1 1 10.667-2.467 24.522 24.522 0 0 1-10.667 2.467zm-.032-44.016a19.509 19.509 0 0 0-17.532 28.009 19.485 19.485 0 1 0 17.532-28.013zm26.115-89.643a13.537 13.537 0 0 1-12.157-7.617 13.47 13.47 0 1 1 12.157 7.617zm-7.658-9.8a8.5 8.5 0 1 0 3.931-11.355 8.446 8.446 0 0 0-3.931 11.355zm-89.498-89.774a13.511 13.511 0 0 1-12.17-7.607 13.512 13.512 0 1 1 12.17 7.607zm-.033-22a8.5 8.5 0 0 0-7.638 12.21 8.49 8.49 0 1 0 7.638-12.21zm53.136 117.266a24.53 24.53 0 0 1-22.084-13.805 24.511 24.511 0 1 1 22.084 13.805zm-17.584-15.986a19.492 19.492 0 1 0 9.031-26.05 19.525 19.525 0 0 0-9.031 26.05zM79.539 333.732a2.5 2.5 0 0 1-1.1-4.746l202-99a2.5 2.5 0 1 1 2.2 4.49l-202 99a2.5 2.5 0 0 1-1.1.256z"/></g></svg></g></svg>