<svg xmlns="http://www.w3.org/2000/svg" viewBox="0 0 3500 3500" width="3500" height="3500"><g transform="translate(749.0 1241.0) rotate(0.0 595.5 925.0) scale(0.9974364793758443 0.9968000025862919)"><svg width="1194.061" height="1855.939" viewBox="0 0 1194.061 1855.939"><path d="M135.604 866.662c-157.787 47.26-186.893 272.894-24.18 333.87 114.563 42.932 511.245 4.037 511.245 4.037s-27.461 290.244 0 396.673c24.044 102.509 280.454 167.099 372.178-10.513 0 0-2.945-208.43-42.271-406.527-34.134-171.942-122.985-326.543-325.44-336.019-218.923-10.248-434.575 1.419-491.532 18.479z" fill="#6f5490"/><path d="M805.728 1704.506c-10.692 0-21.52-.669-32.414-2.018-36.861-4.563-72.432-16.923-100.159-34.803-28.469-18.357-47.263-41.752-52.92-65.873-25.741-99.759-3.133-363.272-.33-394.469-17.474 1.645-108.458 9.914-209.802 13.805-150.95 5.796-251.733-.354-299.557-18.275-36.719-13.76-66.238-37.073-85.368-67.421-17.58-27.888-26.25-61.044-25.073-95.884 1.275-37.739 14.326-75.455 36.75-106.2 24.261-33.264 58.159-57.158 98.031-69.101 28.869-8.646 96.532-15.784 185.641-19.583 96.303-4.106 205.234-3.75 306.727 1.001 94.275 4.413 170.862 40.739 227.633 107.969 47.253 55.959 80.945 133.362 100.142 230.061 38.919 196.053 42.289 404.892 42.318 406.979a2.51 2.51 0 0 1-.278 1.183c-22.577 43.716-56.01 75.421-99.371 94.233-28.068 12.176-59.387 18.396-91.97 18.396zm-183.06-502.437a2.502 2.502 0 0 1 2.49 2.735c-.274 2.898-27.106 291.024-.068 395.812 10.992 46.86 73.582 87.594 148.839 96.909 43.208 5.351 85.319-.185 121.779-16.003 42.093-18.263 74.599-49.004 96.628-91.383-.228-12.795-4.44-215.182-42.212-405.451-19.029-95.858-52.357-172.504-99.058-227.808-55.837-66.125-131.217-101.855-224.047-106.201-218.814-10.244-434.229 1.463-490.697 18.377l-.718-2.395.718 2.395c-38.817 11.627-71.815 34.884-95.427 67.258-21.84 29.945-34.552 66.674-35.793 103.423-1.143 33.835 7.262 66.011 24.306 93.049 18.542 29.415 47.206 52.031 82.893 65.405 112.716 42.237 506.162 4.278 510.124 3.89a2.47 2.47 0 0 1 .243-.012z"/><path d="M622.671 1207.069a2.501 2.501 0 0 1-2.488-2.773l4.467-40.732a2.491 2.491 0 0 1 2.758-2.213 2.501 2.501 0 0 1 2.213 2.758l-4.467 40.732a2.5 2.5 0 0 1-2.483 2.228z" fill="#111"/><path d="M1190.596 1853.439H559.272c-63.135-105.219 56.365-286.001 56.365-286.001 99.766 73.954 182.421 48.102 261.887 29.099 43.947-10.506 86.909-18.925 131.256-7.219 57.341 15.14 96.859 42.766 124.037 74.802 70.948 83.633 57.779 189.319 57.779 189.319z" fill="#fff"/><path d="M1190.596 1855.939H559.272a2.502 2.502 0 0 1-2.144-1.214c-14.671-24.45-20.787-54.915-18.178-90.546 2.074-28.325 9.641-59.978 22.489-94.079 21.829-57.94 51.812-103.586 52.111-104.041a2.505 2.505 0 0 1 3.574-.63c93.321 69.175 171.253 50.208 246.621 31.87 4.41-1.073 8.808-2.144 13.196-3.193 44.181-10.562 87.559-19.062 132.475-7.204 52.305 13.811 94.464 39.247 125.306 75.603 37.03 43.648 50.925 93.299 56.062 127.264 5.563 36.793 2.429 62.888 2.292 63.98a2.498 2.498 0 0 1-2.48 2.19zm-629.899-5h627.636c.621-7.044 2.063-30.407-2.518-60.587-5.052-33.277-18.678-81.91-54.905-124.613-30.167-35.561-71.473-60.458-122.77-74.003-43.791-11.56-86.497-3.176-130.036 7.233a3418.721 3418.721 0 0 0-13.176 3.188c-37.696 9.174-76.673 18.665-117.988 17.013-45.946-1.833-88.708-17.586-130.64-48.141-6.189 9.759-31.296 50.676-50.215 100.919-12.667 33.639-20.12 64.809-22.152 92.643-2.481 33.972 3.159 63.013 16.764 86.348z"/><path d="M1190.594 1853.436H559.268c-11.332-18.887-16.783-40.457-18.087-63.143l647.393.442c5.187 36.154 2.02 62.701 2.02 62.701z" fill="#92acef"/><path d="M1190.594 1855.936H559.268a2.501 2.501 0 0 1-2.144-1.214c-10.819-18.031-17.023-39.66-18.439-64.285a2.498 2.498 0 0 1 2.496-2.643h.002l647.393.441a2.502 2.502 0 0 1 2.473 2.145c5.175 36.062 2.061 63.084 2.028 63.353a2.502 2.502 0 0 1-2.483 2.203zm-629.901-5h627.63c.586-6.882 1.941-29.21-1.926-57.703l-642.549-.438c1.608 22.162 7.27 41.704 16.845 58.141z"/><path d="M657.703 1854.418h-.028a2.501 2.501 0 0 1-2.473-2.527l.663-60.586c.015-1.381 1.152-2.52 2.527-2.473a2.501 2.501 0 0 1 2.473 2.527l-.663 60.586a2.5 2.5 0 0 1-2.499 2.473zm-34.242.426h-.028a2.501 2.501 0 0 1-2.473-2.527l.663-60.586a2.502 2.502 0 0 1 2.499-2.473h.028a2.501 2.501 0 0 1 2.473 2.527l-.663 60.586a2.502 2.502 0 0 1-2.499 2.473zm99.807-.778h-.028a2.501 2.501 0 0 1-2.473-2.527l.663-60.587a2.502 2.502 0 0 1 2.499-2.473h.028a2.501 2.501 0 0 1 2.473 2.527l-.663 60.587a2.5 2.5 0 0 1-2.499 2.473zm110.397 1.589h-.028a2.501 2.501 0 0 1-2.473-2.527l.663-60.587c.015-1.381 1.165-2.517 2.527-2.473a2.501 2.501 0 0 1 2.473 2.527l-.663 60.587a2.5 2.5 0 0 1-2.499 2.473zm40.037-.842h-.028a2.501 2.501 0 0 1-2.473-2.527l.662-60.587a2.5 2.5 0 0 1 2.499-2.473h.028a2.501 2.501 0 0 1 2.473 2.527l-.662 60.587a2.5 2.5 0 0 1-2.499 2.473zm147.688-.821h-.028a2.501 2.501 0 0 1-2.473-2.527l.663-60.575c.016-1.381 1.119-2.518 2.527-2.473a2.501 2.501 0 0 1 2.473 2.527l-.663 60.575a2.5 2.5 0 0 1-2.499 2.473zm123.445 1.432h-.028a2.501 2.501 0 0 1-2.473-2.527l.674-60.587a2.502 2.502 0 0 1 2.499-2.473h.028a2.501 2.501 0 0 1 2.473 2.527l-.674 60.587a2.502 2.502 0 0 1-2.499 2.473z"/><path d="m1132.816 1664.122-.01.01c-165.623 50.307-255.283-67.584-255.283-67.584v-.01c43.947-10.506 86.909-18.925 131.256-7.219 57.341 15.14 96.859 42.767 124.037 74.803z" fill="#92acef"/><path d="M1052.465 1679.115c-10.039 0-19.954-.612-29.73-1.839-28.35-3.559-55.556-12.262-80.863-25.869-43.1-23.175-65.41-52.125-66.339-53.346a2.511 2.511 0 0 1 1.409-3.955c44.181-10.562 87.559-19.062 132.475-7.204 52.305 13.811 94.464 39.247 125.306 75.603a2.5 2.5 0 0 1-.139 3.385l-.01.01c-.29.291-.647.505-1.041.625-27.59 8.379-54.748 12.59-81.068 12.59zm-170.464-81.071c6.925 8.048 28.189 30.693 62.438 49.065 24.75 13.277 51.351 21.764 79.064 25.224 33.523 4.187 68.792.988 104.897-9.5-29.934-34.013-70.371-57.924-120.259-71.097-42.483-11.215-83.948-3.657-126.14 6.308z"/><path d="M475.86 385.773c36.113 17.434 34.451 49.458 33.507 68.732-2.274 135.713 45.275 179.372 27.453 290.436-11.412 71.116-73.089 110.611-117.003 117.191-106.2 15.914-226.482-6.604-222.397-123.946-.262-48.492 31.939-101.052 44.323-127.841 48.851-105.673 56.302-160.602 71.111-188.907 21.927-56.432 71.055-60.93 124.884-48.433 12.326 2.861 38.122 12.768 38.122 12.768z" fill="#ff6996"/><path d="M360.823 869.183c-55.714 0-101.604-13.451-130.253-39.009-24.972-22.277-36.948-53.255-35.598-92.072-.219-40.197 21.704-83.368 36.211-111.935 3.279-6.457 6.111-12.034 8.337-16.849 30.205-65.337 44.311-110.475 54.61-143.433 6.259-20.026 10.786-34.516 16.491-45.462 10.44-26.782 27.936-44.073 51.999-51.394 20.047-6.097 44.8-5.578 75.671 1.59 12.349 2.866 37.387 12.46 38.446 12.866l.187.081c37.483 18.096 35.863 51.158 34.895 70.913l-.007.145c-1.055 63.013 8.869 106.837 17.625 145.502 10.396 45.902 19.372 85.545 9.799 145.201-6.626 41.295-29.278 68.608-47.115 84.25-21.148 18.545-47.37 31.293-71.94 34.975-20.711 3.104-40.593 4.631-59.358 4.631zm32.594-499.447c-39.253 0-64.536 17.218-78.28 52.588l-.113.248c-5.53 10.571-10.014 24.918-16.219 44.773-10.34 33.087-24.501 78.401-54.839 144.027-2.264 4.896-5.114 10.511-8.416 17.011-14.293 28.146-35.893 70.68-35.682 109.79-1.3 37.393 10.127 67.083 33.962 88.346 37.209 33.193 104.864 45.293 185.624 33.191 23.668-3.547 48.977-15.872 69.438-33.814 17.231-15.11 39.114-41.489 45.509-81.344 9.424-58.723.543-97.938-9.739-143.345-8.817-38.934-18.811-83.063-17.743-146.744l.01-.224c.967-19.724 2.425-49.523-32.041-66.219-1.722-.658-26.056-9.928-37.703-12.632-16.182-3.755-30.746-5.652-43.768-5.652z" fill="#111"/><path d="m376.144 323.614-22.642 74.121s53.28 51.429 112.323 27.875l20.308-80.616" fill="#ffaac3"/><path d="M433.75 434.234c-15.402 0-31.359-3.836-47.308-11.473-20.826-9.974-34.121-22.69-34.677-23.227a2.495 2.495 0 0 1-.654-2.529l22.642-74.122a2.5 2.5 0 0 1 4.781 1.461l-22.181 72.614c3.589 3.209 15.585 13.336 32.384 21.357 26.323 12.568 51.542 14.395 74.979 5.436l19.993-79.368a2.498 2.498 0 0 1 3.034-1.813 2.498 2.498 0 0 1 1.813 3.034l-20.308 80.617a2.5 2.5 0 0 1-1.497 1.712c-10.541 4.206-21.62 6.301-33.001 6.301z"/><path d="M573.25 109.08s-17.625 18.147-31.09 34.183" fill="#6f5490"/><path d="M542.158 145.763a2.498 2.498 0 0 1-1.913-4.107c13.369-15.922 31.034-34.135 31.212-34.317a2.5 2.5 0 1 1 3.586 3.484c-.175.181-17.718 18.268-30.97 34.048a2.495 2.495 0 0 1-1.915.892z"/><path d="M394.302 323.614s51.222 57.83 128.94 32.518 70.991-114.809 70.991-114.809 35.709-26.282 27.093-41.578-38.586 12.635-38.586 12.635-7.643-41.09-40.58-69.117c-27.122 7.349-52.995 22.328-81.59 57.532-7.696 9.475-45.617 75.009-58.882 44.181-10.475-34.341-51.336-67.391-101.647-38.533-60.337 41.526-17.165 122.823 43.031 127.677 35.808 2.886 51.23-10.506 51.23-10.506z" fill="#ffaac3"/><path d="M484.228 364.992c-22.978.001-42.035-6.529-55.72-13.392-18.455-9.256-30.401-20.473-34.506-24.663-5.265 3.527-21.37 12.074-51.133 9.674-32.986-2.66-63.269-28.314-72.005-60.999-7.478-27.98 2.64-53.942 27.758-71.229.056-.039.114-.075.173-.109 27.067-15.523 49.102-12.309 62.823-6.877 19.72 7.808 35.962 25.698 42.418 46.714 1.8 4.124 4.011 6.257 6.756 6.519 11.922 1.15 32.15-28.621 41.859-42.923 2.608-3.842 4.669-6.877 5.978-8.487 25.868-31.847 51.429-49.849 82.876-58.369a2.498 2.498 0 0 1 2.274.509c27.41 23.324 37.564 55.014 40.46 66.362 6.503-5.509 20.957-16.483 31.197-14.896 3.484.54 6.275 2.51 8.068 5.694 8.823 15.664-19.834 38.78-26.701 44.004.233 5.336.505 25.078-6.537 47.464-7.506 23.861-25.092 55.119-66.25 68.523-14.222 4.631-27.562 6.48-39.788 6.481zm-89.925-43.874c.691 0 1.378.283 1.87.837.126.143 12.864 14.328 34.751 25.263 20.094 10.038 52.287 19.32 91.544 6.538 31.419-10.232 52.625-32.192 63.029-65.27 7.799-24.793 6.26-46.756 6.243-46.975a2.5 2.5 0 0 1 1.011-2.2c9.435-6.95 32.568-27.385 26.397-38.34-1.057-1.877-2.479-2.896-4.477-3.206-8.835-1.365-24.817 11.405-30.229 16.443a2.505 2.505 0 0 1-2.486.545 2.504 2.504 0 0 1-1.676-1.916c-.074-.397-7.739-39.734-38.743-66.811-29.791 8.371-54.216 25.798-79.028 56.344-1.173 1.444-3.181 4.4-5.722 8.144-15.278 22.503-32.728 46.381-46.471 45.092-4.689-.447-8.366-3.691-10.928-9.643a2.97 2.97 0 0 1-.095-.259c-5.994-19.652-21.137-36.382-39.518-43.659-18.185-7.202-38.378-4.947-58.405 6.514-23.209 16.017-32.567 39.979-25.677 65.762 8.207 30.709 36.627 54.811 67.576 57.306 34.143 2.759 49.251-9.78 49.399-9.907a2.519 2.519 0 0 1 1.635-.602z"/><path d="M575.024 188.849c-5.99-13.86-16.19-31.4-32.86-45.59-28.148 21.31-56.044 60.401-76.382 84.358-15.258 17.973-50.828 48.182-64.098 17.362-10.47-34.34-51.33-67.4-101.64-38.54-60.34 41.53-17.17 122.83 43.03 127.68 35.81 2.89 51.23-10.5 51.23-10.5s13.965-13.113 25.513-9.42c11.135 3.561 16.922 25.349 7.646 50.907-4.999 13.773-39.745 77.25-141.702 64.655-78.313-9.675-138.582-87.412-134.298-186.429 4.085-94.422 50.226-157.598 125.316-195.528 59.555-30.082 133.849-26.553 180.051 7.306C507.888 10.482 560.259-8.792 600.824 9.184c57.192 25.342 63.83 124.406-25.8 179.665z" fill="#92acef"/><path d="M311.786 433.926c-8.462 0-17.238-.561-26.332-1.684-39.099-4.831-74.552-26.391-99.829-60.71-25.71-34.907-38.729-80.475-36.66-128.31 3.923-90.671 46.547-157.171 126.687-197.651 59.406-30.008 133.499-27.322 181.032 6.352 25.725-22.229 51.046-37.575 75.29-45.625 25.986-8.629 49.491-8.428 69.862.601 25.234 11.182 41.555 36.365 43.656 67.367 1.385 20.437-3.572 41.571-14.336 61.121-12.054 21.892-30.498 40.596-54.821 55.591a2.495 2.495 0 0 1-2.062.257 2.505 2.505 0 0 1-1.544-1.393c-5.226-12.091-14.745-29.26-30.661-43.354-20.58 16.072-40.684 41.109-58.472 63.265-5.657 7.046-11.001 13.702-15.909 19.483-3.248 3.826-12.019 13.578-23.275 21.473-10.949 7.68-20.517 10.967-28.404 9.79-7.352-1.102-12.943-5.989-16.62-14.53a2.59 2.59 0 0 1-.096-.259c-5.992-19.655-21.134-36.387-39.517-43.666-18.182-7.199-38.372-4.946-58.398 6.514-23.212 16.019-32.571 39.986-25.679 65.771 8.209 30.708 36.629 54.806 67.577 57.299 27.265 2.2 44.186-5.479 49.363-9.874 1.091-1.014 15.362-13.958 27.94-9.935 4.18 1.337 7.703 4.718 10.188 9.777 5.373 10.939 5.008 27.938-.954 44.363-.893 2.46-9.471 24.576-35.372 43.386-22.516 16.35-50.241 24.58-82.654 24.581zM363.86 29.713c-29.027 0-59.025 6.719-85.954 20.321-78.405 39.604-120.107 104.675-123.945 193.405-2.021 46.698 10.654 91.136 35.69 125.127 24.453 33.202 58.695 54.053 96.416 58.713 42.63 5.266 78.099-2.13 105.435-21.98 20.059-14.566 30.565-32.654 33.611-41.045 6.59-18.159 4.923-32.804 1.166-40.454-1.871-3.81-4.369-6.307-7.224-7.22-10-3.191-22.912 8.741-23.042 8.863-.733.638-16.704 14.103-53.141 11.168-32.985-2.657-63.268-28.308-72.005-60.991-7.48-27.983 2.637-53.949 27.759-71.24.056-.038.114-.075.173-.109 27.062-15.523 49.099-12.309 62.816-6.876 19.722 7.809 35.963 25.702 42.417 46.72 2.985 6.862 7.146 10.604 12.715 11.438 13.441 2.006 33.848-13.909 47.127-29.554 4.864-5.729 10.188-12.358 15.822-19.377 18.433-22.958 39.325-48.979 60.958-65.355a2.5 2.5 0 0 1 3.129.09c16.402 13.961 26.524 31.086 32.354 43.845 22.381-14.271 39.41-31.831 50.64-52.226 10.301-18.709 15.048-38.894 13.727-58.372-1.973-29.116-17.186-52.718-40.692-63.135-19.197-8.506-41.491-8.65-66.262-.426-24.08 7.995-49.339 23.454-75.074 45.948a2.503 2.503 0 0 1-3.123.134c-24.818-18.188-57.488-27.412-91.493-27.412z"/><path d="M419.819 86.385a2.501 2.501 0 0 1-1.559-4.456c14.391-11.453 36.825-28.633 37.05-28.806a2.5 2.5 0 1 1 3.039 3.971c-.225.172-22.621 17.323-36.976 28.747a2.486 2.486 0 0 1-1.554.544zm165.824 205.303c-5.613 0-22.499-1.764-33.205-21.783a2.5 2.5 0 0 1 4.408-2.358c11.083 20.723 29.363 19.172 30.134 19.09 1.386-.126 2.597.863 2.737 2.233s-.85 2.595-2.22 2.74c-.142.016-.8.078-1.854.078zm-200.739 9.372a2.502 2.502 0 0 1-2.411-1.846c-.142-.52-13.529-47.651-64.58-71.297a2.5 2.5 0 1 1 2.101-4.537c53.266 24.671 66.757 72.501 67.305 74.525a2.5 2.5 0 0 1-2.415 3.155z"/><path d="M350.176 280.981a2.5 2.5 0 0 1-2.258-3.568c5.776-12.239 20.379-12.84 20.998-12.859l.08-.001a2.5 2.5 0 0 1 .083 4.999c-.189.007-12.195.58-16.64 9.996a2.503 2.503 0 0 1-2.263 1.433zm186.565-72.97a5.64 5.64 0 0 1 3.843-6.991 5.64 5.64 0 0 1 6.991 3.844 5.64 5.64 0 0 1-3.843 6.991 5.64 5.64 0 0 1-6.99-3.836l-.001-.008z"/><path d="M451.952 301.549c-5.497-18.877 5.35-38.637 24.227-44.134s38.637 5.35 44.134 24.227-5.35 38.637-24.227 44.134c-18.875 5.498-38.635-5.347-44.132-24.222-.001-.002-.002-.002-.002-.005z" fill="#ff6996"/><path d="M542.165 145.76a2.5 2.5 0 0 1-1.646-4.382c13.743-12 33.687-23.746 34.529-24.24a2.5 2.5 0 0 1 2.53 4.313c-.203.119-20.387 12.008-33.771 23.693a2.49 2.49 0 0 1-1.642.616z"/><path d="M590.212 896.943c-3.962-29.801 10.083-66.835 20.112-83.035 21.25-2.917 46.914-1.865 71.278 2.594 58.226 10.657 97.545 50.998 114.619 100.383 22.084 63.874 17.796 135.465-24.989 135.465-4.596 32.17-56.681 49.021-68.17-30.638-7.405-51.339-52.851-62.809-95.715-67.44-17.754-15.764-13.152-27.363-17.135-57.329z" fill="#ffaac3"/><path d="M742.565 1081.341c-6.555 0-16.228-2.373-25.122-13.663-8.11-10.295-13.685-25.653-16.568-45.649-7.156-49.615-51.414-60.982-93.765-65.558a2.199 2.199 0 0 1-1.23-.545c-14.035-12.464-14.784-22.688-16.023-39.625-.402-5.495-.858-11.724-1.835-19.066-4.106-30.884 10.349-68.214 20.425-84.489a2.204 2.204 0 0 1 1.578-1.026c21.27-2.921 46.831-1.994 71.978 2.61 55.022 10.07 97.416 47.188 116.31 101.834 8.09 23.401 12.771 48.327 13.18 70.188.433 23.186-3.801 41.707-12.245 53.56-6.551 9.197-15.339 14.105-26.143 14.608-3.031 15.174-16.105 26.812-30.521 26.822l-.019-.001zM608.293 952.153c43.821 4.81 89.409 16.919 96.956 69.244 5.015 34.769 18.963 55.523 37.313 55.523h.017c12.849-.009 24.474-10.938 26.465-24.881a2.21 2.21 0 0 1 2.188-1.897c10.15 0 18.364-4.306 24.413-12.796 15.81-22.194 15.188-71.433-1.513-119.737-18.358-53.097-59.519-89.155-112.928-98.932-24.288-4.445-48.931-5.404-69.543-2.718-10.378 17.284-22.939 53.016-19.259 80.693.993 7.472 1.454 13.77 1.86 19.325 1.182 16.133 1.841 25.12 14.031 36.176z"/><path d="M771.235 1054.562a2.209 2.209 0 0 1-2.184-2.563c8.178-50.629-5.087-85.003-17.654-104.924-13.628-21.601-29.411-31.378-29.568-31.474a2.212 2.212 0 0 1-.739-3.037 2.212 2.212 0 0 1 3.035-.741c.675.41 16.69 10.293 30.879 32.686 13.047 20.59 26.831 56.074 18.411 108.195a2.211 2.211 0 0 1-2.18 1.858z"/><path d="M324.997 659.607c-24.829 37.34-40.285 71.553-54.619 110.292C394.38 808.01 558.11 733.294 602.24 798.463c31.131 45.974 20.243 152.108-11.109 181.794-24.384 23.088-80.312 27.806-155.279 19.3-105.419-11.96-358.458 8.325-397.712-126.069C-.116 742.51 263.402 364.84 378.296 441.6l11.489 7.548" fill="#ff6996"/><path d="M498.521 1005.956c-18.639 0-39.632-1.32-62.944-3.966-20.029-2.272-44.939-3.355-73.784-4.609-59.424-2.583-133.379-5.799-195.568-21.978-73.455-19.11-116.12-52.221-130.435-101.227C7.158 776.148 142.055 549.67 258.58 464.175c49.236-36.124 91.103-44.634 121.076-24.61l11.474 7.538a2.448 2.448 0 1 1-2.69 4.092l-11.489-7.548c-35.526-23.735-82.403.211-115.475 24.477-55.841 40.971-119.052 117.484-164.966 199.684-22.595 40.451-39.775 80.125-49.684 114.734-10.74 37.516-12.872 67.885-6.336 90.262 13.789 47.211 55.32 79.222 126.966 97.861 61.688 16.049 135.355 19.251 194.548 21.825 28.936 1.258 53.925 2.344 74.124 4.636 79.178 8.981 130.764 2.71 153.318-18.646 30.501-28.879 41.441-133.342 10.766-178.642-23.05-34.04-81.449-28.416-149.067-21.902-58.158 5.6-124.076 11.949-181.486-5.694a2.45 2.45 0 0 1-1.577-3.191c16.749-45.27 32.647-77.37 54.875-110.798a2.448 2.448 0 1 1 4.079 2.711c-21.602 32.486-37.177 63.737-53.453 107.343 55.902 16.425 120.237 10.229 177.093 4.754 69.172-6.661 128.911-12.415 153.592 24.031 14.529 21.456 21.367 58.303 18.291 98.564-2.958 38.709-14.354 71.809-29.744 86.38-16.819 15.924-48.426 23.92-94.294 23.92z" fill="#111"/><path d="M233.785 759.756s28.085 7.915 36.593 10.144" fill="#fff"/><path d="M270.381 772.11a2.18 2.18 0 0 1-.562-.073c-8.432-2.208-36.353-10.074-36.634-10.154a2.21 2.21 0 1 1 1.2-4.254c.28.079 28.162 7.935 36.554 10.133a2.211 2.211 0 0 1-.558 4.348z"/></svg></g><g transform="translate(494.0 1749.0) rotate(0.0 496.5 671.5) scale(1.0000281981767865 1.0006109463708295)"><svg width="992.972" height="1342.18" viewBox="0 0 992.972 1342.18"><path d="M273.654 2.5H123.611c-38.66 0-70 31.34-70 70v629.115h290.043V72.5c0-38.66-31.34-70-70-70z" fill="#fbb348"/><path d="M343.654 704.115H53.612a2.5 2.5 0 0 1-2.5-2.5V72.5c0-39.977 32.523-72.5 72.5-72.5h150.042c39.977 0 72.5 32.523 72.5 72.5v629.115a2.5 2.5 0 0 1-2.5 2.5zm-287.542-5h285.042V72.5c0-37.22-30.28-67.5-67.5-67.5H123.612c-37.22 0-67.5 30.28-67.5 67.5z"/><path d="M53.611 679.421h860.111v660.259H53.611z" fill="#fbb348"/><path d="M913.722 1342.181H53.612a2.5 2.5 0 0 1-2.5-2.5v-660.26a2.5 2.5 0 0 1 2.5-2.5h860.11a2.5 2.5 0 0 1 2.5 2.5v660.26a2.5 2.5 0 0 1-2.5 2.5zm-857.61-5h855.11v-655.26H56.112z"/><path d="M920.472 399.317H72.5c-38.66 0-70 31.34-70 70v195.277c0 38.66 31.34 70 70 70h847.972c38.66 0 70-31.34 70-70V469.317c0-38.659-31.34-70-70-70z" fill="#fbb348"/><path d="M920.472 737.095H72.5c-39.977 0-72.5-32.523-72.5-72.5V469.317c0-39.977 32.523-72.5 72.5-72.5h847.973c39.977 0 72.5 32.523 72.5 72.5v195.277c-.001 39.977-32.524 72.501-72.501 72.501zM72.5 401.817c-37.22 0-67.5 30.28-67.5 67.5v195.277c0 37.22 30.28 67.5 67.5 67.5h847.973c37.22 0 67.5-30.28 67.5-67.5V469.317c0-37.22-30.28-67.5-67.5-67.5z"/></svg></g><g transform="translate(1964.0 2424.0) rotate(0.0 624.5 334.0) scale(1.0000680590752773 1.0013926553545274)"><svg width="1248.915" height="667.071" viewBox="0 0 1248.915 667.071"><path d="M70.987 664.571h45.308l62.298-418.045H70.987z" fill="#fff"/><path d="M116.295 667.071H70.987a2.5 2.5 0 0 1-2.5-2.5V246.526a2.5 2.5 0 0 1 2.5-2.5h107.606a2.497 2.497 0 0 1 2.473 2.868L118.768 664.94a2.5 2.5 0 0 1-2.473 2.131zm-42.808-5h40.653l61.553-413.045H73.487z"/><path d="M1177.928 664.571h-45.308l-62.298-418.045h107.606z" fill="#fff"/><path d="M1177.928 667.071h-45.309a2.5 2.5 0 0 1-2.473-2.132l-62.298-418.045a2.5 2.5 0 0 1 2.473-2.868h107.606a2.5 2.5 0 0 1 2.5 2.5v418.045a2.498 2.498 0 0 1-2.499 2.5zm-43.153-5h40.653V249.026h-102.206z"/><path d="M70.987 48.479h1106.941v222.42H70.987z" fill="#fff"/><path d="M1177.928 273.398H70.987a2.5 2.5 0 0 1-2.5-2.5V48.479a2.5 2.5 0 0 1 2.5-2.5h1106.941a2.5 2.5 0 0 1 2.5 2.5v222.42a2.5 2.5 0 0 1-2.5 2.499zm-1104.441-5h1101.941V50.979H73.487z"/><path d="M130.747 108.244h477.957v104.17H130.747z" fill="#fff"/><path d="M608.704 214.914H130.747a2.5 2.5 0 0 1-2.5-2.5v-104.17a2.5 2.5 0 0 1 2.5-2.5h477.957a2.5 2.5 0 0 1 2.5 2.5v104.17a2.5 2.5 0 0 1-2.5 2.5zm-475.457-5h472.957v-99.17H133.247z"/><circle cx="369.726" cy="160.329" fill="#fbb348" r="25.962"/><path d="M369.726 188.791c-15.694 0-28.462-12.768-28.462-28.462s12.768-28.463 28.462-28.463 28.463 12.769 28.463 28.463-12.769 28.462-28.463 28.462zm0-51.925c-12.937 0-23.462 10.525-23.462 23.463 0 12.937 10.525 23.462 23.462 23.462 12.938 0 23.463-10.525 23.463-23.462s-10.526-23.463-23.463-23.463z"/><path d="M640.21 106.632h477.957v104.17H640.21z" fill="#fff"/><path d="M1118.167 213.303H640.21a2.5 2.5 0 0 1-2.5-2.5V106.632a2.5 2.5 0 0 1 2.5-2.5h477.957a2.5 2.5 0 0 1 2.5 2.5v104.171a2.5 2.5 0 0 1-2.5 2.5zm-475.457-5h472.957v-99.171H642.71z"/><circle cx="879.189" cy="158.717" fill="#fbb348" r="25.962"/><path d="M879.189 187.18c-15.694 0-28.463-12.768-28.463-28.462s12.769-28.463 28.463-28.463 28.463 12.769 28.463 28.463-12.769 28.462-28.463 28.462zm0-51.925c-12.938 0-23.463 10.525-23.463 23.463 0 12.937 10.525 23.462 23.463 23.462s23.463-10.525 23.463-23.462c0-12.938-10.526-23.463-23.463-23.463z"/><path d="M2.5 2.5h1243.915v46.979H2.5z" fill="#fff"/><path d="M1246.415 51.979H2.5a2.5 2.5 0 0 1-2.5-2.5V2.5A2.5 2.5 0 0 1 2.5 0h1243.915a2.5 2.5 0 0 1 2.5 2.5v46.979a2.5 2.5 0 0 1-2.5 2.5zM5 46.979h1238.915V5H5z"/></svg></g><g transform="translate(2023.0 1955.0) rotate(0.0 496.5 237.0) scale(0.9793353340835325 0.9810699043353355)"><svg width="1013.953" height="483.146" viewBox="0 0 1013.953 483.146"><path d="M360.38 480.646h-34.006l55.224-53.184h55.888z" fill="#6f5490"/><path d="M360.38 483.146h-34.006a2.499 2.499 0 0 1-1.734-4.3l55.224-53.184a2.504 2.504 0 0 1 1.734-.699h55.889a2.5 2.5 0 0 1 1.42 4.558L361.8 482.703a2.503 2.503 0 0 1-1.42.443zm-27.805-5h27.027l69.857-48.184h-46.854z"/><path d="M654.611 480.646h34.005l-55.224-53.184h-55.888z" fill="#6f5490"/><path d="M688.617 483.146h-34.006a2.502 2.502 0 0 1-1.42-.442l-77.106-53.184a2.5 2.5 0 0 1 1.42-4.558h55.888c.646 0 1.269.251 1.734.699l55.225 53.184a2.499 2.499 0 0 1-1.735 4.301zm-33.228-5h27.027l-50.032-48.184h-46.853z"/><path d="M495.512 480.646h25.878l7.155-53.184h-42.431z" fill="#6f5490"/><path d="M521.39 483.146h-25.878a2.5 2.5 0 0 1-2.462-2.065l-9.398-53.184a2.501 2.501 0 0 1 2.462-2.935h42.431a2.498 2.498 0 0 1 2.478 2.833l-7.154 53.184a2.502 2.502 0 0 1-2.479 2.167zm-23.781-5h21.595l6.482-48.184h-36.592z"/><path d="M506.111 327.894c-57.244 0-105.639 37.888-121.475 89.955-3.56 11.705 246.299 10.374 242.363-1.877-16.418-51.098-64.335-88.078-120.888-88.078z" fill="#92acef"/><path d="M493.585 427.976c-48.276 0-101.93-1.839-109.454-7.174-1.877-1.331-1.64-2.924-1.45-3.547 7.878-25.899 24.191-49.175 45.937-65.54 22.481-16.919 49.278-25.862 77.493-25.862 27.862 0 54.389 8.741 76.71 25.278 21.884 16.212 37.833 38.418 46.122 64.216.205.64.476 2.278-1.447 3.688-10.875 7.97-110.502 8.831-121.826 8.903-3.967.025-8.011.038-12.085.038zm-106.764-10.287c1.831 1.002 10.448 3.698 50.665 5.24 28.064 1.076 63.465 1.265 97.124.515 64.435-1.433 86.719-5.268 90.229-7.513-8.085-24.695-23.443-45.957-44.448-61.519-21.613-16.012-47.299-24.476-74.279-24.476-27.322 0-53.27 8.659-75.038 25.042-20.848 15.69-36.54 37.935-44.253 62.711zm238.233-1.092h.011z"/><path d="M632.9 404.483H381.495c-6.345 0-11.489 5.144-11.489 11.489 0 6.345 5.144 11.489 11.489 11.489H632.9c6.345 0 11.489-5.144 11.489-11.489 0-6.345-5.144-11.489-11.489-11.489z" fill="#6f5490"/><path d="M632.9 429.962H381.495c-7.714 0-13.989-6.275-13.989-13.989s6.275-13.99 13.989-13.99H632.9c7.714 0 13.989 6.276 13.989 13.99s-6.275 13.989-13.989 13.989zm-251.405-22.979c-4.957 0-8.989 4.033-8.989 8.99s4.032 8.989 8.989 8.989H632.9c4.957 0 8.989-4.032 8.989-8.989s-4.032-8.99-8.989-8.99z"/><g fill="#92acef"><path d="M644.391 317.905a3.501 3.501 0 0 1-2.268-6.168L1008.187.832a3.501 3.501 0 0 1 4.532 5.336L646.655 317.073a3.492 3.492 0 0 1-2.264.832zm-274.829 0a3.487 3.487 0 0 1-2.264-.832L1.235 6.168A3.5 3.5 0 1 1 5.767.832L371.83 311.736a3.5 3.5 0 0 1-2.268 6.169zm203.158-45.328a3.499 3.499 0 0 1-2.975-5.338L690.479 71.781a3.5 3.5 0 0 1 5.955 3.677L575.701 270.916a3.494 3.494 0 0 1-2.981 1.661zm-131.809 0a3.494 3.494 0 0 1-2.887-1.517l-95.402-138.688a3.5 3.5 0 1 1 5.767-3.967l95.402 138.688a3.5 3.5 0 0 1-2.88 5.484zm66.418-11.651a3.5 3.5 0 0 1-3.5-3.5V26.617a3.5 3.5 0 1 1 7 0v230.809a3.5 3.5 0 0 1-3.5 3.5z"/></g></svg></g><g transform="translate(1782.0 761.0) rotate(0.0 725.5 539.5) scale(1.000551648048545 1.0004218646417162)"><svg width="1450.2" height="1078.545" viewBox="0 0 1450.2 1078.545"><g><g><g><g><path d="M154.421 1076.045H1295.78c83.904 0 151.921-68.017 151.921-151.921V154.42c0-83.903-68.017-151.92-151.921-151.92H154.421C70.517 2.5 2.5 70.517 2.5 154.42v769.703c0 83.904 68.017 151.922 151.921 151.922z" style="fill:#fff"/></g><g><path d="M1443.888 121.03H6.313C19.225 52.678 82.935 2.5 151.719 2.5h1146.762c68.785 0 130.738 51.199 145.407 118.53z" style="fill:#cad5f3"/></g><g><path d="M1443.689 123.53H6.51a2.5 2.5 0 1 1 0-5h1437.178a2.5 2.5 0 1 1 0 5z"/></g><g><path d="M1298.552 1078.545H151.648C68.03 1078.545 0 1010.516 0 926.895V151.649C0 68.028 68.03 0 151.648 0h1146.904c83.62 0 151.648 68.029 151.648 151.648v775.249c0 83.619-68.029 151.648-151.648 151.648zM151.648 5C70.786 5 5 70.786 5 151.648v775.248c0 80.862 65.786 146.65 146.648 146.65h1146.904c80.861 0 146.648-65.787 146.648-146.65V151.649C1445.2 70.786 1379.412 5 1298.552 5H151.648z"/></g><g><circle cx="1317.155" cy="65.223" r="27.342" style="fill:#ff6996"/></g><g><circle cx="1230.396" cy="65.223" r="27.342" style="fill:#fbb348"/></g><g><circle cx="1143.638" cy="65.223" r="27.342" style="fill:#92acef"/></g><g><path d="M1317.155 95.065c-16.456 0-29.842-13.387-29.842-29.842s13.386-29.842 29.842-29.842 29.842 13.387 29.842 29.842-13.387 29.842-29.842 29.842zm0-54.684c-13.699 0-24.842 11.144-24.842 24.842 0 13.698 11.143 24.842 24.842 24.842s24.842-11.144 24.842-24.842c0-13.698-11.144-24.842-24.842-24.842z"/></g><g><path d="M1230.396 95.065c-16.455 0-29.842-13.387-29.842-29.842s13.387-29.842 29.842-29.842 29.842 13.387 29.842 29.842-13.387 29.842-29.842 29.842zm0-54.684c-13.698 0-24.842 11.144-24.842 24.842 0 13.698 11.144 24.842 24.842 24.842s24.842-11.144 24.842-24.842c0-13.698-11.144-24.842-24.842-24.842z"/></g><g><path d="M1143.638 95.065c-16.455 0-29.842-13.387-29.842-29.842s13.387-29.842 29.842-29.842 29.842 13.387 29.842 29.842-13.387 29.842-29.842 29.842zm0-54.684c-13.698 0-24.842 11.144-24.842 24.842 0 13.698 11.144 24.842 24.842 24.842s24.842-11.144 24.842-24.842c0-13.698-11.144-24.842-24.842-24.842z"/></g></g></g></g></svg></g><g transform="translate(153.0 1863.0) rotate(0.0 342.5 614.5) scale(1.0054750686218386 1.0043401550557371)"><svg width="681.27" height="1223.689" viewBox="0 0 681.27 1223.689"><path d="M86.755 315.023c16.34 151.448 182.298 301.068 213.954 378.171l58.133-12.255c0-121.022-104.087-328.585-272.087-365.916z" fill="#cad5f3"/><path d="M300.709 695.695a2.501 2.501 0 0 1-2.312-1.551c-10.749-26.179-37.43-61.169-68.323-101.684C169.927 513.581 95.072 415.413 84.27 315.291a2.5 2.5 0 0 1 3.027-2.709c40.15 8.922 78.642 27.895 114.404 56.391 32.042 25.531 61.04 57.915 86.188 96.253 45.308 69.071 73.453 151.728 73.453 215.713a2.5 2.5 0 0 1-1.984 2.446l-58.132 12.256a2.537 2.537 0 0 1-.517.054zM89.645 318.252c12.001 97.543 85.34 193.715 144.405 271.176 30.37 39.828 56.696 74.354 68.163 100.895l54.119-11.409c-.587-62.779-28.301-143.373-72.624-210.945-24.856-37.894-53.496-69.885-85.122-95.085-34.143-27.205-70.775-45.573-108.941-54.632zm269.197 362.687h.01z"/><path d="m127.696 436.48-11.828-22.025c7.509-4.032 9.186-8.21 11.965-15.132 2.698-6.72 6.056-15.083 15.313-21.938 9.447-6.995 19.434-8.248 27.457-9.255 8.972-1.126 13.472-1.893 17.686-6.961l19.225 15.982c-10.715 12.887-24.056 14.562-33.797 15.784-6.432.807-11.511 1.444-15.694 4.541-3.411 2.526-4.742 5.564-6.989 11.161-3.308 8.236-7.837 19.518-23.338 27.843zm75.32 125.282-10.229-22.812c7.971-3.573 11.263-9.465 15.819-17.619 4.512-8.073 10.127-18.12 21.49-25.868 15.125-10.312 30.847-11.678 43.48-12.774 8.557-.743 15.947-1.386 21.046-4.457l12.898 21.416c-10.062 6.061-21.104 7.02-31.782 7.947-11.23.975-21.838 1.896-31.559 8.524-6.497 4.43-9.858 10.444-13.751 17.408-5.294 9.477-11.887 21.273-27.412 28.235zm85.295 108.057-14.09-20.652c5.364-3.659 8.463-7.263 11.743-11.079 4.543-5.283 9.691-11.271 19.476-15.612 11.603-5.148 21.506-4.494 30.246-3.911 5.236.346 10.183.676 15.53-.243l4.229 24.641c-8.27 1.417-15.252.955-21.413.548-7.249-.484-12.488-.828-18.454 1.817-4.637 2.058-6.902 4.693-10.656 9.06-3.8 4.416-8.527 9.915-16.611 15.431z" fill="#92acef"/><path d="M300.709 695.695a2.501 2.501 0 0 1-2.312-1.551c-10.749-26.179-37.43-61.169-68.323-101.684C169.927 513.581 95.072 415.413 84.27 315.291a2.5 2.5 0 0 1 3.027-2.709c40.15 8.922 78.642 27.895 114.404 56.391 32.042 25.531 61.04 57.915 86.188 96.253 45.308 69.071 73.453 151.728 73.453 215.713a2.5 2.5 0 0 1-1.984 2.446l-58.132 12.256a2.537 2.537 0 0 1-.517.054zM89.645 318.252c12.001 97.543 85.34 193.715 144.405 271.176 30.37 39.828 56.696 74.354 68.163 100.895l54.119-11.409c-.587-62.779-28.301-143.373-72.624-210.945-24.856-37.894-53.496-69.885-85.122-95.085-34.143-27.205-70.775-45.573-108.941-54.632zm269.197 362.687h.01z"/><path d="M277.771 2.5c-39.866 179.094 65.07 379.715 55.687 670.173l97.979 3.268c40.85-209.47-17.362-563.343-153.666-673.441z" fill="#cad5f3"/><path d="m431.438 678.441-.084-.001-97.979-3.268a2.502 2.502 0 0 1-2.416-2.58c4.513-139.671-17.556-259.045-37.026-364.367C272.806 193.951 254.561 95.261 275.33 1.957a2.498 2.498 0 0 1 4.012-1.402c32.908 26.582 62.501 68.004 87.956 123.113 23.401 50.664 42.306 110.479 56.188 177.783 26.884 130.35 30.773 270.524 10.405 374.968a2.502 2.502 0 0 1-2.453 2.022zm-95.405-8.183 93.354 3.113c19.79-103.604 15.778-242.047-10.799-370.91-13.609-65.987-32.915-127.088-55.829-176.696-24.312-52.634-52.361-92.552-83.413-118.724-19.16 91.15-1.222 188.177 19.502 300.274 19.401 104.947 41.376 223.803 37.185 362.943z"/><g fill="#92acef"><path d="m273.144 164.52-2.496-24.875c4.549-.457 8.016-4.773 13.295-11.777 5.576-7.399 11.897-15.785 22.568-19.814 11.639-4.393 22.67-1.851 32.405.391 7.683 1.771 14.321 3.301 19.486 1.093l9.816 22.992c-12.654 5.404-24.996 2.562-34.914.277-7.192-1.656-13.403-3.087-17.964-1.364-3.896 1.471-7.558 6.329-11.434 11.473-6.726 8.924-15.098 20.031-30.762 21.604zm19.186 115.76-6.391-24.17c11.395-3.013 19.321-8.993 27.714-15.325 7.825-5.903 15.916-12.007 26.453-15.081 14.401-4.198 27.447-2.187 38.956-.41 8.6 1.327 16.727 2.582 24.763 1.22l4.176 24.648c-12.03 2.038-23.038.339-32.752-1.161-10.232-1.579-19.068-2.943-28.143-.297-6.138 1.79-11.818 6.076-18.396 11.038-9.017 6.804-20.239 15.271-36.38 19.538zm23.982 151.755-1.787-24.936c8.535-.611 14.184-5.252 22.693-12.771 7.415-6.552 15.818-13.978 27.939-17.377 16.365-4.59 30.784-.473 43.506 3.157 9.506 2.714 17.716 5.056 25.175 3.492l5.127 24.469c-13.509 2.833-26.077-.757-37.163-3.921-10.915-3.114-20.341-5.807-29.895-3.125-6.607 1.853-11.949 6.573-18.135 12.039-8.937 7.898-20.06 17.727-37.46 18.973zm16.994 153.59-1.787-24.936c9.21-.66 14.88-4.482 22.059-9.322 7.666-5.168 16.354-11.024 29.483-12.776 14.073-1.872 25.728 1.938 36.009 5.305 8.216 2.69 15.968 5.222 24.585 4.813l1.213 24.971c-13.231.643-24.034-2.9-33.577-6.025-8.858-2.9-16.506-5.406-24.925-4.282-7.319.976-12.392 4.396-18.813 8.725-8.19 5.519-18.382 12.39-34.247 13.527z"/></g><path d="m431.438 678.441-.084-.001-97.979-3.268a2.502 2.502 0 0 1-2.416-2.58c4.513-139.671-17.556-259.045-37.026-364.367C272.806 193.951 254.561 95.261 275.33 1.957a2.498 2.498 0 0 1 4.012-1.402c32.908 26.582 62.501 68.004 87.956 123.113 23.401 50.664 42.306 110.479 56.188 177.783 26.884 130.35 30.773 270.524 10.405 374.968a2.502 2.502 0 0 1-2.453 2.022zm-95.405-8.183 93.354 3.113c19.79-103.604 15.778-242.047-10.799-370.91-13.609-65.987-32.915-127.088-55.829-176.696-24.312-52.634-52.361-92.552-83.413-118.724-19.16 91.15-1.222 188.177 19.502 300.274 19.401 104.947 41.376 223.803 37.185 362.943z"/><path d="M422.386 693.194C421.3 551.095 547.607 408.258 678.771 382.215c-29.547 115.66-153.121 233.253-174.568 310.979z" fill="#cad5f3"/><path d="M504.202 695.694h-81.816a2.5 2.5 0 0 1-2.5-2.48c-.266-34.755 6.914-70.363 21.341-105.837 13.659-33.588 33.122-65.485 57.846-94.805 49.71-58.948 115.029-100.065 179.21-112.809a2.497 2.497 0 0 1 2.909 3.071c-16.521 64.673-62.465 130.266-103 188.137-31.965 45.637-62.158 88.742-71.579 122.888a2.502 2.502 0 0 1-2.411 1.835zm-79.322-5h77.436c10.188-34.656 40.121-77.391 71.781-122.591 39.471-56.353 84.102-120.072 101.222-182.617-61.817 13.401-124.451 53.422-172.423 110.31-24.386 28.917-43.576 60.363-57.037 93.464-13.834 34.016-20.888 68.127-20.979 101.434z"/><path d="M570.369 577.604c-11.405-8.129-16.322-19.436-20.273-28.521-4.313-9.921-7.104-15.706-14.296-19.227-5.373-2.63-10.989-3.109-17.492-3.665-9.834-.839-22.072-1.884-33.952-11.549l15.777-19.393c5.904 4.804 11.943 5.319 20.302 6.032 7.865.672 16.78 1.433 26.357 6.12 15.806 7.738 21.586 21.03 26.23 31.712 3.408 7.838 6.101 14.029 11.856 18.131zm60.374-91.466c-12.295-7.179-15.845-17.625-18.438-25.252-1.631-4.801-2.657-7.609-4.768-9.511-2.254-2.03-6.709-2.707-11.867-3.491-8.968-1.362-21.249-3.229-29.127-15.039l20.799-13.873c1.585 2.377 4.899 3.104 12.084 4.195 7.584 1.153 17.022 2.587 24.845 9.634 7.054 6.354 9.633 13.942 11.704 20.04 2.177 6.404 3.311 9.336 7.373 11.709zM513.25 667.781c-7.344-4.169-13.005-9.654-18-14.494-8.239-7.982-13.32-12.517-21.927-12.894-3.619-.16-7.616.499-12.254 1.26-9.023 1.483-20.256 3.327-34.051-.252l6.277-24.199c8.681 2.251 15.988 1.051 23.725-.218 5.506-.904 11.194-1.83 17.397-1.567 18.509.811 29.442 11.404 38.228 19.916 4.305 4.17 8.37 8.109 12.946 10.706z" fill="#92acef"/><path d="M504.202 695.694h-81.816a2.5 2.5 0 0 1-2.5-2.48c-.266-34.755 6.914-70.363 21.341-105.837 13.659-33.588 33.122-65.485 57.846-94.805 49.71-58.948 115.029-100.065 179.21-112.809a2.497 2.497 0 0 1 2.909 3.071c-16.521 64.673-62.465 130.266-103 188.137-31.965 45.637-62.158 88.742-71.579 122.888a2.502 2.502 0 0 1-2.411 1.835zm-79.322-5h77.436c10.188-34.656 40.121-77.391 71.781-122.591 39.471-56.353 84.102-120.072 101.222-182.617-61.817 13.401-124.451 53.422-172.423 110.31-24.386 28.917-43.576 60.363-57.037 93.464-13.834 34.016-20.888 68.127-20.979 101.434z"/><path d="M311.947 675.941S237.294 478.172 86.755 537.705c-56.17 22.212-79.37 70.543-84.255 90.127 45.958 2.043 94.145-18.57 136.851-11.741 38.298 6.124 67.915 33.188 91.915 70.975z" fill="#cad5f3"/><path d="M231.265 689.567a2.502 2.502 0 0 1-2.109-1.159c-26.365-41.511-55.869-64.358-90.199-69.848-22.784-3.646-46.875.616-72.381 5.127-21.1 3.73-42.918 7.598-64.187 6.643a2.501 2.501 0 0 1-2.315-3.103c5.545-22.23 30.604-70.035 85.762-91.848 38.304-15.147 75.162-15.111 109.548.106 22.703 10.047 56.63 32.61 89.325 83.044 19.497 30.075 29.478 56.268 29.576 56.528a2.5 2.5 0 0 1-1.997 3.359l-80.681 11.126a2.315 2.315 0 0 1-.342.025zm-110.461-77.354c6.419 0 12.748.419 18.941 1.409 35.446 5.668 65.804 28.817 92.765 70.749l75.924-10.47c-3.133-7.574-12.52-28.914-27.986-52.753-17.67-27.235-47.125-63.413-87.105-81.1-33.11-14.646-68.662-14.652-105.668-.02-50.892 20.125-75.208 62.992-81.923 85.409 19.749.433 40.171-3.177 59.953-6.676 18.289-3.232 37.041-6.548 55.099-6.548z"/><path d="M131.418 614.713h-25c0-3.622-2.119-6.95-5.864-12.521-4.714-7.011-10.58-15.735-11.46-28.44-.675-9.737 1.864-16.338 3.904-21.642 2.114-5.496 3.642-9.467 1.854-18.664l24.541-4.77c3.157 16.242-.437 25.586-3.061 32.408-1.615 4.198-2.59 6.732-2.299 10.939.419 6.033 3.44 10.528 7.267 16.219 4.508 6.705 10.118 15.049 10.118 26.471zm73.511 37.312-18.828-16.447c3.469-3.971 3.951-7.896 4.566-15.062.58-6.747 1.301-15.145 6.571-23.405 7.106-11.141 16.652-15.136 25.075-18.661 6.177-2.586 12.012-5.028 17.763-10.552l17.318 18.029c-9.114 8.755-18.16 12.541-25.429 15.583-7.261 3.04-10.875 4.694-13.651 9.046-1.869 2.931-2.259 6.507-2.739 12.1-.69 8.04-1.635 19.054-10.646 29.369z" fill="#92acef"/><path d="M231.265 689.567a2.502 2.502 0 0 1-2.109-1.159c-26.365-41.511-55.869-64.358-90.199-69.848-22.784-3.646-46.875.616-72.381 5.127-21.1 3.73-42.918 7.598-64.187 6.643a2.501 2.501 0 0 1-2.315-3.103c5.545-22.23 30.604-70.035 85.762-91.848 38.304-15.147 75.162-15.111 109.548.106 22.703 10.047 56.63 32.61 89.325 83.044 19.497 30.075 29.478 56.268 29.576 56.528a2.5 2.5 0 0 1-1.997 3.359l-80.681 11.126a2.315 2.315 0 0 1-.342.025zm-110.461-77.354c6.419 0 12.748.419 18.941 1.409 35.446 5.668 65.804 28.817 92.765 70.749l75.924-10.47c-3.133-7.574-12.52-28.914-27.986-52.753-17.67-27.235-47.125-63.413-87.105-81.1-33.11-14.646-68.662-14.652-105.668-.02-50.892 20.125-75.208 62.992-81.923 85.409 19.749.433 40.171-3.177 59.953-6.676 18.289-3.232 37.041-6.548 55.099-6.548z"/><path d="M552.247 670.683H174.374l39.924 550.383h287.294z" fill="#6f5490"/><path d="M501.592 1223.689H214.298a2.622 2.622 0 0 1-2.616-2.434l-39.924-550.382a2.624 2.624 0 0 1 2.616-2.813h377.873a2.623 2.623 0 0 1 2.612 2.863l-50.655 550.382a2.623 2.623 0 0 1-2.612 2.384zm-284.854-5.246h282.46l50.173-545.136H177.194z"/></svg></g><g transform="translate(1857.0 976.0) rotate(0.0 577.5 483.0) scale(1.0002095677189506 1.0007407138824285)"><svg width="1154.758" height="965.285" viewBox="0 0 1154.758 965.285"><path d="M536.732 229.568c-85.47-29.563-140.492-125.76-100.543-184.658 26.198-38.624 94.99-45.261 144.849 16.398 41.457-67.867 224.394-112.085 279.896 67.375 71.979 9.672 142.109 109.343 116.53 222.043 58.293 54.273 28.835 174.418-38.162 205.275-147.709 68.031-423.001 46.826-346.53-217.843-45.702-44.277-55.967-105.269-56.04-108.59z" fill="#ff6996"/><path d="M783.904 591c-59.064.003-116.117-14.362-155.038-47.831-24.232-20.839-40.083-47.793-47.11-80.113-7.685-35.346-4.752-77.156 8.717-124.289-23.54-23.146-37.306-50.521-44.732-69.518-7.433-19.01-10.229-33.529-10.887-38.175-50.096-17.756-92.405-59.335-107.998-106.246-10.04-30.205-7.325-58.994 7.644-81.064 12.376-18.245 33.411-29.295 57.712-30.316 31.646-1.339 63.812 14.817 88.617 44.395 11.579-17.414 32.458-33.316 57.789-43.922 28.24-11.823 59.926-16.323 89.222-12.664 29.731 3.712 56.075 15.271 78.298 34.354 25.168 21.612 44.126 52.301 56.362 91.232 31.904 4.752 63.481 26.646 86.823 60.256 32.058 46.16 43.106 105.487 30.389 162.94 25.297 24.174 35.866 62.416 29.012 105.151-7.479 46.628-34.393 86.927-68.566 102.666C894.9 578.699 838.54 590.997 783.904 591zM495.84 17.455c-1.154 0-2.306.024-3.459.072-22.995.967-42.86 11.365-54.503 28.529-14.239 20.994-16.778 48.512-7.148 77.484 15.332 46.127 57.202 86.988 106.67 104.099a2.053 2.053 0 0 1 1.373 1.884c.016.55 8.907 62.107 55.42 107.169.542.525.75 1.308.541 2.033-13.567 46.955-16.591 88.494-8.987 123.463 6.834 31.434 22.237 57.638 45.782 77.885 24.1 20.724 69.136 45.669 146.827 46.82 54.785.798 113.146-11.125 160.091-32.746 32.973-15.187 58.975-54.283 66.243-99.603 6.712-41.847-3.719-79.142-28.618-102.323a2.041 2.041 0 0 1-.6-1.946c12.867-56.692 2.113-115.318-29.505-160.847-23.004-33.123-54.097-54.526-85.306-58.721a2.042 2.042 0 0 1-1.68-1.42c-11.99-38.772-30.666-69.247-55.506-90.578-21.604-18.552-47.223-29.789-76.144-33.4-28.599-3.566-59.545.826-87.139 12.379-25.717 10.768-46.644 27.056-57.414 44.687a2.04 2.04 0 0 1-1.608.973 2.023 2.023 0 0 1-1.722-.753c-23.317-28.841-53.61-45.14-83.608-45.14z"/><path d="M42.959 501.088C10.491 460.734-15.816 395.22 17.395 376.386c12.256-5.445 28.455-2.426 40.615 29.319 4.155 10.847 12.245 23.827 13.883 25.652" fill="#ffaac3"/><path d="M42.96 503.129a2.04 2.04 0 0 1-1.592-.762C17.054 472.148-4.657 426.359.89 397.313c1.977-10.354 7.191-17.992 15.498-22.703.058-.032.117-.062.178-.09 6.561-2.913 13.251-3.117 19.351-.586 9.555 3.966 17.63 14.41 24.001 31.041 4.086 10.668 12.129 23.497 13.495 25.02a2.04 2.04 0 0 1-.156 2.883 2.04 2.04 0 0 1-2.883-.156c-1.885-2.1-10.057-15.286-14.271-26.285-5.954-15.544-13.272-25.21-21.753-28.73-5.081-2.11-10.478-1.939-16.034.506-7.166 4.098-11.68 10.781-13.415 19.867-5.313 27.829 15.924 72.24 39.649 101.729a2.043 2.043 0 0 1-1.59 3.32z"/><path d="M270.044 564.667s-.145-55.565-52.261-105.315c-28.74-27.436-54.161-27.089-94.456-64.395-28.27-25.778-44.072-22.203-52.924-15.565-12.011 9.008-13.957 33.702 3.125 52.906-19.345 8.908-42.795 40.21-37.312 79.889 3.118 22.568 21.015 51.239 45.91 63.465 17.717 35.012 66.192 78.469 155.077 47.019z" fill="#ffaac3"/><path d="M179.447 635.612c-17.002 0-32.805-3.22-47.298-9.662-29.675-13.189-44.938-35.957-51.534-48.77C54.444 564 37.184 534.1 34.194 512.465c-5.529-40.015 17.078-70.515 36.099-80.827-8.233-10.183-12.258-22.488-11.088-34.135.847-8.43 4.481-15.626 9.974-19.746 13.951-10.464 32.634-5.184 55.525 15.69 21.31 19.729 38.744 29.008 54.126 37.194 13.756 7.321 26.749 14.236 40.363 27.232 27.229 25.993 40.156 53.587 46.206 72.158 6.574 20.184 6.686 34.048 6.688 34.629.001.354-.091.702-.265 1.011l-32.841 58.004a2.04 2.04 0 0 1-1.097.919c-20.755 7.345-40.28 11.018-58.437 11.018zM84.708 376.664c-4.836 0-9.199 1.452-13.078 4.361-4.581 3.436-7.629 9.591-8.361 16.887-1.135 11.294 3.161 23.332 11.786 33.028.431.483.605 1.143.474 1.775a2.047 2.047 0 0 1-1.145 1.437c-30.072 13.849-39.346 54.584-36.145 77.755 2.869 20.76 19.542 49.514 44.789 61.912.397.195.722.516.922.911 20.688 40.879 71.426 74.416 151.854 46.269l32.186-56.846c-.09-2.69-.814-15.549-6.53-33.026-5.912-18.079-18.534-44.951-45.087-70.299-13.208-12.607-25.96-19.395-39.462-26.58-15.601-8.304-33.284-17.715-54.971-37.793-14.451-13.177-26.913-19.791-37.232-19.791z"/><path d="M81.224 577.486c-26.512-13.021-44.02-43.218-47.031-65.02-2.594-18.768.105-36.756 7.806-52.02 6.767-13.412 17.396-24.581 29.928-31.451 12.469-6.833 30.68-7.496 41.361 4.464 7.683 8.604 7.642 20.304-.111 31.294a2.042 2.042 0 1 1-3.338-2.354c6.582-9.33 6.732-19.132.402-26.22-7.009-7.85-21.747-11.606-36.352-3.603-11.815 6.476-21.847 17.027-28.244 29.709-7.325 14.52-9.887 31.678-7.407 49.621 2.868 20.76 19.54 49.513 44.788 61.911z"/><path d="M82.127 577.694a2.04 2.04 0 0 1-1.81-1.093c-12.579-23.967-13.989-57.008-3.508-82.219 6.812-16.386 17.691-27.295 31.461-31.546 6.497-2.004 13.63-.786 19.568 3.347 7.694 5.354 12.288 14.714 12.935 26.354.299 5.378-.75 11.227-1.859 17.419-2.663 14.861-5.979 33.357 8.074 55.726a2.04 2.04 0 1 1-3.459 2.171c-14.892-23.705-11.423-43.063-8.635-58.618 1.066-5.95 2.073-11.57 1.801-16.472-.575-10.357-4.549-18.606-11.188-23.228-4.901-3.41-10.745-4.431-16.031-2.797-15.883 4.903-24.48 18.592-28.895 29.211-10.042 24.153-8.694 55.802 3.352 78.753a2.042 2.042 0 0 1-1.806 2.992zm-45.914-63.465a2.042 2.042 0 0 1-2.02-1.763c-2.594-18.768.105-36.756 7.806-52.02 6.766-13.412 17.395-24.581 29.928-31.451 11.061-6.062 23.645-6.599 33.66-1.43 7.539 3.889 12.374 10.474 13.266 18.064a2.044 2.044 0 0 1-1.79 2.267c-1.121.118-2.136-.67-2.267-1.79-.729-6.221-4.769-11.655-11.081-14.912-8.806-4.543-19.957-4.027-29.825 1.383-11.815 6.476-21.847 17.026-28.245 29.709-7.324 14.52-9.886 31.678-7.406 49.621a2.042 2.042 0 0 1-2.026 2.322z"/><path d="M192.438 545c-9.672 0-20.109-3.271-30.388-9.552-10.465-6.395-19.79-15.377-26.256-25.291a2.04 2.04 0 0 1 .595-2.825 2.04 2.04 0 0 1 2.825.595c11.15 17.095 34.547 34.433 55.926 32.893a2.044 2.044 0 0 1 .293 4.075c-.989.069-1.988.105-2.995.105z"/><path d="M691.736 411.084s68.088 12.387 49.125 108.483c-14.452 73.237-21.762 114.234-19.137 147.979 10.186 130.963-27.785 164.079-37.818 210.815-3.76 17.515-12.409 51.022-56.684 43.288 0 0-51.147 24.878-123.297-15.121-69.325-38.433-145.533-128.309-204.428-161.893-44.082-25.137-59.92-26.682-78.105-46.102-32.216-34.405-25.941-78.182 11.642-100.636 4.9-20.631 16.026-70.246 68.642-76.19 25.203-2.847 49.516 13.442 67.382 31.752 55.202 56.572 63.072 90.066 158.872 141.308 36.234-57.728 43.257-205.179 100.473-260.14 0 0 40.424-34.171 63.333-23.543z" fill="#92acef"/><path d="M585.403 931.33c-20.177 0-49.065-4.498-82.469-23.016-36.686-20.338-74.98-54.727-112.015-87.983-33.284-29.889-64.723-58.121-92.435-73.923-16.236-9.258-28.711-15.346-38.733-20.236-17.542-8.56-28.13-13.727-39.851-26.243-16.17-17.268-23.544-37.65-20.764-57.394 2.617-18.592 14.008-34.878 32.107-45.942 5.041-21.264 16.857-70.888 70.202-76.914 12.621-1.424 38.363.883 69.073 32.354 15.34 15.721 26.831 29.42 37.945 42.668 28.538 34.021 51.129 60.951 118.732 97.355 14.278-23.764 24.037-62.102 34.355-102.638 15.475-60.786 31.476-123.643 65.435-156.265.031-.03.063-.059.097-.087 1.687-1.425 41.43-34.667 65.279-23.94 2.791.565 24.814 5.651 39.952 27.874 13.851 20.331 17.399 48.244 10.548 82.962-14.905 75.536-21.649 114.704-19.104 147.425 7.423 95.442-10.52 138.986-24.937 173.975-5.475 13.285-10.201 24.758-12.922 37.428-3.108 14.481-11.338 52.849-58.401 44.979-2.847 1.266-15.196 6.265-34.757 7.358a132.65 132.65 0 0 1-7.337.203zM307.127 523.45c-1.939 0-3.685.113-5.222.287-50.545 5.709-61.867 53.466-66.702 73.859l-.184.772a2.042 2.042 0 0 1-.939 1.281c-17.448 10.425-28.423 25.856-30.899 43.455-2.604 18.494 4.393 37.684 19.7 54.032 11.207 11.967 21.541 17.01 38.661 25.364 10.075 4.916 22.615 11.035 38.966 20.359 28.091 16.019 59.688 44.392 93.14 74.432 36.865 33.104 74.985 67.336 111.267 87.449 36.741 20.368 67.806 23.381 87.37 22.32 21.215-1.148 33.921-7.189 34.046-7.25a2.037 2.037 0 0 1 1.243-.175c4.261.744 8.184 1.088 11.785 1.089 33.37.004 39.689-29.466 42.551-42.794 2.797-13.029 7.82-25.22 13.138-38.126 14.252-34.587 31.988-77.632 24.641-172.103-2.584-33.224 4.19-72.623 19.17-148.532 6.623-33.564 3.302-60.414-9.871-79.805-14.846-21.851-37.393-26.232-37.619-26.273a2.065 2.065 0 0 1-.491-.156c-21.126-9.802-59.532 21.895-61.108 23.21-33.087 31.831-49.646 96.882-64.257 154.279-10.639 41.792-20.688 81.267-35.852 105.426a2.04 2.04 0 0 1-2.692.715c-69.619-37.238-92.572-64.601-121.631-99.241-11.065-13.19-22.507-26.83-37.74-42.441-25.677-26.31-47.434-31.433-60.471-31.433z"/><path d="M527.93 694.768s12.653 7.536 32.003 18.146" fill="#92acef"/><path d="M559.931 714.955c-.332 0-.668-.081-.979-.252-19.16-10.505-31.939-18.105-32.066-18.182a2.041 2.041 0 1 1 2.09-3.508c.126.075 12.849 7.642 31.939 18.109a2.04 2.04 0 0 1 .809 2.771 2.04 2.04 0 0 1-1.793 1.062z"/><path d="M233.033 597.898s13.123-8.905 30.99-12.692" fill="#92acef"/><path d="M233.035 599.94a2.04 2.04 0 0 1-1.148-3.731c.549-.373 13.662-9.175 31.713-13.001a2.047 2.047 0 0 1 2.422 1.574 2.044 2.044 0 0 1-1.574 2.422c-17.235 3.652-30.14 12.298-30.269 12.385a2.04 2.04 0 0 1-1.144.351z"/><path d="M628.403 434.627c-19.007-49.146 23.464-79.12 65.195-92.353 61.389-19.466 98.251 4.49 108.974 50.677 0 0 198.827 234.868 92.597 316.541-59.213 45.524-150.366 58.481-188.644 33.914-61.613-39.544-91.231-97.703-95.254-155.291-4.339-62.116 17.132-153.488 17.132-153.488z" fill="#92acef"/><path d="M759.437 757.717c-22.225 0-41.076-4.291-54.014-12.594-29.766-19.104-53.278-43.182-69.883-71.566-15.332-26.207-24.182-54.905-26.306-85.3-4.125-59.048 15.176-145.343 17.038-153.483-6.341-16.768-6.101-32.467.715-46.672 13.22-27.553 47.021-41.759 65.993-47.774 31.406-9.959 57.492-9.219 77.53 2.195 16.808 9.574 28.535 26.682 33.938 49.488 3.517 4.206 35.331 42.636 65.545 91.799 42.923 69.843 62.373 126.91 57.811 169.617-2.592 24.254-13.152 43.661-31.391 57.684-27.868 21.426-65.439 37.331-103.079 43.636-11.882 1.99-23.275 2.97-33.897 2.97zm-26.129-420.26c-11.816 0-24.871 2.254-39.093 6.764-18.343 5.816-50.99 19.481-63.545 45.648-6.389 13.314-6.511 28.126-.363 44.021.148.384.178.803.084 1.203-.215.911-21.351 91.789-17.082 152.879 2.079 29.763 10.745 57.863 25.756 83.523 16.277 27.822 39.346 51.438 68.563 70.19 18.278 11.731 49.271 15.023 85.031 9.032 37.001-6.197 73.91-21.814 101.266-42.846 17.316-13.313 27.349-31.777 29.817-54.877 3.069-28.722-4.362-81.01-57.199-167-31.713-51.61-65.195-91.33-65.53-91.726a2.052 2.052 0 0 1-.431-.857c-5.086-21.908-16.184-38.278-32.093-47.341-10.079-5.74-21.841-8.613-35.181-8.613z"/><path d="M612.136 796.148s-69.491-44.181-109.969-35.871c-41.906 8.604-10.899 102.38 15.431 125.512 15.445 13.569 58.099 75.282 117.833 57.278 44.998-13.563 50.81-75.512 50.81-75.512z" fill="#ffaac3"/><path d="M613.583 948.867c-40.306 0-70.692-32.691-88.254-51.582-3.747-4.03-6.982-7.512-9.381-9.618-10.068-8.846-20.937-27.658-28.362-49.095-8.078-23.319-10.498-45.041-6.639-59.595 3.099-11.689 10.264-19.003 20.718-21.149 41.002-8.412 108.94 34.384 111.813 36.211.141.09.272.193.393.31l74.104 71.407c.548.527.826 1.276.755 2.033-.061.647-1.57 16.059-8.709 33.389-9.557 23.2-24.727 38.513-43.869 44.283-7.827 2.359-15.36 3.406-22.569 3.406zM513.195 761.733c-3.683 0-7.207.312-10.524.993-8.591 1.764-14.274 7.662-16.891 17.532-3.61 13.616-1.23 34.273 6.53 56.677 7.051 20.354 17.625 38.793 26.938 46.976 2.587 2.272 5.745 5.669 9.742 9.97 19.961 21.473 57.113 61.442 105.718 46.793 39.496-11.905 47.803-63.693 48.904-72.179l-73.028-70.369c-3.867-2.417-58.954-36.393-97.389-36.393z"/><path d="M507.567 759.492c-36.668 5.758-77.617 57.551-78.24 86.964-.581 27.457 17.085 40.488 29.156 52.09s35.48 22.376 49.906 12.277c11-7.7 16.508-33.746-18.487-64.316 14.77-9.499 24.557-20.552 34.182-35.353 0 0-3.995-53.629-16.517-51.662z" fill="#ffaac3"/><path d="M494.645 917.348c-3.991 0-8.296-.712-12.843-2.142-8.927-2.807-18.292-8.361-25.053-14.858a314.962 314.962 0 0 0-4.011-3.764c-11.786-10.936-26.455-24.545-25.912-50.182.316-14.96 10.187-35.636 25.759-53.957 16.87-19.849 36.774-32.761 54.611-35.427a2.27 2.27 0 0 1 .273-.025c.326-.012 8.021-.304 10.685-.089a2.5 2.5 0 0 1 2.291 2.693 2.508 2.508 0 0 1-2.693 2.291c-1.93-.159-7.703.012-9.952.096-37.668 5.742-75.405 57.599-75.976 84.523-.495 23.393 12.686 35.621 24.315 46.411 1.403 1.302 2.771 2.571 4.074 3.823 10.864 10.441 33.233 21.491 46.74 12.032 4.191-2.936 6.903-8.593 7.254-15.134.433-8.056-2.365-24.647-25.952-45.252a2.5 2.5 0 0 1 .292-3.985c9.124-5.867 16.604-12.523 23.537-20.95a2.5 2.5 0 1 1 3.862 3.178c-6.572 7.985-13.612 14.457-21.97 20.172 10.861 9.997 26.264 27.722 25.225 47.105-.433 8.063-3.938 15.152-9.38 18.962-4.254 2.98-9.385 4.479-15.176 4.479z"/><path d="M506.944 802.859c-25.145-.289-63.613 45.548-63.326 79.558.262 31.006 31.484 44.762 47.984 45.936 17.25 1.227 47.39-3.031 49.374-20.329 1.734-15.121-6.311-25.245-29.179-28.995 7.502-7.726 14.112-16.605 19.83-26.636 8.578-15.047-12.177-49.39-24.682-49.533z" fill="#ffaac3"/><path d="M502.042 930.919c-4.758 0-9.621-.396-14.388-1.193-23.271-3.897-41.676-20.115-45.796-40.354-1.601-7.864-1.896-24.682 14.105-48.963 10.557-16.018 25.234-30.006 38.305-36.505a2.5 2.5 0 1 1 2.227 4.477c-26.178 13.018-54.998 54.147-49.736 79.993 3.71 18.227 20.477 32.863 41.722 36.421 18.984 3.185 47.061-.052 50.03-17.198 2.215-12.8-7.204-21.833-27.239-26.123a2.5 2.5 0 0 1-1.225-4.232c7.086-6.926 13.07-14.972 19.406-26.087a2.501 2.501 0 0 1 4.344 2.476c-5.636 9.887-11.03 17.46-17.136 23.996 26.579 7.12 28.269 22.194 26.776 30.823-1.611 9.308-8.941 16.147-21.197 19.778-6.017 1.784-12.987 2.691-20.198 2.691z"/><path d="M478.755 937.848c14.741 26.516 35.149 27.182 51.448 23.35 16.298-3.832 36.592-19.31 35.95-36.907-.49-13.419-4.154-26.513-39.906-16.069-14.585 1.444-61.787 3.913-47.492 29.626z" fill="#ffaac3"/><path d="M518.67 835.717c-20.719 4.933-55.46 55.416-44.815 89.539 8.179 26.217 45.08 28.416 59.463-4.907 8.229-15.51 18.927-28.786 23.844-42.261.001.001-26.16-45.308-38.492-42.371z" fill="#ffaac3"/><path d="M517.613 965.263c-6.781 0-13.252-1.49-19.251-4.477-16.221-8.075-24.818-24.609-27.251-36.314-6.056-29.122 5.106-55.566 35.13-83.223a2.498 2.498 0 0 1 3.532.146 2.498 2.498 0 0 1-.146 3.532c-28.992 26.707-39.361 50.926-33.622 78.527 2.206 10.609 9.968 25.579 24.584 32.855 11.691 5.819 24.959 5.298 39.438-1.556 5.411-2.562 18.531-10.134 23.482-25.089a2.493 2.493 0 0 1 3.158-1.588 2.498 2.498 0 0 1 1.588 3.158c-5.558 16.791-20.097 25.201-26.09 28.038-8.429 3.991-16.7 5.991-24.552 5.991z"/><path d="M528.252 933.506a2.498 2.498 0 0 1-2.463-2.938c2.888-16.223 14.63-27.274 15.129-27.737a2.5 2.5 0 0 1 3.403 3.663c-.11.103-11.023 10.419-13.61 24.951a2.5 2.5 0 0 1-2.459 2.061z"/><path d="M575.66 938.769a2.51 2.51 0 0 1-1.048-.231c-13.497-6.242-35.189-27.251-36.105-28.142a2.5 2.5 0 0 1 3.484-3.586c.219.213 21.996 21.305 34.721 27.188a2.501 2.501 0 0 1-1.052 4.771z"/><path d="M776.324 404.231s52.259-45.37 115.366 29.539c48.096 57.091 75.507 88.44 103.475 107.503 108.545 73.982 110.627 124.321 140.812 161.386 11.312 13.89 32.043 41.6-1.689 71.302 0 0-12.589 55.466-88.929 86.732-73.352 30.042-191.144 33.271-254.188 58.21-47.188 18.666-58.301 30.056-84.827 32.094-46.994 3.611-78.103-31.936-75.668-89.93-13.03-16.729-28.372-56.343-12.061-83.324 11.378-18.821 41.463-30.221 66.924-32.706 78.669-7.677 109.722 7.137 209.63-35.547 0 0-21.77-46.69-71.161-76.771" fill="#92acef"/><path d="M699.867 953.292c-18.53.001-34.684-6.2-47.029-18.124-16.796-16.223-25.388-42.282-24.23-73.441-14.355-18.895-27.814-58.447-11.738-85.039 11.981-19.82 43.023-31.197 68.473-33.681 21.861-2.134 39.739-2.529 57.027-2.911 44.346-.981 79.464-1.76 149.999-31.631-4.68-8.992-26.745-48.008-69.422-74a2.043 2.043 0 0 1 2.125-3.489c49.347 30.056 71.729 77.18 71.949 77.652a2.041 2.041 0 0 1-1.047 2.741c-72.604 31.019-108.31 31.809-153.513 32.809-17.214.381-35.013.774-56.722 2.893-23.644 2.307-54.186 13.221-65.375 31.729-8.777 14.52-7.415 31.944-4.727 44.006 3.598 16.143 10.96 29.701 16.651 37.007.297.382.449.857.429 1.341-1.272 30.305 6.881 55.547 22.959 71.076 12.933 12.491 30.401 18.281 50.512 16.731 16.347-1.256 26.745-6.163 43.972-14.294 10.14-4.784 22.758-10.739 40.262-17.663 30.07-11.896 71.972-18.796 116.335-26.102 48.889-8.052 99.441-16.377 137.83-32.1 38.872-15.921 60.647-38.262 72.069-54.199 12.376-17.269 15.61-30.96 15.642-31.097.096-.417.32-.796.642-1.078 33.328-29.348 10.993-56.771 1.456-68.481-8.415-10.332-14.783-21.877-21.525-34.101-18.068-32.755-40.554-73.521-118.854-126.887-27.538-18.771-54.037-48.702-103.887-107.875-22.042-26.164-45.067-40.37-68.436-42.223-26.332-2.1-43.858 12.763-44.032 12.912a2.042 2.042 0 0 1-2.676-3.086c.758-.658 18.886-16.098 46.944-13.904 24.526 1.914 48.522 16.606 71.322 43.67 49.604 58.881 75.942 88.645 103.064 107.131 79.104 53.916 101.851 95.154 120.129 128.29 6.939 12.58 12.933 23.445 21.115 33.494 9.354 11.484 34.129 41.91-1.445 73.7-.794 3.013-4.618 15.774-16.002 31.719-11.734 16.437-34.094 39.458-73.98 55.794-38.815 15.897-89.601 24.261-138.714 32.35-44.141 7.27-85.833 14.136-115.496 25.869-17.382 6.876-29.935 12.8-40.021 17.56-17.651 8.33-28.306 13.358-45.402 14.673a86.257 86.257 0 0 1-6.633.259z"/><path d="M895.169 709.491s60.258-31.741 117.646-25.235" fill="#92acef"/><path d="M895.171 711.534a2.041 2.041 0 0 1-.954-3.849c.607-.32 61.485-31.962 118.828-25.458a2.043 2.043 0 0 1 1.799 2.26 2.032 2.032 0 0 1-2.26 1.799c-56.107-6.363-115.867 24.698-116.465 25.013-.301.16-.627.235-.948.235z"/><path d="M1134.288 773.961s2.058-7.904-.937-21.682" fill="#92acef"/><path d="M1134.289 776.003a2.042 2.042 0 0 1-1.979-2.551c.032-.129 1.871-7.743-.954-20.739a2.041 2.041 0 1 1 3.991-.867c3.063 14.093 1.007 22.289.917 22.631a2.043 2.043 0 0 1-1.975 1.526z"/><path d="M630.676 861.068s10.417 12.504 23.264 19.044" fill="#92acef"/><path d="M653.938 882.154c-.312 0-.628-.071-.925-.223-13.071-6.654-23.47-19.032-23.906-19.557a2.041 2.041 0 1 1 3.138-2.614c.102.122 10.313 12.266 22.622 18.532a2.042 2.042 0 0 1-.929 3.862zM630.305 98.829c-.222 0-.448-.037-.67-.114-1.107-.384-27.387-9.717-50.144-36.071a2.044 2.044 0 0 1 .211-2.881 2.047 2.047 0 0 1 2.881.211c22.005 25.485 48.131 34.793 48.393 34.884a2.043 2.043 0 0 1-.671 3.971z"/><path d="M551.021 154.531s-22.765-22.741-39.658-30.238" fill="#fbb348"/><path d="M551.021 156.573a2.034 2.034 0 0 1-1.443-.598c-.225-.225-22.694-22.56-39.042-29.815a2.04 2.04 0 1 1 1.656-3.732c17.043 7.563 39.332 29.72 40.272 30.659a2.042 2.042 0 0 1-1.443 3.486zm314.806-.885a2.041 2.041 0 0 1-2.008-1.683c-3.049-17.039-4.855-24.78-4.874-24.856a2.042 2.042 0 0 1 3.976-.933c.018.077 1.846 7.903 4.917 25.071a2.041 2.041 0 0 1-2.011 2.401z"/><path d="m744.212 356.362-29.245-75.587-85.492 31.352 27.71 74.284c0-.001 53.344 15.203 87.027-30.049z" fill="#ffaac3"/><path d="M678.227 390.912c-12.517 0-21.153-2.41-21.602-2.538a2.044 2.044 0 0 1-1.354-1.25l-27.71-74.283a2.042 2.042 0 0 1 1.21-2.63l85.492-31.352a2.045 2.045 0 0 1 2.607 1.181l29.244 75.587a2.04 2.04 0 0 1-.267 1.955c-17.841 23.969-41.152 31.069-57.567 32.806a96.232 96.232 0 0 1-10.053.524zm-19.503-6.219c3.354.797 14.95 3.156 29.28 1.615 22.254-2.392 40.38-12.572 53.894-30.268l-28.111-72.658-81.681 29.954z"/><path d="M740.288 253.607s-6.738 55.788-68.926 82.32c-57.926 24.714-108.114-1.447-129.892-51.631 0 0-39.469-6.172-39.113-22.78.372-17.362 31.121-9.535 31.121-9.535s-19.448-52.291 9.3-105.226c19.764 20.596 86.728 62.14 174.61 29.582 0 0 9.095-36.062 50.503-41.015 44.867-5.366 74.955 44.717 55.629 81.073-26.485 49.822-83.232 37.211-83.232 37.212z" fill="#ffaac3"/><path d="M627.954 347.492c-12.513 0-24.592-2.445-35.935-7.346-22.405-9.679-40.848-28.812-52.032-53.948-6.818-1.211-40.111-7.985-39.752-24.729.088-4.126 1.662-7.382 4.678-9.674 6.77-5.146 19.259-3.749 25.444-2.639-3.729-12.814-14.025-58.156 10.556-103.416a2.12 2.12 0 0 1 3.396-.457c10.506 10.948 32.002 25.67 60.829 34.157 35.826 10.551 73.006 8.956 110.521-4.732 2.009-6.249 13.767-36.926 51.979-41.495 20.967-2.512 40.844 6.729 53.164 24.713 12.573 18.354 14.332 41.139 4.591 59.464-14.083 26.494-36.624 35.497-53.054 38.385-13.864 2.435-25.585 1.079-30.303.312-.869 4.676-3.586 16.162-11.03 29.75-8.79 16.045-26.129 38.098-58.812 52.041-15.01 6.405-29.909 9.614-44.24 9.614zm-108.647-95.134c-4.537 0-9.029.689-11.827 2.819-1.959 1.49-2.94 3.578-3.001 6.384-.259 12.09 26.851 18.996 37.318 20.637.719.113 1.33.586 1.619 1.253 10.704 24.663 28.562 43.414 50.286 52.798 23.239 10.039 49.806 9.253 76.826-2.274 31.482-13.432 48.19-34.608 56.662-50.009 9.206-16.732 10.973-30.478 10.989-30.614a2.125 2.125 0 0 1 2.562-1.817c2.257.491 55.573 11.512 80.902-36.136 8.996-16.925 7.331-38.027-4.346-55.072-11.409-16.655-29.792-25.213-49.157-22.897-39.405 4.713-48.336 38.014-48.697 39.429a2.126 2.126 0 0 1-1.32 1.469c-38.185 14.147-77.669 15.939-114.186 5.188-27.861-8.203-49.141-22.158-60.629-33.226-25.992 50.574-8.029 100.446-7.842 100.952a2.124 2.124 0 0 1-2.513 2.797c-2.723-.693-8.216-1.681-13.646-1.681z"/><path d="m739.273 230.884-.052-.001a2.122 2.122 0 0 1-2.071-2.173c.035-1.484 1.319-36.779 40.42-74.104a2.123 2.123 0 0 1 2.932 3.07c-37.842 36.124-39.099 70.79-39.107 71.136a2.125 2.125 0 0 1-2.122 2.072z"/><path d="M771.713 213.293c-.7 0-1.385-.346-1.79-.979-6.2-9.692-23.515-6.699-23.688-6.667a2.123 2.123 0 0 1-.758-4.178c.825-.149 20.286-3.537 28.022 8.558a2.122 2.122 0 0 1-1.786 3.266zM571.799 321.285c-4.099 0-6.8-.63-6.884-.65a2.123 2.123 0 0 1 1.011-4.124c.951.231 23.536 5.382 35.992-18.624a2.123 2.123 0 0 1 3.769 1.955c-9.592 18.489-25.014 21.443-33.888 21.443z"/><path d="M691.618 250.215c-6.766-17.564-26.493-26.317-44.052-19.552-17.57 6.768-26.316 26.49-19.55 44.053 6.767 17.565 26.483 26.32 44.052 19.552 17.559-6.764 26.317-26.489 19.55-44.053z" fill="#ff6996"/><circle cx="573.232" cy="228.697" r="5.945"/><path d="M966.291 377.298a2.044 2.044 0 0 1-1.775-3.05c8.093-14.262 10.958-23.995 10.986-24.092a2.037 2.037 0 0 1 2.529-1.393 2.041 2.041 0 0 1 1.393 2.529c-.119.413-3.028 10.295-11.355 24.971a2.042 2.042 0 0 1-1.778 1.035z"/></svg></g><g transform="translate(616.0 370.0) rotate(0.0 900.5 766.0) scale(0.9916177740190638 0.9916589314680825)"><svg width="1816.224" height="1544.886" viewBox="0 0 1816.224 1544.886"><ellipse cx="337.672" cy="884.471" fill="#fff" rx="22.52" ry="17.574"/><path d="M337.672 904.255c-13.635 0-24.729-8.875-24.729-19.783 0-10.909 11.094-19.784 24.729-19.784 13.636 0 24.729 8.875 24.729 19.784 0 10.908-11.093 19.783-24.729 19.783zm0-35.151c-11.199 0-20.311 6.894-20.311 15.367s9.111 15.365 20.311 15.365 20.312-6.893 20.312-15.365c-.001-8.473-9.112-15.367-20.312-15.367z"/><ellipse cx="262.468" cy="801.748" fill="#fff" rx="32.199" ry="25.128"/><path d="M262.469 829.376c-19.133 0-34.699-12.394-34.699-27.628s15.566-27.628 34.699-27.628 34.698 12.394 34.698 27.628-15.565 27.628-34.698 27.628zm0-50.256c-16.376 0-29.699 10.15-29.699 22.628s13.323 22.628 29.699 22.628 29.698-10.15 29.698-22.628-13.322-22.628-29.698-22.628z"/><ellipse cx="262.468" cy="671.535" fill="#fff" rx="45.544" ry="35.543"/><path d="M262.469 709.578c-26.492 0-48.045-17.066-48.045-38.043s21.553-38.043 48.045-38.043c26.491 0 48.044 17.066 48.044 38.043s-21.553 38.043-48.044 38.043zm0-71.086c-23.735 0-43.045 14.823-43.045 33.043s19.31 33.043 43.045 33.043c23.734 0 43.044-14.823 43.044-33.043s-19.31-33.043-43.044-33.043z"/><ellipse cx="361.989" cy="320.429" fill="#fff" rx="359.489" ry="235.915"/><path d="M361.989 558.844c-96.505 0-187.268-24.685-255.568-69.508C37.794 444.3 0 384.314 0 320.429s37.794-123.871 106.421-168.907c68.301-44.823 159.063-69.508 255.568-69.508s187.268 24.685 255.569 69.508c68.626 45.036 106.42 105.021 106.42 168.907S686.185 444.3 617.559 489.336c-68.302 44.823-159.065 69.508-255.57 69.508zm0-471.83C165.145 87.014 5 191.724 5 320.429s160.145 233.415 356.989 233.415 356.989-104.71 356.989-233.415S558.834 87.014 361.989 87.014z"/><path d="M1813.723 1544.887c-.342 0-.688-.071-1.021-.22-75.444-33.838-91.432-92.517-106.892-149.263-17.588-64.555-34.2-125.529-134.672-149.325-145.354-34.427-160.25-47.375-265.624-230.915-39.92-69.533-107.109-103.11-172.086-135.581-37.689-18.834-76.662-38.31-109.36-64.507-36.758-29.448-61.672-64.567-76.168-107.366-35.071-103.546-5.976-196.026 22.161-285.462 23.484-74.646 45.666-145.152 32.891-220.894-7.196-42.662-25.537-102.625-72.049-146.014-43.651-40.718-101.475-56.867-171.88-48.005-54.349 6.844-103.576 30.554-150.494 72.484-40.236 35.96-72.033 79.551-97.582 114.576l-2.672 3.663c9.387 9.254 15.624 21.137 17.429 34.307 3.012 21.968-7.078 42.315-26.332 53.103-21.594 12.098-46.487 8.608-72.888 3.794-9.981 8.295-20.202 15.911-30.561 22.764 1.608 8.848 2.808 17.094 3.646 24.792 3.106.068 6.253.243 9.436.525 17.22 1.526 53.27 14.802 62.633 39.915 5.806 15.574 2.62 32.512-8.117 43.15-8.733 8.65-30.061 20.607-74.78 3.461-.767-.293-1.531-.583-2.296-.87-3.256 4.643-6.802 8.231-10.361 11.007-13.785 10.751-30.205 10.706-39.628 6.118-16.277-7.931-25.736-21.277-26.737-36.655-29.618-4.107-55.299-3.828-74.903-2.183-38.573 3.231-62.601 12.28-62.839 12.371a2.5 2.5 0 0 1-1.789-4.67c.994-.38 24.782-9.355 64.003-12.667 19.788-1.67 45.672-1.976 75.502 2.098.177-3.302.732-6.679 1.682-10.096.207-.746.432-1.488.676-2.229-11.827.413-23.374-4.317-32.622-13.884-5.728-5.925-9.24-13.167-10.401-21.072-10.573-1.214-20.477-3.878-29.535-8.008-16.933-7.719-29.467-18.044-37.254-30.687-6.966-11.308-9.683-23.943-7.856-36.541 3.61-24.911 23.657-44.128 49.884-47.82 22.297-3.137 47.393 4.358 68.857 20.568 11.202 8.458 20.769 18.678 28.319 30.089 15.236-2.658 30.064-2.479 44.235-1.057-1.705-39.971 15.96-64.067 27.967-75.706 18.127-17.572 43.189-26.25 62.369-21.594 10.924 2.653 20.638 7.625 28.544 14.288l2.351-3.221c25.688-35.217 57.658-79.045 98.289-115.357 47.7-42.63 97.812-66.743 153.201-73.718 37.14-4.677 71.38-2.401 101.772 6.762 27.972 8.433 52.916 22.749 74.142 42.549 26.237 24.476 60.299 70.166 73.568 148.838 12.976 76.927-9.381 147.99-33.051 223.226-27.896 88.67-56.742 180.358-22.194 282.358 14.377 42.448 38.068 75.834 74.558 105.067 32.284 25.864 71.014 45.22 108.469 63.937 65.641 32.803 133.517 66.722 174.188 137.563 53.327 92.884 82.164 139.89 116.101 169.548 32.886 28.74 70.074 40.929 146.34 58.992 46.375 10.983 79.532 31.101 101.368 61.501 19.464 27.1 28.366 59.775 36.976 91.375 15.154 55.625 30.825 113.145 104.114 146.015a2.5 2.5 0 0 1-1.027 4.783zM314.75 404.203c1.189 13.194 9.522 24.423 23.896 31.426 8.072 3.931 22.267 3.867 34.364-5.565 3.263-2.545 6.104-5.52 8.569-8.854-23.617-8.491-46.129-13.831-66.829-17.007zm74.446 14.489 1.334.509c18.07 6.926 51.124 15.833 69.472-2.346 9.344-9.258 12.072-24.115 6.951-37.852-8.479-22.743-42.769-35.296-58.389-36.681a137.17 137.17 0 0 0-8.491-.492c3.487 38.137-2.219 61.972-10.877 76.862zm-74.553-19.562c21.571 3.254 45.094 8.822 69.788 17.794 11.652-19.477 12.883-48.427 10.489-75.129-13.78.177-26.609 2.579-37.99 7.109-4.416 14.47-14.05 25.438-24.861 31.441-4.732 2.629-9.618 4.349-14.512 5.182a45.798 45.798 0 0 0-1.364 4.133c-.896 3.225-1.408 6.391-1.55 9.47zm-40.451-47.519c1.182 6.424 4.157 12.288 8.832 17.123 8.755 9.058 19.831 13.231 31.04 12.183 5.443-12.09 15.651-23.035 28.917-30.778a89.425 89.425 0 0 1 9.777-4.92 54.32 54.32 0 0 0 1.605-10.227c-28.612 12.696-55.994 18.291-80.171 16.619zm76.439.091a82.708 82.708 0 0 0-5.129 2.755c-11.202 6.538-20.041 15.468-25.334 25.367 3.198-.847 6.372-2.127 9.473-3.85 8.692-4.826 16.538-13.223 20.99-24.272zm-76.992-5.138c24.14 1.864 51.804-3.89 80.803-17.088-.144-4.347-.77-8.899-1.954-13.632-2.809-11.217-7.483-21.856-13.542-31.547-31.246 6.364-56.039 25.272-63.339 48.396-1.492 4.726-2.138 9.397-1.968 13.871zm-18.988-114.203c-3.25 0-6.48.22-9.688.671-24.006 3.38-42.344 20.896-45.633 43.586-3.636 25.084 12.153 48.247 42.236 61.962 8.299 3.783 17.363 6.271 27.041 7.477-.097-4.818.638-9.819 2.231-14.868 7.683-24.338 33.077-44.263 65.157-51.375-19.537-28.285-51.002-47.453-81.344-47.453zm104.821 100.296a60.383 60.383 0 0 1-1.079 10.354c10.979-3.907 23.119-6.001 36.036-6.21-.814-7.613-1.895-14.973-3.077-21.807-10.417 6.639-20.952 12.496-31.499 17.482-.128.062-.254.121-.381.181zm-15.142-49.332c5.846 9.768 10.255 20.313 13.007 31.305 1.084 4.325 1.733 8.516 2.002 12.553 10.398-5.007 20.788-10.875 31.052-17.51-.55-2.928-1.11-5.73-1.669-8.39-1.371-6.521-2.258-12.712-2.732-18.577-13.455-1.416-27.276-1.669-41.66.619zm46.73-.031c.475 5.367 1.307 11.021 2.555 16.962.457 2.175.893 4.324 1.305 6.434 8.493-5.698 16.894-11.92 25.138-18.612-9.521-1.765-19.164-3.543-28.998-4.784zm40.377 1.78c24.705 4.383 46.394 6.733 65.492-3.968 17.42-9.76 26.548-28.177 23.822-48.062-1.402-10.229-6.189-21.659-15.366-31.031-7.126 9.74-13.919 18.913-20.341 27.029-16.392 20.718-34.518 39.607-53.607 56.032zm-40.723-6.834c10.68 1.293 20.955 3.197 30.72 5.007l3.648.675c19.979-16.817 38.959-36.392 56.04-57.98 6.476-8.185 13.356-17.485 20.583-27.365-6.857-5.86-15.716-10.626-26.871-13.335-17.573-4.268-40.766 3.9-57.71 20.325-11.436 11.085-28.278 34.144-26.41 72.673z"/></svg></g><g transform="translate(782.0 1670.0) rotate(0.0 389.0 325.0) scale(1.001106235257649 1.0001004716319963)"><svg width="777.14" height="649.935" viewBox="0 0 777.14 649.935"><g><g><g><path d="M555.833 465.538c-3.963-29.802 10.083-66.835 20.112-83.035 21.25-2.918 46.914-1.866 71.278 2.594 58.226 10.657 97.545 50.997 114.619 100.383 22.084 63.874 17.796 135.465-24.99 135.465-4.595 32.17-56.68 49.022-68.17-30.638-7.404-51.34-52.85-62.808-95.714-67.44-17.754-15.765-13.152-27.364-17.135-57.33z" style="fill:#ffaac3"/><path d="M708.185 649.934c-6.555 0-16.227-2.372-25.121-13.662-8.11-10.295-13.685-25.653-16.569-45.65-7.157-49.615-51.415-60.982-93.764-65.557a2.204 2.204 0 0 1-1.231-.545c-14.037-12.465-14.785-22.688-16.024-39.627-.403-5.494-.858-11.723-1.834-19.064-4.107-30.884 10.348-68.214 20.424-84.49a2.21 2.21 0 0 1 1.579-1.026c21.269-2.922 46.83-1.993 71.976 2.61 55.024 10.072 97.417 47.189 116.31 101.834 8.09 23.4 12.771 48.326 13.18 70.187.433 23.186-3.801 41.707-12.245 53.56-6.551 9.198-15.34 14.106-26.143 14.609-3.031 15.173-16.106 26.811-30.52 26.821h-.018zm-134.27-129.186c43.82 4.81 89.408 16.918 96.955 69.244 5.015 34.767 18.963 55.522 37.314 55.522h.016c12.848-.009 24.473-10.937 26.464-24.88a2.211 2.211 0 0 1 2.189-1.898c10.151 0 18.365-4.306 24.413-12.796 15.81-22.195 15.188-71.433-1.513-119.737-18.357-53.097-59.518-89.156-112.928-98.932-24.289-4.445-48.93-5.403-69.542-2.718-10.378 17.284-22.94 53.016-19.258 80.694.992 7.471 1.453 13.768 1.86 19.324 1.18 16.133 1.838 25.12 14.03 36.177z"/></g><g><path d="M736.856 623.157a2.209 2.209 0 0 1-2.185-2.564c8.198-50.754-5.145-85.18-17.781-105.125-13.639-21.525-29.283-31.177-29.44-31.271a2.212 2.212 0 0 1-.742-3.037 2.212 2.212 0 0 1 3.037-.743c.675.41 16.69 10.293 30.879 32.686 13.046 20.59 26.83 56.074 18.41 108.195a2.21 2.21 0 0 1-2.178 1.859z"/></g></g><g><g><path d="M290.618 228.201c-24.829 37.34-40.285 71.553-54.619 110.293 124.003 38.111 287.732-36.606 331.862 28.563 31.131 45.974 20.243 152.109-11.109 181.794-24.384 23.089-80.312 27.806-155.28 19.3-105.418-11.96-358.457 8.326-397.71-126.068-38.258-130.979 225.261-508.65 340.155-431.888l11.489 7.548L290.618 228.2z" style="fill:#ff6996"/></g><g><path d="M199.406 328.35s28.085 7.915 36.593 10.144" style="fill:#fff"/><path d="M236 340.705c-.185 0-.373-.024-.56-.073-8.431-2.208-36.352-10.075-36.634-10.155a2.21 2.21 0 1 1 1.2-4.254c.28.08 28.163 7.935 36.553 10.133a2.21 2.21 0 0 1-.558 4.349z"/></g></g></g><g><path d="M464.134 574.6c-18.64.001-39.631-1.32-62.944-3.964-20.027-2.272-44.936-3.355-73.778-4.61-59.427-2.583-133.385-5.798-195.58-21.98-73.474-19.115-116.151-52.238-130.47-101.262-28.637-98.044 106.27-324.552 222.808-410.056 49.255-36.14 91.145-44.65 121.135-24.612l11.473 7.537a2.5 2.5 0 1 1-2.745 4.18l-11.49-7.55c-35.502-23.717-82.356.221-115.416 24.476-55.835 40.967-119.04 117.474-164.951 199.667C14.53 321.726-6.41 398.344 6.16 441.381c13.784 47.193 55.303 79.192 126.93 97.827 61.682 16.047 135.347 19.25 194.538 21.824 28.936 1.258 53.926 2.344 74.126 4.635 79.164 8.984 130.735 2.714 153.278-18.631 14.535-13.762 25.344-45.628 28.212-83.164 2.993-39.184-3.531-74.852-17.454-95.414-23.031-34.012-81.417-28.39-149.019-21.878-58.163 5.601-124.087 11.95-181.507-5.697a2.498 2.498 0 0 1-1.61-3.256c16.752-45.276 32.652-77.38 54.882-110.81a2.5 2.5 0 0 1 4.164 2.768c-21.591 32.47-37.16 63.704-53.43 107.282 55.882 16.403 120.188 10.21 177.022 4.736 69.189-6.665 128.941-12.419 153.639 24.053 14.535 21.464 21.376 58.324 18.299 98.597-2.96 38.722-14.362 71.833-29.76 86.413-16.826 15.934-48.45 23.934-94.336 23.934z"/></g></svg></g><g transform="translate(2284.0 1365.0) rotate(0.0 364.0 288.5) scale(1.0000739065606772 1.000502158449024)"><svg width="727.946" height="576.71" viewBox="0 0 727.946 576.71"><g><g><g><path d="M185.324 407.573s-69.492-44.181-109.969-35.871c-41.906 8.604-10.898 102.38 15.43 125.512 15.446 13.569 58.1 75.282 117.834 57.278 44.997-13.563 50.81-75.512 50.81-75.512l-74.105-71.406v-.001z" style="fill:#ffaac3"/></g><g><path d="M186.77 560.292c-40.306 0-70.693-32.691-88.254-51.582-3.747-4.03-6.983-7.512-9.38-9.618-10.069-8.846-20.937-27.658-28.363-49.095-8.078-23.32-10.498-45.041-6.64-59.595 3.1-11.69 10.265-19.003 20.72-21.15 41-8.41 108.94 34.386 111.812 36.212a2.5 2.5 0 0 1 .394.31l74.105 71.407a2.5 2.5 0 0 1 .754 2.033c-.06.647-1.57 16.058-8.708 33.389-9.557 23.2-24.727 38.512-43.87 44.283-7.828 2.359-15.36 3.406-22.57 3.406zM86.383 373.158c-3.683 0-7.207.312-10.525.993-8.591 1.764-14.274 7.662-16.891 17.532-8.233 31.053 14.873 87.315 33.469 103.653 2.588 2.272 5.745 5.669 9.742 9.97 19.962 21.472 57.118 61.44 105.719 46.792 39.496-11.905 47.803-63.693 48.904-72.178l-73.029-70.37c-3.867-2.416-58.954-36.392-97.389-36.392z"/></g><g><path d="M80.755 370.918c-36.668 5.757-77.618 57.55-78.24 86.963-.581 27.457 17.085 40.488 29.156 52.09 12.07 11.602 35.48 22.377 49.906 12.277 11-7.7 16.509-33.746-18.487-64.316 14.77-9.499 24.557-20.551 34.183-35.352 0 0-3.995-53.629-16.517-51.662h-.001z" style="fill:#ffaac3"/></g><g><path d="M67.8 528.794c-13.776 0-28.964-8.469-37.862-17.02-1.283-1.234-2.63-2.482-4.01-3.763C14.14 497.075-.528 483.466.014 457.828c.317-14.96 10.187-35.635 25.76-53.957 16.869-19.849 36.773-32.76 54.61-35.427.09-.014.182-.022.274-.025.325-.013 8.018-.303 10.685-.09a2.5 2.5 0 0 1 2.29 2.694c-.11 1.377-1.317 2.388-2.693 2.291-1.925-.157-7.703.012-9.952.096-37.669 5.742-75.405 57.599-75.975 84.523-.495 23.394 12.686 35.622 24.316 46.411a327.376 327.376 0 0 1 4.073 3.824c10.865 10.442 33.23 21.489 46.74 12.032 4.192-2.936 6.904-8.593 7.254-15.134.433-8.057-2.365-24.647-25.952-45.252a2.5 2.5 0 0 1 .293-3.985c9.123-5.867 16.602-12.524 23.537-20.95a2.5 2.5 0 0 1 3.86 3.177c-6.571 7.985-13.61 14.456-21.966 20.17 22.94 21.026 25.686 38.44 25.222 47.108-.433 8.063-3.94 15.152-9.38 18.961-4.53 3.172-9.76 4.498-15.21 4.499z"/></g><g><g><path d="M80.131 414.284c-25.145-.289-63.612 45.548-63.326 79.559.262 31.006 31.484 44.762 47.984 45.936 17.25 1.227 47.39-3.031 49.374-20.33 1.734-15.121-6.311-25.245-29.179-28.994 7.502-7.727 14.113-16.606 19.83-26.637 8.579-15.047-12.176-49.39-24.681-49.533h-.002z" style="fill:#ffaac3"/></g><g><path d="M75.469 542.373c-4.865 0-9.809-.415-14.627-1.222-23.271-3.897-41.675-20.115-45.795-40.354-3.73-18.32 7.237-38.54 14.106-48.963 10.556-16.018 25.234-30.006 38.304-36.505a2.5 2.5 0 1 1 2.227 4.476c-26.178 13.018-55 54.148-49.737 79.994 3.71 18.226 20.477 32.863 41.722 36.42 18.986 3.183 47.062-.051 50.03-17.198 2.215-12.8-7.205-21.833-27.24-26.123a2.5 2.5 0 0 1-1.223-4.232c7.086-6.927 13.07-14.973 19.406-26.087a2.5 2.5 0 0 1 4.344 2.477c-5.636 9.886-11.03 17.459-17.137 23.996 26.579 7.12 28.27 22.194 26.776 30.823-2.689 15.534-21.237 22.497-41.156 22.498z"/></g></g><g><path d="M51.943 549.273c14.74 26.516 35.149 27.182 51.447 23.35s36.592-19.31 35.95-36.908c-.49-13.418-4.154-26.513-39.906-16.068-14.584 1.444-61.786 3.913-47.49 29.626h-.002z" style="fill:#ffaac3"/></g><g><path d="M91.858 447.142c-20.72 4.933-55.46 55.416-44.815 89.54 8.18 26.216 45.08 28.415 59.463-4.908 8.23-15.51 18.927-28.786 23.844-42.26 0 0-26.16-45.309-38.492-42.372z" style="fill:#ffaac3"/></g><g><path d="M90.8 576.688c-6.78 0-13.25-1.49-19.25-4.476-16.22-8.074-24.818-24.609-27.252-36.315-6.055-29.122 5.107-55.566 35.13-83.222a2.5 2.5 0 0 1 3.388 3.677c-28.993 26.706-39.362 50.925-33.623 78.528 2.206 10.609 9.968 25.58 24.585 32.856 11.69 5.817 24.96 5.296 39.437-1.557 5.41-2.561 18.53-10.132 23.481-25.088a2.5 2.5 0 1 1 4.747 1.57c-5.558 16.79-20.096 25.201-26.089 28.038-8.43 3.99-16.7 5.99-24.553 5.99z"/></g><g><path d="M101.44 544.932a2.5 2.5 0 0 1-2.464-2.938c2.888-16.224 14.631-27.275 15.13-27.738a2.5 2.5 0 0 1 3.403 3.664c-.11.102-11.024 10.418-13.61 24.95a2.5 2.5 0 0 1-2.458 2.062z"/></g><g><path d="M148.848 550.194c-.352 0-.708-.075-1.048-.231-13.498-6.242-35.19-27.251-36.107-28.142a2.5 2.5 0 0 1 3.486-3.586c.218.213 21.995 21.305 34.72 27.189a2.5 2.5 0 0 1-1.051 4.77z"/></g></g><g><path d="M397.196 244.146c49.391 30.081 71.161 76.77 71.161 76.77-99.908 42.685-130.96 27.87-209.63 35.547-25.46 2.485-55.546 13.885-66.924 32.706-16.311 26.981-.97 66.594 12.06 83.324-2.435 57.993 28.674 93.54 75.668 89.93 26.527-2.039 37.64-13.429 84.828-32.095 63.044-24.938 180.837-28.167 254.188-58.21 76.34-31.266 88.929-86.732 88.929-86.732 33.732-29.703 13.001-57.412 1.69-71.302-30.186-37.065-32.268-87.405-140.813-161.386-27.968-19.063-55.38-50.412-103.475-107.503-63.107-74.91-115.366-29.539-115.366-29.539l47.684 228.49z" style="fill:#92acef"/></g><g><path d="M468.357 320.917s60.259-31.741 117.646-25.236" style="fill:#92acef"/><path d="M468.36 322.959a2.042 2.042 0 0 1-.954-3.849c.608-.32 61.482-31.959 118.828-25.458a2.043 2.043 0 0 1-.461 4.059c-56.068-6.357-115.867 24.698-116.464 25.013-.303.16-.63.235-.95.235z"/></g><g><path d="M707.476 385.386s2.058-7.904-.937-21.682" style="fill:#92acef"/><path d="M707.477 387.429a2.042 2.042 0 0 1-1.978-2.55v-.001c.018-.075 1.88-7.697-.955-20.74a2.04 2.04 0 1 1 3.99-.868c3.064 14.093 1.007 22.29.917 22.631a2.042 2.042 0 0 1-1.974 1.528z"/></g><g><path d="M203.864 472.493s10.416 12.503 23.264 19.044" style="fill:#92acef"/><path d="M227.127 493.579c-.312 0-.628-.071-.925-.223-13.072-6.654-23.47-19.032-23.907-19.556a2.041 2.041 0 0 1 3.137-2.615c.102.123 10.314 12.266 22.622 18.533a2.042 2.042 0 0 1-.927 3.861z"/></g><g><path d="M273.055 564.717c-18.53 0-34.685-6.2-47.03-18.124-16.796-16.224-25.388-42.283-24.23-73.442-14.355-18.894-27.815-58.447-11.74-85.039 11.983-19.82 43.025-31.197 68.474-33.68 21.862-2.134 39.74-2.53 57.028-2.912 44.345-.981 79.463-1.76 149.999-31.63-4.68-8.993-26.745-48.008-69.422-74a2.042 2.042 0 1 1 2.125-3.488c49.346 30.054 71.728 77.18 71.949 77.652a2.046 2.046 0 0 1-1.048 2.74c-72.604 31.02-108.31 31.81-153.513 32.81-17.213.38-35.012.774-56.721 2.892-23.643 2.307-54.186 13.22-65.376 31.73-15.255 25.235-1.903 63.26 11.925 81.012.297.382.45.858.429 1.341-1.273 30.305 6.88 55.547 22.958 71.076 12.932 12.49 30.398 18.28 50.513 16.732 16.346-1.257 26.745-6.164 43.972-14.294 10.139-4.784 22.757-10.74 40.26-17.663 30.07-11.896 71.973-18.796 116.335-26.102 48.89-8.052 99.443-16.377 137.831-32.1 38.873-15.92 60.648-38.261 72.07-54.199 12.376-17.268 15.61-30.96 15.641-31.096a2.05 2.05 0 0 1 .642-1.079c33.326-29.346 10.992-56.77 1.456-68.481-8.416-10.333-14.784-21.878-21.526-34.102-18.069-32.755-40.555-73.52-118.854-126.886-27.537-18.77-54.036-48.702-103.886-107.874-22.042-26.164-45.067-40.37-68.435-42.223-26.328-2.081-43.858 12.762-44.032 12.912a2.043 2.043 0 0 1-2.676-3.086c.758-.658 18.888-16.093 46.944-13.904 24.527 1.914 48.523 16.606 71.323 43.67 49.604 58.881 75.942 88.645 103.063 107.13 79.104 53.916 101.85 95.154 120.128 128.29 6.94 12.58 12.934 23.446 21.117 33.495 9.354 11.484 34.127 41.911-1.445 73.7-.794 3.013-4.618 15.775-16.002 31.719-11.735 16.436-34.094 39.458-73.98 55.794-38.816 15.897-89.601 24.26-138.715 32.35-44.14 7.269-85.833 14.135-115.496 25.869-17.381 6.876-29.934 12.8-40.02 17.56-17.652 8.33-28.306 13.358-45.402 14.672a86.72 86.72 0 0 1-6.633.258z"/></g></g></svg></g><g transform="translate(1889.0 1395.0) rotate(0.0 60.5 80.5) scale(1.0606675543548292 1.0478830484414854)"><svg width="114.079" height="153.643" viewBox="0 0 114.079 153.643"><g><g><path d="M48.903 151.6c-24.895-12.225-42.792-40.897-45.91-63.464-5.483-39.679 13.536-68.708 36.693-81.4 27.398-15.017 58.107 8.536 37.088 34.797 0 0-51.498 27.27-27.871 110.068z" style="fill:#ffaac3"/><path d="M48.903 153.642c-.306 0-.614-.068-.9-.209C21.49 140.413 3.983 110.217.97 88.415c-5.953-43.08 16.607-71.89 37.734-83.47C55.62-4.327 72.556.451 80.544 9.961c7.732 9.206 6.918 21.486-2.176 32.848a2.038 2.038 0 0 1-.638.53c-.123.064-12.614 6.86-22.107 23.415-8.776 15.302-16.724 42.347-4.757 84.287a2.04 2.04 0 0 1-1.963 2.601zM57.254 4.12c-5.257 0-10.947 1.315-16.587 4.406-19.99 10.957-41.32 38.307-35.651 79.33 2.71 19.61 17.736 46.354 40.674 59.706-10.55-40.86-2.399-67.632 6.52-83.066 9.25-16.005 20.9-23.225 23.216-24.55 7.555-9.634 8.306-19.838 1.99-27.358C73.236 7.609 65.82 4.12 57.255 4.12z"/></g><g><path d="M48.903 151.6c-20.15-38.39-10.18-99.463 26.748-110.864 12.461-3.846 28.615 5.425 29.862 27.863.995 17.93-13.763 41.824 6.524 74.117L48.903 151.6z" style="fill:#ffaac3"/></g><g><path d="M48.905 153.642a2.042 2.042 0 0 1-1.81-1.092c-12.579-23.966-13.989-57.007-3.508-82.218C50.4 53.945 61.28 43.036 75.05 38.785c6.5-2.006 13.63-.785 19.568 3.347 7.694 5.354 12.288 14.713 12.934 26.353.3 5.378-.75 11.227-1.86 17.419-2.662 14.862-5.977 33.358 8.075 55.726a2.043 2.043 0 0 1-3.459 2.171c-14.892-23.705-11.422-43.063-8.635-58.617 1.067-5.951 2.073-11.571 1.801-16.472-.575-10.358-4.549-18.607-11.188-23.229-4.9-3.408-10.744-4.428-16.03-2.796C60.37 47.591 51.772 61.28 47.357 71.9c-10.04 24.152-8.694 55.8 3.353 78.751a2.042 2.042 0 0 1-1.806 2.991z"/></g></g></svg></g></svg>