<svg xmlns="http://www.w3.org/2000/svg" viewBox="0 0 3000 3000" width="3000" height="3000"><g transform="translate(856.8 428.4) rotate(0.0 643.8000000000001 741.0) scale(1.1037098055821521 1.1031209689004742)"><svg width="1166.611" height="1343.461" viewBox="0 0 1166.611 1343.461"><g fill="#001332"><path d="M1116.156 1343.461H50.455c-27.821 0-50.455-22.634-50.455-50.455V50.455C0 22.634 22.634 0 50.455 0h1065.701c27.821 0 50.455 22.634 50.455 50.455v1242.552c0 27.821-22.634 50.454-50.455 50.454zM50.455 3C24.288 3 3 24.288 3 50.455v1242.552c0 26.167 21.288 47.455 47.455 47.455h1065.701c26.167 0 47.455-21.288 47.455-47.455V50.455c0-26.167-21.288-47.455-47.455-47.455z"/><path d="M1165.111 1008.346H1.5a1.5 1.5 0 0 1 0-3h1163.611a1.5 1.5 0 1 1 0 3zm0-335.115H1.5a1.5 1.5 0 0 1 0-3h1163.611a1.5 1.5 0 1 1 0 3zm0-335.116H1.5a1.5 1.5 0 0 1 0-3h1163.611a1.5 1.5 0 1 1 0 3z"/><path d="M777.241 1343.461a1.5 1.5 0 0 1-1.5-1.5V1.5a1.5 1.5 0 1 1 3 0v1340.461a1.5 1.5 0 0 1-1.5 1.5zm-387.871 0a1.5 1.5 0 0 1-1.5-1.5V1.5a1.5 1.5 0 1 1 3 0v1340.461a1.5 1.5 0 0 1-1.5 1.5z"/></g></svg></g><g transform="translate(326.4 1591.2) rotate(0.0 363.59999999999997 488.4) scale(1.1994438222540373 1.1994562661397965)"><svg width="606.281" height="814.369" viewBox="0 0 606.281 814.369"><path d="M132.627 71.61 385.356.003 525.13 493.33 272.4 564.936z" fill="#8eb52d"/><path d="M293.442 235.54a1.5 1.5 0 0 1-1.442-1.092l-4.089-14.431a1.5 1.5 0 0 1 1.035-1.852l102.745-29.111a1.497 1.497 0 0 1 1.852 1.035l4.089 14.431a1.5 1.5 0 1 1-2.886.817l-3.68-12.988-99.858 28.293 3.68 12.988a1.5 1.5 0 0 1-1.444 1.909z" fill="#001332"/><path d="M340.725 206.554a1.5 1.5 0 0 1-1.442-1.092l-6.314-22.285a1.5 1.5 0 1 1 2.886-.817l6.314 22.285a1.5 1.5 0 0 1-1.444 1.909zm-21.597 21.709a1.5 1.5 0 0 1-1.442-1.092l-4.089-14.431a1.5 1.5 0 1 1 2.886-.817l4.089 14.431a1.5 1.5 0 0 1-1.444 1.909z" fill="#001332"/><path d="M344.814 220.985a1.5 1.5 0 0 1-1.442-1.092l-4.089-14.431a1.5 1.5 0 1 1 2.886-.817l4.089 14.431a1.5 1.5 0 0 1-1.444 1.909zm25.686-7.278a1.5 1.5 0 0 1-1.442-1.092l-4.089-14.431a1.5 1.5 0 1 1 2.886-.817l4.089 14.431a1.5 1.5 0 0 1-1.444 1.909z" fill="#001332"/><path d="M239.497 79.758 361.183 45.28l36.985 130.537-121.686 34.477z" fill="#003157"/><path d="m282.474 231.441 18.941-5.366 5.367 18.941-18.942 5.367zm25.686-7.278 18.941-5.367 5.367 18.942-18.942 5.366zm25.686-7.277 18.941-5.367 5.367 18.941-18.941 5.367zm25.685-7.279 18.942-5.366 5.366 18.941-18.941 5.367zm25.687-7.277 18.94-5.367 5.368 18.942-18.942 5.366z" fill="#f0efd8"/><path d="m183.056 162.643 25.112-7.115 81.68 288.285-25.112 7.115z" fill="#ccccb8"/><path d="M360.664 472.792a1.5 1.5 0 0 1-1.442-1.092l-4.089-14.431a1.498 1.498 0 0 1 1.035-1.852l102.745-29.111a1.504 1.504 0 0 1 1.852 1.035l4.089 14.431a1.5 1.5 0 1 1-2.887.817l-3.68-12.987-99.858 28.293 3.68 12.988a1.5 1.5 0 0 1-1.444 1.909z" fill="#001332"/><path d="M407.947 443.806a1.5 1.5 0 0 1-1.442-1.092l-6.314-22.285a1.5 1.5 0 1 1 2.886-.817l6.314 22.285a1.5 1.5 0 0 1-1.444 1.909zm-21.597 21.708a1.5 1.5 0 0 1-1.442-1.092l-4.089-14.431a1.5 1.5 0 1 1 2.886-.817l4.089 14.431a1.5 1.5 0 0 1-1.444 1.909z" fill="#001332"/><path d="M412.036 458.236a1.5 1.5 0 0 1-1.442-1.092l-4.089-14.431a1.5 1.5 0 1 1 2.886-.817l4.089 14.431a1.5 1.5 0 0 1-1.444 1.909zm25.686-7.278a1.5 1.5 0 0 1-1.442-1.092l-4.089-14.431a1.5 1.5 0 1 1 2.887-.817l4.089 14.431a1.5 1.5 0 0 1-1.445 1.909z" fill="#001332"/><path d="m306.718 317.01 121.686-34.477 36.985 130.537-121.686 34.477z" fill="#003157"/><path d="m349.694 468.693 18.942-5.366 5.366 18.941-18.941 5.367zm25.686-7.278 18.942-5.367 5.366 18.942-18.94 5.367zm25.687-7.276 18.941-5.367 5.367 18.941-18.941 5.367zm25.685-7.279 18.942-5.366 5.366 18.941-18.941 5.367zm25.686-7.277 18.942-5.367 5.366 18.942-18.941 5.366z" fill="#f0efd8"/><path d="m333.069 66.219 259.647 39.778L515.07 612.83l-259.647-39.778z" fill="#8eb52d"/><path d="M517.497 298.423a1.5 1.5 0 0 1-1.485-1.727l2.044-13.343-102.592-15.716-2.044 13.343a1.5 1.5 0 0 1-2.966-.454l2.271-14.826c.06-.394.274-.747.595-.982a1.51 1.51 0 0 1 1.115-.274l105.558 16.171a1.5 1.5 0 0 1 1.256 1.71l-2.271 14.826a1.5 1.5 0 0 1-1.481 1.273z" fill="#001332"/><path d="M466.989 275.512a1.5 1.5 0 0 1-1.485-1.727l3.507-22.895a1.501 1.501 0 0 1 2.966.454l-3.507 22.895a1.5 1.5 0 0 1-1.481 1.273zm-28.661 10.783a1.5 1.5 0 0 1-1.485-1.727l2.271-14.826a1.5 1.5 0 0 1 2.966.454l-2.271 14.826a1.5 1.5 0 0 1-1.481 1.273z" fill="#001332"/><path d="M464.718 290.338a1.5 1.5 0 0 1-1.485-1.727l2.271-14.826a1.5 1.5 0 1 1 2.966.454l-2.271 14.826a1.5 1.5 0 0 1-1.481 1.273zm26.389 4.043a1.5 1.5 0 0 1-1.485-1.727l2.271-14.826a1.501 1.501 0 0 1 2.966.454l-2.271 14.826a1.5 1.5 0 0 1-1.481 1.273z" fill="#001332"/><path d="m426.91 118 125.018 19.153-20.546 134.11-125.018-19.152z" fill="#003157"/><g fill="#ccccb8"><path d="m400.06 293.296 2.982-19.46 19.46 2.98-2.981 19.46zm26.39 4.044 2.982-19.46 19.46 2.98-2.982 19.46zm26.39 4.042 2.981-19.46 19.46 2.98-2.981 19.46zm26.39 4.042 2.98-19.46 19.46 2.981-2.98 19.46zm26.39 4.043 2.98-19.46 19.46 2.981-2.98 19.46zM334.433 193.538l43.845 6.717-45.375 296.177-43.844-6.717z"/></g><path d="M480.157 542.171a1.5 1.5 0 0 1-1.485-1.727l2.044-13.344-102.592-15.716-2.044 13.343a1.5 1.5 0 0 1-2.966-.454l2.271-14.826a1.5 1.5 0 0 1 1.71-1.256l105.558 16.17a1.5 1.5 0 0 1 1.256 1.71l-2.271 14.826a1.5 1.5 0 0 1-1.481 1.273z" fill="#001332"/><path d="M429.649 519.259a1.5 1.5 0 0 1-1.485-1.727l3.507-22.895a1.5 1.5 0 0 1 2.966.454l-3.507 22.895a1.5 1.5 0 0 1-1.481 1.273zm-28.661 10.784a1.5 1.5 0 0 1-1.485-1.727l2.271-14.826a1.5 1.5 0 0 1 2.966.454l-2.271 14.826a1.5 1.5 0 0 1-1.481 1.273z" fill="#001332"/><path d="M427.378 534.085a1.5 1.5 0 0 1-1.485-1.727l2.271-14.826a1.5 1.5 0 0 1 2.966.454l-2.271 14.826a1.5 1.5 0 0 1-1.481 1.273zm26.389 4.043a1.5 1.5 0 0 1-1.485-1.727l2.271-14.826a1.5 1.5 0 0 1 2.966.454l-2.271 14.826a1.5 1.5 0 0 1-1.481 1.273z" fill="#001332"/><path d="M389.568 361.748 514.586 380.9 494.04 515.01l-125.018-19.153z" fill="#003157"/><path d="m362.72 537.045 2.98-19.46 19.46 2.982-2.98 19.46zm26.39 4.043 2.981-19.46 19.46 2.981-2.981 19.46zm26.39 4.043 2.98-19.46 19.46 2.982-2.98 19.46zm26.389 4.042 2.981-19.46 19.46 2.981-2.981 19.46zm26.39 4.043 2.98-19.46 19.46 2.982-2.98 19.46z" fill="#f0efd8"/><path d="M294.573 323.756a1.5 1.5 0 0 1-1.485-1.724l38.499-256.04a1.499 1.499 0 0 1 1.71-1.26l73.226 11.218a1.5 1.5 0 0 1-.454 2.966l-71.739-10.99-38.275 254.553a1.5 1.5 0 0 1-1.481 1.277z" fill="#001332"/><path d="M606.281 814.369H104.357V305.025h80.5l8.655-4.862 7.379 4.862h73.186l6.356-6.04 11.152 6.04h314.696z" fill="#f0efd8"/><path d="M222.075 456.318c-18.924 1.153-41.812 17.645-61.073 42.388-21.743-10.665-47.889-32.043-70.032-74.646-19.052-36.655-28.952-81.29-27.161-122.457 1.74-39.99 14.152-71.355 34.054-86.052 42.024-31.038 90.708-21.005 138.536 28.249 19.416 19.995 29.837 40.525 37.624 61.08l.055.145h17.508l-.077-.205c-9.992-26.525-22.509-50.415-43.632-72.167-26.533-27.324-53.159-43.832-80.725-49.065-27.553-5.232-54.799 1.371-78.795 19.092-49.348 36.445-54.869 145.479-11.584 228.759 16.511 31.765 37.07 56.126 61.108 72.408a137.971 137.971 0 0 0 13.649 8.16 204.412 204.412 0 0 0-12.26 21.605c-5.738 11.718-10.68 24.404-15.457 36.672-18.672 47.943-36.309 93.228-101.887 105.479a8 8 0 1 0 2.937 15.727c74.321-13.884 95.326-67.816 113.858-115.4 4.872-12.511 9.475-24.328 14.917-35.442a186.841 186.841 0 0 1 12.771-22.081c13.773 5.003 25.799 6.459 34.796 6.564 23.84.3 43.594-8.597 51.603-23.161 5.369-9.766 4.693-20.725-1.904-30.858-6.78-10.415-16.748-15.527-28.829-14.795zm16.713 37.945c-4.1 7.456-16.939 14.875-36.486 14.875-.301 0-.605-.002-.909-.005-4.957-.058-13.789-.769-24.84-4.21 15.588-18.981 33.073-31.816 46.496-32.634 6.255-.385 10.844 2.02 14.447 7.554 3.316 5.095 3.751 9.947 1.292 14.42z" fill="#4c00fe"/><rect fill="#ccccb8" height="13.369" rx="1.367" width="23.395" y="676.942"/><path d="M236.39 724.029a7.969 7.969 0 0 1-4.481-1.378 931.827 931.827 0 0 0-7.396-4.944c-27.565-18.312-65.318-43.391-96.302-100.133-28.784-52.715-43.745-122.646-42.127-196.908 1.419-65.124 15.349-126.053 37.263-162.987 13.48-22.72 29.387-34.729 45.999-34.729 6.808 0 12.936 2.739 17.722 7.92 10.565 11.437 15.225 35.657 13.902 72.115-.025.676-.08 2.041-.08 2.041h-16.033l.063-1.615c1.148-31.199-2.274-53.749-9.605-61.685-1.773-1.92-3.614-2.777-5.969-2.777-10.499 0-21.948 9.551-32.238 26.894-38.798 65.389-56.081 231.93 5.146 344.063 29.088 53.271 64.937 77.085 91.112 94.474 2.608 1.733 5.12 3.401 7.519 5.026a8 8 0 0 1-4.495 14.624z" fill="#f47ffe"/><rect fill="#ccccb8" height="13.369" rx="1.367" transform="matrix(.81388234 .58102972 -.58102972 .81388234 465.611 -8.405)" width="23.395" x="234.227" y="715.892"/></svg></g><g transform="translate(2673.6 1027.2) rotate(0.0 -714.6 769.1999999999999) scale(-1.2001874348134973 1.2006284100336446)"><svg width="1190.814" height="1281.329" viewBox="0 0 1190.814 1281.329"><path d="M733.74 664.914a2.5 2.5 0 0 1-2.5-2.5v-77.525c0-37.567-30.563-68.13-68.129-68.13s-68.13 30.563-68.13 68.13v77.525a2.5 2.5 0 1 1-5 0v-77.525c0-40.324 32.806-73.13 73.129-73.13s73.13 32.806 73.13 73.13v77.525a2.5 2.5 0 0 1-2.5 2.5z" fill="#f47ffe"/><path d="M938.566 880.467a2.5 2.5 0 0 1-1.634-4.393c27.891-24.052 43.479-48.445 45.08-70.541a53.6 53.6 0 0 0 .115-5.625c-5.879 4.668-12.188 8.878-18.67 12.404-27.194 14.795-49.377 13.237-59.339-4.167-9.885-17.267-5.62-35.983 10.865-47.683 16.53-11.731 42.681-13.43 57.831 4.035 6.677 7.698 11.089 16.371 13.094 25.606 19.163-17.551 31.278-39.483 23.719-54.125-8.79-17.024-25.781-22.396-47.293-29.198-17.502-5.534-37.341-11.807-56.791-25.984-39.121-28.515-33.585-91.811-33.168-96.031-.067-37.51-30.604-68.005-68.129-68.005s-68.13 30.563-68.13 68.13v77.525a2.5 2.5 0 1 1-5 0V584.89c0-40.324 32.806-73.13 73.129-73.13s73.13 32.806 73.13 73.13c0 .085-.004.171-.013.256-.066.641-6.155 64.435 31.126 91.609 18.79 13.696 38.215 19.838 55.353 25.257 21.724 6.869 40.485 12.802 50.228 31.672 9.163 17.746-5.158 43.066-27.219 62.295.341 3.254.393 6.565.15 9.916-1.723 23.785-17.469 48.671-46.801 73.966a2.491 2.491 0 0 1-1.632.607zm4.56-123.981c-9.012 0-18.121 2.993-25.25 8.053-11.331 8.042-19.755 23.067-9.42 41.122 12.509 21.851 43.432 7.253 52.611 2.259 7.179-3.906 14.144-8.7 20.5-14.019-1.462-9.447-5.654-18.199-12.532-26.128-6.85-7.897-16.325-11.287-25.91-11.287z" fill="#8eb52d"/><path d="M687.555 708.724h92.218v105.141h-92.218z" fill="#ccccb8"/><path d="M705.459 696.078h56.411v12.646h-56.411z" fill="#003157"/><path d="M758.379 696.078H708.79v-34.073l5.913-19h37.922l5.754 19z" fill="#ccccb8"/><path d="M752.625 642.997h-37.922v-28.654l7.265-10.585a5 5 0 0 1 4.122-2.17h15.147a5 5 0 0 1 4.122 2.17l7.265 10.585v28.654z" fill="#4c00fe"/><path d="M546.372 708.724h92.218v105.141h-92.218zm70.903-12.646h-49.589v-34.073l5.913-19h37.922l5.754 19z" fill="#ccccb8"/><path d="M611.521 642.997h-37.922v-28.654l7.265-10.585a5 5 0 0 1 4.122-2.17h15.147a5 5 0 0 1 4.122 2.17l7.265 10.585v28.654z" fill="#8eb52d"/><path d="M564.275 696.078h56.411v12.646h-56.411z" fill="#003157"/><path d="M449.963 754.86h-30.005c-38.343 0-68.619-32.559-65.835-70.801l36.002-337.115c2.512-34.506 31.239-61.218 65.835-61.218 34.597 0 63.324 26.712 65.835 61.218l-5.998 337.115c2.784 38.242-27.492 70.801-65.835 70.801z" fill="#fff"/><path d="M449.963 756.36h-30.004c-18.966 0-36.524-7.649-49.439-21.539-12.915-13.889-19.27-31.956-17.893-50.872l36.006-337.165c2.551-35.057 32.127-62.558 67.327-62.558s64.776 27.501 67.332 62.609c.003.045.004.09.003.136l-5.997 337.048c1.356 18.891-4.998 36.931-17.897 50.803-12.915 13.889-30.473 21.539-49.439 21.539zm5.998-469.134c-33.636 0-61.898 26.279-64.34 59.827l-36.006 337.165c-1.312 18.025 4.761 35.288 17.102 48.56s29.119 20.582 47.242 20.582h30.004c18.124 0 34.901-7.309 47.242-20.582 12.341-13.272 18.413-30.536 17.097-48.611a2.028 2.028 0 0 1-.004-.135l5.997-337.047c-2.475-33.515-30.721-59.759-64.334-59.759z" fill="#001332"/><path d="M506.546 390.251c-23.621 28.945-66.233 33.262-95.179 9.641L222.723 191.555c-21.971-23.565-33.262-66.233-9.641-95.179 23.621-28.945 69.974-34.165 95.179-9.641l188.644 208.337c28.945 23.621 33.262 66.233 9.641 95.179z" fill="#fff"/><path d="M454.008 416.636c-15.869 0-31.128-5.413-43.588-15.581a1.503 1.503 0 0 1-.164-.155L221.611 192.563c-23.311-25.002-33.318-68.181-9.691-97.134 12.191-14.94 31.408-24.544 51.405-25.691 18.034-1.034 34.365 4.62 45.982 15.923l188.635 208.322c14.258 11.673 23.131 28.194 24.989 46.532 1.862 18.375-3.544 36.376-15.222 50.686s-28.228 23.215-46.604 25.077c-2.375.24-4.742.36-7.097.36zm-41.604-17.835c28.256 22.98 69.945 18.73 92.981-9.498l1.162.948-1.162-.948c23.06-28.258 18.831-70.009-9.427-93.068a1.503 1.503 0 0 1-.164-.155L307.149 87.743c-10.941-10.641-26.467-15.998-43.652-15.01-19.171 1.1-37.583 10.294-49.252 24.593-22.591 27.684-12.872 69.131 9.576 93.208l188.583 208.269z" fill="#001332"/><circle cx="459.658" cy="351.989" fill="#ccccb8" r="28.257"/><path d="m21.664 90.021 105.464 37.164 106.979-44.009c20.756-4.142 40.94 9.325 45.082 30.081 4.142 20.756-9.325 40.94-30.081 45.082l-128.646 25.675-.063-.314L9.812 109.909z" fill="#003157"/><path d="m43.215 29.756 97.976 17.075 73.161 100.868c14.881 15.05 39.146 15.187 54.196.306 15.05-14.881 15.187-39.146.306-54.196L176.619.526l-.228.225L43.446 0z" fill="#003157"/><circle cx="243.027" cy="118.815" fill="#ccccb8" r="21.732"/><path d="M544.593 731.817c-14.871-36.786-29.196-50.895-29.196-50.895H353.145s-14.324 14.109-29.196 50.895c-15.359 37.993-15.347 82.981-15.347 82.981l251.348-.002s.002-44.985-15.358-82.978z" fill="#fff"/><path d="M308.602 816.298a1.5 1.5 0 0 1-1.5-1.5c0-.453.165-45.717 15.456-83.543 14.818-36.652 28.94-50.816 29.534-51.401a1.503 1.503 0 0 1 1.053-.431h162.252c.394 0 .772.155 1.053.431.594.585 14.716 14.749 29.534 51.401 15.292 37.826 15.467 83.088 15.467 83.54a1.5 1.5 0 0 1-1.5 1.5l-251.348.002zm45.184-133.875c-2.438 2.627-15.285 17.401-28.447 49.957-13.511 33.422-15.043 72.812-15.216 80.918l248.304-.002c-.174-8.109-1.716-47.496-15.226-80.916-13.192-32.632-26.011-47.341-28.446-49.957h-160.97z" fill="#001332"/><path d="M920.234 1015.472s-135.127-.241-140.687-.241c-35.181 0-63.701-34.728-63.701-77.568s28.52-77.568 63.701-77.568h134.241z" fill="#8eb52d"/><ellipse cx="918.216" cy="937.663" fill="#fff" rx="63.701" ry="77.568"/><path d="M918.216 863.095c33.471 0 60.701 33.451 60.701 74.568s-27.23 74.568-60.701 74.568-60.701-33.451-60.701-74.568 27.23-74.568 60.701-74.568m0-3c-35.181 0-63.701 34.729-63.701 77.568s28.52 77.568 63.701 77.568 63.701-34.728 63.701-77.568-28.52-77.568-63.701-77.568z" fill="#001332"/><path d="M918.216 900.325h23.145v74.676h-23.145c-11.08 0-23.472-15.968-23.472-37.338s12.392-37.338 23.472-37.338" fill="#fff"/><path d="M941.361 976.501h-23.145c-11.788 0-24.972-16.609-24.972-38.838s13.184-38.838 24.972-38.838h23.145a1.5 1.5 0 0 1 1.5 1.5v74.676a1.5 1.5 0 0 1-1.5 1.5zm-23.145-74.676c-10.372 0-21.972 15.326-21.972 35.838s11.6 35.838 21.972 35.838h21.645v-71.676z" fill="#001332"/><path d="M941.361 900.325c11.08 0 23.472 15.968 23.472 37.338s-12.392 37.338-23.472 37.338-23.472-15.968-23.472-37.338 12.392-37.338 23.472-37.338" fill="#fff"/><path d="M941.361 976.501c-11.788 0-24.972-16.609-24.972-38.838s13.184-38.838 24.972-38.838 24.972 16.609 24.972 38.838-13.184 38.838-24.972 38.838zm0-74.676c-10.372 0-21.972 15.326-21.972 35.838s11.6 35.838 21.972 35.838 21.972-15.326 21.972-35.838-11.6-35.838-21.972-35.838z" fill="#001332"/><path d="M943.019 916.232c5.536 0 11.728 8.604 11.728 20.118s-6.192 20.118-11.728 20.118-11.728-8.604-11.728-20.118 6.192-20.118 11.728-20.118" fill="#003157"/><path d="m653.221 1051.233-407.763 1.537V813.5h328.981z" fill="#ccccb8"/><path d="M842.04 1052.77H520.91V813.5h321.13v46.595s-36.652 15.144-36.217 76.255c.409 57.496 36.217 78.881 36.217 78.881z" fill="#f0efd8"/><path d="M789.27 1043.607c-5.487 0-9.956-4.426-9.998-9.923-.043-5.523 4.399-10.034 9.922-10.077l82.339-.637 84.529-73.073c.156-.135.316-.265.48-.39.294-.224.907-.691.542-1.772s-1.135-1.081-1.505-1.081h-10.247c-5.523 0-10-4.477-10-10s4.477-10 10-10h10.247c9.416 0 17.445 5.764 20.456 14.686 2.973 8.81.188 18.135-7.094 23.862l-87.112 75.306a10.007 10.007 0 0 1-6.463 2.435l-86.018.665h-.079zm86.02-10.665h.01z" fill="#001332"/><path d="M235.043 1052.77h714.786v58.865H235.043z" fill="#fff"/><path d="M949.829 1113.135H235.043a1.5 1.5 0 0 1-1.5-1.5v-58.865a1.5 1.5 0 0 1 1.5-1.5h714.786a1.5 1.5 0 0 1 1.5 1.5v58.865a1.5 1.5 0 0 1-1.5 1.5zm-713.286-3h711.786v-55.865H236.543z" fill="#001332"/><path d="M518.154 1082.592h542.237v128.656H518.154z" fill="#fff"/><path d="M1060.39 1212.748H518.153a1.5 1.5 0 0 1-1.5-1.5v-128.656a1.5 1.5 0 0 1 1.5-1.5h542.237a1.5 1.5 0 0 1 1.5 1.5v128.656a1.5 1.5 0 0 1-1.5 1.5zm-540.737-3h539.237v-125.656H519.653zm-306.703 71.581s-93.409-.416-103.005-.416C49.224 1280.913 0 1220.974 0 1147.035s49.224-133.878 109.945-133.878h91.879z" fill="#001332"/><ellipse cx="209.467" cy="1147.035" fill="#003157" rx="109.945" ry="133.878"/><path d="M209.467 1082.592c19.123 0 40.511 27.56 40.511 64.443s-21.388 64.443-40.511 64.443-40.511-27.56-40.511-64.443 21.388-64.443 40.511-64.443" fill="#fff"/><path d="M209.467 1212.979c-19.831 0-42.011-28.201-42.011-65.944s22.18-65.943 42.011-65.943 42.011 28.201 42.011 65.943-22.18 65.944-42.011 65.944zm0-128.887c-18.415 0-39.011 26.918-39.011 62.943s20.596 62.944 39.011 62.944 39.011-26.918 39.011-62.944-20.596-62.943-39.011-62.943z" fill="#001332"/><path d="M209.467 1082.592c-19.123 0-40.51 27.56-40.51 64.443s21.388 64.443 40.51 64.443l308.686-.23v-128.656z" fill="#fff"/><path d="M209.468 1212.979c-19.832 0-42.012-28.201-42.012-65.944s22.18-65.943 42.011-65.943h308.686a1.5 1.5 0 0 1 1.5 1.5v128.656a1.5 1.5 0 0 1-1.499 1.5l-308.686.23zm0-128.887c-18.415 0-39.011 26.918-39.011 62.943s20.596 62.944 39.011 62.944l307.186-.229v-125.658H209.467zm874.884 197.237s-93.409-.416-103.005-.416c-60.721 0-109.945-59.939-109.945-133.878s49.224-133.878 109.945-133.878h91.879z" fill="#001332"/><ellipse cx="1080.869" cy="1147.035" fill="#003157" rx="109.945" ry="133.878"/><path d="M1080.869 1082.592c19.123 0 40.511 27.56 40.511 64.443s-21.388 64.443-40.511 64.443-40.511-27.56-40.511-64.443 21.388-64.443 40.511-64.443" fill="#f0efd8"/><path d="M645.758 1281.329s-93.409-.416-103.005-.416c-60.721 0-109.945-59.939-109.945-133.878s49.224-133.878 109.945-133.878h91.879z" fill="#001332"/><ellipse cx="642.275" cy="1147.035" fill="#003157" rx="109.945" ry="133.878"/><path d="M642.275 1082.592c19.123 0 40.511 27.56 40.511 64.443s-21.388 64.443-40.511 64.443-40.511-27.56-40.511-64.443 21.388-64.443 40.511-64.443m-155.947 132.974c-6.134-16.686-9.545-35.18-9.545-54.644 0-20.414 3.752-39.761 10.463-57.075l-42.251-.096-1.48 111.814h42.813z" fill="#f0efd8"/><path d="M473.359 1103.847c-6.711 17.313-10.463 36.66-10.463 57.075 0 19.464 3.411 37.958 9.545 54.644H61.621c-6.134-16.686-9.545-35.18-9.545-54.644 0-20.414 3.752-39.761 10.463-57.075z" fill="#ccccb8"/><g fill="#001332"><path d="M681.099 989.744a1.5 1.5 0 0 1-1.5-1.5V876.088a1.5 1.5 0 1 1 3 0v112.156a1.5 1.5 0 0 1-1.5 1.5zm86.12 0a1.5 1.5 0 0 1-1.5-1.5V876.088a1.5 1.5 0 1 1 3 0v112.156a1.5 1.5 0 0 1-1.5 1.5zm-28.707 0a1.5 1.5 0 0 1-1.5-1.5V876.088a1.5 1.5 0 1 1 3 0v112.156a1.5 1.5 0 0 1-1.5 1.5zm-28.706 0a1.5 1.5 0 0 1-1.5-1.5V876.088a1.5 1.5 0 1 1 3 0v112.156a1.5 1.5 0 0 1-1.5 1.5z"/></g></svg></g><g transform="translate(975.5999999999999 2442.0) rotate(0.0 78.0 63.0) scale(1.2209916643838297 1.2165332663918202)"><svg width="127.765" height="103.573" viewBox="0 0 127.765 103.573"><path d="M73.743 0H24.021L0 51.066l23.97 52.499 49.437.008 33.832-52.335zM51.352 73.07c-10.111 0-18.308-9.534-18.308-21.295S41.241 30.48 51.352 30.48s9.692 10.785 9.692 22.546.419 20.045-9.692 20.045z" fill="#001332"/><path d="M103.743 0H54.021L30 51.066l23.97 52.499 49.437.008 24.357-52.339zM79.352 73.07c-10.111 0-18.308-9.534-18.308-21.295S69.241 30.48 79.352 30.48 97.66 40.014 97.66 51.775 89.463 73.07 79.352 73.07z" fill="#ccccb8"/></svg></g><g transform="translate(1134.0 1064.3999999999999) rotate(0.0 150.60000000000002 230.4000000000001) scale(1.1988823168838614 1.1993815688785476)"><svg width="251.234" height="384.198" viewBox="0 0 251.234 384.198"><path d="M125.617 38.182C56.241 38.182 0 94.423 0 163.799s56.241 125.617 125.617 125.617 125.617-56.24 125.617-125.617S194.993 38.182 125.617 38.182zm0 173.682c-26.546 0-48.066-21.52-48.066-48.066s21.52-48.066 48.066-48.066 48.065 21.52 48.065 48.066-21.52 48.066-48.065 48.066z" fill="#F47FFE"/><path d="M251.207 161.688c-1.128-68.401-56.92-123.505-125.59-123.505C56.241 38.182 0 94.423 0 163.799s56.241 125.617 125.617 125.617c48.845 0 91.171-27.883 111.949-68.596v163.378h13.668zm-125.59 114.06c-61.729 0-111.949-50.22-111.949-111.949S63.888 51.85 125.617 51.85s111.949 50.22 111.949 111.949v13.82c-6.82 55.244-54.891 98.129-111.949 98.129z" fill="#F47FFE"/><path d="M125.616 277.248c-62.556 0-113.449-50.893-113.449-113.449S63.061 50.35 125.616 50.35s113.45 50.893 113.45 113.449v57.02a1.5 1.5 0 1 1-3 0v-57.02c0-60.902-49.547-110.449-110.45-110.449S15.168 102.897 15.168 163.799s49.547 110.449 110.449 110.449a1.5 1.5 0 1 1 0 3z" fill="#001332"/></svg></g><g transform="translate(932.4 708.0) rotate(0.0 515.3999999999999 85.19999999999999) scale(1.199956695392832 1.1986494091164883)"><svg width="859.031" height="142.16" viewBox="0 0 859.031 142.16"><path d="m91.901 83.614-87.92-2.186a4.082 4.082 0 0 1 0-8.16l87.92-2.186a4.081 4.081 0 0 1 4.183 4.08v4.372a4.081 4.081 0 0 1-4.183 4.08z" fill="#ccccb8"/><path d="M775.496 50.412h59.291c13.381 0 24.244 10.864 24.244 24.244 0 13.381-10.864 24.244-24.244 24.244h-59.291V50.411z" fill="#f0efd8"/><path d="m787.584 104.975-362.225 5.963V38.374l362.225 5.963z" fill="#ccccb8"/><path d="M281.172 101.434 82.941 90.458V64.237l198.231-10.976 8.548 22.633z" fill="#f0efd8"/><path d="M326.296 49.35h31.083v50.612h-31.083z" fill="#003157"/><g fill="#ccccb8"><path d="M281.172 38.374h45.124v72.564h-45.124zm70.125-1.06h36.587v72.992h-36.587z"/><path d="M408.921 123.73h-28.355V23.89h28.355l28.355 14.484v72.564z"/></g><path d="M380.566 111.806a1.5 1.5 0 0 1-1.5-1.5V37.314a1.5 1.5 0 1 1 3 0v72.992a1.5 1.5 0 0 1-1.5 1.5z" fill="#001332"/></svg></g><g transform="translate(1188.0 708.0) rotate(0.0 17.399999999999977 85.19999999999999) scale(1.1642300357967266 1.1986494091164883)"><svg width="29.891" height="142.16" viewBox="0 0 29.891 142.16"><path d="M11.337 1.5h7.216c5.429 0 9.837 4.408 9.837 9.837v121.452a7.873 7.873 0 0 1-7.87 7.87H9.39a7.895 7.895 0 0 1-7.891-7.891V11.337C1.5 5.908 5.908 1.5 11.337 1.5Z" style="fill:#fff;stroke-width:0"/><path d="M20.521 142.16H9.392c-5.179 0-9.392-4.213-9.392-9.391V11.337C0 5.086 5.086 0 11.338 0h7.216c6.251 0 11.337 5.086 11.337 11.337v121.452c0 5.167-4.204 9.37-9.37 9.37ZM11.338 3C6.74 3 3 6.74 3 11.337v121.431a6.398 6.398 0 0 0 6.391 6.391H20.52a6.377 6.377 0 0 0 6.37-6.37V11.337C26.89 6.74 23.15 3 18.553 3h-7.216Z" style="stroke-width:0;fill:#001332"/></svg></g><g transform="translate(1752.0 708.0) rotate(0.0 17.399999999999977 85.19999999999999) scale(1.1642300357967266 1.1986494091164883)"><svg width="29.891" height="142.16" viewBox="0 0 29.891 142.16"><path d="M11.337 1.5h7.216c5.429 0 9.837 4.408 9.837 9.837v121.452a7.873 7.873 0 0 1-7.87 7.87H9.39a7.895 7.895 0 0 1-7.891-7.891V11.337C1.5 5.908 5.908 1.5 11.337 1.5Z" style="fill:#fff;stroke-width:0"/><path d="M20.521 142.16H9.392c-5.179 0-9.392-4.213-9.392-9.391V11.337C0 5.086 5.086 0 11.338 0h7.216c6.251 0 11.337 5.086 11.337 11.337v121.452c0 5.167-4.204 9.37-9.37 9.37ZM11.338 3C6.74 3 3 6.74 3 11.337v121.431a6.398 6.398 0 0 0 6.391 6.391H20.52a6.377 6.377 0 0 0 6.37-6.37V11.337C26.89 6.74 23.15 3 18.553 3h-7.216Z" style="stroke-width:0;fill:#001332"/></svg></g><g transform="translate(1267.2 1064.3999999999999) rotate(0.0 17.399999999999977 85.20000000000005) scale(1.1642300357967266 1.1986494091164892)"><svg width="29.891" height="142.16" viewBox="0 0 29.891 142.16"><path d="M11.337 1.5h7.216c5.429 0 9.837 4.408 9.837 9.837v121.452a7.873 7.873 0 0 1-7.87 7.87H9.39a7.895 7.895 0 0 1-7.891-7.891V11.337C1.5 5.908 5.908 1.5 11.337 1.5Z" style="fill:#fff;stroke-width:0"/><path d="M20.521 142.16H9.392c-5.179 0-9.392-4.213-9.392-9.391V11.337C0 5.086 5.086 0 11.338 0h7.216c6.251 0 11.337 5.086 11.337 11.337v121.452c0 5.167-4.204 9.37-9.37 9.37ZM11.338 3C6.74 3 3 6.74 3 11.337v121.431a6.398 6.398 0 0 0 6.391 6.391H20.52a6.377 6.377 0 0 0 6.37-6.37V11.337C26.89 6.74 23.15 3 18.553 3h-7.216Z" style="stroke-width:0;fill:#001332"/></svg></g></svg>