<svg xmlns="http://www.w3.org/2000/svg" viewBox="0 0 3000 2370" width="3000" height="2370"><g transform="translate(1825.0 788.0) rotate(0.0 489.5 679.5) scale(1.000169589532035 1.0003194544836247)"><svg width="978.834" height="1358.566" viewBox="0 0 978.834 1358.566"><path d="M978.834 1358.566H0V0h978.834zm-963.834-15h948.834V15H15z" fill="#f3ead9"/></svg></g><g transform="translate(1696.0 689.0) rotate(0.0 481.5 671.5) scale(0.9991347057688358 0.999578733013488)"><svg width="963.834" height="1343.566" viewBox="0 0 963.834 1343.566"><path d="M0 0h963.834v1343.566H0z" fill="#fae2ce"/><g fill="#3c191e"><path d="M848.202 651.905H114.148c-2.762 0-5-2.238-5-5s2.238-5 5-5h734.054c2.762 0 5 2.238 5 5s-2.238 5-5 5zm0 105.306H114.148c-2.762 0-5-2.238-5-5s2.238-5 5-5h734.054c2.762 0 5 2.238 5 5s-2.238 5-5 5zM735.803 862.519H114.148c-2.762 0-5-2.238-5-5s2.238-5 5-5h621.655c2.762 0 5 2.238 5 5s-2.238 5-5 5zm112.399-397.584H564.357c-2.762 0-5-2.238-5-5s2.238-5 5-5h283.845c2.762 0 5 2.238 5 5s-2.238 5-5 5zm0 86.068H564.357c-2.762 0-5-2.238-5-5s2.238-5 5-5h283.845c2.762 0 5 2.238 5 5s-2.238 5-5 5z"/></g><path d="M767.817 1098.774c-43.805 0-79.442-35.638-79.442-79.442s35.638-79.442 79.442-79.442 79.442 35.638 79.442 79.442-35.638 79.442-79.442 79.442zm0-148.885c-38.291 0-69.442 31.151-69.442 69.442s31.151 69.442 69.442 69.442 69.442-31.151 69.442-69.442-31.151-69.442-69.442-69.442z" fill="#d2c1f0"/><path d="M233.009 1220.888c-17.548 0-41.325-12.753-59.168-50.013-10.958-22.883-17.905-53.77-18.584-82.621-.426-18.104 1.341-50.62 17.957-64.988 7.626-6.597 21.115-11.507 42.07 2.567 17.841 11.982 32.465 32.468 44.927 55.22 1.623-29.118 6.249-59.577 19.119-86.687a5 5 0 1 1 9.033 4.289c-14.844 31.267-18.169 66.688-18.842 100.516 6.588 13.576 12.547 27.369 18.081 40.177 7.454 17.253 14.495 33.548 21.129 44.743 7.536 12.718 12.448 15.254 15.33 15.067.648-.59 3.439-4.198 4.438-23.088.72-13.617.33-30.693-.047-47.207-.962-42.137-.652-58.465 6.482-62.773 2.325-1.405 5.139-1.39 7.716.043 8.637 4.798 13.329 18.02 19.823 36.318 7.598 21.409 17.053 48.053 36.171 70.518 2.618 3.075 4.187 4.044 4.838 4.341.724-.976 2.755-4.903 3.463-18.771.561-10.978.16-24.564-.193-36.552-.327-11.114-.61-20.713-.166-27.161.41-5.944 1.674-14.171 7.888-16.966 7.249-3.252 15.377 3.012 24.791 10.27 8.771 6.762 19.679 15.178 27.198 12.837 6.017-1.875 8.057-7.026 11.431-16.729 5.471-15.735 12.963-37.286 51.256-49.043a5.001 5.001 0 0 1 2.935 9.561c-33.447 10.269-39.712 28.287-44.746 42.767-3.492 10.043-6.79 19.529-17.901 22.992-12.472 3.895-25.12-5.861-36.278-14.465-4.587-3.534-12.214-9.449-14.574-9.062-.229.224-1.559 1.799-2.022 8.526-.411 5.958-.121 15.779.186 26.179 1.113 37.771 1.013 61.005-9.758 65.148-7.287 2.808-13.815-4.869-15.961-7.391-20.312-23.865-30.523-52.642-37.98-73.653-4.687-13.206-8.81-24.826-13.367-29.44-2.24 8.128-1.665 33.343-1.232 52.279 1.147 50.247 1.109 78.758-12.993 80.434-.616.073-1.228.109-1.831.109-16.746.002-28.773-27.839-45.202-65.864-2.891-6.688-5.899-13.652-9.052-20.707.006 2.174.014 4.334.021 6.48.087 23.256.162 43.341-3.133 59.085-3.907 18.671-12.568 29.151-26.479 32.04-2.121.44-4.391.676-6.772.676zm-42.486-194.062c-4.084 0-7.681 1.334-10.768 4.004-9.725 8.408-15.146 29.788-14.501 57.189.646 27.507 7.229 56.866 17.606 78.537 16.628 34.722 39.54 47.051 54.888 43.864 21.932-4.556 21.806-38.421 21.646-81.297-.033-8.829-.068-18.126.101-27.702-13.562-27.624-29.683-53.785-49.786-67.288-7.251-4.87-13.664-7.308-19.186-7.308z" fill="#3c191e"/><path d="m688.787 1246.568-200.803-186.119c-9.459-8.767-10.019-23.542-1.251-32.999l31.7-34.202c8.767-9.459 23.542-10.019 32.998-1.252l200.803 186.119c9.459 8.767 10.019 23.542 1.251 32.999l-31.7 34.202c-8.766 9.457-23.541 10.018-32.998 1.252z" fill="#d2c1f0"/><path d="M704.634 1257.794c-7.164 0-13.962-2.661-19.245-7.559l-200.803-186.118c-5.555-5.147-8.771-12.15-9.059-19.719-.287-7.567 2.391-14.794 7.539-20.348l31.7-34.2c5.147-5.555 12.15-8.771 19.718-9.059 7.568-.305 14.793 2.391 20.347 7.538l200.803 186.118c5.554 5.148 8.771 12.151 9.058 19.719s-2.391 14.794-7.539 20.348l-31.7 34.2c-5.147 5.555-12.149 8.771-19.717 9.059-.367.014-.735.021-1.102.021zM535.576 990.771c-.237 0-.475.005-.713.014a18.24 18.24 0 0 0-12.763 5.863l-31.7 34.202c-3.333 3.595-5.065 8.272-4.88 13.171s2.268 9.431 5.862 12.763l200.804 186.118a18.263 18.263 0 0 0 13.17 4.879 18.234 18.234 0 0 0 12.762-5.862l31.7-34.201a18.234 18.234 0 0 0 4.881-13.171 18.24 18.24 0 0 0-5.864-12.764L548.033 995.665a18.217 18.217 0 0 0-12.457-4.894z" fill="#d2c1f0"/><circle cx="706.279" cy="257.555" fill="#fff" r="127.351"/><path d="M682.867 188.162h46.825v138.786h-46.825z" fill="#e51b26"/><path d="M636.886 234.142h138.786v46.825H636.886z" fill="#e51b26"/></svg></g><g transform="translate(201.0 149.0) rotate(0.0 1019.5 1036.0) scale(0.9967886685807226 0.9963066451056676)"><svg width="2045.569" height="2079.681" viewBox="0 0 2045.569 2079.681"><path d="m1698.381 493.649-60.994 478.816-249.94-331.22-214.08 167.905 384.602 461.38c107.249 128.659 316.574 47.638 309.255-119.699l-29.194-667.476-139.648 10.295z" fill="#f69578"/><path d="m1576.852 891.916-177.236 189.223-76.282-91.511 200.563-167.707z" fill="#3c191e"/><path d="m1264.638 537.181-21.523-9.054-122.457 359.845 166.795 198.323 267.298-223.509-183.462-242.655a259.997 259.997 0 0 0-106.651-82.95z" fill="#d2c1f0"/><path d="M1254.715 1052.845a5 5 0 0 1-3.21-8.836l270.185-225.923a5 5 0 0 1 6.415 7.672l-270.185 225.923a4.982 4.982 0 0 1-3.205 1.164zm363.568 105.215a5 5 0 0 1-4.978-5.526l19.111-180.595a4.997 4.997 0 0 1 5.498-4.446 5 5 0 0 1 4.446 5.499l-19.111 180.595a5 5 0 0 1-4.966 4.474z" fill="#3c191e"/><path d="M1243.115 528.127 815.079 348.069 546.136 730.924l-199.548 545.784a1074.277 1074.277 0 0 0-43.447 153.207L169.984 2079.68h425.328l68.319-161.939 36.272 161.939h418.329l-69.438-540.197 219.639-729.906 5.02-203.541-30.34-77.91z" fill="#d2c1f0"/><path d="M1051.9 667.037a5.01 5.01 0 0 1-1.522-.237l-48.693-15.567a5 5 0 0 1-3.097-2.85L888.632 382.866a4.999 4.999 0 0 1 2.707-6.532 4.998 4.998 0 0 1 6.533 2.706l109.068 263.374 43.916 14.04 172.075-138.984a5 5 0 0 1 6.283 7.779l-174.172 140.678a4.992 4.992 0 0 1-3.142 1.11zm-3.101 877.447c-.426 0-.859-.055-1.29-.17l-725.005-193.143a5 5 0 1 1 2.575-9.662l725.005 193.143a5 5 0 0 1-1.284 9.832zm163.281-542.622a5 5 0 0 1-4.79-6.442l43.719-145.287a5 5 0 1 1 9.576 2.881l-43.719 145.287a5.002 5.002 0 0 1-4.786 3.561zm-548.45 920.881a5 5 0 0 1-4.604-6.945l86.711-205.534a4.995 4.995 0 0 1 6.551-2.663 5 5 0 0 1 2.663 6.55l-86.711 205.534a5.002 5.002 0 0 1-4.609 3.058z" fill="#3c191e"/><path d="m944.41 402.474 90.455 218.426 146.843-118.604z" fill="#f69578"/><path d="m1073.946 287.089-93.341 195.016 123.989 42.573 89.586-187.171z" fill="#f69578"/><path d="m1194.18 337.507-75.281-31.567-19.851 39.217c17.076 45.921 61.076 63.502 61.076 63.502z" fill="#3c191e"/><path d="M1265.956 160.184c31.518 87.245 9.116 169.553-36.666 197.109-55.602 33.467-191.357-19.785-221.662-101.63s2.956-169.567 74.291-195.934c71.336-26.366 154.384 18.371 184.037 100.454z" fill="#f69578"/><path d="M1047.484 257.797c12.613 11.542 21.462 25.372 21.462 25.372 5.228-5.758 1.948-45.716-6.344-64.453 29.216-16.752 60.083-46.371 74.401-82.218 8.739 18.757 23.267 34.601 41.146 44.227 6.867-15.287 4.275-29.646-2.839-46.198 8.458 8.216 21.77 32.609 23.724 47.353 18.839-16.862 23.21-41.79 11.813-67.338 13.405 5.863 18.536 13.963 24.524 23.377 5.777-7.784 3.911-26.306-4.961-36.628-10.408-12.107-72.506-77.766-171.23-37.679-87.526 35.54-97.32 140.631-74.581 198.062 17.666 44.62 38.541 79.551 53.105 101.136 35-35 27.92-57.766 27.92-57.766l-40.954-43.909z" fill="#3c191e"/><path d="M1053.787 83.357c16.936-27.007 21.443-50.713 21.403-73.695-.029-16.928-9.249-8.063-14.507-.156-10.043 15.102-24.45 42.571-25.912 66.17-.638-8.904-2.191-17.883-6.35-26.12-10.46-20.714-14.934-7.947-16.301-.873-1.773 9.173 6.702 48.538 10.185 56.354l31.48-21.681z" fill="#3c191e"/><path d="M1047.484 257.797c-35.816-33.98-77.121-.493-67.545 35.962 9.355 35.61 55.92 49.2 85.686 11.284-7.596-21.907-18.14-47.246-18.14-47.246z" fill="#f69578"/><path d="M1014.619 302.295a4.978 4.978 0 0 1-4.974-4.58c-.05-.627-1.073-15.504 12.573-27.294a5 5 0 0 1 6.538 7.567c-9.689 8.371-9.167 18.543-9.14 18.972.172 2.739-1.894 5.127-4.632 5.323a4.985 4.985 0 0 1-.365.013z" fill="#3c191e"/><path d="M1043.806 293.81a4.99 4.99 0 0 1-3.978-1.967c-7.278-9.534-16.781-14.993-26.76-15.37-7.821-.286-15.111 2.686-20 8.179a5 5 0 1 1-7.469-6.649c6.882-7.731 17.031-11.944 27.847-11.522 13.017.491 25.209 7.344 34.332 19.296a5 5 0 0 1-3.971 8.033zM774.899 927.151a5.002 5.002 0 0 1-3.525-1.454l-68.982-68.568a5.001 5.001 0 0 1-1.216-5.135l57.873-172.693a5.004 5.004 0 0 1 6.332-3.152l166.38 55.864a5.002 5.002 0 0 1 3.146 6.339l-58.173 172.453a5 5 0 0 1-4.077 3.357l-97.097 12.944a5.06 5.06 0 0 1-.661.044zm-63.254-74.925 65.033 64.644 91.574-12.208L923.831 739.9 766.94 687.221l-55.296 165.005z" fill="#3c191e"/><path d="M916.106 783.447a4.986 4.986 0 0 1-1.612-.268l-166.06-56.545a5.001 5.001 0 0 1 3.223-9.467l166.06 56.545a5.001 5.001 0 0 1-1.611 9.735z" fill="#3c191e"/><path d="M1869.861 468.745c-10.828 0-20.806-7.089-23.989-18.008-3.865-13.255 3.747-27.134 17.002-30.999 19.785-5.769 34.513-19.324 45.027-41.441 9.458-19.896 15.186-46.088 17.024-77.847 3.267-56.437-7.087-109.448-7.192-109.977-2.688-13.543 6.111-26.701 19.654-29.389 13.544-2.688 26.701 6.112 29.389 19.655.479 2.415 11.697 59.864 8.065 122.6-6.61 114.194-56.926 152.43-97.971 164.399a25.022 25.022 0 0 1-7.01 1.006z" fill="#f69578"/><path d="M1885.665 471.793h-.125c-13.807-.018-24.985-11.226-24.967-25.033.018-13.795 11.208-24.967 25-24.967h.085c37.145 0 56.964-52.126 67.054-95.87 12.612-54.68 13.052-110.715 13.056-111.274.073-13.76 11.252-24.873 24.997-24.873h.124c13.802.067 24.939 11.301 24.878 25.104-.011 2.483-.425 61.498-14.161 121.529-25.597 111.865-77.15 135.384-115.94 135.384z" fill="#f69578"/><path d="M1899.152 496.772c-10.245 0-19.854-6.346-23.524-16.54-4.676-12.991 2.064-27.313 15.056-31.989 48.016-17.283 80.167-50.465 95.562-98.625 11.605-36.304 9.107-68.065 9.078-68.376-1.262-13.749 8.861-25.918 22.61-27.181 13.749-1.257 25.919 8.861 27.181 22.61.154 1.681 3.609 41.707-11.243 88.17-20.086 62.839-63.745 107.947-126.254 130.447a24.947 24.947 0 0 1-8.465 1.484zm-74.711-65.889c-12.964 0-23.926-10.007-24.905-23.145-1.025-13.769 9.268-26.787 23.075-26.787 15.267 0 31.291-10.682 39.999-21.455 9.198-11.379 12.707-24.213 10.148-42.79-6.198-44.989-39.924-89.53-40.264-89.974-8.377-10.957-6.31-26.643 4.634-35.037 10.942-8.395 26.606-6.354 35.016 4.576 1.716 2.23 42.11 55.279 50.146 113.611 4.426 32.132-2.958 61.979-20.795 84.045-17.604 21.78-43.598 34.534-75.171 36.885-.631.047-1.26.07-1.883.07z" fill="#f69578"/><path d="M1778.388 572.451c37.251 11.12 65.556 8.595 102.77-20.617 45.684-35.861 92.659-85.02 113.044-114.914l-167.512-56.372c-25.228 1.294-40.821-14.177-38.029-24.052 8.261-29.215 27.587-101.122 27.587-101.122.399-12.575-9.104-23.243-21.619-24.266-8.433-.693-16.235 3.15-20.951 9.524a23.6 23.6 0 0 0-4.467 11.166s-43.746 84.434-47.821 93.537c-22.934 51.227-19.172 105.913-23.008 148.316 0 0 14.263 59.176 80.006 78.801z" fill="#f69578"/><path d="M1811.803 583.701c-15.595 0-35.516-3.195-56.201-14.903a5.001 5.001 0 0 1 4.926-8.703c40.649 23.009 78.713 9.726 79.093 9.588a5 5 0 0 1 3.391 9.408c-.926.333-13.175 4.61-31.209 4.61zm42.077-103.269a5 5 0 0 1-1.967-9.599l60.626-25.913-37.883-26.261a5 5 0 1 1 5.698-8.219l45.316 31.413a5 5 0 0 1-.883 8.707l-68.942 29.468a5 5 0 0 1-1.963.403zm49.047-102.551a5 5 0 0 1-4.285-7.571c17.636-29.427 23.651-73.155 21.789-103.438a4.999 4.999 0 0 1 4.684-5.297c2.753-.185 5.128 1.928 5.297 4.684 1.957 31.823-4.455 77.929-23.192 109.192a4.999 4.999 0 0 1-4.293 2.431zm19.071 17.4a5.001 5.001 0 0 1-3.707-8.354c33.322-36.85 37.111-103.009 39.147-138.553.33-5.762.469-11.155.603-16.37.433-16.833.774-30.13 7.548-38.432a4.998 4.998 0 0 1 7.035-.713 5 5 0 0 1 .713 7.035c-4.612 5.653-4.916 17.441-5.299 32.366-.136 5.293-.277 10.766-.616 16.686-2.106 36.773-6.026 105.223-41.713 144.688a4.985 4.985 0 0 1-3.71 1.646zm20.746 19.325a5 5 0 0 1-3.2-8.844c45.201-37.595 49.255-102.874 50.587-124.326l.117-1.855c1.82-28.198 21.271-33.37 22.098-33.576a5 5 0 0 1 2.473 9.69c-.639.18-13.266 3.991-14.591 24.531l-.115 1.831c-1.398 22.517-5.654 91.04-54.174 131.394a4.98 4.98 0 0 1-3.195 1.156zm-168.086 77.546a5 5 0 0 1-3.338-8.725c.559-.503 48.402-44.189 46.294-102.295a5.001 5.001 0 0 1 4.815-5.179c2.771-.114 5.078 2.056 5.178 4.815 2.282 62.918-47.498 108.212-49.618 110.108a4.981 4.981 0 0 1-3.333 1.274z" fill="#3c191e"/><path d="M635.833 344.279s-294.632 86.443-520.711 153.714C29.17 523.569-19.314 614.44 7.296 700.078l206.614 664.943 140.13 13.057-87.266-663.081 419.201-102.991-50.143-267.727z" fill="#f69578"/><path d="m332.646 433.544 20.216 258.803 85.903-19.32-52.831-255.215zm-65.878 286.453a5.001 5.001 0 0 1-4.951-4.349l-10.315-78.376a5 5 0 0 1 9.915-1.304l10.315 78.376a5 5 0 0 1-4.964 5.653z" fill="#3c191e"/><path d="m649.765 339.813-291.469 86.158 64.884 333.568 253.021-58.885 196.205-328.471-54.835-23.067a250.003 250.003 0 0 0-167.806-9.304z" fill="#d2c1f0"/><path d="M485.162 750.085a5.003 5.003 0 0 1-4.903-4.046l-65.331-335.868a5 5 0 0 1 3.953-5.863c2.709-.519 5.335 1.243 5.863 3.953l65.331 335.868a5 5 0 0 1-4.913 5.956zm60.97-14.159a5 5 0 0 1-1.128-9.871l130.064-30.27a5 5 0 1 1 2.266 9.74l-130.064 30.27a4.995 4.995 0 0 1-1.138.131z" fill="#3c191e"/><g fill="#f69578"><path d="M375.885 1403.839 339.909 1270.7l-137.586 31.423s-17.193 80.396 0 136.69c17.193 56.293 68.639 53.992 114.445 33.876s59.118-68.851 59.118-68.851z"/><path d="m329.086 1608.057-27.715-30.138-34.573-173.036-64.475-102.759-15.01 52.699a119.011 119.011 0 0 0 1.405 69.784l58.643 172.379a50.577 50.577 0 0 0 10.82 18.436l28.71 31.221c10.684 11.619 28.791 12.4 40.443 1.745 11.652-10.654 12.436-28.711 1.752-40.329z"/><path d="M378.566 1660.161a28.392 28.392 0 0 1-8.368 13.907c-6.789 6.203-15.786 8.533-24.226 7.084a28.483 28.483 0 0 1-16.22-8.839l-16.367-17.798-31.341-34.074a63.434 63.434 0 0 1-14.324-25.635l-48.205-170.396 70.373-29.061 32.53 184.528 49.532 53.856c6.799 7.39 8.947 17.39 6.616 26.428z"/><path d="M422.273 1672.432a28.392 28.392 0 0 1-8.368 13.907c-5.591 5.104-12.663 7.576-19.681 7.491a28.52 28.52 0 0 1-20.765-9.246l-15.506-16.863-31.459-34.214a67.666 67.666 0 0 1-15.36-27.472l-47.912-169.354 70.373-29.061 32.53 184.528 49.532 53.856c6.799 7.39 8.947 17.39 6.616 26.428z"/><path d="m453.604 1637.509-45.188-49.139-32.531-184.53-70.373 29.063 47.493 167.893a74.267 74.267 0 0 0 16.804 30.059l41.6 45.238c10.684 11.619 28.791 12.4 40.443 1.745 11.652-10.654 12.436-28.711 1.752-40.329h-.001zm-6.797-124.727-70.922-108.943-58.378-142.935 37.747 16.507a109.546 109.546 0 0 1 51.514 46.493l96.562 154.759c8.824 15.627 3.498 35.422-11.986 44.546-15.25 8.987-34.893 4.388-44.538-10.427z"/></g><path d="M310.033 1660.894a4.984 4.984 0 0 1-3.582-1.511l-34.482-35.4-.104-.109a68.698 68.698 0 0 1-15.413-27.649l-29.434-102.319a5 5 0 0 1 9.611-2.764l29.441 102.344a58.695 58.695 0 0 0 13.116 23.575l34.428 35.345a5 5 0 0 1-3.581 8.489zm50.893 22.615a4.985 4.985 0 0 1-3.693-1.628l-41.059-44.943a73.273 73.273 0 0 1-16.434-29.485l-32.769-116.162a5 5 0 0 1 9.625-2.715l32.769 116.162a63.238 63.238 0 0 0 14.187 25.449l41.065 44.95a4.998 4.998 0 0 1-3.69 8.372zm52.98 4.83a4.984 4.984 0 0 1-3.59-1.52l-50.84-52.426-.096-.101a79.729 79.729 0 0 1-17.884-32.082l-33.036-117.106a5 5 0 0 1 9.625-2.715l33.036 117.106a69.681 69.681 0 0 0 15.584 27.987l50.791 52.375a5 5 0 0 1-3.589 8.48zm-138.064-408.15a5.001 5.001 0 0 1-1.992-9.588c1.019-.441 25.428-10.751 66.765-4.851a5.001 5.001 0 0 1-1.413 9.9c-38.57-5.511-61.15 4.027-61.373 4.124a4.984 4.984 0 0 1-1.987.414z" fill="#3c191e"/></svg></g><g transform="translate(227.0 1085.0) rotate(0.0 391.0 375.0) scale(0.9995705170157068 0.9998973438726957)"><svg width="782.336" height="750.077" viewBox="0 0 782.336 750.077"><rect fill="#fff" height="572.693" rx="25" transform="matrix(.60287384 -.79783653 .79783653 .60287384 -146.132 473.059)" width="471.442" x="166.407" y="96.974"/><path d="M483.571 734.491a25.368 25.368 0 0 1-15.343-5.145L51.205 414.227c-11.217-8.477-13.447-24.5-4.971-35.719L300.311 42.267c4.1-5.426 10.077-8.932 16.83-9.872 6.762-.938 13.461.801 18.888 4.9l417.023 315.119c11.218 8.476 13.447 24.499 4.971 35.718L503.946 724.374c-5.006 6.626-12.647 10.116-20.375 10.116zM320.72 33.146c-1.142 0-2.289.079-3.439.239-6.489.903-12.232 4.271-16.171 9.485L47.031 379.112c-8.144 10.778-6.001 26.173 4.777 34.318l417.023 315.118c10.776 8.142 26.172 6.003 34.316-4.777l.399.302-.399-.302 254.078-336.242c8.144-10.778 6.001-26.173-4.777-34.317L335.426 38.094c-4.288-3.24-9.411-4.947-14.706-4.947z" fill="#fff"/><path d="M522.193 738.162 776.27 401.92c9.989-13.219 7.37-32.033-5.849-42.021L302.165 6.067c-13.219-9.989-32.033-7.37-42.021 5.849L6.067 348.157c-9.989 13.219-7.37 32.033 5.849 42.021L480.172 744.01c13.219 9.989 32.033 7.37 42.021-5.849zM54.521 409.839c-8.799-6.649-10.548-19.216-3.899-28.014L304.699 45.583c6.648-8.799 19.216-10.548 28.014-3.899l417.023 315.118c8.798 6.648 10.548 19.216 3.899 28.014L499.558 721.058c-6.649 8.799-19.216 10.548-28.014 3.899z" fill="#3c191e"/><g fill="#fae2ce"><path d="M173.257 317.862a5 5 0 0 1-3.986-8.015L328.517 99.103a5 5 0 0 1 7.979 6.029L177.25 315.876a4.991 4.991 0 0 1-3.993 1.985zm28.178 56.042a5 5 0 0 1-3.986-8.015L373.41 133.026a5 5 0 0 1 7.979 6.029L205.428 371.918a4.991 4.991 0 0 1-3.993 1.985zm29.273 54.597a5 5 0 0 1-3.986-8.015l191.582-253.537a5 5 0 1 1 7.979 6.029L234.701 426.515a4.991 4.991 0 0 1-3.993 1.985zm16.57 71.406a5 5 0 0 1-3.986-8.015l219.905-291.02a5 5 0 0 1 7.979 6.029l-219.905 291.02a4.991 4.991 0 0 1-3.993 1.985zm73.218-3.559a5 5 0 0 1-3.986-8.015l191.581-253.537a5 5 0 0 1 7.979 6.029L324.489 494.362a4.991 4.991 0 0 1-3.993 1.985zm16.57 71.406a5 5 0 0 1-3.986-8.015l219.904-291.02a5 5 0 1 1 7.979 6.029l-219.904 291.02a4.991 4.991 0 0 1-3.993 1.985zm61.1 46.17a5 5 0 0 1-3.986-8.015l128.043-169.45a5 5 0 1 1 7.979 6.029l-128.043 169.45a4.991 4.991 0 0 1-3.993 1.985zm57.374 43.353a5 5 0 0 1-3.986-8.015l128.043-169.45a5 5 0 0 1 7.979 6.029l-128.043 169.45a4.991 4.991 0 0 1-3.993 1.985z"/></g><circle cx="612.839" cy="384.474" fill="#e51b26" r="56.269"/><path d="M612.711 445.755c-13.239 0-26.061-4.275-36.81-12.397-26.953-20.367-32.313-58.866-11.945-85.821 20.37-26.954 58.868-32.313 85.821-11.944 26.953 20.367 32.312 58.866 11.944 85.82-9.866 13.057-24.227 21.49-40.437 23.747a62.317 62.317 0 0 1-8.574.596zm.189-112.53c-15.537 0-30.898 7.018-40.966 20.341-17.043 22.555-12.559 54.771 9.996 71.813 10.927 8.257 24.417 11.759 37.977 9.876 13.563-1.889 25.58-8.945 33.836-19.872 8.256-10.926 11.764-24.413 9.876-37.977s-8.945-25.58-19.871-33.836c-9.231-6.976-20.082-10.346-30.848-10.346z" fill="#e51b26"/><path d="M640.396 410.301a4.979 4.979 0 0 1-3.011-1.011l-55.122-41.652a5 5 0 0 1 6.029-7.979l55.122 41.652a5 5 0 0 1-3.018 8.989z" fill="#fff"/><path d="M592.009 417.035a5 5 0 0 1-3.986-8.015l41.652-55.122a5 5 0 1 1 7.979 6.029l-41.652 55.122a4.991 4.991 0 0 1-3.993 1.985z" fill="#fff"/></svg></g><g transform="translate(200.0 475.0) rotate(0.0 436.0 682.0) scale(0.9995346203487826 0.9997998934230906)"><svg width="872.406" height="1364.273" viewBox="0 0 872.406 1364.273"><g><path d="M635.833 14.72s-294.632 86.444-520.711 153.714C29.17 194.01-19.313 284.881 7.297 370.519l206.614 664.943 140.13 13.057-87.266-663.081 419.201-102.991L635.833 14.72Z" style="fill:#f69578"/><path style="fill:#3c191e" d="m332.646 103.986 20.216 258.803 85.903-19.32-52.831-255.216-53.288 15.733zm-65.878 286.452a5 5 0 0 1-4.951-4.349l-10.314-78.376a5 5 0 0 1 4.305-5.609 4.991 4.991 0 0 1 5.609 4.305l10.314 78.376a5 5 0 0 1-4.963 5.653Z"/><path d="M649.765 10.255 358.296 96.413l64.884 333.568 253.021-58.885 196.205-328.47-54.835-23.067a250.003 250.003 0 0 0-167.806-9.304Z" style="fill:#d2c1f0"/><path d="M485.162 420.526a5 5 0 0 1-4.902-4.046L414.929 80.612a5 5 0 0 1 9.816-1.91l65.331 335.868a5 5 0 0 1-4.914 5.956Zm60.97-14.159a5 5 0 0 1-1.13-9.871l130.064-30.27a4.995 4.995 0 0 1 6.004 3.736 5 5 0 0 1-3.736 6.004l-130.064 30.27a5.008 5.008 0 0 1-1.138.131Z" style="fill:#3c191e"/></g><g><path d="m375.885 1074.281-35.976-133.139-137.586 31.423s-17.193 80.396 0 136.69c17.193 56.293 68.639 53.992 114.445 33.876s59.118-68.851 59.118-68.851Z" style="fill:#f69578"/><path d="m329.086 1278.499-27.715-30.138-34.573-173.036-64.475-102.759-15.01 52.699a119.011 119.011 0 0 0 1.405 69.784l58.643 172.379a50.577 50.577 0 0 0 10.82 18.436l28.71 31.221c10.684 11.619 28.791 12.4 40.443 1.745 11.652-10.654 12.436-28.711 1.752-40.329v-.002Z" style="fill:#f69578"/><path d="M378.566 1330.603a28.392 28.392 0 0 1-8.368 13.907c-6.789 6.203-15.786 8.533-24.226 7.084a28.483 28.483 0 0 1-16.22-8.839l-16.367-17.798-31.341-34.074a63.434 63.434 0 0 1-14.324-25.635l-48.205-170.396 70.373-29.061 32.53 184.528 49.532 53.856c6.799 7.39 8.947 17.39 6.616 26.428Z" style="fill:#f69578"/><path d="M422.273 1342.873a28.392 28.392 0 0 1-8.368 13.907c-5.591 5.104-12.663 7.576-19.681 7.491a28.52 28.52 0 0 1-20.765-9.246l-15.506-16.863-31.459-34.214a67.666 67.666 0 0 1-15.36-27.472l-47.912-169.354 70.373-29.061 32.53 184.528 49.532 53.856c6.799 7.39 8.947 17.39 6.616 26.428Z" style="fill:#f69578"/><path d="m453.604 1307.95-45.188-49.139-32.531-184.53-70.373 29.063 47.493 167.893a74.267 74.267 0 0 0 16.804 30.059l41.6 45.238c10.684 11.619 28.791 12.4 40.443 1.745 11.652-10.654 12.436-28.711 1.752-40.329h-.001Zm-6.797-124.726-70.922-108.943-58.378-142.935 37.747 16.507a109.546 109.546 0 0 1 51.514 46.493l96.562 154.759c8.824 15.627 3.498 35.422-11.986 44.546-15.25 8.987-34.893 4.388-44.538-10.427h.001Z" style="fill:#f69578"/><path d="M310.033 1331.337a4.984 4.984 0 0 1-3.582-1.511l-34.482-35.4-.104-.11a68.728 68.728 0 0 1-15.413-27.649l-29.434-102.319a5 5 0 0 1 3.423-6.187 5 5 0 0 1 6.187 3.423l29.441 102.344a58.695 58.695 0 0 0 13.117 23.576l34.429 35.345a5 5 0 0 1-3.582 8.489Zm50.892 22.613a4.985 4.985 0 0 1-3.692-1.628l-41.059-44.943a73.279 73.279 0 0 1-16.435-29.485l-32.77-116.161a5.001 5.001 0 0 1 9.625-2.715l32.77 116.161a63.225 63.225 0 0 0 14.186 25.448l41.065 44.951a5 5 0 0 1-3.69 8.372Zm52.98 4.83a4.986 4.986 0 0 1-3.59-1.52l-50.84-52.426-.096-.101a79.742 79.742 0 0 1-17.884-32.082l-33.036-117.106a5.001 5.001 0 0 1 3.455-6.17c2.651-.755 5.42.797 6.17 3.455l33.036 117.106a69.692 69.692 0 0 0 15.583 27.987l50.791 52.375a5 5 0 0 1-3.589 8.48ZM275.852 950.626a5.004 5.004 0 0 1-4.599-3.022 4.993 4.993 0 0 1 2.597-6.561c1.018-.442 25.425-10.753 66.766-4.851a5 5 0 1 1-1.414 9.9c-38.309-5.474-61.159 4.033-61.386 4.13a5.004 5.004 0 0 1-1.964.403Z" style="fill:#3c191e"/></g></svg></g><g transform="translate(279.0 2212.0) rotate(0.0 559.5 11.0) scale(1.1254997611204707 1.1)"><svg width="994.225" height="20" viewBox="0 0 994.225 20"><path d="M984.225 20H10C4.477 20 0 15.523 0 10S4.477 0 10 0h974.225c5.523 0 10 4.477 10 10s-4.477 10-10 10Z" style="fill:#fae2ce"/></svg></g><g transform="translate(1156.0 567.0) rotate(0.0 163.0 259.5) scale(0.9975062344139651 0.9990183057111509)"><svg width="326.815" height="519.51" viewBox="0 0 326.815 519.51"><path d="M36.721 425.779a5.001 5.001 0 0 1-4.918-4.131C7.889 286.267-2.625 180.823.552 108.245 2.767 57.641 11.497 24.107 26.5 8.575 35.661-.909 43.971-.049 44.887.081L43.49 9.983s.058.012.171.02c-.204-.011-4.83-.239-10.746 6.356-8.975 10.004-20.161 34.622-22.486 95.086-2.759 71.771 7.745 175.554 31.222 308.463a5 5 0 0 1-4.929 5.87zm168.809-24.355a4.97 4.97 0 0 1-2.684-.785l-16.209-10.338c-15.188-9.687-23.728-26.85-22.287-44.793 2.636-32.806 7.686-91.342 11.899-114.784 4.899-27.257 20.708-44.178 44.517-47.648 23.778-3.461 43.938 8.193 56.768 32.826 11.05 21.217 33.412 75.756 45.757 106.377 6.757 16.757 3.722 35.625-7.921 49.242l-12.406 14.508a5 5 0 0 1-7.601-6.499l12.406-14.508c9.211-10.771 11.605-25.717 6.248-39.003-12.278-30.453-34.497-84.654-45.352-105.497-7.579-14.552-21.794-31.147-46.456-27.55-24.625 3.588-33.232 23.473-36.116 39.521-4.138 23.024-9.153 81.192-11.774 113.816-1.144 14.244 5.637 27.87 17.696 35.561l16.209 10.338a5 5 0 0 1-2.694 9.216z" fill="#fff"/><ellipse cx="205.535" cy="396.424" fill="#3c191e" rx="11.535" ry="11.662" transform="matrix(.87391648 -.48607611 .48607611 .87391648 -166.776 149.886)"/><ellipse cx="299.165" cy="382.78" fill="#3c191e" rx="11.535" ry="11.662" transform="matrix(.87391648 -.48607611 .48607611 .87391648 -148.339 193.677)"/><g fill="#fff"><path d="M221.482 193.025a5.001 5.001 0 0 1-4.941-4.277c-.055-.373-5.495-37.535-9.715-63.458-2.915-17.9-16.059-48.879-36.155-61.706a5 5 0 0 1 5.38-8.43c23.973 15.301 37.653 50.154 40.645 68.529 4.233 26.003 9.685 63.245 9.74 63.618a5 5 0 0 1-4.954 5.724z"/><path d="M181.176 236.61a5.001 5.001 0 0 1-4.927-5.886c4.899-27.257 20.708-44.178 44.517-47.648 23.78-3.463 43.938 8.193 56.767 32.826a5 5 0 0 1-8.869 4.619c-7.579-14.552-21.794-31.148-46.456-27.55-24.625 3.588-33.233 23.473-36.117 39.521a5.003 5.003 0 0 1-4.916 4.117z"/><circle cx="53.778" cy="466.098" r="48.412"/><path d="M53.778 519.51c-29.452 0-53.412-23.96-53.412-53.412s23.96-53.412 53.412-53.412 53.412 23.96 53.412 53.412-23.96 53.412-53.412 53.412zm0-96.824c-23.938 0-43.412 19.475-43.412 43.412s19.475 43.412 43.412 43.412 43.412-19.475 43.412-43.412-19.475-43.412-43.412-43.412z"/></g><circle cx="48.542" cy="464.338" fill="#3c191e" r="32.214"/></svg></g><g transform="translate(1972.0 231.0) rotate(0.0 109.0 209.5) scale(0.9965532058842353 0.9978922800290556)"><svg width="218.754" height="419.885" viewBox="0 0 218.754 419.885"><path d="M19.703 230.023 52.542 67.338c9.171-45.436 53.438-74.834 98.874-65.662 45.435 9.171 74.833 53.439 65.662 98.874l-32.839 162.685z" fill="#e51b26"/><path d="m191.644 226.548-25.432 125.999c-9.171 45.435-53.439 74.833-98.874 65.662-45.436-9.171-74.834-53.438-65.662-98.874l25.432-125.999 164.537 33.212z" fill="#fff"/></svg></g></svg>