<svg xmlns="http://www.w3.org/2000/svg" viewBox="0 0 3000 3000" width="3000" height="3000"><g transform="translate(1261.2 442.8) rotate(0.0 588.6 736.1999999999999) scale(1.164921725018307 1.165640674874601)"><svg width="1010.54" height="1263.168" viewBox="0 0 1010.54 1263.168"><g stroke-linecap="round" stroke-linejoin="round" stroke-miterlimit="10" stroke-width="2"><g stroke="#000"><path d="m561.419 920.534-24.007 13.922 26.831 243.823a14.295 14.295 0 0 1-7.121 13.977l-85.666 48.906v21.002c.288.019 2.504.071 5.65-1.899 4.567-2.859 10.894-6.64 11.18-6.823.01-.01.02-.01.02-.01l91.931-53.229a21.302 21.302 0 0 0 10.493-20.832z"/><path d="M537.411 934.456 354.328 829.521l-.02-.19 24.028-13.725 183.083 104.928z" fill="#fff"/><path d="M471.903 1262.153a8.987 8.987 0 0 1-4.903-1.158l-165.38-94.04c-4.38-2.3-5.85-5.64-5.99-9.16-.1-2.63-.1-19.6-.1-19.6l.01-.01c.11 2.97 2.3 5.78 6.08 7.77l165.38 94.04a8.986 8.986 0 0 0 4.462 1.17z" fill="#adc4cb"/><path d="m537.411 934.454-183.085-104.93 26.653 235.459a27.965 27.965 0 0 1-13.956 27.451l-64.16 36.515c-10.056 5.24-9.097 12.875-1.242 17.005l165.378 94.039a8.959 8.959 0 0 0 8.911-.032l81.832-48.105c5.439-3.18 7.355-9.103 6.592-15.357z" fill="#fff"/><path d="M1003.926 547.597a38.22 38.22 0 0 1 5.613 20.038l-1.559 651.445c-.007 3.328-1.423 6.161-3.592 8.12-3.084 2.799-43.636 25.044-49.953 28.501 3.091-1.884 5.28-5.253 5.287-9.387l1.559-651.445a38.232 38.232 0 0 0-5.11-19.2z"/><path d="M956.172 575.668a38.205 38.205 0 0 0-14.051-14.045L18.85 29.84c-3.531-2.033-7.449-2.027-10.709-.596 0 0 43.839-24.99 47.601-26.922 3.382-1.735 7.591-1.884 11.36.285l923.277 531.789a38.238 38.238 0 0 1 13.548 13.201z" fill="#fff"/><path d="M959.726 1246.312c-.02 8.478-9.206 13.759-16.543 9.511L24.816 724.022a43.139 43.139 0 0 1-21.588-37.221L1 40.196c-.032-9.179 9.896-14.94 17.85-10.359l923.272 531.786a38.26 38.26 0 0 1 19.163 33.243z" fill="#adc4cb"/></g><path d="m991.93 827.65-10.992 6.231-.491-107.425 11.483-7.024zm1.448 23.995v57.818a3.125 3.125 0 0 1-1.585 2.72l-4.773 2.706c-2.077 1.177-4.653-.313-4.669-2.7l-.446-57.332a3.125 3.125 0 0 1 1.495-2.687l5.219-3.192c2.084-1.274 4.759.225 4.759 2.667z" stroke="#fff"/></g></svg></g><g transform="translate(1273.2 501.59999999999997) rotate(0.0 545.4 684.0) scale(1.1993429342340498 1.1992856886117829)"><svg width="909.498" height="1140.679" viewBox="0 0 909.498 1140.679"><path d="M908.095 1129.774c-.018 7.627-8.282 12.378-14.882 8.556L21.425 631.928a38.806 38.806 0 0 1-19.42-33.484l-.004-586.68c-.029-8.257 8.901-13.44 16.056-9.318l872.201 506.389a34.417 34.417 0 0 1 17.239 29.905l.598 591.035z" fill="#fff"/><path d="M898.181 1140.682c-1.879 0-3.757-.496-5.469-1.487L20.922 632.793c-12.236-7.057-19.869-20.217-19.917-34.345L1.001 11.765C.986 7.529 3.167 3.727 6.834 1.599s8.051-2.135 11.724-.019l872.205 506.39c10.97 6.318 17.767 18.11 17.736 30.772l.598 591.032v.003c-.009 3.943-2.056 7.47-5.474 9.436a10.898 10.898 0 0 1-5.44 1.47zM12.712 2c-1.675 0-3.35.443-4.875 1.328-3.041 1.765-4.849 4.917-4.836 8.432l.004 586.684c.046 13.415 7.295 25.915 18.919 32.618l871.792 506.403c2.785 1.614 6.117 1.619 8.909.013 2.792-1.605 4.463-4.485 4.471-7.706l-.598-591.033c.029-11.95-6.384-23.076-16.737-29.039L17.555 3.31A9.68 9.68 0 0 0 12.711 2z"/><path d="M235.319 706.657c-.806 0-1.64-.233-2.419-.696L38.46 592.062a4.988 4.988 0 0 1-2.429-4.241l-.586-514.295c-.008-1.59.809-3.023 2.184-3.829s3.024-.817 4.411-.031l192.534 109.188a13.293 13.293 0 0 1 6.727 11.601l-2 511.881c-.006 1.668-.777 3.098-2.062 3.825a3.873 3.873 0 0 1-1.919.497zM39.861 71.087c-.42 0-.84.112-1.221.335a2.39 2.39 0 0 0-1.195 2.097l.586 514.295a2.974 2.974 0 0 0 1.446 2.525l194.438 113.897.006.003c.821.489 1.671.554 2.333.18.662-.375 1.043-1.137 1.047-2.093l2-511.881a11.29 11.29 0 0 0-5.713-9.853L41.053 71.405a2.418 2.418 0 0 0-1.192-.318z"/><path d="M136.693 648.536h-.002a1 1 0 0 1-.998-1.002l1.106-522.415a1 1 0 0 1 1-.998h.002a1 1 0 0 1 .998 1.002l-1.106 522.414a1 1 0 0 1-1 .998z"/><path d="M239.53 319.591a.993.993 0 0 1-.493-.131L36.098 204.051a1 1 0 0 1 .988-1.739l202.939 115.409a1 1 0 0 1-.495 1.869zm-.234 128.868a.986.986 0 0 1-.497-.133L36.24 332.096a1 1 0 1 1 .995-1.735l202.559 116.23a1 1 0 0 1-.498 1.867zm-.507 129.623a.987.987 0 0 1-.5-.135L36.384 460.88a1 1 0 1 1 1.003-1.731l201.905 117.067a1 1 0 0 1-.502 1.866zM114.635 282.477a.994.994 0 0 1-.496-.132l-48.352-27.672a.999.999 0 1 1 .993-1.735l48.352 27.672a.999.999 0 0 1-.498 1.867z"/><path d="M91.159 333.185a1 1 0 0 1-1-1v-63.824a1 1 0 0 1 2 0v63.824a1 1 0 0 1-1 1zm106.042 56.749a1.01 1.01 0 0 1-.474-.119l-31.3-16.824a1 1 0 0 1-.526-.881v-44.863a1 1 0 0 1 1.499-.866l31.3 18a1 1 0 0 1 .501.867v43.687a.999.999 0 0 1-1 1zm-30.3-18.421 29.3 15.749v-41.436l-29.3-16.85z"/><path d="M212.851 374.937a1.01 1.01 0 0 1-.474-.119l-31.3-16.824a1 1 0 0 1-.526-.881V312.25a1 1 0 0 1 1.499-.866l31.3 18a1 1 0 0 1 .501.867v43.687a.999.999 0 0 1-1 1zm-30.3-18.421 29.3 15.749v-41.436l-29.3-16.85z"/><path d="m181.551 357.113 15.65 8.412v-20.278l-15.65-9z" fill="#adc4cb"/><path d="M197.201 366.525a1.01 1.01 0 0 1-.474-.119l-15.65-8.412a1 1 0 0 1-.526-.881v-20.866a1 1 0 0 1 1.499-.866l15.65 9a1 1 0 0 1 .501.867v20.278a.999.999 0 0 1-1 1zm-14.65-10.01 13.65 7.337v-18.026l-13.65-7.85v18.54zM79.824 204.798c-.023 0-.047 0-.071-.002a1 1 0 0 1-.923-.887l-9.152-82.002a1 1 0 0 1 1.834-.653l43.852 67.997a1 1 0 0 1-1.35 1.402l-25.84-15.3-7.383 28.694a1 1 0 0 1-.968.751zm-7.687-78.884 8.075 72.357 6.357-24.706a.999.999 0 0 1 1.478-.612l23.339 13.819-39.249-60.859z"/><path d="m214.868 219.875-12.919 9.033-15.585-25.722 12.614-10.834z" fill="#adc4cb"/><path d="M201.949 229.909a1.002 1.002 0 0 1-.856-.481l-15.585-25.722a1 1 0 0 1 .204-1.277l12.614-10.835a1 1 0 0 1 1.517.259l15.89 27.523a1.001 1.001 0 0 1-.293 1.32l-12.918 9.034a.996.996 0 0 1-.573.181zm-14.291-26.516 14.593 24.084 11.292-7.896-14.829-25.685z"/><path d="M197.715 251.091H168.11a1 1 0 0 1-.867-.501l-7.144-12.422a.998.998 0 0 1-.094-.776l10.669-36.896c.14-.486.627-.792 1.122-.709l14.729 2.414a1 1 0 0 1 .694.469l15.585 25.723c.129.214.174.469.125.714l-4.235 21.183a1 1 0 0 1-.98.804zm-29.026-2h28.207l3.998-19.997-15.146-24.996-13.398-2.196-10.305 35.636z"/><path d="M164.78 245.07a.999.999 0 0 1-.615-1.788l16.426-12.803a.999.999 0 1 1 1.229 1.577l-16.426 12.803a.992.992 0 0 1-.614.211zm50.46 291.984a.994.994 0 0 1-.498-.133l-54.005-31a.998.998 0 0 1-.502-.867v-62.265a.998.998 0 0 1 1.498-.867l54.005 31a.998.998 0 0 1 .502.867v62.265a.998.998 0 0 1-1 1zm-53.005-32.579 52.005 29.852v-59.959l-52.005-29.852z"/><path d="m215.24 497.294-19.043-10.931v-23.505l19.043 10.931z"/><path d="M215.24 498.294a.994.994 0 0 1-.498-.133l-19.043-10.931a.998.998 0 0 1-.502-.867v-23.505a.998.998 0 0 1 1.498-.867l19.043 10.931a.998.998 0 0 1 .502.867v23.505a.998.998 0 0 1-1 1zm-18.043-12.51 17.043 9.783v-21.199l-17.043-9.783zM158.11 445.78a.986.986 0 0 1-.497-.133l-9.99-5.735a1 1 0 1 1 .996-1.734l9.99 5.735a1 1 0 0 1-.499 1.867zm5.889-5.325a1 1 0 0 1-1-1v-15.297a1 1 0 0 1 2 0v15.297a1 1 0 0 1-1 1zm-5.342 190.906a1 1 0 0 1-.579-1.816l55.658-39.424a1 1 0 1 1 1.156 1.632l-55.658 39.424a.99.99 0 0 1-.577.184zm-47.884-159.624c-.363 0-.713-.198-.891-.543l-15.009-29.222a1 1 0 0 1 1.78-.914l15.009 29.222a1 1 0 0 1-.889 1.457z"/><ellipse cx="85.845" cy="418.838" fill="#adc4cb" rx="13.174" ry="24.83" transform="matrix(.93511047 -.35435632 .35435632 .93511047 -142.846 57.597)"/><path d="M91.991 443.535c-6.906 0-14.936-7.892-19.4-19.674-5.132-13.545-3.331-26.361 4.101-29.177 3.654-1.383 8.022-.076 12.302 3.684 4.109 3.61 7.697 9.096 10.104 15.448 5.132 13.544 3.331 26.36-4.101 29.177a8.442 8.442 0 0 1-3.007.543zm-12.315-47.388a6.36 6.36 0 0 0-2.275.407c-6.17 2.338-7.517 14.519-2.94 26.598s13.66 20.307 19.828 17.97c6.17-2.338 7.516-14.52 2.939-26.598-2.293-6.052-5.687-11.256-9.555-14.654-2.79-2.451-5.552-3.723-7.998-3.723zM68.645 552.111c-2.279 0-4.797-2.608-6.167-6.57-.693-2.005-.959-4.04-.75-5.729.24-1.94 1.085-3.255 2.379-3.702 1.294-.448 2.77.065 4.157 1.443 1.208 1.2 2.255 2.965 2.948 4.97 1.561 4.517.86 8.571-1.629 9.432-.306.105-.62.156-.938.156zm-3.602-14.156a.866.866 0 0 0-.283.045c-.519.179-.91.948-1.047 2.057-.17 1.373.069 3.133.656 4.831 1.291 3.737 3.531 5.535 4.561 5.176 1.034-.357 1.683-3.151.392-6.888-.586-1.697-1.486-3.23-2.467-4.205-.659-.655-1.312-1.017-1.811-1.017zm27.484 27.998c-1.043 0-2.155-.547-3.215-1.6-1.208-1.2-2.255-2.965-2.948-4.97-1.561-4.517-.861-8.571 1.628-9.432 2.492-.859 5.544 1.897 7.105 6.414.693 2.005.959 4.04.75 5.729-.24 1.94-1.085 3.255-2.379 3.702a2.882 2.882 0 0 1-.942.157zm-3.599-14.157a.85.85 0 0 0-.282.045c-1.034.357-1.683 3.151-.391 6.888.586 1.697 1.485 3.23 2.467 4.205.793.788 1.575 1.151 2.094.971.519-.179.91-.948 1.047-2.057.17-1.373-.069-3.133-.656-4.831-1.184-3.426-3.162-5.221-4.279-5.221zm27.079 28.136c-2.279 0-4.797-2.608-6.167-6.57-.693-2.005-.959-4.04-.75-5.729.24-1.94 1.085-3.255 2.379-3.702 2.49-.859 5.544 1.897 7.105 6.413 1.561 4.517.86 8.571-1.629 9.432-.306.105-.62.156-.938.156zm-3.603-14.156a.85.85 0 0 0-.282.045c-.519.179-.91.948-1.047 2.057-.17 1.373.069 3.133.656 4.831 1.292 3.737 3.532 5.535 4.561 5.176 1.034-.357 1.683-3.151.392-6.888-1.184-3.426-3.161-5.221-4.279-5.221z"/><path d="M635.586 743.748c-70.756 14.567-117.926-11.099-117.926-11.099l-.628-222.764s6.125-37.869 55.738-41.884c53.975-4.368 99.283 12.907 99.283 67.059l24.816 62.113c19.926 49.874 5.994 132.724-61.283 146.575z" fill="#87c159"/><path d="M592.671 749.182c-46.042 0-75.119-15.452-75.489-15.653a1 1 0 0 1-.522-.875l-.628-222.764c0-.055.004-.109.013-.163.063-.386 6.826-38.689 56.645-42.721 36.072-2.922 64.207 3.896 81.354 19.712 12.574 11.598 18.97 27.798 19.01 48.15l24.745 61.935c13.032 32.618 10.855 74.842-5.417 105.071-12.358 22.958-31.928 37.777-56.593 42.855l-.202-.979.202.979c-15.563 3.204-30.027 4.454-43.117 4.454zm-74.013-17.142c5.342 2.686 51.1 24.24 116.727 10.729 24.066-4.955 43.167-19.424 55.235-41.844 16.007-29.736 18.146-71.282 5.321-103.38l-24.816-62.113a1.003 1.003 0 0 1-.071-.371c0-19.862-6.179-35.633-18.366-46.873-16.726-15.426-44.332-22.061-79.837-19.189-47.174 3.818-54.47 39.116-54.818 40.974l.626 222.067z"/><path d="m437.037 683.594 96.14 44.309 66.675-212.553s5.383-37.981-40.806-56.532c-50.251-20.181-98.644-17.123-114.706 34.592l-42.123 51.957c-33.823 41.719-31.175 119.181 34.82 138.226z" fill="#87c159"/><path d="M533.177 728.904a.997.997 0 0 1-.418-.092l-96.072-44.278c-26.243-7.596-44.999-25.488-52.819-50.389-9.17-29.201-2.108-65.13 17.573-89.407l42.002-51.808c6.075-19.424 16.988-32.999 32.436-40.345 21.067-10.017 49.955-8.183 83.54 5.306 46.38 18.627 41.479 57.212 41.424 57.6-.008.054-.02.107-.036.159l-66.674 212.553a1.002 1.002 0 0 1-.954.701zM506.67 448.216c-11.211 0-21.263 2.053-29.933 6.176-14.972 7.12-25.551 20.348-31.442 39.316a.992.992 0 0 1-.178.333l-42.123 51.957c-19.277 23.777-26.196 58.96-17.218 87.548 5.391 17.164 18.708 39.614 51.539 49.087a.996.996 0 0 1 .141.053l95.108 43.834 66.307-211.382c.219-1.878 3.721-37.752-40.198-55.391-19.107-7.673-36.642-11.531-52.003-11.531z"/><path d="M755.033 1008.609v-89.382c0-67.831-38.761-124.833-102.987-162.032L528.78 696.302s-87.509-22.041-140.397 13.738c-15.702 10.623-40.158 26.617-45.153 58.812-.59 3.806 411.802 239.756 411.802 239.756z" fill="#fff"/><path d="M755.033 1009.609c-.171 0-.343-.044-.497-.132-1.031-.59-104.278-59.668-206.126-118.453-59.819-34.526-107.457-62.196-141.591-82.242-20.27-11.904-35.943-21.217-46.583-27.68-18.203-11.058-18.137-11.479-17.994-12.403 4.971-32.041 28.889-48.206 44.716-58.903l.865-.584c27.543-18.633 64.484-21.407 90.628-20.458 28.267 1.03 50.354 6.522 50.573 6.578.069.017.135.042.199.073l123.266 60.893c66.792 38.684 103.543 96.535 103.543 162.929v89.381a1.001 1.001 0 0 1-1 1zM344.288 768.571c9.89 8.712 270.622 158.708 409.745 238.313v-87.657c0-65.651-36.397-122.888-102.488-161.167l-123.109-60.813c-3.433-.836-88.385-20.951-139.491 13.622l-.866.585c-15.467 10.453-38.804 26.224-43.791 57.117z"/><path d="m601.462 759.988 2.925-86.215-129.862 47.967v51.156c0 10.537 4.684 20.581 12.915 27.159 15.565 12.439 43.975 27.473 78.441 10.815 28.334-13.695 35.052-35.295 35.581-50.882z" fill="#fff"/><path d="M535.265 819.192c-21.401 0-38.52-10.42-48.45-18.355-8.446-6.75-13.291-16.933-13.291-27.94v-51.156c0-.418.261-.793.653-.938l129.862-47.967a1.001 1.001 0 0 1 1.346.971l-2.925 86.215c-.54 15.899-7.248 37.782-36.146 51.749-11.034 5.333-21.472 7.421-31.051 7.421zm-59.74-96.754v50.459c0 10.396 4.57 20.01 12.539 26.377 17.108 13.672 44.42 26.626 77.382 10.696 27.998-13.532 34.496-34.667 35.017-50.015l1 .034-1-.034 2.875-84.728-127.812 47.21z"/><path d="m407.922 513.358-2.819 126.233c-.865 38.754 20.343 74.639 54.71 92.569 55.961 29.197 126.306 5.916 148.527-53.163 0 0 14.97-54.866 20.363-68.2 8.017-19.821.908-189.474-151.393-170.189-42.09 5.33-69.388 72.751-69.388 72.751z" fill="#fff"/><path d="M510.95 745.737c-17.718 0-35.444-4.262-51.599-12.69a102.764 102.764 0 0 1-40.966-38.854 102.765 102.765 0 0 1-14.282-54.625l2.819-126.233a.973.973 0 0 1 .073-.353c1.124-2.775 28.003-68.025 70.189-73.367 52.444-6.639 92.986 8.108 120.497 43.836 37.185 48.289 36.474 116.532 31.949 127.72-5.31 13.127-20.176 67.541-20.325 68.088-10.381 27.612-31.436 48.638-59.314 59.294a109.317 109.317 0 0 1-39.041 7.184zm-102.033-232.17-2.815 126.046c-.863 38.654 19.895 73.776 54.173 91.66 27.72 14.463 60.159 16.436 89.001 5.413 27.336-10.448 47.979-31.061 58.127-58.041.583-2.154 15.018-54.986 20.372-68.223 2.195-5.427 3.508-25.023-.644-49.851-3.469-20.744-11.67-50.751-31.035-75.899-27.048-35.126-66.97-49.618-118.662-43.072-40.013 5.066-66.965 68.242-68.518 71.967z"/><path d="M672.053 529.038c.042-50.136-39.537-98.857-107.437-112.701-3.641-.831-7.408-1.6-11.396-2.26-26.495-4.379-86.261-2.084-117.343 27.583-32.777 31.285-28.528 97.378-28.528 97.378s13.673 2.208 37.746-15.43c30.602-22.421 43.837-50.666 43.837-50.666s2.804 33.841 25.743 61.653c28.496 34.55 79.19 57.075 79.19 57.075l.889 51.347 9.616 33.145-.088 12.622" fill="#87c159"/><path d="M604.282 689.783h-.007a1 1 0 0 1-.993-1.007l.087-12.476-9.576-33.005a1.052 1.052 0 0 1-.04-.262l-.878-50.716c-5.746-2.648-52.3-24.747-78.973-57.086-18.77-22.758-24.202-49.825-25.563-58.992-4.279 7.805-17.876 30.021-42.655 48.176-24.134 17.683-37.92 15.703-38.496 15.611a1.001 1.001 0 0 1-.839-.923c-.042-.666-3.9-66.919 28.836-98.165 31.972-30.516 93.438-31.938 118.197-27.846a191.87 191.87 0 0 1 11.455 2.271c32.539 6.635 60.112 21.521 79.714 43.043 18.401 20.204 28.522 45.289 28.501 70.635a1 1 0 1 1-1.999-.002c.045-52.968-43.806-98.91-106.637-111.721a188.308 188.308 0 0 0-11.359-2.252c-24.438-4.041-85.064-2.676-116.49 27.319-30.042 28.675-28.598 87.856-28.263 95.725 3.206.109 16.037-.534 36.2-15.307 30.048-22.015 43.391-50.003 43.522-50.284a1 1 0 0 1 1.903.341c.028.335 3.056 33.865 25.518 61.1 28.021 33.976 78.32 56.573 78.825 56.797.355.158.587.508.594.897l.887 51.214 9.579 33.017c.027.093.04.189.04.286l-.088 12.622a1 1 0 0 1-1 .993z"/><path d="M474.525 652.245a18.288 18.288 0 0 1-10.022 2.971c-10.147 0-18.372-8.226-18.372-18.372s8.226-18.372 18.372-18.372" fill="#fff"/><path d="M464.503 656.217c-10.682 0-19.373-8.69-19.373-19.372s8.69-19.373 19.373-19.373a1 1 0 0 1 0 2c-9.579 0-17.373 7.793-17.373 17.373s7.793 17.372 17.373 17.372c3.381 0 6.657-.971 9.475-2.809a1 1 0 0 1 1.092 1.676 19.297 19.297 0 0 1-10.568 3.133z"/><path d="M443.382 676.731s18.114 23.668 48.131 13.86" fill="#fff"/><path d="M477.252 693.95c-21.651 0-34.511-16.411-34.664-16.611a1 1 0 0 1 1.587-1.216c.178.231 18.06 22.986 47.026 13.518a1 1 0 1 1 .621 1.901c-5.211 1.703-10.081 2.409-14.571 2.409z"/><ellipse cx="441.004" cy="596.953" rx="5.127" ry="13.843"/><path d="M441.004 611.796c-3.979 0-6.127-7.647-6.127-14.843s2.147-14.843 6.127-14.843 6.126 7.647 6.126 14.843-2.147 14.843-6.126 14.843zm0-27.687c-1.723 0-4.127 4.886-4.127 12.843s2.404 12.843 4.127 12.843 4.126-4.886 4.126-12.843-2.403-12.843-4.126-12.843z"/><ellipse cx="507.975" cy="624.639" rx="5.127" ry="13.843"/><path d="M507.974 639.482c-3.979 0-6.126-7.647-6.126-14.843s2.147-14.843 6.126-14.843 6.127 7.647 6.127 14.843-2.147 14.843-6.127 14.843zm0-27.686c-1.723 0-4.126 4.886-4.126 12.843s2.403 12.843 4.126 12.843 4.127-4.886 4.127-12.843-2.404-12.843-4.127-12.843z"/><path d="M425.33 567.556s19.867-11.204 37.698 11.633" fill="#fff"/><path d="M463.029 580.189a1 1 0 0 1-.789-.385c-17.066-21.855-35.638-11.815-36.42-11.376a1 1 0 0 1-.981-1.743c.206-.116 20.826-11.359 38.978 11.889a.999.999 0 0 1-.788 1.615z"/><path d="M499.734 592.51s19.867-11.204 37.698 11.633" fill="#fff"/><path d="M537.433 605.143a1 1 0 0 1-.789-.385c-17.066-21.855-35.638-11.815-36.42-11.376a1 1 0 0 1-.981-1.743c.206-.116 20.825-11.359 38.978 11.889a.999.999 0 0 1-.788 1.615z"/><path d="M593.865 648.436c2.961-25.304 18.707-33.526 32.793-30.098 14.087 3.428 22.1 20.202 17.899 37.464-4.201 17.263-28.966 36-43.053 32.571" fill="#fff"/><path d="M605.102 689.78c-1.353 0-2.636-.143-3.834-.435a1 1 0 1 1 .473-1.943c6.23 1.515 15.579-1.683 24.394-8.353 9.007-6.814 15.531-15.593 17.451-23.483 4.064-16.7-3.636-32.964-17.164-36.256-6.646-1.618-13.249-.461-18.593 3.257-7.072 4.919-11.557 13.905-12.971 25.985a1 1 0 0 1-1.986-.232c1.873-16.001 8.546-23.729 13.815-27.395 5.822-4.049 12.999-5.313 20.208-3.559 14.6 3.553 22.959 20.901 18.634 38.672-2.026 8.324-8.825 17.522-18.188 24.606-7.787 5.891-15.796 9.135-22.239 9.135z"/></svg></g><g transform="translate(996.0 850.8) rotate(0.0 114.60000000000002 273.6) scale(1.1976047904191618 1.2019690150312026)"><svg width="191.382" height="455.253" viewBox="0 0 191.382 455.253"><path d="M90.266 165.923c-49.295 0-89.257 23.131-89.257 51.665v185c0 28.534 39.962 51.665 89.257 51.665s89.257-23.131 89.257-51.665v-185c0-28.534-39.962-51.665-89.257-51.665z" fill="#fff"/><path d="M90.266 455.253c-49.768 0-90.257-23.626-90.257-52.665v-185c0-29.04 40.489-52.665 90.257-52.665s90.257 23.625 90.257 52.665v185c0 29.04-40.489 52.665-90.257 52.665zm0-288.33c-48.665 0-88.257 22.728-88.257 50.665v185c0 27.937 39.592 50.665 88.257 50.665s88.257-22.728 88.257-50.665v-185c0-27.937-39.592-50.665-88.257-50.665z"/><ellipse cx="90.266" cy="217.588" fill="#adc4cb" rx="89.257" ry="51.665"/><path d="M90.266 270.253c-49.768 0-90.257-23.626-90.257-52.665s40.489-52.665 90.257-52.665 90.257 23.625 90.257 52.665-40.489 52.665-90.257 52.665zm0-103.33c-48.665 0-88.257 22.728-88.257 50.665s39.592 50.665 88.257 50.665 88.257-22.728 88.257-50.665-39.592-50.665-88.257-50.665z"/><path d="M90.266 165.923c-49.295 0-89.257 23.131-89.257 51.665s39.962 51.665 89.257 51.665 89.257-23.131 89.257-51.665-39.962-51.665-89.257-51.665zm-.548 98.019c-45.812 0-82.95-20.753-82.95-46.353s37.138-46.353 82.95-46.353 82.95 20.753 82.95 46.353-37.138 46.353-82.95 46.353z" fill="#fff"/><path d="M90.266 270.253c-49.768 0-90.257-23.626-90.257-52.665s40.489-52.665 90.257-52.665 90.257 23.625 90.257 52.665-40.489 52.665-90.257 52.665zm0-103.33c-48.665 0-88.257 22.728-88.257 50.665s39.592 50.665 88.257 50.665 88.257-22.728 88.257-50.665-39.592-50.665-88.257-50.665zm-.548 98.019c-46.29 0-83.95-21.242-83.95-47.353s37.66-47.353 83.95-47.353 83.95 21.242 83.95 47.353-37.66 47.353-83.95 47.353zm0-92.705c-45.187 0-81.95 20.345-81.95 45.353s36.763 45.353 81.95 45.353 81.95-20.345 81.95-45.353-36.762-45.353-81.95-45.353z"/><path d="m75.921 264.521-25.134-3.016L7.736 17.064c-1.161-6.589 3.24-12.872 9.83-14.033 6.589-1.161 12.872 3.24 14.033 9.83L75.921 264.52z" fill="#fff"/><path d="M75.92 265.521a.95.95 0 0 1-.119-.007l-25.134-3.016a1 1 0 0 1-.866-.819L6.751 17.237c-1.254-7.122 3.52-13.936 10.641-15.191 7.125-1.253 13.937 3.52 15.191 10.641l44.322 251.659a.999.999 0 0 1-.985 1.174zm-24.277-4.92 23.059 2.767L30.614 13.035C29.551 6.999 23.778 2.953 17.74 4.017 11.704 5.08 7.658 10.855 8.721 16.891L51.643 260.6z"/><path d="m38.769 53.578-.07.04a41.758 41.758 0 0 1-23.347 5.286l-.25-.017-1.26-7.152a41.752 41.752 0 0 0 23.346-5.285l.296-.167z" fill="#dbf301"/><path d="M18.214 60.001c-.975 0-1.952-.033-2.931-.1l-.25-.017a1 1 0 0 1-.917-.824l-1.26-7.152a.998.998 0 0 1 1.053-1.171 40.64 40.64 0 0 0 22.787-5.158l.296-.167c.283-.16.625-.172.918-.033s.501.411.558.73l1.285 7.295a1 1 0 0 1-.496 1.046l-.071.04a42.627 42.627 0 0 1-20.974 5.511zm-2.264-2.063a40.633 40.633 0 0 0 21.711-4.889l-.919-5.215A42.64 42.64 0 0 1 15.045 52.8zm117.074 202.703-24.231 4.893-.136-252.412c-.004-6.691 5.417-12.118 12.108-12.121 6.691-.004 12.118 5.417 12.121 12.108z"/><path d="M108.793 266.534a1.001 1.001 0 0 1-1-.999l-.136-252.412C107.653 5.891 113.533.004 120.764 0h.007c7.229 0 13.112 5.879 13.115 13.108l.138 247.532c0 .476-.335.886-.802.981l-24.231 4.893c-.066.013-.132.02-.198.02zM120.771 2h-.006c-6.129.003-11.112 4.992-11.109 11.121l.135 251.191 22.231-4.489-.137-246.714a11.04 11.04 0 0 0-3.26-7.858A11.042 11.042 0 0 0 120.77 2z"/><path d="m132.909 95.451-.076.027a41.757 41.757 0 0 1-23.91 1.169l-.243-.06-.004-48.262a41.758 41.758 0 0 0 23.908-1.168l.321-.113z" fill="#87c159"/><path d="M118.936 98.867c-3.433 0-6.872-.416-10.253-1.25l-.242-.06a1 1 0 0 1-.761-.971l-.004-48.262a.999.999 0 0 1 1.239-.971 40.643 40.643 0 0 0 23.336-1.14l.32-.113a1.002 1.002 0 0 1 1.334.942l.004 48.407a1 1 0 0 1-.668.943l-.076.027a42.688 42.688 0 0 1-14.228 2.446zM109.68 95.8a40.653 40.653 0 0 0 22.229-1.061l-.004-46.295a42.621 42.621 0 0 1-22.229 1.139l.004 46.218z"/><path d="m73.494 265.534-13.465-1.979L165.931 49.364c2.965-5.998 10.232-8.456 16.229-5.49 5.998 2.965 8.456 10.232 5.49 16.229L85.635 266.432l-12.142-.899z" fill="#fff"/><path d="M85.636 267.433c-.025 0-.049 0-.074-.003l-12.142-.899a.587.587 0 0 1-.072-.008l-13.465-1.979a1 1 0 0 1-.751-1.433l105.903-214.19c3.205-6.483 11.088-9.148 17.569-5.944 6.482 3.205 9.149 11.087 5.944 17.569L86.533 266.876a1 1 0 0 1-.896.557zm-12.032-2.894 11.434.847L186.755 59.66c2.716-5.494.457-12.174-5.037-14.89-5.494-2.717-12.173-.457-14.89 5.037L61.536 262.765l12.069 1.774z"/><path d="m122.848 134.953 42.004-84.954c3.139-6.348 10.829-8.949 17.177-5.811 6.348 3.139 8.949 10.829 5.811 17.177l-42.204 85.358s-7.33 1.07-13.949-2.672c-7.768-4.391-8.839-9.098-8.839-9.098z" fill="#fff"/><path d="M143.081 147.869c-2.837 0-7.485-.46-11.886-2.948-8.06-4.556-9.274-9.537-9.322-9.747a1 1 0 0 1 .079-.665l42.004-84.954c1.636-3.31 4.464-5.784 7.961-6.967s7.246-.933 10.555.703c3.31 1.636 5.784 4.463 6.967 7.961s.933 7.246-.703 10.555l-42.204 85.359a1 1 0 0 1-.752.546c-.112.016-1.128.157-2.7.157zm-19.156-12.837c.401 1.065 2.153 4.7 8.254 8.148 5.256 2.971 11.075 2.752 12.804 2.605l41.96-84.865c1.4-2.831 1.613-6.037.601-9.028s-3.128-5.409-5.959-6.809a11.742 11.742 0 0 0-9.028-.601 11.746 11.746 0 0 0-6.809 5.959l-41.824 84.591zm-1.076-.079h.01z"/><path d="M158.253 138.34a1 1 0 0 1-.868-1.495l30.611-53.644a10.446 10.446 0 0 0 1.01-7.988 10.454 10.454 0 0 0-4.935-6.363 1 1 0 1 1 .991-1.737c2.905 1.657 4.991 4.346 5.873 7.572s.455 6.602-1.203 9.507l-30.611 53.644a1 1 0 0 1-.87.504z"/><path d="m132.972 172.209.003 5.821c22.988 7.367 39.693 23.425 39.693 39.558 0 25.6-37.138 46.353-82.95 46.353s-82.95-20.753-82.95-46.352c0-22.795 30-35.682 30-35.682l-.966-5.484S.353 191.895 1.009 217.588c.728 28.524 39.962 51.665 89.257 51.665s89.257-23.131 89.257-51.665c0-18.968-19.805-37.982-46.551-45.379z" fill="#fff"/><path d="M90.266 270.253c-23.933 0-46.429-5.423-63.344-15.271C9.93 245.089.372 231.818.009 217.613c-.666-26.066 33.92-41.464 35.393-42.106a1 1 0 0 1 1.385.743l.966 5.484a1 1 0 0 1-.59 1.092c-.294.126-29.395 12.898-29.395 34.763 0 25.007 36.763 45.353 81.95 45.353s81.95-20.345 81.95-45.353c0-15.372-16.036-31.248-38.998-38.606a.999.999 0 0 1-.695-.952l-.003-5.821a1 1 0 0 1 1.266-.964c27.399 7.576 47.285 27.066 47.285 46.342 0 29.04-40.489 52.665-90.257 52.665zm-55.222-92.369c-6.042 2.935-33.6 17.556-33.035 39.679.344 13.485 9.549 26.16 25.919 35.69 16.615 9.673 38.754 15 62.338 15 48.665 0 88.257-22.728 88.257-50.665 0-18.1-18.659-36.476-44.551-44.054l.002 3.77c23.408 7.72 39.693 24.212 39.693 40.285 0 26.11-37.66 47.353-83.95 47.353S5.768 243.699 5.768 217.589c0-21.458 25.139-34.085 29.88-36.275z"/></svg></g><g transform="translate(322.8 1334.3999999999999) rotate(0.0 471.6 272.4) scale(1.1988347204498426 1.19737579533841)"><svg width="786.764" height="454.995" viewBox="0 0 786.764 454.995"><path d="M338.105 453.995 1 257.714 447.472 1l338.292 194.15z" fill="#adc4cb"/><path d="M338.105 454.995a.993.993 0 0 1-.503-.136L.497 258.579a1.002 1.002 0 0 1 .004-1.731L446.974.133a1 1 0 0 1 .996 0l338.292 194.15a1.001 1.001 0 0 1 .002 1.733L338.605 454.861a1.005 1.005 0 0 1-.5.134zM2.997 257.72l335.11 195.119 445.654-257.686-336.288-193z"/></svg></g><g transform="translate(217.2 1329.6) rotate(0.0 460.19999999999993 279.0) scale(1.1988933292345525 1.1982271392004948)"><svg width="767.708" height="465.688" viewBox="0 0 767.708 465.688"><path d="M299.557 453.114 4.132 281.291s-3.434-1.923-3.11-13.745c.214-7.797 4.163-9.832 4.163-9.832L451.657 25l314.849 169.668s.895 25.34-1.08 31.642c-1.647 5.254-5.176 10.012-10.589 13.142l-369.74 213.791a85.22 85.22 0 0 1-85.539-.129z" fill="#fff"/><path d="M342.439 465.659c-15.005 0-30.013-3.896-43.384-11.68L3.629 282.156c-.391-.219-3.938-2.559-3.607-14.637.228-8.293 4.522-10.599 4.705-10.693L451.195 24.113a1 1 0 0 1 .937.006L766.98 193.787c.313.168.513.49.525.845.037 1.042.878 25.584-1.125 31.976-1.808 5.768-5.73 10.637-11.042 13.709l-369.74 213.791c-13.318 7.701-28.239 11.55-43.158 11.55zm109.21-439.527L5.647 258.601c-.134.073-3.433 1.953-3.625 8.972-.295 10.777 2.604 12.846 2.633 12.865l295.406 171.811c26.049 15.167 58.441 15.216 84.535.127l369.74-213.791c4.948-2.862 8.453-7.21 10.135-12.576 1.74-5.552 1.169-26.949 1.053-30.735z"/><path d="M299.557 429.114 5.185 257.714 451.657 1l303.114 173.961c15.617 8.963 15.654 31.478.065 40.492l-369.74 213.791a85.22 85.22 0 0 1-85.539-.129z" fill="#87c159"/><path d="M342.439 441.659c-15.007 0-30.012-3.894-43.385-11.68L4.681 258.579a1.002 1.002 0 0 1 .004-1.731L451.158.133a1 1 0 0 1 .996 0l303.114 173.96c7.648 4.389 12.223 12.274 12.237 21.092.015 8.818-4.535 16.718-12.168 21.133l-369.74 213.791c-13.318 7.701-28.239 11.55-43.158 11.55zm-42.378-13.409c26.049 15.167 58.441 15.216 84.535.127l369.74-213.791c7.007-4.052 11.183-11.304 11.169-19.398s-4.212-15.332-11.232-19.361L451.657 2.153 7.181 257.72 300.06 428.25z"/><path d="M299.557 429.114 90.736 307.527 537.387 50.202 754.77 174.961c15.617 8.963 15.654 31.478.065 40.492l-369.74 213.791a85.22 85.22 0 0 1-85.539-.129z" fill="#dbf301"/><path d="M342.439 441.659c-15.007 0-30.012-3.894-43.385-11.68L90.233 308.392a1.002 1.002 0 0 1 .004-1.731L536.888 49.335a.993.993 0 0 1 .997 0l217.383 124.759c7.648 4.389 12.223 12.274 12.237 21.092.015 8.818-4.534 16.718-12.168 21.133L385.597 430.11c-13.318 7.701-28.239 11.55-43.158 11.55zm-42.378-13.409c26.049 15.167 58.441 15.216 84.535.127l369.74-213.791c7.007-4.052 11.183-11.304 11.169-19.398s-4.212-15.332-11.232-19.361L537.388 51.354 92.732 307.532z"/><path d="m149.561 354.304-90.763-52.847" fill="#fff"/><path d="M149.56 355.304a.985.985 0 0 1-.502-.136l-90.762-52.847a1 1 0 0 1 1.006-1.729l90.762 52.847a1 1 0 0 1-.504 1.865z"/><path d="m228.405 400.212-53.81-31.332" fill="#fff"/><path d="M228.404 401.212a.985.985 0 0 1-.502-.136l-53.81-31.332a1 1 0 0 1 1.006-1.729l53.81 31.332a1 1 0 0 1-.504 1.865z"/><path d="m249.919 400.212-26.644-15.514 446.701-258.402 26.593 15.262z" fill="#87c159"/><path d="M249.919 401.212a.993.993 0 0 1-.503-.136l-26.644-15.514a1 1 0 0 1 .002-1.73L669.475 125.43a1 1 0 0 1 .998-.001l26.593 15.262a.999.999 0 0 1 .003 1.732L250.42 401.077a.997.997 0 0 1-.501.135zm-24.652-16.511 24.654 14.354 444.646-257.494-24.589-14.112z"/><path d="m249.919 424.097-26.644-15.35v-24.049l26.644 15.514z" fill="#87c159"/><path d="M249.919 425.098a.998.998 0 0 1-.499-.133l-26.644-15.351a1 1 0 0 1-.501-.867v-24.049a1 1 0 0 1 1.503-.865l26.644 15.514a.999.999 0 0 1 .497.864v23.886a1 1 0 0 1-1 1zm-25.644-16.929 24.644 14.198v-21.581l-24.644-14.349v21.731z"/><path d="M616.086 309.222 435.71 413.519" fill="#fff"/><path d="M435.711 414.519a1 1 0 0 1-.502-1.866l180.376-104.297a.999.999 0 1 1 1.001 1.731L436.21 414.384a.996.996 0 0 1-.5.134z"/><path d="m749.467 232.098-80.331 46.449" fill="#fff"/><path d="M669.137 279.547a1 1 0 0 1-.502-1.866l80.331-46.449a.999.999 0 1 1 1.001 1.731l-80.331 46.449a.998.998 0 0 1-.5.134z"/></svg></g><g transform="translate(561.6 1928.3999999999999) rotate(0.0 529.8 317.4) scale(1.199447140446023 1.1997550594585604)"><svg width="883.407" height="529.108" viewBox="0 0 883.407 529.108"><path d="M566.702 525.347a20.445 20.445 0 0 1-20.521 0L4.559 211.17c-2.685-1.558-3.349-4.284-3.474-6.96-.085-1.813-.066-16.215-.066-16.215L313.926 21.107a23.295 23.295 0 0 1 23.249.002l545.159 299.875s.184 16.103-.046 18.753c-.146 1.681-1.295 3.206-2.931 4.207L566.701 525.346z" fill="#fff"/><path d="M556.441 529.101c-3.721 0-7.442-.962-10.761-2.888L4.058 212.035C.734 210.107.2 206.672.086 204.257c-.085-1.816-.068-15.674-.067-16.264 0-.369.204-.708.529-.881L313.455 20.225c7.45-4.291 16.741-4.29 24.219.018l545.142 299.866a.999.999 0 0 1 .518.865c.007.659.182 16.183-.05 18.851-.167 1.939-1.409 3.752-3.405 4.973L567.202 526.212a21.44 21.44 0 0 1-10.763 2.889zM2.018 188.595c-.002 2.741-.008 14.009.065 15.568.147 3.138 1.065 5.033 2.978 6.142l541.622 314.177a19.492 19.492 0 0 0 19.517 0l.502.865-.502-.865L878.856 343.08c1.407-.861 2.326-2.147 2.437-3.428.198-2.29.078-15.163.048-18.072L336.694 21.986c-6.879-3.963-15.406-3.964-22.269-.012z"/><path d="M566.702 508.347a20.445 20.445 0 0 1-20.521 0L4.559 194.17c-4.595-2.665-4.901-8.847.019-11.954L313.926 4.107a23.295 23.295 0 0 1 23.249.002l542.036 311.873c4.195 2.414 4.275 8.437.147 10.963z" fill="#adc4cb"/><path d="M556.441 512.101c-3.721 0-7.442-.962-10.761-2.888L4.058 195.035c-2.489-1.444-4.006-3.925-4.057-6.638-.053-2.81 1.421-5.371 4.043-7.027L313.427 3.24c7.479-4.306 16.77-4.306 24.248.002L879.71 315.115c2.279 1.311 3.661 3.664 3.696 6.293s-1.283 5.018-3.526 6.389L567.203 509.211a21.44 21.44 0 0 1-10.763 2.889zM325.548 2.01a22.29 22.29 0 0 0-11.123 2.963L5.078 183.082c-1.982 1.252-3.116 3.184-3.077 5.277.038 2.007 1.182 3.856 3.06 4.946l541.622 314.177a19.492 19.492 0 0 0 19.517 0l.502.865-.502-.865L878.856 326.08a5.32 5.32 0 0 0 2.55-4.645 5.328 5.328 0 0 0-2.693-4.586L336.677 4.976a22.294 22.294 0 0 0-11.128-2.966z"/><path d="M882.348 322.357c-.23 1.8-1.23 3.51-2.99 4.59l-312.66 181.4a20.415 20.415 0 0 1-10.256 2.76v17c3.544 0 7.086-.92 10.256-2.76l312.66-181.4c1.64-1 2.79-2.53 2.93-4.21.19-2.18.1-13.43.06-17.38"/><path d="M556.441 529.107a1 1 0 0 1-1-1v-17a1 1 0 0 1 1-1c3.423 0 6.796-.908 9.754-2.625l312.66-181.4c1.397-.858 2.293-2.23 2.5-3.852a.997.997 0 0 1 1.051-.871c.524.03.936.462.941.988.036 3.519.136 15.178-.064 17.477-.162 1.94-1.403 3.756-3.406 4.977L567.198 526.212a21.45 21.45 0 0 1-10.758 2.896zm1-17.023v14.998a19.45 19.45 0 0 0 8.754-2.599l312.66-181.4c1.411-.861 2.329-2.146 2.436-3.428.14-1.609.123-8.378.092-13.066-.439.46-.943.869-1.502 1.212L567.2 509.213a21.451 21.451 0 0 1-9.758 2.872zm-135.356-133.75a11.233 11.233 0 0 1-11.256.005L87.211 191.188c-3.265-1.987-3.21-5.663.006-7.461L317.751 50.861a18.739 18.739 0 0 1 18.721.004l318.246 183.61c4.614 2.38 4.771 6.196.008 9.058l-232.641 134.8z"/><path d="M416.453 380.843c-2.118 0-4.235-.546-6.124-1.639L86.71 192.053c-1.9-1.156-2.96-2.877-2.926-4.731.033-1.812 1.106-3.44 2.944-4.468L317.252 49.995a19.799 19.799 0 0 1 19.72.004l318.246 183.61c2.512 1.294 3.954 3.12 4.019 5.117.067 2.064-1.352 4.076-3.995 5.664L422.587 379.199a12.228 12.228 0 0 1-6.133 1.644zM327.108 49.366c-3.063 0-6.125.787-8.857 2.361L87.716 184.593c-1.212.678-1.912 1.684-1.932 2.766-.021 1.125.689 2.209 1.947 2.975l323.599 187.14a10.256 10.256 0 0 0 10.253-.004l232.641-134.8c1.98-1.19 3.055-2.57 3.013-3.877-.041-1.24-1.098-2.457-2.979-3.427L335.972 51.731a17.735 17.735 0 0 0-8.864-2.366z"/><path d="m746.33 239.526 132.881 76.456c4.195 2.414 4.275 8.437.147 10.963L566.702 508.347a20.445 20.445 0 0 1-20.521 0L414.7 432.079l331.63-192.554z" fill="#adc4cb"/><path d="M556.441 512.101c-3.721 0-7.442-.962-10.761-2.888l-131.481-76.268a1 1 0 0 1 0-1.73L745.83 238.661a.993.993 0 0 1 1-.002l132.881 76.456c2.279 1.311 3.661 3.664 3.696 6.293s-1.283 5.018-3.526 6.389L567.205 509.211a21.44 21.44 0 0 1-10.763 2.889zM416.692 432.08l129.991 75.404a19.496 19.496 0 0 0 19.518 0l312.656-181.402c1.615-.988 2.576-2.729 2.55-4.645s-1.033-3.63-2.693-4.586l-132.38-76.168-329.641 191.398z"/><path d="m796.176 346.436-91.055-53.192 24.695-14.339 91.856 52.727z" fill="#fff"/><path d="M796.176 347.436a.987.987 0 0 1-.504-.137l-91.055-53.191a1.002 1.002 0 0 1 .002-1.728l24.695-14.339a.998.998 0 0 1 1-.002l91.856 52.727a1 1 0 0 1 .004 1.732l-25.496 14.804a1 1 0 0 1-.502.135zm-89.068-54.189 89.07 52.032 23.495-13.642-89.853-51.577-22.711 13.187z"/><path d="m770.883 361.122-90.641-53.433 24.879-14.445 91.055 53.192z" fill="#fff"/><path d="M770.883 362.122a.994.994 0 0 1-.508-.139l-90.64-53.432a1 1 0 0 1 .006-1.726l24.878-14.445a.995.995 0 0 1 1.006.001l91.055 53.191a1.002 1.002 0 0 1-.002 1.728l-25.293 14.686a1 1 0 0 1-.502.135zm-88.66-54.426 88.664 52.267 23.303-13.53-89.07-52.032-22.896 13.294z"/><path d="m602.475 458.904-91.056-53.191 24.7-14.342 91.856 52.727z" fill="#fff"/><path d="M602.475 459.904a.987.987 0 0 1-.504-.137l-91.056-53.191a1.002 1.002 0 0 1 .002-1.728l24.7-14.341a1 1 0 0 1 1-.002l91.856 52.727a1 1 0 0 1 .004 1.732l-25.5 14.806a1 1 0 0 1-.502.135zm-89.069-54.189 89.07 52.032 23.499-13.644-89.853-51.577z"/><path d="m577.179 473.591-90.64-53.432 24.88-14.446 91.056 53.191z" fill="#fff"/><path d="M577.179 474.591a.994.994 0 0 1-.508-.139l-90.64-53.433a1 1 0 0 1 .006-1.726l24.88-14.446a.997.997 0 0 1 1.007.001l91.056 53.191a1.002 1.002 0 0 1-.002 1.728l-25.296 14.688a1 1 0 0 1-.502.135zm-88.66-54.426 88.664 52.268 23.305-13.531-89.07-52.032z"/><ellipse cx="653.056" cy="376.213" fill="#fff" rx="63.585" ry="36.375"/><path d="M653.056 413.588c-35.612 0-64.585-16.767-64.585-37.375s28.973-37.375 64.585-37.375 64.585 16.767 64.585 37.375-28.973 37.375-64.585 37.375zm0-72.751c-34.509 0-62.585 15.869-62.585 35.375s28.076 35.375 62.585 35.375 62.585-15.869 62.585-35.375-28.076-35.375-62.585-35.375z"/><ellipse cx="653.367" cy="376.535" fill="#adc4cb" rx="36.609" ry="20.968" transform="matrix(.99971706 -.02378659 .02378659 .99971706 -8.771 15.647)"/><path d="M652.311 398.516c-9.363 0-18.169-1.992-24.947-5.664-7.335-3.973-11.453-9.45-11.595-15.423-.143-5.973 3.71-11.64 10.849-15.957 6.965-4.212 16.279-6.663 26.227-6.899 9.949-.237 19.368 1.768 26.525 5.645 7.335 3.973 11.453 9.45 11.595 15.423.288 12.11-16.344 22.363-37.075 22.856-.527.013-1.054.019-1.578.019zm2.115-41.962c-.51 0-1.021.006-1.535.018-9.604.229-18.568 2.577-25.24 6.612-6.498 3.93-10.009 8.972-9.884 14.198s3.871 10.095 10.549 13.712c6.856 3.713 15.924 5.631 25.525 5.404 19.629-.467 35.386-9.802 35.124-20.81-.125-5.226-3.871-10.095-10.549-13.712-6.489-3.515-14.958-5.422-23.99-5.422z"/></svg></g><g transform="translate(1977.6 1910.3999999999999) rotate(0.0 80.40000000000009 244.80000000000007) scale(1.2078238139590796 1.2071571400040932)"><svg width="133.132" height="405.581" viewBox="0 0 133.132 405.581"><path d="M132.127 367.348c0 20.563-29.354 37.233-65.564 37.233S1 387.911 1 367.348c0-16.182 22.786-65.326 22.786-65.326h85.258s23.084 49.904 23.084 65.326z" fill="#fff"/><path d="M66.564 405.581C29.86 405.581 0 388.43 0 367.348c0-16.216 21.944-63.732 22.878-65.746a1 1 0 0 1 .907-.58h85.258c.39 0 .744.227.908.58.946 2.046 23.176 50.281 23.176 65.746 0 21.082-29.86 38.232-66.563 38.232zM24.427 303.022C21.877 308.593 2 352.508 2 367.348c0 19.979 28.963 36.232 64.564 36.232s64.563-16.254 64.563-36.232c0-14.141-20.157-58.706-22.726-64.326z"/><path d="M86.099 327.342c13.796-4.181 23.233-12.652 23.233-22.424 0-.97-.09-1.92-.27-2.86.7 1.51 23.07 50.11 23.07 65.29 0 12.705-11.212 23.925-28.324 30.643l-17.709-70.65z"/><path d="M103.808 398.992a.998.998 0 0 1-.97-.757l-17.709-70.65a1 1 0 0 1 .68-1.2c13.893-4.21 22.523-12.436 22.523-21.466 0-.897-.085-1.796-.252-2.672a1 1 0 0 1 1.89-.609c.232.5 23.163 50.158 23.163 65.71 0 12.651-10.826 24.455-28.958 31.574a1.006 1.006 0 0 1-.365.069zm-16.509-70.977 17.201 68.623c16.7-6.839 26.632-17.733 26.632-29.289 0-12.399-15.305-47.769-20.934-60.357-1.152 8.902-9.682 16.787-22.899 21.023z"/><path d="M86.098 328.342a1 1 0 0 1-.29-1.957c13.893-4.21 22.523-12.436 22.523-21.466 0-.862-.078-1.723-.231-2.561l-.003-.01a1 1 0 0 1 1.84-.773c.05.091.087.191.107.295.191.997.288 2.022.288 3.048 0 9.946-9.174 18.905-23.943 23.38a1.01 1.01 0 0 1-.291.043z"/><ellipse cx="66.564" cy="304.922" fill="#adc4cb" rx="42.77" ry="25.194"/><path d="M66.564 331.116c-24.135 0-43.77-11.751-43.77-26.194s19.635-26.194 43.77-26.194 43.77 11.751 43.77 26.194-19.635 26.194-43.77 26.194zm0-50.389c-23.032 0-41.77 10.854-41.77 24.194s18.738 24.194 41.77 24.194 41.77-10.854 41.77-24.194-18.738-24.194-41.77-24.194z"/><ellipse cx="66.564" cy="304.886" fill="#fff" rx="29.785" ry="15.152"/><path d="M66.564 321.038c-17.263 0-30.785-7.095-30.785-16.152s13.522-16.152 30.785-16.152 30.785 7.095 30.785 16.152-13.522 16.152-30.785 16.152zm0-30.304c-15.872 0-28.785 6.349-28.785 14.152s12.913 14.152 28.785 14.152 28.785-6.349 28.785-14.152-12.913-14.152-28.785-14.152z"/><path d="M96.349 304.886s.013 15.119-29.785 15.152c-28.956.032-29.785-15.152-29.785-15.152L53.105 10.179S54.044 1.003 66.421 1c12.187-.002 12.976 9.179 12.976 9.179l16.952 294.708z" fill="#fff"/><path d="M66.472 321.038c-29.474 0-30.656-15.44-30.692-16.098a1.01 1.01 0 0 1 0-.11L52.107 10.123C52.121 9.976 53.293.003 66.421 0h.005c12.952 0 13.959 9.992 13.968 10.093l16.954 294.735.001.057c0 .658-.336 16.119-30.784 16.153zM37.78 304.877c.088 1.037 1.755 14.161 28.691 14.161h.091c27.964-.031 28.766-13.518 28.786-14.131L78.399 10.236C78.37 9.931 77.493 2 66.426 2h-.004c-11.275.002-12.285 7.947-12.322 8.285L37.781 304.878z"/><path d="m42.404 203.335-5.626 101.551s.829 15.184 29.785 15.152c29.799-.033 29.785-15.152 29.785-15.152l-5.841-101.551-.046.033c-14.396 10.211-33.675 10.198-48.057-.033z" fill="#adc4cb"/><path d="M66.472 321.038c-29.474 0-30.656-15.44-30.692-16.098a1.01 1.01 0 0 1 0-.11l5.626-101.551a1 1 0 0 1 1.578-.76c14.019 9.973 32.867 9.985 46.899.032.297-.211.708-.26 1.035-.102.328.158.567.464.588.827l5.841 101.551c.002.715-.334 16.176-30.782 16.21h-.093zM37.78 304.877c.088 1.037 1.778 14.21 28.782 14.161 28.315-.032 28.78-13.58 28.786-14.157l-5.738-99.729c-14.095 9.14-32.263 9.13-46.305.005z"/><rect fill="#adc4cb" height="64.465" rx="8.493" width="16.986" x="58.219" y="228.277"/><path d="M66.712 293.742c-5.234 0-9.493-4.259-9.493-9.493V236.77c0-5.234 4.259-9.493 9.493-9.493s9.493 4.259 9.493 9.493v47.479c0 5.234-4.259 9.493-9.493 9.493zm0-64.465c-4.132 0-7.493 3.361-7.493 7.493v47.479c0 4.132 3.361 7.493 7.493 7.493s7.493-3.361 7.493-7.493V236.77c0-4.132-3.361-7.493-7.493-7.493z"/><path d="M76.735 15.349c-2.286 2.259-5.993 3.728-10.177 3.728-3.803 0-7.212-1.213-9.517-3.131" fill="#fff"/><path d="M66.558 20.077c-3.885 0-7.587-1.225-10.157-3.362a.999.999 0 1 1 1.279-1.537c2.216 1.843 5.452 2.9 8.878 2.9 3.753 0 7.295-1.286 9.474-3.439a1.001 1.001 0 0 1 1.407 1.422c-2.583 2.553-6.549 4.017-10.88 4.017z"/></svg></g><g transform="translate(2166.0 1879.1999999999998) rotate(0.0 308.39999999999986 193.79999999999995) scale(1.1996475743507253 1.1977047083144063)"><svg width="514.151" height="323.619" viewBox="0 0 514.151 323.619"><path d="M215.091 322.619 1 197.964v-26L298.328 27l214.823 97.306v26z" fill="#fff"/><path d="M215.091 323.619a.993.993 0 0 1-.503-.136L.497 198.828a.999.999 0 0 1-.497-.864v-26a1 1 0 0 1 .562-.899L297.89 26.101c.268-.131.579-.134.851-.012l214.823 97.306a1 1 0 0 1 .587.911v26a1 1 0 0 1-.5.866l-298.06 172.313a1.005 1.005 0 0 1-.5.134zM2 197.389l213.093 124.073 297.058-171.733v-24.778L298.343 28.105 2 172.589z"/><path d="M215.091 296.619 1 171.964 298.328 1l214.823 123.306z" fill="#87c159"/><path d="M215.091 297.619a.993.993 0 0 1-.503-.136L.497 172.828a1.002 1.002 0 0 1 .004-1.731L297.829.133a.998.998 0 0 1 .996 0l214.824 123.306a1.001 1.001 0 0 1 .002 1.733l-298.06 172.313a1.005 1.005 0 0 1-.5.134zM2.997 171.969l212.096 123.493 296.054-171.153L298.328 2.153z"/><path d="m513.151 150.306-298.06 172.313v-26l298.06-172.313z"/><path d="M215.091 323.619a1 1 0 0 1-1-1v-26a1 1 0 0 1 .5-.866l298.06-172.313a.998.998 0 0 1 1.5.866v26a1 1 0 0 1-.5.866l-298.06 172.313a1.005 1.005 0 0 1-.5.134zm1-26.423v23.689l296.06-171.156V126.04zm297.06-146.89h.01z"/><path d="M366.701 18.599c-6.273-1.445-15.347 4.853-18.657 12.957-2.859 7-2.991 16.458 1.74 20.166.305.239.648.463 1.021.666.009-.021 1.635.446 2.681-1.135 1.219-1.842.22-3.048-.034-3.162a1.883 1.883 0 0 1-.584-.304c-2.12-1.662-2.668-8.288-.195-14.339 2.3-5.632 8.361-10.065 12.051-10.065.303 0 .59.03.857.091 2.281.524 2.393 4.175 2.255 6.304l-.003.06c-.128 3.188-1.138 6.526-2.745 9.465-.017.032 4.303 2.559 4.34 2.491 1.996-3.616 3.234-7.724 3.4-11.725.545-8.626-3.604-10.888-6.127-11.468z" fill="#fff"/><path d="M351.352 53.433c-.209 0-.423-.017-.641-.052a1.002 1.002 0 0 1-.382-.116 8.345 8.345 0 0 1-1.163-.758c-5.295-4.15-5.007-14.087-2.049-21.331 3.478-8.512 13.103-15.097 19.808-13.553 2.831.651 7.492 3.142 6.9 12.505-.169 4.071-1.388 8.278-3.523 12.145-.172.312-.5.509-.855.518h-.004c-.588 0-5.012-2.645-5.211-2.973a1.001 1.001 0 0 1-.022-.999c1.573-2.877 2.505-6.082 2.624-9.025.078-1.223.188-4.966-1.477-5.349a2.822 2.822 0 0 0-.633-.066c-3.292 0-8.989 4.212-11.125 9.443-2.381 5.828-1.721 11.915-.113 13.174a.877.877 0 0 0 .277.141.932.932 0 0 1 .1.038c.467.209.897.786 1.095 1.468.202.697.256 1.811-.636 3.158-.7 1.057-1.758 1.63-2.968 1.63zm-.225-2.013c.656.075 1.154-.161 1.525-.722.654-.988.395-1.56.276-1.737a2.814 2.814 0 0 1-.679-.39c-2.71-2.125-2.951-9.515-.503-15.504 2.498-6.117 8.911-10.687 12.977-10.687.381 0 .745.039 1.082.117 2.226.512 3.302 3.12 3.029 7.343-.121 2.99-.977 6.177-2.429 9.097a161.5 161.5 0 0 0 2.603 1.508c1.683-3.329 2.678-6.991 2.821-10.42.5-7.912-3.139-9.943-5.352-10.452-5.748-1.324-14.417 4.798-17.507 12.36-2.661 6.513-2.87 15.629 1.431 19 .221.173.465.337.727.487z"/><path d="M340.301 3.524c-6.273-1.445-15.347 4.853-18.657 12.957-2.859 7-2.991 16.458 1.74 20.166.305.239.648.463 1.021.666.009-.021 1.635.446 2.681-1.135 1.219-1.842.22-3.048-.034-3.162a1.883 1.883 0 0 1-.584-.304c-2.12-1.662-2.668-8.288-.195-14.339 2.3-5.632 8.361-10.065 12.051-10.065.303 0 .59.03.857.091 2.281.524 2.393 4.175 2.255 6.304l-.003.06c-.128 3.188-1.078 6.416-2.685 9.355-.017.032 4.361 2.678 4.399 2.61a26.867 26.867 0 0 0 3.282-11.734c.545-8.626-3.604-10.888-6.127-11.468z" fill="#fff"/><path d="M324.952 38.359a4.03 4.03 0 0 1-.64-.052 1.007 1.007 0 0 1-.383-.116 8.338 8.338 0 0 1-1.162-.758c-5.295-4.15-5.007-14.087-2.049-21.331 3.478-8.512 13.104-15.095 19.808-13.553 2.831.651 7.492 3.142 6.9 12.505a27.7 27.7 0 0 1-3.404 12.154c-.184.332-.638.804-1.622.267-5.099-2.785-4.99-2.986-4.533-3.835 1.561-2.854 2.447-5.936 2.567-8.92.078-1.223.188-4.966-1.477-5.349a2.822 2.822 0 0 0-.633-.066c-3.292 0-8.989 4.212-11.125 9.443-2.381 5.828-1.721 11.915-.113 13.174a.888.888 0 0 0 .279.141c.033.011.065.023.096.037.467.208.897.784 1.096 1.466.203.697.258 1.812-.635 3.161-.7 1.057-1.759 1.631-2.97 1.631zm-.224-2.013c.655.074 1.155-.161 1.526-.722.654-.988.394-1.56.276-1.737a2.812 2.812 0 0 1-.677-.389c-2.712-2.126-2.952-9.516-.505-15.505 2.732-6.69 10.123-11.479 14.058-10.57 2.226.512 3.302 3.12 3.029 7.343-.122 3.033-.94 6.116-2.375 8.999.745.457 1.898 1.15 2.674 1.602a25.714 25.714 0 0 0 2.696-10.415c.5-7.912-3.139-9.943-5.352-10.452-5.747-1.323-14.417 4.799-17.507 12.36-2.661 6.513-2.87 15.629 1.431 19 .221.173.464.336.727.487z"/><path d="M393.321 33.674c-6.273-1.445-15.347 4.853-18.657 12.957-2.859 7-2.991 16.458 1.74 20.166.305.239.648.463 1.021.666.009-.021 1.635.446 2.681-1.135 1.219-1.842.22-3.048-.034-3.162a1.883 1.883 0 0 1-.584-.304c-2.12-1.662-2.668-8.288-.195-14.339 2.3-5.632 8.361-10.065 12.051-10.065.303 0 .59.03.857.091 2.281.524 2.393 4.175 2.255 6.304l-.003.06c-.128 3.188-1.167 6.733-2.774 9.672-.017.032 4.327 2.573 4.364 2.505 1.996-3.616 3.238-7.945 3.405-11.946.545-8.626-3.604-10.888-6.127-11.468z" fill="#fff"/><path d="M377.971 68.509a4.03 4.03 0 0 1-.64-.052.995.995 0 0 1-.383-.116 8.338 8.338 0 0 1-1.162-.758c-5.295-4.15-5.007-14.087-2.049-21.331 3.478-8.511 13.104-15.094 19.808-13.553 2.831.651 7.492 3.142 6.9 12.505-.17 4.1-1.457 8.615-3.527 12.366-.489.89-1.412.388-1.806.173-4.669-2.542-4.831-2.677-4.314-3.636 1.568-2.867 2.535-6.232 2.655-9.238.078-1.223.188-4.966-1.477-5.349a2.822 2.822 0 0 0-.633-.066c-3.292 0-8.989 4.212-11.125 9.443-2.381 5.828-1.721 11.915-.113 13.174a.888.888 0 0 0 .279.141c.033.011.065.023.096.037.467.208.897.784 1.096 1.466.203.697.258 1.812-.635 3.161-.7 1.057-1.759 1.631-2.97 1.631zm-.224-2.013c.654.073 1.155-.161 1.526-.722.654-.988.394-1.56.276-1.737a2.812 2.812 0 0 1-.677-.389c-2.712-2.126-2.952-9.516-.505-15.505 2.732-6.69 10.123-11.479 14.058-10.57 2.226.512 3.302 3.12 3.029 7.343-.123 3.043-1.01 6.374-2.458 9.303.739.438 1.867 1.094 2.627 1.522 1.659-3.305 2.68-7.129 2.826-10.64.5-7.912-3.139-9.943-5.352-10.452-5.747-1.321-14.417 4.799-17.507 12.36-2.661 6.513-2.87 15.629 1.431 19 .221.173.464.336.727.487z"/><path d="M419.941 48.748c-6.273-1.445-15.347 4.853-18.657 12.957-2.859 7-2.991 16.458 1.74 20.166.305.239.648.463 1.021.666.009-.021 1.635.446 2.681-1.135 1.219-1.842.22-3.048-.034-3.162a1.883 1.883 0 0 1-.584-.304c-2.12-1.662-2.668-8.288-.195-14.339 2.3-5.632 8.361-10.065 12.051-10.065.303 0 .59.03.857.091 2.281.524 2.393 4.175 2.255 6.304l-.003.06c-.128 3.188-1.444 6.779-3.051 9.718-.017.032 4.47 2.655 4.508 2.587 1.996-3.616 3.372-8.073 3.539-12.074.545-8.626-3.604-10.888-6.127-11.468z" fill="#fff"/><path d="M404.593 83.583c-.209 0-.423-.017-.641-.052a1.002 1.002 0 0 1-.382-.116 8.345 8.345 0 0 1-1.163-.758c-5.295-4.15-5.007-14.087-2.049-21.331 3.478-8.512 13.104-15.096 19.808-13.553 2.831.651 7.492 3.142 6.9 12.505-.167 4.021-1.502 8.583-3.662 12.495-.172.312-.501.51-.857.518h-.003c-.565 0-5.187-2.754-5.378-3.071a1.002 1.002 0 0 1-.021-.998c1.753-3.207 2.821-6.588 2.93-9.278.078-1.223.188-4.966-1.477-5.349a2.822 2.822 0 0 0-.633-.066c-3.292 0-8.989 4.212-11.125 9.443-2.381 5.828-1.721 11.915-.113 13.174a.877.877 0 0 0 .277.141.932.932 0 0 1 .1.038c.467.209.897.786 1.095 1.468.202.697.256 1.811-.636 3.158-.7 1.057-1.758 1.63-2.968 1.63zm-.225-2.013c.655.075 1.154-.162 1.525-.722.654-.988.395-1.56.276-1.737a2.814 2.814 0 0 1-.679-.39c-2.71-2.125-2.951-9.515-.503-15.504 2.732-6.69 10.123-11.477 14.058-10.57 2.226.512 3.302 3.12 3.029 7.343-.146 3.617-1.62 7.159-2.731 9.352.773.458 1.972 1.156 2.767 1.603 1.725-3.416 2.818-7.373 2.96-10.769.5-7.912-3.139-9.943-5.352-10.452-5.746-1.323-14.417 4.799-17.507 12.36-2.661 6.513-2.87 15.629 1.431 19 .221.173.465.337.727.487z"/><path d="M446.562 63.823c-6.273-1.445-15.347 4.853-18.657 12.957-2.859 7-2.991 16.458 1.74 20.166.305.239.648.463 1.021.666.009-.021 1.635.446 2.681-1.135 1.219-1.842.22-3.048-.034-3.162a1.883 1.883 0 0 1-.584-.304c-2.12-1.662-2.668-8.288-.195-14.339 2.3-5.632 8.361-10.065 12.051-10.065.303 0 .59.03.857.091 2.281.524 2.393 4.175 2.255 6.304l-.003.06c-.128 3.188-2.999 9.953-2.999 9.953s4.433 2.634 4.47 2.566c1.996-3.616 3.357-8.287 3.524-12.288.545-8.626-3.604-10.888-6.127-11.468z" fill="#fff"/><path d="M431.212 98.659a4.03 4.03 0 0 1-.64-.052 1.007 1.007 0 0 1-.383-.116 8.338 8.338 0 0 1-1.162-.758c-5.295-4.15-5.007-14.087-2.049-21.331 3.478-8.511 13.105-15.094 19.808-13.553 2.831.651 7.492 3.142 6.9 12.505-.169 4.063-1.566 8.941-3.646 12.708-.13.236-.353.411-.613.482q-.508.139-5.243-2.672a1 1 0 0 1-.41-1.25c.028-.066 2.801-6.633 2.92-9.602.078-1.223.188-4.966-1.477-5.349a2.822 2.822 0 0 0-.633-.066c-3.292 0-8.989 4.212-11.125 9.443-2.381 5.828-1.721 11.915-.113 13.174a.888.888 0 0 0 .279.141c.033.011.065.023.096.037.467.208.897.784 1.096 1.466.203.697.258 1.812-.635 3.161-.7 1.057-1.759 1.631-2.97 1.631zm-.224-2.013c.655.072 1.155-.161 1.526-.722.654-.988.394-1.56.276-1.737a2.812 2.812 0 0 1-.677-.389c-2.712-2.126-2.952-9.516-.505-15.505 2.732-6.69 10.123-11.48 14.058-10.57 2.226.512 3.302 3.12 3.029 7.343-.109 2.718-1.969 7.597-2.746 9.528a251.48 251.48 0 0 0 2.798 1.632c1.686-3.373 2.798-7.489 2.943-10.975.5-7.912-3.139-9.943-5.352-10.452-5.745-1.32-14.417 4.798-17.507 12.36-2.661 6.513-2.87 15.629 1.431 19 .221.173.464.336.727.487z"/><path d="M473.182 78.898c-6.273-1.445-15.347 4.853-18.657 12.957-2.859 7-2.991 16.458 1.74 20.166.305.239.648.463 1.021.666.009-.021 1.635.446 2.681-1.135 1.219-1.842.22-3.048-.034-3.162a1.883 1.883 0 0 1-.584-.304c-2.12-1.662-2.668-8.288-.195-14.339 2.3-5.632 8.361-10.065 12.051-10.065.303 0 .59.03.857.091 2.281.524 2.393 4.175 2.255 6.304l-.003.06c-.128 3.188-1.601 7.098-3.208 10.037-.017.032 4.496 2.58 4.496 2.58s3.549-6.214 3.708-12.387c.222-8.64-3.604-10.888-6.127-11.468z" fill="#fff"/><path d="M457.834 113.733c-.209 0-.423-.017-.641-.052a1.002 1.002 0 0 1-.382-.116 8.345 8.345 0 0 1-1.163-.758c-5.295-4.15-5.007-14.087-2.049-21.331 3.477-8.512 13.105-15.095 19.808-13.553 2.682.617 7.144 3.057 6.902 12.468-.163 6.352-3.689 12.594-3.839 12.857a1 1 0 0 1-1.36.375q-5.361-3.027-4.887-3.919c1.415-2.587 2.966-6.461 3.093-9.609.078-1.223.188-4.966-1.477-5.349a2.822 2.822 0 0 0-.633-.066c-3.292 0-8.989 4.212-11.125 9.443-2.381 5.828-1.721 11.915-.113 13.174a.877.877 0 0 0 .277.141.932.932 0 0 1 .1.038c.467.209.897.786 1.095 1.468.202.697.256 1.811-.636 3.158-.7 1.057-1.758 1.63-2.968 1.63zm-.225-2.013c.658.074 1.154-.162 1.525-.722.654-.988.395-1.56.276-1.737a2.814 2.814 0 0 1-.679-.39c-2.71-2.125-2.951-9.515-.503-15.504 2.732-6.689 10.123-11.477 14.058-10.57 2.226.512 3.302 3.12 3.029 7.343-.112 2.766-1.178 6.309-2.882 9.66.71.409 1.796 1.027 2.762 1.574.941-1.888 2.999-6.514 3.115-11.034.154-6.007-1.696-9.627-5.352-10.467-5.744-1.322-14.418 4.799-17.507 12.36-2.661 6.513-2.87 15.629 1.431 19 .221.173.465.337.727.487z"/></svg></g><g transform="translate(2304.0 1976.3999999999999) rotate(0.0 170.39999999999986 75.00000000000011) scale(1.1957684952895553 1.1968403414984459)"><svg width="285.005" height="125.33" viewBox="0 0 285.005 125.33"><ellipse cx="93.967" cy="58.13" fill="#fff" rx="75.379" ry="41.317"/><path d="M93.967 100.447c-42.116 0-76.379-18.983-76.379-42.317s34.264-42.316 76.379-42.316 76.379 18.983 76.379 42.316-34.264 42.317-76.379 42.317zm0-82.633c-41.013 0-74.379 18.086-74.379 40.316s33.367 40.317 74.379 40.317 74.379-18.086 74.379-40.317-33.367-40.316-74.379-40.316z"/><path d="M173.182 81.926c-25.352 0-49.202-4.185-67.156-11.784C87.798 62.428 77.76 52.065 77.76 40.963s10.039-21.464 28.266-29.179C123.98 4.185 147.83 0 173.182 0s49.202 4.185 67.156 11.784c18.228 7.714 28.266 18.077 28.266 29.179s-10.039 21.464-28.266 29.179c-17.955 7.599-41.804 11.784-67.156 11.784zm0-79.926C121.669 2 79.76 19.479 79.76 40.963s41.909 38.963 93.422 38.963 93.422-17.479 93.422-38.963S224.695 2 173.182 2z" fill="#dbf301"/><path d="M119.539 125.331c-4.664 0-9.158-.095-13.477-.264-53.66-2.096-96.601-16.54-105.77-25.722a1 1 0 0 1 1.414-1.414c8.942 8.956 51.277 23.061 104.433 25.138 47.024 1.838 115.954-5.122 177.286-48.703a.998.998 0 1 1 1.158 1.63c-56.153 39.902-118.595 49.335-165.045 49.335z"/></svg></g><g transform="translate(1123.2 1726.8) rotate(0.0 416.4 249.60000000000002) scale(1.1470631986645141 1.1446915844989682)"><svg width="726.028" height="436.1" viewBox="0 0 726.028 436.1"><path d="M498.839 435.093a50.715 50.715 0 0 1-24.653-6.845L7.277 157.238c-3.48-2.02-5.46-5.33-5.96-8.82-.57-3.97-.22-14.05-.1-16.93.25 3.83 2.27 7.55 6.06 9.75l466.91 271.01a50.708 50.708 0 0 0 24.655 6.845z" fill="#fff"/><path d="M498.839 436.093h-.016a51.865 51.865 0 0 1-25.139-6.98L6.775 158.103a13.13 13.13 0 0 1-6.448-9.543c-.606-4.224-.197-14.997-.108-17.113a1 1 0 0 1 .987-.958c.563.005.976.405 1.01.935.246 3.779 2.274 7.041 5.563 8.95l466.91 271.01a49.848 49.848 0 0 0 24.169 6.709 1 1 0 0 1 .984 1l-.003 16a.997.997 0 0 1-1 1zM2.036 137.465c-.073 3.837-.07 8.444.271 10.812a11.136 11.136 0 0 0 5.472 8.097l466.91 271.01a49.859 49.859 0 0 0 23.15 6.683l.003-13.999a51.856 51.856 0 0 1-24.157-6.955L6.775 142.103c-2.006-1.164-3.613-2.756-4.738-4.638z"/><path d="M498.842 419.093a50.637 50.637 0 0 0 26.205-6.815l193.44-111.97c3.99-2.32 6.16-6.21 6.49-10.24.02 3.91.05 11.66.05 14.89 0 4.41-2.18 8.82-6.54 11.35l-193.44 111.97a50.648 50.648 0 0 1-26.208 6.815z"/><path d="M499.647 436.099c-.274 0-.548-.002-.823-.006a1 1 0 0 1-.984-1l.003-16a.997.997 0 0 1 1.016-1 49.675 49.675 0 0 0 25.688-6.68l193.439-111.97c3.482-2.025 5.668-5.473 5.994-9.457a1 1 0 0 1 .996-.918h.039a1 1 0 0 1 .962.994c.02 3.911.05 11.664.05 14.895 0 5.091-2.631 9.658-7.038 12.215l-193.44 111.97a51.693 51.693 0 0 1-25.901 6.956zm.195-16-.003 14a49.683 49.683 0 0 0 24.707-6.686l193.439-111.97c3.782-2.195 6.041-6.115 6.041-10.485 0-1.896-.011-5.351-.023-8.671-1.2 1.98-2.902 3.658-5.014 4.885L525.548 413.143a51.696 51.696 0 0 1-25.706 6.955z"/><path d="M724.977 290.068c-.01-1.21-.01-2.05-.01-2.28.08.76.08 1.521.01 2.28z" fill="#fff"/><path d="M724.978 291.069h-.042a1 1 0 0 1-.959-.991c-.01-1.214-.01-2.057-.01-2.289a1 1 0 0 1 1.995-.104c.083.805.087 1.637.011 2.475a1 1 0 0 1-.995.909z"/><path d="M474.191 412.248 7.279 141.235c-8.132-4.72-8.118-16.468.025-21.168L201.549 7.932a51.75 51.75 0 0 1 51.828.047l465.114 269.637c8.717 5.053 8.713 17.642-.007 22.69l-193.44 111.973a50.703 50.703 0 0 1-50.853-.03z" fill="#fff"/><path d="M499.643 420.081a51.685 51.685 0 0 1-25.954-6.968L6.778 142.1c-4.131-2.397-6.595-6.681-6.589-11.457s2.479-9.054 6.615-11.442L201.049 7.066c16.301-9.411 36.545-9.392 52.83.048l465.114 269.637c4.405 2.554 7.035 7.12 7.033 12.212s-2.634 9.656-7.042 12.208l-193.44 111.973a51.696 51.696 0 0 1-25.901 6.938zM227.422 2.02a50.739 50.739 0 0 0-25.373 6.778L7.804 120.933c-3.512 2.027-5.61 5.658-5.615 9.712-.005 4.055 2.086 7.69 5.593 9.726l466.911 271.013c15.367 8.921 34.469 8.932 49.85.029l193.44-111.973c3.783-2.19 6.043-6.107 6.044-10.478 0-4.371-2.255-8.289-6.037-10.481L252.875 8.844a50.74 50.74 0 0 0-25.453-6.824z"/><path d="m552.085 349.282-57.218-34.119a6.93 6.93 0 0 1-3.363-5.092c-.355-2.694.001-5.861.001-5.861l25.83-13.597a20.692 20.692 0 0 1 20.339.13l62.246 34.521s.376 3.469.08 6.132a7.04 7.04 0 0 1-3.386 5.289l-20.634 12.51a23.187 23.187 0 0 1-23.896.087z" fill="#fff"/><path d="M563.96 353.563a24.16 24.16 0 0 1-12.387-3.421l-57.218-34.12a7.956 7.956 0 0 1-3.843-5.82c-.366-2.784-.016-5.97 0-6.104a1 1 0 0 1 .528-.773l25.83-13.597c6.578-3.657 14.749-3.606 21.302.147l62.233 34.515c.284.158.474.444.509.767.016.146.385 3.609.081 6.35a8.054 8.054 0 0 1-3.862 6.034l-20.634 12.51a24.172 24.172 0 0 1-12.539 3.513zm-71.508-48.721c-.08.983-.208 3.187.043 5.099a5.965 5.965 0 0 0 2.884 4.363l57.218 34.12a22.14 22.14 0 0 0 22.865-.083l20.634-12.51a6.062 6.062 0 0 0 2.911-4.544c.215-1.934.054-4.363-.034-5.404l-61.783-34.265c-5.96-3.413-13.376-3.46-19.367-.13l-25.37 13.355z"/><path d="m552.085 345.282-57.218-34.119c-4.646-2.77-4.543-9.533.184-12.162l22.285-12.389a20.692 20.692 0 0 1 20.339.13l58.788 33.67c4.709 2.697 4.793 9.459.153 12.272l-20.634 12.51a23.187 23.187 0 0 1-23.896.087z" fill="#fff"/><path d="M563.96 349.563a24.16 24.16 0 0 1-12.387-3.421l-57.218-34.12a7.937 7.937 0 0 1-3.912-7.008 7.937 7.937 0 0 1 4.121-6.886l22.285-12.389c6.6-3.668 14.77-3.617 21.322.136l58.787 33.67c2.521 1.444 4.049 4.042 4.085 6.948s-1.426 5.541-3.911 7.047l-20.634 12.51a24.172 24.172 0 0 1-12.539 3.513zm-36.571-64.542a19.69 19.69 0 0 0-9.566 2.465l-22.285 12.389a5.957 5.957 0 0 0-3.094 5.168 5.956 5.956 0 0 0 2.936 5.26l57.218 34.12a22.14 22.14 0 0 0 22.865-.083l20.634-12.51c1.874-1.136 2.976-3.122 2.948-5.313s-1.178-4.148-3.079-5.237l-58.787-33.67a19.704 19.704 0 0 0-9.789-2.589z"/><path d="m183.517 135.168-57.218-34.119a6.93 6.93 0 0 1-3.363-5.092c-.355-2.694.001-5.861.001-5.861l25.83-13.597a20.692 20.692 0 0 1 20.339.13l62.246 34.521s.376 3.469.08 6.132a7.04 7.04 0 0 1-3.386 5.289l-20.634 12.51a23.187 23.187 0 0 1-23.896.087z" fill="#fff"/><path d="M195.392 139.449c-4.28 0-8.561-1.14-12.387-3.421l-57.218-34.119a7.956 7.956 0 0 1-3.842-5.82c-.367-2.783-.017-5.969-.002-6.104a1 1 0 0 1 .528-.773l25.83-13.597c6.58-3.658 14.749-3.606 21.302.147l62.234 34.515c.284.158.474.444.509.767.016.146.385 3.61.08 6.35a8.052 8.052 0 0 1-3.861 6.034l-20.635 12.51a24.162 24.162 0 0 1-12.539 3.513zm-11.363-5.139a22.14 22.14 0 0 0 22.865-.083l20.635-12.51a6.061 6.061 0 0 0 2.91-4.544c.215-1.934.055-4.363-.033-5.404l-61.784-34.265c-5.959-3.414-13.377-3.46-19.367-.13l-25.37 13.355c-.08.984-.208 3.187.044 5.098a5.964 5.964 0 0 0 2.883 4.364l57.218 34.119z"/><path d="m183.517 131.168-57.218-34.119c-4.646-2.77-4.543-9.533.184-12.162l22.285-12.389a20.692 20.692 0 0 1 20.339.13l58.788 33.67c4.709 2.697 4.793 9.459.153 12.272l-20.634 12.51a23.187 23.187 0 0 1-23.896.087z" fill="#fff"/><path d="M195.392 135.449c-4.28 0-8.561-1.14-12.387-3.421l-57.218-34.119c-2.493-1.486-3.955-4.106-3.911-7.008s1.585-5.476 4.121-6.887l22.284-12.389c6.602-3.669 14.771-3.616 21.322.136l58.787 33.67c2.522 1.445 4.05 4.042 4.086 6.948s-1.426 5.54-3.911 7.047l-20.635 12.51a24.162 24.162 0 0 1-12.539 3.513zm-11.363-5.139a22.136 22.136 0 0 0 22.865-.084l20.635-12.51a6.065 6.065 0 0 0 2.948-5.312 6.069 6.069 0 0 0-3.08-5.238l-58.787-33.67c-5.948-3.406-13.366-3.454-19.355-.123l-22.284 12.389c-1.904 1.059-3.061 2.991-3.094 5.169s1.064 4.144 2.935 5.26l57.218 34.119z"/><path d="m259.666 69.366-18.545 11.112a28.551 28.551 0 0 1-29.285.039L192.33 68.899c-2.624-1.563-4.025-4.168-4.203-6.844-.204-3.068.173-6.403.173-6.403l21.516-12.012a28.955 28.955 0 0 1 29.321-.164l20.427 11.842c1.798 1.042 4.065 2.271 4.065 2.271s.141 5.197-.233 6.736a8.05 8.05 0 0 1-3.73 5.042z" fill="#fff"/><path d="M226.446 85.545a29.521 29.521 0 0 1-15.121-4.168l-19.506-11.618c-2.768-1.648-4.477-4.432-4.689-7.637-.208-3.121.16-6.442.176-6.582.037-.32.226-.604.507-.761l21.517-12.012c9.301-5.532 20.924-5.597 30.311-.156l20.427 11.842c1.785 1.035 4.036 2.255 4.039 2.257.314.17.514.495.523.852.015.546.133 5.377-.261 6.999a9.057 9.057 0 0 1-4.188 5.664l-18.545 11.112a29.526 29.526 0 0 1-15.188 4.208zM189.244 56.27c-.093 1.031-.269 3.467-.118 5.719.168 2.54 1.523 4.745 3.717 6.052l19.506 11.618a27.516 27.516 0 0 0 28.259-.037l18.545-11.112a7.075 7.075 0 0 0 3.272-4.42c.248-1.024.247-4.207.217-5.9a185.642 185.642 0 0 1-3.578-2.006l-20.428-11.842a27.975 27.975 0 0 0-28.309.158l-21.083 11.771z"/><path d="m259.666 65.366-18.545 11.112a28.551 28.551 0 0 1-29.285.039L192.33 64.899c-5.632-3.355-5.63-11.512.005-14.863l17.481-10.397a28.955 28.955 0 0 1 29.321-.164l20.427 11.842c5.374 3.116 5.43 10.856.102 14.049z" fill="#fff"/><path d="M226.446 81.545a29.521 29.521 0 0 1-15.121-4.168l-19.506-11.618a9.567 9.567 0 0 1-4.711-8.292 9.562 9.562 0 0 1 4.717-8.289l17.48-10.397a29.975 29.975 0 0 1 30.334-.169l20.427 11.842a9.075 9.075 0 0 1 4.563 7.853 9.073 9.073 0 0 1-4.449 7.918l-18.545 11.112a29.526 29.526 0 0 1-15.188 4.208zm-1.83-44.97a27.944 27.944 0 0 0-14.289 3.924l-17.48 10.397c-2.34 1.392-3.737 3.848-3.738 6.571s1.395 5.18 3.734 6.573l19.506 11.618a27.518 27.518 0 0 0 28.259-.037l18.545-11.112a7.091 7.091 0 0 0 3.477-6.188 7.09 7.09 0 0 0-3.566-6.137l-20.427-11.842a27.935 27.935 0 0 0-14.02-3.767z"/><path d="m324.833 106.967-18.545 11.112a28.551 28.551 0 0 1-29.285.039L257.497 106.5c-2.624-1.563-4.025-4.168-4.203-6.844-.204-3.068.173-6.403.173-6.403l21.516-12.012a28.955 28.955 0 0 1 29.321-.164l20.427 11.842c1.798 1.042 4.065 2.271 4.065 2.271s.141 5.197-.233 6.736a8.05 8.05 0 0 1-3.73 5.042z" fill="#fff"/><path d="M291.614 123.146a29.522 29.522 0 0 1-15.122-4.168l-19.506-11.618c-2.766-1.647-4.476-4.431-4.689-7.637-.207-3.122.161-6.442.177-6.582.037-.32.226-.604.507-.761l21.516-12.012c9.301-5.532 20.925-5.597 30.311-.156l20.427 11.842c1.785 1.035 4.036 2.255 4.039 2.257.314.17.514.495.523.852.015.546.133 5.377-.261 6.999-.577 2.38-2.064 4.392-4.188 5.664l-18.544 11.112a29.529 29.529 0 0 1-15.188 4.208zm-37.202-29.275c-.093 1.031-.27 3.468-.119 5.719.169 2.54 1.524 4.745 3.717 6.052l19.506 11.618a27.518 27.518 0 0 0 28.26-.037l18.544-11.112a7.068 7.068 0 0 0 3.272-4.42c.248-1.023.247-4.207.217-5.9a188.356 188.356 0 0 1-3.579-2.006l-20.427-11.842a27.975 27.975 0 0 0-28.309.158l-21.082 11.771z"/><path d="m324.833 102.967-18.545 11.112a28.551 28.551 0 0 1-29.285.039L257.497 102.5c-5.632-3.355-5.63-11.512.005-14.863l17.481-10.397a28.955 28.955 0 0 1 29.321-.164l20.427 11.842c5.374 3.116 5.43 10.856.102 14.049z" fill="#fff"/><path d="M291.614 119.146a29.522 29.522 0 0 1-15.122-4.168l-19.506-11.618a9.568 9.568 0 0 1-4.711-8.293 9.564 9.564 0 0 1 4.717-8.289l17.48-10.396a29.975 29.975 0 0 1 30.334-.17l20.427 11.842a9.075 9.075 0 0 1 4.563 7.854 9.073 9.073 0 0 1-4.449 7.918l-18.544 11.112a29.529 29.529 0 0 1-15.188 4.208zm-1.829-44.97a27.94 27.94 0 0 0-14.291 3.925l-17.48 10.396a7.583 7.583 0 0 0-3.738 6.571 7.588 7.588 0 0 0 3.734 6.574l19.506 11.618a27.518 27.518 0 0 0 28.26-.037l18.544-11.112a7.092 7.092 0 0 0 3.477-6.188 7.092 7.092 0 0 0-3.566-6.138l-20.427-11.842a27.93 27.93 0 0 0-14.018-3.766z"/><path d="m391.449 145.674-18.545 11.112a28.551 28.551 0 0 1-29.285.039l-19.506-11.618c-2.624-1.563-4.025-4.168-4.203-6.844-.204-3.068.173-6.403.173-6.403l21.516-12.012a28.955 28.955 0 0 1 29.321-.164l20.427 11.842c1.798 1.042 4.065 2.271 4.065 2.271s.141 5.197-.233 6.736a8.05 8.05 0 0 1-3.73 5.042z" fill="#fff"/><path d="M358.23 161.852a29.527 29.527 0 0 1-15.122-4.168l-19.506-11.618c-2.766-1.648-4.475-4.431-4.689-7.637-.207-3.122.161-6.442.177-6.582.037-.32.226-.604.507-.761l21.517-12.012c9.302-5.532 20.923-5.597 30.311-.156l20.426 11.842c1.785 1.035 4.037 2.255 4.04 2.257.314.17.514.495.523.853.015.545.133 5.377-.262 6.999-.577 2.38-2.063 4.391-4.188 5.664l-18.545 11.112a29.526 29.526 0 0 1-15.188 4.208zm-37.202-29.275c-.093 1.031-.27 3.468-.119 5.719.169 2.54 1.524 4.746 3.717 6.051l19.506 11.618a27.515 27.515 0 0 0 28.26-.037l18.545-11.112a7.067 7.067 0 0 0 3.271-4.419c.249-1.024.248-4.207.218-5.9a185.286 185.286 0 0 1-3.579-2.006l-20.427-11.842a27.977 27.977 0 0 0-28.309.158l-21.083 11.771z"/><path d="m391.449 141.674-18.545 11.112a28.551 28.551 0 0 1-29.285.039l-19.506-11.618c-5.632-3.355-5.63-11.512.005-14.863l17.481-10.397a28.955 28.955 0 0 1 29.321-.164l20.427 11.842c5.374 3.116 5.43 10.856.102 14.049z" fill="#fff"/><path d="M358.23 157.852a29.527 29.527 0 0 1-15.122-4.168l-19.506-11.618a9.567 9.567 0 0 1-4.711-8.292 9.568 9.568 0 0 1 4.717-8.289l17.481-10.397a29.977 29.977 0 0 1 30.334-.169l20.426 11.842c2.833 1.643 4.539 4.578 4.563 7.853s-1.639 6.235-4.448 7.919l-18.545 11.112a29.526 29.526 0 0 1-15.188 4.208zm-1.829-44.971a27.945 27.945 0 0 0-14.29 3.924l-17.481 10.397a7.583 7.583 0 0 0-3.738 6.571 7.59 7.59 0 0 0 3.734 6.574l19.506 11.618a27.515 27.515 0 0 0 28.26-.037l18.545-11.112a7.091 7.091 0 0 0 3.477-6.188 7.092 7.092 0 0 0-3.567-6.137l-20.426-11.842a27.934 27.934 0 0 0-14.019-3.767z"/><path d="m457.473 183.83-18.545 11.112a28.551 28.551 0 0 1-29.285.039l-19.506-11.618c-2.624-1.563-4.025-4.168-4.203-6.844-.204-3.068.173-6.403.173-6.403l21.516-12.012a28.955 28.955 0 0 1 29.321-.164l20.427 11.842c1.798 1.042 4.065 2.271 4.065 2.271s.141 5.197-.233 6.736a8.05 8.05 0 0 1-3.73 5.042z" fill="#fff"/><path d="M424.253 200.009a29.527 29.527 0 0 1-15.122-4.168l-19.505-11.618c-2.768-1.648-4.477-4.432-4.689-7.637-.208-3.122.16-6.442.176-6.582.037-.32.226-.604.507-.761l21.517-12.012c9.302-5.533 20.925-5.597 30.311-.156l20.427 11.842c1.785 1.035 4.036 2.255 4.039 2.257.314.17.514.495.523.852.015.545.133 5.377-.262 6.999-.577 2.379-2.063 4.391-4.188 5.664l-18.545 11.112a29.526 29.526 0 0 1-15.188 4.208zm-37.202-29.275c-.093 1.031-.269 3.467-.118 5.718.168 2.54 1.523 4.746 3.717 6.052l19.505 11.618a27.515 27.515 0 0 0 28.26-.037l18.545-11.112a7.067 7.067 0 0 0 3.271-4.419c.249-1.024.248-4.207.218-5.9a182.823 182.823 0 0 1-3.578-2.006l-20.428-11.842a27.977 27.977 0 0 0-28.309.158l-21.083 11.771z"/><path d="m457.473 179.83-18.545 11.112a28.551 28.551 0 0 1-29.285.039l-19.506-11.618c-5.632-3.355-5.63-11.512.005-14.863l17.481-10.397a28.955 28.955 0 0 1 29.321-.164l20.427 11.842c5.374 3.116 5.43 10.856.102 14.049z" fill="#fff"/><path d="M424.253 196.009a29.527 29.527 0 0 1-15.122-4.168l-19.505-11.618a9.568 9.568 0 0 1-4.711-8.293 9.562 9.562 0 0 1 4.717-8.289l17.48-10.396a29.974 29.974 0 0 1 30.334-.169l20.427 11.842a9.075 9.075 0 0 1 4.563 7.853 9.075 9.075 0 0 1-4.449 7.919l-18.545 11.112a29.526 29.526 0 0 1-15.188 4.208zm-1.829-44.971a27.945 27.945 0 0 0-14.29 3.924l-17.48 10.396c-2.34 1.392-3.737 3.849-3.738 6.571s1.395 5.18 3.734 6.573l19.505 11.618a27.515 27.515 0 0 0 28.26-.037l18.545-11.112a7.092 7.092 0 0 0 3.477-6.189 7.09 7.09 0 0 0-3.566-6.137l-20.427-11.842a27.934 27.934 0 0 0-14.019-3.767z"/><path d="m525.249 223.474-18.545 11.112a28.551 28.551 0 0 1-29.285.039l-19.506-11.618c-2.624-1.563-4.025-4.168-4.203-6.844-.204-3.068.173-6.403.173-6.403l21.516-12.012a28.955 28.955 0 0 1 29.321-.164l20.427 11.842c1.798 1.042 4.065 2.271 4.065 2.271s.141 5.197-.233 6.736a8.05 8.05 0 0 1-3.73 5.042z" fill="#fff"/><path d="M492.029 239.653a29.522 29.522 0 0 1-15.122-4.168l-19.506-11.618c-2.766-1.648-4.476-4.431-4.689-7.637-.207-3.122.161-6.442.177-6.582.037-.32.226-.604.507-.761l21.516-12.012c9.303-5.531 20.925-5.597 30.311-.156l20.427 11.842c1.785 1.035 4.036 2.255 4.039 2.257.314.17.514.495.523.852.015.545.133 5.376-.261 6.999-.577 2.38-2.064 4.392-4.188 5.664l-18.544 11.112a29.529 29.529 0 0 1-15.188 4.208zm-37.202-29.275c-.093 1.031-.27 3.468-.119 5.719.169 2.54 1.524 4.746 3.717 6.051l19.506 11.618a27.518 27.518 0 0 0 28.26-.037l18.544-11.112a7.068 7.068 0 0 0 3.272-4.419c.248-1.023.247-4.207.217-5.9a182.823 182.823 0 0 1-3.578-2.006l-20.428-11.842a27.977 27.977 0 0 0-28.309.158l-21.082 11.771z"/><path d="m525.249 219.474-18.545 11.112a28.551 28.551 0 0 1-29.285.039l-19.506-11.618c-5.632-3.355-5.63-11.512.005-14.863l17.481-10.397a28.955 28.955 0 0 1 29.321-.164l20.427 11.842c5.374 3.116 5.43 10.856.102 14.049z" fill="#fff"/><path d="M492.029 235.653a29.522 29.522 0 0 1-15.122-4.168l-19.506-11.618a9.568 9.568 0 0 1-4.711-8.293 9.564 9.564 0 0 1 4.717-8.289l17.48-10.397a29.977 29.977 0 0 1 30.334-.169l20.427 11.842c2.833 1.643 4.539 4.579 4.563 7.854s-1.64 6.235-4.449 7.918l-18.544 11.112a29.529 29.529 0 0 1-15.188 4.208zm-1.83-44.971a27.945 27.945 0 0 0-14.29 3.924l-17.48 10.397c-2.34 1.392-3.737 3.848-3.738 6.571s1.396 5.18 3.734 6.573l19.506 11.618a27.515 27.515 0 0 0 28.26-.037l18.544-11.112a7.09 7.09 0 0 0 3.477-6.188 7.092 7.092 0 0 0-3.566-6.138l-20.427-11.842a27.934 27.934 0 0 0-14.019-3.767z"/><path d="m592.136 262.104-18.545 11.112a28.551 28.551 0 0 1-29.285.039L524.8 261.637c-2.624-1.563-4.025-4.168-4.203-6.844-.204-3.068.173-6.403.173-6.403l21.516-12.012a28.955 28.955 0 0 1 29.321-.164l20.427 11.842c1.798 1.042 4.065 2.271 4.065 2.271s.141 5.197-.233 6.736a8.05 8.05 0 0 1-3.73 5.042z" fill="#fff"/><path d="M558.916 278.283a29.527 29.527 0 0 1-15.122-4.168l-19.506-11.618c-2.766-1.648-4.475-4.431-4.689-7.637-.207-3.122.161-6.442.177-6.582.037-.32.226-.604.507-.761l21.517-12.012c9.301-5.532 20.923-5.597 30.311-.156l20.427 11.841c1.763 1.023 4.017 2.245 4.039 2.257a1 1 0 0 1 .523.853c.015.545.133 5.377-.262 7-.576 2.379-2.063 4.391-4.188 5.664l-18.545 11.112a29.53 29.53 0 0 1-15.188 4.209zm-37.202-29.275c-.093 1.031-.27 3.467-.119 5.719.169 2.54 1.524 4.746 3.717 6.051l19.506 11.618a27.513 27.513 0 0 0 28.26-.038l18.545-11.112a7.07 7.07 0 0 0 3.271-4.419c.249-1.024.248-4.207.218-5.9a175.814 175.814 0 0 1-3.579-2.007l-20.427-11.841a27.975 27.975 0 0 0-28.309.158z"/><path d="m592.136 258.104-18.545 11.112a28.551 28.551 0 0 1-29.285.039L524.8 257.637c-5.632-3.355-5.63-11.512.005-14.863l17.481-10.397a28.955 28.955 0 0 1 29.321-.164l20.427 11.842c5.374 3.116 5.43 10.856.102 14.049z" fill="#fff"/><path d="M558.916 274.283a29.527 29.527 0 0 1-15.122-4.168l-19.506-11.618a9.565 9.565 0 0 1-4.71-8.293 9.564 9.564 0 0 1 4.716-8.289l17.481-10.396a29.975 29.975 0 0 1 30.334-.169l20.427 11.841a9.077 9.077 0 0 1 4.563 7.854 9.075 9.075 0 0 1-4.449 7.919l-18.545 11.112a29.527 29.527 0 0 1-15.188 4.209zm-1.83-44.971a27.944 27.944 0 0 0-14.289 3.924l-17.481 10.396c-2.34 1.392-3.737 3.848-3.737 6.571s1.395 5.18 3.733 6.574l19.506 11.618a27.513 27.513 0 0 0 28.26-.038l18.545-11.112c2.195-1.315 3.495-3.629 3.477-6.188s-1.352-4.854-3.566-6.138l-20.427-11.841a27.935 27.935 0 0 0-14.02-3.767z"/><path d="M659.425 301.108 640.88 312.22a28.551 28.551 0 0 1-29.285.039l-19.506-11.618c-2.624-1.563-4.025-4.168-4.203-6.844-.204-3.068.173-6.403.173-6.403l21.516-12.012a28.955 28.955 0 0 1 29.321-.164l20.427 11.842c1.798 1.042 4.065 2.271 4.065 2.271s.141 5.197-.233 6.736a8.05 8.05 0 0 1-3.73 5.042z" fill="#fff"/><path d="M626.206 317.286a29.525 29.525 0 0 1-15.122-4.168L591.578 301.5c-2.768-1.648-4.477-4.432-4.689-7.637-.208-3.122.16-6.442.176-6.582.037-.32.226-.604.507-.761l21.517-12.012c9.301-5.531 20.924-5.598 30.311-.156l20.427 11.842c1.785 1.035 4.036 2.255 4.039 2.257.314.17.514.495.523.852.015.545.133 5.376-.261 6.999-.578 2.381-2.065 4.392-4.188 5.664l-18.545 11.112a29.526 29.526 0 0 1-15.188 4.208zm-37.203-29.275c-.093 1.031-.269 3.467-.118 5.718.168 2.54 1.523 4.746 3.717 6.052l19.506 11.618a27.513 27.513 0 0 0 28.259-.037l18.545-11.112a7.075 7.075 0 0 0 3.272-4.419c.248-1.023.247-4.207.217-5.9a182.823 182.823 0 0 1-3.578-2.006l-20.428-11.842a27.975 27.975 0 0 0-28.309.158l-21.083 11.771z"/><path d="M659.425 297.108 640.88 308.22a28.551 28.551 0 0 1-29.285.039l-19.506-11.618c-5.632-3.355-5.63-11.512.005-14.863l17.481-10.397a28.955 28.955 0 0 1 29.321-.164l20.427 11.842c5.374 3.116 5.43 10.856.102 14.049z" fill="#fff"/><path d="M626.206 313.286a29.525 29.525 0 0 1-15.122-4.168L591.578 297.5a9.568 9.568 0 0 1-4.711-8.293 9.562 9.562 0 0 1 4.717-8.289l17.48-10.396a29.977 29.977 0 0 1 30.334-.169l20.427 11.842a9.075 9.075 0 0 1 4.563 7.853 9.075 9.075 0 0 1-4.449 7.919l-18.545 11.112a29.526 29.526 0 0 1-15.188 4.208zm-1.831-44.97a27.944 27.944 0 0 0-14.289 3.924l-17.48 10.396c-2.34 1.392-3.737 3.849-3.738 6.571s1.395 5.18 3.734 6.573l19.506 11.618a27.513 27.513 0 0 0 28.259-.037l18.545-11.112a7.092 7.092 0 0 0 3.477-6.189 7.09 7.09 0 0 0-3.566-6.137l-20.427-11.842a27.935 27.935 0 0 0-14.02-3.767z"/><path d="m296.569 161.146-18.545 11.112a28.551 28.551 0 0 1-29.285.039l-19.506-11.618c-2.624-1.563-4.025-4.168-4.203-6.844-.204-3.068.173-6.403.173-6.403l21.516-12.012a28.955 28.955 0 0 1 29.321-.164l20.427 11.842c1.798 1.042 4.065 2.271 4.065 2.271s.141 5.197-.233 6.736a8.05 8.05 0 0 1-3.73 5.042z" fill="#fff"/><path d="M263.35 177.325a29.525 29.525 0 0 1-15.122-4.168l-19.505-11.618c-2.768-1.648-4.477-4.432-4.689-7.637-.208-3.122.16-6.442.176-6.582.037-.32.226-.604.507-.761l21.517-12.012c9.301-5.533 20.925-5.597 30.311-.156l20.427 11.842c1.785 1.035 4.036 2.255 4.039 2.257.314.17.514.495.523.852.015.545.133 5.377-.262 6.999-.577 2.38-2.063 4.391-4.188 5.664l-18.545 11.112a29.526 29.526 0 0 1-15.188 4.208zm-37.202-29.275c-.093 1.031-.269 3.467-.118 5.718.168 2.54 1.523 4.746 3.717 6.052l19.505 11.618a27.513 27.513 0 0 0 28.26-.037l18.545-11.112a7.067 7.067 0 0 0 3.271-4.419c.249-1.024.248-4.207.218-5.9a182.823 182.823 0 0 1-3.578-2.006l-20.428-11.842a27.977 27.977 0 0 0-28.309.158l-21.083 11.771z"/><path d="m296.569 157.146-18.545 11.112a28.551 28.551 0 0 1-29.285.039l-19.506-11.618c-5.632-3.355-5.63-11.512.005-14.863l17.481-10.397a28.955 28.955 0 0 1 29.321-.164l20.427 11.842c5.374 3.116 5.43 10.856.102 14.049z" fill="#fff"/><path d="M263.35 173.325a29.525 29.525 0 0 1-15.122-4.168l-19.505-11.618a9.566 9.566 0 0 1-4.711-8.292 9.564 9.564 0 0 1 4.717-8.29l17.48-10.397a29.977 29.977 0 0 1 30.334-.17l20.427 11.842a9.077 9.077 0 0 1 4.563 7.854 9.073 9.073 0 0 1-4.449 7.918l-18.545 11.112a29.526 29.526 0 0 1-15.188 4.208zm-1.829-44.97a27.936 27.936 0 0 0-14.29 3.925l-17.48 10.396c-2.34 1.392-3.737 3.849-3.738 6.571s1.396 5.18 3.734 6.573l19.505 11.618a27.513 27.513 0 0 0 28.26-.037l18.545-11.112a7.091 7.091 0 0 0 3.477-6.188 7.09 7.09 0 0 0-3.566-6.137l-20.427-11.842a27.933 27.933 0 0 0-14.019-3.766z"/><path d="m362.593 199.303-18.545 11.112a28.551 28.551 0 0 1-29.285.039l-19.506-11.618c-2.624-1.563-4.025-4.168-4.203-6.844-.204-3.068.173-6.403.173-6.403l21.516-12.012a28.955 28.955 0 0 1 29.321-.164l20.427 11.842c1.798 1.042 4.065 2.271 4.065 2.271s.141 5.197-.233 6.736a8.05 8.05 0 0 1-3.73 5.042z" fill="#fff"/><path d="M329.373 215.482a29.521 29.521 0 0 1-15.121-4.168l-19.506-11.618c-2.768-1.648-4.477-4.432-4.689-7.637-.207-3.122.16-6.442.176-6.582a.998.998 0 0 1 .507-.761l21.517-12.012c9.301-5.531 20.923-5.597 30.311-.156l20.427 11.842c1.785 1.035 4.036 2.255 4.039 2.257.314.17.514.495.523.852.015.545.133 5.376-.261 6.999-.578 2.381-2.065 4.392-4.188 5.664l-18.545 11.112a29.526 29.526 0 0 1-15.188 4.208zm-37.202-29.275c-.092 1.031-.269 3.468-.118 5.719.168 2.539 1.523 4.745 3.717 6.051l19.506 11.618a27.513 27.513 0 0 0 28.259-.037l18.545-11.112a7.075 7.075 0 0 0 3.272-4.419c.248-1.023.247-4.207.217-5.9a182.823 182.823 0 0 1-3.578-2.006l-20.428-11.842a27.977 27.977 0 0 0-28.309.158l-21.083 11.771z"/><path d="m362.593 195.303-18.545 11.112a28.551 28.551 0 0 1-29.285.039l-19.506-11.618c-5.632-3.355-5.63-11.512.005-14.863l17.481-10.397a28.955 28.955 0 0 1 29.321-.164l20.427 11.842c5.374 3.116 5.43 10.856.102 14.049z" fill="#fff"/><path d="M329.373 211.482a29.521 29.521 0 0 1-15.121-4.168l-19.506-11.618a9.566 9.566 0 0 1-4.711-8.292 9.564 9.564 0 0 1 4.717-8.29l17.48-10.397a29.977 29.977 0 0 1 30.334-.169l20.427 11.842a9.077 9.077 0 0 1 4.563 7.854 9.073 9.073 0 0 1-4.449 7.918l-18.545 11.112a29.526 29.526 0 0 1-15.188 4.208zm-1.83-44.971a27.944 27.944 0 0 0-14.289 3.924l-17.48 10.397c-2.34 1.392-3.737 3.849-3.738 6.571s1.396 5.18 3.734 6.573l19.506 11.618a27.513 27.513 0 0 0 28.259-.037l18.545-11.112a7.091 7.091 0 0 0 3.477-6.188 7.09 7.09 0 0 0-3.566-6.137l-20.427-11.842a27.935 27.935 0 0 0-14.02-3.767z"/><path d="m430.369 238.947-18.545 11.112a28.551 28.551 0 0 1-29.285.039l-19.506-11.618c-2.624-1.563-4.025-4.168-4.203-6.844-.204-3.068.173-6.403.173-6.403l21.516-12.012a28.955 28.955 0 0 1 29.321-.164l20.427 11.842c1.798 1.042 4.065 2.271 4.065 2.271s.141 5.197-.233 6.736a8.05 8.05 0 0 1-3.73 5.042z" fill="#fff"/><path d="M397.15 255.125a29.525 29.525 0 0 1-15.122-4.168l-19.506-11.618c-2.766-1.648-4.476-4.431-4.689-7.637-.207-3.122.161-6.442.177-6.582.037-.32.226-.604.507-.761l21.517-12.012c9.301-5.533 20.925-5.597 30.311-.156l20.426 11.842c1.765 1.023 4.018 2.245 4.04 2.257a1 1 0 0 1 .523.853c.015.545.133 5.377-.262 7-.576 2.379-2.063 4.391-4.188 5.663l-18.545 11.112a29.526 29.526 0 0 1-15.188 4.208zm-37.202-29.275c-.093 1.031-.27 3.468-.119 5.719.169 2.54 1.524 4.746 3.717 6.051l19.506 11.618a27.513 27.513 0 0 0 28.26-.037l18.545-11.112a7.067 7.067 0 0 0 3.271-4.419c.249-1.024.248-4.207.218-5.9a182.589 182.589 0 0 1-3.58-2.006l-20.426-11.842a27.977 27.977 0 0 0-28.309.158l-21.083 11.771z"/><path d="m430.369 234.947-18.545 11.112a28.551 28.551 0 0 1-29.285.039l-19.506-11.618c-5.632-3.355-5.63-11.512.005-14.863l17.481-10.397a28.955 28.955 0 0 1 29.321-.164l20.427 11.842c5.374 3.116 5.43 10.856.102 14.049z" fill="#fff"/><path d="M397.15 251.125a29.525 29.525 0 0 1-15.122-4.168l-19.506-11.618a9.568 9.568 0 0 1-4.711-8.292 9.57 9.57 0 0 1 4.717-8.29l17.481-10.396a29.98 29.98 0 0 1 30.334-.17l20.426 11.842c2.833 1.643 4.539 4.579 4.563 7.854s-1.639 6.235-4.448 7.918l-18.545 11.112a29.526 29.526 0 0 1-15.188 4.208zm-1.829-44.97a27.945 27.945 0 0 0-14.29 3.924l-17.481 10.396a7.585 7.585 0 0 0-3.738 6.571 7.586 7.586 0 0 0 3.734 6.573l19.506 11.618a27.513 27.513 0 0 0 28.26-.037l18.545-11.112a7.091 7.091 0 0 0 3.477-6.188 7.095 7.095 0 0 0-3.567-6.138l-20.426-11.842a27.933 27.933 0 0 0-14.019-3.766z"/><path d="m497.256 277.576-18.545 11.112a28.551 28.551 0 0 1-29.285.039l-19.506-11.618c-2.624-1.563-4.025-4.168-4.203-6.844-.204-3.068.173-6.403.173-6.403l21.516-12.012a28.955 28.955 0 0 1 29.321-.164l20.427 11.842c1.798 1.042 4.065 2.271 4.065 2.271s.141 5.197-.233 6.736a8.05 8.05 0 0 1-3.73 5.042z" fill="#fff"/><path d="M464.036 293.755a29.521 29.521 0 0 1-15.121-4.168l-19.506-11.618c-2.768-1.648-4.477-4.432-4.689-7.637-.208-3.122.16-6.442.176-6.582.037-.32.226-.604.507-.761l21.517-12.012c9.302-5.532 20.925-5.596 30.311-.156l20.427 11.842c1.785 1.035 4.036 2.255 4.039 2.257.314.17.514.495.523.852.015.545.133 5.377-.262 6.999-.577 2.379-2.063 4.391-4.188 5.664l-18.545 11.112a29.526 29.526 0 0 1-15.188 4.208zm-37.202-29.275c-.093 1.031-.269 3.467-.118 5.718.168 2.54 1.523 4.746 3.717 6.052l19.506 11.618a27.513 27.513 0 0 0 28.259-.037l18.545-11.112a7.067 7.067 0 0 0 3.271-4.419c.249-1.024.248-4.207.218-5.9a182.823 182.823 0 0 1-3.578-2.006l-20.428-11.842a27.977 27.977 0 0 0-28.309.158l-21.083 11.771z"/><path d="m497.256 273.576-18.545 11.112a28.551 28.551 0 0 1-29.285.039l-19.506-11.618c-5.632-3.355-5.63-11.512.005-14.863l17.481-10.397a28.955 28.955 0 0 1 29.321-.164l20.427 11.842c5.374 3.116 5.43 10.856.102 14.049z" fill="#fff"/><path d="M464.036 289.755a29.513 29.513 0 0 1-15.121-4.169l-19.506-11.618a9.568 9.568 0 0 1-4.711-8.293 9.562 9.562 0 0 1 4.717-8.289l17.48-10.396a29.974 29.974 0 0 1 30.334-.169l20.427 11.842a9.075 9.075 0 0 1 4.563 7.853 9.075 9.075 0 0 1-4.449 7.919l-18.545 11.112a29.526 29.526 0 0 1-15.188 4.208zm-1.829-44.971a27.945 27.945 0 0 0-14.29 3.924l-17.48 10.396c-2.34 1.392-3.737 3.849-3.738 6.571s1.395 5.18 3.734 6.573l19.506 11.618a27.513 27.513 0 0 0 28.259-.037l18.545-11.112a7.092 7.092 0 0 0 3.477-6.189 7.09 7.09 0 0 0-3.566-6.137l-20.427-11.842a27.934 27.934 0 0 0-14.019-3.767z"/><path d="m463.812 336.163-18.545 11.112a28.551 28.551 0 0 1-29.285.039l-19.506-11.618c-2.624-1.563-4.025-4.168-4.203-6.844-.204-3.068.173-6.403.173-6.403l21.516-12.012a28.955 28.955 0 0 1 29.321-.164l20.427 11.842c1.798 1.042 4.065 2.271 4.065 2.271s.141 5.197-.233 6.736a8.05 8.05 0 0 1-3.73 5.042z" fill="#fff"/><path d="M430.593 352.342a29.527 29.527 0 0 1-15.122-4.168l-19.506-11.618c-2.766-1.648-4.475-4.431-4.689-7.637-.207-3.122.161-6.442.177-6.582.037-.32.226-.604.507-.761l21.517-12.012c9.301-5.531 20.924-5.597 30.311-.156l20.427 11.842c1.764 1.023 4.017 2.245 4.039 2.257.314.17.514.495.523.853.015.545.133 5.377-.262 6.999-.577 2.38-2.063 4.391-4.188 5.664l-18.545 11.112a29.526 29.526 0 0 1-15.188 4.208zm-37.202-29.275c-.093 1.031-.27 3.468-.119 5.719.169 2.54 1.524 4.746 3.717 6.051l19.506 11.618a27.515 27.515 0 0 0 28.26-.037l18.545-11.112a7.067 7.067 0 0 0 3.271-4.419c.249-1.024.248-4.207.218-5.9a190.852 190.852 0 0 1-3.579-2.006l-20.427-11.842a27.977 27.977 0 0 0-28.309.158l-21.083 11.771z"/><path d="m463.812 332.163-18.545 11.112a28.551 28.551 0 0 1-29.285.039l-19.506-11.618c-5.632-3.355-5.63-11.512.005-14.863l17.481-10.397a28.955 28.955 0 0 1 29.321-.164l20.427 11.842c5.374 3.116 5.43 10.856.102 14.049z" fill="#fff"/><path d="M430.593 348.342a29.527 29.527 0 0 1-15.122-4.168l-19.506-11.618a9.568 9.568 0 0 1-4.711-8.293 9.569 9.569 0 0 1 4.717-8.289l17.481-10.396a29.977 29.977 0 0 1 30.334-.169l20.427 11.842a9.075 9.075 0 0 1 4.563 7.853 9.075 9.075 0 0 1-4.449 7.919l-18.545 11.112a29.526 29.526 0 0 1-15.188 4.208zm-1.83-44.971a27.944 27.944 0 0 0-14.289 3.924l-17.481 10.396a7.583 7.583 0 0 0-3.738 6.571 7.59 7.59 0 0 0 3.734 6.574l19.506 11.618a27.515 27.515 0 0 0 28.26-.037l18.545-11.112a7.092 7.092 0 0 0 3.477-6.189 7.09 7.09 0 0 0-3.566-6.137l-20.427-11.842a27.935 27.935 0 0 0-14.02-3.767z"/><path d="m530.699 374.793-18.545 11.112a28.551 28.551 0 0 1-29.285.039l-19.506-11.618c-2.624-1.563-4.025-4.168-4.203-6.844-.204-3.068.173-6.403.173-6.403l21.516-12.012a28.955 28.955 0 0 1 29.321-.164l20.427 11.842c1.798 1.042 4.065 2.271 4.065 2.271s.141 5.197-.233 6.736a8.05 8.05 0 0 1-3.73 5.042z" fill="#fff"/><path d="M497.48 390.971a29.521 29.521 0 0 1-15.121-4.168l-19.506-11.618c-2.768-1.648-4.477-4.432-4.689-7.637-.207-3.122.16-6.442.176-6.582a.998.998 0 0 1 .507-.761l21.517-12.012c9.301-5.533 20.925-5.597 30.311-.156l20.427 11.842c1.764 1.023 4.017 2.245 4.039 2.257.314.17.514.495.523.853.015.545.133 5.377-.261 6.999-.578 2.381-2.065 4.392-4.188 5.664l-18.545 11.112a29.526 29.526 0 0 1-15.188 4.208zm-37.202-29.275c-.092 1.031-.269 3.468-.118 5.719.168 2.539 1.523 4.745 3.717 6.051l19.506 11.618a27.513 27.513 0 0 0 28.259-.037l18.545-11.112a7.075 7.075 0 0 0 3.272-4.419c.248-1.024.247-4.207.217-5.9a182.933 182.933 0 0 1-3.579-2.006l-20.427-11.842a27.977 27.977 0 0 0-28.309.158l-21.083 11.771z"/><path d="m530.699 370.793-18.545 11.112a28.551 28.551 0 0 1-29.285.039l-19.506-11.618c-5.632-3.355-5.63-11.512.005-14.863l17.481-10.397a28.955 28.955 0 0 1 29.321-.164l20.427 11.842c5.374 3.116 5.43 10.856.102 14.049z" fill="#fff"/><path d="M497.48 386.971a29.521 29.521 0 0 1-15.121-4.168l-19.506-11.618a9.566 9.566 0 0 1-4.711-8.292 9.564 9.564 0 0 1 4.717-8.29l17.48-10.396a29.98 29.98 0 0 1 30.334-.17l20.427 11.842a9.077 9.077 0 0 1 4.563 7.854 9.073 9.073 0 0 1-4.449 7.918l-18.545 11.112a29.526 29.526 0 0 1-15.188 4.208zm-1.829-44.97a27.945 27.945 0 0 0-14.29 3.924l-17.48 10.396c-2.34 1.392-3.737 3.849-3.738 6.571s1.396 5.18 3.734 6.573l19.506 11.618a27.513 27.513 0 0 0 28.259-.037l18.545-11.112a7.091 7.091 0 0 0 3.477-6.188 7.09 7.09 0 0 0-3.566-6.137l-20.427-11.842a27.933 27.933 0 0 0-14.019-3.766z"/><path d="m131.524 144.032-18.545 11.112a28.551 28.551 0 0 1-29.285.039l-19.506-11.618c-2.624-1.563-4.025-4.168-4.203-6.844-.204-3.068.173-6.403.173-6.403l21.516-12.012a28.955 28.955 0 0 1 29.321-.164l20.427 11.842c1.798 1.042 4.065 2.271 4.065 2.271s.141 5.197-.233 6.736a8.05 8.05 0 0 1-3.73 5.042z" fill="#fff"/><path d="M98.305 160.21a29.522 29.522 0 0 1-15.122-4.168l-19.506-11.618c-2.766-1.648-4.476-4.431-4.689-7.637-.207-3.122.161-6.442.177-6.582.037-.32.226-.604.507-.761l21.516-12.012c9.301-5.532 20.924-5.597 30.311-.156l20.427 11.842c1.785 1.035 4.036 2.255 4.039 2.257.314.17.514.495.523.852.015.545.133 5.377-.261 6.999-.577 2.38-2.064 4.392-4.188 5.664l-18.544 11.112a29.529 29.529 0 0 1-15.188 4.208zm-37.202-29.275c-.093 1.031-.27 3.468-.119 5.719.169 2.54 1.524 4.746 3.717 6.051l19.506 11.618a27.515 27.515 0 0 0 28.26-.037l18.544-11.112a7.068 7.068 0 0 0 3.272-4.419c.248-1.024.247-4.207.217-5.9a182.933 182.933 0 0 1-3.579-2.006l-20.427-11.842a27.977 27.977 0 0 0-28.309.158l-21.082 11.771z"/><path d="m131.524 140.032-18.545 11.112a28.551 28.551 0 0 1-29.285.039l-19.506-11.618c-5.632-3.355-5.63-11.512.005-14.863l17.481-10.397a28.955 28.955 0 0 1 29.321-.164l20.427 11.842c5.374 3.116 5.43 10.856.102 14.049z" fill="#fff"/><path d="M98.305 156.21a29.522 29.522 0 0 1-15.122-4.168l-19.506-11.618a9.568 9.568 0 0 1-4.711-8.293 9.564 9.564 0 0 1 4.717-8.289l17.48-10.396a29.977 29.977 0 0 1 30.334-.17l20.427 11.842a9.075 9.075 0 0 1 4.563 7.854 9.073 9.073 0 0 1-4.449 7.918l-18.544 11.112a29.529 29.529 0 0 1-15.188 4.208zm-1.83-44.97a27.939 27.939 0 0 0-14.29 3.925l-17.48 10.396a7.583 7.583 0 0 0-3.738 6.571 7.586 7.586 0 0 0 3.734 6.573l19.506 11.618a27.515 27.515 0 0 0 28.26-.037l18.544-11.112a7.09 7.09 0 0 0 3.477-6.188 7.093 7.093 0 0 0-3.566-6.138l-20.427-11.842a27.93 27.93 0 0 0-14.019-3.766z"/><path d="m198.411 182.661-18.545 11.112a28.551 28.551 0 0 1-29.285.039l-19.506-11.618c-2.624-1.563-4.025-4.168-4.203-6.844-.204-3.068.173-6.403.173-6.403l21.516-12.012a28.955 28.955 0 0 1 29.321-.164l20.427 11.842c1.798 1.042 4.065 2.271 4.065 2.271s.141 5.197-.233 6.736a8.05 8.05 0 0 1-3.73 5.042z" fill="#fff"/><path d="M165.192 198.84a29.527 29.527 0 0 1-15.122-4.168l-19.506-11.618c-2.766-1.648-4.475-4.431-4.689-7.637-.207-3.122.161-6.442.177-6.582.037-.32.226-.604.507-.761l21.517-12.012c9.302-5.533 20.925-5.597 30.311-.156l20.427 11.842c1.763 1.022 4.017 2.244 4.039 2.256a1 1 0 0 1 .523.853c.015.545.133 5.377-.262 7-.576 2.379-2.063 4.391-4.188 5.664l-18.545 11.112a29.53 29.53 0 0 1-15.188 4.209zm-37.202-29.275c-.093 1.031-.27 3.467-.119 5.719.169 2.54 1.524 4.746 3.717 6.051l19.506 11.618a27.513 27.513 0 0 0 28.26-.038l18.545-11.112a7.07 7.07 0 0 0 3.271-4.419c.249-1.024.248-4.207.218-5.9a180.037 180.037 0 0 1-3.579-2.006l-20.427-11.842a27.977 27.977 0 0 0-28.309.158z"/><path d="m198.411 178.661-18.545 11.112a28.551 28.551 0 0 1-29.285.039l-19.506-11.618c-5.632-3.355-5.63-11.512.005-14.863l17.481-10.397a28.955 28.955 0 0 1 29.321-.164l20.427 11.842c5.374 3.116 5.43 10.856.102 14.049z" fill="#fff"/><path d="M165.192 194.84a29.527 29.527 0 0 1-15.122-4.168l-19.506-11.618a9.565 9.565 0 0 1-4.71-8.293 9.564 9.564 0 0 1 4.716-8.289l17.481-10.396a29.974 29.974 0 0 1 30.334-.169l20.427 11.842a9.075 9.075 0 0 1 4.563 7.853 9.075 9.075 0 0 1-4.449 7.919l-18.545 11.112a29.527 29.527 0 0 1-15.188 4.209zm-1.829-44.971a27.945 27.945 0 0 0-14.29 3.924l-17.481 10.396c-2.34 1.392-3.737 3.848-3.737 6.571s1.395 5.18 3.733 6.574l19.506 11.618a27.51 27.51 0 0 0 28.26-.038l18.545-11.112a7.092 7.092 0 0 0 3.477-6.189 7.09 7.09 0 0 0-3.566-6.137l-20.427-11.842a27.934 27.934 0 0 0-14.019-3.767z"/><path d="m353.252 308.842-156.988-93.147a6.93 6.93 0 0 1-3.363-5.092c-.355-2.694.001-5.861.001-5.861l25.83-13.597a20.692 20.692 0 0 1 20.339.13l162.016 93.549s.376 3.469.08 6.132a7.04 7.04 0 0 1-3.386 5.289l-20.634 12.51a23.187 23.187 0 0 1-23.896.087z" fill="#fff"/><path d="M365.128 313.122c-4.28 0-8.562-1.14-12.388-3.421l-156.987-93.146a7.958 7.958 0 0 1-3.843-5.821c-.366-2.783-.017-5.969-.002-6.103a.999.999 0 0 1 .528-.773l25.83-13.597c6.579-3.659 14.75-3.606 21.302.146l162.02 93.551a1 1 0 0 1 .494.758c.016.146.385 3.609.08 6.351a8.054 8.054 0 0 1-3.861 6.033l-20.635 12.51a24.16 24.16 0 0 1-12.538 3.512zM193.849 205.374c-.08.983-.207 3.187.044 5.099a5.963 5.963 0 0 0 2.884 4.363l156.986 93.146a22.143 22.143 0 0 0 22.865-.083l20.635-12.51a6.066 6.066 0 0 0 2.91-4.544c.216-1.941.054-4.38-.033-5.415l-161.569-93.291c-5.945-3.406-13.361-3.452-19.353-.122l-25.37 13.355z"/><path d="m353.252 304.842-156.988-93.147c-4.646-2.77-4.543-9.533.184-12.162l22.285-12.389a20.692 20.692 0 0 1 20.339.13l158.558 92.698c4.709 2.697 4.793 9.459.153 12.272l-20.634 12.51a23.187 23.187 0 0 1-23.896.087z" fill="#fff"/><path d="M365.128 309.122c-4.28 0-8.561-1.139-12.387-3.42l-156.988-93.147c-2.494-1.487-3.956-4.107-3.912-7.009s1.585-5.476 4.121-6.886l22.284-12.389c6.602-3.668 14.771-3.617 21.322.136l158.565 92.702a8.046 8.046 0 0 1 4.077 6.943 8.05 8.05 0 0 1-3.91 7.047l-20.635 12.51a24.16 24.16 0 0 1-12.538 3.512zm-136.34-123.569c-3.305 0-6.61.821-9.569 2.466l-22.284 12.389c-1.904 1.058-3.061 2.99-3.094 5.168s1.064 4.144 2.935 5.26l156.987 93.146a22.14 22.14 0 0 0 22.865-.083l20.635-12.51a6.067 6.067 0 0 0 2.947-5.313 6.068 6.068 0 0 0-3.079-5.237l-158.565-92.702a19.681 19.681 0 0 0-9.778-2.584z"/></svg></g><g transform="translate(2132.4 1401.6) rotate(0.0 45.0 160.20000000000005) scale(1.178581250081846 1.1979809310151435)"><svg width="76.363" height="267.45" viewBox="0 0 76.363 267.45"><path d="M68.805 252.872a1 1 0 0 1-.967-.748L6.21 15.961a1 1 0 0 1 1.935-.505L69.773 251.62a1 1 0 0 1-.968 1.252z"/><ellipse cx="5.186" cy="8.078" fill="#87c159" rx="3.62" ry="7.382" transform="matrix(.94513722 -.32667359 .32667359 .94513722 -2.354 2.137)"/><path d="M6.986 16.157c-2.278 0-4.797-2.608-6.166-6.57C-.741 5.071-.041 1.016 2.448.156c2.489-.861 5.544 1.897 7.105 6.413.693 2.005.96 4.04.75 5.73-.24 1.94-1.085 3.255-2.379 3.702-.306.106-.62.157-.939.157zM3.384 2.001a.878.878 0 0 0-.282.044c-1.034.357-1.683 3.151-.392 6.888 1.292 3.738 3.527 5.531 4.562 5.176.519-.179.91-.948 1.047-2.058.17-1.373-.069-3.133-.656-4.831-1.184-3.426-3.161-5.221-4.279-5.221z"/><ellipse cx="71.177" cy="259.372" fill="#87c159" rx="3.62" ry="7.382" transform="matrix(.94513722 -.32667359 .32667359 .94513722 -80.824 37.481)"/><path d="M72.976 267.451c-2.278 0-4.797-2.608-6.167-6.57-.693-2.005-.959-4.04-.75-5.729.24-1.94 1.085-3.255 2.379-3.702 1.294-.448 2.77.066 4.157 1.443 1.208 1.2 2.255 2.965 2.948 4.97 1.561 4.517.861 8.571-1.629 9.432a2.87 2.87 0 0 1-.938.156zm-3.601-14.156a.866.866 0 0 0-.283.045c-.519.179-.91.948-1.048 2.057-.17 1.373.069 3.133.656 4.831 1.292 3.737 3.527 5.534 4.562 5.176 1.034-.357 1.683-3.151.392-6.888-.587-1.697-1.486-3.23-2.467-4.205-.659-.655-1.312-1.017-1.811-1.017z"/><path d="m26.236 130.357 15.65 8.412v-20.278l-15.65-9z" fill="#dbf301"/><path d="M41.886 139.769c-.163 0-.325-.04-.473-.119l-15.65-8.412a1.001 1.001 0 0 1-.527-.881v-20.866a1 1 0 0 1 1.498-.867l15.65 9a1 1 0 0 1 .501.867v20.278a.999.999 0 0 1-1 1zm-14.65-10.01 13.65 7.337v-18.027l-13.65-7.85v18.539z"/></svg></g></svg>