<svg xmlns="http://www.w3.org/2000/svg" viewBox="0 0 3000 3000" width="3000" height="3000"><g transform="translate(436.8 313.2) rotate(0.0 525.6 1034.4) scale(1.1998698771251977 1.199484444331062)"><svg width="876.095" height="1724.741" viewBox="0 0 876.095 1724.741"><path d="M23.14 500.589a39.698 39.698 0 0 1 15.92-17.054L869.186 11.93s-14.604-8.004-17.891-9.721c-3.005-1.57-6.762-1.723-10.124.207L20.92 473.685a39.694 39.694 0 0 0-16.206 17.66l18.426 9.243z" fill="#fff"/><path d="M23.14 501.589c-.154 0-.308-.036-.448-.106l-18.426-9.244a1 1 0 0 1-.458-1.316 40.519 40.519 0 0 1 16.614-18.105L840.672 1.549a11.48 11.48 0 0 1 11.085-.226c3.259 1.702 17.763 9.651 17.909 9.731a1 1 0 0 1 .014 1.746L39.554 484.405a38.563 38.563 0 0 0-15.515 16.622 1.003 1.003 0 0 1-.899.563zM6.041 490.892l16.653 8.354a40.554 40.554 0 0 1 15.867-16.579l828.572-470.72c-3.865-2.116-13.702-7.493-16.302-8.852a9.496 9.496 0 0 0-9.164.188L21.418 474.553a38.508 38.508 0 0 0-15.377 16.34z"/><path d="M4.714 491.346A39.687 39.687 0 0 0 1 508.256l2.58 1190.37c.015 4.999 2.343 9.191 5.796 11.895 3.606 2.824 24.099 14.333 28.804 13.132-.51-1.51-19.04-1205.558-19.04-1205.558a39.647 39.647 0 0 1 4-17.506z" fill="#fff"/><path d="M37.455 1724.728c-6.564 0-25.736-11.103-28.695-13.42-3.912-3.063-6.165-7.686-6.179-12.68L0 508.258a40.408 40.408 0 0 1 3.808-17.335 1.001 1.001 0 0 1 1.355-.471l18.426 9.243c.489.246.69.839.451 1.332a38.888 38.888 0 0 0-3.899 17.065c.184 11.961 18.421 1196.571 19.031 1205.43a1 1 0 0 1-.744 1.099 3.966 3.966 0 0 1-.973.106zM5.198 492.707A38.401 38.401 0 0 0 2 508.252l2.58 1190.372c.013 4.377 1.985 8.427 5.412 11.11 3.671 2.875 21.891 12.86 27.192 13.016-1.045-37.524-14.785-927.887-19.044-1204.639a40.943 40.943 0 0 1 3.679-17.065l-16.622-8.339z"/><path d="M858.835 1249.164 44.574 1721.576c-10.123 5.873-22.811-1.402-22.856-13.105L19.142 518.1a39.686 39.686 0 0 1 19.916-34.565L859.312 12.26c7.034-4.041 15.805 1.051 15.782 9.163l-1.859 1202.816a28.91 28.91 0 0 1-14.4 24.925z" fill="#fff"/><path d="M36.937 1724.656c-2.77 0-5.54-.724-8.068-2.174-5.082-2.914-8.129-8.15-8.151-14.008L18.142 518.101c-.056-14.588 7.768-28.166 20.418-35.434L858.814 11.393c3.616-2.078 7.929-2.069 11.537.026s5.755 5.835 5.744 10.007l-1.859 1202.815c-.029 10.592-5.737 20.474-14.898 25.788l-.502-.865.502.865-814.263 472.412c-2.545 1.477-5.342 2.215-8.138 2.215zM864.561 11.845c-1.63 0-3.262.427-4.75 1.283L39.556 484.402c-12.029 6.911-19.468 19.821-19.414 33.694l2.576 1190.373c.02 5.133 2.691 9.725 7.146 12.278 4.455 2.556 9.767 2.542 14.208-.036l814.261-472.412c8.549-4.959 13.875-14.179 13.902-24.063l1.859-1202.814c.009-3.45-1.766-6.542-4.748-8.273a9.508 9.508 0 0 0-4.787-1.304z"/><path d="m19.201 579.38-.059-61.28a39.686 39.686 0 0 1 19.916-34.565L859.312 12.26c7.034-4.041 15.805 1.051 15.782 9.163l-.057 66.742z" fill="#adc4cb"/><path d="M19.201 580.38a.999.999 0 0 1-1-.999l-.059-61.28c-.056-14.587 7.768-28.165 20.418-35.433L858.814 11.393c3.615-2.078 7.928-2.069 11.537.026 3.608 2.095 5.755 5.835 5.744 10.007l-.057 66.74a.999.999 0 0 1-.502.866L19.699 580.247a1.004 1.004 0 0 1-.498.133zm845.36-568.535a9.504 9.504 0 0 0-4.75 1.283L39.556 484.402c-12.028 6.911-19.468 19.821-19.414 33.694l.057 59.558 853.84-490.068.056-66.164c.009-3.45-1.766-6.542-4.748-8.274a9.514 9.514 0 0 0-4.786-1.304z"/><ellipse cx="845.018" cy="61.122" fill="#fff" rx="18.262" ry="10.384" transform="matrix(.5 -.8660254 .8660254 .5 369.576 762.368)"/><path d="M839.184 78.786c-1.36 0-2.644-.317-3.797-.982-5.528-3.192-5.628-13.02-.228-22.374s13.961-14.181 19.49-10.99c5.528 3.192 5.628 13.02.228 22.374-4.275 7.403-10.53 11.972-15.693 11.972zm11.73-33.306c-4.402 0-10.208 4.343-14.022 10.95-4.679 8.104-4.91 17.098-.504 19.642 4.407 2.545 12.08-2.155 16.758-10.257 4.679-8.104 4.91-17.098.504-19.642-.813-.47-1.738-.692-2.735-.692zm3.097 20.834h.01z"/><ellipse cx="807.055" cy="83.696" fill="#fff" rx="18.262" ry="10.384" transform="matrix(.5 -.8660254 .8660254 .5 331.044 740.778)"/><path d="M801.22 101.36c-1.36 0-2.644-.317-3.797-.982-5.528-3.192-5.628-13.02-.228-22.374 5.401-9.354 13.961-14.179 19.49-10.99 5.528 3.192 5.628 13.02.228 22.374-4.274 7.404-10.53 11.972-15.693 11.972zm11.73-33.306c-4.402 0-10.208 4.343-14.023 10.95-4.679 8.104-4.91 17.098-.504 19.642 4.405 2.544 12.08-2.154 16.758-10.257 4.679-8.104 4.91-17.098.504-19.642-.813-.47-1.738-.692-2.735-.692z"/><ellipse cx="769.522" cy="104.939" fill="#fff" rx="18.262" ry="10.384" transform="matrix(.5 -.8660254 .8660254 .5 293.881 718.895)"/><path d="M763.657 122.595c-1.368 0-2.639-.323-3.767-.974-2.727-1.574-4.213-4.833-4.185-9.176.027-4.138 1.433-8.825 3.957-13.197s5.881-7.933 9.451-10.025c3.747-2.196 7.313-2.538 10.039-.964 2.727 1.574 4.213 4.833 4.185 9.176-.027 4.138-1.433 8.826-3.957 13.197-2.524 4.372-5.881 7.933-9.451 10.025-2.197 1.288-4.333 1.938-6.272 1.938zm11.722-33.31c-1.582 0-3.372.559-5.254 1.662-3.276 1.92-6.376 5.223-8.73 9.3s-3.664 8.413-3.689 12.21c-.023 3.593 1.107 6.232 3.185 7.431 2.076 1.2 4.928.858 8.028-.958 3.276-1.92 6.376-5.223 8.73-9.3 2.354-4.077 3.664-8.413 3.689-12.21.023-3.593-1.107-6.232-3.185-7.431-.815-.471-1.751-.705-2.773-.705z"/></svg></g><g transform="translate(1699.2 718.8) rotate(0.0 433.19999999999993 815.9999999999999) scale(1.1986104751140296 1.1992936513127195)"><svg width="722.837" height="1360.801" viewBox="0 0 722.837 1360.801"><path d="M567.228 1270.606c15.678 24.296 12.632 57.531 3.272 64.797-4.133 3.208-36.151 20.724-36.151 20.724l-57-87.685s31.253-17.715 36.377-21.022c13.484-8.701 37.824-1.11 53.502 23.186z"/><path d="M534.35 1357.127a.998.998 0 0 1-.839-.455l-57-87.686a.998.998 0 0 1 .346-1.415c.313-.177 31.286-17.738 36.327-20.991 13.491-8.704 38.31-2.201 54.885 23.484 15.683 24.305 12.991 58.407 3.044 66.129-4.148 3.22-34.974 20.094-36.284 20.811a.996.996 0 0 1-.479.123zm-55.583-88.34 55.915 86.017c5.011-2.749 31.545-17.35 35.205-20.19 8.322-6.46 12.649-38.435-3.499-63.465-15.402-23.869-39.385-31.104-52.12-22.889-4.654 3.004-30.193 17.516-35.501 20.527z"/><path d="m508.406 1274.943-30.178-45.997 36.915-15.666 29.957 8.794v30.679z" fill="#fff"/><path d="M508.407 1275.943a.997.997 0 0 1-.837-.451l-30.178-45.997a1 1 0 0 1 .445-1.47l36.915-15.666c.213-.09.451-.104.672-.039l29.957 8.794a1 1 0 0 1 .718.96v30.679c0 .35-.183.675-.482.855l-36.694 22.19a.995.995 0 0 1-.517.145zm-28.686-46.544 28.992 44.189 35.387-21.399v-29.366l-28.896-8.482-35.483 15.059z"/><path d="M508.406 1282.528h-30.178v-53.582l30.178 10.617z" fill="#fff"/><path d="M508.406 1283.528h-30.178a1 1 0 0 1-1-1v-53.582a.999.999 0 0 1 1.332-.943l30.178 10.617a1 1 0 0 1 .668.943v42.965a1 1 0 0 1-1 1zm-29.178-2h28.178v-41.257l-28.178-9.913z"/><ellipse cx="504.671" cy="1313.061" fill="#adc4cb" rx="29.056" ry="52.355" transform="matrix(.84025446 -.54219225 .54219225 .84025446 -631.317 483.391)"/><path d="M523.156 1360.814c-4.912 0-10.396-1.548-16.148-4.625-10.12-5.412-19.919-14.94-27.592-26.832-15.952-24.72-17.6-52.143-3.674-61.128 6.84-4.416 16.284-3.81 26.592 1.703 10.12 5.412 19.919 14.94 27.592 26.832 15.952 24.72 17.6 52.143 3.674 61.128-3.022 1.951-6.554 2.922-10.443 2.922zm-36.962-93.506c-3.51 0-6.676.864-9.368 2.601-12.999 8.389-11.083 34.57 4.271 58.364 7.492 11.61 17.029 20.898 26.855 26.152 9.638 5.155 18.361 5.788 24.564 1.787 12.999-8.389 11.083-34.57-4.271-58.364-7.492-11.61-17.029-20.898-26.855-26.152-5.455-2.918-10.618-4.388-15.196-4.388z"/><ellipse cx="504.258" cy="1312.985" fill="#adc4cb" rx="14.644" ry="26.387" transform="matrix(.84025446 -.54219225 .54219225 .84025446 -631.342 483.155)"/><path d="M513.577 1337.549c-2.558 0-5.401-.8-8.375-2.39-5.174-2.767-10.177-7.63-14.09-13.692-3.912-6.063-6.281-12.625-6.67-18.479-.403-6.066 1.36-10.688 4.966-13.015 3.605-2.328 8.544-2.029 13.905.837 5.174 2.767 10.177 7.63 14.09 13.692 3.912 6.063 6.281 12.625 6.67 18.479.403 6.066-1.36 10.688-4.966 13.015-1.605 1.037-3.476 1.553-5.53 1.553zm-18.628-47.127c-1.675 0-3.181.409-4.455 1.231-2.968 1.915-4.408 5.894-4.055 11.202.367 5.521 2.624 11.745 6.355 17.527s8.473 10.403 13.352 13.013c4.692 2.508 8.911 2.835 11.877.921 2.968-1.915 4.408-5.894 4.055-11.202-.367-5.521-2.625-11.745-6.355-17.527-3.731-5.782-8.473-10.403-13.352-13.013-2.676-1.431-5.199-2.152-7.422-2.152zm210.223-99.43c15.678 24.296 12.632 57.531 3.272 64.797-4.133 3.208-36.151 20.724-36.151 20.724l-57-87.685s31.253-17.715 36.377-21.022c13.484-8.701 37.824-1.11 53.502 23.186z"/><path d="M672.294 1277.512a1 1 0 0 1-.839-.455l-57-87.685a1.002 1.002 0 0 1 .346-1.415c.313-.177 31.286-17.739 36.328-20.992 7.011-4.525 16.793-4.842 26.838-.871 10.675 4.221 20.635 12.87 28.046 24.355 15.683 24.305 12.991 58.408 3.044 66.129-4.148 3.22-34.974 20.093-36.284 20.81a.999.999 0 0 1-.479.123zm-55.583-88.339 55.915 86.016c5.011-2.749 31.545-17.349 35.205-20.189 8.322-6.461 12.653-38.434-3.499-63.465-7.187-11.137-16.811-19.51-27.101-23.579-9.438-3.73-18.556-3.479-25.019.691-4.654 3.003-30.193 17.515-35.501 20.527z"/><path d="m646.35 1195.329-30.178-45.997 36.915-15.667 29.957 8.794v30.679z" fill="#fff"/><path d="M646.351 1196.329a.998.998 0 0 1-.837-.452l-30.178-45.998a.997.997 0 0 1 .445-1.468l36.915-15.666c.213-.09.45-.104.672-.039l29.957 8.794a1 1 0 0 1 .718.959v30.679c0 .35-.183.675-.482.855l-36.694 22.191a.995.995 0 0 1-.517.145zm-28.686-46.545 28.992 44.19 35.387-21.4v-29.366l-28.896-8.482-35.483 15.059z"/><path d="M646.35 1202.913h-30.178v-53.581l30.178 10.616z" fill="#fff"/><path d="M646.35 1203.913h-30.178a1 1 0 0 1-1-1v-53.582a1 1 0 0 1 1.332-.943l30.178 10.617a1 1 0 0 1 .668.943v42.965a1 1 0 0 1-1 1zm-29.178-2h28.178v-41.257l-28.178-9.913z"/><ellipse cx="642.615" cy="1233.446" fill="#adc4cb" rx="29.056" ry="52.355" transform="matrix(.84025446 -.54219225 .54219225 .84025446 -566.114 545.465)"/><path d="M661.21 1281.151c-13.742 0-31.358-12.049-43.851-31.408-7.673-11.891-12.318-24.746-13.079-36.197-.775-11.663 2.564-20.517 9.405-24.931 6.84-4.415 16.284-3.809 26.592 1.703 10.12 5.412 19.919 14.941 27.592 26.833 15.952 24.72 17.6 52.143 3.674 61.128-3.02 1.949-6.528 2.873-10.333 2.873zm-37.072-93.457c-3.51 0-6.676.863-9.368 2.601-6.202 4.002-9.219 12.212-8.494 23.119.739 11.117 5.272 23.635 12.764 35.245 12.118 18.778 29.042 30.543 42.027 30.545 3.468 0 6.652-.838 9.392-2.605 12.999-8.389 11.083-34.57-4.271-58.364-7.492-11.61-17.029-20.898-26.855-26.153-5.455-2.917-10.618-4.387-15.196-4.387z"/><ellipse cx="642.202" cy="1233.37" fill="#adc4cb" rx="14.644" ry="26.387" transform="matrix(.84025446 -.54219225 .54219225 .84025446 -566.139 545.229)"/><path d="M651.607 1257.896c-7.112 0-16.162-6.143-22.551-16.044-8.188-12.688-8.952-26.817-1.704-31.495s19.807 1.839 27.995 14.53c8.188 12.688 8.952 26.817 1.704 31.494-1.592 1.027-3.442 1.515-5.444 1.515zm-18.668-47.106c-1.664 0-3.19.401-4.502 1.248-6.321 4.08-5.29 16.967 2.3 28.73 7.589 11.761 18.908 18.009 25.23 13.934 6.321-4.08 5.288-16.969-2.3-28.73-6.015-9.321-14.372-15.181-20.728-15.181zm-500.725-195.858c15.678 24.296 12.632 57.531 3.272 64.797-4.133 3.208-36.151 20.724-36.151 20.724l-57-87.685s31.253-17.715 36.377-21.022c13.484-8.701 37.824-1.11 53.502 23.186z"/><path d="M99.336 1101.452a1 1 0 0 1-.839-.455l-57-87.685a.998.998 0 0 1 .346-1.415c.313-.177 31.286-17.739 36.328-20.992 13.489-8.706 38.31-2.202 54.884 23.484 15.684 24.306 12.991 58.408 3.044 66.129-4.148 3.22-34.974 20.094-36.284 20.811a.996.996 0 0 1-.479.123zm-55.583-88.339 55.915 86.017c5.011-2.75 31.545-17.35 35.204-20.191 8.323-6.46 12.654-38.433-3.499-63.465-15.402-23.869-39.384-31.105-52.12-22.888-4.654 3.003-30.193 17.515-35.501 20.527z"/><path d="m73.392 1019.269-30.178-45.997 36.915-15.667 29.957 8.794v30.679z" fill="#fff"/><path d="M73.393 1020.269a1 1 0 0 1-.837-.452L42.378 973.82a.997.997 0 0 1 .445-1.468l36.915-15.667c.213-.09.45-.104.672-.039l29.957 8.794a1 1 0 0 1 .718.959v30.679a1 1 0 0 1-.482.855l-36.693 22.191a.995.995 0 0 1-.517.145zm-28.686-46.544 28.992 44.19 35.386-21.4v-29.366l-28.895-8.482-35.483 15.059z"/><path d="M73.392 1026.853H43.214v-53.581l30.178 10.616z" fill="#fff"/><path d="M73.392 1027.853H43.214a1 1 0 0 1-1-1v-53.582a1 1 0 0 1 1.332-.943l30.178 10.617a1 1 0 0 1 .668.943v42.965a1 1 0 0 1-1 1zm-29.178-2h28.178v-41.256l-28.178-9.913z"/><ellipse cx="69.657" cy="1057.386" fill="#adc4cb" rx="29.056" ry="52.355" transform="matrix(.84025446 -.54219225 .54219225 .84025446 -562.184 206.684)"/><path d="M88.142 1105.139c-4.912 0-10.396-1.548-16.148-4.624-10.12-5.412-19.919-14.941-27.592-26.833-7.673-11.891-12.318-24.746-13.079-36.197-.775-11.663 2.564-20.517 9.405-24.931 13.923-8.987 38.232 3.815 54.184 28.536 7.673 11.891 12.318 24.746 13.079 36.197.775 11.663-2.564 20.517-9.405 24.931-3.022 1.951-6.554 2.921-10.443 2.921zm-36.938-93.51c-3.468 0-6.652.838-9.392 2.606-6.202 4.002-9.219 12.212-8.494 23.118.739 11.118 5.272 23.635 12.764 35.245s17.029 20.898 26.854 26.153c9.639 5.154 18.361 5.79 24.564 1.786 6.202-4.002 9.219-12.212 8.494-23.118-.739-11.118-5.272-23.635-12.764-35.245-12.118-18.779-29.042-30.545-42.027-30.545zm218.954-76.312c15.678 24.296 12.632 57.531 3.272 64.797-4.133 3.208-36.151 20.724-36.151 20.724l-57-87.685s31.253-17.715 36.377-21.022c13.484-8.701 37.824-1.11 53.502 23.186z"/><path d="M237.28 1021.837a1 1 0 0 1-.839-.455l-57-87.685a1.002 1.002 0 0 1 .346-1.415c.313-.177 31.286-17.738 36.328-20.992 13.49-8.705 38.31-2.201 54.884 23.485 15.684 24.306 12.991 58.408 3.044 66.129-4.148 3.22-34.974 20.094-36.284 20.811a.996.996 0 0 1-.479.123zm-55.583-88.339 55.915 86.017c5.011-2.75 31.545-17.35 35.204-20.19 8.323-6.46 12.654-38.433-3.499-63.465-15.403-23.87-39.384-31.104-52.12-22.888-4.654 3.004-30.193 17.515-35.501 20.527z"/><path d="m211.336 939.654-30.178-45.997 36.915-15.666 29.957 8.794v30.679z" fill="#fff"/><path d="M211.337 940.654a.998.998 0 0 1-.837-.452l-30.178-45.997a.997.997 0 0 1 .445-1.468l36.915-15.666c.213-.09.45-.104.672-.039l29.957 8.794a1 1 0 0 1 .718.959v30.679c0 .35-.183.675-.482.855l-36.693 22.19a.995.995 0 0 1-.517.145zm-28.686-46.544 28.992 44.19 35.386-21.4v-29.366l-28.895-8.482-35.483 15.059z"/><path d="M211.336 947.239h-30.178v-53.582l30.178 10.617z" fill="#fff"/><path d="M211.336 948.239h-30.178a1 1 0 0 1-1-1v-53.582a1 1 0 0 1 1.332-.943l30.178 10.617a1 1 0 0 1 .668.943v42.965a1 1 0 0 1-1 1zm-29.178-2h28.178v-41.256l-28.178-9.913z"/><ellipse cx="207.601" cy="977.772" fill="#adc4cb" rx="29.056" ry="52.355" transform="matrix(.84025446 -.54219225 .54219225 .84025446 -496.981 268.758)"/><path d="M226.196 1025.476c-13.742 0-31.358-12.049-43.85-31.408-7.673-11.891-12.318-24.746-13.079-36.197-.775-11.664 2.564-20.518 9.405-24.932 13.924-8.988 38.232 3.815 54.184 28.536s17.6 52.142 3.674 61.128c-3.02 1.949-6.528 2.873-10.333 2.873zm-37.048-93.462c-3.468 0-6.652.838-9.392 2.606-6.202 4.002-9.219 12.212-8.494 23.118.739 11.118 5.272 23.635 12.764 35.246 12.118 18.779 29.042 30.543 42.027 30.545 3.468 0 6.652-.838 9.392-2.606 12.999-8.388 11.083-34.57-4.271-58.364-12.118-18.779-29.042-30.545-42.027-30.545z"/><ellipse cx="207.188" cy="977.695" fill="#adc4cb" rx="14.644" ry="26.387" transform="matrix(.84025446 -.54219225 .54219225 .84025446 -497.006 268.522)"/><path d="M216.507 1002.259c-2.558 0-5.401-.799-8.375-2.39-5.174-2.767-10.177-7.629-14.089-13.692-8.188-12.688-8.952-26.817-1.704-31.494 3.606-2.326 8.544-2.028 13.905.838 5.174 2.767 10.177 7.629 14.089 13.692 8.188 12.688 8.952 26.817 1.704 31.494-1.606 1.036-3.476 1.552-5.53 1.552zm-18.628-47.126c-1.675 0-3.18.409-4.455 1.231-6.321 4.079-5.29 16.967 2.3 28.729 3.731 5.782 8.473 10.403 13.352 13.012 4.691 2.508 8.91 2.835 11.878.921 6.321-4.079 5.29-16.967-2.3-28.729-3.731-5.782-8.473-10.403-13.352-13.012-2.676-1.431-5.199-2.152-7.423-2.152z"/><path d="M483.949 1315.036 39.25 1056.629A76.872 76.872 0 0 1 1 990.163V340.49c0-14.8 16.021-24.049 28.838-16.65l446.053 257.51a73.375 73.375 0 0 1 36.69 63.546v653.662c0 14.694-15.927 23.859-28.631 16.477z" fill="#87c159"/><path d="M493.523 1318.648c-3.462 0-6.923-.916-10.076-2.748L38.748 1057.494C14.847 1043.605 0 1017.806 0 990.164V340.49c0-7.312 3.78-13.86 10.112-17.516 6.332-3.655 13.893-3.656 20.225 0l446.053 257.51c22.939 13.243 37.189 37.924 37.189 64.412v653.662c0 7.263-3.758 13.762-10.053 17.384-3.134 1.804-6.57 2.706-10.005 2.706zm-9.071-4.477c5.652 3.284 12.411 3.298 18.079.037 5.667-3.261 9.05-9.111 9.05-15.65V644.896c0-25.775-13.867-49.793-36.189-62.68L29.337 324.706c-5.706-3.294-12.519-3.295-18.225 0C5.406 328 2 333.901 2 340.49v649.674c0 26.933 14.466 52.069 37.752 65.601l444.699 258.407z"/><path d="M720.47 513.42c.894 4.081 1.364 8.134 1.368 12.065l-2.336 652.807c-.01 6.592-2.683 11.389-6.689 14.516-7.046 5.492-200.435 116.891-209.46 122.074 5.405-3.243 9.227-9.121 9.227-16.321V644.895c0-6.457-.848-12.793-2.467-18.872L720.469 513.42z"/><path d="M503.355 1315.883a1 1 0 0 1-.515-1.857c5.474-3.284 8.742-9.065 8.742-15.464V644.896c0-6.287-.819-12.549-2.433-18.615a1 1 0 0 1 .494-1.139l210.356-112.603a1 1 0 0 1 1.448.668c.92 4.195 1.388 8.326 1.391 12.278l-2.336 652.811c-.009 6.404-2.455 11.695-7.073 15.301-7.319 5.706-207.567 120.999-209.577 122.153a.997.997 0 0 1-.497.133zm7.925-689.35a74.407 74.407 0 0 1 2.301 18.362v653.666c0 4.116-1.218 8.003-3.424 11.254 39.798-22.916 195.872-112.986 202.042-117.795 4.115-3.213 6.295-7.96 6.303-13.729l2.336-652.809c-.003-3.398-.364-6.942-1.074-10.549l-208.483 111.6z"/><path d="M510.114 626.023a73.383 73.383 0 0 0-34.219-44.674L29.835 323.844c-6.389-3.687-13.58-3.243-19.178-.029 6.119-3.533 202.057-116.669 209.566-118.377 6.09-1.39 13.165-.56 18.859 2.722l444.766 255.295c18.731 10.815 32.401 30.71 36.621 49.966L510.113 626.024z" fill="#fff"/><path d="M510.114 627.023a1.003 1.003 0 0 1-.966-.743c-4.913-18.456-17.215-34.517-33.752-44.065L29.336 324.71c-5.693-3.284-12.489-3.295-18.18-.028a1 1 0 0 1-.998-1.733l.119-.068c20.687-11.943 202.324-116.734 209.725-118.418 6.58-1.502 13.899-.443 19.58 2.831l444.765 255.294c18.088 10.443 32.65 30.312 37.1 50.619a1 1 0 0 1-.504 1.096L510.587 626.906a.995.995 0 0 1-.472.118zM20.218 320.236c3.475 0 6.95.914 10.118 2.742l446.06 257.505c16.63 9.602 29.093 25.613 34.35 44.068l208.582-111.653c-4.521-19.526-18.575-38.529-35.978-48.577L238.585 209.027c-5.257-3.029-12.037-4.005-18.139-2.614-5.591 1.272-125.961 70.198-201.678 113.876.483-.036.966-.053 1.45-.053z"/><path d="M439.56 1214.77 83.591 1009.169c-18.955-10.948-30.618-31.093-30.618-52.883V439.374c0-11.775 12.824-19.135 23.084-13.248L433.11 631.014c13.337 7.67 29.369 29.702 29.369 50.561v520.086c0 11.691-12.749 18.984-22.918 13.11z" fill="#87c159"/><path d="M447.223 1217.85c-2.804 0-5.608-.738-8.164-2.214L83.09 1010.035c-19.194-11.086-31.118-31.682-31.118-53.75V439.374c0-5.866 3.043-11.13 8.14-14.082 5.142-2.979 11.288-2.99 16.441-.033l357.053 204.887c14.426 8.296 29.872 30.941 29.872 51.428v520.085c0 5.827-3.025 11.052-8.092 13.978-2.556 1.475-5.359 2.213-8.163 2.213zm-7.164-3.946c4.485 2.591 9.841 2.592 14.326 0 4.441-2.563 7.092-7.141 7.092-12.245V681.574c0-19.794-14.927-41.676-28.868-49.694L75.558 426.994c-4.527-2.598-9.926-2.587-14.443.029-4.473 2.59-7.143 7.208-7.143 12.352v516.912c0 21.355 11.541 41.287 30.118 52.018l355.969 205.601z"/><path d="m52.972 593.227 409.506 235.314v-16.217L52.972 575.728z" fill="#fff"/><path d="M462.478 829.541a.994.994 0 0 1-.498-.133L52.474 594.095a1 1 0 0 1-.502-.867v-17.5a.998.998 0 0 1 1.5-.866l409.506 236.596c.309.179.5.509.5.866v16.217a1 1 0 0 1-1 1zM53.972 592.649l407.506 234.164v-13.912L53.972 577.461z"/><path d="m76.984 582.171-21.847-13.42c-1.42-.872-3.234-1.17-4.482-.426-1.182.704-3.318 1.882-3.318 1.882l1.481 20.396c0 1.343.714 2.586 1.876 3.261l23.513 16.151s2.899-1.185 3.441-1.445a1.907 1.907 0 0 0 1.091-1.734V585.31c0-1.28-.665-2.468-1.755-3.138z" fill="#fff"/><path d="M74.208 611.014c-.199 0-.397-.06-.566-.176l-23.514-16.15c-1.4-.812-2.309-2.393-2.309-4.085l-1.478-20.323a1.001 1.001 0 0 1 .515-.948c.002-.001 2.118-1.168 3.289-1.866 1.483-.884 3.65-.715 5.517.433l21.847 13.42a4.716 4.716 0 0 1 2.232 3.991v21.526a2.901 2.901 0 0 1-1.658 2.635c-.552.266-3.196 1.347-3.495 1.47a.994.994 0 0 1-.378.074zm-25.826-40.243 1.435 19.759c.002 1.056.531 1.974 1.381 2.469l23.131 15.884c.973-.399 2.535-1.047 2.886-1.216a.905.905 0 0 0 .525-.833v-21.526c0-.926-.49-1.802-1.279-2.287l-21.847-13.42c-1.204-.739-2.621-.913-3.447-.419-.81.482-2.065 1.186-2.786 1.587z"/><path d="m73.533 583.623-21.847-13.42c-2.764-1.698-6.319.291-6.319 3.534v18.318c0 1.343.714 2.586 1.876 3.261l25.156 14.634c1.282.746 2.889-.179 2.889-1.662v-21.526c0-1.28-.665-2.468-1.755-3.138z" fill="#fff"/><path d="M73.365 611.215c-.505 0-1.01-.134-1.469-.401L46.74 596.181a4.788 4.788 0 0 1-2.373-4.125v-18.317c0-1.891.985-3.57 2.635-4.493a5.09 5.09 0 0 1 5.208.106l21.846 13.42a4.713 4.713 0 0 1 2.232 3.99v21.526a2.891 2.891 0 0 1-1.466 2.533 2.914 2.914 0 0 1-1.457.394zm-23.849-40.632c-.526 0-1.053.135-1.539.407a3.11 3.11 0 0 0-1.611 2.748v18.317c0 .984.528 1.902 1.379 2.397l25.156 14.633a.905.905 0 0 0 .923.002.906.906 0 0 0 .463-.799v-21.526c0-.925-.49-1.801-1.279-2.286l-21.846-13.42a3.137 3.137 0 0 0-1.646-.472z"/><path d="m67.969 679.409-3.789 2.561-18.82-11.248v-70.757c0-6.183 6.689-10.051 12.047-6.967l6.533 3.76a8.039 8.039 0 0 1 4.029 6.967v75.683z" fill="#fff"/><path d="M64.18 682.971a.998.998 0 0 1-.513-.142l-18.82-11.248a1 1 0 0 1-.487-.858v-70.757c0-3.265 1.687-6.189 4.513-7.824 2.827-1.635 6.204-1.638 9.032-.01l6.534 3.76a9.062 9.062 0 0 1 4.53 7.833v75.684c0 .332-.165.643-.44.829l-3.789 2.561a1 1 0 0 1-.56.171zm-17.82-12.815 17.787 10.63 2.822-1.908v-75.152a7.057 7.057 0 0 0-3.528-6.1l-6.533-3.76a6.965 6.965 0 0 0-7.033.008 6.965 6.965 0 0 0-3.515 6.092v70.189zm21.609 9.254h.01z"/><path d="M51.565 595.33c3.188 1.458 7.705 3.873 10.355 5.69 1.659 1.138 2.261 3.306 2.261 5.318v75.413" fill="#fff"/><path d="M64.18 682.751a1 1 0 0 1-1-1v-75.413c0-.974-.178-3.363-1.826-4.493-2.698-1.851-7.175-4.221-10.205-5.605a1.002 1.002 0 0 1 .832-1.82c3.107 1.421 7.713 3.861 10.504 5.775 1.712 1.174 2.695 3.413 2.695 6.142v75.413a1 1 0 0 1-1 1z"/><path d="m65.179 598.307-3.322 2.713-9.072-7.555-1.104-9.837s2.873-2.179 3.452-2.551a2.157 2.157 0 0 1 2.321-.021l6.936 3.989c.49.303.788.838.788 1.414v11.848z" fill="#fff"/><path d="M61.857 602.021a.998.998 0 0 1-.64-.231l-9.072-7.555a1 1 0 0 1-.354-.657l-1.104-9.837a1 1 0 0 1 .389-.909c.297-.226 2.922-2.214 3.517-2.596a3.153 3.153 0 0 1 3.387-.03l6.909 3.973a2.658 2.658 0 0 1 1.29 2.281v11.848a1 1 0 0 1-.367.774l-3.322 2.714c-.184.15-.409.226-.633.226zm-8.123-9.066 8.129 6.77 2.315-1.892v-11.374a.656.656 0 0 0-.314-.563l-6.909-3.973c-.421-.26-.89-.255-1.282-.004-.351.226-1.811 1.315-2.936 2.164l.996 8.872zm11.445 5.353h.01z"/><path d="m61.857 601.021-11.126-5.942.116-9.764c.02-1.692 1.879-2.713 3.318-1.824l6.904 4.268c.49.303.788.838.788 1.414z" fill="#fff"/><path d="M61.857 602.021a.994.994 0 0 1-.471-.118l-11.126-5.942a1.002 1.002 0 0 1-.529-.894l.116-9.764a3.14 3.14 0 0 1 1.646-2.745 3.136 3.136 0 0 1 3.198.082l6.904 4.268a2.646 2.646 0 0 1 1.262 2.265v11.848a.998.998 0 0 1-1 1zm-10.119-7.538 9.119 4.87v-10.18a.661.661 0 0 0-.314-.564l-6.904-4.268c-.525-.324-1.003-.129-1.184-.03s-.602.397-.609 1.016z"/><path d="M547.23 393.119c0 6.973-10.007 12.625-22.351 12.625s-22.351-5.653-22.351-12.625V160.515h44.703v232.604z" fill="#adc4cb"/><path d="M524.879 406.744c-13.094 0-23.352-5.985-23.352-13.625V160.515a1 1 0 0 1 1-1h44.703a1 1 0 0 1 1 1v232.604c0 7.641-10.257 13.625-23.352 13.625zm-21.352-245.229v231.604c0 6.41 9.578 11.625 21.352 11.625s21.352-5.215 21.352-11.625V161.515h-42.703z"/><ellipse cx="524.879" cy="160.515" fill="#fff" rx="22.351" ry="12.625"/><path d="M524.879 174.14c-13.094 0-23.352-5.985-23.352-13.625s10.257-13.625 23.352-13.625 23.352 5.985 23.352 13.625-10.257 13.625-23.352 13.625zm0-25.251c-11.773 0-21.352 5.215-21.352 11.625s9.578 11.625 21.352 11.625 21.352-5.215 21.352-11.625-9.578-11.625-21.352-11.625z"/><path d="M371.191 292.188c0 6.973-10.007 12.625-22.351 12.625s-22.351-5.653-22.351-12.625V59.584h44.703v232.604z" fill="#adc4cb"/><path d="M348.84 305.814c-13.094 0-23.352-5.985-23.352-13.625V59.584a1 1 0 0 1 1-1h44.703a1 1 0 0 1 1 1v232.604c0 7.641-10.257 13.625-23.351 13.625zM327.488 60.585v231.604c0 6.41 9.578 11.625 21.352 11.625s21.351-5.215 21.351-11.625V60.584h-42.703z"/><ellipse cx="348.84" cy="59.584" fill="#fff" rx="22.351" ry="12.625"/><path d="M348.84 73.21c-13.094 0-23.352-5.985-23.352-13.625S335.745 45.96 348.84 45.96s23.351 5.985 23.351 13.625S361.934 73.21 348.84 73.21zm0-25.251c-11.773 0-21.352 5.215-21.352 11.625s9.578 11.625 21.352 11.625 21.351-5.215 21.351-11.625-9.578-11.625-21.351-11.625z"/><path d="M581.037 146.972 553.04 199.59S303.918 57.311 299.126 54.761c-8.112-4.317-8.421-19.595-.69-34.125s20.575-22.81 28.687-18.493 253.914 144.828 253.914 144.828z" fill="#87c159"/><path d="M553.04 200.59a.993.993 0 0 1-.496-.132c-2.491-1.422-249.164-142.3-253.888-144.814-4.258-2.266-6.678-7.271-6.816-14.095-.134-6.613 1.896-14.207 5.713-21.382C305.53 5.173 319.007-3.31 327.593 1.26c8.033 4.274 251.482 143.438 253.94 144.843a1 1 0 0 1 .387 1.338l-27.997 52.618a.998.998 0 0 1-.883.531zM322.298 1.984c-7.387 0-16.82 7.547-22.979 19.123-3.661 6.879-5.606 14.125-5.479 20.402.123 6.067 2.167 10.46 5.756 12.37 4.654 2.477 234.179 133.557 253.045 144.332l27.058-50.852c-15.85-9.06-245.276-140.198-253.045-144.333-1.327-.706-2.796-1.042-4.356-1.042z"/><ellipse cx="567.039" cy="173.281" rx="29.801" ry="16.639" transform="matrix(.46973352 -.88280826 .88280826 .46973352 147.709 592.473)"/><path d="M557.726 201.71c-1.84 0-3.58-.399-5.155-1.237-8.586-4.569-9.082-20.484-1.104-35.478 7.979-14.994 21.457-23.473 30.04-18.906 8.586 4.568 9.081 20.483 1.104 35.477-6.514 12.243-16.694 20.144-24.885 20.144zm18.486-54.898c-7.387 0-16.82 7.546-22.979 19.123-7.46 14.02-7.335 28.722.277 32.772 7.614 4.049 19.875-4.06 27.335-18.081 7.459-14.02 7.335-28.721-.277-32.772-1.327-.706-2.796-1.042-4.355-1.042zm5.516 34.284h.01z"/><path d="M615.469 569.547s-.736-39.71-36.987-60.514L133.257 253.488l-15.761 8.983 446.127 256.05c3.208 1.852 22.267 13.11 29.167 27.048 7.163 14.469 7.394 31.525 7.394 31.525l.758 681.434 15.056-8.725-.53-680.256z" fill="#fff"/><path d="M600.943 1259.528a1 1 0 0 1-1-.999l-.758-681.435c-.002-.156-.316-16.994-7.291-31.082-6.439-13.008-23.65-23.668-28.771-26.626L116.999 263.339a1 1 0 0 1 .003-1.736l15.761-8.983c.308-.175.686-.175.993.001L578.98 508.166c36.323 20.845 37.482 60.959 37.49 61.362v.018l.53 680.256a1 1 0 0 1-.499.866l-15.056 8.726a.997.997 0 0 1-.501.135zM119.51 262.474l444.61 255.179c5.247 3.03 22.878 13.961 29.566 27.472 7.181 14.505 7.489 31.249 7.499 31.955l.756 679.714 13.057-7.567-.53-679.666c-.016-.643-1.284-39.459-36.485-59.66L133.255 254.64z"/></svg></g><g transform="translate(1155.6 670.8) rotate(0.0 183.60000000000002 439.20000000000005) scale(1.1985468598529236 1.199660751672683)"><svg width="306.371" height="732.207" viewBox="0 0 306.371 732.207"><path d="m1 731.207 303.324-173.182 1.047-392.689L2.066 338.506z" fill="#fff"/><path d="M1 732.207a1.002 1.002 0 0 1-1-1.003l1.066-392.7c0-.357.193-.688.504-.865l303.305-173.171a1.002 1.002 0 0 1 1.496.871l-1.048 392.689a.997.997 0 0 1-.504.865L1.496 732.075a.996.996 0 0 1-.496.132zm2.065-393.119-1.06 390.394 301.32-172.037 1.042-390.384z"/><path d="M233.83 206.182s43.532 80.561-17.09 152.205c-18.673 22.068-43.222 34.663-65.508 41.847-32.236 10.391-54.268 40.112-55.828 73.945-1.075 23.317-4.656 48.094-13.693 65.217-19.712 37.349-80.383 70.978-80.383 70.978l.738-271.868L233.83 206.181z" fill="#87c159"/><path d="M1.328 611.374a1.002 1.002 0 0 1-1-1.003l.738-271.867c0-.357.193-.688.504-.865l231.764-132.325a1.003 1.003 0 0 1 1.376.392c.11.203 11.013 20.646 14.302 49.599 3.038 26.742.037 66.446-31.509 103.729-16.126 19.059-38.32 33.241-65.964 42.153-31.431 10.132-53.589 39.483-55.136 73.038-1.324 28.701-5.969 50.785-13.808 65.638-19.624 37.183-80.173 71.049-80.782 71.387a1.007 1.007 0 0 1-.485.125zm1.737-272.286L2.333 608.65c9.429-5.457 60.862-36.313 78.494-69.721 7.7-14.591 12.269-36.391 13.579-64.796 1.585-34.384 24.299-64.464 56.521-74.851 27.283-8.795 49.169-22.771 65.051-41.54 31.085-36.737 34.042-75.86 31.048-102.212-2.856-25.145-11.501-43.728-13.608-47.961z"/><path d="M304.449 405.678s-16.643-30.703-42.894-25.756c-34.641 6.528-51.206 71.953-59.366 104.182-14.342 56.644-7.233 86.13-26.191 95.451-20.114 9.89-38.133-18.377-69.843-12.222-8.245 1.6-27.097 7.407-61.112 62.858C8.344 690.019 1 731.207 1 731.207l303.324-173.181.126-152.347z" fill="#87c159"/><path d="M1 732.207a1 1 0 0 1-.984-1.176c.074-.413 7.798-42.06 44.175-101.362 35.739-58.264 55.335-62.067 61.774-63.317 16.492-3.199 29.269 2.691 40.542 7.892 10.529 4.855 19.623 9.051 29.049 4.415 11.213-5.513 12.988-18.922 15.93-41.136 1.881-14.213 4.223-31.9 9.734-53.664 8.076-31.898 24.88-98.272 60.15-104.919 26.653-5.033 43.788 25.949 43.958 26.263.079.146.121.311.121.478l-.126 152.347a1 1 0 0 1-.504.867L1.496 732.075a.999.999 0 0 1-.496.132zM115.24 567.45c-2.845 0-5.805.265-8.894.864-6.226 1.209-25.171 4.887-60.45 62.399-31.499 51.351-41.385 89.315-43.459 98.521l300.887-171.791.125-151.504c-1.546-2.698-17.627-29.562-41.709-25.036-34.014 6.41-50.607 71.948-58.582 103.444-5.481 21.651-7.815 39.275-9.69 53.437-3.029 22.875-4.856 36.683-17.029 42.668-10.283 5.055-19.776.676-30.77-4.394-8.856-4.085-18.666-8.609-30.43-8.609z"/><ellipse cx="129.366" cy="341.087" fill="#dbf301" rx="39.004" ry="22.6" transform="matrix(.48299204 -.87562474 .87562474 .48299204 -231.781 289.622)"/><path d="M117.466 377.962c-2.684 0-5.185-.612-7.421-1.846-5.611-3.096-8.805-9.692-8.992-18.576-.183-8.686 2.533-18.577 7.649-27.852 10.653-19.314 28.591-29.913 39.986-23.63 5.611 3.096 8.805 9.692 8.992 18.576.183 8.686-2.533 18.577-7.649 27.852s-12.033 16.849-19.477 21.326c-4.579 2.755-9.04 4.149-13.088 4.149zm23.772-71.752c-10.016 0-22.572 9.554-30.786 24.445-4.948 8.971-7.576 18.503-7.4 26.843.172 8.141 2.998 14.131 7.958 16.866 4.96 2.737 11.535 1.932 18.512-2.266 7.147-4.299 13.809-11.607 18.757-20.579 4.948-8.971 7.576-18.503 7.4-26.843-.172-8.141-2.998-14.131-7.958-16.866-1.966-1.085-4.157-1.601-6.483-1.601z"/><path d="M118.443 324.593c8.216 4.809 17.255 1.854 22.255-6.253 25.691-41.653 91.503-163.969 93.086-237.937 1.744-81.272-46.393-84.599-75.16-76.342C105.387 19.332 32.581 97.879 31.068 191.677c-1.172 72.255 58.567 116.032 87.375 132.916zM102.01 113.861C118.994 84.432 146.669 68.6 163.814 78.5c17.144 9.9 17.275 41.784.291 71.203-16.994 29.429-44.669 45.261-61.814 35.361-17.144-9.9-17.275-41.784-.281-71.203z" fill="#fff"/><path d="M126.632 327.909c-2.901 0-5.867-.798-8.694-2.452-15.113-8.857-36.957-24.015-55.193-45.917-22.196-26.659-33.19-56.226-32.676-87.879.687-42.581 16.52-86.562 44.583-123.84 24.474-32.514 55.762-56.708 83.696-64.722 9.63-2.765 34.063-7.628 52.882 6.868 16.362 12.604 24.287 36.309 23.554 70.458-1.587 74.173-67.841 197.269-93.235 238.441-3.625 5.877-9.141 9.043-14.917 9.043zm-7.685-4.179c7.464 4.37 16.057 1.935 20.899-5.915 25.315-41.043 91.36-163.707 92.938-237.433.718-33.478-6.944-56.636-22.774-68.83-18.097-13.94-41.772-9.21-51.11-6.53-27.531 7.897-58.428 31.822-82.651 64-27.81 36.943-43.5 80.508-44.18 122.67-1.177 72.521 60.366 116.497 86.881 132.038zM113.7 188.982c-4.293 0-8.325-.983-11.911-3.054-8.613-4.974-13.387-15.323-13.442-29.144-.054-13.624 4.491-29.047 12.795-43.425 8.301-14.383 19.385-26.031 31.211-32.797 11.996-6.864 23.344-7.903 31.958-2.93 17.597 10.161 17.892 42.715.657 72.569-13.729 23.774-34.495 38.779-51.27 38.78zm38.58-112.445c-5.797 0-12.24 1.933-18.932 5.762-11.523 6.593-22.345 17.979-30.472 32.061-8.131 14.077-12.58 29.14-12.527 42.417.052 13.079 4.471 22.817 12.442 27.419 16.638 9.61 43.755-6.09 60.448-34.994 16.684-28.899 16.718-60.228.076-69.836-3.272-1.89-6.996-2.828-11.033-2.828zm-50.271 37.323h.01z"/></svg></g><g transform="translate(1203.6 878.4) rotate(0.0 319.20000000000005 183.59999999999997) scale(1.1991592360995018 1.1962119953480643)"><svg width="532.373" height="306.969" viewBox="0 0 532.373 306.969"><path d="M530.371 103.891a2 2 0 0 1-1.985-1.78c-.514-4.648-1.574-9.431-3.149-14.212a1.999 1.999 0 1 1 3.798-1.252c1.663 5.045 2.782 10.1 3.326 15.024a2 2 0 0 1-1.99 2.22zM118.414 306.97c-9.896 0-19.77-.901-29.345-2.68a2 2 0 0 1 .731-3.934 157.076 157.076 0 0 0 28.614 2.613h.665a2 2 0 0 1 .009 4h-.673zm30.297-2.789a2 2 0 0 1-.359-3.967c9.51-1.749 19.067-4.35 28.407-7.73a2.004 2.004 0 0 1 2.562 1.2 2.002 2.002 0 0 1-1.2 2.562c-9.546 3.455-19.318 6.113-29.044 7.902a2.053 2.053 0 0 1-.364.033zm-87.87-8.122c-.248 0-.5-.047-.743-.145-9.458-3.789-18.44-8.521-26.698-14.065a2 2 0 1 1 2.229-3.32c8.025 5.388 16.758 9.988 25.956 13.673a2 2 0 0 1-.744 3.858zm143.741-11.94a2 2 0 0 1-.957-3.757c8.444-4.59 16.822-9.919 24.902-15.838a2 2 0 0 1 2.364 3.227c-8.225 6.025-16.755 11.45-25.356 16.125a1.99 1.99 0 0 1-.953.243zm47.73-35.292a2 2 0 0 1-1.441-3.387c7.041-7.32 12.748-14.949 17.448-23.321a2 2 0 0 1 3.488 1.959c-4.869 8.671-10.774 16.566-18.053 24.136a1.995 1.995 0 0 1-1.441.613zm28.796-51.257a2 2 0 0 1-1.934-2.515c2.279-8.554 3.861-17.77 4.979-29.004a2 2 0 0 1 3.98.396c-1.141 11.454-2.759 20.871-5.095 29.637a2 2 0 0 1-1.931 1.486zm7.083-59.059c-.04 0-.079 0-.119-.003a2 2 0 0 1-1.88-2.113c.529-9.062 1.215-19.588 2.652-29.841a2 2 0 1 1 3.961.555c-1.417 10.105-2.095 20.536-2.62 29.519a2 2 0 0 1-1.995 1.884zm9.404-58.621a2 2 0 0 1-1.887-2.664c3.436-9.776 7.898-18.578 13.643-26.91a2 2 0 1 1 3.293 2.271c-5.541 8.034-9.846 16.528-13.162 25.965a2.003 2.003 0 0 1-1.887 1.338zm215.827-16.956c-.623 0-1.236-.29-1.627-.834-5.493-7.66-12.126-14.955-19.714-21.684a1.999 1.999 0 1 1 2.653-2.992c7.811 6.925 14.645 14.442 20.312 22.344a2 2 0 0 1-1.624 3.166zM330.734 31.335a2 2 0 0 1-1.331-3.493 153.014 153.014 0 0 1 3.344-2.892c6.74-5.653 14.012-10.425 21.615-14.182a2 2 0 1 1 1.772 3.586c-7.317 3.615-14.32 8.211-20.815 13.66a144.586 144.586 0 0 0-3.255 2.813 1.99 1.99 0 0 1-1.33.507zM469.3 23.471c-.343 0-.69-.088-1.008-.273-8.57-5.014-17.547-9.137-26.682-12.256a2 2 0 1 1 1.293-3.785c9.387 3.205 18.609 7.44 27.409 12.588a2 2 0 0 1-1.012 3.726zM383.512 5.46a1.999 1.999 0 0 1-.327-3.973c9.723-1.623 19.964-1.916 30.235-.868 1.099.111 1.899 1.093 1.787 2.192s-1.094 1.905-2.192 1.786c-9.918-1.01-19.798-.729-29.171.835a1.982 1.982 0 0 1-.332.027zM11.472 262.54a1.991 1.991 0 0 1-1.469-.643 122.192 122.192 0 0 1-9.63-11.813 2 2 0 1 1 3.254-2.326 118.55 118.55 0 0 0 9.313 11.425 2 2 0 0 1-1.468 3.357z"/></svg></g><g transform="translate(520.8 885.6) rotate(0.0 288.0 643.2) scale(1.1975425429067434 1.199069378989441)"><svg width="480.985" height="1072.832" viewBox="0 0 480.985 1072.832"><path d="m456.901 853.832-371.943 218-.988-772.314L458.717 84.426z" fill="#fff"/><path d="M84.958 1072.832a1.002 1.002 0 0 1-1-.999l-.988-772.315c0-.359.191-.69.502-.869L458.22 83.559a1 1 0 0 1 1.498.869l-1.816 769.406a.998.998 0 0 1-.494.86l-371.942 218a1.004 1.004 0 0 1-.506.137zm.013-772.736.985 769.992 369.946-216.83 1.811-767.103zm371.93 553.736h.01z"/><path d="M479.985 1 62.608 239.3v78.082L479.985 78.871z" fill="#fff"/><path d="M62.608 318.382a1 1 0 0 1-1-1V239.3c0-.359.192-.69.504-.869L479.49.131a1 1 0 0 1 1.496.869v77.871c0 .359-.192.69-.504.868L63.104 318.25a.999.999 0 0 1-.496.132zm1-78.501v75.778L478.985 78.291V2.722z"/><path d="m392.771 891.412-204.513 119.144V788.518l204.513-104.937z" fill="#fff"/><path d="M188.258 1011.556a1 1 0 0 1-1-1V788.518c0-.375.21-.718.543-.89l204.514-104.937a1.002 1.002 0 0 1 1.457.89v207.831a.999.999 0 0 1-.497.864L188.761 1011.42c-.156.09-.33.136-.503.136zm1-222.427v219.688l202.514-117.979V685.219L189.258 789.13zm203.514 102.283h.01z"/><path d="m292.467 740.917 2.092 208.066" fill="#fff"/><path d="M294.558 949.983a1 1 0 0 1-1-.99l-2.091-208.065a1 1 0 0 1 .99-1.01 1.013 1.013 0 0 1 1.01.99l2.091 208.065a1 1 0 0 1-.99 1.01zm-13.353-90.864a1 1 0 0 1-1-1v-19.271a1 1 0 0 1 2 0v19.271a1 1 0 0 1-1 1zm22.898-12.182a1 1 0 0 1-1-1v-19.271a1 1 0 0 1 2 0v19.271a1 1 0 0 1-1 1z"/><path d="M410.613 632.708 158.62 779.363v47.287l251.993-146.783z" fill="#87c159"/><path d="M158.619 827.65a1 1 0 0 1-1-1v-47.287c0-.356.189-.685.497-.864l251.993-146.655a.998.998 0 0 1 1.502.865v47.159a.999.999 0 0 1-.497.864L159.121 827.516c-.156.09-.33.136-.503.136zm1-47.712v44.972l249.993-145.619v-44.845z"/><path d="m189.266 445.559-66.824 39V362.751l66.824-39z" fill="#dbf301"/><path d="M122.442 485.558a.998.998 0 0 1-1-1V362.75c0-.355.189-.685.496-.864l66.824-39a1 1 0 0 1 1.504.864v121.808c0 .355-.189.685-.496.864l-66.824 39a.999.999 0 0 1-.504.136zm1-122.233v119.492l64.824-37.833V325.492zm65.824 82.233h.01z"/><path d="M155.854 466.058a1 1 0 0 1-1-1V343.25a1 1 0 0 1 2 0v121.808a1 1 0 0 1-1 1z"/><path d="m304.756 379.127-66.824 39V296.319l66.824-39z" fill="#dbf301"/><path d="M237.932 419.127a.998.998 0 0 1-1-1V296.319c0-.355.189-.685.496-.864l66.824-39a1 1 0 0 1 1.504.864v121.808c0 .355-.189.685-.496.864l-66.824 39a.999.999 0 0 1-.504.136zm1-122.234v119.493l64.824-37.833V259.061l-64.824 37.833zm65.824 82.234h.01z"/><path d="M271.344 399.627a1 1 0 0 1-1-1V276.819a1 1 0 0 1 2 0v121.808a1 1 0 0 1-1 1z"/><path d="m420.262 313.351-66.825 39V230.543l66.825-39z" fill="#dbf301"/><path d="M353.437 353.351a.998.998 0 0 1-1-1V230.543c0-.355.189-.685.496-.864l66.824-39a1 1 0 0 1 1.504.864v121.808c0 .355-.189.685-.496.864l-66.824 39a.999.999 0 0 1-.504.136zm1-122.234V350.61l64.824-37.833V193.285l-64.824 37.833zm65.824 82.234h.01z"/><path d="M386.849 333.851a1 1 0 0 1-1-1V211.043a1 1 0 0 1 2 0v121.808a1 1 0 0 1-1 1z"/><path d="m188.258 674.179-66.824 39V591.371l66.824-39z" fill="#dbf301"/><path d="M121.434 714.179a.998.998 0 0 1-1-1V591.371c0-.355.189-.685.496-.864l66.824-39a1 1 0 0 1 1.504.864v121.808c0 .355-.189.685-.496.864l-66.824 39a.999.999 0 0 1-.504.136zm1-122.234v119.492l64.824-37.833V554.112zm65.824 82.234h.01z"/><path d="M154.846 694.679a1 1 0 0 1-1-1V571.871a1 1 0 0 1 2 0v121.808a1 1 0 0 1-1 1z"/><path d="m303.748 607.747-66.824 39V524.939l66.824-39z" fill="#dbf301"/><path d="M236.924 647.747a.998.998 0 0 1-1-1V524.939c0-.355.189-.685.496-.864l66.824-39a1.002 1.002 0 0 1 1.504.864v121.808c0 .355-.189.685-.496.864l-66.824 39a.999.999 0 0 1-.504.136zm1-122.234v119.493l64.824-37.833V487.681l-64.824 37.833zm65.824 82.234h.01z"/><path d="M270.336 628.247a1 1 0 0 1-1-1V505.439a1 1 0 0 1 2 0v121.808a1 1 0 0 1-1 1z"/><path d="m419.254 541.971-66.824 39V459.163l66.824-39z" fill="#dbf301"/><path d="M352.43 581.972a.998.998 0 0 1-1-1V459.164c0-.355.189-.685.496-.864l66.824-39a1 1 0 0 1 1.504.864v121.808c0 .355-.189.685-.496.864l-66.824 39a.999.999 0 0 1-.504.136zm1-122.234v119.493l64.824-37.833V421.906l-64.824 37.833zm65.824 82.234h.01z"/><path d="M385.842 562.472a1 1 0 0 1-1-1V439.664a1 1 0 0 1 2 0v121.808a1 1 0 0 1-1 1z"/><path d="M59.847 680.722 5.783 712.451C3.666 713.693 1 712.167 1 709.712v-264.98c0-5.021 2.66-9.667 6.991-12.208l51.128-30.006c2.934-1.722 6.63.394 6.63 3.796v264.101a11.95 11.95 0 0 1-5.902 10.306z" fill="#dbf301"/><path d="M4.176 713.895a4.18 4.18 0 0 1-2.076-.559 4.134 4.134 0 0 1-2.1-3.624V444.733a15.211 15.211 0 0 1 7.484-13.07l51.128-30.007a5.341 5.341 0 0 1 5.418-.029 5.344 5.344 0 0 1 2.718 4.688v264.101c0 4.574-2.451 8.854-6.396 11.169L6.288 713.314a4.164 4.164 0 0 1-2.113.582zm57.17-310.989c-.592 0-1.184.158-1.721.474L8.497 433.387A13.203 13.203 0 0 0 2 444.733v264.979c0 .79.409 1.496 1.094 1.888a2.152 2.152 0 0 0 2.183-.011L59.34 679.86a10.99 10.99 0 0 0 5.408-9.444V406.315c0-1.235-.64-2.338-1.711-2.952a3.393 3.393 0 0 0-1.691-.456z"/><path d="M54.717 676.699 11.179 702.47c-1.927 1.131-4.353-.259-4.353-2.492V447.843c0-4.569 2.421-8.797 6.361-11.11l40.866-24.203c2.67-1.567 6.033.358 6.033 3.455v251.336c0 3.858-2.044 7.426-5.371 9.379z" fill="#87c159"/><path d="M9.716 703.874a3.87 3.87 0 0 1-1.932-.521 3.85 3.85 0 0 1-1.958-3.376V447.842c0-4.903 2.627-9.491 6.855-11.972l40.863-24.201c1.571-.922 3.448-.932 5.025-.029s2.518 2.527 2.518 4.344V667.32c0 4.193-2.246 8.117-5.861 10.239L11.688 703.33a3.886 3.886 0 0 1-1.972.543zm46.365-290.9c-.523 0-1.045.14-1.521.418l-40.862 24.201a11.926 11.926 0 0 0-5.871 10.249v252.135c0 .686.355 1.299.951 1.641a1.869 1.869 0 0 0 1.895-.01l43.535-25.769.003-.002a9.91 9.91 0 0 0 4.876-8.517V415.984a2.973 2.973 0 0 0-1.512-2.608 2.997 2.997 0 0 0-1.495-.403z"/><path d="m65.749 421.22 18.363-10.761" fill="#fff"/><path d="M65.75 422.22a1 1 0 0 1-.507-1.863l18.363-10.761a1 1 0 0 1 1.011 1.725l-18.363 10.761a.996.996 0 0 1-.504.137z"/><path d="m65.749 641.034 18.586-10.891" fill="#fff"/><path d="M65.75 642.034a1 1 0 0 1-.507-1.863l18.586-10.892a1 1 0 0 1 1.011 1.725l-18.586 10.892a.996.996 0 0 1-.504.137z"/></svg></g><g transform="translate(1153.2 1581.6) rotate(0.0 142.19999999999993 127.20000000000005) scale(1.190805175229242 1.1940466635689047)"><svg width="238.83" height="213.057" viewBox="0 0 238.83 213.057"><path d="M162.072 135.488 33.827 208.547s-11.597-3.896-20.284-11.432C1 186.233 1 167.756 1 167.756a114.384 114.384 0 0 1 57.513-95.479L175.93 5.092c8.116-4.644 17.022-5.115 24.809-2.521 11.817 3.937 25.507 13.926 25.507 13.926s-27.31 98.513-64.174 118.991z" fill="#fff"/><path d="M33.827 209.547c-.107 0-.215-.018-.318-.052-.481-.162-11.885-4.046-20.621-11.626C.146 186.815 0 168.529 0 167.756a115.678 115.678 0 0 1 16.483-55.735 115.655 115.655 0 0 1 41.534-40.612L175.434 4.224c7.932-4.539 17.033-5.462 25.622-2.602 11.829 3.94 25.216 13.655 25.78 14.067.336.245.485.673.375 1.075-1.12 4.039-27.843 99.141-64.646 119.595L34.322 209.416a.996.996 0 0 1-.495.131zM191.107 1.993c-5.063 0-10.08 1.335-14.68 3.967L59.01 73.144C24.628 92.818 3.316 128.199 1.999 167.789c0 .146.159 18.124 12.199 28.57 7.517 6.521 17.398 10.319 19.531 11.092l127.848-72.832.01-.005c34.493-19.16 61.006-109.006 63.505-117.712-2.69-1.898-14.475-9.986-24.668-13.382a29.423 29.423 0 0 0-9.316-1.527z"/><path d="m178.102 144.284-114.85 63.798c-21.197 11.775-47.135-4.075-46.329-28.309l.107-3.221a114.384 114.384 0 0 1 57.513-95.479l117.418-67.184C212.393 2.198 237.83 16.95 237.83 40.49v2.293c0 42.17-22.863 81.024-59.727 101.501z" fill="#adc4cb"/><path d="M48.086 213.064c-5.787 0-11.561-1.597-16.771-4.78-10.028-6.128-15.782-16.798-15.392-28.544l.107-3.222a115.635 115.635 0 0 1 16.483-55.701 115.647 115.647 0 0 1 41.534-40.612L191.464 13.02c9.908-5.669 21.719-5.635 31.594.092s15.771 15.961 15.771 27.377v2.293c0 42.506-23.083 81.735-60.242 102.375l-114.85 63.798c-4.937 2.742-10.3 4.108-15.652 4.108zM207.183 10.796c-5.055 0-10.11 1.32-14.726 3.961L75.04 81.942c-34.382 19.672-55.694 55.053-57.011 94.644l-.107 3.222c-.366 11.017 5.03 21.024 14.436 26.771 9.405 5.746 20.772 5.983 30.408.63l114.85-63.798.486.874-.486-.874c36.524-20.289 59.213-58.847 59.213-100.627v-2.293c0-10.694-5.523-20.282-14.774-25.647-4.651-2.697-9.761-4.047-14.872-4.047z"/><path d="M98.221 120.133a.999.999 0 0 1-.834-1.552l37.748-56.877a.996.996 0 0 1 1.2-.377l36.647 14.476a.998.998 0 0 1 .128 1.798l-74.395 42.401a1.002 1.002 0 0 1-.495.131zm38.133-56.649-34.974 52.698 68.928-39.286z"/><path d="m89.637 136.403 6.563 36.168 75.801-43.854 6.159-42.969z" fill="#fff"/><path d="M96.2 173.571a1 1 0 0 1-.984-.822l-6.563-36.169c-.076-.417.12-.836.487-1.047l88.523-50.654a1 1 0 0 1 1.487 1.01l-6.16 42.969a1 1 0 0 1-.489.724L96.7 173.436a.997.997 0 0 1-.501.135zm-5.453-36.652 6.183 34.074 74.15-42.898 5.8-40.462z"/><path d="m82.404 125.377-.145 15.247 103.683-59.33.725-15.599z" fill="#fff"/><path d="M82.259 141.624a.999.999 0 0 1-1-1.01l.145-15.247a1 1 0 0 1 .503-.858L186.17 64.827a.998.998 0 0 1 1.496.914l-.725 15.601a1.002 1.002 0 0 1-.502.821L82.756 141.492a1 1 0 0 1-.497.132zm1.14-15.664-.123 12.931 101.693-58.19.615-13.233-102.185 58.493zm28.846 26.962a1 1 0 0 1-.985-.832l-2.864-16.788a1 1 0 1 1 1.972-.336l2.864 16.788a.999.999 0 0 1-.987 1.168zm22.177-11.298a1 1 0 0 1-.999-.972l-.54-19.162a1 1 0 0 1 .971-1.028c.578-.002 1.012.42 1.028.972l.54 19.162a1 1 0 0 1-.971 1.028zm20.933-12.837a1.002 1.002 0 0 1-.99-1.156l3.293-20.97a1.005 1.005 0 0 1 1.143-.833c.545.086.918.598.833 1.144l-3.293 20.97a1 1 0 0 1-.986.845z"/></svg></g><g transform="translate(538.8 373.2) rotate(0.0 345.6 321.6) scale(1.1991776472731375 1.1991498564450578)"><svg width="576.395" height="536.38" viewBox="0 0 576.395 536.38"><path d="m270.739 512.599-36-21v-99.756h36z" fill="#fff"/><path d="M270.738 513.599a.999.999 0 0 1-.504-.136l-36-21a1 1 0 0 1-.496-.864v-99.756a1 1 0 0 1 1-1h36a1 1 0 0 1 1 1v120.756a.998.998 0 0 1-1 1zm-35-22.574 34 19.833V392.843h-34z"/><path d="M567.36 22.948c-3.67-1.62-8.08-1.63-12.05.65L60.44 308.058a48.903 48.903 0 0 0-24.53 42.39v171.04c0 5.06 2.6 9.22 6.31 11.63-2.28-1.27-33.72-18.76-37.71-23.2-2.15-2.4-3.51-5.58-3.51-9.24v-171.03c0-17.5 9.36-33.67 24.53-42.39L520.4 2.798c3.35-1.92 7.01-2.22 10.28-1.29 4.59 1.3 29.06 16.62 36.68 21.44z" fill="#fff"/><path d="M42.219 534.118c-.165 0-.332-.041-.486-.126-8.001-4.456-34.193-19.205-37.967-23.405C1.302 507.836 0 504.41 0 500.678v-171.03c0-17.807 9.592-34.382 25.032-43.257l494.87-284.46c3.406-1.952 7.332-2.443 11.052-1.385 4.813 1.363 29.492 16.844 36.941 21.557a1 1 0 0 1-.938 1.76c-3.628-1.603-7.692-1.382-11.148.602l-494.87 284.46c-14.821 8.52-24.028 24.43-24.028 41.523v171.04c0 4.441 2.134 8.374 5.855 10.792a1 1 0 0 1-.545 1.838zM527.063 2.001c-2.129 0-4.243.563-6.166 1.665L26.029 288.125C11.207 296.644 2 312.554 2 329.647v171.03c0 3.231 1.125 6.196 3.255 8.572 2.496 2.778 17.564 11.77 31.688 19.759a14.85 14.85 0 0 1-2.033-7.521v-171.04c0-17.807 9.591-34.382 25.031-43.257L554.812 22.731c2.267-1.301 4.774-1.951 7.257-1.931-13.507-8.456-28.423-17.413-31.661-18.33a12.24 12.24 0 0 0-3.345-.469z"/><path d="M555.307 23.602 60.44 308.059a48.891 48.891 0 0 0-24.526 42.387v171.037c0 10.69 11.579 17.365 20.83 12.008l213.994-123.925v103.033l77.367-147.837 200.748-116.255a53.201 53.201 0 0 0 26.54-46.039V35.225c0-10.309-11.15-16.76-20.087-11.623z" fill="#dbf301"/><path d="M49.791 536.384a14.84 14.84 0 0 1-7.43-2.012c-4.663-2.688-7.447-7.506-7.447-12.888V350.447c0-17.806 9.59-34.38 25.027-43.254L554.809 22.735c4.51-2.592 9.892-2.585 14.395.021 4.502 2.605 7.191 7.267 7.191 12.469v167.243c0 19.273-10.361 37.246-27.04 46.904l-200.498 116.11-77.233 147.581a1 1 0 0 1-1.886-.464V411.301L57.245 534.357c-2.333 1.351-4.894 2.027-7.455 2.027zM555.806 24.469 60.939 308.926c-14.819 8.519-24.024 24.428-24.024 41.52v171.037c0 4.659 2.41 8.829 6.445 11.155 4.037 2.328 8.853 2.322 12.884-.012L270.238 408.7a.998.998 0 0 1 1.5.866v98.966l75.481-144.233a.997.997 0 0 1 .385-.401l200.748-116.255c16.063-9.302 26.042-26.612 26.042-45.174V35.225c0-4.48-2.315-8.494-6.193-10.738-3.877-2.244-8.512-2.249-12.396-.018z"/></svg></g><g transform="translate(607.1999999999999 502.79999999999995) rotate(0.0 300.00000000000006 211.2) scale(1.1991605875886882 1.19902579154437)"><svg width="500.35" height="352.286" viewBox="0 0 500.35 352.286"><path d="M209.792 181.43c-.022-.059-.057-.112-.077-.171 2.4-10.02 19.482-17.393 27.062-23.06 1.803-5.31 7.094-35.019 14.012-35.667 3.022-.284 5.743 3.664 8.024 8.207 2.258 4.444 4.092 9.456 5.309 11.613 3.99-1.654 17.522-10.076 23.864-9.736 1.495.028 2.58.523 3.021 1.688 2.476 6.548-15.078 27.429-18.398 33.111 5.074 30.881 9.236 31.892-21.945 31.242-.72.857-2.346 3.125-4.448 6.012-5.367 7.568-13.739 19.222-18.449 21.217-.682.329-1.266.44-1.713.257-.019-.008-.034-.023-.053-.031-.824-.24-1.343-1.108-1.631-2.418-1.211-4.695.774-14.785 2.407-22.293.799-3.87 1.508-7.029 1.682-8.335-.171-.091-.354-.181-.531-.271-5.328-2.681-15.159-5.427-17.836-10.698-.112-.176-.235-.346-.334-.528.009-.047.024-.092.034-.139z" fill="#fff"/><path d="M226.54 227.235a2.24 2.24 0 0 1-.94-.202c-1.057-.326-1.824-1.386-2.206-3.125-1.211-4.69.536-14.119 2.406-22.719.235-1.138.464-2.224.673-3.217.385-1.825.707-3.348.884-4.344-1.265-.628-2.804-1.272-4.43-1.953-5.413-2.265-11.547-4.833-13.728-9.124l-.053-.071a5.792 5.792 0 0 1-.269-.435.992.992 0 0 1-.12-.496 1.009 1.009 0 0 1-.016-.523c1.873-7.818 11.976-13.959 20.094-18.895 2.662-1.618 5.182-3.15 7.089-4.546.373-1.192.89-3.336 1.531-5.994 3.6-14.917 7.587-29.526 13.24-30.056 3.967-.375 7.035 4.819 9.01 8.754 1.193 2.348 2.255 4.821 3.192 7.002.63 1.467 1.195 2.782 1.673 3.759.989-.473 2.323-1.176 3.812-1.96 6.194-3.267 14.685-7.747 19.655-7.474 2.508.046 3.51 1.294 3.903 2.333 1.891 5.001-5.497 15.817-13.902 27.405-1.877 2.588-3.517 4.849-4.384 6.26a574.7 574.7 0 0 0 1.581 9.028c1.916 10.598 2.971 16.435.164 19.725-3.02 3.539-10.027 3.593-24.267 3.299-.643.819-1.72 2.303-3.033 4.111l-1.076 1.48c-6.645 9.37-14.137 19.546-18.867 21.55-.585.284-1.125.427-1.618.427zm-.075-2.007c.067.012.315.026.867-.241 4.649-1.971 13.713-14.752 18.068-20.896l1.082-1.488c1.626-2.239 2.802-3.857 3.416-4.588a.934.934 0 0 1 .787-.357c13.547.283 20.734.296 23.194-2.587 2.192-2.569 1.196-8.075-.611-18.071-.5-2.769-1.068-5.907-1.646-9.421a.999.999 0 0 1 .124-.667c.854-1.463 2.541-3.788 4.675-6.73 5.729-7.898 15.316-21.116 13.65-25.523-.104-.276-.382-1.01-2.104-1.042-4.451-.253-13 4.265-18.651 7.245-2.087 1.1-3.736 1.969-4.812 2.416a1.001 1.001 0 0 1-1.254-.432c-.607-1.076-1.34-2.784-2.189-4.762-.925-2.154-1.974-4.595-3.14-6.89-2.648-5.277-5-7.837-7.039-7.665-4.703.441-9.454 20.127-11.482 28.534-.709 2.94-1.27 5.262-1.677 6.459a.995.995 0 0 1-.348.479c-2.011 1.503-4.677 3.125-7.5 4.841-7.69 4.675-17.234 10.477-19.112 17.354.011.046.019.093.024.14l.026.04.123.188c1.895 3.719 7.921 6.241 12.763 8.268 1.71.716 3.326 1.392 4.678 2.072l.147.074c.137.069.274.138.405.208a.999.999 0 0 1 .521 1.014c-.127.957-.521 2.824-1.02 5.187-.209.991-.438 2.074-.674 3.219-1.104 5.076-3.683 16.938-2.417 21.84.131.594.416 1.554.942 1.708.058.017.123.044.184.075z"/><path d="M107.148 242.471c-.022-.059-.057-.112-.077-.171 2.4-10.02 19.482-17.393 27.062-23.06 1.803-5.31 7.094-35.019 14.012-35.667 3.022-.284 5.743 3.664 8.024 8.207 2.258 4.444 4.092 9.456 5.309 11.613 3.99-1.654 17.522-10.076 23.864-9.736 1.495.028 2.58.523 3.021 1.688 2.476 6.548-15.078 27.429-18.398 33.111 5.074 30.881 9.236 31.892-21.945 31.242-.72.857-2.346 3.125-4.448 6.012-5.367 7.568-13.739 19.222-18.449 21.217-.682.329-1.266.44-1.713.257-.019-.008-.034-.023-.053-.031-.824-.24-1.343-1.108-1.631-2.418-1.211-4.695.774-14.785 2.407-22.293.799-3.87 1.508-7.029 1.682-8.335-.171-.091-.354-.181-.531-.271-5.328-2.681-15.159-5.427-17.836-10.698-.112-.176-.235-.346-.334-.528.009-.047.024-.092.034-.139z" fill="#fff"/><path d="M123.896 288.275a2.24 2.24 0 0 1-.936-.2c-1.093-.374-1.836-1.425-2.21-3.126-1.211-4.692.536-14.121 2.406-22.72.236-1.144.466-2.235.676-3.232.384-1.817.704-3.335.88-4.329-1.266-.629-2.804-1.272-4.43-1.953-5.413-2.265-11.547-4.833-13.727-9.125l-.051-.066a5.725 5.725 0 0 1-.272-.44 1.01 1.01 0 0 1-.12-.495 1.009 1.009 0 0 1-.016-.523c1.873-7.818 11.977-13.96 20.095-18.895 2.661-1.618 5.182-3.15 7.088-4.546.373-1.192.89-3.335 1.531-5.992 3.6-14.918 7.587-29.528 13.24-30.058 3.954-.371 7.036 4.819 9.01 8.754 1.193 2.348 2.255 4.82 3.191 7.001.63 1.468 1.195 2.784 1.674 3.761.989-.473 2.322-1.175 3.809-1.959 6.196-3.267 14.697-7.738 19.659-7.476 2.507.046 3.51 1.294 3.903 2.333 1.891 5.001-5.497 15.817-13.902 27.405-1.877 2.588-3.517 4.849-4.384 6.26.554 3.353 1.099 6.363 1.581 9.029 1.916 10.597 2.972 16.434.165 19.724-3.021 3.54-10.033 3.594-24.267 3.299-.645.822-1.727 2.312-3.045 4.126l-1.064 1.464c-6.645 9.37-14.137 19.546-18.867 21.55-.585.284-1.125.427-1.618.427zm-.07-2.005c.063.011.309.024.862-.244 4.649-1.971 13.713-14.752 18.068-20.896l1.071-1.473c1.632-2.247 2.812-3.871 3.428-4.604a.94.94 0 0 1 .787-.357c13.547.284 20.733.296 23.194-2.587 2.192-2.569 1.196-8.075-.611-18.07-.5-2.769-1.068-5.908-1.646-9.422a.998.998 0 0 1 .124-.667c.854-1.463 2.541-3.788 4.675-6.73 5.729-7.898 15.316-21.116 13.65-25.523-.104-.276-.382-1.01-2.104-1.042-4.45-.24-13.001 4.266-18.654 7.246-2.085 1.1-3.733 1.969-4.808 2.415a1.001 1.001 0 0 1-1.254-.432c-.607-1.077-1.341-2.785-2.191-4.764-.925-2.153-1.973-4.594-3.139-6.888-2.648-5.277-5.016-7.845-7.039-7.665-4.703.441-9.454 20.128-11.483 28.536-.709 2.939-1.269 5.261-1.676 6.458a.995.995 0 0 1-.348.479c-2.011 1.503-4.677 3.125-7.5 4.841-7.69 4.674-17.234 10.477-19.112 17.354a.98.98 0 0 1 .024.142l.027.042.121.184c1.895 3.72 7.921 6.242 12.764 8.269 1.71.716 3.326 1.392 4.678 2.072l.134.067c.142.071.283.143.418.214a1 1 0 0 1 .522 1.015c-.127.955-.52 2.815-1.017 5.171-.21.995-.439 2.083-.677 3.234-1.104 5.075-3.684 16.936-2.418 21.84.131.594.416 1.555.942 1.708a.818.818 0 0 1 .188.078z"/><path d="M1.077 306.485c-.022-.059-.057-.112-.077-.171 2.4-10.02 19.482-17.393 27.062-23.06 1.803-5.31 7.094-35.019 14.012-35.667 3.022-.284 5.743 3.664 8.024 8.207 2.258 4.444 4.092 9.456 5.309 11.613 3.99-1.654 17.522-10.076 23.864-9.736 1.495.028 2.58.523 3.021 1.688 2.476 6.548-15.078 27.429-18.398 33.111 5.074 30.881 9.236 31.892-21.945 31.242-.72.857-2.346 3.125-4.448 6.012-5.367 7.568-13.739 19.222-18.449 21.217-.682.329-1.266.44-1.713.257-.019-.008-.034-.023-.053-.031-.824-.24-1.343-1.108-1.631-2.418-1.211-4.695.774-14.785 2.407-22.293.799-3.87 1.508-7.029 1.682-8.335-.171-.091-.354-.181-.531-.271-5.328-2.681-15.159-5.427-17.836-10.698-.112-.176-.235-.346-.334-.528.009-.047.024-.092.034-.139z" fill="#fff"/><path d="M17.824 352.289c-.306 0-.594-.055-.865-.166l-.071-.033c-1.093-.374-1.836-1.425-2.21-3.126-1.211-4.69.536-14.119 2.406-22.72.234-1.136.463-2.22.672-3.212.386-1.827.708-3.352.885-4.35-1.265-.628-2.804-1.272-4.43-1.953-5.413-2.266-11.547-4.833-13.728-9.125l-.05-.066a6.138 6.138 0 0 1-.272-.44.992.992 0 0 1-.12-.496 1.009 1.009 0 0 1-.016-.523c1.873-7.818 11.976-13.959 20.094-18.895 2.662-1.618 5.182-3.15 7.089-4.546.373-1.192.89-3.335 1.53-5.991 3.6-14.918 7.588-29.528 13.241-30.058 3.947-.372 7.035 4.818 9.011 8.754 1.192 2.348 2.254 4.819 3.191 7 .63 1.468 1.195 2.784 1.674 3.761.99-.473 2.324-1.176 3.812-1.96 6.194-3.267 14.684-7.75 19.655-7.474 2.507.046 3.51 1.294 3.903 2.333 1.891 5.002-5.497 15.818-13.903 27.407-1.877 2.587-3.516 4.847-4.383 6.258.554 3.353 1.099 6.362 1.581 9.028 1.916 10.598 2.972 16.435.165 19.725-3.02 3.539-10.027 3.593-24.267 3.299-.643.819-1.72 2.303-3.033 4.111l-1.076 1.48c-6.645 9.371-14.138 19.546-18.868 21.55-.585.284-1.124.427-1.618.427zm-.07-2.005c.063.01.311.023.862-.244 4.648-1.97 13.713-14.752 18.069-20.896l1.082-1.488c1.626-2.239 2.802-3.857 3.416-4.588a.95.95 0 0 1 .787-.357c13.548.284 20.734.296 23.194-2.587 2.192-2.569 1.196-8.075-.611-18.071-.5-2.769-1.068-5.907-1.646-9.421a.998.998 0 0 1 .124-.667c.854-1.462 2.54-3.787 4.674-6.729 5.729-7.898 15.318-21.118 13.651-25.525-.104-.276-.382-1.01-2.104-1.042-4.464-.258-13 4.264-18.651 7.245-2.087 1.1-3.736 1.969-4.812 2.416a1.001 1.001 0 0 1-1.254-.432c-.607-1.077-1.341-2.785-2.191-4.764-.925-2.153-1.973-4.593-3.138-6.887-2.649-5.277-5.002-7.853-7.039-7.665-4.703.441-9.454 20.129-11.483 28.536-.709 2.939-1.27 5.26-1.676 6.457a1 1 0 0 1-.348.479c-2.011 1.503-4.677 3.125-7.5 4.841-7.69 4.675-17.235 10.477-19.112 17.354.011.046.019.093.024.14l.03.045.118.181c1.895 3.72 7.922 6.243 12.765 8.269 1.71.716 3.326 1.392 4.677 2.072l.145.073c.137.069.275.139.406.208a1 1 0 0 1 .522 1.015c-.127.958-.522 2.827-1.021 5.192-.209.989-.437 2.07-.673 3.213-1.104 5.076-3.683 16.938-2.418 21.84.131.594.416 1.554.942 1.708a.986.986 0 0 1 .188.077z"/><path d="M417.897 59.913c-.022-.059-.057-.112-.077-.171 2.4-10.02 19.482-17.393 27.062-23.06 1.803-5.31 7.094-35.019 14.012-35.667 3.022-.284 5.743 3.664 8.024 8.207 2.258 4.444 4.092 9.456 5.309 11.613 3.99-1.654 17.522-10.076 23.864-9.736 1.495.028 2.58.523 3.021 1.688 2.476 6.548-15.078 27.429-18.398 33.111 5.074 30.881 9.236 31.892-21.945 31.242-.72.857-2.346 3.125-4.448 6.012-5.367 7.568-13.739 19.222-18.449 21.217-.682.329-1.266.44-1.713.257-.019-.008-.034-.023-.053-.031-.824-.24-1.343-1.108-1.631-2.418-1.211-4.695.774-14.785 2.407-22.293.799-3.87 1.508-7.029 1.682-8.335-.171-.091-.354-.181-.531-.271-5.328-2.681-15.159-5.427-17.836-10.698-.112-.176-.235-.346-.334-.528.009-.047.024-.092.034-.139z" fill="#fff"/><path d="M434.645 105.717a2.24 2.24 0 0 1-.865-.167.894.894 0 0 1-.079-.037c-1.051-.322-1.82-1.382-2.202-3.123-1.211-4.69.536-14.119 2.406-22.719.235-1.138.464-2.224.673-3.217.385-1.824.707-3.348.884-4.344-1.266-.629-2.804-1.272-4.43-1.953-5.413-2.265-11.547-4.833-13.728-9.124l-.053-.071a5.792 5.792 0 0 1-.269-.435.992.992 0 0 1-.12-.496 1.009 1.009 0 0 1-.016-.523c1.873-7.818 11.976-13.959 20.094-18.895 2.662-1.618 5.182-3.15 7.089-4.546.373-1.192.89-3.336 1.531-5.994C449.16 15.156 453.148.547 458.8.017c3.964-.375 7.036 4.818 9.01 8.754 1.193 2.348 2.255 4.821 3.192 7.002.63 1.467 1.195 2.782 1.673 3.759.989-.473 2.323-1.176 3.811-1.96 6.196-3.267 14.69-7.74 19.656-7.474 2.507.046 3.51 1.294 3.903 2.333 1.891 5.001-5.497 15.817-13.902 27.405-1.877 2.588-3.517 4.849-4.384 6.26.554 3.353 1.099 6.362 1.581 9.028 1.916 10.598 2.972 16.435.164 19.725-3.02 3.54-10.032 3.594-24.266 3.299-.644.82-1.723 2.306-3.037 4.116l-1.072 1.475c-6.645 9.37-14.137 19.546-18.867 21.55-.585.284-1.125.427-1.618.427zm-.075-2.007c.067.014.316.025.867-.241 4.649-1.971 13.713-14.752 18.068-20.896l1.079-1.483c1.628-2.242 2.805-3.862 3.42-4.594.195-.231.454-.376.787-.356 13.548.284 20.733.296 23.193-2.587 2.192-2.569 1.196-8.075-.611-18.071-.5-2.769-1.068-5.907-1.646-9.421a.999.999 0 0 1 .124-.667c.854-1.463 2.541-3.788 4.675-6.73 5.729-7.898 15.316-21.116 13.65-25.523-.104-.276-.382-1.01-2.104-1.042-4.467-.256-13 4.265-18.652 7.245-2.087 1.101-3.735 1.97-4.811 2.416a1 1 0 0 1-1.254-.432c-.607-1.076-1.34-2.784-2.189-4.762-.925-2.154-1.974-4.595-3.14-6.89-2.648-5.277-5.006-7.838-7.039-7.665-4.703.441-9.454 20.127-11.482 28.534-.709 2.94-1.27 5.262-1.677 6.459a.995.995 0 0 1-.348.479c-2.011 1.503-4.677 3.125-7.5 4.841-7.69 4.675-17.234 10.477-19.112 17.354.011.046.019.093.024.14l.026.04.123.188c1.895 3.719 7.921 6.241 12.763 8.268 1.71.716 3.326 1.392 4.678 2.072l.13.066c.143.072.286.144.422.216a.999.999 0 0 1 .521 1.014c-.127.957-.521 2.824-1.02 5.187-.209.991-.438 2.074-.674 3.219-1.104 5.076-3.683 16.938-2.417 21.84.131.594.416 1.554.942 1.708.058.017.123.044.184.075z"/><path d="M315.253 120.954c-.022-.059-.057-.112-.077-.171 2.4-10.02 19.482-17.393 27.062-23.06 1.803-5.31 7.094-35.019 14.012-35.667 3.022-.284 5.743 3.664 8.024 8.207 2.258 4.444 4.092 9.456 5.309 11.613 3.99-1.654 17.522-10.076 23.864-9.736 1.495.028 2.58.523 3.021 1.688 2.476 6.548-15.078 27.429-18.398 33.111 5.074 30.881 9.236 31.892-21.945 31.242-.72.857-2.346 3.125-4.448 6.012-5.367 7.568-13.739 19.222-18.449 21.217-.682.329-1.266.44-1.713.257-.019-.008-.034-.023-.053-.031-.824-.24-1.343-1.108-1.631-2.418-1.211-4.695.774-14.785 2.407-22.293.799-3.87 1.508-7.029 1.682-8.335-.171-.091-.354-.181-.531-.271-5.328-2.681-15.159-5.427-17.836-10.698-.112-.176-.235-.346-.334-.528.009-.047.024-.092.034-.139z" fill="#fff"/><path d="M332.001 166.758a2.24 2.24 0 0 1-.936-.2c-1.092-.373-1.835-1.424-2.21-3.126-1.211-4.692.536-14.121 2.406-22.72.236-1.144.466-2.235.676-3.232.384-1.817.704-3.335.88-4.329-1.266-.629-2.804-1.272-4.43-1.953-5.413-2.265-11.547-4.833-13.727-9.124l-.051-.067a5.725 5.725 0 0 1-.272-.44 1.01 1.01 0 0 1-.12-.495 1.009 1.009 0 0 1-.016-.523c1.873-7.818 11.977-13.96 20.095-18.895 2.661-1.618 5.182-3.149 7.088-4.546.373-1.192.89-3.335 1.531-5.992 3.6-14.918 7.587-29.528 13.24-30.058 3.949-.372 7.036 4.819 9.01 8.754 1.193 2.348 2.255 4.82 3.191 7.001.63 1.468 1.195 2.784 1.674 3.761.989-.473 2.322-1.175 3.809-1.959 6.196-3.267 14.702-7.74 19.659-7.476 2.507.046 3.51 1.294 3.903 2.333 1.891 5.001-5.497 15.817-13.902 27.405-1.877 2.588-3.517 4.849-4.384 6.26.554 3.353 1.099 6.363 1.581 9.029 1.916 10.597 2.972 16.434.165 19.724-3.021 3.54-10.029 3.592-24.267 3.299-.646.824-1.733 2.321-3.057 4.144l-1.052 1.447c-6.645 9.371-14.138 19.546-18.868 21.55-.585.284-1.125.427-1.618.427zm-.07-2.005c.064.01.309.024.862-.244 4.648-1.97 13.713-14.752 18.069-20.896l1.058-1.456c1.639-2.256 2.822-3.886 3.44-4.621.194-.232.457-.376.787-.357 13.547.283 20.733.296 23.194-2.587 2.192-2.569 1.196-8.075-.611-18.07-.5-2.769-1.068-5.908-1.646-9.422a.999.999 0 0 1 .124-.667c.854-1.463 2.541-3.788 4.675-6.73 5.729-7.898 15.316-21.116 13.65-25.523-.104-.276-.382-1.01-2.104-1.042-4.45-.237-13.001 4.266-18.654 7.246-2.085 1.1-3.733 1.969-4.808 2.415a1 1 0 0 1-1.254-.432c-.607-1.077-1.341-2.785-2.191-4.764-.925-2.153-1.973-4.594-3.139-6.888-2.648-5.277-5.014-7.847-7.039-7.665-4.703.441-9.454 20.128-11.483 28.536-.709 2.939-1.269 5.261-1.676 6.458a.995.995 0 0 1-.348.479c-2.011 1.503-4.677 3.125-7.5 4.841-7.69 4.674-17.234 10.477-19.112 17.354a.98.98 0 0 1 .024.142l.027.042.121.184c1.895 3.72 7.921 6.242 12.764 8.269 1.71.716 3.326 1.392 4.678 2.072l.134.067c.142.071.283.143.418.214a1 1 0 0 1 .522 1.015c-.127.955-.52 2.815-1.017 5.171-.21.995-.439 2.083-.677 3.234-1.104 5.075-3.684 16.936-2.418 21.84.131.594.416 1.555.942 1.708a1.09 1.09 0 0 1 .189.078z"/></svg></g><g transform="translate(788.4 2026.8) rotate(0.0 534.5999999999999 331.19999999999993) scale(1.1992503003173098 1.1989878110146142)"><svg width="891.557" height="552.466" viewBox="0 0 891.557 552.466"><path d="M666.989 182.595 308.567 391.096 37.225 234.37s-4.495-4.152-4.495-13.291c0-7.75 4.495-12.709 4.495-12.709L396.044 27z" fill="#fff"/><path d="M308.567 392.096c-.173 0-.345-.045-.5-.134L36.725 235.236a.996.996 0 0 1-.179-.132c-.196-.182-4.816-4.558-4.816-14.025 0-8.043 4.56-13.166 4.753-13.381.083-.091.181-.165.29-.221l358.82-181.37a.998.998 0 0 1 .949.025l270.945 155.596a.999.999 0 0 1 .005 1.731L309.071 391.96a.993.993 0 0 1-.503.136zM37.838 233.569 308.566 389.94l356.425-207.339L396.014 28.135 37.856 209.172c-.669.813-4.125 5.332-4.125 11.907 0 7.927 3.564 11.928 4.107 12.49z"/><path d="M652.463 171.533 290.991 380.107 37.225 234.37s-4.71-4.029-4.71-13.607c0-8.364 4.71-12.393 4.71-12.393L396.044 26z" fill="#fff"/><path d="M290.99 381.107a.994.994 0 0 1-.498-.133L36.727 235.237a.992.992 0 0 1-.152-.107c-.207-.177-5.06-4.441-5.06-14.367 0-8.724 4.854-12.976 5.06-13.152a.97.97 0 0 1 .197-.132L395.591 25.108c.3-.151.655-.143.947.021l256.418 145.533a1 1 0 0 1 .006 1.736L291.49 380.972a1.005 1.005 0 0 1-.5.134zM37.82 233.558l253.169 145.395 359.46-207.413L396.018 27.134 37.8 209.199c-.578.552-4.285 4.376-4.285 11.563 0 8.371 3.786 12.298 4.305 12.796z"/><path d="M890.557 181.764 251.168 551.466 7.737 410.57 646.65 42.341z" fill="#fff"/><path d="M251.168 552.465a.997.997 0 0 1-.501-.135L7.235 411.435a.999.999 0 0 1 .001-1.731L646.151 41.475a1 1 0 0 1 .996-.002l243.906 139.423a1 1 0 0 1 .004 1.733L251.669 552.331a.996.996 0 0 1-.5.135zM9.736 410.572 251.168 550.31 888.55 181.769 646.652 43.495z"/><path d="M699.79 291.816 455.883 152.393 646.65 42.341l243.907 139.423z" fill="#adc4cb"/><path d="M699.79 292.816a.999.999 0 0 1-.496-.132L455.388 153.261a1 1 0 0 1-.004-1.734L646.151 41.475a1 1 0 0 1 .996-.002l243.906 139.423a1 1 0 0 1 .004 1.734L700.29 292.682a1 1 0 0 1-.5.134zM457.892 152.389l241.896 138.273 188.761-108.895L646.653 43.494z"/><path d="M883.82 142.644 244.432 512.346 1 371.45 639.914 3.221z" fill="#fff"/><path d="M244.432 513.346a.997.997 0 0 1-.501-.135L.499 372.315a.999.999 0 0 1 .001-1.731L639.414 2.355a1 1 0 0 1 .996-.002l243.907 139.423a1 1 0 0 1 .004 1.733L244.932 513.212a.996.996 0 0 1-.5.135zM3 371.452l241.432 139.739 637.382-368.542L639.916 4.375z"/><path d="M693.053 252.696 449.147 113.273 639.914 3.221 883.82 142.644z" fill="#adc4cb"/><path d="M693.053 253.696a.999.999 0 0 1-.496-.132L448.65 114.141a1 1 0 0 1-.004-1.734L639.414 2.355a1 1 0 0 1 .996-.002l243.907 139.423a1 1 0 0 1 .004 1.734L693.554 253.562a1 1 0 0 1-.5.134zM451.155 113.269l241.896 138.273 188.761-108.895L639.916 4.375 451.155 113.27z"/><path d="M676.411 212.843 490.774 106.729l145.193-83.761 185.637 106.115z" fill="#87c159"/><path d="M676.411 213.843a.999.999 0 0 1-.496-.132L490.278 107.596a1 1 0 0 1-.004-1.734l145.193-83.76a1 1 0 0 1 .996-.002L822.1 128.214a1 1 0 0 1 .004 1.734l-145.193 83.761a1 1 0 0 1-.5.134zM492.782 106.724 676.408 211.69l143.187-82.604L635.969 24.121z"/><path d="M496.445 243.558 290.99 362.107 42.306 218.95z" fill="#fff"/><path d="M290.99 363.107c-.172 0-.344-.045-.499-.134L41.807 219.816a1 1 0 1 1 .998-1.732L290.99 360.953l204.955-118.262a1 1 0 1 1 1 1.732L291.49 362.973a1.005 1.005 0 0 1-.5.134z"/><path d="M666.989 156.595 308.567 365.096 37.225 208.37 396.044 1z" fill="#dbf301"/><path d="M308.567 366.096c-.173 0-.345-.045-.5-.134L36.725 209.236a1 1 0 0 1 0-1.732L395.544.133a.999.999 0 0 1 .999 0l270.945 155.596a.999.999 0 0 1 .005 1.731L309.072 365.961a.993.993 0 0 1-.503.136zM39.224 208.37l269.341 155.57L664.99 156.601 396.045 2.154z"/><ellipse cx="387.839" cy="162.548" fill="#fff" rx="87.565" ry="51.237"/><path d="M387.839 214.785c-48.835 0-88.565-23.434-88.565-52.237s39.73-52.237 88.565-52.237 88.565 23.434 88.565 52.237-39.73 52.237-88.565 52.237zm0-102.475c-47.732 0-86.565 22.536-86.565 50.237s38.833 50.237 86.565 50.237 86.565-22.536 86.565-50.237-38.833-50.237-86.565-50.237z"/><path d="M350.777 204.959c-16.816 0-29.369-4.726-33.307-14.041-2.278-5.39-1.871-11.896 1.177-18.818 7.353-16.696 28.78-33.408 54.589-42.575 35.118-12.473 61.121-13.791 77.286-3.916 6.771 4.138 10.303 10.858 9.689 18.44-.657 8.129-7.564 29.229-57.376 49.536l-.377-.926.377.926c-18.677 7.614-37.063 11.374-52.058 11.374zm72.641-83.903c-13.541 0-30.085 3.453-49.513 10.354-25.314 8.991-46.286 25.279-53.428 41.497-2.82 6.404-3.223 12.363-1.166 17.232 6.906 16.339 44.811 17.067 82.768 1.595 48.784-19.888 55.51-40.085 56.138-47.846.558-6.902-2.545-12.788-8.739-16.572-6.832-4.174-15.54-6.26-26.061-6.26z"/><path d="M325.141 199.315a1 1 0 0 1-.502-1.865l124.271-71.995a1 1 0 1 1 1.003 1.73L325.642 199.18a.992.992 0 0 1-.5.135z"/><path d="M472.949 175.641c-.169 0-.34-.043-.498-.133l-107.276-61.676a.999.999 0 0 1-.368-1.365 1.001 1.001 0 0 1 1.365-.369l107.276 61.676a.999.999 0 0 1-.5 1.867zm-21.384 23.046a.991.991 0 0 1-.498-.134l-124.792-71.862a1 1 0 1 1 .998-1.732l124.792 71.862a1 1 0 0 1-.5 1.866zm-37.414 13.744a.991.991 0 0 1-.498-.134l-110.259-63.509a1 1 0 1 1 .998-1.732l110.259 63.509a1 1 0 0 1-.5 1.866zm-71.51 47.996a.991.991 0 0 1-.498-.134l-123.181-70.951a1 1 0 1 1 .998-1.732l123.181 70.951a1 1 0 0 1-.5 1.866zm-26.81 15.404a.991.991 0 0 1-.498-.134l-123.045-70.874a1 1 0 1 1 .998-1.732l123.045 70.874a1 1 0 0 1-.5 1.866zm-183.274 4.146a.99.99 0 0 1-.5-.135l-83.778-48.444a1 1 0 1 1 1.001-1.73l83.778 48.444a1 1 0 0 1-.502 1.865z"/></svg></g></svg>