<svg enable-background="new 0 0 2500 2500" height="2500" viewBox="0 0 2500 2500" width="2500" xmlns="http://www.w3.org/2000/svg"><path d="m717.65 1067.405-.263 292.053 106.551-61.244.991-292.611z"/><path d="m717.387 1360.458c-.173 0-.346-.045-.501-.135-.309-.179-.499-.509-.499-.866l.263-292.053c0-.357.191-.687.501-.866l107.279-61.802c.31-.179.691-.178 1.001.001.309.18.499.511.498.868l-.992 292.611c-.001.357-.192.686-.502.864l-106.55 61.244c-.154.089-.326.134-.498.134zm1.263-292.475-.261 289.746 104.551-60.094.984-290.298z"/><path d="m636.129 1021.102.531 293.466 80.727 44.89.263-292.053z" fill="#87c159"/><path d="m717.387 1360.458c-.167 0-.335-.042-.486-.126l-80.728-44.89c-.317-.176-.513-.51-.514-.872l-.531-293.466c-.001-.356.188-.686.496-.865.308-.18.688-.182.998-.006l81.521 46.303c.313.178.506.51.506.871l-.263 292.053c0 .354-.188.682-.493.861-.155.091-.33.137-.506.137zm-79.728-46.479 78.73 43.78.261-289.772-79.518-45.165z"/><path d="m743.507 959.018-107.378 62.084 81.521 46.303 107.279-61.802z" fill="#fff"/><path d="m717.65 1068.405c-.17 0-.341-.043-.494-.13l-81.521-46.303c-.312-.177-.505-.507-.506-.866s.189-.69.5-.87l107.378-62.084c.308-.178.688-.179.997-.002l81.422 46.585c.311.178.503.508.503.866s-.191.689-.501.868l-107.279 61.802c-.154.09-.326.134-.499.134zm-79.51-47.311 79.507 45.159 105.274-60.647-79.411-45.434z"/><path d="m548.883 1313.637-.263 142.477 106.55-61.244.992-143.035z"/><path d="m548.62 1457.114c-.173 0-.346-.045-.502-.135-.309-.179-.499-.51-.498-.867l.263-142.477c.001-.357.192-.687.501-.865l107.279-61.802c.31-.179.693-.177 1.003.002.31.181.499.513.497.871l-.992 143.035c-.002.355-.193.683-.502.86l-106.55 61.244c-.155.09-.327.134-.499.134zm1.262-142.898-.259 140.168 104.551-60.095.975-140.717z"/><path d="m467.361 1267.334.531 143.89 80.728 44.89.263-142.477z" fill="#dbf301"/><path d="m548.62 1457.114c-.167 0-.335-.042-.486-.126l-80.728-44.89c-.316-.176-.513-.509-.514-.87l-.531-143.89c-.001-.357.187-.687.495-.867s.689-.182.999-.006l81.521 46.303c.313.178.507.511.506.872l-.263 142.477c-.001.354-.188.681-.494.86-.155.091-.33.137-.505.137zm-79.73-46.479 78.733 43.781.259-140.197-79.514-45.163z"/><path d="m574.739 1205.25-107.378 62.084 81.522 46.303 107.279-61.802z" fill="#fff"/><path d="m548.883 1314.637c-.17 0-.341-.043-.494-.13l-81.521-46.303c-.312-.177-.505-.507-.506-.866-.001-.358.189-.69.499-.87l107.378-62.084c.308-.178.688-.179.997-.002l81.422 46.585c.311.178.503.508.503.867 0 .358-.191.689-.501.868l-107.279 61.802c-.154.089-.326.133-.498.133zm-79.511-47.31 79.507 45.159 105.274-60.647-79.411-45.434z"/><path d="m372.953 1253.245-.262 304.517 106.55-61.244.991-305.075z"/><path d="m372.691 1558.762c-.173 0-.346-.045-.501-.135-.309-.179-.499-.509-.499-.866l.263-304.517c0-.357.191-.687.501-.866l107.279-61.802c.31-.179.692-.179 1.001.002.309.179.499.51.498.868l-.992 305.076c-.001.356-.192.686-.502.864l-106.55 61.244c-.154.088-.326.132-.498.132zm1.262-304.939-.261 302.21 104.551-60.094.984-302.763z"/><path d="m291.432 1206.942.531 305.93 80.728 44.89.262-304.517z" fill="#adc4cb"/><path d="m372.691 1558.762c-.167 0-.335-.042-.486-.126l-80.728-44.89c-.317-.176-.513-.51-.514-.872l-.531-305.931c-.001-.356.188-.686.496-.866s.688-.182.998-.006l81.521 46.303c.313.178.506.51.506.871l-.263 304.517c0 .354-.188.682-.493.861-.156.093-.331.139-.506.139zm-79.729-46.478 78.73 43.779.261-302.236-79.518-45.165z"/><path d="m398.81 1144.858-107.378 62.084 81.521 46.303 107.279-61.802z" fill="#fff"/><path d="m372.953 1254.245c-.17 0-.341-.043-.494-.13l-81.521-46.303c-.312-.177-.505-.507-.506-.866-.001-.358.189-.69.499-.87l107.378-62.083c.308-.178.688-.179.997-.002l81.422 46.584c.311.178.503.509.503.867s-.19.689-.501.868l-107.279 61.802c-.153.089-.325.133-.498.133zm-79.51-47.311 79.507 45.159 105.274-60.647-79.411-45.434z"/><path d="m197.797 1403.258-.263 254.658 106.551-61.243.991-255.217z"/><path d="m197.534 1658.916c-.173 0-.346-.045-.501-.135-.309-.179-.499-.509-.499-.866l.263-254.659c0-.357.191-.687.501-.866l107.279-61.802c.31-.179.692-.178 1.001.002s.499.511.498.869l-.992 255.217c-.001.356-.193.686-.502.863l-106.55 61.244c-.153.089-.326.133-.498.133zm1.263-255.08-.26 252.352 104.551-60.095.983-252.903z"/><path d="m116.276 1356.955.531 256.071 80.727 44.89.263-254.658z" fill="#adc4cb"/><path d="m197.534 1658.916c-.167 0-.335-.042-.486-.126l-80.728-44.89c-.317-.176-.513-.51-.514-.872l-.531-256.072c-.001-.356.188-.686.496-.866s.688-.182.998-.006l81.521 46.303c.313.178.506.51.506.871l-.263 254.659c0 .354-.188.682-.493.861-.155.092-.33.138-.506.138zm-79.728-46.479 78.731 43.78.26-252.378-79.517-45.165z"/><path d="m223.654 1294.871-107.378 62.084 81.521 46.303 107.279-61.802z" fill="#fff"/><path d="m197.797 1404.258c-.17 0-.341-.043-.494-.13l-81.521-46.303c-.312-.177-.505-.507-.506-.866-.001-.358.189-.69.499-.87l107.378-62.083c.308-.178.688-.179.997-.002l81.422 46.584c.311.178.503.509.503.867s-.19.689-.501.868l-107.279 61.802c-.153.088-.325.133-.498.133zm-79.51-47.311 79.507 45.159 105.274-60.647-79.411-45.434z"/><path d="m777.939 926.717-198.867 310.338-167.335-157.253-173.195 247.616v27.154l171.211-247.901 167.508 156.642 200.752-311.444z"/><path d="m238.542 1355.572c-.099 0-.199-.015-.298-.045-.418-.13-.702-.517-.702-.955v-27.154c0-.205.063-.405.18-.573l173.196-247.616c.166-.238.428-.392.717-.421.289-.028.576.067.788.266l166.457 156.428 198.218-309.325c.239-.373.696-.545 1.122-.421s.719.514.72.957l.074 25.152c0 .193-.055.382-.159.545l-200.752 311.444c-.161.249-.423.414-.718.45-.295.039-.589-.059-.806-.262l-166.66-155.85-170.552 246.947c-.192.277-.503.433-.825.433zm1-27.839v23.632l169.388-245.262c.165-.239.427-.395.716-.426.289-.032.578.065.79.264l166.633 155.824 199.943-310.189-.063-21.461-197.035 307.479c-.16.25-.424.417-.719.453-.295.038-.591-.06-.808-.264l-166.492-156.461z"/><path d="m747.201 910.673-193.445 302.633 25.35 23.696 198.833-310.285 35.039 25.996-9.043-96.64-90.078 31.994z" fill="#dbf301"/><path d="m579.106 1238.002c-.252 0-.497-.095-.683-.27l-25.35-23.697c-.352-.329-.419-.863-.16-1.269l192.921-301.813-32.538-22.06c-.312-.211-.479-.581-.431-.955s.302-.689.657-.815l90.078-31.994c.291-.103.613-.066.873.099.26.166.429.443.458.75l9.042 96.64c.037.393-.161.771-.505.965s-.77.167-1.087-.068l-34.179-25.359-198.255 309.384c-.16.25-.423.416-.718.453-.04.007-.082.009-.123.009zm-24.059-24.859 23.865 22.309 198.185-309.275c.149-.233.389-.394.662-.444s.554.016.776.18l33.239 24.661-8.714-93.129-87.006 30.902 31.708 21.497c.448.304.573.91.281 1.366z"/><path d="m713.857 888.067.065 24.632 22.654 14.596 10.625-16.622z" fill="#fff"/><path d="m736.576 928.295c-.191 0-.379-.054-.542-.159l-22.654-14.596c-.285-.184-.458-.499-.458-.838l-.064-24.633c-.001-.371.203-.711.53-.885.328-.174.724-.153 1.031.055l33.344 22.606c.448.304.573.91.281 1.366l-10.625 16.622c-.143.224-.37.382-.629.438-.071.016-.143.024-.214.024zm-21.656-16.142 21.354 13.757 9.56-14.956-30.972-20.998z"/><path d="m777.939 926.717.074 25.152 34.965 23.528v-22.684z" fill="#fff"/><path d="m812.978 976.397c-.196 0-.39-.057-.558-.17l-34.965-23.528c-.275-.185-.441-.495-.442-.827l-.074-25.152c-.001-.378.211-.725.549-.896s.743-.136 1.047.09l35.039 25.997c.254.188.404.486.404.803v22.683c0 .37-.204.709-.53.883-.148.078-.309.117-.47.117zm-33.967-25.062 32.967 22.183v-20.302l-33.033-24.509z"/><path d="m383.988 1062.015 27.749 17.787-173.195 247.616-27.752-13.543z" fill="#dbf301"/><path d="m238.541 1328.418c-.148 0-.298-.033-.438-.101l-27.752-13.543c-.262-.128-.454-.363-.529-.645s-.022-.581.143-.821l173.198-251.859c.306-.445.909-.567 1.364-.275l27.749 17.787c.229.147.389.381.441.648s-.006.544-.162.767l-173.196 247.616c-.19.274-.5.426-.818.426zm-26.269-14.933 25.941 12.659 172.109-246.062-26.058-16.703z"/><path d="m210.79 1313.875v27.106l27.752 13.591v-27.154z" fill="#fff"/><path d="m238.542 1355.572c-.15 0-.301-.034-.44-.102l-27.752-13.591c-.343-.168-.56-.516-.56-.898v-27.106c0-.345.178-.666.47-.848.292-.183.659-.201.968-.051l27.752 13.543c.344.168.561.517.561.899v27.154c0 .345-.178.666-.471.849-.16.1-.344.151-.528.151zm-26.752-15.214 25.752 12.611v-24.927l-25.752-12.567z"/><path d="m861.43 1905.901-427.168-242.867c-5.229-2.973-8.402-8.579-8.258-14.592l.515-21.595 327.223-168.453 441.586 232.814v25.395c0 3.308-1.764 6.365-4.628 8.02l-313.512 181.222c-4.87 2.815-10.868 2.836-15.758.056z" fill="#adc4cb"/><path d="m869.259 1908.962c-2.876 0-5.753-.73-8.323-2.192l-427.168-242.867c-5.558-3.16-8.916-9.094-8.764-15.485l.515-21.595c.009-.366.217-.698.542-.865l327.223-168.453c.291-.149.635-.147.924.004l441.586 232.813c.328.173.534.514.534.885v25.395c0 3.653-1.965 7.058-5.127 8.886l-313.513 181.222c-2.596 1.501-5.512 2.252-8.429 2.252zm-441.755-281.498-.5 21.002c-.135 5.654 2.836 10.903 7.753 13.699l427.168 242.867c4.562 2.594 10.219 2.573 14.763-.053l313.512-181.222c2.546-1.472 4.128-4.214 4.128-7.155v-24.792l-440.591-232.289z"/><path d="m1195.328 1698.152-326.008 186.865v22.954s5.264-.967 6.915-1.618c3.355-1.323 12.51-7.188 12.51-7.188l301.204-174.109c3.329-1.923 5.379-5.476 5.379-9.321z"/><path d="m869.319 1908.971c-.232 0-.459-.081-.64-.231-.228-.19-.36-.472-.36-.769v-22.954c0-.358.192-.689.503-.868l326.008-186.865c.31-.177.69-.176.999.002s.499.508.499.865v17.583c0 4.188-2.253 8.091-5.879 10.187l-301.204 174.109c-.338.218-9.237 5.909-12.643 7.253-1.723.679-6.883 1.631-7.102 1.671-.06.012-.12.017-.181.017zm1-23.374v21.165c1.805-.356 4.534-.939 5.548-1.339 3.227-1.273 12.247-7.042 12.337-7.1l301.243-174.132c3.01-1.739 4.88-4.979 4.88-8.455v-15.858z"/><path d="m864.178 1883.667-432.608-245.96c-6.946-3.949-6.969-13.951-.042-17.932l317.089-182.233c3.174-1.824 7.077-1.832 10.258-.019l431.236 245.696c6.928 3.947 6.959 13.924.056 17.914l-315.716 182.497c-3.175 1.836-7.085 1.85-10.273.037z" fill="#fff"/><path d="m869.282 1886.011c-1.935 0-3.869-.491-5.598-1.474l-432.608-245.96c-3.578-2.034-5.719-5.706-5.729-9.821s2.115-7.797 5.683-9.848l317.089-182.233c3.467-1.992 7.778-2 11.252-.021l431.236 245.696c3.569 2.033 5.707 5.699 5.72 9.807.013 4.107-2.103 7.787-5.659 9.842l-315.717 182.497c-1.746 1.009-3.708 1.515-5.669 1.515zm-115.518-448.836c-1.608 0-3.215.412-4.648 1.235l-317.089 182.233c-2.938 1.688-4.688 4.72-4.68 8.108.008 3.389 1.771 6.412 4.717 8.087l432.608 245.96c2.867 1.63 6.422 1.617 9.278-.034l315.717-182.497c2.928-1.692 4.67-4.722 4.66-8.104s-1.771-6.401-4.71-8.075l-431.236-245.696c-1.425-.812-3.021-1.217-4.617-1.217z"/><path d="m762.508 1457.431 398.63 227.119c3.633 2.07 3.649 7.301.029 9.393l-288.236 166.611c-5.576 3.223-12.443 3.248-18.041.064l-394.26-224.157c-3.694-2.1-3.707-7.421-.022-9.538l294.897-169.479c2.167-1.246 4.831-1.251 7.003-.013z" fill="#fff"/><path d="m863.855 1863.978c-3.268 0-6.537-.83-9.458-2.491l-394.261-224.157c-2.051-1.166-3.278-3.271-3.284-5.629s1.212-4.469 3.258-5.645l294.897-169.479c2.464-1.416 5.528-1.421 7.997-.015l398.63 227.119c2.021 1.151 3.232 3.228 3.239 5.554s-1.191 4.41-3.205 5.574l-288.236 166.611c-2.949 1.705-6.263 2.558-9.577 2.558zm-104.837-406.468c-1.043 0-2.086.267-3.015.801l-294.897 169.479c-1.415.813-2.258 2.273-2.254 3.906s.853 3.089 2.272 3.896l394.261 224.158c5.268 2.995 11.8 2.972 17.046-.061l288.236-166.611c1.386-.801 2.21-2.235 2.205-3.836s-.838-3.03-2.229-3.823l-398.63-227.119c-.924-.527-1.96-.79-2.995-.79z"/><path d="m1081.297 1780.795-68.936 39.847-.113-8.062 69.184-39.991z"/><path d="m1012.361 1821.642c-.17 0-.341-.043-.494-.13-.309-.175-.501-.501-.506-.855l-.113-8.062c-.005-.362.186-.699.499-.88l69.184-39.991c.312-.18.697-.179 1.007.004.311.183.499.518.493.878l-.135 8.206c-.006.351-.195.673-.499.849l-68.936 39.848c-.155.089-.328.133-.5.133zm.895-8.489.081 5.771 66.97-38.711.096-5.873zm68.041-32.358h.01z"/><path d="m766.507 1713.311.035 30.638 39.904 23.278v-30.659z" fill="#dbf301"/><path d="m806.446 1768.227c-.174 0-.348-.045-.504-.136l-39.904-23.278c-.307-.179-.496-.507-.496-.863l-.036-30.639c0-.358.191-.689.501-.868s.693-.177 1.002.002l39.939 23.258c.308.179.497.508.497.864v30.659c0 .358-.191.689-.502.867-.153.089-.325.134-.497.134zm-38.904-24.853 37.904 22.111v-28.343l-37.937-22.092z"/><path d="m740.703 1699.996-.063-.037-40.212-23.419.186-.108 57.057-32.994.063.037 40.212 23.33-.186.108zm-39.777-23.454 39.777 23.166 56.745-32.902-39.777-23.077z"/><path d="m810.518 1499.511c.555 2.01.937 4.064 1.144 6.139l40.15 23.066c-.205-2.076-3.79-17.991-4.341-20.002z"/><path d="m851.813 1529.716c-.172 0-.344-.044-.498-.133l-40.15-23.066c-.28-.161-.465-.447-.497-.768-.201-2.014-.575-4.023-1.113-5.972-.094-.343 0-.71.248-.964s.613-.359.958-.272l36.953 9.203c.351.087.627.357.723.706.483 1.764 4.154 17.961 4.372 20.167.037.373-.138.735-.452.938-.166.107-.355.161-.544.161zm-39.211-24.679 37.863 21.752c-.877-4.471-3.103-14.384-3.814-17.249l-34.757-8.655c.313 1.369.55 2.758.708 4.152z"/><path d="m871.629 1578.758c-.188 47.533-34.077 91.654-72.229 116.846l.006 29.225-32.863 19.12-.035-30.638c-13.467 5.404-29.936 9.678-44.066 4.092-16.554-6.545-21.015-24.718-21.764-40.861l56.994-32.958c2.975 33.623 37.352 10.32 49.409-5.401 12.265-15.99 13.69-42.607-11.886-39.147-20.374 2.757-39.407 12.652-60.221 13.49-27.285 1.098-35.563-22.165-34.888-45.811 1.269-44.471 31.681-83.825 66.125-109.315l-.035-30.594 33.167-18.944.006 29.838c14.376-6.44 32.861-12.755 48.262-5.885 15.751 7.027 20.017 25.409 21.112 41.044l-57.06 32.792c-3.536-38.484-58.789 3.328-54.672 30.719 4.315 28.707 67.525-.002 84.235.74 23.307 1.035 30.44 21.172 30.403 41.648z" fill="#fff"/><path d="m766.542 1744.949c-.172 0-.344-.044-.498-.133-.31-.178-.502-.508-.502-.866l-.034-29.17c-17.78 6.914-31.998 8.074-43.435 3.552-13.828-5.467-21.363-19.512-22.395-41.744-.017-.373.175-.725.498-.912l56.994-32.958c.296-.171.658-.179.962-.021.303.157.505.458.535.799.792 8.955 3.885 14.278 9.193 15.821 11.018 3.205 29.807-10.504 38.427-21.742 7.947-10.361 10.619-23.9 6.215-31.494-2.947-5.081-8.885-7.174-17.174-6.054-8.89 1.203-17.708 3.833-26.237 6.375-10.963 3.269-22.3 6.649-34.078 7.123-10.071.405-18.243-2.418-24.287-8.393-7.989-7.896-12.123-21.549-11.641-38.446.6-21.02 7.592-41.978 20.783-62.292 11.32-17.433 26.992-33.848 45.341-47.498l-.035-30.09c0-.359.192-.691.504-.869l33.167-18.944c.309-.177.69-.176.998.003s.498.508.498.865l.006 28.302c26.898-11.745 40.071-8.652 47.67-5.262 13.037 5.816 20.136 19.517 21.702 41.887.027.382-.167.746-.499.937l-57.06 32.792c-.295.169-.657.176-.959.021-.302-.157-.504-.457-.535-.796-.661-7.199-3.17-11.801-7.455-13.678-5.897-2.583-15.052.19-24.488 7.418-11.344 8.688-22.674 23.892-20.743 36.74.591 3.935 2.331 6.807 5.319 8.781 10.663 7.045 34.558.844 53.758-4.138 10.293-2.671 19.184-4.986 24.213-4.754 11.083.492 19.416 5.207 24.766 14.014 4.334 7.134 6.614 17.036 6.593 28.636v.002c-.088 22.318-7.711 45.607-22.043 67.347-12.624 19.148-30.432 36.899-50.186 50.033l.005 28.688c0 .356-.189.685-.497.864l-32.863 19.12c-.155.089-.329.134-.503.134zm-.036-32.639c.197 0 .392.058.56.171.275.186.44.496.44.828l.033 28.902 30.865-17.957-.005-28.65c0-.336.169-.649.449-.834 19.713-13.017 37.494-30.689 50.068-49.762 14.118-21.415 21.626-44.326 21.713-66.254.026-14.691-3.766-39.505-29.448-40.646-4.73-.218-13.485 2.062-23.622 4.692-19.584 5.082-43.957 11.406-55.363 3.871-3.439-2.272-5.524-5.688-6.195-10.153-2.052-13.649 9.709-29.59 21.505-38.625 10.024-7.677 19.933-10.541 26.507-7.663 4.674 2.047 7.52 6.684 8.472 13.792l55.193-31.719c-1.595-21.192-8.297-34.143-20.477-39.576-15.409-6.874-34.458.066-47.446 5.884-.31.139-.668.111-.952-.073-.285-.184-.456-.5-.456-.839l-.006-28.115-31.166 17.801.035 30.013c0 .317-.15.616-.405.805-18.334 13.568-33.985 29.917-45.259 47.28-12.988 20.001-19.872 40.612-20.461 61.259-.466 16.336 3.457 29.465 11.048 36.967 5.635 5.569 13.307 8.194 22.801 7.817 11.528-.464 22.742-3.808 33.587-7.041 8.602-2.564 17.496-5.216 26.54-6.44 11.568-1.566 16.811 2.96 19.172 7.032 4.786 8.253 2.053 22.748-6.359 33.714-8.777 11.444-28.276 26.021-40.572 22.446-5.848-1.701-9.364-7.086-10.463-16.017l-55.133 31.881c1.098 21.022 8.196 34.268 21.103 39.371 11.23 4.441 25.402 3.103 43.325-4.09.12-.048.247-.072.372-.072zm105.123-133.552h.01z"/><path d="m801.054 1598.461c24.565-1.975 12.751 32.292 3.624 42.543-12.98 14.578-44.285 34.782-47.006 2.579l40.026 23.221c2.684 32.232 34.019 11.934 46.978-2.636 9.167-10.306 20.988-44.42-3.571-42.567z"/><path d="m811.154 1684.989c-1.565 0-3.056-.214-4.448-.679-5.731-1.912-9.08-7.597-9.958-16.9l-14.458-8.389c-5.597 2.487-11.101 3.565-15.572 2.075-5.85-1.949-9.229-7.813-10.042-17.429-.031-.371.146-.729.461-.929s.715-.208 1.037-.02l24.262 14.076c1.305-.619 2.546-1.282 3.684-1.938 6.283-3.621 12.942-9.047 17.812-14.517 5.606-6.296 12.778-23.135 10.206-33.164l-13.583-7.848c-.379-.219-.572-.659-.475-1.086.096-.427.459-.742.895-.776 8.648-.696 12.42 3.087 14.061 6.383.315.634.581 1.301.8 1.999l25.505 14.736c8.436-.537 12.132 3.209 13.748 6.472 2.299 4.645 2.152 11.758-.413 20.031-2.124 6.851-5.756 13.817-9.251 17.748-8.099 9.103-23.043 20.154-34.271 20.155zm-26.675-27.009 13.72 7.96c.283.164.468.456.495.782.728 8.742 3.636 14.021 8.644 15.691 10.402 3.467 27.983-9.232 36.59-18.909 3.321-3.734 6.789-10.411 8.835-17.011 2.412-7.781 2.601-14.369.531-18.552-1.981-4.002-6.057-5.802-12.115-5.343-.2.016-.401-.03-.575-.131l-24.169-13.964c1.63 11.047-5.576 27.064-11.01 33.167-5.127 5.757-13.004 12.295-20.946 16.31zm-25.604-12.542c.989 7.59 3.835 12.216 8.474 13.761 3.913 1.303 8.573.307 12.819-1.408zm45.906-45.979 8.16 4.715c-1.608-2.776-4.344-4.354-8.16-4.715z"/><path d="m806.445 1449.874v30.606c-30.209 22.402-57.258 55.207-64.408 93.032-2.198 11.626 11.21 56.111 11.21 56.111s-36.03-19.686-41.445-24.841c-9.055-8.621-12.14-23.27-11.714-38.069 1.269-44.476 31.683-83.819 66.119-109.315l-.034-30.595z" fill="#87c159"/><path d="m753.247 1630.623c-.164 0-.329-.041-.479-.123-1.476-.806-36.208-19.809-41.655-24.995-8.248-7.853-12.519-21.64-12.025-38.822.6-21.02 7.592-41.978 20.783-62.291 11.316-17.427 26.986-33.843 45.335-47.498l-.034-30.092c0-.357.189-.687.498-.866.309-.18.689-.18.999-.003l40.272 23.071c.311.178.503.509.503.868v30.606c0 .317-.15.615-.404.803-34.408 25.516-57.742 59.199-64.021 92.414-2.128 11.254 11.052 55.195 11.185 55.637.117.389-.012.81-.327 1.065-.182.151-.405.226-.63.226zm13.928-202.093.032 28.868c0 .317-.15.616-.405.805-18.334 13.574-33.983 29.924-45.254 47.281-12.988 20.001-19.872 40.611-20.461 61.259-.478 16.608 3.573 29.86 11.404 37.316 4.506 4.29 31.302 19.21 39.107 23.517-2.755-9.426-12.494-43.935-10.544-54.249 6.346-33.571 29.807-67.572 64.391-93.348v-29.524z"/><path d="m847.61 1431.815c-15.401-6.871-33.886-.556-48.262 5.885l40.238 23.034c14.356-6.453 49.852-5.161 49.852-5.161s-26.077-16.731-41.828-23.758z" fill="#87c159"/><path d="m839.585 1461.733c-.172 0-.343-.044-.497-.132l-40.238-23.034c-.327-.187-.521-.541-.502-.917s.247-.709.59-.863c27.85-12.477 41.348-9.334 49.079-5.885 15.639 6.977 41.699 23.661 41.96 23.828.379.244.549.71.414 1.141-.135.43-.539.716-.991.701-.353-.014-35.428-1.209-49.406 5.074-.129.058-.269.087-.409.087zm-38.024-23.919 38.084 21.801c12.024-5.118 36.849-5.268 46.203-5.128-7.342-4.602-26.302-16.252-38.646-21.759-14.709-6.562-32.736-.535-45.641 5.086z"/><path d="m700.677 1676.542c.749 16.143 4.493 31.583 19.393 41.32 3.902 2.55 41.28 22.407 41.28 22.407s-19.92-24.29-20.647-40.417z" fill="#87c159"/><path d="m761.35 1741.269c-.159 0-.32-.038-.469-.117-1.528-.812-37.462-19.908-41.358-22.454-16.353-10.687-19.196-28.118-19.845-42.111-.017-.366.167-.712.481-.901.313-.19.705-.193 1.022-.009l40.026 23.311c.294.171.48.479.496.819.704 15.608 20.224 39.587 20.422 39.828.302.369.302.899 0 1.268-.196.238-.483.366-.775.366zm-59.572-62.929c1.556 24.342 10.848 33.462 18.84 38.685 3.049 1.992 27.234 14.919 37.068 20.161-5.532-7.377-17.073-24.148-17.95-36.74z"/><path d="m898.98 1566.228c-12.397 1.654-66.288 7.484-66.288 7.484s-27.493 3.223-33.68-7.95c-3.365-6.074-3.218-12.771-1.053-19.23 17.405-3.649 34.577-8.339 42.271-9.832 10.346-2.007 20.052.753 29.264 5.087 13.019 6.125 22.95 17.769 29.486 24.441z"/><path d="m823.988 1575.159c-8.834 0-21.678-1.377-25.851-8.913-3.241-5.851-3.621-12.59-1.127-20.032.113-.336.396-.588.743-.661 9.658-2.025 19.377-4.403 27.187-6.314 6.255-1.531 11.658-2.853 15.099-3.52 9.131-1.773 18.626-.13 29.88 5.164 11.39 5.358 20.344 14.765 26.882 21.633 1.029 1.081 1.993 2.094 2.893 3.013.265.271.354.667.231 1.025s-.438.615-.813.666c-12.267 1.637-65.774 7.429-66.313 7.487-.402.046-4.015.452-8.811.452zm-25.258-27.768c-2.112 6.671-1.724 12.687 1.157 17.886 5.795 10.465 32.42 7.474 32.688 7.441.522-.057 49.158-5.321 64.301-7.228-.491-.512-.999-1.046-1.524-1.597-6.429-6.754-15.234-16.003-26.285-21.202-10.852-5.105-19.954-6.698-28.648-5.01-3.393.658-8.774 1.975-15.004 3.5-7.672 1.878-17.182 4.205-26.685 6.21z"/><path d="m911.611 1604.282c.479-18.451-3.372-38.366-23.785-43.25-17.29-4.137-37.996 4.515-54.646 8.245-10.113 2.266-27.978 7.661-34.173-3.521-9.011-16.267 7.172-36.967 19.927-45.771 13.153-9.078 31.02-11.839 32.877 8.73l57.06-32.88c-1.073-15.62-5.303-34.027-21.05-41.047-15.397-6.864-33.881-.509-48.237 5.944l.029-29.859-33.167 18.995v30.615c-30.211 22.395-57.259 55.207-64.411 93.031-4.384 23.183-3.697 58.184 26.059 62.048 20.504 2.663 41.541-7.986 61.189-12.25 6.824-1.481 16.313-3.853 22.152 1.129 8.827 7.533 3.778 23.84-1.032 32.087-10.12 17.355-49.678 46.33-52.707 10.274l-56.994 33.047c.728 16.127 5.151 34.326 21.701 40.863 14.124 5.578 30.592 1.271 44.041-4.146v30.659l32.863-19.171.028-29.245c37.621-24.905 70.751-67.834 72.276-114.527z" fill="#87c159"/><path d="m806.446 1768.227c-.172 0-.344-.044-.498-.133-.311-.178-.502-.509-.502-.867v-29.187c-17.775 6.939-31.984 8.116-43.408 3.604-13.815-5.456-21.329-19.502-22.333-41.748-.017-.372.175-.723.497-.91l56.994-33.047c.296-.172.66-.18.964-.021s.505.461.534.803c.785 9.338 4.086 14.729 9.812 16.022 12.415 2.798 33.714-14.161 41.035-26.717 4.8-8.232 9.383-23.879 1.246-30.823-5.199-4.437-13.959-2.518-20.355-1.117l-.935.204c-6.081 1.32-12.178 3.218-18.633 5.229-14.044 4.373-28.566 8.896-42.897 7.035-8.944-1.162-15.952-5.162-20.83-11.889-11.304-15.589-8.02-41.095-6.083-51.337 6.35-33.583 29.812-67.583 64.394-93.348v-30.112c0-.358.192-.689.503-.868l33.167-18.995c.31-.178.69-.177.999.003.309.179.498.509.498.866l-.028 28.319c26.894-11.785 40.052-8.702 47.643-5.319 13.024 5.807 20.103 19.51 21.641 41.893.026.381-.167.744-.498.935l-57.06 32.88c-.296.171-.658.178-.96.021-.303-.157-.505-.458-.535-.798-.627-6.941-3.131-11.486-7.444-13.508-6.976-3.27-16.904.703-23.87 5.511-12.91 8.91-28.073 29.204-19.621 44.463 5.293 9.555 20.337 6.016 30.292 3.675.979-.23 1.912-.45 2.787-.646 4.012-.899 8.218-2.074 12.671-3.317 13.629-3.806 29.076-8.119 42.427-4.925 16.948 4.055 25.208 18.942 24.552 44.248v.007c-.717 21.969-8.591 44.777-22.77 65.958-12.724 19.009-29.834 35.968-49.504 49.076l-.028 28.709c0 .355-.189.684-.496.863l-32.863 19.171c-.157.092-.331.137-.505.137zm0-32.659c.197 0 .392.058.56.171.275.186.44.497.44.829v28.917l30.864-18.004.028-28.671c0-.335.168-.648.448-.833 19.639-13.002 36.719-29.883 49.393-48.817 13.971-20.871 21.728-43.316 22.433-64.911.637-24.568-6.892-38.387-23.018-42.244-12.845-3.073-28.028 1.167-41.423 4.906-4.479 1.25-8.709 2.432-12.772 3.342-.869.195-1.795.413-2.767.641-10.542 2.479-26.473 6.227-32.499-4.653-9.152-16.522 6.323-37.476 20.234-47.078 7.422-5.123 18.112-9.306 25.854-5.675 4.661 2.185 7.488 6.756 8.414 13.6l55.195-31.805c-1.567-21.206-8.249-34.156-20.415-39.58-15.39-6.862-34.434.105-47.42 5.943-.309.139-.669.112-.953-.073s-.457-.501-.456-.84l.028-28.131-31.166 17.849v30.035c0 .317-.15.615-.405.803-34.406 25.504-57.741 59.187-64.024 92.414-1.888 9.987-5.11 34.832 5.737 49.791 4.542 6.264 11.092 9.992 19.468 11.08 13.896 1.804 28.206-2.652 42.045-6.961 6.213-1.935 12.636-3.936 18.803-5.273l.931-.204c6.806-1.491 16.127-3.533 22.082 1.549 9.127 7.789 4.512 24.213-.817 33.352-7.584 13.005-29.554 30.747-43.203 27.66-6.331-1.429-10.097-6.892-11.207-16.247l-55.127 31.964c1.071 21.036 8.148 34.281 21.041 39.372 11.218 4.431 25.381 3.075 43.3-4.144.121-.05.247-.074.374-.074zm105.165-131.286h.01z"/><path d="m799.341 1407.862-33.166 18.944 40.272 23.064 33.168-18.995z" fill="#dbf301"/><path d="m806.447 1450.87c-.172 0-.343-.044-.497-.132l-40.273-23.064c-.311-.178-.503-.51-.503-.868 0-.359.193-.69.504-.868l33.167-18.944c.307-.176.685-.176.992 0l40.273 23.013c.312.178.504.509.504.868s-.192.69-.503.868l-33.167 18.995c-.154.088-.325.132-.497.132zm-38.258-24.063 38.259 21.911 31.153-17.842-38.259-21.862z"/><path d="m700.677 1676.542 40.918 22.793 56.103-32.53-40.026-23.221z" fill="#dbf301"/><path d="m741.594 1700.335c-.168 0-.335-.042-.487-.126l-40.917-22.793c-.314-.175-.51-.506-.513-.866s.188-.693.499-.874l56.994-32.958c.31-.179.693-.18 1.002.001l40.026 23.222c.308.179.498.508.498.865s-.19.686-.498.865l-56.103 32.53c-.154.089-.327.134-.501.134zm-38.891-23.81 38.882 21.659 54.12-31.38-38.034-22.065z"/><path d="m891.417 1402.93-.233-28.291 527.151-278.717 810.501 466.154c4.127 2.374.892 8.575.892 8.575l-516.348 301.112c-9.418 5.462-21.04 5.462-30.458-.001l-783.139-454.305c-5.179-3.006-8.366-8.54-8.366-14.527z" fill="#adc4cb"/><path d="m1698.152 1876.848c-5.44 0-10.879-1.407-15.731-4.221l-783.139-454.305c-5.466-3.171-8.862-9.065-8.865-15.383l-.233-28.292c-.003-.374.202-.718.532-.893l527.151-278.716c.304-.161.668-.155.966.017l810.501 466.154c3.922 2.256 2.552 7.464 1.28 9.903-.087.167-.22.307-.383.401l-516.348 301.112c-4.851 2.815-10.292 4.222-15.731 4.223zm-805.963-501.61.228 27.684v.008c0 5.611 3.015 10.846 7.869 13.662l783.139 454.305c9.084 5.269 20.37 5.27 29.454.001l516.081-300.957c.492-1.077 2.218-5.365-.621-6.999l-810.023-465.879z"/><path d="m897.201 1363.318 494.107-284.038 820.644 472.291-497.565 287.881c-10.041 5.823-22.431 5.821-32.471-.003l-784.756-455.243c-8.03-4.658-8.007-16.262.041-20.888z" fill="#fff"/><path d="m1698.154 1844.807c-5.789 0-11.577-1.498-16.74-4.493l-784.756-455.243c-4.084-2.369-6.516-6.602-6.507-11.323s2.458-8.944 6.552-11.297l.498.867-.498-.867 494.107-284.038c.309-.178.689-.177.997 0l820.644 472.291c.31.178.501.508.501.866 0 .357-.19.688-.499.867l-497.566 287.882c-5.159 2.991-10.947 4.487-16.733 4.488zm-306.846-764.374-493.608 283.752c-3.466 1.992-5.54 5.569-5.548 9.567s2.052 7.583 5.51 9.589l784.756 455.243c9.705 5.63 21.763 5.63 31.468.003l496.066-287.014z"/><path d="m2211.701 1547.182c-.234 4.179-7.216 8.203-9.75 9.667l-489.776 283.882s-3.564 1.752-6.944 2.456c-3.711.773-7.086.631-7.086.631v32.041s5.809-.334 10.077-1.722c4.71-1.532 9.498-4.288 9.498-4.288l506.463-294.339c5.31-3.086 9.579-7.55 12.426-12.822z"/><path d="m1698.146 1876.859c-.255 0-.5-.097-.687-.273-.2-.189-.313-.452-.313-.727v-32.041c0-.272.111-.533.308-.722.196-.188.461-.289.734-.277.032-.001 3.303.126 6.84-.611 3.219-.67 6.672-2.358 6.707-2.375l489.715-283.849c2.254-1.302 9.051-5.229 9.253-8.857.02-.353.224-.669.538-.832.313-.163.689-.147.99.039l24.908 15.506c.448.279.602.859.351 1.324-2.971 5.502-7.398 10.07-12.803 13.211l-506.463 294.339c-.203.117-4.937 2.827-9.691 4.374-4.341 1.412-10.087 1.756-10.329 1.77-.02 0-.039.001-.058.001zm1-32.032v29.951c1.844-.165 5.74-.608 8.768-1.593 4.552-1.48 9.261-4.176 9.308-4.203l506.459-294.337c4.815-2.798 8.806-6.8 11.59-11.612l-22.899-14.255c-1.482 4.061-7.477 7.525-9.902 8.926l-489.794 283.892c-.21.106-3.778 1.849-7.241 2.57-2.577.537-4.975.647-6.289.661z"/><path d="m2095.845 1554.038-187.148 108.639c-8.812 5.116-19.689 5.125-28.51.023l-687.641-397.663c-9.255-5.352-9.235-18.72.037-24.044l187.183-107.486c8.782-5.043 19.584-5.034 28.359.023l687.683 396.383c9.285 5.353 9.305 18.745.037 24.125z" fill="#adc4cb"/><path d="m1894.421 1667.51c-5.094 0-10.189-1.314-14.735-3.943l-687.641-397.663c-4.66-2.695-7.437-7.517-7.428-12.9.008-5.382 2.8-10.196 7.468-12.876l187.183-107.487c9.058-5.201 20.307-5.192 29.356.024l687.683 396.383c4.674 2.693 7.469 7.522 7.477 12.916s-2.772 10.231-7.437 12.939l-.502-.865.502.865-187.148 108.64c-4.557 2.644-9.667 3.967-14.778 3.967zm-500.497-536.765c-4.723 0-9.446 1.21-13.661 3.63l-187.183 107.487c-4.04 2.32-6.457 6.486-6.464 11.146-.007 4.659 2.396 8.833 6.43 11.165l687.641 397.663c8.486 4.908 19.027 4.899 27.507-.022l187.148-108.64c4.04-2.345 6.448-6.535 6.441-11.206-.007-4.672-2.428-8.854-6.475-11.187l-687.684-396.383c-4.223-2.435-8.962-3.653-13.7-3.653z"/><path d="m1452.733 1676.671-261.292-151.105c-9.256-5.353-9.234-18.724.04-24.046l153.659-88.178c8.781-5.039 19.579-5.029 28.351.026l260.781 150.299c9.285 5.351 9.306 18.744.038 24.125l-153.067 88.855c-8.813 5.116-19.689 5.125-28.51.024z" fill="#fff"/><path d="m1466.967 1681.48c-5.094 0-10.189-1.314-14.735-3.943l-261.292-151.105c-4.66-2.695-7.437-7.518-7.428-12.902.009-5.383 2.802-10.197 7.471-12.877l153.659-88.178c9.056-5.197 20.301-5.187 29.348.027l260.781 150.299c4.674 2.693 7.469 7.522 7.477 12.916.008 5.395-2.772 10.231-7.437 12.939l-153.067 88.855c-4.556 2.647-9.666 3.969-14.777 3.969zm-107.675-270.896c-4.721 0-9.441 1.208-13.654 3.626l-153.659 88.178c-4.042 2.319-6.459 6.486-6.467 11.146s2.396 8.834 6.43 11.167l261.292 151.105c8.488 4.909 19.028 4.9 27.507-.022l153.067-88.855c4.04-2.346 6.448-6.535 6.441-11.207s-2.428-8.854-6.476-11.187l-260.781-150.299c-4.224-2.434-8.962-3.652-13.7-3.652z"/><path d="m2323.318 935.395-83.051 616.05-29.566.204-34.232-21.054-752.298-462.654 50.267-611.051.351-.159 2.946-1.348 16.147-7.411c9.292-4.125 16.952-3.796 25.768 1.269l786.326 450.976c12.395 7.111 19.251 21.017 17.342 35.178z" fill="#fff"/><path d="m2210.701 1552.65c-.185 0-.366-.051-.524-.148l-786.53-483.707c-.321-.198-.504-.559-.473-.934l50.267-611.051c.03-.362.254-.68.585-.829l3.292-1.505 16.146-7.41c9.652-4.284 17.629-3.891 26.683 1.311l786.325 450.976c12.807 7.345 19.808 21.546 17.835 36.177l-83.051 616.051c-.066.493-.486.863-.984.866l-29.567.204c.001-.001-.001-.001-.004-.001zm-785.483-485.238 785.763 483.236 28.412-.196 82.935-615.19.991.134-.991-.134c1.863-13.822-4.75-27.236-16.849-34.175l-786.326-450.976c-8.438-4.847-15.875-5.213-24.865-1.222l-18.902 8.671z"/><path d="m2320.406 915.977c-2.992-6.488-7.955-12.055-14.428-15.767l-786.328-450.967c-8.816-5.065-16.476-5.394-25.768-1.269l-16.147 7.411 3.615 2.073 791.876 454.141c6.4 3.671 11.325 9.155 14.328 15.552z" fill="#fff"/><path d="m2287.554 928.152c-.378 0-.737-.216-.906-.575-2.994-6.38-7.808-11.604-13.921-15.11l-795.491-456.215c-.325-.186-.518-.539-.501-.913s.242-.708.582-.864l16.147-7.411c9.652-4.284 17.629-3.891 26.683 1.311l786.327 450.966c6.546 3.754 11.677 9.362 14.839 16.216.119.257.123.553.011.813s-.329.461-.597.552l-32.852 11.175c-.105.038-.214.055-.321.055zm-807.637-472.668 1.93 1.107 791.876 454.141c6.211 3.562 11.155 8.801 14.345 15.189l30.947-10.528c-3.013-6.02-7.674-10.955-13.536-14.316l-786.327-450.966c-8.438-4.848-15.874-5.213-24.865-1.222z"/><path d="m1391.308 1079.28 77.711-615.676c.74-5.864 7.208-9.086 12.335-6.146l791.717 454.064c12.431 7.129 19.334 21.052 17.484 35.263l-79.02 605.339z" fill="#87c159"/><path d="m2211.536 1553.122c-.173 0-.345-.045-.5-.134l-820.227-472.843c-.349-.201-.543-.592-.493-.992l77.711-615.676c.39-3.086 2.284-5.757 5.069-7.144 2.784-1.387 6.058-1.292 8.756.256l791.717 454.064c12.831 7.359 19.888 21.592 17.978 36.259l-79.02 605.339c-.043.332-.249.619-.549.767-.139.07-.291.104-.442.104zm-819.152-474.377 818.354 471.763 78.826-603.854c1.805-13.861-4.864-27.312-16.99-34.266l-791.717-454.064c-2.117-1.214-4.685-1.289-6.869-.201s-3.671 3.184-3.976 5.605z"/><path d="m2236.61 1562.688c1.865-3.454 3.12-7.255 3.658-11.243l83.052-616.06c.912-6.766-.177-13.473-2.914-19.409l-32.852 11.175c2.788 5.939 3.919 12.666 3.037 19.459l-77.324 594.855c-.489 3.763-1.952 7.276-4.18 10.227z"/><path d="m2236.609 1563.688c-.124 0-.25-.023-.371-.071l-27.524-10.996c-.289-.116-.508-.36-.592-.66s-.022-.623.165-.871c2.149-2.846 3.527-6.218 3.987-9.753l77.325-594.855c.84-6.467-.18-13.004-2.95-18.905-.121-.257-.126-.554-.015-.816s.329-.464.598-.555l32.852-11.175c.483-.164 1.016.063 1.23.528 2.879 6.244 3.915 13.147 2.997 19.962l-83.052 616.06c-.549 4.072-1.817 7.97-3.769 11.584-.18.33-.523.523-.881.523zm-25.972-12.452 25.505 10.189c1.604-3.177 2.658-6.575 3.135-10.113l83.052-616.059c.827-6.14-.025-12.356-2.465-18.035l-30.946 10.527c2.585 5.976 3.506 12.519 2.665 18.995l-77.325 594.855c-.449 3.448-1.694 6.755-3.621 9.641z"/><path d="m1435.491 1027.794 63.861-490.743 436.098 250.11-63.948 491.15z" fill="#fff"/><path d="m1871.502 1279.311c-.172 0-.344-.044-.498-.133l-436.011-250.517c-.351-.202-.546-.595-.494-.996l63.86-490.743c.043-.331.248-.618.547-.767s.652-.138.942.028l436.099 250.11c.351.201.546.595.494.997l-63.948 491.149c-.043.332-.249.619-.548.767-.139.07-.291.105-.443.105zm-434.933-252.051 434.135 249.439 63.668-489.003-434.222-249.034z"/><path d="m2332.488 1453.054 50.951-352.4c1.127-7.794-2.62-15.486-9.451-19.404l-507.003-290.79c-5.363-3.076-11.828-3.561-17.59-1.321l-18.936 7.362-37.716 355.595 515.883 315.128 4.626-1.975s18.249-5.369 19.236-12.195z" fill="#fff"/><path d="m2308.625 1468.224c-.181 0-.362-.049-.521-.146l-515.883-315.128c-.33-.202-.514-.575-.473-.959l37.716-355.595c.039-.372.283-.691.632-.826l18.936-7.362c6.073-2.361 12.798-1.856 18.45 1.386l507.003 290.79c7.233 4.149 11.136 12.162 9.943 20.415l-50.951 352.4-.99-.143.99.143c-1.039 7.185-17.702 12.347-19.887 12.994l-4.573 1.953c-.125.051-.258.078-.392.078zm-514.822-316.652 514.904 314.529 4.152-1.773c.036-.015.073-.028.11-.04 4.905-1.444 17.795-6.303 18.529-11.378l50.951-352.4c1.075-7.436-2.442-14.655-8.959-18.393l-507.003-290.79c-5.125-2.94-11.223-3.397-16.73-1.257l-18.368 7.141z"/><path d="m2382.336 1090.963s1.047 2.724 1.301 4.671c.278 2.13-.198 5.02-.198 5.02l-46.829 351.33s-.281 2.824-10.777 8.005c-5.826 2.876-13.902 6.114-13.902 6.114l50.225-367.452z"/><path d="m2311.931 1467.103c-.22 0-.437-.072-.615-.211-.281-.219-.424-.571-.375-.924l50.225-367.452c.05-.363.293-.669.635-.799l20.18-7.688c.515-.194 1.092.061 1.289.576.045.116 1.093 2.859 1.359 4.9.293 2.251-.183 5.188-.203 5.312l-46.824 351.3c-.052.53-.862 3.604-11.326 8.77-5.794 2.86-13.891 6.113-13.972 6.146-.121.046-.247.07-.373.07zm51.136-367.729-49.91 365.148c2.644-1.091 8.053-3.367 12.234-5.431 9.43-4.654 10.231-7.266 10.238-7.292l46.82-351.279c.009-.058.453-2.803.198-4.758-.147-1.128-.592-2.572-.908-3.502z"/><path d="m2362.156 1098.651-531.006-302.419 16.234-7.112c6.16-2.699 13.234-2.317 19.068 1.029l507.92 291.333s2.976 2.093 4.798 4.139c1.746 1.959 3.166 5.343 3.166 5.343z" fill="#fff"/><path d="m2362.156 1099.651c-.172 0-.342-.044-.495-.131l-531.007-302.419c-.329-.187-.524-.544-.504-.921.02-.378.251-.712.597-.864l16.234-7.113c6.422-2.813 13.886-2.41 19.967 1.078l507.92 291.332c.203.138 3.17 2.234 5.047 4.341 1.835 2.06 3.281 5.477 3.341 5.621.105.25.104.532-.003.781s-.31.444-.563.541l-20.18 7.688c-.113.045-.233.066-.354.066zm-528.781-303.302 528.866 301.2 18.742-7.141c-.53-1.101-1.49-2.923-2.56-4.123-1.722-1.933-4.598-3.966-4.627-3.986l-507.842-291.283c-5.534-3.174-12.326-3.541-18.169-.981z"/><path d="m2317.071 1458.6 46.025-353.496c.633-4.858-1.727-9.617-5.977-12.054l-515.922-295.905c-7.472-4.285-16.901.39-18.012 8.932l-45.571 350.196c-.632 4.856 1.726 9.613 5.973 12.051l518.547 297.679c6.194 3.555 14.014-.321 14.937-7.403z" fill="#fff"/><path d="m2307.125 1468.336c-1.897 0-3.789-.49-5.489-1.466l-518.547-297.679c-4.615-2.649-7.153-7.77-6.467-13.047l45.571-350.196c.565-4.343 3.245-8.097 7.169-10.043s8.534-1.806 12.333.373l515.921 295.904c4.618 2.649 7.158 7.772 6.471 13.051l-46.025 353.496-.992-.129.992.129c-.476 3.658-2.734 6.82-6.039 8.458-1.549.767-3.225 1.149-4.898 1.149zm-471.944-671.797c-1.684 0-3.371.385-4.93 1.157-3.324 1.649-5.595 4.83-6.074 8.509l-45.571 350.195c-.582 4.471 1.569 8.81 5.479 11.055l518.547 297.679c2.619 1.503 5.798 1.6 8.503.259 2.706-1.341 4.554-3.929 4.944-6.923l46.025-353.496c.583-4.473-1.57-8.813-5.482-11.058l-515.922-295.903c-1.709-.981-3.612-1.474-5.519-1.474z"/><path d="m1821.783 816.855 538.617 308.921 2.71-20.819c.621-4.771-1.697-9.446-5.871-11.84l-516.247-296.09c-7.374-4.229-16.679.385-17.776 8.815z" fill="#dbf301"/><path d="m2360.399 1126.776c-.172 0-.344-.044-.498-.132l-538.616-308.922c-.351-.201-.546-.595-.494-.996l1.433-11.013c.558-4.29 3.206-7.999 7.082-9.921s8.43-1.784 12.184.368l516.247 296.09c4.542 2.606 7.041 7.645 6.365 12.836l-2.71 20.819c-.043.331-.249.619-.548.767-.141.07-.293.104-.445.104zm-537.538-310.456 536.74 307.845 2.517-19.337c.571-4.386-1.539-8.643-5.376-10.844l-516.247-296.09c-3.173-1.82-7.023-1.936-10.3-.311s-5.515 4.76-5.987 8.387z"/><path d="m2281.238 1158.332 3.737-28.703-137.272-78.702-3.735 28.703z" fill="#fff"/><path d="m2281.238 1159.332c-.172 0-.344-.044-.497-.132l-137.27-78.702c-.351-.202-.547-.595-.494-.997l3.735-28.703c.043-.331.249-.618.547-.767.299-.148.652-.138.942.028l137.271 78.702c.352.202.547.595.494.997l-3.737 28.703c-.043.331-.249.619-.547.767-.14.069-.292.104-.444.104zm-136.192-80.237 135.393 77.626 3.457-26.558-135.394-77.626z"/><path d="m1857.32 888.473-32.479 234.26 235.189 135.081 32.466-234.339z" fill="#adc4cb"/><path d="m2060.03 1258.814c-.172 0-.344-.044-.498-.133l-235.189-135.081c-.354-.203-.548-.601-.492-1.004l32.479-234.259c.046-.329.252-.614.55-.761.299-.146.65-.135.938.031l235.176 135.001c.354.203.549.6.493 1.004l-32.466 234.339c-.046.329-.252.614-.55.761-.14.068-.291.102-.441.102zm-234.106-136.612 233.318 134.007 32.17-232.202-233.305-133.928z"/><path d="m2177.053 1310.955-16.213 4.782s-24.732-56.411-29.094-78.454c-5.636-28.484-7.615-55.246 8.378-63.841 12.496-6.716 28.382-11.489 43.551-7.432 9.771 2.614 19.171 7.977 27.692 15.265l-23.193 57.703z" fill="#fff"/><path d="m2160.839 1316.737c-.388 0-.753-.227-.916-.599-.248-.565-24.826-56.764-29.159-78.662-3.388-17.122-4.64-29.719-3.939-39.644.908-12.856 5.103-21.123 12.824-25.272 10.973-5.897 27.564-11.99 44.283-7.517 9.649 2.58 19.098 7.785 28.084 15.471.326.279.438.734.278 1.133l-23.151 57.595-11.103 71.865c-.059.383-.334.697-.705.806l-16.213 4.782c-.093.029-.189.042-.283.042zm11.088-151.236c-11.992 0-23.228 4.467-31.33 8.821-16.255 8.736-12.745 38.132-7.87 62.766 4.008 20.257 25.644 70.457 28.677 77.44l14.758-4.353 11.023-71.351c.012-.075.032-.149.061-.22l22.924-57.033c-8.592-7.235-17.59-12.144-26.754-14.595-3.854-1.031-7.71-1.475-11.489-1.475zm5.126 145.454h.01z"/><path d="m2160.84 1315.737c-21.122-14.235-39.413-40.867-45.569-71.978-9.614-48.584 15.263-81.08 51.929-71.273 9.771 2.614 19.171 7.977 27.692 15.265l-23.194 57.702z" fill="#fff"/><path d="m2160.84 1316.737c-.196 0-.391-.058-.559-.171-22.507-15.168-40.13-42.992-45.991-72.613-5.337-26.972-.173-50.891 13.814-63.985 10.166-9.517 24.143-12.517 39.354-8.448 9.649 2.581 19.098 7.786 28.084 15.471.326.279.438.734.278 1.133l-23.151 57.596-10.841 70.171c-.052.338-.274.626-.588.763-.128.055-.264.083-.4.083zm-6.265-144.982c-9.624 0-18.281 3.286-25.105 9.674-13.479 12.618-18.421 35.847-13.219 62.136 5.649 28.546 22.383 55.378 43.843 70.446l10.615-68.71c.012-.075.032-.149.061-.22l22.925-57.034c-8.592-7.234-17.591-12.144-26.754-14.595-4.246-1.136-8.389-1.697-12.366-1.697z"/><path d="m2194.892 1187.75-23.194 57.703-10.858 70.284 16.213-4.782 11.12-71.978 23.194-57.702z"/><path d="m2160.84 1316.737c-.239 0-.474-.086-.658-.247-.258-.226-.382-.567-.33-.906l10.858-70.284c.012-.075.032-.149.061-.22l23.194-57.703c.103-.255.306-.457.562-.558l16.475-6.476c.371-.147.794-.057 1.075.226.281.284.367.707.218 1.078l-23.151 57.595-11.103 71.865c-.059.383-.334.697-.705.806l-16.213 4.782c-.093.029-.189.042-.283.042zm11.829-71.018-10.6 68.613 14.093-4.157 11.023-71.351c.012-.075.032-.149.061-.22l22.328-55.55-13.915 5.469z"/><path d="m2193.833 1252.434 57.273 29.866s-2.454 35.538-40.353 46.088c-8.836-.178-18.042-4.641-26.799-9.666l-4.573-61.416z" fill="#87c159"/><path d="m2210.753 1329.388c-.007 0-.013 0-.02 0-9.314-.187-19.015-5.058-27.276-9.799-.288-.165-.475-.462-.5-.793l-4.573-61.417c-.034-.456.245-.876.678-1.022l14.451-4.871c.258-.086.54-.064.782.061l57.273 29.866c.353.184.562.559.535.956-.025.362-2.944 36.366-41.082 46.982-.087.025-.178.037-.268.037zm-25.841-11.27c7.895 4.504 17.062 9.044 25.715 9.267 33.883-9.511 38.839-39.717 39.414-44.512l-56.293-29.355-13.312 4.487z"/><path d="m2236.654 1287.172 14.451-4.871s-2.454 35.538-40.353 46.088z"/><path d="m2210.753 1329.388c-.311 0-.61-.145-.802-.402-.247-.331-.265-.78-.045-1.13l25.902-41.216c.123-.195.309-.342.527-.416l14.451-4.872c.316-.107.666-.048.93.156s.41.527.386.86c-.025.362-2.944 36.366-41.082 46.982-.088.026-.178.038-.267.038zm26.558-41.382-24.295 38.659c30.094-9.705 35.91-36.257 36.904-42.91z"/><path d="m2179.382 1257.306 57.273 29.866s-8.628 45.277-40.447 44.493c-8.836-.178-17.948-3.047-26.704-8.072z" fill="#87c159"/><path d="m2197.014 1332.675c-.277 0-.551-.003-.831-.01-8.856-.178-18.001-2.938-27.177-8.204-.357-.205-.552-.607-.491-1.015l9.878-66.288c.048-.32.247-.597.535-.744s.63-.146.916.004l57.273 29.867c.391.204.603.641.52 1.074-.087.458-9.008 45.316-40.623 45.316zm-26.421-9.612c8.682 4.878 17.303 7.435 25.634 7.603 28.433.729 38.005-37.211 39.291-42.958l-55.354-28.866z"/><path d="m2220.714 1192.241s25.625 23.901 28.671 62.504c.394 4.992-.196 12.12-.196 12.12l-15.172 5.077-42.027-29.378 13.22-44.578z"/><path d="m2234.018 1272.941c-.202 0-.403-.062-.573-.18l-42.026-29.377c-.353-.247-.508-.691-.386-1.104l13.219-44.578c.09-.302.316-.544.611-.653l15.503-5.745c.355-.132.753-.051 1.03.206.259.242 25.944 24.612 28.986 63.156.396 5.015-.171 11.987-.196 12.281-.033.398-.3.739-.679.866l-15.172 5.077c-.104.034-.211.051-.317.051zm-40.863-30.784 41.023 28.676 14.064-4.706c.131-1.865.461-7.321.146-11.304-2.761-34.987-24.55-58.052-27.921-61.424l-14.44 5.351z"/><path d="m2205.211 1197.986s25.625 23.901 28.671 62.504c.394 4.992-.196 12.12-.196 12.12l-57.198-24.301z" fill="#adc4cb"/><path d="m2233.687 1273.609c-.133 0-.266-.026-.391-.08l-57.198-24.301c-.263-.112-.465-.331-.556-.601-.091-.271-.062-.567.079-.815l28.723-50.323c.151-.266.416-.447.718-.493.302-.044.609.049.832.257.259.242 25.944 24.612 28.986 63.156.396 5.015-.171 11.987-.196 12.281-.026.32-.205.607-.48.773-.159.098-.338.146-.517.146zm-55.773-25.781 54.874 23.313c.146-2.306.378-7.024.098-10.573-2.656-33.646-22.908-56.267-27.455-60.95z"/><path d="m1164.42 1975.391h151.239l-.021-176.322h-151.646z" fill="#87c159"/><path d="m1315.659 1976.391h-151.239c-.551 0-.999-.446-1-.998l-.428-176.322c-.001-.266.104-.521.292-.708.188-.188.442-.294.708-.294h151.646c.552 0 1 .448 1 1l.021 176.322c0 .265-.105.52-.293.707s-.442.293-.707.293zm-150.241-2h149.241l-.021-174.322h-149.643z"/><path d="m1315.64 1799.479s.154-58.579.163-87.638c-50.693-.074-152.277 19.475-151.809 87.638z" fill="#dbf301"/><path d="m1315.64 1800.479h-151.646c-.55 0-.996-.443-1-.993-.12-17.489 6.411-32.985 19.412-46.056 7.583-7.624 17.416-14.454 29.226-20.301 10.436-5.167 22.43-9.582 35.649-13.122 21.767-5.829 46.612-9.166 68.217-9.166h.306c.552.001.999.448.999 1-.009 28.729-.162 87.055-.163 87.64-.002.552-.449.998-1 .998zm-150.645-2h149.648c.02-7.76.149-58.703.16-85.637-21.275.07-45.631 3.373-67.004 9.097-27.866 7.462-49.988 18.839-63.974 32.901-12.365 12.431-18.697 27.108-18.83 43.639z"/><path d="m1329.015 1959.779 106.168-61.454.308-138.745-106.453 61.289z"/><path d="m1329.015 1960.779c-.172 0-.345-.044-.5-.134-.31-.179-.5-.509-.5-.866l.024-138.91c0-.358.191-.688.501-.867l106.453-61.289c.31-.178.691-.177 1 .001.309.179.499.51.499.868l-.308 138.745c-.001.356-.191.685-.499.863l-106.169 61.454c-.155.09-.328.135-.501.135zm1.023-139.332-.023 136.598 104.17-60.297.303-136.436z"/><path d="m1435.491 1759.58c-31.906-18.41-69.995-25.412-106.482-25.541l.029 86.83z" fill="#fff"/><path d="m1329.038 1821.869c-.173 0-.346-.045-.5-.134-.309-.179-.5-.508-.5-.865l-.029-86.83c0-.266.106-.521.294-.708.188-.188.447-.264.709-.292 41.128.145 78.12 9.023 106.978 25.674.31.179.5.509.5.867s-.191.688-.501.866l-106.453 61.289c-.153.089-.325.133-.498.133zm.972-86.824.028 84.095 103.441-59.555c-28.095-15.789-63.809-24.262-103.469-24.54z"/><path d="m1323.459 1963.932 106.673 61.753.308-120.977-106.96-61.588z" fill="#dbf301"/><path d="m1430.132 2026.685c-.173 0-.346-.045-.501-.135l-106.673-61.752c-.309-.179-.499-.508-.499-.865l.021-120.812c0-.357.19-.687.5-.866.309-.178.69-.179 1-.001l106.96 61.587c.311.179.502.511.501.869l-.308 120.977c-.001.357-.192.687-.502.865-.155.089-.327.133-.499.133zm-105.673-63.329 104.677 60.597.302-118.668-104.959-60.435z"/><path d="m1474.436 1957.145c.261 2.062-.335 14.705-1.779 19.794-5.938 20.928-23.252 37.539-41.712 48.297-.272.147-.544.306-.816.453l.419-105.575.464-138.867c19.739 11.388 43.83 61.337 43.83 61.337l-.419 114.448v.068z"/><path d="m1430.129 2026.689c-.178 0-.355-.047-.513-.142-.303-.181-.488-.509-.487-.862l.419-105.575.464-138.867c.001-.356.192-.686.501-.863s.69-.178.998 0c19.779 11.411 43.242 59.718 44.231 61.769.066.137.1.287.099.438l-.419 114.409c.002.009.003.017.004.024.263 2.079-.29 14.836-1.809 20.192-3.086 10.878-12.669 31.696-42.17 48.888l-.842.468c-.148.081-.312.121-.476.121zm1.878-243.645-.458 137.074-.413 103.848c28.345-16.746 37.577-36.792 40.558-47.299 1.415-4.988 1.983-17.231 1.756-19.339-.017-.075-.026-.151-.026-.228l.419-114.287c-1.671-3.413-23.51-47.524-41.836-59.769z"/><path d="m1431.176 1904.297c35.942-20.534 59.586-60.805 30.391-97.755-8.249-10.44-19.096-18.676-30.554-25.299-35.807 20.625-71.238 42.13-107.534 61.878l106.96 61.588z" fill="#fff"/><path d="m1430.44 1905.708c-.172 0-.345-.044-.499-.133l-106.96-61.587c-.314-.181-.505-.517-.501-.879s.204-.693.522-.866c24.408-13.28 48.827-27.591 72.441-41.43 11.481-6.729 23.354-13.687 35.071-20.436.31-.178.69-.178 1 .001 13.013 7.521 23.388 16.115 30.838 25.544 11.159 14.123 15.433 29.962 12.361 45.804-3.939 20.315-20.029 40.292-43.041 53.439-.003.002-.006.003-.009.005l-.736.411c-.151.084-.319.127-.487.127zm.736-1.411h.01zm-105.65-61.153 104.922 60.414.236-.132c22.511-12.862 38.237-32.332 42.066-52.082 3-15.471-1.027-30.336-11.967-44.183-7.198-9.11-17.212-17.439-29.771-24.764-11.548 6.655-23.242 13.509-34.557 20.139-23.123 13.553-47.015 27.555-70.929 40.608z"/><path d="m1421.551 1924.397v.068l-.204 105.088-2.799 1.564c-35.705 19.377-78.176 25.552-118.357 23.309-47.933-2.776-135.015-24.533-135.899-86.403l-.306-102.267-.011-2.697 48.616 13.686 156.764 27.59z" fill="#fff"/><path d="m1315.802 2055.864c-5.532 0-10.778-.166-15.666-.439-11.295-.654-50.868-4.112-85.973-21.14-32.888-15.953-50.478-38.86-50.87-66.247l-.317-104.974c-.001-.313.145-.61.395-.8s.574-.252.876-.167l48.568 13.672 156.714 27.582c.063.011.125.028.185.051l52.195 20.062c.386.148.641.52.641.934v.068l-.204 105.09c-.001.362-.197.695-.512.871l-2.799 1.563c-35.048 19.021-73.317 23.874-103.233 23.874zm-150.821-191.482.006 1.371.306 102.268c.877 61.422 88.662 82.726 134.957 85.407 31.06 1.735 76.715-.881 117.822-23.19l2.277-1.272.201-103.882-51.463-19.78-156.668-27.574c-.033-.006-.065-.013-.098-.022z"/><path d="m1421.619 1924.431c-.023.011-.045.023-.068.034-20.691 11.751-43.955 18.663-67.4 22.266-43.184 6.629-90.017 2.924-130.312-14.708-27.229-11.921-57.791-34.006-59.853-66.267-.068-.884-.102-1.79-.113-2.697h151.207l63.944 36.839 42.527 24.499z" fill="#fff"/><path d="m1314.016 1950.814c-32.398 0-63.607-6.073-90.578-17.875-17.372-7.605-58.037-29.37-60.45-67.119-.064-.836-.103-1.739-.115-2.748-.003-.267.1-.525.288-.715s.444-.297.712-.297h151.207c.175 0 .347.046.499.133l106.471 61.337c.317.183.543.541.535.907s-.182.714-.507.882c-.005.002-.078.04-.083.042-19.13 10.866-41.922 18.397-67.691 22.358-13.489 2.072-26.989 3.095-40.288 3.095zm-149.12-86.754c.019.571.048 1.106.088 1.62 2.344 36.665 42.221 57.969 59.257 65.427 37.699 16.496 83.781 21.694 129.759 14.636 24.872-3.823 46.929-10.996 65.589-21.325l-104.776-60.359h-149.917z"/><path d="m1819.596 1524.377c-.17 0-.342-.043-.499-.134l-843.984-487.456c-.308-.178-.499-.507-.5-.863l-1.414-517.094c-.002-.552.445-1.001.997-1.003h.003c.551 0 .999.446 1 .997l1.413 516.518 843.486 487.168c.478.276.642.888.366 1.366-.187.322-.523.501-.868.501z"/><path d="m963.02 542.659 11.178-23.831 13.006 23.831z"/><path d="m988.046 543.159h-25.813l11.932-25.437zm-24.239-1h22.554l-12.129-22.226z"/><path d="m1819.597 1524.377c-.035 0-.069-.002-.104-.005l-28.365-2.958c-.549-.057-.948-.549-.891-1.098.058-.549.547-.942 1.098-.891l26.736 2.788-8.639-22.215c-.2-.515.055-1.094.57-1.294.515-.201 1.094.055 1.294.57l9.233 23.742c.126.325.074.692-.137.969-.191.248-.486.392-.795.392z"/><path d="m1017.603 919.987 20.616 10.637-20.367 81.933-40.044 23.019-.284-92.591z" fill="#fff"/><path d="m977.807 1036.576c-.172 0-.345-.045-.5-.134-.309-.178-.499-.507-.5-.863l-.283-92.591c-.001-.359.191-.692.502-.871l40.079-22.999c.294-.169.655-.177.956-.021l20.615 10.637c.412.212.624.68.512 1.13l-20.366 81.933c-.066.264-.236.49-.472.626l-40.045 23.018c-.153.09-.326.135-.498.135zm.719-93.013.276 90.287 38.182-21.948 20.073-80.752-19.429-10.025z"/><path d="m1599.064 1395.363-.063-.036-621.444-359.752 40.295-23.162.062.036 621.443 359.441zm-621.006-359.787 621.006 359.498 39.796-23.183-621.008-359.19z"/><path d="m1639.109 1371.891.287-93.134-40.079 23.308-.253 93.154z"/><path d="m1599.064 1396.219c-.172 0-.345-.044-.5-.134-.311-.179-.501-.51-.5-.869l.253-93.154c.001-.355.19-.683.497-.861l40.079-23.307c.31-.18.692-.181 1.003-.002.31.179.501.511.5.869l-.288 93.133c-.001.355-.19.683-.497.861l-40.045 23.328c-.154.09-.328.136-.502.136zm1.252-93.578-.247 90.835 38.042-22.161.281-90.816zm38.793 69.25h.01z"/><path d="m1314.604 834.79c-13.548 5.103-20.662 18.619-24.895 30.889-6.626 19.207-10.992 39.113-17.519 58.351-4.254 12.54-10.217 32.237-23.96 37.674-14.259 5.64-28.755-8.322-36.809-18.474-25.848-32.58-32.878-77.756-48.221-115.521-8.214-20.218-26.962-57.86-50.212-57.86-10.724 0-47.423 26.155-47.423 26.155s41.568 20.431 51.419 40.905c18.374 38.185 24.876 81.747 46.775 118.297 7.438 12.415 20.506 30.121 36.615 30.858 14.472.663 22.152-14.981 26.959-26.27 7.713-18.115 12.021-37.579 17.612-56.4 4.481-15.083 10.843-36.685 22.911-47.818z" fill="#fff"/><path d="m1201.29 987.085c-.318 0-.637-.007-.961-.022-12.544-.575-25.486-11.413-37.427-31.344-12.426-20.74-20.026-44.06-27.376-66.613-5.641-17.309-11.474-35.207-19.442-51.765-9.588-19.926-50.547-40.238-50.959-40.441-.316-.155-.527-.466-.556-.816s.13-.691.416-.896c1.509-1.075 37.086-26.34 48.003-26.34 24.71 0 43.994 40.899 51.138 58.483 4.902 12.066 9.036 25.133 13.035 37.77 8.625 27.26 17.543 55.447 35.044 77.506 3.613 4.555 8.963 10.438 15.153 14.525 5.035-12.346 8.645-25.453 12.143-38.153 1.437-5.218 2.923-10.614 4.485-15.872l.084-.283c4.605-15.503 10.912-36.735 23.107-47.986.08-.074.172-.134.272-.179l43.391-19.292c1.106-.57 2.243-1.075 3.411-1.515.506-.191 1.072.056 1.278.556.205.5-.025 1.074-.519 1.293l-3.286 1.461c-9.102 4.712-16.016 14.19-21.07 28.84-3.378 9.791-6.217 19.946-8.963 29.766-2.633 9.415-5.355 19.151-8.554 28.58l-.686 2.034c-4.39 13.052-10.401 30.927-23.853 36.248-7.043 2.785-14.046 1.049-20.292-2.572-.018.042-.035.083-.053.125-5.682 13.348-13.324 26.9-26.963 26.902zm-133.784-191.224c7.669 3.929 41.442 22.039 50.38 40.613 8.025 16.678 13.88 34.641 19.541 52.012 7.316 22.447 14.88 45.658 27.19 66.204 11.58 19.328 23.961 29.831 35.803 30.373 13.019.605 20.447-12.638 25.993-25.663.057-.133.113-.266.169-.399-6.557-4.246-12.165-10.387-15.944-15.151-17.729-22.347-26.704-50.714-35.384-78.146-3.986-12.6-8.109-25.629-12.981-37.62-6.992-17.209-25.791-57.236-49.285-57.236-9.142.001-38.765 20.321-45.482 25.013zm161.573 162.347c5.846 3.443 12.339 5.114 18.783 2.565 12.588-4.979 18.429-22.345 22.693-35.025l.688-2.039c3.181-9.377 5.896-19.087 8.522-28.476 2.754-9.849 5.602-20.033 8.999-29.88 3.682-10.674 8.356-18.713 14.139-24.265l-34.489 15.334c-11.712 10.908-17.902 31.746-22.426 46.974l-.084.282c-1.556 5.239-3.04 10.625-4.474 15.834-3.544 12.865-7.203 26.147-12.351 38.696z"/><path d="m1520.851 1030.521c-15.954 2.174-27.622 19.997-39.518 35.066-7.661 9.704-17.029 19.124-30.387 18.011-19.352-1.613-32.665-19.787-40.501-35.678-12.726-25.808-23.831-107.39-44.757-163.126-13.425-35.757-31.861-61.26-55.424-53.808l-38.228 22.037c10.07 39.82 77.003 161.625 90.937 200.392 9.921 27.604 40.483 74.645 72.068 42.622 13.294-13.478 23.929-38.877 42.96-42.432z" fill="#fff"/><path d="m1412.967 1107.795c-1.873 0-3.76-.209-5.66-.627-22.4-4.932-39.411-37.097-45.276-53.416-5.883-16.367-21.404-47.911-37.837-81.307-22.17-45.055-47.298-96.122-53.128-119.178-.11-.434.082-.888.47-1.112l38.228-22.037c.063-.036.129-.065.198-.087 21.188-6.701 40.781 12.114 56.662 54.41 10.966 29.208 19.19 65.273 26.446 97.094 6.575 28.833 12.253 53.734 18.272 65.942 11.275 22.865 23.941 31.403 34.009 34.123.367-.508.735-1.019 1.106-1.533 8.808-12.218 17.915-24.851 31.206-27.417l24.107-12.986c5.72-5.303 11.912-9.175 18.947-10.134.48-.063.936.222 1.086.681.15.46-.051.961-.477 1.19l-18.368 9.895c-5.773 5.388-11.105 12.315-16.347 19.123-1.5 1.948-2.994 3.89-4.493 5.787-7.689 9.74-17.418 19.542-31.255 18.388-1.478-.123-3.046-.354-4.685-.727-3.452 4.756-6.806 9.2-10.426 12.87-7.254 7.355-14.896 11.058-22.785 11.058zm-139.773-254.288c6.119 23.195 30.902 73.562 52.795 118.054 16.458 33.448 32.004 65.041 37.925 81.513 3.964 11.03 10.182 22.581 17.057 31.691 8.619 11.419 17.874 18.49 26.766 20.448 9.182 2.023 18.129-1.303 26.591-9.881 3.363-3.41 6.527-7.555 9.771-12.007-10.398-3.05-23.229-12.003-34.551-34.965-6.123-12.418-11.826-37.426-18.428-66.382-7.242-31.758-15.45-67.754-26.368-96.835-10.755-28.646-28.862-61.113-54.083-53.239zm174.265 228.588c1.24.249 2.433.411 3.57.505 12.859 1.071 21.788-7.842 29.519-17.634 1.493-1.891 2.983-3.826 4.478-5.768 3.884-5.045 7.816-10.153 11.958-14.686l-18.51 9.97c-.091.049-.189.084-.291.103-12.588 2.352-21.493 14.705-30.105 26.651-.207.287-.413.574-.619.859z"/><path d="m1474.539 1054.289c4.655-.87 13.273-1.118 19.094 1.12 39.676 15.255 48.427 74.847 56.118 111.108 8.951 42.202 13.371 106.547 49.566 135.548l40.079-23.307c-32.644-26.168-38.384-81.549-46.282-119.877-7.888-38.28-14.07-94.483-47.466-119.924-9.43-7.184-22.01-13.192-35.324-6.097z" fill="#fff"/><path d="m1599.317 1303.065c-.222 0-.444-.074-.625-.22-29.919-23.972-38.437-72.408-45.282-111.327-1.551-8.819-3.016-17.149-4.637-24.793-.651-3.068-1.309-6.303-1.993-9.665-7.468-36.694-17.695-86.95-53.505-100.718-5.784-2.224-14.449-1.836-18.551-1.07-.477.092-.947-.176-1.119-.629s.006-.963.421-1.212l35.785-21.43c11.241-5.992 23.148-3.969 36.444 6.159 29.246 22.279 37.82 67.798 44.708 104.372 1.07 5.681 2.081 11.047 3.131 16.146 1.12 5.436 2.184 11.146 3.311 17.192 6.632 35.587 14.885 79.875 42.617 102.107.257.206.396.526.372.854-.025.329-.21.625-.495.79l-40.079 23.307c-.156.092-.33.137-.503.137zm-117.15-250.404c3.95 0 8.32.466 11.824 1.814 36.833 14.162 47.187 65.038 54.747 102.186.683 3.355 1.34 6.585 1.99 9.648 1.629 7.678 3.096 16.025 4.651 24.862 6.745 38.355 15.128 86.03 44.031 109.682l38.237-22.236c-27.409-22.967-35.607-66.949-42.209-102.38-1.125-6.037-2.188-11.738-3.304-17.155-1.054-5.115-2.066-10.49-3.138-16.179-6.825-36.238-15.32-81.338-43.955-103.152-12.609-9.605-23.812-11.572-34.248-6.01l-31.753 19.016c.994-.06 2.045-.096 3.127-.096z"/><path d="m1599.064 1395.219.253-93.154c-34.838-27.921-39.801-88.791-48.302-129.524-7.812-37.432-16.632-105.209-60.151-118.135-31.119-9.243-41.614 32.192-61.425 46.688-40.017 29.281-66.544-44.83-73.623-70.768-11.653-42.698-16.57-87.466-31.9-129.129-6.591-17.914-19.845-48.212-42.51-49.842-19.156-1.377-27.285 24.021-32.12 38.199-7.283 21.354-18.838 109.824-56.656 94.479-20.311-8.241-31.922-32.278-39.927-51.111-10.444-24.572-17.438-50.433-26.969-75.348-7.854-20.532-17.562-43.91-36.019-57.234-21.046-15.192-34.901.083-42.855 20.188-8.459 21.38-12.505 44.425-17.942 66.691-4.329 17.729-8.974 50.347-27.098 60.048-8.434 4.514-17.036.852-24.298-4.282l.283 92.591z" fill="#dbf301"/><path d="m1599.064 1396.219c-.173 0-.346-.045-.501-.135l-621.256-359.643c-.308-.178-.498-.507-.499-.862l-.283-92.591c-.001-.374.207-.718.539-.891s.733-.146 1.038.071c9.025 6.38 16.629 7.76 23.248 4.217 15.213-8.143 20.722-33.073 24.745-51.276.644-2.914 1.252-5.666 1.853-8.128 1.339-5.482 2.616-11.113 3.851-16.559 3.801-16.756 7.731-34.083 14.132-50.263 5.771-14.586 13.445-23.648 22.193-26.205 6.828-1.996 14.289-.12 22.177 5.574 18.232 13.161 27.963 35.714 36.368 57.687 4.045 10.575 7.69 21.489 11.216 32.043 4.786 14.328 9.735 29.145 15.739 43.271 15.659 36.84 28.695 46.239 39.382 50.576 5.912 2.399 11.272 2.284 16.385-.349 18.512-9.536 27.981-49.257 34.247-75.542 1.784-7.484 3.325-13.948 4.702-17.985l.374-1.097c4.983-14.652 13.32-39.169 32.765-37.776 17.14 1.232 31.328 17.749 43.376 50.494 9.328 25.351 14.894 52.248 20.277 78.259 3.479 16.811 7.076 34.194 11.65 50.953 1.874 6.865 7.193 24.694 16.094 41.93 9.538 18.468 19.8 29.729 30.502 33.471 8.26 2.889 16.83 1.146 25.471-5.177 6.495-4.752 11.911-12.378 17.646-20.452 11.434-16.098 23.257-32.743 44.654-26.387 39.838 11.833 51.064 69.171 58.492 107.112.817 4.175 1.589 8.118 2.353 11.778 1.419 6.797 2.727 14.089 4.112 21.81 6.724 37.47 15.092 84.102 43.835 107.138.238.19.375.479.375.783l-.253 93.154c-.001.357-.192.686-.502.864-.153.088-.325.133-.497.133zm-620.258-361.221 619.263 358.489.248-90.945c-29.026-23.605-37.423-70.405-44.177-108.042-1.383-7.706-2.689-14.985-4.102-21.755-.766-3.671-1.54-7.621-2.358-11.802-7.336-37.468-18.422-94.091-57.099-105.579-20.026-5.948-31.428 10.104-42.454 25.629-5.575 7.849-11.339 15.964-18.095 20.908-9.205 6.735-18.394 8.569-27.313 5.451-28.321-9.902-44.841-65.681-47.865-76.762-4.59-16.819-8.194-34.233-11.679-51.074-5.368-25.939-10.919-52.762-20.195-77.973-11.748-31.929-25.37-48.02-41.643-49.189-17.9-1.288-25.93 22.32-30.728 36.425l-.374 1.099c-1.346 3.947-2.877 10.368-4.649 17.803-6.351 26.64-15.948 66.899-35.276 76.855-5.584 2.876-11.658 3.02-18.053.424-19.719-8.001-31.524-30.597-40.471-51.646-6.035-14.199-10.997-29.054-15.795-43.42-3.519-10.535-7.157-21.428-11.187-31.963-8.297-21.69-17.885-43.942-35.67-56.78-7.363-5.315-14.241-7.089-20.446-5.276-10.276 3.004-17.035 15.265-20.895 25.021-6.345 16.037-10.258 33.287-14.042 49.969-1.237 5.454-2.516 11.094-3.859 16.592-.596 2.44-1.202 5.182-1.843 8.085-4.106 18.582-9.73 44.03-25.754 52.607-6.949 3.72-14.737 2.654-23.764-3.268z"/><path d="m1492.322 915.563 25.829-198.485" fill="#fff"/><path d="m1492.323 916.563c-.043 0-.086-.003-.13-.008-.548-.071-.934-.573-.863-1.121l25.829-198.485c.071-.547.571-.933 1.121-.863.548.071.934.573.863 1.121l-25.829 198.485c-.066.504-.496.871-.991.871z"/><path d="m1537.347 987.353 25.828-198.485" fill="#fff"/><path d="m1537.348 988.352c-.043 0-.086-.003-.13-.008-.548-.071-.934-.573-.863-1.121l25.829-198.485c.071-.547.572-.933 1.121-.863.548.071.934.573.863 1.121l-25.829 198.485c-.066.504-.496.871-.991.871z"/><path d="m1596.265 909.478 25.828-198.484" fill="#fff"/><path d="m1596.266 910.478c-.043 0-.086-.003-.13-.008-.548-.071-.934-.573-.863-1.121l25.829-198.485c.071-.547.569-.933 1.121-.863.548.071.934.573.863 1.121l-25.829 198.485c-.067.504-.497.871-.991.871z"/><path d="m1646.026 959.268 25.828-198.485" fill="#fff"/><path d="m1646.027 960.268c-.043 0-.086-.003-.13-.008-.548-.071-.934-.573-.863-1.121l25.829-198.485c.071-.548.571-.935 1.121-.863.548.071.934.573.863 1.121l-25.829 198.485c-.066.504-.496.871-.991.871z"/><path d="m1694.428 1001.334 25.829-198.485" fill="#fff"/><path d="m1694.429 1002.334c-.043 0-.086-.003-.13-.008-.548-.071-.934-.573-.863-1.121l25.829-198.485c.071-.547.57-.933 1.121-.863.548.071.934.573.863 1.121l-25.829 198.485c-.066.503-.496.871-.991.871z"/><path d="m1736.439 1076.464 25.829-198.485" fill="#fff"/><path d="m1736.44 1077.464c-.043 0-.086-.002-.13-.008-.548-.071-.934-.573-.863-1.121l25.829-198.485c.071-.548.57-.934 1.121-.863.548.071.934.573.863 1.121l-25.829 198.485c-.066.504-.496.871-.991.871z"/><path d="m1640.718 741.326-19.488 139.177-35.594-20.477 19.394-139.104z" fill="#adc4cb"/><path d="m1621.23 881.503c-.173 0-.345-.045-.499-.133l-35.594-20.478c-.354-.203-.548-.601-.492-1.005l19.394-139.103c.046-.329.252-.613.55-.76.298-.146.648-.135.937.03l35.688 20.403c.355.203.551.602.494 1.007l-19.488 139.177c-.046.329-.252.614-.551.76-.139.068-.289.102-.439.102zm-34.511-22.008 33.726 19.403 19.189-137.04-33.817-19.334z"/><path d="m1576.809 842.369-17.581 126.26-35.436-20.492 17.496-126.194z" fill="#fff"/><path d="m1559.228 969.629c-.173 0-.346-.045-.501-.134l-35.436-20.492c-.352-.204-.546-.6-.49-1.003l17.497-126.194c.046-.329.252-.614.551-.76.298-.146.65-.134.938.031l35.521 20.425c.354.203.548.601.492 1.005l-17.582 126.26c-.046.33-.253.615-.552.761-.138.067-.288.101-.438.101zm-34.354-22.021 33.568 19.411 17.284-124.121-33.651-19.35z"/><path d="m1532.416 770.313-16.692 120.601-35.383-20.417 16.611-120.537z" fill="#fff"/><path d="m1515.724 891.914c-.173 0-.345-.045-.5-.134l-35.383-20.417c-.352-.203-.546-.6-.491-1.003l16.61-120.537c.045-.329.251-.615.55-.761.298-.146.65-.135.939.03l35.464 20.353c.354.203.549.601.493 1.005l-16.691 120.601c-.046.33-.252.615-.551.761-.139.068-.289.102-.44.102zm-34.3-21.947 33.514 19.338 16.395-118.461-33.593-19.279z"/><path d="m1777.798 936.714-15.206 106.634-35.799-20.665 15.133-106.577z" fill="#fff"/><path d="m1762.592 1044.348c-.173 0-.346-.045-.5-.134l-35.799-20.665c-.354-.204-.547-.603-.49-1.007l15.133-106.577c.047-.328.253-.613.551-.758.298-.146.649-.134.937.031l35.872 20.609c.355.204.55.603.492 1.008l-15.206 106.633c-.047.329-.254.613-.552.758-.139.068-.288.102-.438.102zm-34.714-22.194 33.933 19.588 14.901-104.498-34.004-19.535z"/><path d="m1683.576 826.069-13.603 96.555-35.668-20.533 13.537-96.504z" fill="#fff"/><path d="m1669.973 923.624c-.173 0-.345-.045-.499-.133l-35.669-20.532c-.354-.204-.548-.602-.491-1.006l13.537-96.504c.046-.329.252-.613.55-.759s.649-.135.937.03l35.734 20.481c.355.203.55.602.493 1.007l-13.602 96.555c-.046.329-.253.614-.552.759-.138.068-.288.102-.438.102zm-34.585-22.063 33.801 19.457 13.301-94.419-33.864-19.41z"/><path d="m1731.126 877.979-11.741 82.841-35.748-20.587 11.685-82.796z" fill="#fff"/><path d="m1719.385 961.82c-.173 0-.345-.045-.499-.133l-35.748-20.587c-.354-.204-.548-.602-.491-1.006l11.685-82.797c.046-.329.253-.613.551-.759.297-.146.649-.134.937.031l35.804 20.542c.355.204.55.603.492 1.008l-11.741 82.841c-.046.329-.253.613-.552.759-.138.067-.288.101-.438.101zm-34.663-22.116 33.881 19.511 11.438-80.706-33.935-19.47z"/></svg>