<svg xmlns="http://www.w3.org/2000/svg" viewBox="0 0 3000 3000" width="3000" height="3000"><g transform="translate(1994.3999999999999 488.4) rotate(0.0 283.80000000000007 487.2) scale(1.1980370429001113 1.1996734878807616)"><svg width="473.775" height="812.221" viewBox="0 0 473.775 812.221"><path d="M264.655 161.268v304.749l17.617-10.486v-304.75z"/><path d="M264.655 467.017a1 1 0 0 1-1-1V161.268a1 1 0 0 1 .488-.859l17.618-10.487a.998.998 0 0 1 1.511.859v304.75a1 1 0 0 1-.488.859l-17.618 10.486a.994.994 0 0 1-.511.141zm1-305.181v302.422l15.617-9.296V152.54z"/><path d="M282.272 150.781 18.617 1 1 11.486l263.655 149.782z" fill="#dbf301" opacity=".35"/><path d="M264.655 466.017 1 314.533V11.486l263.655 149.782z" fill="#fff"/><path d="M264.655 467.017a.994.994 0 0 1-.498-.133L.502 315.401a.998.998 0 0 1-.502-.867V11.486a.999.999 0 0 1 1.494-.869l263.655 149.781a1 1 0 0 1 .506.869v304.749a.998.998 0 0 1-1 1zM2 313.955l261.655 150.334V161.85L2 13.205z"/><path d="M264.655 467.017a.994.994 0 0 1-.498-.133L.502 315.401a.998.998 0 0 1-.502-.867V11.486a.999.999 0 0 1 1.494-.869l263.655 149.781a1 1 0 0 1 .506.869v304.749a.998.998 0 0 1-1 1zM2 313.955l261.655 150.334V161.85L2 13.205z"/><path d="M282.272 150.781 18.617 1 1 11.486l263.655 149.782z" fill="#fff"/><path d="M264.655 162.268a.99.99 0 0 1-.494-.131L.506 12.356a1 1 0 0 1-.018-1.728L18.105.141a1 1 0 0 1 1.006-.01l263.655 149.781a1 1 0 0 1 .018 1.729l-17.617 10.487a.998.998 0 0 1-.512.141zM2.989 11.466l261.654 148.645 15.64-9.31L18.629 2.157z"/><path d="M151.584 275.642c16.967-10.732 30.111-28.163 35.684-48.591l12.084 7.032v-23.4l-62.139-35.304v-36.263l-19.861-11.914v36.894L55.41 128.904v21.414l109.743 63.864h-.001c-4.945 18.234-15.777 33.823-34.153 42.796-34.054-33.771-47.152-72.634-47.152-72.634l-16.255 4.195s10.761 35.129 44.575 74.153c-19.02 2.447-39.068-4.159-57.096-15.806v22.946c13.471 10.116 29.341 16.794 46.315 17.871 11.323.718 21.838-.553 31.386-3.464 33.315 31.854 60.929 45.092 60.929 45.092l12.585-14.659s-18.177-7.579-54.703-39.029z" fill="#fff"/><path d="M193.701 330.33c-.146 0-.293-.032-.432-.098-.276-.133-27.905-13.558-60.767-44.868-9.782 2.906-20.268 4.028-31.18 3.337-16.284-1.033-32.485-7.281-46.853-18.069a1.001 1.001 0 0 1-.399-.8v-22.946a1 1 0 0 1 1.543-.84c18.667 12.06 37.485 17.525 54.562 15.864-32.6-38.17-43.433-72.73-43.54-73.079a1 1 0 0 1 .706-1.261l16.255-4.195a1.003 1.003 0 0 1 1.198.649c.129.385 13.294 38.652 46.402 71.74 16.181-8.122 27.498-22.31 32.786-41.106L54.905 151.182a.999.999 0 0 1-.497-.864v-21.414a.999.999 0 0 1 1.494-.869l60.448 34.343v-35.176a1 1 0 0 1 1.514-.857l19.861 11.915a1 1 0 0 1 .485.857v35.681l61.633 35.017a1 1 0 0 1 .506.869v23.4a1 1 0 0 1-1.502.864l-10.968-6.383c-5.583 19.27-18.115 36.347-34.629 47.192 35.261 30.214 53.241 37.917 53.42 37.992a1 1 0 0 1 .373 1.574l-12.584 14.659a1 1 0 0 1-.759.349zm-60.929-47.092c.254 0 .502.097.691.277 29.935 28.622 55.536 42.3 59.988 44.571l11.21-13.057c-4.678-2.24-22.374-11.63-53.73-38.629a1.001 1.001 0 0 1 .117-1.603c17.018-10.764 29.867-28.263 35.254-48.009a1 1 0 0 1 1.468-.601l10.581 6.157v-21.079l-61.633-35.017a.999.999 0 0 1-.506-.869v-35.697l-17.861-10.715v35.128a.999.999 0 0 1-1.494.869l-60.448-34.343v19.121l109.247 63.575a1 1 0 0 1 .462 1.126c-5.421 19.982-17.414 35.001-34.681 43.432a.998.998 0 0 1-1.143-.189c-31.014-30.756-44.886-66.165-47.082-72.148l-14.336 3.7c2.046 5.981 13.909 38.016 44.046 72.797a.998.998 0 0 1-.629 1.646c-17.571 2.26-36.976-2.915-56.223-14.976v20.623c13.955 10.37 29.635 16.375 45.379 17.374 10.879.691 21.319-.461 31.031-3.422.096-.029.194-.043.292-.043zm322.386 223.234v304.749l17.617-10.486v-304.75z"/><path d="M455.157 812.221a1 1 0 0 1-1-1V506.472a1 1 0 0 1 .488-.859l17.618-10.487a.998.998 0 0 1 1.511.859v304.75a1 1 0 0 1-.488.859l-17.618 10.486a.994.994 0 0 1-.511.141zm1-305.181v302.422l15.617-9.296V497.744z"/><path d="M472.775 495.985 209.119 346.204l-17.617 10.486 263.656 149.782z" fill="#dbf301" opacity=".35"/><path d="M455.158 811.221 191.503 659.738V356.69l263.655 149.782z" fill="#dbf301" opacity=".35"/><path d="M455.158 812.221a.994.994 0 0 1-.498-.133L191.005 660.605a.998.998 0 0 1-.502-.867V356.691a.999.999 0 0 1 1.494-.869l263.655 149.781a1 1 0 0 1 .506.869v304.749a.998.998 0 0 1-1 1zM192.503 659.159l261.655 150.334V507.054L192.503 358.409z"/><path d="M455.157 507.472a.99.99 0 0 1-.494-.131L191.008 357.56a1 1 0 0 1-.018-1.729l17.617-10.486a1 1 0 0 1 1.006-.01l263.655 149.781a1 1 0 0 1 .018 1.729l-17.617 10.487a.998.998 0 0 1-.512.141zM193.491 356.67l261.654 148.645 15.64-9.31L209.13 347.36l-15.64 9.309z"/><path d="m370.234 716.315-27.133-224.032-39.438-23.431-.01.069-.052-.031-27.154 189.162 24.358 15.152.009-.069.052.032 4.618-34.257 32.836 20.26 4.584 40.221 27.266 16.961-.01-.081.072.045zm-35.537-87.377-25.845-15.849 12.781-96.71.053.032.009-.07.489.293 12.575 112.268-.072-.044.009.08z" fill="#fff"/><path d="M370.114 717.332a.892.892 0 0 1-.472-.132l-27.266-16.961a.998.998 0 0 1-.465-.736l-4.529-39.739-31.112-19.196-4.412 32.73a1 1 0 0 1-.88.86.954.954 0 0 1-.701-.108l-24.358-15.152a.997.997 0 0 1-.461-.991l27.154-189.161a.997.997 0 0 1 .86-.849.945.945 0 0 1 .703.094l39.438 23.431a.996.996 0 0 1 .482.739l27.133 224.032a.999.999 0 0 1-.906 1.116 1.021 1.021 0 0 1-.206.021zm-26.271-18.536 25.156 15.648-26.833-221.554-37.779-22.446-26.858 187.101 22.543 14.022 4.421-32.793a.998.998 0 0 1 1.516-.717l32.835 20.26c.261.161.434.433.469.738zm-9.203-68.877a.89.89 0 0 1-.467-.129l-25.845-15.849a1.001 1.001 0 0 1-.468-.984l12.781-96.711a1 1 0 0 1 .87-.862.945.945 0 0 1 .697.097l.489.293c.268.16.446.437.48.747l12.575 112.268a1 1 0 0 1-.901 1.107 1.01 1.01 0 0 1-.211.023zm-24.713-17.344 23.619 14.483-11.713-104.57-11.906 90.086z"/></svg></g><g transform="translate(541.1999999999999 1360.8) rotate(0.0 898.2 650.9999999999999) scale(2.644950315158993 2.642737242500573)"><svg width="679.181" height="492.671" viewBox="0 0 679.181 492.671"><path d="M440.423 416.324s98.857-20.544 143.942-47.54c50.39-30.173 74.182-56.952 84.325-76.943 4.339-8.552 6.665-17.982 6.917-27.568l1.79-76.846s-28.106 62.024-84.668 96.4c-51.252 31.149-124.574 38.737-124.574 38.737z"/><path d="M440.423 417.324a1.002 1.002 0 0 1-.959-1.284l27.732-93.76a1 1 0 0 1 .856-.711c.731-.076 73.692-7.925 124.157-38.597 55.636-33.813 83.997-95.341 84.277-95.958a1 1 0 0 1 1.91.436l-1.79 76.846c-.257 9.765-2.686 19.445-7.025 27.997-8.853 17.449-30.735 45.032-84.703 77.348-44.712 26.774-143.262 47.456-144.252 47.661a1.01 1.01 0 0 1-.204.021zm28.502-93.84-27.066 91.511c13.079-2.825 100.736-22.365 141.992-47.069 53.559-32.071 75.213-59.323 83.947-76.537 4.205-8.289 6.56-17.675 6.809-27.142l1.685-72.319c-7.417 14.441-35.251 63.707-83.044 92.754-48.261 29.332-116.823 37.935-124.323 38.802z"/><path d="M130.516 116.965s64.978-62.241 146.426-86.004C381.01.599 480.543 22.523 526.449 36.564c42.121 12.884 126.858 63.904 136.771 111.444 6.457 30.97-5.088 57.34-5.088 57.34s-3.604-30.825-67.397-71.205c-208.892-132.221-402.301 25.64-402.301 25.64l-57.918-42.817z" fill="#87c159"/><path d="M658.131 206.35a1 1 0 0 1-.994-.884c-.037-.302-4.433-30.911-66.939-70.476C482.64 66.908 379.335 77.468 311.614 98.314c-73.444 22.608-122.065 61.849-122.548 62.243a1 1 0 0 1-1.227.029l-57.918-42.817a1 1 0 0 1-.097-1.526c.652-.624 66.089-62.683 146.837-86.242 45.608-13.306 95.041-17.979 146.923-13.887 43.907 3.463 80.332 12.512 103.156 19.494 41.351 12.648 127.349 63.714 137.458 112.196 6.448 30.925-5.034 57.679-5.151 57.946a1 1 0 0 1-.916.599zM414.397 80.363c8.521 0 16.997.336 25.431 1.01 52.703 4.209 103.654 21.68 151.44 51.928 52.264 33.082 64.365 59.592 67.091 68.634 2.715-7.74 8.948-29.415 3.88-53.721-9.952-47.733-95.118-98.161-136.084-110.692-48.885-14.953-146.231-35.564-248.934-5.6-75.236 21.951-137.146 77.558-145.145 84.954l56.335 41.647c5.859-4.608 53.197-40.737 122.543-62.098 34.681-10.683 69.372-16.062 103.441-16.062z"/><path d="M387.149 1C225.946 1 100.239 90.213 95.265 168.974c-.487 7.714.912 15.335 2.668 22.787 14.386-39.335 50.821-89.396 50.821-89.396s89.407-77.523 215.622-83.1c144.807-6.398 253.036 49.388 284.267 111.56 7.32 14.572 53.807 107.721-114.528 159.576-55.395 17.064-72.499 15.255-72.499 15.255l5.541 21.403s49.269-8.153 66.23-12.682c88.696-23.684 144.793-75.568 144.793-137.672C678.181 83.937 548.352 1 387.149 1z" fill="#fff"/><path d="M467.157 328.06a1 1 0 0 1-.967-.75l-5.541-21.403a1.002 1.002 0 0 1 1.074-1.245c.167.017 17.708 1.54 72.099-15.216 63.875-19.677 103.833-47.399 118.764-82.397 6.962-16.319 11.774-42.712-4.834-75.775-15.992-31.836-51.166-60.61-99.041-81.022C495.699 27.65 431.975 17.28 364.422 20.265c-64.989 2.871-119.979 25.24-154.666 43.499-36.436 19.18-58.706 37.958-60.259 39.284-1.782 2.466-36.744 51.108-50.623 89.057a1 1 0 0 1-1.913-.114c-1.701-7.214-3.204-15.003-2.693-23.08C99.303 89.177 225.626 0 387.149 0c77.321 0 150.654 18.898 206.49 53.213 26.727 16.425 47.772 35.376 62.554 56.326 15.253 21.619 22.987 44.218 22.987 67.168 0 30.582-13.641 59.619-39.449 83.971-25.47 24.033-62.154 42.936-106.086 54.667-16.812 4.489-65.831 12.621-66.324 12.702-.055.009-.11.013-.164.014zm-4.233-21.344 4.973 19.207c6.782-1.134 49.774-8.383 65.233-12.511 43.613-11.646 80-30.384 105.229-54.19 25.397-23.964 38.822-52.498 38.822-82.516 0-44.362-30.832-88.753-84.588-121.79C537.067 20.793 464.106 2 387.149 2c-74.696 0-147.146 19.285-204.003 54.303C131.18 88.308 98.7 130.452 96.264 169.037c-.419 6.637.579 13.129 1.909 19.261 14.989-38.514 49.418-86.032 49.774-86.521.045-.061.096-.117.153-.167.225-.195 22.876-19.687 60.67-39.588 34.878-18.367 90.18-40.867 155.563-43.755 67.846-2.998 131.875 7.426 185.161 30.145 48.31 20.598 83.84 49.706 100.044 81.964 16.953 33.748 12.015 60.749 4.887 77.457-15.172 35.564-55.551 63.666-120.015 83.524-46.994 14.476-66.422 15.434-71.486 15.359z"/><path d="M91.84 357.405s-30.385-6.878-39.256-8.971c-36.89-8.705-58.686-62.543-49.477-128.259s46.292-114.838 82.826-109.719c12.86 1.802 49.153 11.052 49.153 11.052L91.841 357.405z" fill="#fff"/><path d="M91.84 358.405a.973.973 0 0 1-.221-.025c-.304-.069-30.491-6.903-39.265-8.973-18.299-4.318-33.474-19.717-42.728-43.359-9.289-23.735-11.956-54.281-7.509-86.012 4.477-31.949 15.614-61.03 31.358-81.886 15.873-21.025 34.548-31.214 52.597-28.684 12.767 1.789 48.897 10.981 49.261 11.073.509.13.832.632.736 1.149L92.824 357.585a.997.997 0 0 1-.984.819zM80.642 111.087c-15.682 0-31.681 9.867-45.571 28.267-15.543 20.59-26.543 49.341-30.974 80.959-4.399 31.396-1.774 61.585 7.392 85.005 9.007 23.013 23.683 37.979 41.324 42.142 7.849 1.852 32.867 7.524 38.231 8.739l42.889-233.952c-5.695-1.439-36.609-9.186-48.139-10.802a37.072 37.072 0 0 0-5.152-.359z"/><path d="M120.16 385.135s-35.718-8.085-46.146-10.546c-43.365-10.233-68.986-73.521-58.161-150.771S70.27 88.823 113.216 94.842c15.117 2.118 57.78 12.992 57.78 12.992z" fill="#fff"/><path d="M120.16 386.135a.973.973 0 0 1-.221-.025c-.357-.081-35.842-8.114-46.155-10.548-21.454-5.062-39.247-23.126-50.104-50.863-10.91-27.873-14.042-63.749-8.818-101.02 10.885-77.673 55.075-135.913 98.493-129.828 14.999 2.102 57.461 12.905 57.888 13.013.509.13.832.632.736 1.149l-50.836 277.301a.997.997 0 0 1-.984.819zM107.035 95.411c-40.324 0-79.97 55.606-90.192 128.546-5.176 36.936-2.086 72.455 8.7 100.014 10.61 27.107 27.905 44.738 48.7 49.645 9.318 2.199 39.216 8.976 45.122 10.314l50.479-275.356c-6.255-1.581-43.092-10.825-56.766-12.741a43.532 43.532 0 0 0-6.043-.421z"/><ellipse cx="144.95" cy="246.309" rx="141.24" ry="78.522" transform="matrix(.13877557 -.99032386 .99032386 .13877557 -119.092 355.673)"/><path d="M131.578 387.616c-2.128 0-4.251-.147-6.368-.444-43.424-6.085-69.897-74.227-59.013-151.9C77.082 157.6 121.264 99.358 164.69 105.444c21.147 2.963 38.917 20.473 50.039 49.304 11.045 28.633 14.232 65.069 8.973 102.596s-18.338 71.684-36.828 96.178c-16.754 22.194-36.167 34.094-55.296 34.094zm26.792-280.612c-40.324 0-79.97 55.606-90.192 128.546-10.731 76.581 14.978 143.71 57.31 149.642 2.019.283 4.05.423 6.082.424 18.491.002 37.345-11.622 53.708-33.298 18.289-24.227 31.231-58.054 36.444-95.25 5.212-37.196 2.066-73.278-8.858-101.599-10.849-28.123-28.056-45.185-48.451-48.043a43.532 43.532 0 0 0-6.043-.421z"/><ellipse cx="151.408" cy="245.43" fill="#adc4cb" rx="60.811" ry="33.808" transform="matrix(.13877557 -.99032386 .99032386 .13877557 -112.659 361.313)"/><path d="M145.594 306.835c-.921 0-1.842-.063-2.763-.193-19.007-2.664-30.623-32.291-25.893-66.043 4.73-33.753 24.046-59.046 43.049-56.382 19.007 2.664 30.623 32.291 25.893 66.043-4.501 32.117-22.205 56.575-40.286 56.575zm11.577-120.814c-17.074 0-33.892 23.736-38.253 54.856-4.577 32.661 6.275 61.275 24.19 63.785 17.905 2.51 36.214-22.018 40.791-54.679l.99.139-.99-.139c4.577-32.661-6.275-61.275-24.19-63.785a18.34 18.34 0 0 0-2.538-.177z"/><path d="M267.043 474.535s-33.801-31.129-41.154-41.154c-22.352-30.477-6.747-96.342 48.513-151.602s116.718-68.61 151.602-48.513c17.669 10.179 41.154 41.154 41.154 41.154z" fill="#fff"/><path d="M267.042 475.535a.997.997 0 0 1-.677-.264c-1.383-1.274-33.957-31.309-41.283-41.298-11.272-15.37-13.095-39.929-5.001-67.382 8.603-29.177 27.643-59.549 53.613-85.519 26.196-26.197 55.198-44.444 83.871-52.769 26.509-7.697 50.992-6.242 68.938 4.096 17.642 10.164 40.488 40.145 41.452 41.416a.999.999 0 0 1-.09 1.311L267.749 475.241a.997.997 0 0 1-.707.293zm122.583-250.006c-32.049 0-73.648 16.089-114.516 56.957-25.738 25.738-44.599 55.808-53.109 84.67-7.916 26.849-6.205 50.771 4.695 65.633 6.626 9.035 35.43 35.83 40.32 40.358L465.83 274.333c-3.582-4.62-24.488-31.078-40.325-40.201-9.528-5.489-21.78-8.603-35.88-8.603z"/><ellipse cx="367.1" cy="374.477" fill="#adc4cb" rx="141.503" ry="86.242" transform="matrix(.70710678 -.70710678 .70710678 .70710678 -157.274 369.261)"/><path d="M313.211 492.598c-18.723 0-35.119-5.598-46.876-17.356-16.545-16.545-21.545-42.602-14.079-73.37 7.423-30.592 26.301-62.23 53.155-89.084 55.562-55.562 128.438-73.091 162.454-39.076 34.016 34.016 16.486 106.892-39.076 162.454l-.707-.707.707.707c-36.357 36.357-80.132 56.431-115.578 56.431zM420.934 258.3c-34.865 0-78.115 19.909-114.109 55.903-26.599 26.598-45.288 57.901-52.626 88.141-7.295 30.064-2.483 55.451 13.55 71.484 11.398 11.398 27.318 16.826 45.517 16.827 34.865.003 78.115-19.909 114.109-55.903 54.782-54.782 72.311-126.39 39.076-159.625-11.398-11.398-27.318-16.827-45.517-16.827z"/><path d="M309.41 458.714s-7.051-4.434-14.582-11.965c-23.958-23.958-11.023-75.738 28.892-115.652 39.915-39.915 89.362-52.334 115.652-28.892a8470.181 8470.181 0 0 1 18.553 16.65L309.41 458.713z" fill="#fff"/><path d="M309.41 459.714a.997.997 0 0 1-.532-.153c-.292-.184-7.233-4.58-14.757-12.104-11.846-11.845-15.315-30.594-9.77-52.792 5.5-22.017 19.23-44.844 38.662-64.274 19.441-19.441 41.957-33.102 63.399-38.468 21.617-5.409 40.662-2.022 53.625 9.537a8476.38 8476.38 0 0 1 18.556 16.653.998.998 0 0 1 .017 1.471L310.095 459.442a.997.997 0 0 1-.686.272zm96.441-168.244c-25.003 0-55.341 14.251-81.424 40.334-19.178 19.178-32.722 41.675-38.135 63.345-5.368 21.49-2.085 39.564 9.244 50.893 6.061 6.061 11.868 10.133 13.764 11.403l147.149-138.573a7720.257 7720.257 0 0 0-17.742-15.921c-8.704-7.761-20.085-11.481-32.855-11.481z"/><ellipse cx="385.653" cy="391.128" fill="#adc4cb" rx="102.208" ry="61.349" transform="matrix(.70710678 -.70710678 .70710678 .70710678 -163.614 387.257)"/><path d="M345.869 476.37c-13.283 0-24.886-3.955-33.195-12.264-24.31-24.31-11.349-76.826 28.892-117.066 19.431-19.431 42.257-33.161 64.274-38.661 22.198-5.545 40.946-2.076 52.792 9.77 11.846 11.845 15.315 30.594 9.77 52.792-5.5 22.017-19.23 44.844-38.661 64.275l-.707-.707.707.707c-26.486 26.487-58.292 41.155-83.872 41.155zm79.57-168.568c-5.967 0-12.372.833-19.114 2.517-21.67 5.414-44.167 18.957-63.345 38.135-39.461 39.461-52.421 90.708-28.892 114.238 7.954 7.953 19.079 11.738 31.84 11.739 24.993.002 56.275-14.508 82.398-40.63 19.178-19.178 32.721-41.675 38.135-63.345 5.368-21.49 2.085-39.564-9.244-50.893-7.775-7.775-18.727-11.76-31.779-11.76z"/></svg></g><g transform="translate(1272.0 332.4) rotate(0.0 367.19999999999993 939.5999999999999) scale(1.3639808032331395 1.3629430634741848)"><svg width="538.424" height="1378.781" viewBox="0 0 538.424 1378.781"><path d="M515.091 248.648c14.833 24.973 22.382 54.064 22.332 84.144l-3.282 965.224c-.027 15.331-7.536 28.058-18.462 35.853-10.471 7.465-47.322 27.969-62.6 36.397-.116.071-.223.152-.339.223 11.737-7.679 19.933-20.852 19.96-36.87l1.632-964.992a162.494 162.494 0 0 0-26.291-88.911l67.05-31.069z"/><path d="M452.742 1371.489a1 1 0 0 1-.549-1.837l.156-.103.17-.113c12.17-8.112 19.157-21.145 19.181-35.819l1.632-964.992c.053-31.443-8.983-61.999-26.13-88.364a1.002 1.002 0 0 1 .418-1.453l67.05-31.069a1 1 0 0 1 1.28.396c14.752 24.837 22.523 54.111 22.472 84.657l-3.282 965.226c-.026 14.757-6.908 28.122-18.881 36.664-10.459 7.457-47.285 27.955-62.668 36.442l-.126.084a5.08 5.08 0 0 1-.203.133.996.996 0 0 1-.522.147zm-3.236-1091.348c16.953 26.47 25.88 57.041 25.828 88.489l-1.632 964.992c-.02 11.795-4.338 22.577-12.112 30.79 17.649-9.816 44.824-25.163 53.51-31.356 11.441-8.163 18.018-20.935 18.042-35.041l3.282-965.225c.05-29.865-7.463-58.494-21.733-82.853l-65.185 30.205z"/><path d="M448.042 279.717a162.425 162.425 0 0 0-56.349-52.923L66.616 43.23c-14.439-8.152-30.921-7.171-43.746.161 6.707-4.004 50.676-30.199 64.214-37.164 12.941-6.653 28.914-7.403 42.676.366l323.373 184.598c27.083 13.611 47.826 33.665 61.958 57.457l-67.05 31.069z" fill="#fff"/><path d="M448.042 280.717a1 1 0 0 1-.839-.455c-14.104-21.688-33.47-39.875-56.002-52.597L66.124 44.101c-13.383-7.556-29.367-7.497-42.758.158a1 1 0 0 1-1.008-1.727c5.116-3.055 50.385-30.051 64.27-37.195 14.073-7.236 30.382-7.091 43.625.384l323.376 184.601c26.079 13.105 47.646 33.106 62.322 57.815a.997.997 0 0 1-.44 1.418l-67.05 31.069a.994.994 0 0 1-.42.093zM44.904 36.473c7.628 0 15.25 1.961 22.203 5.886l325.077 183.564c22.56 12.737 41.984 30.887 56.221 52.523l65.257-30.238c-14.467-23.944-35.53-43.334-60.978-56.124L129.264 7.46C116.612.319 101.014.189 87.541 7.115c-10.22 5.258-37.579 21.356-53.229 30.633a44.713 44.713 0 0 1 10.592-1.276z"/><path d="M406.358 1371.747 83.329 1184.263c-49.194-28.552-79.532-81.074-79.685-137.953L1.047 83.41C-.517 47.822 37.266 26.663 66.613 43.234l325.08 183.559c51.145 28.88 82.736 83.102 82.637 141.837l-1.628 964.987c-.057 34.015-36.926 55.204-66.345 38.129z" fill="#dbf301"/><path d="M428.528 1378.787c-7.792 0-15.579-2.059-22.672-6.176L82.827 1185.128c-49.305-28.617-80.029-81.808-80.183-138.815L.047 83.412c-.729-16.577 7.16-31.606 21.105-40.163 14.047-8.62 31.655-8.96 45.952-.887l325.081 183.561c51.386 29.015 83.245 83.698 83.146 142.71l-1.628 964.987c-.027 16.336-8.5 30.949-22.664 39.088-7.052 4.053-14.783 6.079-22.511 6.08zM44.911 38.538a43.41 43.41 0 0 0-22.713 6.417c-13.317 8.17-20.85 22.53-20.152 38.411l2.597 962.942c.152 56.3 30.495 108.83 79.187 137.091l323.029 187.483c13.502 7.836 29.646 7.871 43.183.092 13.537-7.78 21.634-21.745 21.66-37.357l1.628-964.987c.098-58.29-31.372-112.304-82.129-140.965L66.121 44.104a43.11 43.11 0 0 0-21.21-5.566z"/><path d="m273.306 253.257-72.246-41.008c-9.236-5.243-14.535-14.204-17.193-24.418-3.84-14.759 7.338-21.315 14.456-17.274l76.204 43.266a29.767 29.767 0 0 1 15.069 26.158l-.036 3.912c-.076 8.297-9.037 13.46-16.254 9.364z"/><path d="M278.678 255.692c-2.014 0-4.027-.521-5.866-1.565l-72.246-41.009c-8.683-4.929-14.627-13.352-17.667-25.036-1.918-7.372-.33-13.871 4.25-17.385 3.474-2.666 8.054-3.062 11.667-1.01l76.204 43.266a30.786 30.786 0 0 1 15.575 27.037l-.036 3.912c-.039 4.254-2.263 8.063-5.95 10.187a11.851 11.851 0 0 1-5.931 1.603zm-4.879-3.304c3.078 1.747 6.746 1.735 9.812-.032s4.916-4.934 4.948-8.472l.036-3.912a28.786 28.786 0 0 0-14.563-25.28l-76.204-43.266c-2.914-1.654-6.627-1.317-9.463.858-1.882 1.444-5.995 5.826-3.531 15.295 2.898 11.141 8.523 19.149 16.719 23.801l72.246 41.009z"/></svg></g><g transform="translate(1272.0 380.4) rotate(0.0 323.4 913.8) scale(1.1996038414030246 1.1999424847003393)"><svg width="539.178" height="1523.073" viewBox="0 0 539.178 1523.073"><path d="M461.037 1515.225 94.434 1302.452c-55.83-32.403-90.26-92.01-90.434-156.561L1.053 53.103C-.721 12.715 42.158-11.298 75.463 7.508l368.931 208.32c58.044 32.775 93.896 94.311 93.784 160.97l-1.847 1095.155c-.065 38.603-41.907 62.65-75.294 43.272z" fill="#fff"/><path d="M486.198 1523.08c-8.819 0-17.634-2.33-25.663-6.99L93.932 1303.317C38.017 1270.864 3.174 1210.543 3 1145.893L.053 53.106c-.825-18.769 8.104-35.78 23.888-45.465 15.901-9.756 35.83-10.142 52.014-1.004l368.931 208.32c58.274 32.905 94.405 94.92 94.292 161.842l-1.847 1095.155c-.031 18.491-9.621 35.031-25.653 44.244-7.982 4.588-16.733 6.881-25.48 6.882zM50.834 2.044a49.394 49.394 0 0 0-25.847 7.302C9.832 18.645 1.258 34.986 2.052 53.059l2.947 1092.828c.172 63.942 34.634 123.602 89.936 155.699l366.603 212.773c15.367 8.919 33.738 8.958 49.143.105s24.62-24.746 24.649-42.514l1.847-1095.155c.112-66.201-35.629-127.547-93.275-160.097L74.972 8.378a49.058 49.058 0 0 0-24.138-6.334z"/><path d="m310.037 245.861-81.991-46.54c-10.482-5.95-16.496-16.12-19.512-27.712-4.358-16.75 8.327-24.191 16.406-19.604l86.483 49.103a33.783 33.783 0 0 1 17.102 29.687l-.041 4.439c-.086 9.417-10.257 15.276-18.446 10.628z" fill="#fff"/><path d="M316.134 248.489c-2.262 0-4.525-.586-6.591-1.759l-81.991-46.54c-9.821-5.575-16.545-15.106-19.986-28.33-2.163-8.313-.378-15.636 4.774-19.589 3.899-2.992 9.039-3.438 13.092-1.136l86.483 49.103a34.8 34.8 0 0 1 17.608 30.566l-.041 4.439c-.043 4.78-2.542 9.059-6.685 11.445a13.316 13.316 0 0 1-6.664 1.801zm-96.287-96.815c-2.187 0-4.407.739-6.29 2.184-2.158 1.656-6.873 6.675-4.056 17.499 3.299 12.681 9.705 21.797 19.038 27.094l81.991 46.54c3.535 2.006 7.748 1.993 11.269-.036 3.522-2.029 5.646-5.667 5.684-9.731l.041-4.439a32.8 32.8 0 0 0-16.595-28.808l-86.483-49.103a9.288 9.288 0 0 0-4.598-1.2z"/><path d="m1.628 266.393 536.271 302.806.278-192.401c.112-66.659-35.739-128.195-93.784-160.97L75.463 7.508C42.158-11.298-.721 12.715 1.053 53.103z" fill="#87c159"/><path d="M537.9 570.199c-.169 0-.339-.043-.492-.129L1.137 267.264a1 1 0 0 1-.508-.868L.053 53.106c-.825-18.769 8.104-35.78 23.888-45.465C39.843-2.115 59.772-2.501 75.955 6.637l368.931 208.32c58.275 32.905 94.405 94.92 94.292 161.842L538.9 569.2a.998.998 0 0 1-1 .999zM2.627 265.809l534.275 301.679.275-190.691c.112-66.201-35.629-127.547-93.275-160.098L74.972 8.378C59.422-.401 40.27-.031 24.987 9.346 9.832 18.645 1.258 34.986 2.052 53.059z"/><path d="M461.029 393.705c-5.754-4.214-12.878-5.232-17.81.756-3.557-8.295-15.555-28.735-27.201-20.741-7.271 4.991-4.698 17.697-2.908 24.693 2.849 11.136 8.226 21.605 14.134 31.4a212.77 212.77 0 0 0 15.993 22.989c16.206-1.408 31.401-11.255 32.045-28.825.363-11.193-5.116-23.581-14.252-30.273z" fill="#dbf301"/><path d="M443.237 453.803c-.302 0-.59-.137-.781-.375a214.055 214.055 0 0 1-16.068-23.098c-4.581-7.595-11.042-19.141-14.247-31.669-1.265-4.943-5.113-19.983 3.311-25.766 2.853-1.958 5.925-2.479 9.134-1.55 8.282 2.4 15.64 14.279 18.924 21.32 4.736-4.622 11.538-4.582 18.11.232 9.155 6.705 15.047 19.208 14.661 31.112-.684 18.66-17.046 28.406-32.958 29.789a.838.838 0 0 1-.086.004zm-21.704-80.907c-1.709 0-3.345.547-4.949 1.648-4.893 3.359-5.713 11.085-2.505 23.621 3.14 12.272 9.506 23.645 14.022 31.132a212.243 212.243 0 0 0 15.582 22.46c14.866-1.474 29.969-10.586 30.6-27.816.365-11.269-5.198-23.097-13.844-29.429-2.336-1.711-10.426-6.726-16.448.585a1 1 0 0 1-1.691-.242c-2.759-6.435-10.129-19.229-18.271-21.588a8.932 8.932 0 0 0-2.496-.371z"/><ellipse cx="463.491" cy="450.715" fill="#fff" rx="9.631" ry="16.716" transform="matrix(.8660254 -.5 .5 .8660254 -163.261 292.13)"/><path d="M468.784 466.981c-1.794 0-3.761-.59-5.782-1.759-3.303-1.911-6.4-5.176-8.719-9.192-4.967-8.603-4.814-17.677.349-20.658 5.162-2.981 13.098 1.424 18.065 10.027 4.967 8.603 4.814 17.678-.349 20.658-1.068.617-2.272.923-3.565.923zm-10.612-30.52c-.925 0-1.784.207-2.54.643-4.052 2.34-3.876 10.549.383 17.927 2.146 3.718 4.983 6.722 7.988 8.461 2.832 1.638 5.44 1.935 7.345.835 4.052-2.339 3.875-10.549-.383-17.927-3.465-6.002-8.758-9.938-12.793-9.938z"/><path d="M150.376 231.643c-.341 0-.688-.088-1.004-.272l-81.074-47.168a2 2 0 0 1 2.011-3.457l81.074 47.168a2 2 0 0 1-1.007 3.729zm-.355 24.377c-.341 0-.688-.088-1.004-.272L67.943 208.58a2 2 0 0 1 2.011-3.457l81.074 47.168a2 2 0 0 1-1.007 3.729zm-.064 22.33c-.341 0-.688-.088-1.004-.272L67.879 230.91a2 2 0 0 1 2.011-3.457l81.074 47.168a2 2 0 0 1-1.007 3.729z" fill="#dbf301"/><path d="m310.037 245.861-81.991-46.54c-10.482-5.95-16.496-16.12-19.512-27.712-4.358-16.75 8.327-24.191 16.406-19.604l86.483 49.103a33.783 33.783 0 0 1 17.102 29.687l-.041 4.439c-.086 9.417-10.257 15.276-18.446 10.628z"/><path d="M316.134 248.489c-2.262 0-4.525-.586-6.591-1.759l-81.991-46.54c-9.821-5.575-16.545-15.106-19.986-28.33-2.163-8.313-.378-15.636 4.774-19.589 3.899-2.992 9.039-3.438 13.092-1.136l86.483 49.103a34.8 34.8 0 0 1 17.608 30.566l-.041 4.439c-.043 4.78-2.542 9.059-6.685 11.445a13.316 13.316 0 0 1-6.664 1.801zm-96.287-96.815c-2.187 0-4.407.739-6.29 2.184-2.158 1.656-6.873 6.675-4.056 17.499 3.299 12.681 9.705 21.797 19.038 27.094l81.991 46.54c3.535 2.006 7.748 1.993 11.269-.036 3.522-2.029 5.646-5.667 5.684-9.731l.041-4.439a32.8 32.8 0 0 0-16.595-28.808l-86.483-49.103a9.288 9.288 0 0 0-4.598-1.2z"/><path d="M240.642 1010.977c.052-20.263.611-174.239-.042-178.513-1.873-12.262-12.52-17.339-12.52-17.339S84.946 734.104 82.674 733.002c-6.575-3.188-13.718-.287-13.695 7.41.064 20.979.102 174.066.498 178.119.869 8.882 7.614 14.094 13.973 18.086 19.514 12.254 137.791 77.589 137.791 77.589 6.7 3.889 19.491 10.494 19.402-3.229z" fill="#fff"/><path d="M234.539 1020.262c-4.2 0-9.411-2.644-13.801-5.192-1.165-.643-118.507-65.478-137.821-77.607-6.635-4.167-13.539-9.663-14.436-18.836-.305-3.111-.399-90.881-.456-143.321-.018-16.777-.032-29.771-.047-34.892-.011-3.631 1.461-6.56 4.146-8.248 3.033-1.906 7.139-1.93 10.986-.065 2.274 1.103 139.617 78.843 145.462 82.152.392.184 11.085 5.418 13.016 18.059.531 3.475.304 97.198.087 167.393l-.034 11.268c.027 4.225-1.139 7.052-3.465 8.401-1.071.621-2.303.888-3.638.888zM77.378 732.718c-1.538 0-2.979.38-4.19 1.141-2.079 1.307-3.219 3.632-3.21 6.548.016 5.122.029 18.117.047 34.896.053 48.967.151 140.114.446 143.129.811 8.29 6.972 13.232 13.509 17.337 19.267 12.099 136.561 76.907 137.743 77.561 2.844 1.65 11.44 6.639 15.45 4.314 1.66-.963 2.491-3.204 2.468-6.661v-.009l.034-11.274c.125-40.405.504-163.361-.064-167.085-1.773-11.604-11.861-16.539-11.963-16.588-1.492-.842-143.128-81.013-145.412-82.125-1.625-.788-3.292-1.183-4.858-1.183z"/><path d="M475.027 1143.137c.052-20.263.611-174.239-.042-178.513-1.873-12.262-12.52-17.339-12.52-17.339s-143.134-82.021-145.406-83.123c-6.575-3.188-13.718-.287-13.695 7.41.064 20.979.102 175.066.498 179.119.869 8.882 7.614 14.094 13.973 18.086 19.514 12.254 137.791 77.589 137.791 77.589 6.7 3.889 19.491 9.494 19.402-4.229v1z" fill="#fff"/><path d="M468.325 1151.865c-4.182 0-9.232-2.331-13.202-4.635-1.165-.643-118.507-65.478-137.821-77.607-6.635-4.167-13.539-9.663-14.436-18.836-.304-3.11-.399-91.378-.456-144.117-.018-16.893-.032-29.97-.047-35.097-.011-3.631 1.461-6.56 4.146-8.248 3.033-1.906 7.139-1.93 10.986-.065 2.276 1.104 139.621 79.805 145.467 83.155.388.182 11.081 5.416 13.012 18.056.531 3.475.304 97.198.087 167.393l-.034 11.274c0 .08-.01.159-.028.234-.198 3.698-1.429 6.226-3.666 7.524-1.172.68-2.536.969-4.007.969zM311.763 863.878c-1.538 0-2.979.38-4.19 1.141-2.079 1.307-3.219 3.632-3.21 6.548.016 5.127.029 18.205.047 35.101.053 49.245.151 140.91.446 143.924.811 8.29 6.972 13.232 13.509 17.337 19.267 12.099 136.561 76.907 137.743 77.561 4.037 2.343 11.356 5.919 15.22 3.677 1.767-1.025 2.674-3.295 2.698-6.749v-.281c0-.027 0-.054.003-.081l.03-10.197c.125-40.405.504-163.361-.064-167.085-1.767-11.567-11.862-16.539-11.964-16.588-1.495-.854-143.068-81.977-145.411-83.125-1.625-.788-3.292-1.183-4.858-1.183z"/><path d="M240.642 1273.977c.052-20.263.611-173.239-.042-177.513-1.873-12.262-12.52-17.339-12.52-17.339S84.946 998.104 82.674 997.002c-6.575-3.188-13.718-.287-13.695 7.41.064 20.979.102 174.066.498 178.119.869 8.882 7.614 14.094 13.973 18.086 19.514 12.254 137.791 76.589 137.791 76.589 6.7 3.889 19.491 11.494 19.402-2.229v-1z" fill="#fff"/><path d="M235.127 1284.833c-4.736 0-10.504-3.35-14.632-5.747l-.259-.15c-1.135-.616-118.508-64.478-137.851-76.625-6.841-4.296-13.96-9.982-14.9-19.586-.285-2.916-.383-72.448-.46-143.418a29944.23 29944.23 0 0 0-.047-34.89c-.012-3.989 1.626-7.219 4.613-9.097 3.327-2.091 7.796-2.135 11.954-.118 2.296 1.113 138.901 78.436 145.466 82.152 1.066.527 11.616 6.047 13.565 18.808.417 2.731.448 54.052.099 166.406l-.034 12.409c.029 4.458-1.234 7.466-3.755 8.928-1.125.653-2.4.929-3.759.929zM77.381 997.732c-1.359 0-2.626.324-3.661.974-1.802 1.133-2.75 3.103-2.742 5.698.016 5.122.029 18.118.047 34.898.053 48.884.151 139.876.441 143.034.769 7.86 6.724 12.617 13.045 16.586 19.238 12.081 136.501 75.883 137.684 76.526l.309.178c3.96 2.3 11.332 6.581 14.375 4.817 1.48-.858 1.775-3.44 1.762-5.455v-1.018l.034-11.416c.333-107.109.314-162.893-.055-165.802-1.681-11.005-11.011-15.635-11.408-15.827a1.962 1.962 0 0 1-.12-.063c-49.263-27.885-143.029-80.924-145.302-82.068-1.462-.709-2.987-1.064-4.411-1.064z" fill="#87c159"/><path d="M475.027 1406.137c.052-20.263.611-173.239-.042-177.513-1.873-12.262-12.52-17.339-12.52-17.339s-143.134-81.021-145.406-82.123c-6.575-3.188-13.718-.287-13.695 7.41.064 20.979.102 174.066.498 178.119.869 8.882 7.614 14.094 13.973 18.086 19.514 12.254 137.791 76.589 137.791 76.589 6.7 3.889 19.491 11.494 19.402-2.229v-1z" fill="#fff"/><path d="M469.495 1415.998c-4.439 0-10.086-3.279-14.112-5.618l-.259-.15c-1.159-.63-118.505-64.477-137.821-76.607-6.635-4.167-13.539-9.663-14.436-18.836-.305-3.111-.399-90.881-.456-143.322-.018-16.777-.032-29.771-.047-34.892-.011-3.631 1.461-6.56 4.146-8.248 3.033-1.906 7.139-1.93 10.986-.065 2.274 1.103 139.617 78.844 145.462 82.152.392.184 11.085 5.419 13.016 18.059.53 3.47.304 96.545.088 166.252l-.034 12.412c.026 4.079-1.069 6.794-3.257 8.063-.966.56-2.077.799-3.275.799zm-157.732-287.12c-1.538 0-2.979.38-4.19 1.142-2.079 1.307-3.219 3.632-3.21 6.548.016 5.122.029 18.117.047 34.896.053 48.967.151 140.114.446 143.129.811 8.29 6.972 13.232 13.509 17.337 19.264 12.098 136.555 75.914 137.738 76.557l.284.164c4.427 2.571 11.838 6.873 15.379 4.818 1.521-.882 2.282-3.01 2.26-6.326v-1.009l.034-11.416c.125-40.124.503-162.225-.064-165.944-1.767-11.567-11.862-16.539-11.964-16.588-1.491-.842-143.128-81.012-145.411-82.125-1.625-.788-3.292-1.183-4.858-1.183z"/><g fill="#87c159"><path d="M442.705 1111.057c-.169 0-.338-.043-.491-.129l-106.092-59.76a.998.998 0 0 1-.509-.873l.244-143.451a1 1 0 0 1 1.492-.869l106.872 60.447c.316.179.51.515.508.877l-1.024 142.763a.999.999 0 0 1-1 .993zm-105.091-61.344 104.103 58.639 1.008-140.478-104.871-59.315z"/><path d="M352.874 1060.456h-.002a1 1 0 0 1-.998-1.002l.246-143.411a1 1 0 0 1 1-.998h.002a1 1 0 0 1 .998 1.002l-.246 143.411a1 1 0 0 1-1 .998zm36.914-69.07a1 1 0 0 1-.903-.572l-7.19-15.161-7.141 6.25a.999.999 0 0 1-1.658-.76l.385-53.138a1.002 1.002 0 0 1 1.493-.863l15.895 8.99c.316.179.51.515.508.878l-.387 53.383a1 1 0 0 1-1.001.993zm-7.756-18.356a1 1 0 0 1 .903.572l5.885 12.409.351-48.427-13.902-7.863-.357 49.212 6.461-5.655c.184-.161.419-.248.659-.248zm-46.347 333.999a1 1 0 0 1-.973-1.227l5.424-23.252c.034-.145.1-.281.192-.397l46.879-58.657a14.147 14.147 0 0 1 9.551-5.263c3.78-.42 7.502.657 10.474 3.036 6.126 4.904 7.125 13.881 2.226 20.011l-46.891 58.671c-.136.169-.322.29-.533.344l-26.102 6.703a1.005 1.005 0 0 1-.249.031zm6.347-23.805-4.998 21.426 24.181-6.21 46.682-58.41c4.211-5.27 3.353-12.986-1.914-17.201a12.161 12.161 0 0 0-9.003-2.609 12.166 12.166 0 0 0-8.21 4.524zm19.755 16.102h.01z"/></g><path d="m441.624 1298.686-38.161-51.507-18.912 23.664 23.172 25.239-26.507-28.871c-4.277-4.658-11.52-4.967-16.179-.69-4.658 4.277-4.968 11.521-.691 16.179l26.507 28.871s8.419 13.315 21.558 22.871c14.351 10.437 39.003 13.719 39.003 13.719v-48.425l-9.79-1.049z" fill="#fff"/><path d="M451.414 1349.16a.976.976 0 0 1-.132-.009c-1.017-.135-25.069-3.437-39.459-13.902-12.616-9.176-21.036-21.943-21.764-23.067l-26.449-28.808a12.37 12.37 0 0 1-3.268-8.951c.142-3.323 1.569-6.391 4.019-8.64s5.633-3.406 8.951-3.268a12.371 12.371 0 0 1 8.641 4.019l2.545 2.772 18.183-22.752a.974.974 0 0 1 .799-.375 1 1 0 0 1 .786.405l37.9 51.155 9.354 1.002a1 1 0 0 1 .894.994v48.425a1.001 1.001 0 0 1-1 1zm-78.643-84.656c-2.623 0-5.113.968-7.057 2.753a10.387 10.387 0 0 0-3.374 7.252 10.38 10.38 0 0 0 2.743 7.513l26.506 28.871c.04.044.077.091.108.142.083.132 8.479 13.271 21.301 22.597 12.246 8.906 32.439 12.573 37.415 13.366v-46.364l-8.896-.953a1.002 1.002 0 0 1-.697-.399l-37.388-50.463-17.566 21.979 22.593 24.608a1 1 0 1 1-1.474 1.353l-23.172-25.239-.016-.018-3.318-3.614a10.382 10.382 0 0 0-7.709-3.383zm-30.391 11.73c-2.515 0-4.928-.865-6.894-2.492a10.808 10.808 0 0 1-1.677-14.977l20.687-26.855c7.132-9.258 20.536-11.081 29.881-4.061l.37.278a1.002 1.002 0 0 1 .181 1.424l-34.052 42.607a10.766 10.766 0 0 1-7.363 4.018c-.379.039-.758.058-1.134.058zm-5.618-4.033a8.782 8.782 0 0 0 6.547 1.985 8.783 8.783 0 0 0 6.005-3.277l33.404-41.795c-8.448-5.969-20.285-4.228-26.637 4.017l-20.687 26.855a8.815 8.815 0 0 0 1.368 12.215z" fill="#87c159"/><path d="M120.279 1116.627c0-20.807 1.663-41.037 14.116-44.788 19.926-6.001 40.182 23.351 51.312 60.305 3.177 10.548 3.707 18.207 4.036 27.787l7.073-10.15c-1.079-9.378-3.461-19.954-6.638-30.501-11.13-36.954-36.306-62.046-56.232-56.045-12.454 3.751-19.909 18.76-21.032 38.511l7.365 14.88z" fill="#fff"/><path d="M189.744 1160.932a.998.998 0 0 1-.999-.966c-.313-9.126-.806-16.948-3.994-27.533-5.657-18.783-13.535-35.093-22.182-45.926-6.491-8.131-16.601-17.11-27.885-13.71-11.781 3.548-13.405 23.163-13.405 43.831a1 1 0 0 1-1.896.444l-7.365-14.88a1.007 1.007 0 0 1-.103-.5c1.19-20.937 9.318-35.67 21.742-39.412 20.423-6.152 46.207 19.291 57.479 56.714 3.329 11.054 5.637 21.661 6.674 30.676.028.242-.034.486-.173.686l-7.073 10.15a1 1 0 0 1-.82.428zm-50.086-90.876c8.102 0 16.459 5.163 24.474 15.204 8.802 11.027 16.805 27.575 22.534 46.597 2.903 9.638 3.618 17.003 3.964 25.055l5.15-7.39c-1.044-8.817-3.309-19.164-6.558-29.952-10.954-36.366-35.621-61.208-54.986-55.375-11.534 3.474-19.115 17.427-20.307 37.348l5.377 10.864c.26-19.834 2.629-37.858 14.802-41.524a19.157 19.157 0 0 1 5.551-.826z"/><path d="M120.279 1173.848c0 2-1.922 3.457-3.84 2.889-.897-.266-1.76-.589-2.343-.965a11.43 11.43 0 0 1-5.258-9.627V1104.1a3.562 3.562 0 0 1 3.562-3.562 7.878 7.878 0 0 1 7.878 7.878v65.433z" fill="#adc4cb"/><path d="M117.292 1177.862c-.379 0-.761-.055-1.137-.166-1.146-.339-1.996-.693-2.601-1.083a12.398 12.398 0 0 1-5.716-10.468V1104.1a4.567 4.567 0 0 1 4.562-4.562c4.896 0 8.878 3.983 8.878 8.878v65.433a3.98 3.98 0 0 1-1.614 3.217 3.949 3.949 0 0 1-2.373.797zm-4.892-76.324a2.565 2.565 0 0 0-2.562 2.562v62.045c0 3.568 1.794 6.853 4.798 8.787.3.193.906.497 2.086.847a1.961 1.961 0 0 0 1.745-.315 2 2 0 0 0 .811-1.615v-65.433a6.886 6.886 0 0 0-6.878-6.878z"/><path d="M108.839 1166.145c-7.359 0-13.325-12.757-13.325-26.325v-23.46c0-6.583 5.336-11.919 11.919-11.919h1.406z" fill="#fff"/><path d="M108.839 1167.145c-8.569 0-14.325-14.129-14.325-27.325v-23.46c0-7.124 5.795-12.919 12.919-12.919h1.406a1 1 0 0 1 1 1v61.704a1 1 0 0 1-1 1zm-1.406-61.704c-6.021 0-10.919 4.898-10.919 10.919v23.46c0 12.566 5.28 24.068 11.325 25.229v-59.608z"/><path d="M194.678 1147.373a7.45 7.45 0 0 1 7.446 7.446v65.755a3.77 3.77 0 0 1-3.768 3.768c-4.753 0-8.612-3.859-8.612-8.612v-63.423a4.937 4.937 0 0 1 4.934-4.934z" fill="#adc4cb"/><path d="M198.355 1225.341c-5.3 0-9.612-4.312-9.612-9.612v-63.423a5.94 5.94 0 0 1 5.934-5.934c4.657 0 8.445 3.789 8.445 8.446v65.755a4.774 4.774 0 0 1-4.768 4.768zm-3.678-76.969a3.939 3.939 0 0 0-3.934 3.934v63.423c0 4.197 3.415 7.612 7.612 7.612a2.77 2.77 0 0 0 2.768-2.768v-65.755a6.454 6.454 0 0 0-6.445-6.446z"/><path d="M202.123 1219.676v-59.745c6.837 0 12.38 13.456 12.38 28.38v18.986c-.555 8.852-5.543 12.38-12.38 12.38z" fill="#fff"/><path d="M202.123 1220.676a1 1 0 0 1-1-1v-59.745a1 1 0 0 1 1-1c7.378 0 13.38 13.179 13.38 29.379v18.986c-.54 8.65-5.291 13.38-13.38 13.38zm1-59.629v57.602c6.438-.353 9.929-4.188 10.382-11.415l-.002-18.923c0-13.777-4.745-25.956-10.38-27.263z"/><path d="m140.641 1123.892.541 47.527" fill="#fff"/><path d="M141.182 1172.419a1 1 0 0 1-1-.989l-.542-47.527a1 1 0 0 1 .989-1.011c.598.011 1.005.437 1.011.989l.542 47.527a1 1 0 0 1-.989 1.011zm-10.9-15.632a1 1 0 0 1-1-1v-24.427a1 1 0 0 1 2 0v24.427a1 1 0 0 1-1 1zm22.594 10.495a1 1 0 0 1-1-1v-20.762a1 1 0 0 1 2 0v20.762a1 1 0 0 1-1 1zm12.867 15.984a1 1 0 0 1-1-1v-38.747a1 1 0 0 1 2 0v38.747a1 1 0 0 1-1 1zm13.998 2.9a1 1 0 0 1-1-1v-28.46a1 1 0 0 1 2 0v28.46a1 1 0 0 1-1 1z"/><path d="M168.949 884.406c-3.766 0-7.885-1.117-12.136-3.339-7.588-3.967-14.729-11.014-20.107-19.842s-8.366-18.405-8.412-26.968c-.047-8.748 2.974-15.422 8.507-18.793s12.85-2.995 20.602 1.058c7.588 3.968 14.729 11.014 20.107 19.842s8.366 18.405 8.412 26.968c.047 8.748-2.974 15.422-8.507 18.793-2.5 1.523-5.363 2.281-8.466 2.281zm-23.676-69.22c-2.742 0-5.254.66-7.431 1.986-4.911 2.992-7.591 9.056-7.548 17.075.044 8.204 2.928 17.416 8.12 25.938s12.056 15.309 19.326 19.11c7.106 3.715 13.724 4.114 18.634 1.123 4.911-2.992 7.591-9.056 7.548-17.074-.044-8.204-2.928-17.416-8.12-25.938-5.192-8.522-12.055-15.309-19.326-19.11-3.956-2.068-7.76-3.109-11.203-3.109zm57.759 146.469a.998.998 0 0 1-.505-.137l-94.396-55.264a1.003 1.003 0 0 1-.469-.637c-.031-.132-2.9-13.307 11.311-18.885l.365.931-.365-.931c15.097-5.926 31.611-2.295 47.757 10.498 11.864 9.401 23.795 24.22 31.917 39.64 7.704 14.628 5.453 23.663 5.353 24.041a1 1 0 0 1-.967.745zm-93.499-56.897 92.733 54.291c.286-2.944.249-10.539-5.391-21.247-7.998-15.187-19.732-29.768-31.389-39.005-15.778-12.503-31.183-15.936-45.784-10.204-11.38 4.467-10.516 14.036-10.169 16.165z" fill="#87c159"/></svg></g><g transform="translate(1112.3999999999999 1948.8) rotate(0.0 556.1999999999999 355.19999999999993) scale(1.2012971936254788 1.2016847945599403)"><svg width="925.999" height="591.17" viewBox="0 0 925.999 591.17"><g><g><path d="M831.408 131.955c-112.991 68.672-274.637 85.399-274.637 85.399l-61.138 206.705s217.942-45.291 317.336-104.808"/><path d="M495.633 425.06a1.002 1.002 0 0 1-.959-1.284l61.138-206.705a1 1 0 0 1 .856-.711c1.614-.167 162.722-17.495 274.22-85.259a1 1 0 0 1 1.039 1.709c-58.48 35.542-130.153 56.907-179.981 68.571-50.198 11.75-88.909 16.286-94.405 16.896l-60.473 204.457c20.288-4.331 221.804-48.302 315.388-104.34a1.001 1.001 0 0 1 1.028 1.716c-98.4 58.922-315.465 104.476-317.646 104.929a1.01 1.01 0 0 1-.204.021Z"/></g><g><path d="M887.914 57.879c-41.967 32.145-101.709 62.691-185.723 88.572-122.124 37.62-159.832 33.63-159.832 33.63l12.215 47.186s108.62-17.975 146.011-27.959c92.863-24.797 169.517-63.614 224.414-112.208" style="fill:#fff"/><path d="M554.573 228.267a1 1 0 0 1-.967-.75l-12.215-47.186a1.003 1.003 0 0 1 .21-.903.992.992 0 0 1 .862-.342c.372.038 39.074 3.485 159.433-33.591 77.681-23.929 140.062-53.675 185.41-88.41a1 1 0 1 1 1.216 1.588c-45.537 34.88-108.128 64.734-186.037 88.733-108.352 33.378-150.874 34.004-158.816 33.745l11.644 44.979c10.552-1.759 109.9-18.412 145.014-27.788 91.33-24.387 168.792-63.113 224.009-111.991a1.001 1.001 0 0 1 1.326 1.498c-55.449 49.082-133.19 87.958-224.819 112.426-37.009 9.882-145.019 27.799-146.105 27.979-.055.009-.11.014-.164.014Z"/></g><g><g><g><path d="M113.397 552.392s-74.519-68.626-90.729-90.729c-49.276-67.19-14.874-212.396 106.954-334.223C251.449 5.612 386.94-23.818 463.846 20.487c38.954 22.442 90.729 90.729 90.729 90.729L113.397 552.392Z" style="fill:#fff"/><path d="M113.397 553.392a.997.997 0 0 1-.677-.264c-.746-.687-74.776-68.946-90.857-90.873-24.626-33.578-28.578-87.339-10.84-147.497 18.91-64.135 60.778-130.911 117.893-188.025 57.61-57.61 121.37-97.732 184.386-116.029 58.125-16.877 111.767-13.71 151.044 8.917 38.682 22.285 90.507 90.306 91.026 90.991a.999.999 0 0 1-.09 1.311L114.104 553.099a.997.997 0 0 1-.707.293ZM383.672 2.244c-70.975 0-162.996 35.557-253.343 125.903-56.882 56.882-98.572 123.356-117.388 187.177C-4.618 374.878-.778 428.002 23.475 461.073c15.129 20.628 82.249 82.866 89.895 89.933l439.877-439.878c-5.576-7.242-53.661-68.897-89.901-89.775C442.19 9.165 414.971 2.244 383.671 2.244Z"/></g><g><ellipse cx="333.986" cy="331.804" rx="311.959" ry="190.129" transform="translate(-136.799 333.347) rotate(-45)" style="fill:#adc4cb"/><path d="M215.121 591.234c-41.91 0-77.233-12.936-102.431-38.134-36.167-36.167-47.077-93.208-30.72-160.616 16.313-67.232 57.818-136.779 116.867-195.828 59.049-59.049 128.596-100.554 195.828-116.867 67.408-16.356 124.45-5.446 160.616 30.72 36.167 36.167 47.077 93.208 30.72 160.616-16.313 67.232-57.817 136.779-116.867 195.828-59.049 59.049-128.596 100.554-195.828 116.867-20.444 4.961-39.942 7.414-58.186 7.414ZM452.703 74.507c-77.214 0-172.878 43.989-252.452 123.563-58.793 58.793-100.109 128.005-116.338 194.885-16.186 66.704-5.463 123.076 30.191 158.73 35.655 35.655 92.026 46.376 158.73 30.191 66.881-16.228 136.092-57.545 194.886-116.338l.707.707-.707-.707c121.243-121.243 159.888-279.874 86.146-353.616-25.344-25.344-60.729-37.416-101.164-37.416Z"/></g></g><g><g><path d="M206.802 517.513s-15.545-9.775-32.148-26.378c-52.819-52.819-24.302-166.972 63.695-254.968 87.996-87.996 197.007-115.376 254.968-63.695 12.032 10.728 40.902 36.707 40.902 36.707L206.801 517.512Z" style="fill:#fff"/><path d="M206.801 518.513a.997.997 0 0 1-.532-.153c-.157-.098-15.832-10.026-32.323-26.517-25.804-25.804-33.34-66.731-21.222-115.242 12.074-48.33 42.231-98.455 84.917-141.141 42.708-42.708 92.147-72.713 139.212-84.49 47.261-11.825 88.857-4.454 117.129 20.756 11.896 10.607 40.617 36.45 40.906 36.71a.998.998 0 0 1 .017 1.471L207.488 518.24a.997.997 0 0 1-.686.272ZM419.12 147.468c-13.225 0-27.226 1.8-41.782 5.443-46.718 11.69-95.828 41.509-138.283 83.964-42.433 42.433-72.403 92.227-84.39 140.211-11.942 47.803-4.592 88.056 20.695 113.343 14.436 14.435 28.223 23.783 31.326 25.819l326.056-307.051c-4.767-4.289-29.325-26.377-40.091-35.978-19.091-17.022-44.421-25.751-73.531-25.751Z"/></g><g><ellipse cx="374.888" cy="368.511" rx="225.329" ry="135.251" transform="translate(-150.775 373.02) rotate(-45)" style="fill:#adc4cb"/><path d="M287.165 555.417c-29.631 0-54.556-9.106-72.316-26.867-25.804-25.804-33.34-66.731-21.222-115.242 12.074-48.331 42.231-98.455 84.917-141.141 42.685-42.685 92.81-72.842 141.14-84.916 48.513-12.119 89.439-4.582 115.242 21.221 25.804 25.804 33.34 66.731 21.222 115.242-12.074 48.331-42.231 98.455-84.917 141.141l-.707-.707.707.707c-42.686 42.685-92.81 72.842-141.141 84.916-15.121 3.777-29.507 5.645-42.926 5.645Zm175.438-371.81c-13.255 0-27.472 1.847-42.434 5.585-47.984 11.987-97.778 41.957-140.211 84.39-42.433 42.433-72.403 92.227-84.39 140.211-11.942 47.803-4.592 88.056 20.695 113.343 17.373 17.373 41.814 26.279 70.909 26.28 13.255 0 27.472-1.847 42.434-5.585 47.984-11.987 97.779-41.957 140.211-84.39 42.433-42.433 72.403-92.227 84.39-140.211 11.942-47.803 4.592-88.056-20.695-113.343-17.373-17.373-41.814-26.28-70.91-26.28Z"/></g></g></g></g></svg></g><g transform="translate(628.8 687.6) rotate(0.0 217.79999999999995 325.8) scale(1.1979308467193028 1.1984528260937537)"><svg width="363.627" height="543.701" viewBox="0 0 363.627 543.701"><path d="m362.618 223.463-3.219 231.282c-.106 6.797-3.833 12.303-9 15.268-4.404 2.499-18.441 8.347-24.942 11.037 5.781-2.753 3.427-5.785 3.533-13.091l3.219-231.282 30.408-13.214z"/><path d="M325.459 482.05a1 1 0 0 1-.431-1.903c3.663-1.744 3.525-3.349 3.194-7.228-.122-1.424-.259-3.037-.231-4.974l3.219-231.281a.998.998 0 0 1 .602-.903l30.408-13.214a1.002 1.002 0 0 1 1.399.931l-3.218 231.282c-.105 6.742-3.657 12.768-9.502 16.121-3.142 1.783-11.571 5.514-25.057 11.094a.99.99 0 0 1-.382.076zm7.742-244.713-3.209 230.636c-.027 1.838.106 3.399.224 4.776.174 2.044.324 3.797-.235 5.336 10.559-4.421 17.252-7.425 19.926-8.942 5.223-2.997 8.4-8.386 8.494-14.414l3.197-229.732-28.396 12.339z"/><path d="M332.21 236.677a55.765 55.765 0 0 0-5.922-25.786 55.706 55.706 0 0 0-22.178-23.406L16.437 22.992c-5.188-2.965-7.198-2.926-11.624-.152L25.475 6.885C35.47-.548 45.851-.831 56.608 5.416l280.028 162.778c9.553 4.51 16.003 12.825 20.089 22.502 4.373 10.358 6.036 22.279 5.894 32.766l-30.408 13.214z" fill="#fff"/><path d="M332.21 237.677a1.003 1.003 0 0 1-1-1.013 55.023 55.023 0 0 0-5.815-25.323 54.574 54.574 0 0 0-21.78-22.986L15.94 23.86c-4.836-2.763-6.42-2.79-10.596-.172a1 1 0 0 1-1.143-1.639L24.863 6.094c10.16-7.556 21.004-8.071 32.246-1.542L337.138 167.33c8.93 4.212 15.855 11.956 20.508 22.978 4.013 9.505 6.134 21.284 5.972 33.169a1 1 0 0 1-.602.904l-30.408 13.214a1.004 1.004 0 0 1-.398.083zM10.444 19.756c1.853.041 3.793.828 6.489 2.368l287.673 164.493a56.56 56.56 0 0 1 22.575 23.825 57.053 57.053 0 0 1 6.028 24.709l28.415-12.348c.075-11.394-1.986-22.634-5.821-31.719-4.456-10.554-11.048-17.951-19.594-21.987L56.105 6.281C45.471.106 35.647.567 26.071 7.688zM290.59 415.803l.07-15.33h-32.718l.467 7.083c10.566 3.376 21.288 6.367 32.181 8.247z"/><path d="M290.59 416.803a.976.976 0 0 1-.17-.015c-9.5-1.639-19.769-4.271-32.315-8.28a1 1 0 0 1-.694-.887l-.467-7.083a1 1 0 0 1 .998-1.066h32.718a.999.999 0 0 1 1 1.004l-.07 15.33a1 1 0 0 1-1 .996zm-31.228-9.993c11.653 3.703 21.314 6.197 30.233 7.802l.06-13.139H259.01zm-.751 3.807 8.712 132.084 22.75-13.096.504-110.878z"/><path d="M267.323 543.701a1 1 0 0 1-.998-.934l-8.712-132.083a.998.998 0 0 1 1.244-1.035l31.966 8.11a1 1 0 0 1 .754.974l-.504 110.877a.998.998 0 0 1-.501.862l-22.75 13.096a.998.998 0 0 1-.499.133zm-7.624-131.775 8.516 129.108 20.86-12.008.499-109.521-29.874-7.579z"/><path d="M311.202 184.287 23.527 19.803C13.491 14.065 1 21.311 1 32.872l.002 228.855a67.194 67.194 0 0 0 33.458 58.721l155.243 90.117 77.619 132.136v-87.079l41.925 24.337c11.812 6.857 26.636-1.541 26.827-15.198l3.228-231.279a55.754 55.754 0 0 0-28.1-49.194z" fill="#adc4cb"/><path d="M267.323 543.701a.999.999 0 0 1-.862-.493l-77.486-131.909-155.016-89.985C12.792 309.026-.219 286.19.003 261.718L0 32.872c0-5.79 2.99-10.981 7.999-13.887 5.007-2.906 10.998-2.924 16.025-.051l287.675 164.485a56.769 56.769 0 0 1 28.604 50.076l-3.228 231.28c-.095 6.772-3.669 12.809-9.562 16.147-5.893 3.339-12.909 3.302-18.767-.099l-40.422-23.464v85.342a1 1 0 0 1-1 1zM16.054 18.796c-2.424 0-4.846.64-7.052 1.919-4.384 2.543-7.001 7.088-7.001 12.156l.002 228.855c-.215 23.764 12.415 45.93 32.96 57.856l155.243 90.117c.149.086.273.21.36.358l75.757 128.966v-83.402a1 1 0 0 1 1.502-.865l41.924 24.336c5.237 3.04 11.509 3.072 16.777.088 5.268-2.985 8.463-8.381 8.548-14.435l3.228-231.28a54.766 54.766 0 0 0-27.596-48.311L23.03 20.671a14.032 14.032 0 0 0-6.977-1.875z"/><path d="M81.256 184.356a7.874 7.874 0 0 1 7.87 7.87v36.709c0 .831-.675 1.506-1.506 1.506a8.33 8.33 0 0 1-8.326-8.326v-35.797c0-1.083.879-1.962 1.962-1.962z" fill="#dbf301"/><path d="M87.62 231.441c-5.142 0-9.326-4.184-9.326-9.326v-35.797a2.966 2.966 0 0 1 2.962-2.962c4.891 0 8.87 3.979 8.87 8.869v36.709a2.509 2.509 0 0 1-2.506 2.506zm-6.364-46.085a.964.964 0 0 0-.962.962v35.797c0 4.04 3.286 7.326 7.326 7.326a.507.507 0 0 0 .506-.506v-36.709a6.877 6.877 0 0 0-6.87-6.869z"/><path d="M107.751 258.818c-4.369.352-8.191-4.205-8.191-8.803v-77.58c0-1.084.879-1.962 1.962-1.962 4.346 0 7.87 4.613 7.87 8.96v77.964c0 .832-.865 1.359-1.641 1.422z" fill="#dbf301"/><path d="M107.278 259.837c-1.896 0-3.776-.781-5.35-2.232-2.109-1.946-3.368-4.783-3.368-7.59v-77.58a2.966 2.966 0 0 1 2.962-2.962c5.077 0 8.87 5.258 8.87 9.96v77.964c0 1.437-1.319 2.319-2.561 2.419a6.815 6.815 0 0 1-.553.022zm-5.755-88.365a.963.963 0 0 0-.962.962v77.58c0 2.225 1.044 4.57 2.724 6.12 1.312 1.21 2.872 1.811 4.387 1.687.381-.031.721-.263.721-.425v-77.964c0-3.681-3.001-7.96-6.87-7.96z"/><path d="M129.297 249.901a7.993 7.993 0 0 1-7.993-7.993v-28.724c0-.7.28-3.219 3.354-2.884 3.814.416 6.478 4.298 6.478 8.309v29.453a1.839 1.839 0 0 1-1.839 1.839z" fill="#dbf301"/><path d="M129.296 250.901c-4.958 0-8.993-4.034-8.993-8.993v-28.724c0-.447.089-1.986 1.241-3.019.798-.717 1.882-1.006 3.222-.86 4.132.451 7.37 4.537 7.37 9.303v29.453a2.843 2.843 0 0 1-2.839 2.839zm-5.178-39.631c-.538 0-.953.129-1.239.385-.56.502-.576 1.426-.576 1.53v28.724a7 7 0 0 0 6.993 6.993.84.84 0 0 0 .839-.839V218.61c0-3.697-2.506-6.979-5.586-7.314a3.858 3.858 0 0 0-.431-.025z"/><path d="M153.416 278.985c-4.369.352-8.191-4.205-8.191-8.803V210.27c0-1.084.652-3.102 2.606-3.284 3.819-.354 7.226 3.572 7.226 7.918v62.659c0 .832-.865 1.359-1.641 1.422z" fill="#dbf301"/><path d="M152.943 280.004c-1.896 0-3.776-.781-5.35-2.232-2.109-1.945-3.368-4.783-3.368-7.59V210.27c0-1.529.954-4.042 3.514-4.28 1.858-.172 3.73.504 5.268 1.905 1.91 1.741 3.05 4.361 3.05 7.009v62.659c0 1.437-1.319 2.318-2.561 2.418a6.815 6.815 0 0 1-.553.022zm-4.637-72.04c-.128 0-.255.006-.382.018-1.41.131-1.698 1.838-1.698 2.288v59.912c0 2.225 1.044 4.57 2.724 6.12 1.312 1.21 2.877 1.811 4.386 1.686.381-.031.721-.263.721-.425v-62.659c0-2.095-.896-4.162-2.398-5.531-1.006-.917-2.184-1.409-3.353-1.409z"/><path d="M179.443 285.052c-4.369.352-8.191-4.205-8.191-8.803V232.71c0-1.084.879-1.962 1.962-1.962 4.346 0 7.87 4.613 7.87 8.96v43.923c0 .832-.865 1.359-1.641 1.422z" fill="#fff"/><path d="M178.97 286.071c-1.896 0-3.777-.781-5.351-2.233-2.109-1.945-3.368-4.783-3.368-7.59v-43.539a2.966 2.966 0 0 1 2.962-2.962c5.077 0 8.87 5.258 8.87 9.96v43.923c0 1.437-1.319 2.318-2.56 2.419a6.84 6.84 0 0 1-.554.022zm.473-1.019h.01zm-6.229-53.305a.963.963 0 0 0-.962.962v43.539c0 2.225 1.044 4.57 2.724 6.12 1.312 1.21 2.871 1.81 4.387 1.687.382-.031.721-.263.721-.425v-43.923c0-3.681-3.001-7.96-6.87-7.96z"/><path d="M198.963 246.298a7.874 7.874 0 0 1 7.87 7.87v41.899c0 .831-.675 1.506-1.506 1.506a8.33 8.33 0 0 1-8.326-8.326V248.26c0-1.083.879-1.962 1.962-1.962z" fill="#fff"/><path d="M205.327 298.572c-5.143 0-9.326-4.184-9.326-9.326v-40.987a2.966 2.966 0 0 1 2.962-2.962c4.891 0 8.87 3.979 8.87 8.869v41.899a2.509 2.509 0 0 1-2.506 2.506zm-6.364-51.275a.963.963 0 0 0-.962.962v40.987c0 4.04 3.287 7.326 7.326 7.326a.507.507 0 0 0 .506-.506v-41.899a6.877 6.877 0 0 0-6.87-6.869z"/><path d="M230.028 326.357c-4.369.352-8.149-4.704-8.149-9.302v-68.97c0-1.084.879-1.962 1.962-1.962 4.346 0 7.87 4.613 7.87 8.96v69.354c0 .832-.907 1.858-1.683 1.921z" fill="#fff"/><path d="M229.605 327.374c-1.784 0-3.58-.758-5.106-2.166-2.233-2.06-3.62-5.184-3.62-8.153v-68.97a2.966 2.966 0 0 1 2.962-2.962c5.077 0 8.87 5.258 8.87 9.96v69.354c0 1.341-1.313 2.813-2.603 2.917-.167.013-.335.02-.503.02zm.423-1.017h.01zm-6.187-79.234a.963.963 0 0 0-.962.962v68.97c0 2.392 1.168 5.015 2.977 6.683.887.819 2.321 1.764 4.092 1.622.256-.031.764-.597.764-.924v-69.354c0-3.681-3.001-7.96-6.87-7.96z"/><path d="M249.324 271.036c4.945 0 8.96 4.015 8.96 8.96v51.189c0 .831-.675 1.506-1.506 1.506a8.33 8.33 0 0 1-8.326-8.326v-52.457c0-.481.391-.872.872-.872z" fill="#fff"/><path d="M256.777 333.691c-5.142 0-9.326-4.184-9.326-9.326v-52.457c0-1.032.84-1.872 1.872-1.872 5.492 0 9.959 4.468 9.959 9.96v51.189a2.509 2.509 0 0 1-2.506 2.506zm-7.326-61.654v52.328c0 4.039 3.286 7.326 7.326 7.326a.507.507 0 0 0 .506-.506v-51.189c0-4.346-3.501-7.89-7.832-7.959z"/><path d="M281.917 347.491c-4.369.352-8.191-4.205-8.191-8.803v-50.286c0-1.084.879-1.962 1.962-1.962 4.346 0 7.87 4.613 7.87 8.96v50.67c0 .832-.865 1.359-1.641 1.422z" fill="#fff"/><path d="M281.444 348.51c-1.896 0-3.776-.781-5.35-2.232-2.109-1.946-3.368-4.783-3.368-7.59v-50.286a2.966 2.966 0 0 1 2.962-2.962c5.077 0 8.87 5.258 8.87 9.959v50.67c0 1.437-1.319 2.318-2.561 2.419a6.84 6.84 0 0 1-.554.022zm.473-1.019h.01zm-6.229-60.052a.963.963 0 0 0-.962.962v50.286c0 2.225 1.044 4.57 2.724 6.12 1.311 1.21 2.872 1.81 4.386 1.687.382-.031.722-.263.722-.425v-50.67c0-3.681-3.001-7.959-6.87-7.959z"/><path d="M303.563 313.557a7.874 7.874 0 0 1 7.87 7.87v30.481c0 .831-.675 1.506-1.506 1.506a8.33 8.33 0 0 1-8.326-8.326v-29.569c0-1.083.879-1.962 1.962-1.962z" fill="#fff"/><path d="M309.927 354.414c-5.143 0-9.326-4.184-9.326-9.326v-29.569a2.966 2.966 0 0 1 2.962-2.962c4.891 0 8.87 3.979 8.87 8.869v30.481a2.509 2.509 0 0 1-2.506 2.506zm-6.364-39.857a.963.963 0 0 0-.962.962v29.569c0 4.039 3.287 7.326 7.326 7.326a.507.507 0 0 0 .506-.506v-30.481a6.877 6.877 0 0 0-6.87-6.869z"/><path d="m63.034 201.969-28.607 15.918c-4.406 1.773-5.552-4.277-5.552-9.011v-55.4c0-2.977 2.273-4.364 3.482-2.124l33.117 41.886c1.836 3.404.809 7.083-2.44 8.732z" fill="#fff"/><path d="M32.959 219.2c-.893 0-1.576-.3-2.051-.621-2.639-1.783-3.033-6.845-3.033-9.704v-55.4c0-2.119.985-3.792 2.45-4.162 1.118-.281 2.182.272 2.867 1.482l33.067 41.822a.928.928 0 0 1 .095.145c1.052 1.95 1.305 4.07.711 5.968-.553 1.768-1.817 3.231-3.561 4.122L34.913 218.76a1.17 1.17 0 0 1-.113.054c-.69.278-1.304.386-1.841.386zm1.468-1.314h.01zm-3.557-66.641a.21.21 0 0 0-.056.007c-.379.095-.94.868-.94 2.223v55.4c0 4.067.825 7.15 2.152 8.047.52.351 1.165.37 1.971.059l28.549-15.885.034-.018c1.286-.653 2.176-1.671 2.575-2.944.424-1.356.239-2.896-.522-4.347l-33.062-41.815a1.022 1.022 0 0 1-.096-.146c-.156-.29-.391-.58-.606-.58z"/></svg></g><g transform="translate(931.1999999999999 608.4) rotate(0.0 455.99999999999994 408.59999999999997) scale(1.1998973771980026 1.1983529246146265)"><svg width="760.065" height="681.936" viewBox="0 0 760.065 681.936"><path d="m759.063 427.633-.177 232.912a9.202 9.202 0 0 1-3.587 7.277c-2.825 2.191-19.005 11.88-19.005 11.88L499.912 528.631l259.152-100.998z"/><path d="M736.293 680.702c-.188 0-.375-.053-.539-.157L499.372 529.474a1 1 0 0 1 .175-1.774l259.152-100.998a1.002 1.002 0 0 1 1.364.932l-.177 232.912c-.025 3.19-1.474 6.127-3.974 8.066-2.84 2.202-18.441 11.551-19.104 11.948a.996.996 0 0 1-.514.142zM502.107 528.848l234.202 149.677c2.812-1.689 15.916-9.586 18.376-11.495a8.243 8.243 0 0 0 3.2-6.494l.176-231.441-255.954 99.752z"/><path d="M499.911 528.632 18.537 238.501 6.778 13.946S22.676 2.872 27.904 1.27c3.298-1.011 13.459.999 16.859 2.971l696.654 392.436a35.325 35.325 0 0 1 17.645 30.957L499.91 528.632z" fill="#adc4cb"/><path d="M499.911 529.632a.99.99 0 0 1-.516-.144L18.021 239.357a1 1 0 0 1-.482-.804L5.779 13.998a1 1 0 0 1 .427-.873C6.861 12.669 22.294 1.943 27.611.314c3.573-1.094 14.021.956 17.654 3.062l696.643 392.43c11.34 6.555 18.293 18.753 18.155 31.839a.999.999 0 0 1-.637.921L500.274 529.564a.994.994 0 0 1-.363.068zM19.508 237.918l480.498 289.603 258.057-100.572a34.376 34.376 0 0 0-17.146-29.407L44.273 5.112C41.152 3.303 31.189 1.31 28.197 2.226c-4.535 1.39-17.762 10.413-20.392 12.225z"/><path d="M741.348 671.501c-.055 7.142-9.332 11.776-15.516 8.201L21.761 285.366A41.437 41.437 0 0 1 1 249.457V24.852C1 14.692 12.008 8.35 20.798 13.446l702.972 394.44a35.325 35.325 0 0 1 17.645 30.957z" fill="#fff"/><path d="M730.615 681.942c-1.874 0-3.695-.456-5.283-1.373L21.272 286.238C8.147 278.681 0 264.59 0 249.456V24.852c0-5.133 2.655-9.728 7.104-12.29 4.448-2.563 9.755-2.555 14.195.02l702.96 394.433c11.341 6.556 18.294 18.753 18.156 31.839l-.067 232.647v.008c-.027 3.51-2.095 6.779-5.531 8.744-1.965 1.124-4.117 1.689-6.203 1.689zM14.181 12.649c-2.088 0-4.175.549-6.08 1.646-3.82 2.201-6.102 6.148-6.102 10.557v224.604c0 14.42 7.763 27.848 20.26 35.042l704.062 394.331c2.751 1.59 6.389 1.468 9.503-.313 2.808-1.606 4.499-4.228 4.523-7.016l.067-232.658c.131-12.376-6.439-23.902-17.146-30.091L20.308 14.319a12.189 12.189 0 0 0-6.127-1.669zm727.167 658.852h.01z"/><ellipse cx="200.115" cy="247.807" fill="#fff" rx="52.999" ry="91.986" transform="matrix(.8660254 -.5 .5 .8660254 -97.093 133.257)"/><path d="M229.231 332.806c-9.081 0-19.14-3.042-29.55-9.065-17.505-10.128-33.959-27.506-46.331-48.934-25.636-44.403-25.515-92.64.271-107.528s67.622 9.125 93.258 53.529 25.514 92.641-.272 107.528c-5.173 2.987-11.037 4.47-17.377 4.47zm-58.252-167.98c-5.911 0-11.44 1.347-16.357 4.186-24.831 14.336-24.625 61.347.461 104.796 12.199 21.129 28.393 38.248 45.6 48.203 17.034 9.854 32.988 11.486 44.926 4.594 24.831-14.336 24.625-61.347-.46-104.796-20.118-34.846-50.228-56.982-74.169-56.982z"/><path d="m135.142 210.831 129.931 72.905h.001c-.37-18.861-6.725-41.061-19.061-62.428-25.401-43.996-66.543-67.798-91.892-53.163-12.81 7.396-19.135 23.191-18.981 42.686" fill="#dbf301"/><path d="M265.075 284.735c-.168 0-.337-.043-.489-.128l-129.894-72.883a1 1 0 0 1-.551-.886c-.164-20.742 6.755-36.212 19.481-43.559 25.786-14.888 67.622 9.125 93.258 53.529 11.989 20.766 18.806 43.108 19.195 62.908a1.002 1.002 0 0 1-1 1.02zm-128.938-74.493 127.885 71.756c-.737-19.028-7.405-40.326-18.875-60.191-25.084-43.448-65.695-67.133-90.526-52.797-11.958 6.904-18.511 21.534-18.484 41.231z"/><ellipse cx="368.041" cy="342.202" fill="#fff" rx="52.999" ry="91.986" transform="matrix(.8660254 -.5 .5 .8660254 -121.793 229.867)"/><path d="M397.305 427.143c-24.718 0-55.543-22.46-76.029-57.941-25.636-44.403-25.514-92.64.272-107.528 25.785-14.888 67.622 9.125 93.258 53.529 25.636 44.403 25.514 92.64-.272 107.528-5.181 2.991-11.014 4.413-17.229 4.413zm-58.4-167.923c-5.911 0-11.44 1.347-16.357 4.186-24.831 14.336-24.625 61.348.46 104.796s65.695 67.134 90.525 52.797c24.831-14.336 24.625-61.348-.46-104.796-20.118-34.846-50.227-56.982-74.168-56.982z"/><path d="M429.255 352.494c-3.14-12.014-8.241-24.54-15.315-36.792-25.401-43.997-66.542-67.798-91.892-53.163-7.552 4.36-12.832 11.656-15.877 20.892z" fill="#adc4cb"/><path d="M429.255 353.494a.995.995 0 0 1-.489-.128l-123.084-69.063a1 1 0 0 1-.46-1.185c3.248-9.85 8.741-17.065 16.327-21.445 25.785-14.886 67.621 9.125 93.258 53.529 6.955 12.046 12.142 24.508 15.417 37.039a.999.999 0 0 1-.967 1.252zm-121.871-70.529 120.283 67.491c-3.249-11.586-8.152-23.098-14.594-34.254-25.085-43.449-65.695-67.133-90.525-52.797-6.948 4.012-12.047 10.591-15.164 19.56z"/><path d="M306.791 331.78c3.137 12.053 8.251 24.625 15.351 36.921 25.401 43.996 66.543 67.798 91.892 53.163 7.577-4.375 12.867-11.704 15.908-20.984z" fill="#dbf301"/><path d="M397.305 427.143c-24.718 0-55.543-22.46-76.029-57.941-6.982-12.095-12.181-24.6-15.452-37.17a1.001 1.001 0 0 1 1.457-1.124l123.15 69.1c.417.234.61.729.461 1.183-3.197 9.758-8.854 17.206-16.358 21.538-5.181 2.991-11.014 4.413-17.229 4.413zm-88.929-93.327c3.247 11.625 8.163 23.181 14.632 34.385 25.085 43.448 65.695 67.133 90.526 52.797 6.973-4.026 12.083-10.635 15.196-19.651z"/><ellipse cx="535.922" cy="436.681" fill="#fff" rx="52.999" ry="91.986" transform="matrix(.8660254 -.5 .5 .8660254 -146.54 326.465)"/><path d="M565.186 521.622c-24.718 0-55.543-22.46-76.029-57.941-12.371-21.428-19.194-44.367-19.212-64.59-.018-20.424 6.902-35.673 19.484-42.938 12.583-7.265 29.249-5.633 46.927 4.595 17.505 10.127 33.959 27.506 46.331 48.934 25.636 44.403 25.514 92.64-.272 107.528-5.181 2.991-11.013 4.413-17.229 4.413zm-58.374-167.937c-5.995 0-11.522 1.393-16.383 4.2-11.937 6.892-18.502 21.525-18.484 41.204.018 19.879 6.746 42.463 18.945 63.592 20.118 34.846 50.227 56.979 74.168 56.982 5.911 0 11.44-1.347 16.357-4.186 24.831-14.336 24.625-61.348-.46-104.796-12.199-21.129-28.393-38.248-45.6-48.203-10.097-5.842-19.815-8.794-28.542-8.794z"/><path d="m470.948 399.757 129.933 72.905c.392 19.976-5.929 36.206-18.967 43.734-25.349 14.635-66.49-9.166-91.892-53.163-12.565-21.764-18.925-44.393-19.076-63.476" fill="#87c159"/><path d="M565.185 521.675c-24.718.002-55.544-22.46-76.029-57.941-12.229-21.182-19.051-43.9-19.209-63.969a1.002 1.002 0 0 1 1.491-.88l129.933 72.905a1 1 0 0 1 .511.852c.417 21.285-6.496 37.131-19.467 44.62-5.181 2.991-11.014 4.412-17.229 4.413zm-93.208-120.194c.521 19.3 7.203 40.974 18.912 61.253 25.085 43.448 65.693 67.132 90.526 52.797 12.197-7.042 18.748-22.042 18.477-42.277l-127.914-71.772z"/><path d="m97.45 160.178-57.115.35 57.028 65.714z" fill="#adc4cb"/><path d="M97.362 227.242a.996.996 0 0 1-.755-.345l-57.028-65.714a1 1 0 0 1 .749-1.656l57.116-.351h.006a.997.997 0 0 1 1 1.001l-.088 66.065a1 1 0 0 1-1 .999zm-54.848-65.727 53.851 62.053.083-62.385-53.934.331z"/><path d="m702.702 529.795-63.89-65.019v66.1z" fill="#adc4cb"/><path d="M638.812 531.876a1 1 0 0 1-1-1v-66.1a1.001 1.001 0 0 1 1.714-.701l63.89 65.019a1 1 0 0 1-.696 1.701l-63.89 1.081h-.017zm1-64.655v62.638l60.544-1.024z"/></svg></g></svg>