<svg xmlns="http://www.w3.org/2000/svg" viewBox="0 0 3000 3000" width="3000" height="3000"><g transform="translate(1584.0 384.0) rotate(0.0 259.79999999999995 551.4) scale(0.5857802850436629 0.5864591121855652)"><svg width="887.022" height="1880.438" viewBox="0 0 887.022 1880.438"><ellipse cx="421.94" cy="1176.74" fill="#adc4cb" rx="156.322" ry="127.115"/><path d="M421.94 1304.855c-86.748 0-157.322-57.472-157.322-128.115s70.575-128.115 157.322-128.115 157.322 57.472 157.322 128.115-70.575 128.115-157.322 128.115zm0-254.229c-85.645 0-155.322 56.575-155.322 126.115s69.677 126.115 155.322 126.115 155.322-56.575 155.322-126.115-69.677-126.115-155.322-126.115z"/><path d="M705.147 1711.636c-24.025 90.372-127.89 167.802-283.219 167.802s-263.188-68.685-287.035-159.105c-16.609-62.977-38.591-172.422-12.489-287.869 37.894-167.605 155.21-333.856 155.21-333.856s-16.253 108.246 147.051 103.443c150.751-4.434 141.552-103.443 141.552-103.443s107.941 176.379 144.142 338.071c28.342 126.591 3.961 240.454-5.212 274.958z" fill="#fff"/><path d="M421.928 1880.438c-74.56 0-141.412-15.83-193.328-45.779-24.644-14.216-45.305-31.268-61.412-50.682-16.094-19.399-27.285-40.726-33.262-63.389-27.756-105.244-31.961-202.257-12.498-288.344 19.601-86.692 60.801-172.946 91.913-230.038 33.703-61.849 63.162-103.758 63.456-104.175a1 1 0 0 1 1.806.725c-.052.351-4.943 35.417 20.563 64.148 24.018 27.055 66.226 39.892 125.47 38.148 55.099-1.621 95.007-15.958 118.616-42.613 24.595-27.769 21.999-59.423 21.97-59.739a.999.999 0 0 1 1.849-.614c1.08 1.765 108.442 178.371 144.265 338.374 28.846 128.841 3.296 243.393-5.222 275.434-12.283 46.206-45.241 88.247-92.801 118.378-51.803 32.819-117.983 50.166-191.384 50.166zM276.3 1102.267c-7.355 10.744-32.769 48.714-61.216 100.921-31.046 56.975-72.157 143.039-91.704 229.497-19.392 85.77-15.193 182.463 12.48 287.394 11.96 45.35 44.375 84.372 93.739 112.848 51.614 29.774 118.12 45.511 192.329 45.511 73.021 0 138.831-17.24 190.314-49.856 47.134-29.861 79.785-71.484 91.939-117.202 8.488-31.929 33.95-146.085 5.202-274.483-33.082-147.763-127.335-309.774-142.077-334.534-.113 9.454-2.462 34.692-22.527 57.368-23.985 27.106-64.387 41.681-120.084 43.319-59.867 1.76-102.623-11.308-127.048-38.845-21.129-23.821-21.865-51.892-21.347-61.938z"/><path d="M421.924 1215.237c-83.391 0-151.234-41.02-151.234-91.44s67.843-91.433 151.234-91.433 151.226 41.017 151.226 91.433-67.84 91.44-151.226 91.44zm0-180.873c-82.288 0-149.234 40.119-149.234 89.433s66.946 89.44 149.234 89.44 149.226-40.123 149.226-89.44-66.942-89.433-149.226-89.433z"/><path d="M421.924 1033.364c-82.975 0-150.235 40.486-150.235 90.433s67.26 90.441 150.235 90.441 150.227-40.493 150.227-90.441-67.26-90.433-150.227-90.433zm0 157.88c-71.262 0-129.025-30.377-129.025-67.846s57.764-67.84 129.025-67.84 129.017 30.371 129.017 67.84-57.764 67.846-129.017 67.846z" fill="#fff"/><path d="M421.924 1215.237c-83.391 0-151.235-41.02-151.235-91.441s67.844-91.433 151.235-91.433 151.227 41.017 151.227 91.433-67.84 91.441-151.227 91.441zm0-180.874c-82.289 0-149.235 40.12-149.235 89.433s66.946 89.441 149.235 89.441 149.227-40.123 149.227-89.441-66.943-89.433-149.227-89.433zm0 157.881c-71.696 0-130.025-30.884-130.025-68.846s58.329-68.84 130.025-68.84 130.018 30.882 130.018 68.84-58.326 68.846-130.018 68.846zm0-135.686c-70.593 0-128.025 29.984-128.025 66.84s57.432 66.846 128.025 66.846 128.018-29.987 128.018-66.846-57.428-66.84-128.018-66.84zm211.624-269.813a2.003 2.003 0 0 1-1.917-1.431l-12.356-41.629a2 2 0 0 1 3.835-1.138l12.356 41.629a2 2 0 0 1-1.919 2.569zm55.514-116.554a2.001 2.001 0 0 1-.773-3.846l28.282-11.834a2 2 0 1 1 1.544 3.69l-28.282 11.834a1.986 1.986 0 0 1-.771.156z"/><path d="M439.751 1192.594a1.999 1.999 0 0 1-1.976-2.322c15.5-94.923 31.293-158.932 66.151-205.206 85.838-113.952 124.872-188.159 185.111-321.682 39.295-87.1 62.776-181.819 69.792-281.524a2 2 0 0 1 3.99.28c-7.049 100.178-30.646 195.356-70.136 282.888-60.369 133.81-99.494 208.186-185.563 322.444-34.361 45.615-49.999 109.137-65.399 203.444a2 2 0 0 1-1.971 1.678z"/><path d="M522.317 965.654a2 2 0 0 1-1.061-3.697c1.538-.959 37.964-23.484 64.962-23.484a2 2 0 0 1 0 4c-25.849 0-62.479 22.649-62.846 22.878a1.992 1.992 0 0 1-1.056.303z"/><path d="M813.002 289.311c-2.542 52.345-29.859 93.553-49.8 92.584s-42.106-44.579-39.564-96.925c2.542-52.345 28.829-93.603 48.771-92.634 19.941.969 43.135 44.629 40.593 96.975z" fill="#fff"/><path d="M763.893 382.912c-.248 0-.494-.006-.739-.018-10.233-.497-21.104-11.634-29.08-29.793-8.562-19.493-12.623-43.706-11.434-68.179 2.578-53.055 29.374-94.582 49.818-93.584 10.29.5 21.352 11.643 29.59 29.807 8.893 19.606 13.138 43.832 11.954 68.215-1.185 24.383-7.757 48.084-18.508 66.736-9.723 16.868-21.475 26.817-31.6 26.817zm7.818-189.593c-9.32 0-20.232 9.585-29.339 25.83-10.262 18.306-16.56 41.699-17.734 65.869s2.827 48.063 11.267 67.278c7.664 17.449 17.887 28.14 27.346 28.599 9.519.46 20.932-9.182 30.51-25.8 10.595-18.382 17.074-41.762 18.243-65.834 2.453-50.506-19.748-94.961-39.643-95.927-.215-.01-.433-.016-.65-.016z"/><path d="M824.311 656.442c-45.36 26.247-94.796 25.639-104.795 8.359s14.625-59.551 59.986-85.798 94.28-26.532 104.279-9.251c9.999 17.28-14.109 60.443-59.47 86.69z" fill="#fff"/><path d="M753.536 678.075c-17.326 0-30.182-4.645-34.886-12.773-10.257-17.728 14.376-60.562 60.351-87.165 45.976-26.603 95.388-26.614 105.646-8.887 5.159 8.917 1.795 24.253-9 41.025-11.651 18.103-29.705 34.806-50.834 47.032-21.13 12.227-44.608 19.555-66.109 20.636-1.762.089-3.486.132-5.167.132zm97.621-119.221c-2 0-4.065.065-6.192.198-20.946 1.304-44.016 8.696-64.961 20.816s-38.851 28.437-50.419 45.948c-10.505 15.901-13.945 30.287-9.202 38.484 9.975 17.24 59.665 16.596 103.429-8.724 43.767-25.325 69.081-68.084 59.105-85.324-4.212-7.28-15.876-11.397-31.759-11.397zm-26.845 97.587h.01z"/><path d="M548.315 667.347c-16.535-49.73-5.945-98.022 13-104.321s55.365 26.363 71.899 76.093c16.535 49.73 6.923 97.697-12.022 103.996s-56.343-26.038-72.877-75.768z" fill="#fff"/><path d="M616.094 744.896c-9.282 0-21.146-6.373-32.944-17.94-15.374-15.071-28.082-36.128-35.784-59.293s-10.133-47.64-6.844-68.916c3.047-19.711 10.702-33.42 20.478-36.67 9.722-3.233 23.882 3.227 37.877 17.279 15.024 15.084 27.556 36.197 35.286 59.448 16.759 50.405 6.78 98.798-12.655 105.26-1.678.558-3.491.832-5.414.832zm-49.699-181.652c-1.694 0-3.288.241-4.764.732-18.901 6.284-28.32 55.074-12.367 103.057 14.658 44.085 46.879 75.891 66.677 75.893 1.75 0 3.401-.248 4.937-.759 8.986-2.988 15.955-16.036 18.641-34.903 2.958-20.777.382-44.865-7.252-67.828-7.635-22.963-19.996-43.798-34.806-58.667-11.24-11.285-22.443-17.524-31.065-17.524z"/><path d="M668.532 964.053c-43.154 7.626-81.816-7.012-84.721-23.452-2.905-16.439 28.548-42.594 71.702-50.22s81.666 6.164 84.571 22.603-28.398 43.442-71.552 51.068z" fill="#dbf301"/><path d="M644.671 967.159c-33.202 0-59.359-12.323-61.844-26.384-1.502-8.499 5.589-19.487 18.969-29.393 14.328-10.608 33.343-18.416 53.544-21.986 43.829-7.745 82.736 6.476 85.73 23.414 1.51 8.545-5.549 19.688-18.884 29.81-14.359 10.899-33.352 18.861-53.479 22.417l-.174-.985.174.985a138.427 138.427 0 0 1-24.036 2.122zm35.412-77.952c-8.014 0-16.23.716-24.396 2.159-19.901 3.517-38.618 11.197-52.702 21.624-12.756 9.445-19.556 19.701-18.189 27.437 2.886 16.329 42.011 29.984 83.563 22.641 19.82-3.503 38.506-11.33 52.617-22.041 12.536-9.515 19.48-20.193 18.124-27.869-1.367-7.736-11.27-15.041-26.491-19.541-9.91-2.93-21.007-4.411-32.525-4.411zm-301.837 298.162a2 2 0 0 1-1.982-1.752c-7.095-56.699-18.427-94.501-37.889-126.4-74.504-122.115-106.183-199.955-153.2-339.018-30.757-90.968-44.951-187.995-42.187-288.384a1.976 1.976 0 0 1 2.054-1.944 2 2 0 0 1 1.944 2.054c-2.75 99.915 11.373 196.473 41.978 286.992 46.917 138.766 78.521 216.429 152.826 338.216 19.776 32.413 31.273 70.69 38.443 127.987a2 2 0 0 1-1.987 2.249z"/><path d="M232.34 847.117a2 2 0 0 1-1.852-2.754l16.361-40.224a2 2 0 0 1 3.705 1.507l-16.361 40.224a2.002 2.002 0 0 1-1.853 1.247zM188.469 725.7c-.32 0-.645-.077-.946-.24l-26.991-14.538a2 2 0 0 1 1.896-3.521l26.991 14.538a2 2 0 0 1-.95 3.761zm137.109 310.329c-.289 0-.583-.063-.861-.196l-61.335-29.308a2 2 0 1 1 1.725-3.609l61.335 29.308a2 2 0 0 1-.864 3.805z"/><path d="M102.106 334.531c-2.579 52.343 20.584 96.021 40.525 97.003 19.94.983 46.256-40.256 48.836-92.6 2.579-52.343-19.555-95.97-39.495-96.953s-47.286 40.206-49.865 92.549z" fill="#fff"/><path d="M143.322 432.551c-.248 0-.495-.006-.741-.018-10.289-.507-21.343-11.657-29.569-29.828-8.879-19.612-13.107-43.841-11.906-68.224 1.202-24.383 7.792-48.078 18.555-66.723 9.973-17.274 22.053-27.288 32.358-26.776 10.233.504 21.096 11.649 29.059 29.813 8.548 19.499 12.592 43.715 11.386 68.187-1.206 24.473-7.611 48.174-18.034 66.738-9.477 16.877-21.045 26.83-31.109 26.83zm-41.216-98.02.999.049c-2.489 50.505 19.681 94.975 39.575 95.955 9.456.467 20.676-9.176 30.007-25.793 10.275-18.299 16.59-41.687 17.78-65.857 1.191-24.17-2.793-48.065-11.219-67.286-7.652-17.454-17.867-28.153-27.326-28.619-19.867-.98-46.328 41.095-48.817 91.599l-.999-.049z"/><path d="M55.014 698.805c42.582 30.55 91.841 34.77 103.479 18.549 11.638-16.222-8.743-60.694-51.324-91.244-42.582-30.55-91.24-35.608-102.878-19.386-11.638 16.222 8.142 61.532 50.723 92.082z" fill="#dbf301"/><path d="M131.739 727.671c-4.206 0-8.737-.349-13.53-1.064-21.293-3.174-43.943-12.76-63.779-26.99-19.835-14.231-36.172-32.616-46-51.77-9.106-17.745-10.958-33.337-4.952-41.707 5.972-8.325 21.228-11.408 40.807-8.25 21.018 3.391 43.558 13.124 63.466 27.407 19.909 14.283 36.35 32.516 46.296 51.34 9.265 17.536 11.23 32.974 5.258 41.299-4.546 6.337-14.458 9.735-27.565 9.735zm-76.143-29.679c19.582 14.049 41.923 23.509 62.908 26.637 18.971 2.828 33.616-.11 39.175-7.859 5.521-7.695 3.501-22.349-5.401-39.199-9.804-18.556-26.031-36.544-45.693-50.65s-41.9-23.716-62.619-27.058c-18.813-3.035-33.342-.253-38.863 7.442-5.56 7.749-3.65 22.563 5.106 39.628 9.687 18.876 25.805 37.009 45.387 51.058z"/><path d="M328.627 736.6c21.31-47.879 15.485-96.974-2.755-105.092s-57.674 20.833-78.984 68.711c-21.31 47.879-16.427 96.555 1.813 104.673s58.615-20.414 79.925-68.292z" fill="#fff"/><path d="M255.727 807.263c-2.736 0-5.233-.479-7.432-1.458-9.36-4.166-15.465-18.482-16.33-38.296-.929-21.27 4.047-45.312 14.01-67.697s24.496-42.173 40.92-55.719c15.3-12.618 30.023-17.665 39.383-13.499 9.412 4.189 15.692 18.579 16.8 38.494 1.196 21.495-3.612 45.615-13.539 67.918s-24.63 42.019-41.401 55.517c-11.908 9.584-23.439 14.74-32.413 14.74zm63.192-176.124c-8.379 0-19.336 5.083-30.751 14.497-16.19 13.353-30.526 32.882-40.366 54.99s-14.755 45.83-13.839 66.796c.832 19.039 6.493 32.705 15.146 36.556 8.711 3.878 22.835-.987 37.777-13.013 16.528-13.303 31.028-32.755 40.828-54.772l.914.407-.914-.407c9.8-22.018 14.548-45.81 13.369-66.994-1.065-19.151-6.903-32.9-15.617-36.778-1.934-.861-4.133-1.282-6.546-1.282z"/><path d="M173.61 1037.237c45.858 8.952 87.878-8.608 91.703-28.203s-28.703-50.657-74.561-59.609-87.68 7.596-91.505 27.191 28.506 51.668 74.364 60.62z" fill="#fff"/><path d="M198.528 1040.657c-8.312 0-16.761-.808-25.11-2.438-21.395-4.176-41.381-13.604-56.277-26.546-13.79-11.98-20.846-25.157-18.876-35.248 3.924-20.102 46.141-37.066 92.678-27.981 21.473 4.192 41.491 13.437 56.366 26.032 13.847 11.724 20.944 24.715 18.985 34.75-1.97 10.091-13.464 19.646-30.747 25.561-11.384 3.896-24.032 5.87-37.019 5.87zm-33.603-92.746c-12.46 0-24.534 1.798-35.377 5.356-16.542 5.427-27.502 14.227-29.321 23.542-1.831 9.38 4.982 21.849 18.225 33.355 14.636 12.716 34.293 21.982 55.349 26.093 21.057 4.11 42.755 2.917 61.099-3.361 16.598-5.68 27.6-14.671 29.431-24.052 1.818-9.315-5.028-21.592-18.314-32.841-14.62-12.378-34.314-21.468-55.457-25.595a134.217 134.217 0 0 0-25.634-2.496zM411.014 1191.3a2 2 0 0 1-1.96-1.614c-13.127-66.559-22.365-136.26-26.012-196.266-4.15-68.272-.975-121.862 9.182-154.976 41.834-136.392 53.225-219.462 64.321-365.525 7.238-95.28-2.987-192.328-30.393-288.449a2 2 0 0 1 3.847-1.097c27.535 96.577 37.808 194.096 30.534 289.849-11.12 146.376-22.538 229.636-64.485 366.395-10.018 32.66-13.134 85.76-9.013 153.56 3.637 59.833 12.851 129.346 25.944 195.735a2 2 0 0 1-1.965 2.387z"/><path d="M445.767 607.929a1.998 1.998 0 0 1-1.61-.811l-25.811-34.921a2 2 0 1 1 3.216-2.377l25.811 34.921a2 2 0 0 1-1.607 3.189zm12.439-128.498a2 2 0 0 1-1.356-3.471l22.551-20.769a2 2 0 0 1 2.71 2.942l-22.551 20.769c-.384.354-.87.529-1.354.529zm-55.997 334.614a2 2 0 0 1-1.284-3.535l52.169-43.583a2 2 0 0 1 2.565 3.07L403.49 813.58a1.99 1.99 0 0 1-1.281.465z"/><path d="M445.518 78.996c15.46 50.075 3.833 98.127-15.243 104.017-19.076 5.889-54.784-27.549-70.244-77.624S355.214 7.566 374.29 1.676c19.076-5.889 55.769 27.245 71.229 77.32z" fill="#fff"/><path d="M425.705 184.67c-20.234.003-52.181-32.188-66.629-78.986C343.407 54.93 354.425 6.763 373.995.72c9.843-3.039 24.042 3.664 37.981 17.93 15.045 15.398 27.297 36.725 34.499 60.05 7.202 23.326 9.104 47.847 5.358 69.047-3.471 19.641-11.419 33.181-21.263 36.22-1.525.471-3.154.701-4.865.701zM379.072 1.988c-1.587 0-3.088.212-4.488.644-9.049 2.794-16.296 15.689-19.388 34.494-3.405 20.708-1.348 44.847 5.791 67.969s19.048 44.219 33.534 59.403c13.154 13.789 26.41 20.353 35.459 17.56 9.113-2.813 16.545-15.769 19.883-34.657 3.692-20.893 1.81-45.081-5.3-68.109-7.109-23.028-19.191-44.067-34.018-59.243-11.346-11.612-22.721-18.061-31.473-18.061z"/><path d="M581.343 420.265c-33.691 40.142-80.371 56.429-95.663 43.594s-6.558-60.969 27.133-101.111 79.582-57.091 94.874-44.256 7.348 61.632-26.343 101.774z" fill="#fff"/><path d="M500.277 469.16c-6.387 0-11.63-1.505-15.241-4.535-15.688-13.167-7.138-61.834 27.01-102.52 15.752-18.768 35.18-33.779 54.704-42.269 18.188-7.908 33.731-8.697 41.579-2.111 7.891 6.623 9.958 22.187 5.529 41.635-4.78 20.991-16.056 42.849-31.75 61.548s-35.266 33.594-55.11 41.942c-9.972 4.195-19.151 6.31-26.722 6.31zm93.256-153.904c-7.247 0-16.189 2.155-25.985 6.414-19.246 8.368-38.413 23.185-53.969 41.72-15.557 18.536-26.825 39.981-31.729 60.387-4.453 18.53-2.781 33.228 4.473 39.316 15.257 12.805 61.748-4.74 94.254-43.471l.766.643-.766-.643c15.494-18.46 26.621-40.02 31.332-60.706 4.259-18.702 2.44-33.528-4.865-39.659-3.188-2.676-7.828-4.001-13.51-4.001z"/><path d="M325.608 524.633c-32.502-41.111-39.015-90.12-23.353-102.501 15.661-12.382 61.036 5.903 93.538 47.014s39.823 89.48 24.162 101.862-61.844-5.264-94.346-46.375z" fill="#dbf301"/><path d="M406.36 575.897c-7.788 0-17.327-2.391-27.678-7.106-19.591-8.925-38.718-24.387-53.858-43.537s-25.771-41.329-29.934-62.451c-3.857-19.569-1.335-35.066 6.746-41.455 16.067-12.703 62 5.51 94.943 47.179 32.942 41.669 40.064 90.564 23.997 103.267-3.473 2.746-8.347 4.104-14.215 4.104zm-79.967-51.884c31.36 39.667 77.317 58.564 92.942 46.211 7.429-5.873 9.53-20.516 5.622-39.168-4.305-20.54-14.94-42.307-29.948-61.289-15.007-18.983-33.732-34.354-52.725-43.282-17.248-8.108-31.979-9.441-39.408-3.568-15.625 12.353-7.842 61.43 23.518 101.097z"/><path d="M479.501 683.26c30.809-28.374 72.914-32.777 86.439-18.092s4.98 55.528-25.829 83.903c-30.809 28.374-72.216 33.536-85.741 18.85-13.525-14.685-5.679-56.287 25.13-84.661z" fill="#dbf301"/><path d="M477.967 776.906c-10.648 0-19.33-2.877-24.331-8.307-6.952-7.548-8.556-21.801-4.292-38.127 4.612-17.658 15.082-34.686 29.481-47.947s32.229-22.297 50.206-25.443c16.621-2.909 30.694-.139 37.646 7.409 6.914 7.507 8.386 21.623 3.939 37.761-4.782 17.357-15.375 34.246-29.826 47.555s-32.152 22.479-49.844 25.82c-4.549.859-8.908 1.28-12.979 1.28zm1.535-93.646.677.736c-14.12 13.005-24.384 29.69-28.9 46.981-4.091 15.664-2.66 29.222 3.828 36.267 6.443 6.996 19.704 9.394 35.468 6.417 17.329-3.272 34.681-12.266 48.86-25.326 14.179-13.059 24.568-29.614 29.253-46.615 4.262-15.468 2.96-28.879-3.482-35.875-6.489-7.045-19.884-9.585-35.83-6.794-17.604 3.081-35.076 11.939-49.196 24.944l-.677-.736z"/></svg></g><g transform="translate(1582.8 380.4) rotate(0.0 261.6 554.4000000000001) scale(1.1921770218816437 1.1932190549162716)"><svg width="438.861" height="929.251" viewBox="0 0 438.861 929.251"><g><ellipse cx="208.782" cy="581.378" rx="77.165" ry="62.748" style="fill:#adc4cb"/><path d="M208.783 645.126c-43.101 0-78.166-28.598-78.166-63.748s35.065-63.748 78.166-63.748 78.165 28.598 78.165 63.748-35.064 63.748-78.165 63.748Zm0-125.496c-41.998 0-76.166 27.7-76.166 61.748s34.167 61.748 76.166 61.748 76.165-27.7 76.165-61.748-34.168-61.748-76.165-61.748Z"/><path d="M348.582 845.419c-11.859 44.61-63.13 82.832-139.805 82.832S78.859 894.346 67.088 849.712c-8.199-31.087-19.05-85.113-6.165-142.101 18.706-82.735 76.616-164.801 76.616-164.801s-8.023 53.433 72.589 51.063c74.415-2.189 69.874-51.063 69.874-51.063s53.283 87.066 71.153 166.882c13.99 62.489 1.955 118.695-2.573 135.728Z" style="fill:#fff"/><path d="M208.776 929.251c-36.891 0-69.978-7.838-95.683-22.666-24.722-14.261-40.965-33.839-46.973-56.618-13.723-52.031-15.8-100.001-6.174-142.576 18.535-81.98 76.194-164.335 76.775-165.157a1 1 0 0 1 1.806.723c-.025.171-2.396 17.271 10.04 31.268 11.754 13.229 32.462 19.508 61.531 18.647 27.041-.795 46.613-7.809 58.174-20.848 11.999-13.533 10.749-28.969 10.734-29.123a1 1 0 0 1 1.849-.614c.534.873 53.574 88.123 71.275 167.187 14.264 63.709 1.63 120.358-2.581 136.203-6.097 22.932-22.443 43.79-46.028 58.731-25.652 16.252-58.415 24.843-94.744 24.843Zm-72.474-382.865c-10.466 15.52-57.95 88.663-74.405 161.446-9.555 42.258-7.483 89.908 6.156 141.625 5.869 22.252 21.789 41.407 46.039 55.396 25.402 14.653 58.143 22.398 94.684 22.398 35.95 0 68.341-8.483 93.673-24.532 23.159-14.672 39.198-35.112 45.165-57.557 4.184-15.732 16.729-71.979 2.564-135.251-15.742-70.312-59.588-147.193-69.169-163.459-.308 5.616-2.164 16.64-11.212 26.865-11.937 13.489-32.003 20.741-59.642 21.555-29.713.876-50.947-5.636-63.108-19.346-9.598-10.821-10.816-23.106-10.746-29.141Z"/><path d="M208.774 600.887c-41.443 0-75.16-20.476-75.16-45.644s33.716-45.641 75.16-45.641 75.157 20.475 75.157 45.641-33.715 45.644-75.157 45.644Zm0-89.284c-40.34 0-73.16 19.577-73.16 43.641s32.819 43.644 73.16 43.644 73.157-19.578 73.157-43.644-32.818-43.641-73.157-43.641Z"/><path d="M208.775 510.603c-40.959 0-74.161 19.985-74.161 44.64s33.202 44.644 74.161 44.644 74.157-19.989 74.157-44.644-33.202-44.64-74.157-44.64Zm0 77.934c-35.177 0-63.691-14.995-63.691-33.491s28.514-33.488 63.691-33.488 63.687 14.992 63.687 33.488-28.514 33.491-63.687 33.491Z" style="fill:#fff"/><path d="M208.774 600.888c-41.443 0-75.16-20.476-75.16-45.645s33.717-45.641 75.16-45.641 75.157 20.475 75.157 45.641-33.715 45.645-75.157 45.645Zm0-89.285c-40.341 0-73.16 19.577-73.16 43.641s32.819 43.645 73.16 43.645 73.157-19.579 73.157-43.645-32.818-43.641-73.157-43.641Zm0 77.935c-35.67 0-64.69-15.473-64.69-34.491s29.02-34.488 64.69-34.488 64.687 15.472 64.687 34.488-29.019 34.491-64.687 34.491Zm0-66.979c-34.567 0-62.69 14.574-62.69 32.488s28.123 32.491 62.69 32.491 62.687-14.575 62.687-32.491-28.121-32.488-62.687-32.488Zm104.464-132.681a2 2 0 0 1-1.916-1.432l-6.099-20.549a2 2 0 1 1 3.834-1.137l6.099 20.549a2 2 0 0 1-1.918 2.569Zm27.404-57.535a2.001 2.001 0 0 1-.773-3.846l13.961-5.841a2 2 0 1 1 1.543 3.69l-13.961 5.841a2.003 2.003 0 0 1-.771.155Z"/><path d="M217.576 590.216a1.999 1.999 0 0 1-1.976-2.322c3.214-19.688 6.938-40.411 12.371-58.59 5.397-18.062 11.903-31.774 20.474-43.152 42.315-56.174 61.561-92.762 91.263-158.599 19.349-42.888 30.91-89.528 34.364-138.624a1.99 1.99 0 0 1 2.136-1.855 2 2 0 0 1 1.854 2.135c-3.487 49.569-15.165 96.667-34.708 139.988-29.832 66.124-49.168 102.88-91.714 159.36-16.837 22.352-24.517 53.585-32.092 99.98a2 2 0 0 1-1.971 1.678Z"/><path d="M258.332 478.192a2 2 0 0 1-1.06-3.697c.77-.479 18.989-11.746 32.604-11.746a2 2 0 0 1 0 4c-12.465 0-30.308 11.029-30.487 11.141a1.99 1.99 0 0 1-1.056.303Z"/><path d="M401.823 143.316c-1.255 25.839-14.739 46.181-24.583 45.702s-20.785-22.006-19.53-47.845c1.255-25.839 14.231-46.205 24.075-45.727 9.843.478 21.293 22.03 20.038 47.87Z" style="fill:#fff"/><path d="M377.577 190.027c-.129 0-.258-.003-.386-.009-5.247-.255-10.777-5.866-14.794-15.009-4.257-9.692-6.276-21.726-5.687-33.884.591-12.158 3.767-23.938 8.943-33.173 4.884-8.711 10.927-13.759 16.18-13.505 10.558.513 22.273 22.448 20.988 48.917-.589 12.115-3.857 23.896-9.203 33.171-4.892 8.487-10.857 13.491-16.042 13.491Zm3.854-93.589c-9.328 0-21.537 20.392-22.722 44.784-.576 11.855 1.385 23.568 5.52 32.982 3.649 8.308 8.653 13.602 13.061 13.815 4.442.238 10.035-4.568 14.597-12.482 5.191-9.005 8.365-20.465 8.938-32.269l.999.048-.999-.048c1.29-26.561-10.506-46.406-19.088-46.823a6.217 6.217 0 0 0-.306-.008Z"/><path d="M407.405 324.543c-22.391 12.956-46.794 12.656-51.73 4.126-4.936-8.53 7.219-29.396 29.611-42.352 22.392-12.956 46.539-13.097 51.475-4.567s-6.965 29.836-29.356 42.793Z" style="fill:#fff"/><path d="M372.486 335.728c-8.747 0-15.262-2.386-17.676-6.558-2.632-4.547-.917-12.236 4.588-20.568 5.835-8.833 14.852-17.055 25.387-23.151 10.536-6.096 22.157-9.815 32.723-10.473 9.964-.62 17.488 1.725 20.119 6.271 5.294 9.149-6.783 30.887-29.721 44.16l-.501-.866.501.866c-10.498 6.075-22.169 9.716-32.861 10.253a51.98 51.98 0 0 1-2.559.065Zm48.078-58.847c-.949 0-1.928.031-2.933.093-10.263.639-21.572 4.264-31.845 10.208-10.272 5.944-19.052 13.942-24.72 22.522-5.002 7.57-6.736 14.646-4.526 18.464 2.228 3.849 9.283 5.957 18.403 5.497 10.382-.522 21.731-4.068 31.96-9.987 23.017-13.318 33.295-33.99 28.992-41.426-1.965-3.396-7.716-5.37-15.332-5.37Z"/><path d="M271.165 329.926c-8.162-24.548-2.935-48.387 6.417-51.496 9.352-3.109 27.33 13.014 35.492 37.562 8.162 24.548 3.417 48.226-5.934 51.336-9.352 3.109-27.813-12.853-35.974-37.401Z" style="fill:#fff"/><path d="M304.641 368.709c-4.728 0-10.716-3.194-16.636-8.997-7.645-7.495-13.963-17.961-17.79-29.471-3.827-11.51-5.033-23.676-3.398-34.256 1.534-9.921 5.44-16.839 10.45-18.504 4.982-1.658 12.168 1.577 19.216 8.652 7.471 7.5 13.699 17.993 17.54 29.543 3.84 11.55 5.133 23.683 3.642 34.164-1.408 9.887-5.225 16.779-10.21 18.436a8.86 8.86 0 0 1-2.813.433Zm-24.601-89.656c-.767 0-1.484.107-2.143.326-4.22 1.403-7.708 7.884-9.104 16.913-1.588 10.272-.408 22.105 3.32 33.319 3.729 11.214 9.869 21.397 17.292 28.674 6.523 6.395 13.195 9.498 17.418 8.094 8.896-2.958 13.09-26.645 5.301-50.071-3.744-11.262-9.803-21.477-17.059-28.762-5.396-5.418-10.917-8.492-15.025-8.492Z"/><path d="M330.508 476.389c-21.302 3.764-40.387-3.461-41.821-11.577-1.434-8.115 14.092-21.026 35.394-24.79 21.302-3.764 40.313 3.043 41.747 11.158 1.434 8.115-14.018 21.444-35.32 25.209Z" style="fill:#dbf301"/><path d="M318.807 478.422c-5.981 0-11.771-.811-16.955-2.411-8.081-2.494-13.371-6.616-14.149-11.024-.776-4.388 2.798-9.997 9.561-15.004 7.134-5.282 16.597-9.169 26.645-10.945 10.045-1.773 20.268-1.367 28.781 1.15 8.068 2.386 13.348 6.43 14.123 10.818.779 4.408-2.777 10.093-9.514 15.206-7.15 5.428-16.604 9.392-26.617 11.161a68.352 68.352 0 0 1-11.874 1.049Zm17.403-38.473a68.87 68.87 0 0 0-11.955 1.059c-9.748 1.723-18.912 5.481-25.803 10.583-6.048 4.478-9.412 9.478-8.781 13.049.637 3.601 5.529 7.227 12.771 9.462 8.28 2.556 18.187 3.019 27.892 1.305 9.706-1.716 18.854-5.547 25.756-10.786 6.036-4.582 9.39-9.664 8.754-13.265-.631-3.571-5.506-7.115-12.722-9.249-4.846-1.433-10.274-2.157-15.911-2.157Zm-5.703 36.441h.01-.01ZM187.213 587.636a2 2 0 0 1-1.982-1.752c-3.484-27.837-9.036-46.377-18.563-61.992-36.829-60.363-52.485-98.832-75.719-167.553-15.221-45.019-22.245-93.033-20.877-142.708a2 2 0 0 1 1.998-1.945h.056a2 2 0 0 1 1.944 2.054c-1.354 49.201 5.6 96.746 20.668 141.316 23.134 68.424 38.716 106.715 75.345 166.75 9.841 16.13 15.558 35.145 19.117 63.58a1.999 1.999 0 0 1-1.987 2.248Z"/><path d="M115.19 419.679a2 2 0 0 1-1.852-2.754l8.076-19.856a2 2 0 1 1 3.705 1.507l-8.076 19.856a2.002 2.002 0 0 1-1.853 1.247Zm-21.657-59.935c-.32 0-.645-.077-.946-.24l-13.324-7.176a2 2 0 1 1 1.897-3.521l13.324 7.176a2 2 0 0 1-.951 3.761Zm67.681 153.187a1.99 1.99 0 0 1-.861-.195l-30.277-14.468a2 2 0 0 1 1.725-3.609l30.277 14.468a2 2 0 0 1-.864 3.805Z"/><path d="M50.903 165.638c-1.273 25.838 10.161 47.399 20.004 47.884 9.843.485 22.833-19.872 24.107-45.71 1.273-25.838-9.653-47.374-19.496-47.859S52.176 139.8 50.903 165.638Z" style="fill:#fff"/><path d="M71.245 214.53c-.13 0-.258-.003-.387-.009-5.272-.26-10.892-5.875-15.033-15.021-4.415-9.753-6.518-21.796-5.921-33.911.597-12.115 3.874-23.893 9.227-33.165 5.02-8.695 11.18-13.723 16.437-13.47 5.247.259 10.773 5.874 14.783 15.02 4.25 9.696 6.261 21.73 5.663 33.888-.6 12.157-3.784 23.937-8.967 33.167-4.77 8.494-10.646 13.502-15.801 13.502Zm-20.342-48.893.999.05c-.582 11.804 1.459 23.519 5.746 32.988 3.768 8.323 8.868 13.629 13.309 13.848 4.392.231 9.903-4.562 14.346-12.474 5.034-8.966 8.129-20.432 8.713-32.287.584-11.854-1.368-23.568-5.496-32.986-3.644-8.31-8.644-13.608-13.05-13.825-4.458-.222-10.038 4.56-14.605 12.472-5.197 9.002-8.38 20.46-8.961 32.263l-.999-.049Z"/><path d="M27.657 345.455c21.02 15.08 45.336 17.164 51.08 9.156 5.745-8.008-4.316-29.96-25.335-45.041-21.02-15.08-45.039-17.577-50.784-9.57-5.745 8.008 4.019 30.374 25.038 45.454Z" style="fill:#dbf301"/><path d="M65.446 360.22c-10.618 0-25.11-4.438-38.372-13.953-21.532-15.448-31.43-38.261-25.268-46.85 3.062-4.269 10.776-5.87 20.636-4.277 10.451 1.686 21.653 6.522 31.543 13.617 9.89 7.096 18.06 16.158 23.005 25.518 4.665 8.83 5.622 16.649 2.56 20.918-2.367 3.299-7.482 5.026-14.104 5.026ZM28.24 344.642c21.605 15.501 44.676 16.367 49.685 9.386 2.572-3.584 1.536-10.795-2.703-18.818-4.804-9.092-12.76-17.909-22.403-24.828-9.643-6.918-20.544-11.63-30.696-13.268-8.959-1.445-16.122-.116-18.692 3.469-5.008 6.98 3.206 28.558 24.809 44.059Z"/><path d="M162.72 364.111c10.519-23.635 7.644-47.869-1.36-51.877s-28.47 10.284-38.989 33.918c-10.519 23.635-8.109 47.662.895 51.67s28.934-10.077 39.453-33.711Z" style="fill:#fff"/><path d="M126.721 399.495c-1.416 0-2.713-.248-3.861-.759-4.8-2.136-7.925-9.368-8.361-19.345-.461-10.576 2.01-22.525 6.959-33.646 4.949-11.12 12.173-20.954 20.34-27.689 7.704-6.354 15.167-8.873 19.969-6.736 4.823 2.146 8.035 9.413 8.593 19.436.595 10.689-1.794 22.68-6.726 33.761-9.496 21.333-26.418 34.977-36.913 34.977Zm31.167-86.949c-9.453 0-25.631 13.857-34.602 34.013-4.826 10.843-7.237 22.472-6.788 32.745.396 9.065 3.146 15.811 7.176 17.604 7.845 3.491 27.32-8.91 38.133-33.204 4.806-10.797 7.134-22.458 6.557-32.836-.508-9.122-3.347-15.912-7.41-17.72-.911-.405-1.941-.602-3.066-.602Z"/><path d="M86.199 512.515c22.637 4.419 43.379-4.249 45.267-13.922 1.888-9.673-14.169-25.006-36.806-29.425-22.637-4.419-43.282 3.75-45.17 13.422s14.071 25.505 36.708 29.924Z" style="fill:#fff"/><path d="M98.539 514.714c-4.036 0-8.247-.381-12.531-1.217-23.248-4.539-39.522-20.724-37.498-31.098 1.002-5.137 6.787-9.904 15.474-12.754 9.224-3.025 20.187-3.543 30.869-1.458 10.683 2.085 20.646 6.688 28.054 12.961 6.978 5.907 10.544 12.5 9.542 17.637-1.652 8.463-16.043 15.929-33.91 15.929Zm-16.628-45.787c-6.097 0-12.001.88-17.304 2.619-7.988 2.62-13.272 6.821-14.134 11.236-1.646 8.433 12.712 24.221 35.918 28.751 23.21 4.531 42.448-4.698 44.095-13.131.862-4.416-2.454-10.295-8.871-15.728-7.152-6.056-16.792-10.503-27.145-12.524a65.788 65.788 0 0 0-12.559-1.224Zm121.477 120.651a2 2 0 0 1-1.96-1.613c-11.124-56.4-19.968-135.78-8.283-173.876 20.623-67.236 26.238-108.193 31.709-180.214 3.563-46.914-1.472-94.701-14.966-142.033a2 2 0 1 1 3.847-1.097c13.625 47.788 18.708 96.046 15.108 143.433-5.495 72.334-11.138 113.481-31.873 181.084-7.733 25.213-8.14 88.153 8.383 171.93a2.001 2.001 0 0 1-1.964 2.387Z"/><path d="M220.545 301.608a1.998 1.998 0 0 1-1.61-.811l-12.741-17.238a2 2 0 1 1 3.216-2.378l12.741 17.238a2 2 0 0 1-1.607 3.189Zm6.14-63.43a2 2 0 0 1-1.356-3.471l11.132-10.252a1.998 1.998 0 1 1 2.709 2.942l-11.132 10.252c-.384.354-.87.529-1.354.529Zm-27.642 165.175a2 2 0 0 1-1.284-3.535l25.752-21.513a2 2 0 1 1 2.564 3.069l-25.752 21.513a1.99 1.99 0 0 1-1.281.465Z"/><path d="M220.421 39.498c7.632 24.719 1.892 48.438-7.524 51.346-9.416 2.907-27.043-13.599-34.675-38.318s-2.378-48.288 7.039-51.196c9.416-2.907 27.529 13.449 35.161 38.167Z" style="fill:#fff"/><path d="M210.635 92.169c-4.73 0-10.676-3.362-16.468-9.434-7.308-7.66-13.31-18.283-16.9-29.914-3.59-11.63-4.622-23.789-2.905-34.234 1.62-9.854 5.584-16.662 10.604-18.212 10.103-3.119 28.593 13.507 36.411 38.828 7.818 25.321 1.915 49.478-8.185 52.596a8.62 8.62 0 0 1-2.557.369Zm-23.061-90.17c-.718 0-1.393.094-2.018.287-8.958 2.766-13.661 26.356-6.378 49.945 3.501 11.34 9.338 21.683 16.436 29.123 6.263 6.565 12.77 9.833 16.988 8.534 8.209-2.535 14.709-24.687 6.864-50.095-3.486-11.292-9.406-21.605-16.67-29.04-5.446-5.574-11.054-8.754-15.222-8.754Z"/><path d="M287.469 207.959c-16.631 19.815-39.674 27.855-47.222 21.519-7.549-6.336-3.237-30.096 13.394-49.911s39.284-28.182 46.833-21.846c7.549 6.336 3.627 30.423-13.004 50.239Z" style="fill:#fff"/><path d="M247.457 232.593c-3.281 0-5.983-.78-7.854-2.349-4.024-3.378-5.034-11.191-2.7-20.901 2.474-10.293 8.146-21.096 15.971-30.42 7.824-9.323 17.48-16.782 27.189-21.003 9.158-3.982 17.028-4.342 21.052-.966 8.097 6.796 4.156 31.35-12.881 51.648l-.766-.643.765.643c-7.798 9.291-17.526 16.694-27.395 20.845-4.974 2.093-9.568 3.146-13.382 3.146Zm46.047-75.982c-9.956 0-26.557 8.655-39.099 23.598-7.63 9.091-13.154 19.604-15.558 29.601-2.12 8.823-1.338 16.065 2.041 18.901 3.407 2.859 10.752 2.434 19.175-1.108 9.581-4.031 19.041-11.236 26.639-20.288 17.096-20.367 19.709-43.305 13.128-48.829-1.507-1.265-3.683-1.875-6.326-1.875Z"/><path d="M161.23 259.478c-16.044-20.294-19.259-44.486-11.528-50.598 7.731-6.112 30.129 2.914 46.173 23.208 16.044 20.294 19.658 44.17 11.927 50.282s-30.528-2.598-46.572-22.892Z" style="fill:#dbf301"/><path d="M201.075 285.285c-10.776 0-27.783-8.938-40.629-25.187-7.522-9.515-12.806-20.54-14.876-31.044-1.941-9.85-.628-17.685 3.513-20.958 4.122-3.259 11.976-2.667 21.015 1.581 9.581 4.503 19.014 12.242 26.563 21.791 7.549 9.548 12.902 20.513 15.073 30.874 2.048 9.774.811 17.554-3.311 20.813-1.811 1.431-4.337 2.13-7.348 2.13Zm-39.061-26.427c16.493 20.861 38.43 28.057 45.168 22.728 7.354-5.815 3.219-29.511-12.092-48.877-7.36-9.311-16.539-16.847-25.845-21.221-8.211-3.86-15.462-4.558-18.924-1.822-3.488 2.757-4.558 10.039-2.791 19.002 2.01 10.197 7.154 20.92 14.483 30.19Z"/><path d="M237.196 337.781c15.208-14.006 35.993-16.18 42.669-8.931 6.676 7.249 2.458 27.41-12.75 41.417-15.208 14.006-35.648 16.554-42.324 9.305-6.676-7.249-2.803-27.785 12.405-41.791Z" style="fill:#dbf301"/><path d="M236.453 384.512c-5.407 0-9.832-1.477-12.397-4.262-7.161-7.775-3.198-28.781 12.463-43.204 15.661-14.422 36.923-16.647 44.082-8.873 3.532 3.835 4.302 10.981 2.061 19.117-2.386 8.658-7.666 17.08-14.868 23.712-7.203 6.633-16.029 11.204-24.854 12.871-2.27.429-4.448.639-6.486.639Zm31.185-58.692c-8.616 0-20.038 3.741-29.763 12.697-15.548 14.319-18.169 34.059-12.349 40.379 3.062 3.324 9.434 4.45 17.042 3.013 8.462-1.598 16.939-5.994 23.87-12.376 6.931-6.383 12.008-14.471 14.295-22.773 2.058-7.466 1.458-13.908-1.603-17.231-2.18-2.367-6.334-3.708-11.493-3.708Z"/></g></svg></g><g transform="translate(126.0 458.4) rotate(0.0 858.5999999999999 879.5999999999999) scale(1.8030201532546128 1.8057504406084448)"><svg width="952.402" height="974.221" viewBox="0 0 952.402 974.221"><path d="m900.15 660.351 44.516-26.38 6.736-261.564c.039-23.124-5.764-45.486-17.167-64.684l-51.543 23.884a124.908 124.908 0 0 1 20.211 68.348z"/><path d="M900.15 661.351a1 1 0 0 1-1-1.011l2.752-260.397c.041-24.116-6.892-47.561-20.049-67.791a1.002 1.002 0 0 1 .418-1.453l51.542-23.884a.999.999 0 0 1 1.28.396c11.362 19.128 17.347 41.673 17.308 65.196l-6.736 261.588a1 1 0 0 1-.49.835l-44.516 26.38a.99.99 0 0 1-.509.141zm-15.996-329.32a125.652 125.652 0 0 1 19.748 67.924l-2.734 258.63 42.512-25.192 6.722-261.012c.038-22.82-5.689-44.718-16.57-63.369z"/><path d="M882.206 331.878a124.874 124.874 0 0 0-43.317-40.683l-249.894-141.11c-11.1-6.266-23.77-5.512-33.629.123 5.156-3.078 38.956-23.214 49.363-28.569 9.948-5.115 22.227-5.691 32.806.281L886.12 263.826c20.819 10.463 36.765 25.879 47.629 44.169z" fill="#fff"/><path d="M882.207 332.878a1 1 0 0 1-.839-.455c-10.822-16.641-25.681-30.596-42.97-40.358l-249.894-141.11c-10.217-5.767-22.419-5.723-32.641.121a1 1 0 0 1-1.009-1.727c3.935-2.35 38.755-23.113 49.418-28.6 10.887-5.599 23.506-5.486 33.755.3l248.589 141.907c20.077 10.089 36.688 25.495 47.993 44.527a.998.998 0 0 1-.44 1.418l-51.542 23.883a.98.98 0 0 1-.42.094zM572.305 144.659c5.903 0 11.802 1.518 17.182 4.555l249.894 141.11c17.316 9.777 32.234 23.694 43.188 40.283l49.749-23.052c-11.094-18.267-27.202-33.063-46.647-42.836L637.04 122.789c-9.656-5.451-21.566-5.549-31.853-.261-7.575 3.897-27.47 15.584-39.659 22.803a34.548 34.548 0 0 1 6.777-.672z"/><path d="M544.629 447.28 900.15 660.351l2.75-260.394c.076-45.151-24.208-86.833-63.525-109.034L589.478 149.816c-22.559-12.738-51.604 3.527-50.402 30.884z" fill="#fff"/><path d="M900.15 661.351a.997.997 0 0 1-.514-.143l-355.521-213.07a1 1 0 0 1-.486-.837l-5.552-266.58c-.564-12.837 5.542-24.468 16.334-31.09 10.871-6.67 24.496-6.933 35.559-.686l249.897 141.106c39.574 22.346 64.11 64.459 64.033 109.906l-2.75 260.404a1 1 0 0 1-1 .99zM545.617 446.706l353.551 211.891 2.732-258.651c.075-44.716-24.071-86.161-63.017-108.152L588.987 150.687c-10.43-5.889-23.279-5.641-33.53.649-10.164 6.236-15.914 17.197-15.381 29.32z"/><path d="m77.919 590.458 69.427 40.062L567.774 262.3l40.417-235.882-36.033-22.236a21.355 21.355 0 0 0-21.689-.436L97.766 258.575a38.762 38.762 0 0 0-19.426 33.539z" fill="#fff"/><path d="M147.346 631.52a1 1 0 0 1-.5-.134l-69.427-40.062a.999.999 0 0 1-.5-.867l.422-298.345c.02-14.159 7.656-27.342 19.927-34.404L549.978 2.874a22.366 22.366 0 0 1 22.705.457l36.034 22.237a1 1 0 0 1 .46 1.02L568.76 262.469a.999.999 0 0 1-.327.583l-420.428 368.22a.998.998 0 0 1-.659.248zm-68.427-41.639 68.306 39.415 419.623-367.515 40.244-234.866-35.46-21.882a20.355 20.355 0 0 0-20.674-.416L98.257 259.447c-11.646 6.702-18.897 19.222-18.916 32.668z"/><path d="m124.671 617.367 494.04-303.15-5.247-279.121c-.032-7.811-8.487-12.677-15.257-8.781l-453.691 261.11a38.762 38.762 0 0 0-19.426 33.539z" fill="#ADC4CB"/><path d="M124.671 618.367a1 1 0 0 1-1-1.001l.419-296.405c.02-14.158 7.656-27.341 19.927-34.404L597.708 25.449c3.492-2.01 7.661-2.01 11.153 0 3.492 2.009 5.586 5.614 5.603 9.644l5.247 279.106a1 1 0 0 1-.477.871l-494.04 303.15a1 1 0 0 1-.523.147zM603.285 25.944a9.162 9.162 0 0 0-4.579 1.238L145.015 288.291c-11.654 6.708-18.906 19.227-18.925 32.673l-.417 294.615L617.7 313.663l-5.236-278.549c-.014-3.323-1.734-6.283-4.601-7.933a9.167 9.167 0 0 0-4.578-1.237z"/><path d="M629.983 307.723 134.636 593.106l-10.159 24.099v161.049l237.426 137.724a40.344 40.344 0 0 0 40.452.02l463.73-270.153a14.127 14.127 0 0 0 7.049-12.226V420.895z" fill="#ADC4CB"/><path d="M382.145 922.409a41.333 41.333 0 0 1-20.744-5.565L123.975 779.119a1.001 1.001 0 0 1-.498-.865V617.205c0-.134.027-.266.079-.389l10.159-24.099c.085-.201.233-.369.422-.478l495.347-285.384c.282-.161.626-.177.921-.04l243.152 113.172a1 1 0 0 1 .578.907v212.725c0 5.38-2.893 10.396-7.548 13.091L402.859 916.863a41.355 41.355 0 0 1-20.714 5.546zM125.477 777.678l236.928 137.436c12.164 7.056 27.28 7.062 39.449.02l463.728-270.152a13.165 13.165 0 0 0 6.553-11.361V421.533L630.032 308.849 135.426 593.805l-9.95 23.603z"/><path d="M650.283 296.673a44.325 44.325 0 0 0-44.204.021L124.477 557.336l6.804 12.867 237.706 129.014a26.214 26.214 0 0 0 26.282.013l474.935-274.92c3.915-2.266 3.906-7.922-.016-10.176z" fill="#ADC4CB"/><path d="M382.139 703.746a27.21 27.21 0 0 1-13.655-3.664l-237.681-129a1 1 0 0 1-.407-.411l-6.804-12.867a1.002 1.002 0 0 1 .408-1.348l481.602-260.642c13.91-8.011 31.223-8.023 45.166-.017l219.89 117.454c2.183 1.254 3.472 3.478 3.476 5.964s-1.278 4.714-3.43 5.96l-474.936 274.92a27.192 27.192 0 0 1-13.629 3.651zM132.023 569.469l237.44 128.869c7.819 4.535 17.505 4.54 25.304.027l474.936-274.92c1.525-.883 2.435-2.463 2.432-4.226s-.917-3.34-2.446-4.218L649.812 297.555l-.027-.015c-13.329-7.661-29.886-7.652-43.207.021L125.823 557.744z"/><path d="m366.087 973.221 51.252-30.372V685.277c.039-23.124-6.25-45.215-17.653-64.412l-51.057 23.612a124.908 124.908 0 0 1 20.211 68.348z"/><path d="M366.088 974.22a1 1 0 0 1-1-1.011l2.752-260.396c.04-24.116-6.892-47.562-20.049-67.792a1.002 1.002 0 0 1 .418-1.452l51.057-23.611a.996.996 0 0 1 1.28.396c11.678 19.661 17.831 42.112 17.792 64.925v257.57a.997.997 0 0 1-.49.86l-51.252 30.371a.992.992 0 0 1-.508.14zm-15.995-329.319a125.666 125.666 0 0 1 19.747 67.925l-2.734 258.629 49.233-29.175V685.277a124.777 124.777 0 0 0-17.054-63.124z"/><path d="M348.144 644.748a124.874 124.874 0 0 0-43.317-40.683L54.933 462.954c-11.1-6.266-23.77-5.512-33.629.123 5.156-3.078 38.956-23.214 49.363-28.569 9.948-5.115 22.227-5.69 32.806.281l248.585 141.905c20.819 10.463 36.765 25.879 47.629 44.169z" fill="#fff"/><path d="M348.145 645.747a1 1 0 0 1-.839-.455c-10.822-16.641-25.681-30.596-42.97-40.356L54.441 463.826c-10.216-5.769-22.418-5.723-32.641.12a1 1 0 0 1-1.009-1.726c3.936-2.35 38.76-23.116 49.418-28.6 10.888-5.598 23.507-5.485 33.755.3l248.589 141.908c20.076 10.088 36.688 25.493 47.993 44.526a1.001 1.001 0 0 1-.44 1.418l-51.543 23.883a.996.996 0 0 1-.418.092zM38.243 457.529c5.903 0 11.801 1.518 17.181 4.555l249.894 141.11c17.316 9.776 32.234 23.694 43.188 40.283l49.749-23.052c-11.094-18.268-27.202-33.063-46.647-42.836l-248.631-141.93c-9.656-5.451-21.565-5.548-31.853-.261-7.572 3.896-27.469 15.584-39.659 22.803a34.558 34.558 0 0 1 6.778-.672z"/><path d="M1 765.344 366.087 973.22l2.75-260.394c.076-45.151-24.208-86.833-63.525-109.034L55.416 462.686c-22.559-12.738-51.604 3.527-50.402 30.884z" fill="#fff"/><path d="M366.088 974.22c-.171 0-.341-.044-.495-.131L.505 766.213a1.002 1.002 0 0 1-.505-.884l4.014-271.773c-.564-12.802 5.542-24.433 16.334-31.055 10.871-6.67 24.496-6.934 35.559-.687L305.804 602.92c39.574 22.347 64.11 64.461 64.033 109.907l-2.75 260.402a1 1 0 0 1-.999.991zM2.008 764.768 365.106 971.51l2.732-258.694c.076-44.716-24.071-86.161-63.017-108.152L54.924 463.557c-10.43-5.892-23.279-5.641-33.53.648-10.164 6.237-15.915 17.198-15.382 29.321z"/></svg></g><g transform="translate(2808.0 1840.8) rotate(0.0 -627.0 475.19999999999993) scale(-1.4280817354723432 1.4274985731022258)"><svg width="878.101" height="665.78" viewBox="0 0 878.101 665.78"><g opacity=".35"><path d="M870.866 306.116c-1.16-1.62-2.7-3.05-4.62-4.15l-479.01-276.74a54.354 54.354 0 0 0-54.16 0L44.723 190.88l5.234-20.007L333.076 8.227a54.354 54.354 0 0 1 54.16 0l479.01 276.74c7.85 4.51 9.4 14.489 4.62 21.149z" fill="#dbf301"/><path d="M870.867 307.116c-.001 0-.001 0 0 0a1 1 0 0 1-.813-.417 13.498 13.498 0 0 0-4.304-3.865L386.736 26.092c-16.403-9.418-36.773-9.419-53.162.001L45.221 191.747a.998.998 0 0 1-1.465-1.12l5.234-20.007c.068-.259.237-.48.469-.614L332.578 7.359c17.002-9.773 38.137-9.773 55.156 0L866.747 284.1c3.878 2.229 6.532 5.839 7.47 10.167.941 4.342.016 8.874-2.538 12.432a.999.999 0 0 1-.812.417zM360.15 17.029c9.536 0 19.075 2.443 27.584 7.33L866.747 301.1a15.6 15.6 0 0 1 4.036 3.299c1.664-2.898 2.204-6.366 1.479-9.708-.816-3.768-3.13-6.914-6.514-8.858L386.736 9.092c-16.403-9.419-36.773-9.419-53.162.001L50.818 171.531l-4.523 17.292L332.578 24.359c8.501-4.887 18.035-7.33 27.572-7.33z"/></g><path d="M329.56 10.246 49.958 170.874s-4.618 2.545-8.333 4.787c-3.73 2.251-7.088 5.334-7.896 9.089-2.665 12.39 8.298 16.432 8.298 16.432L1 357.971l11.392 5.692 13.101-19.951 49-162.859L304.35 47.193l-46 150.882 11.392 5.692 13.101-19.951L337.979 22.73z" fill="#fff"/><path d="M12.392 364.663a.996.996 0 0 1-.446-.105L.554 358.866a1 1 0 0 1-.521-1.147l40.813-155.974c-2.635-1.312-10.46-6.211-8.095-17.204.958-4.456 5.073-7.753 8.356-9.735 3.689-2.227 8.321-4.781 8.368-4.807L329.062 9.379a1 1 0 0 1 1.327.308l8.418 12.483c.175.26.218.586.117.883l-55.137 161.086a.978.978 0 0 1-.11.225l-13.101 19.951a1.003 1.003 0 0 1-1.283.346l-11.392-5.692a1 1 0 0 1-.51-1.186L302.65 49.337 75.337 181.518 26.45 344c-.028.092-.069.18-.122.261l-13.101 19.951a.996.996 0 0 1-.835.451zm-10.219-7.224 9.871 4.932 12.533-19.086 48.958-162.72a.998.998 0 0 1 .455-.576l229.857-133.66a1 1 0 0 1 1.459 1.156l-45.753 150.074 9.841 4.917 12.543-19.102 54.935-160.496-7.62-11.299L50.456 171.742c-.062.034-4.66 2.57-8.315 4.776-2.945 1.778-6.626 4.687-7.435 8.444-2.445 11.365 7.254 15.129 7.669 15.284.48.18.749.694.619 1.19z"/><path d="M337.979 22.729 64.006 179.689 12.392 363.663l24.493-14.259 49-162.86 229.856-133.66-46 150.882 24.493-14.259z" fill="#adc4cb"/><path d="M12.392 364.663a1 1 0 0 1-.963-1.27l51.614-183.974c.071-.252.238-.467.466-.598L337.482 21.862a1 1 0 0 1 1.464 1.122l-43.745 166.778a.994.994 0 0 1-.464.61l-24.493 14.259a1 1 0 0 1-1.46-1.156L314.041 55.03 86.729 187.21 37.842 349.692a.994.994 0 0 1-.455.576l-24.493 14.259a.989.989 0 0 1-.502.136zm52.466-184.31L14.022 361.557l22.02-12.82 48.886-162.481a.998.998 0 0 1 .455-.576L315.239 52.02a1 1 0 0 1 1.459 1.156l-45.257 148.443 21.931-12.767 43.034-164.069z"/><path d="m568.376 485.168 18.49 173.92 11.392 5.692 13.101-19.951-20-162.859 229.857-133.661 20 162.882 11.392 5.692 13.101-19.951-8.571-181.36z" fill="#fff"/><path d="M598.258 665.78a.996.996 0 0 1-.446-.105l-11.392-5.692a1 1 0 0 1-.548-.789l-18.491-173.92a.999.999 0 0 1 .488-.968L856.632 314.71a1 1 0 0 1 1.505.815l8.57 181.361a.998.998 0 0 1-.163.596l-13.101 19.951a1.003 1.003 0 0 1-1.283.346l-11.392-5.692a1 1 0 0 1-.546-.772l-19.815-161.377-227.975 132.565 19.92 162.204a1 1 0 0 1-.157.671l-13.101 19.951a.999.999 0 0 1-.836.451zm-10.455-7.342 10.107 5.05 12.412-18.901-19.956-162.495a1 1 0 0 1 .49-.986l229.856-133.661a1 1 0 0 1 1.496.742l19.935 162.349 10.117 5.055 12.435-18.937-8.477-179.383-286.78 168.432z"/><path d="M857.138 315.572 578.43 477.353l19.828 187.427 24.493-14.259L601.9 480.729l229.884-133.44 20.824 169.594 24.493-14.259z" fill="#adc4cb"/><path d="M598.258 665.78a1 1 0 0 1-.994-.895l-19.829-187.427a.998.998 0 0 1 .493-.97l278.708-161.781a1 1 0 0 1 1.496.759l19.962 187.053a.998.998 0 0 1-.491.97l-24.493 14.259a1 1 0 0 1-1.496-.742l-20.64-168.091-228.001 132.348 20.771 169.136a1 1 0 0 1-.49.986l-24.493 14.259a.987.987 0 0 1-.503.136zm-18.766-187.888 19.598 185.246 22.588-13.15-20.771-169.137a1.001 1.001 0 0 1 .491-.987l229.884-133.44a1 1 0 0 1 1.494.742l20.639 168.089 22.622-13.17-19.73-184.876z"/><path d="M873.57 297.82c-.063 4.839-2.48 9.653-7.263 12.43L573.766 480.06a52.495 52.495 0 0 1-52.753-.028L39.986 199.995c-4.327-2.518-6.543-6.835-6.696-11.214l-.031.017s0 10.377.174 14.316c.233 5.277 1.344 10.851 6.552 13.881l481.026 280.038a52.495 52.495 0 0 0 52.753.028L866.307 327.25c5.159-2.994 7.206-8.347 7.24-13.567.03-4.578.023-15.863.023-15.863z" fill="#fff"/><path d="M547.413 505.137a53.463 53.463 0 0 1-26.903-7.241L39.484 217.859c-5.822-3.387-6.825-9.636-7.048-14.701-.173-3.915-.175-13.935-.175-14.36a1 1 0 0 1 .514-.874c.305-.169.69-.176.993-.005s.511.479.523.827c.151 4.333 2.469 8.214 6.199 10.385l481.026 280.038c15.955 9.284 35.783 9.293 51.748.027l292.541-169.811c4.173-2.422 6.702-6.75 6.766-11.578.007-.55.438-1.024 1.006-.987.549.003.993.45.994 1 0 0 .006 11.29-.023 15.869-.041 6.337-2.861 11.596-7.738 14.426l-292.542 169.81a53.485 53.485 0 0 1-26.855 7.212zM34.292 195.711c.024 2.756.067 5.668.142 7.358.201 4.558 1.071 10.161 6.056 13.061l481.026 280.038c15.955 9.284 35.783 9.294 51.748.027l292.541-169.811c5.817-3.376 6.721-9.412 6.742-12.709.013-2.004.019-5.295.022-8.361a15.542 15.542 0 0 1-5.76 5.8L574.268 480.925c-16.585 9.626-37.184 9.616-53.758-.028L39.484 200.859a14.436 14.436 0 0 1-5.192-5.148z"/><g opacity=".35"><path d="M866.251 284.965 387.239 8.226a54.359 54.359 0 0 0-54.159-.001L40.051 176.565c-9.026 5.185-9.062 18.194-.065 23.429l481.026 280.038a52.495 52.495 0 0 0 52.753.028l292.541-169.81c9.719-5.641 9.688-19.687-.055-25.285z" fill="#dbf301"/><path d="M547.413 488.138a53.473 53.473 0 0 1-26.903-7.241L39.484 200.859c-4.538-2.64-7.238-7.351-7.224-12.6.014-5.25 2.741-9.945 7.293-12.561L332.581 7.357c17.011-9.773 38.145-9.772 55.156.001l479.012 276.739c4.889 2.809 7.815 7.853 7.828 13.491.013 5.639-2.892 10.695-7.768 13.525L574.268 480.925a53.493 53.493 0 0 1-26.855 7.213zM360.158 2.027c-9.191 0-18.383 2.354-26.581 7.064L40.549 177.432c-3.926 2.255-6.277 6.304-6.289 10.832-.013 4.527 2.316 8.589 6.229 10.866l481.026 280.038c15.955 9.284 35.783 9.294 51.748.027l292.541-169.811c4.251-2.468 6.783-6.875 6.772-11.791s-2.562-9.312-6.824-11.761l-.002-.001L386.738 9.092c-8.196-4.71-17.388-7.065-26.58-7.065z"/></g><path d="M547.413 488.138a53.473 53.473 0 0 1-26.903-7.241L39.484 200.859c-4.538-2.64-7.238-7.351-7.224-12.6.014-5.25 2.741-9.945 7.293-12.561L332.581 7.357c17.011-9.773 38.145-9.772 55.156.001l479.012 276.739c4.889 2.809 7.815 7.853 7.828 13.491.013 5.639-2.892 10.695-7.768 13.525L574.268 480.925a53.493 53.493 0 0 1-26.855 7.213zM360.158 2.027c-9.191 0-18.383 2.354-26.581 7.064L40.549 177.432c-3.926 2.255-6.277 6.304-6.289 10.832-.013 4.527 2.316 8.589 6.229 10.866l481.026 280.038c15.955 9.284 35.783 9.294 51.748.027l292.541-169.811c4.251-2.468 6.783-6.875 6.772-11.791s-2.562-9.312-6.824-11.761l-.002-.001L386.738 9.092c-8.196-4.71-17.388-7.065-26.58-7.065z"/></svg></g><g transform="translate(2702.4 1196.3999999999999) rotate(0.0 -493.20000000000005 635.4) scale(-0.8572352252067482 0.8565420182793668)"><svg width="1150.676" height="1483.64" viewBox="0 0 1150.676 1483.64"><path d="m623.443 1412.571-392.669-227.035v-9.835l392.669 227.035z" fill="#FFF"/><path d="M623.443 1413.571a1 1 0 0 1-.5-.134l-392.668-227.035a1.002 1.002 0 0 1-.5-.866v-9.835a1 1 0 0 1 1.5-.866l392.668 227.035c.309.179.5.509.5.866v9.835a1 1 0 0 1-1 1zm-391.668-228.612 390.668 225.878v-7.525l-390.668-225.878z"/><path d="m884.599 1251.319-261.156 151.417v9.835l261.156-151.417z"/><path d="M623.443 1413.571a1 1 0 0 1-1-1v-9.835a1 1 0 0 1 .498-.865l261.156-151.417a1 1 0 0 1 1.502.865v9.835a1 1 0 0 1-.498.865l-261.157 151.417a.997.997 0 0 1-.501.135zm1-10.259v7.523l259.156-150.257v-7.523z"/><path d="m623.443 1402.736-392.669-227.035 261.513-150.512 392.312 226.13z" fill="#fff"/><path d="M623.443 1403.736a1 1 0 0 1-.5-.134l-392.668-227.035a1 1 0 0 1 .001-1.733l261.512-150.512a1 1 0 0 1 .998 0l392.313 226.13a.999.999 0 0 1 .001 1.731L623.944 1403.6a.997.997 0 0 1-.501.135zm-390.667-228.033 390.667 225.877 259.159-150.259-390.315-224.979-259.511 149.36z"/><path d="m467.564 1036.135-.322 108.104 207.875 120.839v-108.68z" fill="#FFF"/><path d="M675.117 1266.078a.998.998 0 0 1-.502-.135L466.74 1145.104a1 1 0 0 1-.498-.867l.323-108.104a1 1 0 0 1 1.502-.862l207.552 120.263a1 1 0 0 1 .499.865v108.68a1 1 0 0 1-1 1zm-206.873-122.413 205.873 119.675v-106.366l-205.558-119.107-.316 105.798z"/><path d="m688.36 1257.01-13.243 8.068v-108.68l13.243-7.616z"/><path d="M675.117 1266.078a1 1 0 0 1-1-1v-108.68a1 1 0 0 1 .501-.867l13.243-7.616a.999.999 0 0 1 1.498.867v108.228a1 1 0 0 1-.48.854l-13.243 8.068a1 1 0 0 1-.52.146zm1-109.102v106.322l11.243-6.85V1150.51zm12.243 100.034h.01z"/><path d="m1149.676 645.731-3.258 821.442-25.817 15.465-26.461-38.871 11.102-773.799z" fill="#FFF"/><path d="M1120.602 1483.638a.997.997 0 0 1-.827-.437l-26.462-38.871a.996.996 0 0 1-.173-.577l11.102-773.799a1 1 0 0 1 .521-.864l44.434-24.237a.999.999 0 0 1 1.479.882l-3.258 821.441a1 1 0 0 1-.486.854l-25.817 15.466a.999.999 0 0 1-.513.142zm-25.458-40.173 25.753 37.83 24.523-14.691 3.249-819.185-42.436 23.147z"/><path d="M1105.242 669.968 13.057 35.368 1 16.035 26.94 1l1122.736 644.731z" fill="#fff"/><path d="M1105.242 670.968a.998.998 0 0 1-.502-.135L12.554 36.233a1 1 0 0 1-.346-.335L.151 16.564a1.004 1.004 0 0 1 .347-1.395L26.438.135a1 1 0 0 1 1-.002l1122.736 644.731a1 1 0 0 1-.019 1.745l-44.434 24.237a.992.992 0 0 1-.479.122zM13.774 34.628 1105.257 668.82l42.371-23.112L26.942 2.155 2.395 16.382z"/><path d="M1120.599 1482.64 4.433 835.435 1.006 16.036l1121.625 644.442z"/><path d="M1120.599 1483.639c-.173 0-.346-.045-.502-.135L3.931 836.3a1 1 0 0 1-.498-.861L.006 16.04a1.002 1.002 0 0 1 1.498-.872L1123.129 659.61a1 1 0 0 1 .502.869l-2.032 822.161a.999.999 0 0 1-1 .998zM5.43 834.857l1114.174 646.049 2.026-819.85L2.014 17.768l3.417 817.09z"/><path d="M1.48 129.41 1.006 16.036l1121.625 644.442-.279 112.942z"/><path d="M1122.352 774.42a.994.994 0 0 1-.498-.133L.982 130.277a1.002 1.002 0 0 1-.502-.863L.006 16.04a1.002 1.002 0 0 1 1.498-.872L1123.129 659.61c.311.179.503.511.502.87l-.279 112.942a1 1 0 0 1-1 .998zM2.478 128.83l1118.878 642.864.274-110.638L2.013 17.768zm1.955 706.605-.45-107.636 1116.896 641.726-.28 113.115z"/><path d="M1120.599 1483.639a.997.997 0 0 1-.501-.135L3.931 836.3a1 1 0 0 1-.498-.861l-.45-107.636a1.002 1.002 0 0 1 1.498-.872l1116.896 641.725a1 1 0 0 1 .502.869l-.28 113.115a.999.999 0 0 1-1 .998zM5.43 834.857l1114.174 646.049.274-110.803L4.99 729.531z"/><path d="M1120.879 1322.821 3.788 681.165l-.069-16.436 1117.16 642.098z" fill="#fff"/><path d="M1120.879 1323.821a.994.994 0 0 1-.498-.133L3.29 682.032a1 1 0 0 1-.502-.863l-.069-16.436a1.002 1.002 0 0 1 1.498-.871l1117.16 642.097a1 1 0 0 1 .502.867v15.995a.998.998 0 0 1-1 1zM4.785 680.585l1115.094 640.509v-13.688L4.726 666.462z"/><path d="M188.782 790.429v-22.417l-5.063-3.015v22.417z"/><path d="M188.782 791.429a1 1 0 0 1-.512-.141l-5.063-3.015a1 1 0 0 1-.488-.859v-22.417a1 1 0 0 1 1.512-.859l5.063 3.015a1 1 0 0 1 .488.859v22.417a.998.998 0 0 1-1 1zm-4.063-4.583 3.063 1.824v-20.09l-3.063-1.824z"/><path d="m637.009 784.8-194.687-1.483-.77-223.997z" fill="#fff"/><path d="M637.009 785.8h-.008l-194.687-1.482a1 1 0 0 1-.992-.997l-.77-223.998a1 1 0 0 1 1.756-.659l195.457 225.48a1 1 0 0 1-.756 1.655zm-193.69-3.475 191.485 1.458-192.243-221.772.757 220.314z"/></svg></g><g transform="translate(678.0 433.2) rotate(0.0 473.4 892.7999999999998) scale(1.804645418053316 1.8061448982172206)"><svg width="524.646" height="988.625" viewBox="0 0 524.646 988.625"><path d="M432.994 808.888c0 9.9-14.111 17.925-31.517 17.925s-31.517-8.025-31.517-17.925v-30.355l63.034-2.464z" fill="#87C159"/><path d="M401.477 827.813c-17.93 0-32.517-8.489-32.517-18.925v-30.355c0-.537.424-.979.961-.999l63.034-2.464c.27-.016.536.09.732.278s.307.448.307.721v32.819c0 10.436-14.587 18.925-32.517 18.925zm-30.517-48.318v29.394c0 9.332 13.69 16.925 30.517 16.925s30.517-7.593 30.517-16.925V777.11z"/><path d="M369.96 796.651c-.013-.64-3.13.924-4.735 5.586-4.668 13.555-10.816 52.957-10.816 52.957s.107 13.573 1.119 16.412c3.003 8.42 10.233 13.966 32.447 25.361 14.163 7.265 14.984 6.939 23.869 11.561 27.526 14.322 48.581 37.542 89.054 25.556 9.674-2.865 16.028-6.176 20.125-13.282 2.826-4.902 2.956-10.741 2.289-15.576-.768-5.572-3.597-10.641-7.831-14.343-6.594-5.764-18.372-16.099-29.42-25.989-24.602-22.025-46.246-54.078-46.246-54.078s-5.128-6.939-13.983-5.329c-7.785 1.416-12.281 9.567-16.972 14.28-6.616 6.647-26.219 5.34-32.938-3.413-6.968-9.079-5.962-19.703-5.962-19.703z" fill="#dbf301"/><path d="M479.229 938.444c-20.15 0-35.162-9.323-50.828-19.052-5.479-3.402-11.145-6.921-17.019-9.978-4.033-2.099-6.39-3.169-9.118-4.407-3.295-1.497-7.03-3.193-14.746-7.151-22.762-11.675-29.841-17.246-32.932-25.914-1.039-2.914-1.166-15.334-1.177-16.74 0-.054.004-.108.012-.162.251-1.612 6.215-39.645 10.858-53.128 1.452-4.215 4.345-6.592 5.709-6.382a1.128 1.128 0 0 1 .967 1.214c-.01.103-.873 10.359 5.76 19.001 3.033 3.95 9.408 6.693 16.639 7.158 6.36.41 12.031-1.064 14.797-3.843 1.167-1.173 2.327-2.57 3.555-4.051 3.653-4.4 7.793-9.389 13.947-10.508 9.36-1.704 14.742 5.414 14.966 5.719.24.354 21.885 32.241 46.109 53.927 11.205 10.031 23.237 20.585 29.411 25.982 4.474 3.91 7.373 9.223 8.164 14.959.888 6.439.076 11.895-2.414 16.212-4.405 7.641-11.189 10.923-20.708 13.742-8.022 2.377-15.27 3.402-21.952 3.402zM355.41 855.268c.032 3.792.282 13.82 1.06 16.002 2.883 8.083 9.753 13.415 31.961 24.807 7.674 3.937 11.385 5.622 14.66 7.109 2.754 1.251 5.133 2.331 9.214 4.455 5.941 3.091 11.64 6.63 17.151 10.052 20.468 12.711 39.801 24.718 71.157 15.432 9.045-2.679 15.47-5.758 19.542-12.822 2.262-3.925 2.991-8.951 2.165-14.94-.725-5.259-3.388-10.134-7.499-13.727-6.178-5.401-18.217-15.96-29.429-25.998-24.412-21.854-46.19-53.941-46.408-54.263-.17-.227-4.864-6.376-12.975-4.906-5.438.989-9.33 5.68-12.765 9.818-1.258 1.516-2.446 2.947-3.677 4.184-3.208 3.225-9.317 4.877-16.342 4.429-7.907-.509-14.673-3.476-18.097-7.937-5.589-7.281-6.229-15.417-6.225-18.805-.828.749-1.962 2.165-2.733 4.404-4.486 13.027-10.445 50.702-10.76 52.706z"/><path d="M521.017 920.805c-4.089 7.098-10.438 10.41-20.114 13.275-40.472 11.993-61.536-11.23-89.065-25.556-8.883-4.622-9.704-4.291-23.857-11.561-22.216-11.389-29.443-16.932-32.453-25.355-1.008-2.836-1.123-16.414-1.123-16.414s.043-.259.13-.763c.014.058.029.115.043.158 3.009 8.423 10.237 13.98 32.453 25.369 14.153 7.256 14.974 6.94 23.872 11.561 27.514 14.326 48.578 37.535 89.051 25.556 9.675-2.865 16.025-6.177 20.128-13.289a17.711 17.711 0 0 0 1.728-4.118 23.439 23.439 0 0 1 1.497 5.558c.676 4.838.546 10.669-2.29 15.579z" fill="#fff"/><path d="M479.226 938.443c-20.151 0-35.165-9.324-50.834-19.056-5.479-3.402-11.144-6.92-17.017-9.977-4.019-2.091-6.367-3.157-9.086-4.392-3.296-1.497-7.032-3.194-14.766-7.167-22.759-11.667-29.839-17.236-32.937-25.907-1.035-2.913-1.169-15.336-1.181-16.742 0-.059.004-.116.014-.174l.13-.767a1 1 0 0 1 .948-.83.983.983 0 0 1 1.008.757c2.908 8.164 9.78 13.498 31.982 24.88 7.679 3.937 11.392 5.624 14.667 7.113 2.752 1.251 5.129 2.331 9.209 4.45 5.933 3.089 11.623 6.623 17.126 10.041 20.474 12.718 39.813 24.728 71.179 15.443 9.042-2.678 15.466-5.758 19.546-12.83a16.786 16.786 0 0 0 1.632-3.891 1.002 1.002 0 0 1 1.889-.104 24.535 24.535 0 0 1 1.561 5.793c.9 6.433.088 11.889-2.413 16.219-4.399 7.636-11.18 10.916-20.696 13.734-8.025 2.381-15.276 3.407-21.961 3.407zm-123.753-79.56c.12 4.542.409 10.732.998 12.39 2.888 8.085 9.76 13.416 31.967 24.8 7.692 3.951 11.405 5.638 14.68 7.125 2.745 1.247 5.116 2.323 9.183 4.439 5.94 3.091 11.638 6.629 17.148 10.052 20.474 12.714 39.812 24.723 71.171 15.432 9.043-2.678 15.465-5.756 19.531-12.814v-.001c2.273-3.935 3.001-8.962 2.165-14.94a22.724 22.724 0 0 0-.546-2.675 17.976 17.976 0 0 1-.824 1.6c-4.41 7.645-11.194 10.928-20.708 13.745-32.227 9.538-51.936-2.703-72.802-15.662-5.472-3.398-11.13-6.912-16.994-9.966-4.032-2.095-6.387-3.165-9.114-4.404-3.295-1.498-7.031-3.195-14.752-7.154-19.125-9.804-27.178-15.305-31.103-21.967zm99.417 12.23a1 1 0 0 1-.768-.358l-36.215-43.322a1 1 0 0 1 1.535-1.283l36.215 43.322a1 1 0 0 1-.767 1.641z"/><path d="M335.977 859.107c0 9.9-14.111 17.925-31.517 17.925s-31.517-8.025-31.517-17.925v-30.355l63.034-2.464v32.819z" fill="#87C159"/><path d="M304.46 878.031c-17.93 0-32.517-8.489-32.517-18.925v-30.354c0-.537.424-.979.961-.999l63.034-2.465a.955.955 0 0 1 .732.278.998.998 0 0 1 .307.721v32.819c0 10.436-14.587 18.925-32.517 18.925zm-30.518-48.317v29.393c0 9.332 13.69 16.925 30.517 16.925s30.517-7.593 30.517-16.925v-31.779z"/><path d="M272.942 846.87c-.013-.64-3.13.924-4.735 5.586-4.668 13.555-10.816 52.957-10.816 52.957s.107 13.573 1.119 16.412c3.003 8.42 10.233 13.966 32.447 25.361 14.163 7.265 14.984 6.939 23.869 11.562 27.526 14.322 48.581 37.542 89.054 25.556 9.674-2.865 16.028-6.176 20.125-13.282 2.826-4.902 2.956-10.741 2.289-15.576-.768-5.572-3.597-10.641-7.831-14.343-6.594-5.764-18.372-16.099-29.42-25.989-24.602-22.025-46.246-54.078-46.246-54.078s-5.128-6.94-13.983-5.33c-7.785 1.416-12.281 9.567-16.972 14.28-6.616 6.648-26.219 5.34-32.938-3.413-6.967-9.08-5.962-19.703-5.962-19.703z" fill="#dbf301"/><path d="M382.211 988.662c-20.151.001-35.162-9.323-50.828-19.052-5.479-3.402-11.144-6.921-17.018-9.978-4.032-2.097-6.387-3.167-9.114-4.405-3.295-1.497-7.031-3.193-14.75-7.153-22.762-11.676-29.841-17.246-32.932-25.914-1.039-2.913-1.166-15.334-1.177-16.74 0-.055.004-.108.012-.162.251-1.612 6.214-39.644 10.858-53.127 1.452-4.215 4.352-6.593 5.709-6.382a1.128 1.128 0 0 1 .967 1.214c-.01.103-.873 10.358 5.76 19 3.033 3.951 9.409 6.694 16.64 7.158 6.362.411 12.03-1.063 14.796-3.842 1.167-1.173 2.327-2.571 3.555-4.051 3.653-4.401 7.792-9.39 13.946-10.508 9.359-1.709 14.742 5.414 14.966 5.718.24.354 21.885 32.242 46.109 53.928 10.593 9.483 21.841 19.363 29.411 25.981 4.474 3.911 7.373 9.224 8.164 14.959.887 6.44.075 11.895-2.414 16.212-4.406 7.643-11.19 10.924-20.708 13.742-8.022 2.376-15.271 3.402-21.952 3.402zm-123.818-83.176c.032 3.793.282 13.82 1.06 16.002 2.882 8.082 9.752 13.415 31.961 24.807 7.677 3.938 11.389 5.624 14.664 7.111 2.753 1.251 5.131 2.331 9.21 4.453 5.941 3.091 11.639 6.63 17.15 10.052 20.469 12.712 39.802 24.718 71.159 15.432 9.045-2.678 15.469-5.757 19.543-12.822 2.262-3.924 2.991-8.951 2.165-14.94-.725-5.258-3.388-10.133-7.499-13.727-7.575-6.622-18.829-16.508-29.429-25.997-24.412-21.854-46.19-53.942-46.408-54.264-.17-.226-4.864-6.377-12.975-4.905-5.438.988-9.33 5.68-12.765 9.818-1.258 1.516-2.446 2.947-3.677 4.184-3.208 3.225-9.318 4.878-16.341 4.428-7.908-.508-14.674-3.475-18.099-7.937-5.589-7.281-6.229-15.416-6.225-18.804-.828.748-1.962 2.165-2.733 4.404-4.487 13.026-10.446 50.701-10.761 52.705z"/><path d="M423.999 971.023c-4.089 7.098-10.438 10.41-20.114 13.275-40.472 11.993-61.536-11.23-89.065-25.556-8.883-4.622-9.704-4.291-23.857-11.561-22.216-11.389-29.443-16.932-32.453-25.355-1.008-2.836-1.123-16.413-1.123-16.413s.043-.259.13-.763c.014.058.029.115.043.158 3.009 8.423 10.237 13.98 32.453 25.369 14.153 7.256 14.974 6.94 23.872 11.561 27.514 14.326 48.578 37.535 89.051 25.556 9.675-2.865 16.025-6.177 20.128-13.289a17.711 17.711 0 0 0 1.728-4.118 23.444 23.444 0 0 1 1.497 5.557c.676 4.838.546 10.67-2.29 15.579z" fill="#fff"/><path d="M382.208 988.662c-20.151 0-35.165-9.325-50.833-19.057-5.479-3.402-11.143-6.92-17.016-9.977-4.019-2.091-6.367-3.157-9.086-4.392-3.296-1.497-7.032-3.194-14.766-7.167-22.759-11.667-29.839-17.236-32.937-25.907-1.035-2.912-1.169-15.335-1.181-16.741 0-.058.004-.116.014-.173l.13-.769a1 1 0 0 1 .948-.83.991.991 0 0 1 1.008.757c2.908 8.164 9.78 13.498 31.982 24.88 7.682 3.938 11.394 5.626 14.67 7.114 2.752 1.251 5.128 2.331 9.207 4.449 5.932 3.089 11.623 6.623 17.125 10.041 20.474 12.716 39.813 24.728 71.18 15.444 9.042-2.678 15.466-5.758 19.546-12.831a16.81 16.81 0 0 0 1.632-3.89 1 1 0 0 1 1.888-.105 24.518 24.518 0 0 1 1.561 5.794c.9 6.434.088 11.89-2.413 16.218-4.399 7.637-11.181 10.917-20.696 13.734-8.027 2.38-15.279 3.408-21.963 3.408zm-123.753-79.561c.12 4.542.409 10.732.998 12.39 2.888 8.084 9.76 13.416 31.967 24.8 7.692 3.951 11.405 5.638 14.68 7.125 2.745 1.247 5.116 2.323 9.183 4.439 5.94 3.091 11.637 6.629 17.148 10.051 15.399 9.564 30.161 18.729 49.874 18.73 6.496 0 13.525-.994 21.298-3.298 9.043-2.677 15.464-5.754 19.531-12.814v-.001c2.273-3.934 3.001-8.96 2.165-14.939a22.698 22.698 0 0 0-.546-2.676 17.607 17.607 0 0 1-.825 1.601c-4.41 7.645-11.193 10.928-20.708 13.745-32.229 9.536-51.937-2.703-72.803-15.663-5.471-3.398-11.129-6.912-16.993-9.966-4.031-2.094-6.385-3.164-9.111-4.402-3.296-1.498-7.031-3.196-14.755-7.156-19.126-9.805-27.178-15.305-31.103-21.966zm99.417 12.231a1 1 0 0 1-.768-.358l-36.215-43.323a1 1 0 0 1 1.535-1.283l36.215 43.323a1 1 0 0 1-.767 1.641z"/><path d="M457.442 506.838s3.854-1.93 4.871-5.752c1.642-6.172-3.442-11.187-5.533-12.391l-47.656-27.437s-10.643-6.418-24.472-6.911c-14.112-.504-21.28 3.006-21.28 3.006s-23.324 10.744-25.548 19.994c-.132.547-.205 10.66-.236 11.049-.666 8.13 9.438 13.972 9.438 13.972l30.227 19.452s4.582 2.37 9.989-.53c2.204-1.182 3.622-4.549 3.622-4.549s22.513 13.901 28.104 16.102c3.723 1.466 10.362 3.023 12.622-.461 1.508-2.325 1.469-5.223 1.469-5.223s.859.64 5.439 2.015c3.958 1.188 8.75 1.747 10.442-1.245 1.471-2.602.944-7.188.944-7.188s4.516-.057 6.621-2.5c2.526-2.93.937-11.403.937-11.403z" fill="#fff"/><path d="M426.604 535.487c-3.383.001-6.956-1.3-8.002-1.712-5.02-1.978-22.952-12.921-27.325-15.605-.648 1.195-1.885 3.104-3.562 4.002-5.802 3.113-10.714.644-10.921.537l-30.309-19.5c-.394-.227-10.603-6.233-9.893-14.895.009-.162.022-1.22.04-2.611.09-6.98.139-8.249.221-8.59 2.31-9.611 25.132-20.221 26.102-20.668.281-.138 7.534-3.613 21.734-3.097 13.928.496 24.509 6.786 24.953 7.054l47.638 27.427c2.607 1.501 7.737 6.987 6 13.514-.863 3.245-3.495 5.231-4.735 6.012.354 2.254 1.118 8.756-1.281 11.541-1.721 1.998-4.717 2.595-6.308 2.772.073 1.597.031 4.677-1.143 6.755-1.642 2.904-5.654 3.494-11.6 1.71-2.064-.62-3.407-1.101-4.273-1.451-.168 1.159-.566 2.792-1.509 4.246-1.263 1.944-3.5 2.559-5.827 2.559zm-35.738-19.745c.183 0 .365.051.525.149.224.139 22.501 13.878 27.945 16.022 3.363 1.325 9.552 2.796 11.417-.074 1.317-2.031 1.309-4.643 1.308-4.669a1.003 1.003 0 0 1 .547-.901.997.997 0 0 1 1.05.089c.01.005.958.606 5.129 1.858 2.273.684 7.727 1.975 9.284-.778 1.292-2.284.825-6.539.821-6.582a1 1 0 0 1 .979-1.113c.041-.001 4.097-.087 5.877-2.153 1.811-2.103 1.128-8.342.711-10.568a.999.999 0 0 1 .533-1.077c.034-.018 3.47-1.791 4.354-5.115 1.47-5.525-3.198-10.192-5.066-11.268l-47.656-27.437c-.121-.072-10.618-6.301-24.009-6.778-13.644-.479-20.736 2.872-20.806 2.905-.249.115-22.929 10.654-25.014 19.329-.067.504-.131 5.477-.166 8.147-.027 2.071-.035 2.61-.046 2.749-.606 7.396 8.847 12.97 8.943 13.025l30.267 19.477c.084.037 4.129 2.027 8.975-.569 1.544-.828 2.815-3.209 3.174-4.057a.995.995 0 0 1 .924-.611z"/><path d="M449.517 498.041c9.093 5.524 10.5 8.532 10.816 10.727.176 1.225 1.088 6.052-1.973 9.58-2.617 3.016-10.225 1.914-13.757.025" fill="#fff"/><path d="M452.717 521.214c-3.229 0-6.679-.939-8.586-1.959a1 1 0 0 1 .943-1.764c3.427 1.833 10.404 2.652 12.53.201 2.611-3.01 1.978-7.197 1.77-8.573l-.031-.208c-.291-2.021-1.747-4.791-10.346-10.016a1 1 0 1 1 1.039-1.709c9.285 5.641 10.912 8.832 11.287 11.439l.029.194c.242 1.602.979 6.477-2.237 10.183-1.404 1.618-3.831 2.212-6.398 2.212z"/><path d="M425.152 512.283c8.905 5.12 8.396 10.846 8.468 12.759.5 13.363-10.522 10.437-17.083 6.672" fill="#fff"/><path d="M426.487 535.884c-4.264.001-8.817-2.367-10.448-3.304a1 1 0 0 1 .996-1.734c4.079 2.341 9.574 4.156 12.765 2.227 2.024-1.223 2.974-3.913 2.821-7.994l-.01-.433c-.033-2.09-.112-6.985-7.957-11.496a.999.999 0 0 1-.368-1.365 1.001 1.001 0 0 1 1.365-.369c8.83 5.077 8.924 10.978 8.96 13.199l.009.39c.182 4.862-1.092 8.152-3.785 9.78-1.312.793-2.812 1.099-4.348 1.099z"/><path d="M384.328 502.426c5.555 3.244 6.308 6.832 6.624 9.027.176 1.225 1.142 6.005-2.448 8.993-2.799 2.33-8.068 3.039-11.601 1.149" fill="#fff"/><path d="M381.647 523.679c-1.863 0-3.698-.392-5.216-1.203a1 1 0 1 1 .944-1.764c3.051 1.632 7.854 1.157 10.489-1.036 2.964-2.467 2.361-6.375 2.133-7.847l-.035-.234c-.241-1.673-.741-5.154-6.138-8.307a.999.999 0 1 1 1.009-1.726c6.231 3.639 6.846 7.92 7.109 9.748l.032.215c.248 1.607 1.003 6.498-2.831 9.688-1.938 1.614-4.747 2.466-7.496 2.466z"/><path d="m406.25 485.459 35.503 23.159" fill="#fff"/><path d="M441.752 509.618a1 1 0 0 1-.545-.162l-35.503-23.158a1 1 0 1 1 1.093-1.676L442.3 507.78a1 1 0 0 1-.548 1.838z"/><path d="m396.716 493.516 31.074 20.507" fill="#fff"/><path d="M427.789 515.023c-.189 0-.38-.054-.55-.165l-31.074-20.507a1.001 1.001 0 0 1 1.101-1.67l31.074 20.507a1.001 1.001 0 0 1-.551 1.835z"/><path d="m363.439 489.05 24.177 15.481" fill="#fff"/><path d="M387.615 505.531a.993.993 0 0 1-.538-.158L362.9 489.892a1 1 0 1 1 1.078-1.684l24.177 15.481a1 1 0 0 1-.54 1.842z"/><path d="M416.874 477.093s26.547 16.945 37.184 23.993" fill="#fff"/><path d="M454.057 502.086a.998.998 0 0 1-.551-.166c-10.509-6.962-36.905-23.813-37.17-23.983a1 1 0 1 1 1.076-1.686c.266.169 26.676 17.03 37.198 24.001a1.002 1.002 0 0 1-.553 1.834z"/><path d="M440.833 508.018c7.242 4.265 10.5 8.532 10.816 10.727.176 1.224 1.088 6.052-1.973 9.58-2.617 3.016-10.225 1.914-13.757.025" fill="#fff"/><path d="M444.033 531.191c-3.229 0-6.679-.939-8.586-1.96a1 1 0 1 1 .944-1.764c3.427 1.834 10.403 2.652 12.53.201 2.611-3.01 1.978-7.197 1.77-8.573l-.031-.208c-.248-1.723-3.204-5.809-10.334-10.009a1 1 0 1 1 1.015-1.723c7.783 4.585 10.951 9.031 11.298 11.446l.029.194c.242 1.602.979 6.477-2.237 10.183-1.404 1.619-3.832 2.213-6.398 2.213z"/><path d="M404.947 510.345c-15.833-9.144-149.868-84.363-154.684-87.144-13.396-7.734-57.563-.956-70.826 22.016s-48.201 20.281-34.805 28.015L324.81 577.258a29.832 29.832 0 0 1 14.916 25.836l10.443 153.238c0 15.234 21.715 27.584 48.501 27.584s48.501-12.35 48.501-27.584c0-3.011-10.443-155.594-10.443-179.757 2.71-46.979-26.097-62.609-31.781-66.23z" fill="#fff"/><path d="M398.671 784.917c-27.295 0-49.501-12.822-49.501-28.584l-10.44-153.169c-.002-10.337-5.526-19.904-14.418-25.038L144.133 474.099c-1.711-.988-3.655-2.342-3.498-4.061.198-2.173 3.395-3.309 8.691-5.19 8.829-3.137 22.171-7.877 29.245-20.13 5.997-10.388 19.114-18.769 35.986-22.993 14.663-3.673 29.213-3.428 36.206.61 1.698.98 19.759 11.134 42.625 23.989 42.969 24.156 101.818 57.24 112.058 63.154l.037.022c.244.155.531.333.856.534 22.57 13.977 33.13 36.383 31.387 66.598.002 17.77 5.648 104.876 8.681 151.672 1.191 18.376 1.764 27.244 1.764 28.027 0 15.763-22.206 28.586-49.5 28.586zm-164.18-363.768c-5.954 0-12.735.835-19.447 2.516-16.35 4.095-29.012 12.133-34.74 22.054-7.443 12.892-21.202 17.779-30.308 21.015-3.246 1.153-7.287 2.589-7.369 3.487-.002.027-.031.682 2.506 2.146l180.178 104.026c9.509 5.49 15.416 15.722 15.416 26.702l10.44 153.169c.002 14.727 21.311 26.652 47.503 26.652s47.501-11.926 47.501-26.584c0-.753-.738-12.139-1.759-27.897-3.035-46.819-8.683-133.968-8.683-151.859 1.699-29.483-8.544-51.279-30.442-64.839-.326-.202-.614-.38-.859-.537-10.283-5.938-69.08-38.992-112.019-63.132-22.872-12.858-40.937-23.015-42.645-24-3.363-1.941-8.834-2.919-15.273-2.919z"/><path d="M328.89 554.248c-8.932-5.159-108.467-68.363-108.467-68.363l.824-1.147a10.861 10.861 0 0 0-1.16-14.047c-4.012-3.984-9.311-8.997-14.173-12.807-2.423-1.899-11.621-4.078-11.621-4.078s45.621-279.128 37.93-284.331c-28.893-19.546-76.699-7.505-76.699-7.505l-67.34 33.266c-35.086 20.322-56.261 51.462-56.261 88.518v180.452a91.113 91.113 0 0 0 46.189 79.268c4.708 2.718 102.584 51.429 160.82 85.048 9.243 5.336 14.95 15.183 14.95 25.856v164.909c0 15.234 21.715 27.584 48.501 27.584s48.501-12.35 48.501-27.584V627.859c2.71-46.981-5.187-60.384-21.994-73.611z" fill="#fff"/><path d="M302.384 847.87c-27.295 0-49.501-12.822-49.501-28.584V654.377c0-10.269-5.537-19.844-14.45-24.989-45.323-26.165-115.448-61.872-145.394-77.12-8.956-4.561-14.362-7.313-15.427-7.928-28.796-16.32-46.689-47.027-46.689-80.134V283.754c0-36.439 20.158-68.184 56.76-89.384l67.398-33.297a.988.988 0 0 1 .199-.073c.482-.121 48.575-11.924 77.503 7.647 1.594 1.078 5.328 3.604-15.652 145.091-9.684 65.312-20.325 130.855-21.702 139.317 2.492.625 8.959 2.363 11.102 4.042 5.038 3.948 10.536 9.186 14.261 12.884 4.156 4.126 4.689 10.578 1.267 15.341l-.206.286c9.955 6.319 99.175 62.945 107.536 67.773a.977.977 0 0 1 .118.08c17.641 13.884 25.058 27.929 22.375 74.454l.002 191.37c.001 15.763-22.205 28.585-49.5 28.585zM155.87 162.915l-67.241 33.217c-35.901 20.797-55.704 51.926-55.704 87.622v180.452c0 32.388 17.504 62.428 45.682 78.397 1.026.593 6.721 3.492 15.341 7.882 29.959 15.255 100.118 50.979 145.486 77.17 9.53 5.502 15.45 15.74 15.45 26.722v164.909c0 14.658 21.309 26.584 47.501 26.584s47.501-11.926 47.501-26.584V627.858c2.631-45.642-4.524-59.357-21.558-72.78-9.242-5.363-107.447-67.719-108.44-68.35a.999.999 0 0 1-.276-1.427l.824-1.146a9.819 9.819 0 0 0-1.052-12.753c-3.687-3.661-9.123-8.841-14.085-12.729-1.846-1.446-8.736-3.3-11.234-3.893a1 1 0 0 1-.757-1.134c18.006-110.167 43.034-276.362 38.3-283.38-27.564-18.59-73.276-7.944-75.738-7.351z"/><path d="M125.857 592.2c-15.473 11.202-31.169 11.454-38.09 1.893-6.921-9.56-8.685-17.225 6.788-28.427s42.896-12.803 48.414-5.615c7.187 9.363-1.638 20.947-17.112 32.149z"/><path d="M102.522 601.907c-6.515 0-12.066-2.394-15.565-7.227-2.977-4.113-5.921-9.03-5.184-14.323.705-5.062 4.58-9.987 12.196-15.5 7.154-5.18 17.783-8.877 28.432-9.89 10.306-.982 18.49.734 21.362 4.475 2.236 2.913 3.112 6.158 2.603 9.646-1.027 7.047-7.73 15.096-19.923 23.922-8.163 5.91-16.643 8.897-23.921 8.897zm25.316-45.171c-10.186 0-23.409 3.017-32.696 9.74-7.145 5.173-10.763 9.671-11.388 14.157-.515 3.699.883 7.43 4.823 12.874 6.728 9.293 22.16 8.402 36.693-2.117 11.739-8.499 18.17-16.1 19.116-22.592.433-2.974-.29-5.636-2.211-8.138-1.952-2.545-7.45-3.924-14.337-3.924zm-1.981 35.464h.01z"/><path d="M206.5 615.222c-3.439-3.495-14.544-16.319-14.544-16.319 11.97-6.831-.291-12.167-.291-12.167l-28.358-18.262s-12.53-9.559-26.201-11.703c-9.361-1.468-41.484 7.153-50.659 19.778-4.795 6.599 3.555 18.863 8.129 22.903 4.218 3.726 18.469 10.676 18.469 10.676l20.138 13.464 16.063 13.247s3.744 4.548 9.11 2.137c2.281-1.025 3.881-6.124 3.881-6.124s1.903 2.988 7.074 6.045c3.444 2.036 9.443 5.942 12.225 2.86 1.857-2.057.931-5.35.931-5.35s1.29.95 5.595 3.033c3.72 1.799 9.297 1.778 11.44-.908 1.864-2.337 2.193-5.095 2.098-7.164.328.655.635 1.144 1.514 1.176.285.01 6.086 1.992 7.998-5.327.659-2.524-.489-7.805-4.612-11.995z" fill="#fff"/><path d="M178.774 643.914c-3.016 0-6.627-2.158-9.293-3.751l-.679-.405c-3.135-1.853-5.12-3.69-6.239-4.912-.726 1.736-2.04 4.253-3.798 5.042-4.727 2.125-8.713-.557-10.227-2.336l-15.953-13.156-20.04-13.398c-1.157-.566-14.459-7.11-18.631-10.796-4.64-4.099-13.612-16.896-8.276-24.24 9.675-13.313 42.332-21.634 51.623-20.179 13.763 2.159 26.133 11.5 26.653 11.896l28.229 18.176c.73.332 5.841 2.793 6.052 6.695.125 2.306-1.457 4.521-4.705 6.597 2.585 2.974 10.872 12.479 13.722 15.375 4.234 4.303 5.668 9.882 4.867 12.947-1.277 4.888-4.568 7.1-9.029 6.082a2.88 2.88 0 0 1-.516-.067c-.237 2.17-1 4.103-2.251 5.672-2.516 3.153-8.576 3.159-12.657 1.185a76.585 76.585 0 0 1-3.93-2.022c-.002 1.268-.286 2.855-1.418 4.109-.964 1.067-2.177 1.486-3.504 1.486zm-16.538-12.063c.339 0 .658.172.843.463.016.025 1.875 2.847 6.74 5.723l.688.409c3.079 1.839 8.232 4.919 10.286 2.641 1.457-1.613.717-4.385.71-4.413a1.001 1.001 0 0 1 1.556-1.072c.01.007 1.321.945 5.438 2.938 3.31 1.6 8.385 1.671 10.223-.632 1.702-2.134 1.962-4.709 1.881-6.494-.021-.472.29-.895.747-1.014.455-.115.935.098 1.146.521.306.611.373.613.655.624.05.002.17.016.349.057 3.404.785 5.639-.779 6.646-4.638.551-2.106-.454-7.072-4.357-11.039-3.422-3.478-14.132-15.84-14.586-16.365a.998.998 0 0 1 .26-1.522c2.224-1.27 4.851-3.232 4.738-5.375-.127-2.393-3.604-4.427-4.933-5.008a1.004 1.004 0 0 1-.141-.076l-28.358-18.263c-.188-.14-12.562-9.478-25.815-11.556-8.706-1.369-40.59 6.849-49.696 19.378-4.156 5.72 3.093 17.247 7.982 21.566 4.068 3.593 18.104 10.457 18.245 10.526.041.02.08.042.117.067l20.138 13.464a.927.927 0 0 1 .08.06l16.063 13.247c.05.041.095.086.136.136.132.159 3.347 3.919 7.928 1.86 1.359-.61 2.768-3.705 3.336-5.512a.999.999 0 0 1 .955-.701z"/><path d="M180.737 623.592c4.419 4.069 5.127 7.487 5.091 9.704-.02 1.237-.257 7.993-4.641 9.604-3.981 1.463-6.458-.891-12.846-4.598" fill="#fff"/><path d="M178.883 644.341c-2.495 0-4.76-1.381-7.98-3.342a156.954 156.954 0 0 0-3.063-1.833 1 1 0 0 1 1.004-1.73c1.148.667 2.171 1.29 3.099 1.855 4.176 2.543 6.082 3.707 8.899 2.67 3.685-1.354 3.967-7.47 3.986-8.682.048-2.982-1.557-5.995-4.769-8.953a1 1 0 0 1 1.355-1.471c3.649 3.36 5.471 6.879 5.414 10.455-.032 2.024-.508 8.768-5.296 10.527-.939.347-1.807.504-2.649.504z"/><path d="M157.494 620.471c4.621 4.171 5.631 7.356 5.595 9.573-.02 1.237.178 6.11-3.839 8.492-3.132 1.858-6.816.727-10.005-1.697" fill="#fff"/><path d="M155.846 640.468c-2.273 0-4.733-.954-7.207-2.834a1 1 0 1 1 1.21-1.591c1.906 1.449 5.595 3.588 8.889 1.633 3.317-1.966 3.339-5.921 3.348-7.409l.002-.238c.042-2.658-1.729-5.624-5.265-8.815a1 1 0 0 1 1.339-1.484c3.984 3.595 5.977 7.071 5.925 10.331l-.002.218c-.009 1.627-.038 6.575-4.327 9.119a7.57 7.57 0 0 1-3.912 1.07zm39.572-19.165a.996.996 0 0 1-.758-.347l-11.638-13.485a35.382 35.382 0 0 0-9.371-7.692l-13.938-7.905a1 1 0 1 1 .987-1.74l13.938 7.905a37.421 37.421 0 0 1 9.898 8.126l11.638 13.485a1 1 0 0 1-.756 1.653zm-13.598 4.338a.997.997 0 0 1-.696-.282l-13.728-13.31a18.173 18.173 0 0 0-3.567-2.689l-20.152-11.59a1 1 0 1 1 .997-1.734l20.152 11.591a20.083 20.083 0 0 1 3.962 2.987l13.728 13.31a1 1 0 0 1-.696 1.717z"/><path d="M159.462 623.406a1 1 0 0 1-.701-.287l-9.549-9.391a23.297 23.297 0 0 0-4.855-3.66l-13.732-7.771a.999.999 0 1 1 .985-1.74l13.732 7.771a25.265 25.265 0 0 1 5.273 3.975l9.549 9.391a1 1 0 0 1-.702 1.712zm37.409-17.868a.996.996 0 0 1-.758-.348l-7.268-8.44c-1.962-2.232-5.046-5.078-7.496-6.386l-18.733-10.073a1 1 0 0 1 .947-1.761l18.73 10.072c2.852 1.521 6.125 4.634 8.061 6.836l7.275 8.448a1 1 0 0 1-.758 1.652z"/><path d="M194.2 618.893c6.062 6.314 8.108 9.868 8.072 12.085-.02 1.237.178 6.11-3.839 8.492-3.132 1.858-9.117 1.431-12.306-.993" fill="#fff"/><path d="M193.424 641.631c-2.862 0-5.874-.815-7.902-2.357a1 1 0 1 1 1.21-1.591c2.822 2.144 8.365 2.605 11.191.929 3.316-1.967 3.339-5.921 3.347-7.41l.002-.237c.034-2.128-2.588-5.956-7.794-11.377a1 1 0 1 1 1.443-1.385c5.82 6.061 8.396 10.007 8.351 12.793l-.002.218c-.009 1.626-.038 6.574-4.327 9.119-1.479.875-3.461 1.298-5.519 1.298z"/><path d="M391.967 479.265c4.84-4.313 15.448-15.517 16.056-23.005.566-6.967-11.467-10.504-11.467-10.504s-54.462-60.636-83.609-98.874c-7.96-24.316-48.514-144.701-53.158-154.975-1.738-3.846-3.883-7.216-6.342-10.136-14.094-17.845-39.55-21.681-39.55-21.681l-.001.001c-28.98-8.083-138.899 38.641-138.936 38.663-18.777 10.886-54.391 21.909-58.307 80.764-.007.11-6.171 142.368-6.329 144.759-1.172 17.77 40.661 72.119 79.874 73.737 110.332 4.552 167.189-69.721 167.189-69.721l-.14-18.78s10.996 13.397 14.204 17.417c5.981 7.493 25.493 22.543 25.493 22.543l75.93 42.738c.001-.002 11.196-5.909 19.093-12.946z" fill="#87C159"/><path d="M99.745 499.21c-3.152.001-6.342-.064-9.588-.198-26.138-1.078-49.649-24.228-58.545-34.131-13.695-15.246-22.859-31.97-22.286-40.67.129-1.954 4.4-100.356 5.804-132.692.522-12.037.523-12.042.525-12.068 3.487-52.416 32.386-67.579 51.51-77.613 2.612-1.371 5.079-2.665 7.293-3.949.919-.525 110.245-46.984 139.706-38.761v.002c2.844.444 26.504 4.848 40.068 22.021 2.561 3.04 4.744 6.528 6.469 10.344 4.633 10.25 44.854 129.606 53.144 154.915 27.969 36.67 79.76 94.555 83.271 98.473 1.915.61 12.484 4.312 11.904 11.459-.628 7.73-10.994 18.863-16.387 23.67-7.897 7.038-19.178 13.023-19.292 13.083a1.003 1.003 0 0 1-.957-.014l-75.93-42.737a.955.955 0 0 1-.12-.079c-.801-.618-19.677-15.211-25.664-22.712-2.382-2.983-9.146-11.246-12.402-15.219l.119 15.95a.995.995 0 0 1-.206.615c-.143.188-14.643 18.914-42.473 36.802-24.218 15.563-63.526 33.507-115.963 33.509zM75.41 199.648c-2.233 1.293-4.702 2.588-7.315 3.959-19.848 10.414-47.031 24.678-50.443 75.976l-.522 12.022c-1.552 35.763-5.677 130.761-5.807 132.736-.532 8.075 8.626 24.562 21.778 39.203 8.726 9.714 31.761 32.421 57.139 33.469 56.694 2.34 98.896-16.627 124.315-32.95 25.765-16.544 39.971-33.785 41.83-36.116l-.138-18.429a1 1 0 0 1 1.773-.642c.11.135 11.037 13.449 14.213 17.428 5.68 7.116 24.099 21.429 25.266 22.332l75.386 42.432c2.209-1.207 11.619-6.49 18.417-12.549 4.171-3.718 15.126-14.977 15.724-22.34.493-6.074-10.64-9.431-10.752-9.464a.99.99 0 0 1-.461-.291c-.545-.606-54.823-61.104-83.661-98.937a.992.992 0 0 1-.155-.295c-8.164-24.939-48.499-144.654-53.118-154.874-1.649-3.648-3.733-6.98-6.196-9.903-13.697-17.343-38.684-21.3-38.935-21.337a1.2 1.2 0 0 1-.119-.026c-28.309-7.897-135.386 37.386-138.219 38.596z"/><path d="M144.021 404.382s.426 30.277 0 36.567c-2.259 33.338-20.704 36.567-20.704 36.567l1.568-10.819c.786-5.42 2.957-10.524 6.177-14.954 2.094-2.881 4.373-6.641 5.741-10.794 5.063-15.366 7.218-36.567 7.218-36.567z"/><path d="M123.318 478.516a1.001 1.001 0 0 1-.99-1.143l1.568-10.82c.788-5.434 2.986-10.759 6.358-15.398 2.591-3.563 4.475-7.103 5.6-10.518 4.969-15.083 7.15-36.146 7.172-36.356.053-.526.512-.946 1.039-.897a1 1 0 0 1 .956.985c.017 1.237.422 30.389-.002 36.648-2.286 33.732-20.745 37.348-21.529 37.485a1.108 1.108 0 0 1-.172.014zm19.845-60.67c-1.184 7.15-2.962 15.989-5.409 23.415-1.19 3.613-3.169 7.337-5.882 11.068-3.182 4.378-5.255 9.396-5.997 14.51l-1.343 9.264c4.215-1.588 16.681-8.519 18.491-35.222.232-3.414.208-14.102.14-23.035z"/><path d="M56.452 208.881c-17.604 10.575-48.864 38.644-51.701 81.146 0 .114-3.391 135.689-3.543 138.083C.119 444.624 3.534 460.634 6 469.338c12.521 44.18 60.353 119.149 60.353 119.149 19.373 27.91 55.839 3.562 69.58-9.077 20.947-19.263 15.817-25.066 12.213-28.392-3.066-2.831-8.353-4.25-8.353-4.25L89.81 421.353s2.327-28.155 3.041-38.361c1.31-18.733 2.14-69.913 2.14-69.913" fill="#87C159"/><path d="M90.234 602.351c-1.226 0-2.449-.064-3.668-.199-8.584-.949-15.661-5.355-21.033-13.095-.5-.783-48.077-75.633-60.494-119.447-1.846-6.515-6.013-23.605-4.828-41.565.143-2.245 3.516-136.819 3.541-138.036 2.599-38.949 29.736-68.499 52.186-81.984a1 1 0 0 1 1.03 1.715C34.93 222.975 8.294 251.963 5.749 290.093c.002.757-3.394 135.745-3.542 138.08-1.164 17.651 2.938 34.477 4.757 40.892C19.3 512.596 66.72 587.201 67.197 587.949c5.007 7.212 11.604 11.332 19.589 12.216 1.154.127 2.318.188 3.481.188 20.791.002 42.464-19.355 44.99-21.68 10.077-9.267 15.189-16.438 15.193-21.315.003-2.631-1.471-4.212-2.981-5.606-2.844-2.625-7.884-4.005-7.935-4.019a1.002 1.002 0 0 1-.669-.596L88.881 421.723a1.014 1.014 0 0 1-.068-.452c.023-.282 2.334-28.266 3.04-38.349 1.293-18.493 2.129-69.349 2.138-69.86.009-.551.468-.95 1.016-.983a1 1 0 0 1 .984 1.017c-.008.512-.845 51.421-2.142 69.966-.672 9.604-2.796 35.401-3.022 38.14l49.717 124.743c1.425.435 5.597 1.859 8.283 4.338 1.268 1.171 3.628 3.35 3.625 7.078-.005 5.536-5.186 12.989-15.839 22.786-2.591 2.38-24.799 22.203-46.379 22.204z"/><path d="M90.497 577.459a1 1 0 0 1-.234-1.972c36.27-8.772 48.549-29.022 48.669-29.226a1 1 0 0 1 1.725 1.011c-.504.86-12.762 21.171-49.924 30.158a.959.959 0 0 1-.236.029zm282.349-110.872a1 1 0 0 1-.471-1.883c16.978-9.032 23.261-19.356 23.323-19.46a1 1 0 1 1 1.718 1.023c-.263.441-6.635 10.91-24.101 20.202a.983.983 0 0 1-.469.118zM144.02 405.382a1 1 0 0 1-.13-1.991c58.754-7.777 93.568-50.824 93.913-51.258a1 1 0 0 1 1.566 1.244c-.35.44-35.67 44.114-95.217 51.996a.976.976 0 0 1-.132.009z"/><path d="M257.253 411.334a1 1 0 0 1-.999-.959c-1.136-27.934-18.351-56.815-18.525-57.104a.996.996 0 0 1-.143-.516v-99.233a1 1 0 1 1 2 0v98.961c1.687 2.886 17.565 30.748 18.666 57.811a1 1 0 0 1-.958 1.04h-.041zm-36.856-188.933c0 17.843-34.901 7.707-64.99 7.707s-54.481-14.464-54.481-32.307 24.392-32.307 54.481-32.307 64.99 39.064 64.99 56.907z"/><path d="M201.51 233.975c-6.04 0-13.075-.637-20.568-1.315-8.419-.763-17.125-1.552-25.535-1.552-30.592 0-55.481-14.941-55.481-33.307s24.889-33.308 55.481-33.308c29.696 0 65.99 38.768 65.99 57.907 0 3.131-1.021 5.651-3.035 7.491-3.396 3.103-9.358 4.084-16.852 4.084zm-46.102-67.481c-29.49 0-53.481 14.045-53.481 31.308s23.991 31.307 53.481 31.307c8.501 0 17.252.793 25.716 1.56 15.637 1.416 30.408 2.755 35.89-2.252 1.604-1.466 2.384-3.433 2.384-6.015 0-8.577-8.401-22.41-20.904-34.424-14.212-13.654-29.916-21.484-43.086-21.484z"/><path d="m118.482 197.698-1.787-52.686 70.078 28.931 1.287 28.154c.222 4.861-1.125 9.698-3.993 13.629-5.827 7.987-18.576 18.042-43.75 9.954-19.011-6.108-21.515-18.555-21.835-27.982z" fill="#fff"/><path d="M157.559 229.592c-6.645 0-12.904-1.468-17.548-2.96-19.309-6.203-22.183-18.703-22.529-28.899l-1.787-52.687a1 1 0 0 1 1.381-.959l70.078 28.931c.359.148.6.491.617.879l1.287 28.154c.237 5.176-1.25 10.241-4.184 14.265-7.488 10.264-17.797 13.276-27.315 13.276zm-38.077-31.928c.324 9.542 3.019 21.241 21.141 27.063 23.863 7.665 36.357-.984 42.636-9.592 2.667-3.656 4.018-8.271 3.802-12.993l-1.258-27.519-68.056-28.096z"/><path d="m225.054 56.535 1.555 69.623a56.173 56.173 0 0 1-30.175 51.056c-30.865 16.103-69.664 3.263-81.919-29.322 0 0-15.649-20.797-18.624-28.152-4.422-10.932 6.87-113.794 90.893-103.331 36.629 4.562 38.27 40.126 38.27 40.126z" fill="#fff"/><path d="M168.229 185.151a60.728 60.728 0 0 1-21.693-3.991c-15.452-5.906-27.134-17.544-32.907-32.781-1.385-1.845-15.759-21.076-18.666-28.263-2.707-6.692.142-47.894 22.474-76.956 16.936-22.04 40.309-31.377 69.469-27.742 37.038 4.612 39.129 40.707 39.146 41.071l.001.023 1.555 69.623c.489 21.914-11.279 41.826-30.712 51.966a61.997 61.997 0 0 1-28.667 7.05zm6.8-168.493c-23.045 0-41.845 9.292-56.005 27.721-21.49 27.968-24.734 68.736-22.206 74.987 2.891 7.149 18.34 27.718 18.496 27.925.057.076.103.16.137.25 5.551 14.759 16.844 26.035 31.8 31.751 15.787 6.033 33.545 4.954 48.72-2.964 18.754-9.784 30.11-29 29.638-50.147l-1.554-69.61c-.077-1.577-2.141-34.777-37.395-39.168a94.081 94.081 0 0 0-11.631-.745z"/><path d="M144.915 1.777c14.675-2.009 47.577-1.15 64.72 15.213 18.078 17.255 15.436 40.31 15.436 40.31s-.005-6.892-8.38-13.612c-9.261-7.431-16.69-6.027-16.69-6.027s-15.152 17.859-54.473 25.498c-24.248 4.71-23.03 36.568-23.03 36.568l-.49 28.32-5.304 18.281.049 6.962s-34.904-1.719-33.093-90.269c.624-30.558 21.336-55.779 61.255-61.244z"/><path d="m116.753 154.29-.049-.001c-.376-.019-9.299-.588-17.98-12.332-11.415-15.442-16.82-42.006-16.064-78.956.323-15.811 5.914-29.884 16.167-40.699 10.85-11.445 26.74-18.885 45.954-21.516 17.34-2.371 49.107-.21 65.546 15.48 18.227 17.397 15.766 40.911 15.739 41.147-.06.525-.52.894-1.05.884a.999.999 0 0 1-.943-.997c-.001-.061-.155-6.533-8.006-12.833-7.693-6.173-14.092-5.994-15.564-5.862-2.231 2.459-17.867 18.364-54.782 25.535-23.115 4.491-22.233 35.239-22.221 35.549l-.49 28.376a1.005 1.005 0 0 1-.039.261l-5.263 18.142.048 6.815a1 1 0 0 1-1.003 1.007zM145.051 2.768c-18.758 2.567-34.24 9.798-44.774 20.908-9.905 10.448-15.305 24.061-15.618 39.365-.51 24.97 1.768 58.687 15.519 77.518 6.429 8.804 13.046 11.018 15.566 11.561l-.04-5.784a.981.981 0 0 1 .04-.285l5.267-18.153.488-28.188c-.012-.276-.279-8.183 2.469-16.804 3.685-11.561 11.075-18.729 21.37-20.729 20.101-3.905 33.688-10.541 41.546-15.42 8.509-5.283 12.319-9.7 12.356-9.744a1 1 0 0 1 .576-.335c.322-.062 7.99-1.403 17.501 6.229 3.398 2.728 5.477 5.486 6.749 7.85-.565-7.956-3.367-21.824-15.121-33.043C191.136.716 156.786 1.162 145.051 2.768z"/><path d="M188.32 133.138a10.082 10.082 0 0 0 5.527 1.639c5.596 0 10.133-4.537 10.133-10.133s-4.537-10.133-10.133-10.133" fill="#fff"/><path d="M193.847 135.777c-2.167 0-4.267-.623-6.074-1.802a1 1 0 0 1 1.093-1.676 9.088 9.088 0 0 0 4.981 1.478c5.036 0 9.133-4.098 9.133-9.134s-4.097-9.133-9.133-9.133a1 1 0 1 1 0-2c6.139 0 11.133 4.994 11.133 11.133 0 6.14-4.994 11.134-11.133 11.134z"/><path d="M205.497 146.643s-9.991 13.054-26.546 7.644" fill="#fff"/><path d="M186.814 156.589c-2.521 0-5.25-.396-8.175-1.352a1 1 0 1 1 .621-1.901c15.662 5.117 25.05-6.794 25.442-7.303a.999.999 0 0 1 1.588 1.215c-.086.115-7.316 9.341-19.476 9.341z"/><ellipse cx="206.808" cy="102.642" rx="2.828" ry="7.635"/><path d="M206.808 111.277c-2.513 0-3.827-4.345-3.827-8.636s1.315-8.635 3.827-8.635c2.513 0 3.828 4.344 3.828 8.635s-1.315 8.636-3.828 8.636zm0-15.27c-.47 0-1.827 2.281-1.827 6.635s1.358 6.636 1.827 6.636 1.828-2.281 1.828-6.636c-.001-4.354-1.359-6.635-1.828-6.635z"/><ellipse cx="169.871" cy="117.912" rx="2.828" ry="7.635"/><path d="M169.87 126.547c-2.513 0-3.828-4.344-3.828-8.635s1.315-8.635 3.828-8.635 3.828 4.344 3.828 8.635-1.315 8.635-3.828 8.635zm0-15.27c-.47 0-1.828 2.281-1.828 6.635s1.358 6.635 1.828 6.635 1.828-2.281 1.828-6.635-1.358-6.635-1.828-6.635z"/><path d="M215.453 86.428s-10.957-6.18-20.792 6.416" fill="#fff"/><path d="M194.66 93.843a1 1 0 0 1-.788-1.615c10.246-13.123 21.955-6.736 22.072-6.672a1 1 0 0 1-.98 1.743c-.418-.233-10.355-5.572-19.515 6.159a.996.996 0 0 1-.789.385z"/><path d="M174.415 100.191s-10.957-6.18-20.792 6.416" fill="#fff"/><path d="M153.622 107.607a1 1 0 0 1-.788-1.615c10.246-13.123 21.954-6.736 22.072-6.672a1 1 0 0 1-.98 1.743c-.418-.233-10.354-5.572-19.515 6.159a.996.996 0 0 1-.789.385z"/><path d="M122.498 131.037c-1.633-13.957-10.318-18.491-18.087-16.6s-12.189 11.142-9.872 20.663 15.976 19.855 23.746 17.965" fill="#fff"/><path d="M116.344 154.283c-8.386.001-20.532-9.728-22.776-18.947-1.175-4.828-.741-9.75 1.223-13.86 1.997-4.179 5.329-7.024 9.385-8.011 4.103-.999 8.19-.277 11.508 2.03 2.982 2.074 6.757 6.435 7.808 15.426a.999.999 0 0 1-.877 1.109.994.994 0 0 1-1.109-.877c-.764-6.531-3.172-11.378-6.964-14.016-2.84-1.978-6.354-2.59-9.893-1.729-3.46.842-6.32 3.303-8.052 6.93-1.766 3.695-2.151 8.144-1.084 12.525 2.194 9.018 15.253 19.003 22.538 17.229a1 1 0 0 1 .473 1.943 9.22 9.22 0 0 1-2.18.248z"/><path d="M225.206 192.865c-3.68-22.727-13.466-27.371-13.466-27.371s1.372.394-8.711 7.68c-8.67 6.265-15.927 7.967-15.927 7.967l.591 12.934s31.343 11.404 5.365 34.589c-33.472-5.708-78.671-16.265-78.671-37.308 0-8.12 3.466-11.993 3.466-11.993l-.533-25.2c-29.15 7.024-48.649 24.352-48.649 43.491 0 25.532 29.345 45.533 74.404 58.015 13.988 3.875 46.548 7.054 54.991 5.364 23.986-18.043 30.361-48.275 27.14-68.168z" fill="#87C159"/><path d="M190.975 262.493c-13.142.001-36.685-2.68-48.167-5.86-48.453-13.422-75.137-34.367-75.137-58.979 0-19.472 19.858-37.34 49.415-44.463a1 1 0 0 1 1.234.952l.533 25.199a1 1 0 0 1-.255.688c-.029.033-3.212 3.741-3.212 11.326 0 15.247 26.031 27.44 77.363 36.24 7.319-6.638 10.483-12.847 9.405-18.457-1.785-9.288-14.673-14.077-14.803-14.125a.998.998 0 0 1-.657-.894l-.591-12.935c-.022-.48.302-.908.77-1.02.071-.017 7.186-1.745 15.57-7.804 6.45-4.66 7.958-6.335 8.301-6.813a1.003 1.003 0 0 1 1.272-1.017.88.88 0 0 1 .151.06l.001-.002c.419.198 10.303 5.133 14.025 28.114 3.366 20.789-3.811 51.289-27.525 69.127a.998.998 0 0 1-.405.182c-1.647.331-4.176.481-7.288.481zm7.092-1.46h.01zm-81.72-105.599c-27.974 7.086-46.676 23.951-46.676 42.22 0 23.63 26.164 43.892 73.671 57.051 13.574 3.761 45.742 6.933 54.308 5.39 22.903-17.359 29.833-46.909 26.569-67.069-2.891-17.854-9.641-24.293-12.045-26.065-.942 1.146-3.214 3.162-8.56 7.024-7.16 5.174-13.323 7.281-15.477 7.911l.525 11.484c2.783 1.137 13.679 6.136 15.456 15.382 1.238 6.44-2.26 13.388-10.395 20.648a1 1 0 0 1-.834.239c-53.498-9.121-79.503-21.646-79.503-38.293 0-7.181 2.605-11.209 3.459-12.336z"/><path d="M178.739 323.997a1 1 0 0 1-1-1v-78.04a1 1 0 1 1 2 0v78.04a1 1 0 0 1-1 1zm30.973-20.193a1 1 0 0 1-1-1v-74.141a1 1 0 1 1 2 0v74.141a1 1 0 0 1-1 1z"/></svg></g><g transform="translate(1741.2 1834.8) rotate(90.0 332.4 332.4) translate(0.0 0.0) scale(1.2 1.2)"><svg width="466" height="553" viewBox="0 0 466 553"><clipPath id="a"><path d="m0 0 554 554H0V0"/></clipPath><path d="m0 0 554 554H0V0" clip-path="url(#a)"/></svg></g><g transform="translate(2032.8 1614.0) rotate(-22.320201269837433 225.60000000000002 225.5999999999999) scale(1.2000000000000002 1.1999999999999995)"><svg width="376" height="376" viewBox="0 0 376 376"><clipPath id="b"><rect width="376" height="376" fill="#040404" rx="0" ry="0" stroke="#000" stroke-width="0"/></clipPath><rect width="376" height="376" fill="#040404" rx="0" ry="0" clip-path="url(#b)"/></svg></g><g transform="translate(1426.8 846.0) rotate(0.0 63.60000000000002 190.19999999999993) scale(0.4709523827154553 0.4755035662767469)"><svg width="270.091" height="799.994" viewBox="0 0 270.091 799.994"><path d="m1 361.102 267.971 3.325-26.797 373.071s-.081 1.109-.125 1.66c-2.675 33.308-49.785 59.835-107.515 59.835-57.908 0-105.131-26.691-107.539-60.144-.032-.449-.102-1.351-.102-1.351L2.75 394.198 1 361.103z" fill="#FFF"/><path d="M134.533 799.994c-58.397 0-106.072-26.826-108.536-61.072l-.101-1.346L1.753 394.268.001 361.155a1.003 1.003 0 0 1 1.01-1.053l267.971 3.325a.996.996 0 0 1 .985 1.071L243.17 737.569s-.082 1.114-.125 1.668c-2.737 34.069-50.401 60.756-108.512 60.756zM2.055 362.115l1.694 32.029 24.142 343.284.102 1.35c1.142 15.866 12.665 30.717 32.448 41.817 19.997 11.22 46.31 17.399 74.093 17.399 57.077 0 103.865-25.879 106.519-58.915.043-.549.124-1.653.124-1.653l26.722-372.011-265.842-3.299z"/><path d="m268.61 369.446-1.874 26.088s-.376 1.663-.626 2.356c-12.831 35.312-67.004 61.761-131.32 61.761-65.214 0-119.528-27.231-131.382-63.27-.239-.727-.659-2.182-.659-2.182l-1.5-28.265v-.045l-.25-4.785 267.61 8.344z" fill="#fff"/><path d="M134.791 460.65c-64.489 0-120.142-26.898-132.331-63.958a88.956 88.956 0 0 1-.67-2.217 1 1 0 0 1-.038-.225L.001 361.154a.998.998 0 0 1 .284-.752.968.968 0 0 1 .746-.3l267.61 8.344a.998.998 0 0 1 .966 1.071l-1.874 26.088c-.004.05-.011.1-.022.149-.04.176-.397 1.744-.66 2.475-13.144 36.17-68.767 62.422-132.261 62.422zM3.743 394.03c.101.348.421 1.442.617 2.038 11.927 36.262 66.781 62.582 130.431 62.582 62.682 0 117.515-25.697 130.38-61.102.177-.492.459-1.664.573-2.162l1.794-24.973-265.483-8.277z"/><path d="M1.002 361.105c0 43.126 59.898 78.086 133.785 78.086s134.303-34.96 134.303-78.086-60.416-78.086-134.303-78.086S1.002 317.979 1.002 361.105z" fill="#fff"/><path d="M134.788 440.191C60.467 440.191.002 404.713.002 361.105s60.464-79.086 134.785-79.086 135.303 35.478 135.303 79.086-60.697 79.086-135.303 79.086zm0-156.172c-73.218 0-132.785 34.581-132.785 77.086s59.567 77.086 132.785 77.086 133.303-34.581 133.303-77.086-59.799-77.086-133.303-77.086z"/><ellipse cx="134.788" cy="357.985" fill="#FFF" rx="116.566" ry="61.344"/><path d="M134.788 420.329c-64.826 0-117.566-27.968-117.566-62.344s52.74-62.344 117.566-62.344 117.566 27.968 117.566 62.344-52.74 62.344-117.566 62.344zm0-122.689c-63.724 0-115.566 27.07-115.566 60.344s51.843 60.344 115.566 60.344 115.566-27.07 115.566-60.344-51.843-60.344-115.566-60.344z"/><path d="M23.328 375.991c14.616 25.094 58.986 43.335 111.459 43.335s96.854-18.241 111.47-43.335c-14.627-25.083-58.997-43.324-111.47-43.324-52.462 0-96.831 18.241-111.459 43.324z" fill="#dbf301"/><path d="M134.787 420.327c-51.914 0-97.053-17.615-112.323-43.832a1.002 1.002 0 0 1 0-1.007c15.285-26.21 60.424-43.82 112.323-43.82s97.049 17.61 112.333 43.82a.997.997 0 0 1 0 1.007c-15.27 26.217-60.414 43.832-112.334 43.832zM24.49 375.992c7.151 11.89 21.589 22.581 40.738 30.148 20.177 7.973 44.23 12.187 69.559 12.187s49.384-4.214 69.564-12.187c19.153-7.568 33.593-18.258 40.744-30.148-7.157-11.886-21.598-22.573-40.748-30.139-20.18-7.972-44.233-12.186-69.56-12.186s-49.372 4.214-69.55 12.186c-19.149 7.566-33.59 18.253-40.747 30.139zm40.82-103.345c-12.201 0-20.944-3.258-22.891-9.5-1.645-5.272 1.87-11.721 9.896-18.158 7.778-6.238 18.943-11.82 31.438-15.718s24.852-5.654 34.799-4.945c10.262.732 16.82 4.038 18.464 9.311 1.645 5.272-1.87 11.721-9.896 18.158-7.778 6.238-18.943 11.82-31.438 15.718-11.081 3.457-21.617 5.135-30.373 5.135zm-20.982-10.096c2.911 9.329 26.154 10.727 50.759 3.052 12.263-3.825 23.195-9.284 30.783-15.369 7.233-5.801 10.601-11.634 9.238-16.002-1.362-4.368-7.449-7.252-16.697-7.911-9.704-.691-21.799 1.034-34.062 4.859-12.263 3.826-23.195 9.284-30.783 15.369-7.233 5.801-10.601 11.634-9.238 16.002z"/><path d="m20.152 10.863-.09-.341.045-.009c-.33-3.684 4.233-7.645 10.572-9.03 6.637-1.45 12.695.474 13.531 4.298l86.435 329.741 11.127 42.346s0 5.467-11.912 5.383c-10.448-.074-12.945-4.568-12.945-4.568l-9.761-36.73L20.317 11.49c-.052-.151-.108-.301-.143-.459-.012-.055-.012-.112-.021-.168z" fill="#fff"/><path d="M130.133 384.252h-.279c-10.907-.077-13.699-4.878-13.813-5.082a.989.989 0 0 1-.092-.229l-9.761-36.73L19.35 11.744a3.793 3.793 0 0 1-.153-.499 2.667 2.667 0 0 1-.029-.194l-.072-.274a1 1 0 0 1-.003-.498c-.114-4.153 4.693-8.314 11.374-9.773 7.287-1.592 13.753.631 14.721 5.061l86.425 329.701 11.127 42.346c.021.083.033.168.033.254 0 .171-.045 1.713-1.601 3.258-2.089 2.075-5.803 3.126-11.039 3.126zm-12.292-5.978c.396.552 3.174 3.915 12.026 3.977h.263c9.456 0 10.516-3.647 10.63-4.304l-11.082-42.173L43.243 6.034c-.714-3.264-6.366-4.882-12.35-3.574-5.68 1.241-10.072 4.813-9.79 7.964.004.046.005.091.003.135l.013.049a1.203 1.203 0 0 1 .038.241c.013.059.046.146.077.234.009.025.043.127.05.152l86.837 330.464 9.72 36.574z"/><path d="M134.788 440.191C60.467 440.191.002 404.713.002 361.105c0-14.954 2.334-53.281 23.957-86.123 23.459-35.631 61.658-53.741 113.536-53.827h.285c36.602 0 66.864 11.687 89.956 34.742 33.434 33.378 42.354 81.837 42.354 105.208 0 43.608-60.697 79.086-135.303 79.086zm2.992-217.036h-.282C8.535 223.369 2.002 338.106 2.002 361.105c0 42.505 59.567 77.086 132.785 77.086S268.09 403.61 268.09 361.105c0-23.063-8.797-70.878-41.767-103.793-22.703-22.665-52.494-34.157-88.544-34.157z"/></svg></g><g transform="translate(2202.0 1408.8) rotate(-90.00000000000044 166.79999999999995 332.4) translate(0.0 0.0) scale(1.1999999999999997 1.2)"><svg width="234" height="553" viewBox="0 0 234 553"><clipPath id="c"><path d="m0 0 278 554H0V0"/></clipPath><path d="m0 0 278 554H0V0" clip-path="url(#c)"/></svg></g><g transform="translate(1424.3999999999999 846.0) rotate(0.0 64.80000000000007 188.39999999999998) scale(1.4875691558963309 1.475483017065167)"><svg width="87.122" height="255.374" viewBox="0 0 87.122 255.374"><g><path d="m1 115.338 85.084 1.056-8.508 118.455-.04.527c-.849 10.576-15.807 18.998-34.137 18.998s-33.381-8.475-34.145-19.097l-.032-.429-7.666-109.002L1 115.338Z" style="fill:#fff"/><path d="M43.399 255.374c-18.897 0-34.334-8.796-35.143-20.024l-.032-.425L.558 125.916l-.557-10.525c-.015-.276.086-.546.277-.746s.432-.311.733-.308l85.085 1.056a.997.997 0 0 1 .985 1.072l-8.55 118.994c-.896 11.166-16.328 19.915-35.133 19.915ZM2.055 116.351l.499 9.442 7.697 109.413c.721 10.018 15.591 18.168 33.147 18.168 17.77 0 32.327-7.941 33.14-18.079l.04-.519 8.433-117.396-82.957-1.029Z"/><path d="m85.97 117.987-.595 8.283s-.119.528-.199.748c-4.074 11.212-21.275 19.61-41.696 19.61-20.706 0-37.952-8.646-41.716-20.089-.076-.231-.209-.693-.209-.693l-.476-8.975v-.014L1 115.338l84.97 2.649Z" style="fill:#fff"/><path d="M43.48 147.628c-20.762 0-38.706-8.737-42.666-20.776-.08-.244-.22-.728-.22-.728a1 1 0 0 1-.038-.224l-.555-10.51a.995.995 0 0 1 .284-.751.947.947 0 0 1 .746-.3l84.97 2.649a.999.999 0 0 1 .966 1.071l-.595 8.283a.91.91 0 0 1-.021.148s-.142.613-.235.87c-4.266 11.744-22.196 20.268-42.635 20.268Zm-40.932-21.95c.042.145.117.399.167.55 3.697 11.241 20.842 19.4 40.766 19.4 19.626 0 36.767-7.97 40.756-18.951.05-.138.116-.419.146-.553l.515-7.17-82.842-2.583.493 9.307Z"/><path d="M1.001 115.338c0 13.693 19.018 24.793 42.479 24.793s42.643-11.1 42.643-24.793S66.94 90.545 43.48 90.545s-42.479 11.1-42.479 24.793Z" style="fill:#fff"/><path d="M43.479 141.132C19.505 141.132 0 129.561 0 115.339s19.504-25.793 43.479-25.793 43.643 11.571 43.643 25.793-19.578 25.793-43.643 25.793Zm0-49.587C20.608 91.545 2 102.219 2 115.338s18.607 23.793 41.479 23.793 41.643-10.674 41.643-23.793-18.681-23.793-41.643-23.793Z"/><ellipse cx="43.48" cy="114.348" rx="37.011" ry="19.478" style="fill:#fff"/><path d="M43.479 134.825c-20.959 0-38.011-9.186-38.011-20.478S22.52 93.869 43.479 93.869s38.012 9.186 38.012 20.478-17.052 20.478-38.012 20.478Zm0-38.955c-19.856 0-36.011 8.289-36.011 18.478s16.155 18.478 36.011 18.478 36.012-8.289 36.012-18.478S63.336 95.87 43.479 95.87Z"/><path d="M8.089 120.065c4.641 7.968 18.729 13.759 35.39 13.759s30.752-5.792 35.393-13.759c-4.644-7.964-18.732-13.756-35.393-13.756s-30.745 5.792-35.39 13.756Z" style="fill:#dbf301"/><path d="M43.479 134.824c-16.718 0-31.288-5.729-36.254-14.256a1.002 1.002 0 0 1 0-1.007c4.972-8.524 19.541-14.252 36.254-14.252s31.286 5.728 36.258 14.252c.181.312.181.696 0 1.007-4.968 8.526-19.538 14.256-36.258 14.256ZM9.262 120.065c4.855 7.538 18.779 12.759 34.217 12.759s29.365-5.221 34.221-12.759c-4.859-7.537-18.785-12.756-34.221-12.756s-29.357 5.22-34.217 12.756Zm12.17-32.142c-.503 0-.993-.017-1.466-.05-3.558-.254-5.854-1.473-6.466-3.434-1.362-4.367 5.976-9.241 13.572-11.611 7.597-2.369 16.404-2.532 17.768 1.834 1.361 4.367-5.978 9.241-13.573 11.611-3.456 1.078-6.888 1.65-9.835 1.65Zm6.236-13.186c-7.875 2.457-12.967 6.834-12.259 9.106.339 1.088 2.096 1.849 4.699 2.034 2.997.212 6.749-.324 10.563-1.514 7.875-2.457 12.968-6.834 12.259-9.106-.711-2.277-7.154-3.049-15.262-.521Z"/><path d="m7.081 4.132-.029-.108.014-.003c-.105-1.17 1.344-2.427 3.357-2.867 2.107-.46 4.031.151 4.296 1.365l27.444 104.697 3.533 13.445s0 1.736-3.782 1.709c-3.317-.023-4.11-1.45-4.11-1.45l-3.099-11.662L7.133 4.331c-.017-.048-.034-.096-.045-.146-.004-.017-.004-.036-.007-.053Z" style="fill:#fff"/><path d="M41.998 123.371h-.09c-3.792-.027-4.868-1.767-4.978-1.965a.989.989 0 0 1-.092-.229l-3.099-11.662L6.166 4.585a1.142 1.142 0 0 1-.068-.259l-.013-.05a.997.997 0 0 1-.024-.384C6.064 2.251 7.765.711 10.21.176c1.188-.259 2.378-.232 3.354.078 1.15.365 1.927 1.113 2.132 2.05l30.967 118.102a.99.99 0 0 1 .033.254c0 .136-.034.848-.71 1.519-.796.79-2.138 1.19-3.989 1.191Zm-3.276-2.891c.187.188 1.01.875 3.199.89 1.896.015 2.575-.456 2.741-.709l-3.466-13.191L13.752 2.772c-.056-.253-.356-.472-.792-.611-.639-.202-1.485-.214-2.323-.03-1.638.358-2.619 1.306-2.574 1.801l.001.02.004.027.032.099 27.572 104.926 3.05 11.477Z"/><path d="M43.479 141.132C19.505 141.132 0 129.561 0 115.339c0-7.522 2.139-45.049 44.338-45.119h.091c11.809 0 21.581 3.778 29.044 11.23 10.774 10.756 13.648 26.362 13.648 33.888 0 14.222-19.578 25.793-43.643 25.793Zm.949-68.912h-.088c-16.001.026-27.76 5.577-34.95 16.498C2.721 98.848 2 110.71 2 115.339c0 13.12 18.607 23.793 41.479 23.793s41.643-10.674 41.643-23.793c0-7.218-2.751-22.18-13.061-32.473-7.076-7.064-16.374-10.646-27.633-10.646Z"/></g></svg></g></svg>