<svg xmlns="http://www.w3.org/2000/svg" viewBox="0 0 3000 3000" width="3000" height="3000"><g transform="translate(2221.2 980.4) rotate(0.0 83.40000000000009 205.2) scale(1.5620025096922834 1.5721186443924322)"><svg width="106.786" height="261.049" viewBox="0 0 106.786 261.049"><g fill="#FFF"><path d="M2 28.84a2.002 2.002 0 0 1-2-2.002l.01-14.87C-.175 7.792 1.855 3.931 5.444 1.729a11.623 11.623 0 0 1 11.788-.226l5.923 3.344a2 2 0 1 1-1.967 3.483l-5.923-3.344c-2.438-1.378-5.328-1.321-7.729.152-2.366 1.452-3.652 3.91-3.527 6.743L4.001 26.84a2 2 0 0 1-2 1.999zm23.956 193.715c-.341 0-.686-.087-1.002-.271l-6.08-3.529C7.621 212.224.608 200.084.573 187.073l-.034-10.737a2 2 0 0 1 1.993-2.006h.007a2 2 0 0 1 2 1.994l.034 10.738c.031 11.595 6.28 22.413 16.309 28.234l6.08 3.529a2 2 0 0 1-1.005 3.73zm68.884 38.498c-1.999 0-3.998-.528-5.818-1.585l-13.187-7.653a2 2 0 0 1 2.007-3.46l13.187 7.653c2.375 1.378 5.213 1.384 7.594.016s3.805-3.824 3.81-6.57l.032-16.226a2 2 0 0 1 2-1.996h.004a2 2 0 0 1 1.996 2.004l-.032 16.225c-.007 4.192-2.182 7.942-5.816 10.03a11.57 11.57 0 0 1-5.776 1.56zm9.946-176.338a2 2 0 0 1-2-2v-8.808a33.346 33.346 0 0 0-16.929-29.059L75.855 39.2a2 2 0 1 1 1.967-3.483l10.002 5.648a37.352 37.352 0 0 1 18.962 32.546v8.805a2 2 0 0 1-2 2z"/></g></svg></g><g transform="translate(2160.0 966.0) rotate(0.0 136.20000000000005 221.39999999999998) scale(1.1797825804495652 1.1839762135221419)"><svg width="230.89" height="373.994" viewBox="0 0 230.89 373.994"><path d="M229.89 281.939c0-37.619-21.497-69.232-57.117-89.863l-68.363-33.771s-48.532-12.224-77.864 7.619C16.808 172.512 1 182.825 1 205.26v65.072c0 5.64 3.101 10.824 8.071 13.491l128.777 69.107s44.313 26.199 74.648 18.722c10.311-2.541 17.393-12.04 17.393-22.66v-67.054z" fill="#adc4cb"/><path d="M200.473 374.009c-28.561 0-61.544-19.279-63.133-20.218L8.598 284.704A16.288 16.288 0 0 1 0 270.332V205.26c0-22.602 15.967-33.393 25.507-39.841l.479-.324c29.364-19.864 78.18-7.884 78.669-7.761.069.017.135.042.199.073l68.363 33.771c37.212 21.551 57.674 53.772 57.674 90.76v67.054c0 11.279-7.465 20.996-18.154 23.631-3.913.964-8.041 1.386-12.263 1.386zM71.444 155.625c-14.633 0-31.447 2.406-44.337 11.126l-.48.325c-9.806 6.628-24.626 16.644-24.626 38.184v65.072a14.292 14.292 0 0 0 7.543 12.61l128.778 69.107c.417.246 34.107 19.935 62.343 19.937 4.013 0 7.911-.397 11.593-1.305 9.793-2.414 16.632-11.332 16.632-21.688v-67.054c0-36.244-20.107-67.851-56.618-88.998l-68.207-33.691c-1.34-.324-15.485-3.624-32.623-3.624z"/><path d="M143.374 356.947h-.017a1 1 0 0 1-.984-1.016l1.134-70.861c.009-.552.462-.966 1.016-.984a1 1 0 0 1 .984 1.016l-1.134 70.861a1 1 0 0 1-1 .984z"/><path d="m144.544 198.787 1.797-52.978L75.875 174.9l-1.294 28.31c-.223 4.888 1.131 9.752 4.015 13.705 5.86 8.032 18.679 18.142 43.992 10.01 19.116-6.141 21.634-18.657 21.956-28.137z" fill="#fff"/><path d="M105.335 230.9c-15.046 0-23.442-7.769-27.547-13.396-2.95-4.044-4.443-9.136-4.206-14.339l1.294-28.31a.999.999 0 0 1 .617-.878l70.466-29.091a1.002 1.002 0 0 1 1.381.958l-1.797 52.978c-.348 10.252-3.237 22.819-22.65 29.056-6.667 2.142-12.49 3.023-17.559 3.023zm-28.49-55.318-1.265 27.674c-.217 4.75 1.141 9.392 3.824 13.069 6.314 8.656 18.879 17.355 42.878 9.647 18.226-5.855 20.937-17.622 21.262-27.219l1.745-51.428z"/><path d="m37.382 56.843-1.563 70.009a56.483 56.483 0 0 0 30.342 51.339c31.036 16.193 70.05 3.281 82.373-29.484 0 0 15.736-20.913 18.727-28.308 4.446-10.993-6.908-114.424-91.396-103.903-36.833 4.587-38.483 40.348-38.483 40.348z" fill="#fff"/><path d="M94.522 186.166a62.342 62.342 0 0 1-28.823-7.088c-19.54-10.195-31.372-30.215-30.88-52.249l1.563-70.009v-.023c.017-.366 2.12-36.657 39.358-41.294 29.322-3.654 52.821 5.734 69.849 27.895 22.454 29.222 25.319 70.648 22.598 77.376-2.922 7.227-17.379 26.569-18.769 28.42-5.805 15.319-17.55 27.021-33.086 32.959a61.072 61.072 0 0 1-21.812 4.013zM38.382 56.878l-1.563 69.996c-.475 21.266 10.945 40.59 29.805 50.43 15.261 7.962 33.119 9.049 48.996 2.98 15.04-5.749 26.396-17.088 31.979-31.93.034-.089.08-.173.137-.249.156-.208 15.691-20.892 18.598-28.082 2.542-6.286-.718-47.283-22.329-75.407-16.566-21.559-39.447-30.685-68.017-27.129-35.454 4.415-37.529 37.804-37.607 39.391z"/><path d="M117.964 1.782C103.208-.238 70.124.626 52.886 17.079c-18.178 17.35-15.521 40.533-15.521 40.533s.005-6.93 8.426-13.687c9.312-7.473 16.782-6.06 16.782-6.06s15.236 17.958 54.775 25.639c24.382 4.737 23.157 36.771 23.157 36.771l.493 28.477 5.333 18.382-.049 7s35.097-1.728 33.277-90.769c-.628-30.728-21.455-56.088-61.595-61.583z" fill="#fff"/><path d="M146.283 155.134a1 1 0 0 1-1-1.007l.048-6.854-5.292-18.242a1.052 1.052 0 0 1-.04-.262l-.493-28.477c.012-.367.9-31.29-22.349-35.807C80.03 57.273 64.31 41.274 62.073 38.809c-1.465-.14-7.909-.32-15.656 5.896-7.897 6.336-8.052 12.848-8.052 12.913-.005.528-.42.963-.948.991a.992.992 0 0 1-1.046-.882c-.027-.237-2.501-23.878 15.824-41.37C68.725.579 100.666-1.596 118.1.791c19.319 2.645 35.296 10.125 46.205 21.632 10.309 10.875 15.929 25.025 16.254 40.921.76 37.153-4.674 63.863-16.151 79.39-8.728 11.807-17.698 12.379-18.076 12.398h-.049zm-4.287-26.533 5.296 18.254c.027.093.04.189.04.286l-.041 5.824c2.527-.543 9.188-2.765 15.662-11.628 7.633-10.452 16.537-32.459 15.606-77.951-.661-32.35-23.932-55.576-60.731-60.613C106.03 1.157 71.485.71 53.576 17.803 41.743 29.097 38.932 43.06 38.368 51.057c1.278-2.38 3.371-5.163 6.797-7.913 9.562-7.672 17.271-6.324 17.594-6.263.224.042.428.161.576.334.151.177 15.531 17.792 54.204 25.306 24.935 4.844 23.979 37.462 23.966 37.791l.492 28.289z"/><path d="M74.32 133.87a10.144 10.144 0 0 1-5.558 1.648c-5.627 0-10.189-4.562-10.189-10.189s4.562-10.189 10.189-10.189" fill="#fff"/><path d="M68.762 136.518c-6.17 0-11.189-5.02-11.189-11.189s5.02-11.189 11.189-11.189a1 1 0 0 1 0 2c-5.067 0-9.189 4.123-9.189 9.189s4.123 9.189 9.189 9.189a9.154 9.154 0 0 0 5.012-1.486 1 1 0 1 1 1.092 1.676 11.153 11.153 0 0 1-6.104 1.81z"/><path d="M57.048 147.45s10.046 13.127 26.693 7.687" fill="#fff"/><path d="M75.833 157.445c-12.226 0-19.493-9.274-19.58-9.388a1 1 0 0 1 1.588-1.217c.394.513 9.839 12.492 25.589 7.345a.999.999 0 1 1 .621 1.901c-2.939.96-5.685 1.358-8.218 1.358z"/><ellipse cx="55.729" cy="103.205" rx="2.843" ry="7.677"/><path d="M55.729 111.882c-2.523 0-3.843-4.365-3.843-8.678s1.32-8.677 3.843-8.677 3.843 4.365 3.843 8.677-1.32 8.678-3.843 8.678zm0-15.355c-.535 0-1.843 2.34-1.843 6.677s1.308 6.678 1.843 6.678 1.843-2.34 1.843-6.678-1.308-6.677-1.843-6.677z"/><ellipse cx="92.871" cy="118.56" rx="2.843" ry="7.677"/><path d="M92.871 127.237c-2.523 0-3.843-4.365-3.843-8.678s1.32-8.677 3.843-8.677 3.843 4.365 3.843 8.677-1.32 8.678-3.843 8.678zm0-15.355c-.535 0-1.843 2.34-1.843 6.677s1.308 6.678 1.843 6.678 1.843-2.34 1.843-6.678-1.308-6.677-1.843-6.677z"/><path d="M47.036 86.901s11.018-6.214 20.907 6.452" fill="#fff"/><path d="M67.945 94.353a1 1 0 0 1-.789-.385c-9.253-11.851-19.526-6.255-19.628-6.196a1 1 0 1 1-.982-1.742c.117-.066 11.888-6.482 22.187 6.708a.999.999 0 0 1-.788 1.615z"/><path d="M88.301 100.741s11.018-6.214 20.907 6.452" fill="#fff"/><path d="M109.209 108.193a1 1 0 0 1-.789-.385c-9.215-11.8-19.21-6.429-19.631-6.194-.48.267-1.09.096-1.36-.384a.998.998 0 0 1 .38-1.359c.118-.066 11.888-6.483 22.187 6.708a.999.999 0 0 1-.788 1.615z"/><path d="M140.506 131.757c1.642-14.034 10.375-18.594 18.187-16.692 7.812 1.901 12.257 11.204 9.927 20.778s-16.065 19.965-23.877 18.064" fill="#fff"/><path d="M146.727 155.13a9.393 9.393 0 0 1-2.221-.252 1 1 0 1 1 .473-1.943c3.33.811 8.37-.935 13.154-4.555 4.843-3.664 8.489-8.559 9.515-12.774 1.073-4.407.686-8.881-1.09-12.599-1.743-3.648-4.62-6.124-8.101-6.971-3.561-.867-7.095-.249-9.953 1.74-3.814 2.653-6.236 7.528-7.005 14.097a1 1 0 0 1-1.986-.232c1.057-9.039 4.852-13.421 7.849-15.506 3.334-2.32 7.443-3.044 11.568-2.042 4.076.992 7.426 3.852 9.433 8.052 1.974 4.132 2.411 9.08 1.229 13.934-1.147 4.713-4.979 9.908-10.251 13.896-4.396 3.325-8.937 5.155-12.613 5.155zM26.575 294.216h-.02a1.001 1.001 0 0 1-.981-1.019l1.1-57.733c.011-.552.497-.988 1.019-.981.552.011.991.467.981 1.019l-1.1 57.733a1 1 0 0 1-1 .981z"/></svg></g><g transform="translate(1468.8 471.59999999999997) rotate(0.0 611.4 849.5999999999999) scale(3.3156272115705305 3.3179075625329504)"><svg width="368.799" height="512.13" viewBox="0 0 368.799 512.13"><path d="m232.092 409.059-85.874-49.579-.003 60.49c0 8.019-4.275 15.43-11.218 19.445l-35.752 22.136 85.874 49.579 35.752-22.135c6.943-4.014 11.222-8.095 11.218-19.445z" fill="#fff"/><path d="M185.118 512.13c-.172 0-.345-.045-.5-.134l-85.874-49.579a.999.999 0 0 1-.026-1.717l35.752-22.135c6.637-3.838 10.744-10.957 10.744-18.594l.003-60.49a.998.998 0 0 1 1.5-.866l85.874 49.579c.31.178.5.509.5.866l-.003 60.491c.003 11.376-4.115 15.915-11.717 20.311l-35.727 22.119a1.003 1.003 0 0 1-.526.149zm-83.925-50.609 83.907 48.444 35.244-21.82c7.137-4.127 10.747-8.13 10.744-18.594l.003-59.914-83.874-48.425-.003 58.759c0 8.349-4.49 16.131-11.717 20.31z"/><path d="M232.089 409.06v60.49c0 11.35-4.28 15.43-11.22 19.45l-35.75 22.13-.06-.03.06-17.5 29.34-16.97c5.03-2.9 8.12-8.27 8.12-14.08v-48.16l-76.36-44.09-9.511-5.494 9.511-5.326z"/><path d="M185.118 512.13c-.153 0-.306-.035-.447-.105-.34-.17-.614-.548-.613-.928l.06-17.5a.997.997 0 0 1 .5-.862l29.34-16.97c4.701-2.71 7.621-7.773 7.621-13.214v-47.583l-85.371-49.295a1 1 0 0 1 .011-1.739l9.511-5.326a1 1 0 0 1 .989.007l85.87 49.58c.31.178.5.509.5.866v60.49c0 11.371-4.119 15.913-11.719 20.315l-35.725 22.115a1.006 1.006 0 0 1-.527.149zm.998-17.952-.052 15.19 34.278-21.219c7.136-4.134 10.747-8.139 10.747-18.6v-59.913l-84.878-49.007-7.481 4.189 84.349 48.705a1 1 0 0 1 .5.866v48.16c0 6.154-3.303 11.881-8.621 14.946z"/><path d="m222.581 414.385-85.874-49.579v48.137a16.319 16.319 0 0 1-8.149 14.126l-29.31 16.948 85.874 49.579 29.336-16.962a16.264 16.264 0 0 0 8.123-14.079z" fill="#fff"/><path d="M185.122 494.596c-.173 0-.345-.045-.5-.134l-85.874-49.579a1 1 0 0 1 0-1.732l29.31-16.948a15.36 15.36 0 0 0 7.649-13.26v-48.137a.998.998 0 0 1 1.5-.866l85.874 49.579c.31.178.5.509.5.866v48.169c0 6.143-3.304 11.87-8.622 14.945l-29.336 16.962a1 1 0 0 1-.501.135zm-83.875-50.58 83.874 48.425 28.836-16.673a15.307 15.307 0 0 0 7.623-13.213v-47.592l-83.874-48.425v46.406a17.365 17.365 0 0 1-8.648 14.991z"/><path d="M185.057 511.102 99.248 461.56v-17.506l85.809 49.542z" fill="#fff"/><path d="M185.057 512.102c-.173 0-.345-.045-.5-.134l-85.809-49.542a.998.998 0 0 1-.5-.866v-17.506a.998.998 0 0 1 1.5-.866l85.809 49.542c.31.178.5.509.5.866v17.506a.998.998 0 0 1-1 1zm-84.809-51.119 83.809 48.387v-15.197l-83.809-48.387z"/><path d="M358.41 504.273 14.774 305.071a6.246 6.246 0 0 1-3.115-5.382L10.507 7.285c-.019-4.819 5.192-7.845 9.368-5.441l343.014 197.493a9.79 9.79 0 0 1 4.904 8.483v291.046c.001 4.816-5.217 7.822-9.383 5.407z" fill="#fff"/><path d="M361.544 506.128a7.24 7.24 0 0 1-3.636-.989L14.273 305.936a7.277 7.277 0 0 1-3.614-6.244L9.507 7.289A7.173 7.173 0 0 1 13.115.992a7.176 7.176 0 0 1 7.259-.014l343.014 197.493a10.817 10.817 0 0 1 5.405 9.35v291.046a7.176 7.176 0 0 1-3.63 6.282 7.244 7.244 0 0 1-3.619.979zm-2.633-2.72a5.195 5.195 0 0 0 5.253.007 5.196 5.196 0 0 0 2.629-4.549V207.82a8.81 8.81 0 0 0-4.403-7.616L19.377 2.711c-1.648-.949-3.612-.945-5.256.01s-2.62 2.659-2.613 4.56l1.152 292.404a5.268 5.268 0 0 0 2.617 4.521z"/><path d="m357.371 208.95 9.305-5.682a9.782 9.782 0 0 1 1.124 4.553v291.05c0 2.981-1.769 4.651-3.934 6.131-1.133.774-8.06 4.996-8.06 4.996l2.484-5.797V212.74a8.313 8.313 0 0 0-.919-3.79"/><path d="M355.805 510.997a1 1 0 0 1-.92-1.393l2.403-5.608V212.74a7.32 7.32 0 0 0-.807-3.333 1 1 0 0 1 .368-1.311l9.305-5.682a.998.998 0 0 1 1.406.389 10.826 10.826 0 0 1 1.238 5.018v291.05c0 3.49-2.1 5.406-4.37 6.957-1.141.78-7.819 4.852-8.103 5.024-.16.097-.341.145-.52.145zm2.839-301.653a9.332 9.332 0 0 1 .644 3.396V504.2a.993.993 0 0 1-.081.394l-1.248 2.913c2.073-1.272 4.696-2.891 5.34-3.331 2.16-1.476 3.499-2.878 3.499-5.305V207.82a8.844 8.844 0 0 0-.568-3.109zm-.356 294.856h.01z"/><path d="m357.177 208.595.193.355 9.222-5.836a9.75 9.75 0 0 0-3.704-3.774L19.879 1.84a6.177 6.177 0 0 0-5.265-.452c-2.326.858-9.477 5.487-9.477 5.487l5.372.845 343.63 197.84a8.28 8.28 0 0 1 3.038 3.035" fill="#fff"/><path d="M357.371 209.95a1 1 0 0 1-.878-.522l-.188-.343a7.295 7.295 0 0 0-2.666-2.659L10.17 8.679l-5.188-.816a1 1 0 0 1-.389-1.828c.296-.192 7.271-4.699 9.674-5.586a7.221 7.221 0 0 1 6.109.523l343.011 197.5a10.747 10.747 0 0 1 4.082 4.159 1 1 0 0 1-.342 1.326l-9.222 5.836a.984.984 0 0 1-.534.157zM7.913 6.299l2.751.433c.121.019.238.06.344.121l343.63 197.84a9.294 9.294 0 0 1 3.068 2.861l7.516-4.756a8.74 8.74 0 0 0-2.83-2.59L19.379 2.707c-1.374-.789-2.943-.925-4.419-.381-1.329.49-4.607 2.453-7.047 3.973z"/><path d="M349.336 510.314 8.695 312.847a13.153 13.153 0 0 1-6.557-11.328L1 12.576c-.018-4.597 4.953-7.484 8.937-5.19L354.14 205.563a8.281 8.281 0 0 1 4.148 7.175v292.418c0 4.594-4.977 7.462-8.952 5.158z" fill="#ADC4CB"/><path d="M352.326 512.129c-1.2 0-2.399-.317-3.491-.95L8.193 313.712a14.201 14.201 0 0 1-7.055-12.189L0 12.58c-.01-2.521 1.286-4.782 3.466-6.048s4.786-1.271 6.97-.013l344.203 198.178a9.303 9.303 0 0 1 4.649 8.042v292.417a6.89 6.89 0 0 1-3.486 6.033 6.952 6.952 0 0 1-3.476.94zM6.962 7.582a4.96 4.96 0 0 0-2.492.679A4.914 4.914 0 0 0 2 12.572l1.138 288.943c.017 4.3 2.338 8.31 6.058 10.467l340.641 197.467a4.911 4.911 0 0 0 4.966.007 4.91 4.91 0 0 0 2.485-4.3V212.738a7.296 7.296 0 0 0-3.647-6.308L9.438 8.252a4.949 4.949 0 0 0-2.476-.67z"/><path d="M335.618 489.985 22.515 308.482a12.09 12.09 0 0 1-6.027-10.412L15.442 32.486c-.017-4.225 4.553-6.879 8.215-4.771l316.377 182.157a7.61 7.61 0 0 1 3.813 6.595v268.778c-.001 4.222-4.576 6.858-8.229 4.74z" fill="#fff"/><path d="M338.366 491.735a6.473 6.473 0 0 1-3.25-.884L22.013 309.347a13.137 13.137 0 0 1-6.525-11.274L14.442 32.49a6.415 6.415 0 0 1 3.226-5.629 6.414 6.414 0 0 1 6.488-.012l316.376 182.157a8.632 8.632 0 0 1 4.314 7.461v268.778a6.414 6.414 0 0 1-3.245 5.615 6.472 6.472 0 0 1-3.235.875zM20.922 27.977a4.47 4.47 0 0 0-2.25.614 4.435 4.435 0 0 0-2.23 3.892l1.046 265.584a11.128 11.128 0 0 0 5.528 9.551L336.119 489.12a4.432 4.432 0 0 0 4.483.006 4.435 4.435 0 0 0 2.244-3.882V216.466a6.627 6.627 0 0 0-3.312-5.728L23.158 28.582a4.462 4.462 0 0 0-2.236-.605z"/></svg></g><g transform="translate(346.8 1284.0) rotate(0.0 773.4 2080.7999999999997) translate(0.0 0.0) scale(3.0213592991571523 3.025658772927275)"><svg width="511.558" height="340.29" viewBox="0 0 511.558 340.29"><path d="m302.866 174.189 49.482 72.453-42.554 20.631-16.698-38.904-17.243-33.921s-13.938-1.663-13.938-5.5 40.952-14.759 40.952-14.759z" fill="#adc4cb"/><path d="M309.794 268.273a.997.997 0 0 1-.919-.605l-16.698-38.905-16.975-33.388c-3.971-.512-14.288-2.246-14.288-6.427a1 1 0 0 1 .661-.941l40.952-14.759a1 1 0 0 1 1.165.377l49.482 72.453a1 1 0 0 1-.389 1.464l-42.553 20.631c-.137.066-.287.1-.436.1zm-46.626-78.714c1.284 1.59 7.218 3.229 12.803 3.896a1 1 0 0 1 .773.54l17.243 33.921 16.313 38.001 40.568-19.668-48.391-70.856-39.309 14.167z"/><path d="M360.889 237.302s-16.54-35.825-34.567-51.676c-5.621-4.943-12.392-9.909-17.884-13.854-5.375-3.86-13.563-3.729-19.963-2.049l-13.033 3.421a6.684 6.684 0 0 0 2.067 13.138l18.652-1.731s11.305 10.693 11.654 23.962c.078 2.95-.618 5.906-1.505 8.438a559.455 559.455 0 0 1-17.52-22.804 7.872 7.872 0 0 0-10.37-2.143 7.867 7.867 0 0 0-3.546 9.053c2.307 7.617 6.148 24.448 14.435 35.199 12.633 16.389 23.307 27.576 23.307 27.576l5.718-5.897 42.553-20.631z" fill="#fff"/><path d="M312.617 264.83h-.004a.997.997 0 0 1-.719-.31c-.107-.112-10.856-11.412-23.375-27.656-7.184-9.32-11.123-23.279-13.477-31.619-.414-1.467-.785-2.783-1.124-3.901a8.847 8.847 0 0 1 3.995-10.204 8.843 8.843 0 0 1 11.687 2.417 559.693 559.693 0 0 0 16.322 21.32c.646-2.268.947-4.395.895-6.339-.302-11.461-9.226-21.115-11.027-22.949l-18.187 1.688c-2.162.118-4.193-.621-5.743-2.087s-2.403-3.448-2.403-5.582a7.687 7.687 0 0 1 5.733-7.432l13.032-3.421c3.046-.799 13.549-3.004 20.8 2.204 5.762 4.138 12.402 9.027 17.961 13.915 17.978 15.808 34.648 51.648 34.815 52.008a1 1 0 0 1-.472 1.319l-42.395 20.554-5.595 5.77a1 1 0 0 1-.718.304zm-30.181-72.929a6.894 6.894 0 0 0-3.507.963 6.85 6.85 0 0 0-3.097 7.901c.342 1.128.717 2.457 1.135 3.937 2.314 8.201 6.188 21.927 13.136 30.941 10.615 13.772 19.937 23.958 22.527 26.738l4.989-5.144c.081-.084.177-.153.281-.204l41.662-20.199c-2.684-5.61-17.809-36.309-33.9-50.458-5.494-4.831-12.084-9.683-17.807-13.792-5.199-3.734-13.289-3.427-19.126-1.894l-13.032 3.421a5.686 5.686 0 0 0-4.24 5.497 5.63 5.63 0 0 0 1.778 4.129 5.63 5.63 0 0 0 4.221 1.546l18.615-1.728c.284-.026.57.072.78.269.474.448 11.61 11.134 11.966 24.662.071 2.679-.455 5.638-1.562 8.795a.999.999 0 0 1-1.72.299 558.29 558.29 0 0 1-17.552-22.846 6.843 6.843 0 0 0-5.546-2.834zM159.547 1298.685l-63.067-31.602v-60.21l117.321-1.741 12.776 51.29z"/><path d="M159.547 1299.685a.997.997 0 0 1-.448-.106l-63.067-31.602a1 1 0 0 1-.552-.894v-60.21a1 1 0 0 1 .985-1l117.321-1.741a.994.994 0 0 1 .985.758l12.776 51.29a1 1 0 0 1-.437 1.087l-67.029 42.263a.994.994 0 0 1-.533.154zm-62.067-33.22 62.011 31.073 65.94-41.577-12.409-49.818-115.542 1.714v58.607z"/><path d="M193.257 1269.717c-9.791 3.326-14.62 13.89-32.828 16.676-40.56 2.31-58.007-14.471-63.949-28.667.314 4.205 0 11.296 0 14.541 0 18.735 20.147 35.242 61.131 32.703 19.748-1.488 25.855-12.76 35.646-16.086 21.294-7.234 35.921-7.244 35.921-21.801 0-3.701-.919-7.274-2.601-10.661-5.101 6.504-17.33 7.863-33.32 13.295z" fill="#fff"/><path d="M149.587 1306.224c-19.684 0-35.447-4.753-44.92-13.658-6.01-5.649-9.187-12.668-9.187-20.299 0-.951.027-2.23.057-3.67.073-3.503.165-7.864-.054-10.796a1.001 1.001 0 0 1 1.92-.461c3.67 8.77 16.282 28.267 55.652 28.269a128.2 128.2 0 0 0 7.317-.214c10.947-1.68 16.961-6.299 22.266-10.375 3.303-2.538 6.423-4.934 10.297-6.25 4.745-1.612 9.205-2.88 13.14-3.999 9.475-2.693 16.32-4.639 19.715-8.967a1.003 1.003 0 0 1 1.683.173c1.795 3.615 2.705 7.352 2.705 11.106 0 12.084-9.369 14.748-23.551 18.778-3.914 1.112-8.35 2.373-13.048 3.969-3.295 1.119-6.14 3.166-9.434 5.536-5.953 4.283-13.361 9.613-26.458 10.601-2.766.171-5.468.256-8.099.256zm-51.968-43.942c.006 2.128-.041 4.377-.083 6.357-.03 1.424-.056 2.688-.056 3.628 0 7.064 2.959 13.58 8.557 18.842 10.333 9.713 28.625 14.284 51.513 12.864 12.523-.944 19.379-5.877 25.427-10.229 3.281-2.361 6.381-4.591 9.959-5.806 4.746-1.612 9.208-2.881 13.144-4 13.78-3.917 22.098-6.281 22.098-16.854 0-2.976-.627-5.948-1.868-8.854-3.986 4.003-10.697 5.911-19.688 8.466-3.913 1.112-8.347 2.373-13.044 3.968l-.322-.947.322.947c-3.561 1.209-6.416 3.403-9.722 5.942-5.497 4.223-11.727 9.008-23.277 10.775-40.685 2.329-56.836-14.391-62.961-25.1z"/><path d="M262.557 640.312c0-36.115-42.347-65.391-94.585-65.391s-94.585 29.277-94.585 65.391c0 61.605 42.318 271.412 42.318 271.412s-17.403 83.825-19.046 112.913c-2.518 44.565-4.169 178.497-4.169 178.497 0 26.246 30.776 45.394 68.739 45.393 36.123 0 64.198-33.543 66.985-58.022 0 0 34.343-548.427 34.343-550.194z" fill="#87c159"/><path d="M161.229 1249.527c-18.754 0-36.209-4.622-49.15-13.015-13.277-8.611-20.589-20.465-20.589-33.378.017-1.352 1.68-134.476 4.171-178.554 1.59-28.138 18.072-108.252 19.024-112.859-1.521-7.572-42.297-211.245-42.297-271.41 0-36.608 42.879-66.391 95.585-66.391s95.585 29.783 95.585 66.391c0 1.779-32.943 527.862-34.345 550.257-2.739 24.069-30.579 58.959-67.983 58.959zm6.743-673.607c-51.603 0-93.585 28.886-93.585 64.391 0 60.801 41.875 269.118 42.298 271.215.027.132.026.269 0 .401-.174.838-17.407 84.084-19.027 112.766-2.488 44.034-4.151 177.114-4.167 178.453 0 12.2 6.988 23.458 19.677 31.688 12.621 8.185 29.69 12.693 48.062 12.693 36.314 0 63.34-33.839 65.991-57.135.338-5.414 34.198-546.137 34.337-550.094-.01-35.5-41.988-64.378-93.585-64.378zm94.585 64.391h.01zm189.396 634.135c-6.943-3.269-21.424-3.131-49.599-2.619a62.6 62.6 0 0 1-1.438.021c-26.557.447-44.148-.394-50.952-1.959-25.14-5.782-35.97-16.43-35.97-16.43l-5.354 21.179-104.381 1.549v60.21s11.358 26.675 63.067 31.602c5.562.53 193.767-9.157 199.161-61.619 1.214-11.777-1.757-25.907-14.535-31.934z"/><path d="M268.089 1369.018c-.411 0-.698-.008-.857-.023-51.707-4.927-63.419-31.094-63.893-32.206a.996.996 0 0 1-.08-.392v-60.21a1 1 0 0 1 .985-1l103.615-1.537 5.166-20.436a1 1 0 0 1 1.67-.468c.107.104 10.973 10.53 35.494 16.169 7.177 1.651 25.66 2.357 50.711 1.934.488 0 .96-.01 1.432-.021 28.8-.521 42.954-.625 50.048 2.714 11.046 5.21 16.692 17.525 15.103 32.941-2.301 22.382-36.057 39.73-100.331 51.562-46.203 8.505-91.798 10.973-99.063 10.973zm-62.83-32.842c1.108 2.276 13.907 26.23 62.162 30.828 2.824.271 51.712-2.153 99.368-10.926 43.516-8.01 95.964-23.152 98.704-49.799.561-5.445 1.211-23.767-13.966-30.928-6.69-3.149-20.677-3.041-49.155-2.524-.482.011-.969.021-1.456.021-25.187.425-43.848-.299-51.176-1.984-20.623-4.743-31.641-12.646-35.178-15.571l-4.953 19.591a1.001 1.001 0 0 1-.955.755l-103.396 1.534v59.003z"/><path d="M452.654 1312.188c-21.628 19.656-67.178 27.418-82.49 29.136-22.666 2.543-99.624 14.027-101.955 14.383-40.56 2.31-58.007-14.471-63.949-28.667.314 4.205 0 11.296 0 14.541 0 18.735 20.112 34.588 61.131 32.703 41.64-1.913 82.107-12.315 104.773-14.858 15.313-1.718 63.711-9.036 85.013-29.045 14.964-14.056 13.923-23.115 12.891-29.411-.68-4.151-3.453-12.316-3.453-12.316-.413 2.111-1.817 14.316-11.961 23.535z" fill="#fff"/><path d="M259.021 1375.433c-20.841 0-37.364-4.919-46.949-14.074-5.765-5.506-8.812-12.346-8.812-19.778 0-.951.027-2.23.057-3.671.073-3.503.165-7.864-.054-10.796a1 1 0 0 1 1.92-.46c3.889 9.292 17.813 30.625 62.969 28.055.625-.1 78.802-11.787 101.9-14.378 21.25-2.385 62.418-11.151 81.929-28.882l.673.74-.673-.74c6.071-5.517 9.953-13.034 11.539-22.344.045-.267.082-.482.114-.643a1 1 0 0 1 1.928-.13c.115.337 2.807 8.292 3.493 12.477.951 5.805 2.543 15.52-13.194 30.302-22.677 21.301-75.272 28.153-85.586 29.31-7.813.876-17.717 2.685-29.184 4.779-21.547 3.934-48.363 8.831-75.655 10.084-2.18.1-4.32.15-6.416.15zm-53.622-43.838c.006 2.128-.041 4.377-.083 6.357-.03 1.424-.056 2.689-.056 3.629 0 6.873 2.833 13.212 8.194 18.332 10.15 9.694 28.579 14.446 51.892 13.372 27.156-1.248 53.899-6.13 75.387-10.054 11.504-2.101 21.439-3.915 29.32-4.799 10.203-1.145 62.224-7.913 84.44-28.781 14.959-14.052 13.533-22.759 12.589-28.521-.372-2.269-1.402-5.823-2.234-8.504-1.957 8.306-5.824 15.124-11.52 20.301-19.889 18.075-61.563 26.978-83.051 29.389-23.068 2.588-101.197 14.268-101.915 14.378-40.683 2.326-56.836-14.392-62.961-25.101z"/><path d="M386.457 1296.279c-.083-3.338-2.879-6.546-6.389-6.389-3.39.152-6.478 2.809-6.389 6.389.027 1.071 1.878 11.767-9.653 11.499-1.565-.036-55.661-6.345-63.949-7.942-3.063-.59-4.774.633-7.162 1.926-.994.538-13.787 8.27-31.413 6.857-22.018-1.766-33.934-12.416-34.073-12.528-1.367-1.099-23.171-23.488-23.171-23.488v25.82s3.846 5.53 13.652 12.206c27.985 19.053 73.12 14.108 83.656 3.951 10.057 1.64 58.353 6.169 62.11 5.993 3.594-.168 7.464-.332 10.758-1.842 6.928-3.175 9.666-8.12 10.589-10.673 1.338-3.702 1.529-7.873 1.432-11.78z" fill="#fff"/><path d="M265.488 1324.562c-11.162 0-31.512-1.785-48.139-13.106-9.845-6.703-13.749-12.23-13.91-12.462a1.003 1.003 0 0 1-.179-.571v-25.82a1 1 0 0 1 1.717-.697c8.748 8.982 22.113 22.627 23.081 23.406 1.301 1.124 12.874 10.654 33.526 12.311 14.956 1.197 26.416-4.233 30.65-6.624l.94-.52c2.057-1.142 4.002-2.22 7.093-1.625 7.692 1.482 61.785 7.859 63.784 7.924 3.074.065 5.353-.676 6.799-2.221 2.338-2.499 1.98-6.5 1.862-7.815a7.612 7.612 0 0 1-.032-.438c-.097-3.902 3.198-7.228 7.344-7.413 1.792-.088 3.547.589 4.936 1.884 1.536 1.433 2.447 3.43 2.498 5.479.087 3.494-.004 8.031-1.491 12.144-.801 2.216-3.488 7.748-11.113 11.243-3.428 1.571-7.445 1.759-10.99 1.924l-.138.007c-3.699.18-50.701-4.211-61.834-5.929-5.863 5.229-20.041 8.795-35.601 8.915-.262.002-.53.003-.802.003zm-60.229-26.469c.858 1.123 4.844 6.01 13.215 11.709 27.264 18.563 71.981 14.101 82.4 4.058a1 1 0 0 1 .855-.267c10.124 1.65 58.177 6.147 61.903 5.981l.138-.006c3.527-.165 7.174-.336 10.25-1.745 6.937-3.179 9.35-8.125 10.065-10.104 1.374-3.8 1.455-8.096 1.373-11.415-.037-1.493-.733-3.013-1.862-4.066-.993-.926-2.221-1.407-3.482-1.349-2.675.12-5.513 2.205-5.434 5.365.001.063.012.168.025.309.138 1.536.557 6.208-2.394 9.361-1.852 1.979-4.643 2.95-8.306 2.854-1.898-.043-56.062-6.408-64.115-7.959-2.379-.459-3.791.325-5.744 1.409l-.928.512c-4.394 2.481-16.29 8.122-31.793 6.876-21.286-1.707-33.322-11.623-34.624-12.748-1.189-.957-16.146-16.273-21.54-21.805v23.031z"/><path d="M400.916 1271.848c-.011 2.204-.234 4.377-.841 6.187-8.338 25.002-48.311 22.191-71.844 17.857a99.237 99.237 0 0 1-23.117-7.305l8.881-35.129s10.829 10.648 35.97 16.43c6.804 1.565 24.395 2.407 50.952 1.959z"/><path d="M368.045 1299.091a2.5 2.5 0 0 1-2.44-1.951l-4.956-22.022-22.121 21.044a2.501 2.501 0 0 1-4.207-1.519l-3.435-29.226a2.5 2.5 0 1 1 4.966-.584l2.852 24.261 21.693-20.637a2.498 2.498 0 0 1 4.162 1.263l4.526 20.111 12.55-21.574a2.498 2.498 0 0 1 4.629.86l3.451 21.46a2.5 2.5 0 0 1-4.936.794l-2.34-14.552-12.234 21.03a2.5 2.5 0 0 1-2.16 1.243z" fill="#fff"/><path d="M356.916 1299.712c-11.105 0-21.801-1.536-28.866-2.837-10.008-1.844-18.223-5.03-23.353-7.379l.833-1.818c5.026 2.301 13.076 5.424 22.882 7.23 18.407 3.391 62.147 8.501 70.714-17.19.595-1.775.851-4.878.791-6.898l1.999-.061c.068 2.249-.217 5.579-.893 7.593-5.679 17.031-25.468 21.359-44.107 21.359z" fill="#adc4cb"/><path d="M373.896 968.108a274.71 274.71 0 0 0 2.064-45.165l-8.771-265.557c0-36.115-41.729-21.781-93.966-21.781-52.238 0-94.585 29.277-94.585 65.391 0 16.226 45.885 196.715 56.158 236.92a27.626 27.626 0 0 1-.517 15.472c-2.692 8.195-7.08 22.067-10.955 36.667-16.687 62.861-25.584 272.914-25.584 273.765 0 26.246 30.776 47.523 68.739 47.523 34.407 0 62.91-17.477 67.948-40.291v-.002c.435-1.97.918-3.65 1.23-5.926z" fill="#87c159"/><path d="M266.478 1312.343c-38.454 0-69.739-21.767-69.739-48.523 0-1.775 8.778-210.584 25.617-274.021 3.795-14.298 8.061-27.861 10.971-36.722a26.603 26.603 0 0 0 .498-14.913c-13.181-51.587-56.189-221.148-56.189-237.167 0-36.608 42.879-66.391 95.585-66.391 12.531 0 24.665-.842 35.37-1.584 24.274-1.684 43.448-3.014 53.049 5.945 4.406 4.111 6.547 10.136 6.547 18.42l8.771 265.523a276.571 276.571 0 0 1-2.072 45.325l-38.239 297.016c-.235 1.713-.567 3.114-.887 4.469-.12.505-.24 1.015-.357 1.545-2.514 11.381-10.832 21.803-23.424 29.345-12.632 7.566-28.791 11.732-45.501 11.732zm67.241-678.546c-7.404 0-15.826.584-24.99 1.22-10.737.745-22.907 1.589-35.508 1.589-51.603 0-93.585 28.886-93.585 64.391 0 16.192 46.754 199.991 56.127 236.672a28.604 28.604 0 0 1-.536 16.032c-2.902 8.836-7.156 22.36-10.939 36.611-16.435 61.912-25.509 271.592-25.55 273.521 0 25.639 30.388 46.509 67.739 46.509 33.206 0 61.998-16.984 66.972-39.507.12-.542.243-1.061.365-1.577.324-1.369.63-2.662.851-4.271l38.238-297.008.992.128-.992-.128a274.485 274.485 0 0 0 2.056-45l-8.772-265.56c0-7.732-1.934-13.28-5.912-16.991-5.512-5.143-14.738-6.631-26.557-6.631z"/><path d="M496.794 383.418 373.668 239.852a17.065 17.065 0 0 0-8.558-5.416c-7.304-1.956-20.647-3.612-33.108 4.947-12.634 8.678-32.009 28.519-32.009 28.519l103.69 186.247c11.291 16.901 29.844 26.037 48.751 26.037 11.18 0 22.486-3.198 32.48-9.874 26.895-17.968 29.848-60.001 11.88-86.895z" fill="#fff"/><path d="M452.435 481.188c-19.969 0-38.505-9.9-49.583-26.482L299.12 268.39a1 1 0 0 1 .158-1.185c.195-.199 19.589-20.012 32.158-28.645 12.92-8.874 26.806-6.998 33.933-5.089a17.981 17.981 0 0 1 9.06 5.733l123.125 143.564c.026.03.05.062.073.095 8.949 13.395 12.975 30.695 11.046 47.465-2.035 17.685-10.274 32.181-23.202 40.817-9.834 6.57-21.258 10.043-33.036 10.043zM301.232 268.071l103.326 185.593c10.664 15.956 28.577 25.524 47.877 25.524 11.381 0 22.42-3.356 31.925-9.706 12.43-8.305 20.359-22.291 22.326-39.383 1.874-16.285-2.022-33.075-10.689-46.075L372.91 240.503a16.002 16.002 0 0 0-8.058-5.101c-6.795-1.819-20.025-3.614-32.283 4.806-11.259 7.734-28.161 24.651-31.337 27.863z"/><path d="M320.299 259.254c-14.066-9.746-62.725-36.025-62.725-36.025l-93.996-49.002c-33.198-17.307-73.936-10.686-99.699 16.479-11.284 11.898-22.233 28.131-31.299 50.271C7.689 301.764 1.032 439.596 1.032 439.596s-1.782 33.531 21.133 46.5c17.091 9.673 44.246 16.498 44.246 16.498s.44 49.157.822 92.069c.294 33.044-7.479 38.136-6.353 64.054 1.976 45.502 64.045 81.136 155.543 81.136s154.008-37.299 154.008-82.844l-2.859-22.558 4.284-255.209s20.192-70.271-51.558-119.988z" fill="#fff"/><path d="M216.423 740.853c-44.349 0-83.014-8.169-111.815-23.624-27.854-14.946-43.739-35.711-44.727-58.468-.555-12.781 1.056-20.658 2.761-28.998 1.753-8.573 3.741-18.291 3.591-35.091l-.815-91.302c-4.51-1.185-28.321-7.673-43.745-16.403C-1.513 473.844.015 439.885.034 439.543c.066-1.375 6.95-138.696 31.621-198.945 8.305-20.281 18.903-37.299 31.499-50.58 25.885-27.292 67.371-34.149 100.887-16.677l93.996 49.002c.5.27 48.882 26.423 62.832 36.089 37.351 25.881 49.493 57.407 53.102 79.297 3.734 22.648-.663 39.969-1.116 41.655l-4.281 255.012 2.85 22.487c.005.042.008.084.008.126 0 22.828-15.345 43.915-43.207 59.375-28.436 15.779-68.141 24.468-111.801 24.468zm-91.672-575.114c-22.259 0-44.225 8.868-60.146 25.655-12.425 13.101-22.888 29.911-31.099 49.962C8.963 301.291 2.098 438.268 2.031 439.644c-.017.334-1.474 33.073 20.626 45.582 16.779 9.497 43.727 16.33 43.997 16.398a1 1 0 0 1 .756.961l.822 92.069c.152 17.012-1.858 26.839-3.631 35.51-1.68 8.215-3.267 15.975-2.723 28.51 2.018 46.459 67.013 80.179 154.544 80.179s152.952-35.152 153.008-81.781l-2.85-22.495a.972.972 0 0 1-.008-.143l4.284-255.209a.95.95 0 0 1 .039-.259c.05-.174 4.949-17.697 1.086-41.003-3.56-21.481-15.515-52.431-52.253-77.887-13.859-9.604-62.144-35.704-62.63-35.967l-93.983-48.996c-12.112-6.314-25.289-9.375-38.365-9.375z"/><path d="M66.41 503.594a1 1 0 0 1-.999-.972l-4.416-156.176a1 1 0 0 1 .971-1.028.989.989 0 0 1 1.028.971l4.416 156.176a1 1 0 0 1-.971 1.028h-.029zm185.184-109.927a.999.999 0 0 1-.873-.511c-.102-.182-10.233-18.522-11.296-43.587-.981-23.15 5.761-56.953 43.453-86.525a1 1 0 0 1 1.234 1.574c-36.991 29.023-43.634 62.125-42.692 84.784 1.023 24.609 10.946 42.598 11.046 42.777a1 1 0 0 1-.872 1.489zm-88.039-223.682c0 10.044-14.786 46.233-14.786 46.233l-21.457-40.845s12.386-23.575 20.874-23.575 15.369 8.142 15.369 18.186z"/><path d="M148.769 217.218a1 1 0 0 1-.885-.535l-21.457-40.844a1 1 0 0 1 0-.93c1.296-2.468 12.922-24.11 21.759-24.11 9.026 0 16.369 8.607 16.369 19.186 0 10.124-14.253 45.126-14.86 46.611-.147.36-.49.602-.878.621l-.048.001zm-20.326-41.842 20.205 38.462c3.077-7.713 13.906-35.46 13.906-43.853 0-9.477-6.446-17.186-14.369-17.186-6.314 0-16.15 15.868-19.743 22.577z"/><circle cx="211.175" cy="87.034" r="86.034"/><path d="M211.175 174.067c-47.99 0-87.034-39.043-87.034-87.033S163.185 0 211.175 0s87.033 39.043 87.033 87.033-39.043 87.033-87.033 87.033zm0-172.067c-46.888 0-85.034 38.146-85.034 85.033s38.146 85.033 85.034 85.033 85.033-38.146 85.033-85.033S258.063 2 211.175 2z"/><path d="M251.382 54.786c-23.906 0-102.575 89.776-102.575 89.776v55.709s-2.347 24.155 29.957 39.257c24.575 11.489 47.66 2.387 57.386-2.685a9.025 9.025 0 0 0 4.844-8.011v-25.168c5.181 2.088 10.259 3.64 15.569 5.461 20.2 6.926 38.904-32.748 40.646-75.583 3.463-85.127-21.921-78.756-45.827-78.756z" fill="#fff"/><path d="M203.694 246.045c-7.907 0-16.547-1.495-25.354-5.612-32.567-15.225-30.552-40.011-30.528-40.259l-.005-55.612a1 1 0 0 1 .248-.659c3.224-3.679 79.245-90.117 103.327-90.117 1.553 0 3.112-.027 4.668-.054 10.442-.181 21.235-.367 29.283 7.871 10.35 10.594 14.441 33.466 12.874 71.979-1.344 33.036-12.769 64.162-27.166 74.01-4.881 3.339-9.862 4.173-14.804 2.478-1.463-.502-2.909-.983-4.344-1.461-3.386-1.127-6.607-2.2-9.901-3.476v23.698a9.997 9.997 0 0 1-5.381 8.897c-5.93 3.093-18.142 8.316-32.918 8.316zm-53.887-101.106v55.331c-.027.33-1.847 23.753 29.38 38.351 24.458 11.434 47.66 1.945 56.5-2.665a8.003 8.003 0 0 0 4.306-7.124v-25.168a1.001 1.001 0 0 1 1.373-.928c3.722 1.5 7.335 2.703 11.159 3.976 1.44.479 2.891.963 4.36 1.466 4.312 1.479 8.695.726 13.026-2.237 13.917-9.52 24.977-39.986 26.296-72.441 1.543-37.925-2.368-60.327-12.306-70.5-7.446-7.622-17.342-7.452-27.818-7.269-1.568.027-3.139.054-4.703.054-22.528 0-96.682 83.608-101.575 89.154z"/><path d="M251.593 173.067c-9.149 0-16.566-11.97-16.566-26.736s7.417-26.736 16.566-26.736 16.566 11.97 16.566 26.736" fill="#fff"/><path d="M251.593 174.067c-9.686 0-17.566-12.442-17.566-27.736s7.88-27.736 17.566-27.736 17.566 12.442 17.566 27.736a1 1 0 0 1-2 0c0-14.191-6.983-25.736-15.566-25.736s-15.566 11.545-15.566 25.736 6.983 25.736 15.566 25.736a1 1 0 0 1 0 2z"/><path d="M258.505 122.034s29.195-9.079 44.331-36.515c21.573-39.104 4.005-83.779 4.005-83.779s-1.082 7.115-7.343 12.35c-6.701 5.603-17.023 3.672-17.023 3.672l7.072-14.858s-10.865 2.821-20.757 2.508C239.732 4.492 218.055 1 218.055 1l-39.291 97.946 39.291 73.848s6.04-.723 10.665-1.518c4.425-.76 12.274-3.519 12.274-3.519z"/><path d="M218.055 173.794a1 1 0 0 1-.883-.53l-39.291-73.848a1 1 0 0 1-.045-.842L217.127.628a1 1 0 0 1 1.087-.615c.216.035 21.955 3.492 50.608 4.399 9.629.303 20.367-2.448 20.475-2.476a1 1 0 0 1 1.154 1.397l-6.48 13.614c2.902.281 9.995.465 14.886-3.624 5.903-4.935 6.986-11.666 6.996-11.733a.999.999 0 0 1 1.919-.215c.177.451 17.491 45.565-4.061 84.628-14.104 25.564-40.594 35.5-44.441 36.83l-17.342 45.282a1.002 1.002 0 0 1-.602.586c-.324.114-7.98 2.796-12.437 3.561-4.597.789-10.654 1.517-10.715 1.525a.961.961 0 0 1-.119.007zm-38.19-74.907 38.75 72.831c1.705-.212 6.29-.801 9.935-1.427 3.702-.636 9.976-2.743 11.676-3.326l17.344-45.288a.999.999 0 0 1 .636-.597c.288-.09 28.996-9.295 43.753-36.043 17.92-32.482 8.363-69.322 4.98-79.932-.978 2.67-2.952 6.535-6.801 9.753-6.983 5.838-17.408 3.97-17.848 3.888a1 1 0 0 1-.719-1.412l6.177-12.977c-3.641.802-11.526 2.296-18.991 2.056-25.716-.814-45.899-3.676-50.071-4.302l-38.823 96.778zm61.129 68.871h.01z"/><path d="m132.818 122.606 15.99 44.028s13.805 11.679 20.996 13.246c46.215 10.073 71.191-12.123 71.191-12.123s-33.309-62.542-40.264-69.787c-26.405-27.506-67.913 24.636-67.913 24.636z"/><path d="M193.043 183.475c-7.097 0-14.924-.759-23.452-2.618-7.349-1.602-20.857-12.976-21.429-13.459a.998.998 0 0 1-.294-.422l-15.99-44.028a1 1 0 0 1 .157-.964c1.036-1.302 25.652-31.894 49.411-32.995 7.653-.354 14.385 2.434 20.006 8.289 6.971 7.261 39.062 67.451 40.425 70.01.217.407.127.911-.218 1.218-.207.184-17.288 14.97-48.616 14.97zm-43.387-17.435c1.721 1.432 13.956 11.467 20.361 12.863 41.317 9.006 65.649-8.211 69.709-11.399-3.741-6.999-33.335-62.194-39.716-68.841-5.204-5.421-11.411-8.001-18.471-7.677-21.377.991-44.477 28.051-47.587 31.813z"/><path d="M251.593 173.067c-9.149 0-16.566-11.97-16.566-26.736s7.417-26.736 16.566-26.736 16.566 11.97 16.566 26.736" fill="#fff"/><path d="M251.593 174.067c-9.686 0-17.566-12.442-17.566-27.736s7.88-27.736 17.566-27.736 17.566 12.442 17.566 27.736a1 1 0 0 1-2 0c0-14.191-6.983-25.736-15.566-25.736s-15.566 11.545-15.566 25.736 6.983 25.736 15.566 25.736a1 1 0 0 1 0 2zm4.969 36.058a.993.993 0 0 1-.466-.116c-.36-.19-8.908-4.791-17.549-16.671a1 1 0 1 1 1.618-1.176c8.346 11.476 16.782 16.035 16.866 16.08a1 1 0 0 1-.47 1.884z"/><path d="M320.299 259.254c26.314 14.924 66.552 57.939 66.552 57.939l94.906 53.758c27.981 16.224 37.511 52.06 21.287 80.041-10.861 18.733-30.519 29.198-50.719 29.198-81.617 12.809-182.342-65.291-182.342-65.291" fill="#fff"/><path d="M433.717 482.59c-37.166.001-75.917-15.315-103.621-29.349-35.063-17.761-60.473-37.355-60.726-37.551a.999.999 0 1 1 1.226-1.58c.251.195 25.536 19.688 60.437 37.364 27.485 13.92 65.919 29.116 102.668 29.118 6.227 0 12.401-.436 18.47-1.388.051-.008.103-.012.155-.012 20.488 0 39.591-10.997 49.854-28.699 15.921-27.46 6.535-62.753-20.924-78.675l-94.897-53.753a.998.998 0 0 1-.237-.187c-.401-.429-40.436-43.075-66.316-57.753a1 1 0 1 1 .987-1.739c25.485 14.454 64.366 55.552 66.684 58.014l94.774 53.683c28.422 16.48 38.134 53 21.659 81.413-10.607 18.295-30.337 29.668-51.506 29.696-6.14.959-12.393 1.399-18.686 1.399z"/><path d="M281.991 229.444c-5.209-6.393-35.816-23.837-56.298-21.413-30.416 3.599-47.207 15.237-72.357.872-5.599-3.198-18.397-13.287-17.957-22.55s14.116-17.701 14.116-17.701l-6.065-16.823s-29.95.953-43.562 23.613c-8.942 14.884-28.151 77.191 15.722 99.808 36.526 18.83 94.346-14.478 117.372-30.17 21.419-14.597 55.316-3.971 59.88-2.319z" fill="#fff"/><path d="M141.058 281.907c-9.193 0-18.014-1.689-25.927-5.769-12.942-6.672-21.557-17.279-25.607-31.528-7.348-25.853 2.552-58.142 9.486-69.684 13.734-22.863 44.083-24.088 44.388-24.098.425-.016.825.253.972.66l6.065 16.823c.16.445-.013.941-.415 1.19-.132.082-13.234 8.272-13.643 16.898-.407 8.581 11.583 18.282 17.454 21.635 17.668 10.092 31.279 7.075 48.511 3.255 6.815-1.51 14.539-3.223 23.232-4.251 21.05-2.49 52.063 15.482 57.19 21.774l10.851 13.317a1 1 0 0 1-1.116 1.572c-.364-.132-36.666-13-58.977 2.205-14.267 9.723-56.225 35.999-92.467 36.001zm1.685-129.035c-4.6.338-30.01 3.097-42.018 23.085-5.19 8.64-17.03 40.83-9.277 68.107 3.893 13.695 12.169 23.888 24.6 30.297 38.127 19.656 98.695-18.075 116.35-30.107 19.151-13.05 47.964-6.264 57.554-3.455l-8.737-10.722c-4.96-6.086-34.997-23.466-55.405-21.051-8.593 1.017-16.266 2.717-23.035 4.218-17.654 3.913-31.597 7.003-49.935-3.471-4.944-2.824-18.948-13.197-18.46-23.466.406-8.555 11.041-16.165 13.905-18.063l-5.542-15.37z"/></svg></g><g transform="translate(1675.2 943.1999999999999) rotate(0.0 362.4 525.0) scale(1.7515581085685699 1.7551308324669117)"><svg width="413.803" height="598.246" viewBox="0 0 413.803 598.246"><path d="M293.356 332.385C222.6 346.952 175.43 321.286 175.43 321.286l-.628-222.764s6.125-37.869 55.738-41.884c53.975-4.368 99.283 12.907 99.283 67.059l24.816 62.113c19.926 49.874 5.994 132.724-61.283 146.575z" fill="#87c159"/><path d="M250.44 337.818c-46.042 0-75.119-15.452-75.489-15.653a1 1 0 0 1-.522-.875l-.628-222.764c0-.055.004-.109.013-.163.063-.386 6.826-38.689 56.645-42.721 36.072-2.921 64.207 3.896 81.354 19.712 12.574 11.598 18.97 27.798 19.01 48.15l24.745 61.935c13.032 32.618 10.855 74.842-5.417 105.071-12.358 22.958-31.928 37.777-56.593 42.855l-.202-.979.202.979c-15.563 3.204-30.027 4.454-43.117 4.454zm-74.013-17.142c5.342 2.685 51.101 24.241 116.727 10.729 24.066-4.955 43.167-19.424 55.235-41.844 16.007-29.736 18.146-71.282 5.321-103.38l-24.816-62.113a1.003 1.003 0 0 1-.071-.371c0-19.862-6.179-35.633-18.366-46.873-16.726-15.426-44.331-22.061-79.837-19.189-47.174 3.818-54.47 39.116-54.818 40.974l.626 222.067z"/><path d="m94.806 272.23 96.14 44.309 66.675-212.553s5.383-37.981-40.806-56.532c-50.251-20.181-98.644-17.123-114.706 34.592l-42.123 51.957c-33.823 41.719-31.175 119.181 34.82 138.226z" fill="#87c159"/><path d="M190.947 317.54a.997.997 0 0 1-.418-.092L94.457 273.17c-26.243-7.596-44.999-25.488-52.819-50.39-9.17-29.2-2.108-65.129 17.573-89.406l42.002-51.808c6.075-19.424 16.988-32.999 32.436-40.345 21.067-10.017 49.955-8.183 83.54 5.306 46.38 18.627 41.479 57.212 41.424 57.6-.008.054-.02.107-.036.159l-66.674 212.553a1.002 1.002 0 0 1-.954.701zM164.44 36.852c-11.211 0-21.263 2.053-29.933 6.176-14.972 7.12-25.551 20.348-31.442 39.316a.992.992 0 0 1-.178.333l-42.123 51.957c-19.277 23.777-26.196 58.959-17.218 87.547 5.391 17.165 18.708 39.614 51.539 49.088a.996.996 0 0 1 .141.053l95.108 43.834 66.307-211.382c.219-1.878 3.721-37.751-40.198-55.391-19.107-7.673-36.642-11.531-52.003-11.531z"/><path d="M412.803 597.246v-89.382c0-67.831-38.761-124.833-102.987-162.032L186.55 284.939s-87.509-22.041-140.397 13.738C30.451 309.3 5.995 325.294 1 357.489c-.59 3.806 411.802 239.756 411.802 239.756z" fill="#fff"/><path d="M412.803 598.246c-.171 0-.343-.044-.497-.132-1.031-.59-104.278-59.669-206.126-118.453-59.819-34.526-107.457-62.196-141.591-82.242-20.27-11.904-35.943-21.217-46.583-27.68C-.196 358.681-.13 358.26.013 357.336c4.971-32.041 28.889-48.206 44.716-58.903l.865-.584c27.543-18.633 64.486-21.409 90.628-20.458 28.267 1.03 50.354 6.522 50.573 6.578.069.017.135.042.199.073l123.266 60.893c66.792 38.684 103.543 96.536 103.543 162.929v89.382a1.001 1.001 0 0 1-1 1zM2.058 357.208c9.89 8.712 270.622 158.709 409.745 238.314v-87.658c0-65.65-36.397-122.887-102.488-161.167l-123.109-60.813c-3.433-.836-88.386-20.951-139.491 13.622l-.866.585c-15.467 10.453-38.804 26.224-43.791 57.117z"/><path d="m259.231 348.625 2.925-86.215-129.862 47.967v51.156c0 10.537 4.684 20.581 12.915 27.159 15.565 12.439 43.975 27.473 78.441 10.815 28.334-13.695 35.052-35.295 35.581-50.882z" fill="#fff"/><path d="M193.035 407.828c-21.401 0-38.52-10.42-48.449-18.354-8.447-6.75-13.291-16.934-13.291-27.94v-51.156c0-.418.261-.793.653-.938l129.862-47.967a.998.998 0 0 1 1.346.971l-2.925 86.215c-.54 15.899-7.248 37.782-36.146 51.749-11.034 5.333-21.472 7.421-31.051 7.421zm-59.74-96.754v50.459c0 10.395 4.57 20.01 12.54 26.378 17.109 13.672 44.421 26.625 77.381 10.695 27.998-13.532 34.496-34.667 35.017-50.015l1 .034-1-.034 2.875-84.728-127.812 47.21z"/><path d="m65.692 101.994-2.819 126.233c-.865 38.754 20.343 74.639 54.71 92.569 55.961 29.197 126.306 5.916 148.527-53.163 0 0 14.97-54.866 20.363-68.2 8.017-19.821.908-189.474-151.393-170.189-42.09 5.33-69.388 72.751-69.388 72.751z" fill="#fff"/><path d="M168.721 334.373c-17.718 0-35.444-4.262-51.6-12.69a102.764 102.764 0 0 1-40.966-38.854 102.765 102.765 0 0 1-14.282-54.625l2.818-126.233c.003-.121.028-.241.073-.353 1.124-2.775 28.003-68.025 70.189-73.367 52.444-6.64 92.986 8.108 120.497 43.836 37.185 48.289 36.474 116.532 31.949 127.72-5.31 13.128-20.176 67.541-20.325 68.089-10.381 27.612-31.435 48.638-59.313 59.293a109.317 109.317 0 0 1-39.041 7.184zM66.687 102.203l-2.814 126.046c-.863 38.653 19.895 73.776 54.173 91.66 27.72 14.463 60.159 16.435 89.002 5.412 27.335-10.448 47.979-31.061 58.126-58.041.583-2.154 15.018-54.986 20.372-68.224 2.195-5.427 3.508-25.023-.644-49.851-3.469-20.744-11.67-50.751-31.035-75.899-27.048-35.125-66.97-49.619-118.662-43.072-40.015 5.067-66.968 68.249-68.518 71.967z"/><path d="M329.823 117.674c.042-50.136-39.537-98.857-107.437-112.701-3.641-.831-7.408-1.6-11.396-2.26C184.494-1.666 124.729.629 93.647 30.296c-32.777 31.285-28.528 97.378-28.528 97.378s13.673 2.208 37.746-15.43c30.602-22.421 43.837-50.666 43.837-50.666s2.804 33.841 25.743 61.653c28.496 34.55 79.19 57.075 79.19 57.075l.889 51.347 9.616 33.145-.088 12.622" fill="#87c159"/><path d="M262.052 278.419h-.007a1 1 0 0 1-.993-1.007l.087-12.476-9.576-33.005a1.052 1.052 0 0 1-.04-.262l-.878-50.716c-5.746-2.648-52.3-24.747-78.973-57.086-18.77-22.758-24.202-49.825-25.563-58.993-4.279 7.805-17.876 30.021-42.655 48.176-24.134 17.683-37.921 15.704-38.497 15.61a1.001 1.001 0 0 1-.838-.923c-.042-.666-3.9-66.919 28.836-98.165C124.928-.943 186.395-2.365 211.153 1.727c3.679.608 7.426 1.352 11.455 2.271 32.539 6.634 60.112 21.52 79.714 43.043 18.401 20.203 28.522 45.289 28.501 70.634a1 1 0 1 1-1.999-.002c.045-52.969-43.806-98.91-106.637-111.72A189.768 189.768 0 0 0 210.828 3.7C186.39-.34 125.763 1.025 94.337 31.019c-30.042 28.675-28.598 87.856-28.263 95.725 3.201.109 16.037-.534 36.2-15.307 30.048-22.016 43.391-50.004 43.522-50.284a1 1 0 0 1 1.903.341c.028.335 3.056 33.865 25.518 61.1 28.014 33.966 78.32 56.572 78.825 56.796.355.158.587.508.594.897l.887 51.214 9.579 33.017c.027.093.04.189.04.286l-.088 12.622a1 1 0 0 1-1 .993z"/><path d="M132.294 240.882a18.288 18.288 0 0 1-10.022 2.971c-10.147 0-18.372-8.226-18.372-18.372s8.226-18.372 18.372-18.372" fill="#fff"/><path d="M122.273 244.853c-10.682 0-19.373-8.69-19.373-19.372s8.69-19.373 19.373-19.373a1 1 0 0 1 0 2c-9.579 0-17.373 7.793-17.373 17.373s7.793 17.372 17.373 17.372c3.381 0 6.657-.971 9.475-2.809a1 1 0 1 1 1.092 1.676 19.297 19.297 0 0 1-10.568 3.133z"/><path d="M101.151 265.367s18.114 23.668 48.131 13.86" fill="#fff"/><path d="M135.021 282.587c-21.651 0-34.51-16.411-34.664-16.612a1 1 0 0 1 1.588-1.216c.177.231 18.059 22.986 47.026 13.518a1 1 0 0 1 .621 1.901c-5.211 1.703-10.082 2.409-14.571 2.409z"/><ellipse cx="98.774" cy="185.589" rx="5.127" ry="13.843"/><path d="M98.774 200.432c-3.979 0-6.127-7.647-6.127-14.843s2.147-14.843 6.127-14.843 6.126 7.647 6.126 14.843-2.147 14.843-6.126 14.843zm0-27.687c-1.723 0-4.127 4.886-4.127 12.843s2.404 12.843 4.127 12.843 4.126-4.886 4.126-12.843-2.403-12.843-4.126-12.843z"/><ellipse cx="165.744" cy="213.276" rx="5.127" ry="13.843"/><path d="M165.744 228.119c-3.979 0-6.126-7.647-6.126-14.843s2.147-14.843 6.126-14.843 6.127 7.647 6.127 14.843-2.147 14.843-6.127 14.843zm0-27.687c-1.723 0-4.126 4.886-4.126 12.843s2.403 12.843 4.126 12.843 4.127-4.886 4.127-12.843-2.404-12.843-4.127-12.843z"/><path d="M83.1 156.192s19.867-11.204 37.698 11.633" fill="#fff"/><path d="M120.799 168.825a1 1 0 0 1-.789-.385c-17.066-21.855-35.638-11.815-36.42-11.376a1 1 0 0 1-.981-1.743c.206-.116 20.825-11.359 38.978 11.889a.999.999 0 0 1-.788 1.615z"/><path d="M157.504 181.147s19.867-11.204 37.698 11.633" fill="#fff"/><path d="M195.203 193.78a1 1 0 0 1-.789-.385c-17.065-21.855-35.638-11.815-36.42-11.377a1 1 0 0 1-.981-1.743c.206-.116 20.827-11.357 38.978 11.889a.999.999 0 0 1-.788 1.615z"/><path d="M251.634 237.072c2.961-25.304 18.707-33.526 32.793-30.098 14.087 3.428 22.1 20.202 17.899 37.464-4.201 17.263-28.966 36-43.053 32.571" fill="#fff"/><path d="M262.872 278.416c-1.353 0-2.636-.143-3.834-.435a1 1 0 1 1 .473-1.943c6.229 1.516 15.579-1.683 24.394-8.353 9.007-6.814 15.531-15.593 17.451-23.483 4.064-16.7-3.636-32.964-17.164-36.256-6.647-1.619-13.25-.461-18.593 3.257-7.072 4.919-11.557 13.905-12.971 25.985a1 1 0 0 1-1.986-.232c1.873-16.001 8.546-23.729 13.815-27.395 5.822-4.049 12.999-5.313 20.208-3.559 14.6 3.553 22.959 20.901 18.634 38.672-2.026 8.324-8.825 17.522-18.188 24.606-7.787 5.891-15.796 9.135-22.239 9.135z"/></svg></g><g transform="translate(2354.4 1122.0) rotate(3.261220461510585 108.0 64.19999999999993) scale(1.420071661023635 1.4125257147886148)"><svg width="152.105" height="90.901" viewBox="0 0 152.105 90.901"><g><path d="M150.107 90.902a1.996 1.996 0 0 1-1.729-.993l-33.446-57.335a2 2 0 1 1 3.455-2.015l33.446 57.335a2 2 0 0 1-1.726 3.008z"/><path d="M117.059 71.823a2.001 2.001 0 0 1-1.004-3.731l32.324-18.71a2 2 0 1 1 2.004 3.462l-32.324 18.71c-.315.183-.66.269-1 .269zm-82.813-49.08c-.341 0-.687-.087-1.003-.271L.995 3.729A2 2 0 1 1 3.005.271l32.248 18.743a2 2 0 0 1-1.007 3.729zM83.58 64.985c-.344 0-.688-.089-.996-.266L53.127 47.793a2 2 0 0 1-1.004-1.734V11.8a2 2 0 0 1 2.992-1.737l29.457 16.832a2 2 0 0 1 1.008 1.736v34.352a1.998 1.998 0 0 1-2 2zM56.123 44.901 81.58 59.529V29.794L56.123 15.247z"/><path d="M91.291 56.45c-.344 0-.688-.089-.996-.266L60.838 39.258a2 2 0 0 1-1.004-1.734V3.266a2 2 0 0 1 2.994-1.736l29.457 16.851a2 2 0 0 1 1.007 1.736V54.45a1.998 1.998 0 0 1-2 2zM63.834 36.366l25.457 14.628V21.277L63.834 6.714z"/></g></svg></g><g transform="translate(369.59999999999997 1281.6) rotate(0.0 763.2 757.2) scale(3.0329403068706116 3.0339638063984906)"><svg width="503.274" height="499.149" viewBox="0 0 503.274 499.149"><g><g><g><path style="fill:#adc4cb" d="m294.186 174.189 49.482 72.453-42.554 20.631-16.698-38.904-17.243-33.921s-13.938-1.663-13.938-5.5l40.952-14.759h-.001z"/><path d="M301.114 268.273a.998.998 0 0 1-.919-.605l-16.698-38.904-16.975-33.389c-3.971-.512-14.288-2.246-14.288-6.427 0-.422.264-.798.661-.94l40.952-14.759c.428-.154.907.001 1.164.376l49.482 72.453a1.003 1.003 0 0 1-.389 1.464l-42.554 20.631a.994.994 0 0 1-.436.1zm-46.625-78.714c1.284 1.59 7.218 3.229 12.803 3.896a1 1 0 0 1 .773.54l17.243 33.921 16.312 38.001 40.568-19.668-48.391-70.856-39.308 14.166z"/></g><g><path style="fill:#fff" d="M352.209 237.302s-16.54-35.825-34.567-51.676c-5.621-4.943-12.392-9.909-17.884-13.854-5.375-3.86-13.563-3.729-19.963-2.049l-13.033 3.421a6.684 6.684 0 0 0 2.067 13.138l18.652-1.731s11.305 10.693 11.654 23.962c.078 2.95-.618 5.906-1.505 8.438a559.455 559.455 0 0 1-17.52-22.804 7.872 7.872 0 0 0-10.37-2.143 7.867 7.867 0 0 0-3.546 9.053c2.307 7.617 6.148 24.448 14.435 35.199 12.633 16.389 23.307 27.576 23.307 27.576l5.718-5.897 42.553-20.631.002-.002z"/><path d="M303.936 264.832h-.004a1 1 0 0 1-.72-.31c-.107-.112-10.855-11.413-23.375-27.655-7.182-9.317-11.121-23.274-13.475-31.613-.415-1.47-.787-2.788-1.125-3.906a8.845 8.845 0 0 1 3.995-10.204 8.844 8.844 0 0 1 11.687 2.415 559.17 559.17 0 0 0 16.322 21.32c.646-2.27.946-4.395.895-6.339-.301-11.462-9.226-21.115-11.027-22.949l-18.187 1.688c-2.166.112-4.193-.621-5.743-2.088a7.61 7.61 0 0 1-2.403-5.581 7.689 7.689 0 0 1 5.733-7.433l13.033-3.42c3.046-.801 13.547-3.006 20.8 2.203 5.771 4.146 12.417 9.041 17.961 13.915 17.978 15.809 34.648 51.648 34.814 52.009.176.38.096.83-.201 1.126l-.002.002a.954.954 0 0 1-.271.192l-42.394 20.555-5.595 5.77a1.005 1.005 0 0 1-.718.303zm-30.18-72.93a6.879 6.879 0 0 0-3.508.964 6.849 6.849 0 0 0-3.097 7.901c.342 1.129.718 2.46 1.136 3.943 2.314 8.199 6.188 21.924 13.134 30.936 10.611 13.766 19.936 23.956 22.527 26.737l4.988-5.145a.98.98 0 0 1 .282-.203l41.664-20.2c-2.683-5.607-17.808-36.309-33.9-50.459-5.479-4.817-12.076-9.676-17.808-13.792-5.199-3.735-13.289-3.425-19.125-1.895l-13.033 3.421a5.687 5.687 0 0 0-4.241 5.498c0 1.578.631 3.044 1.777 4.129a5.644 5.644 0 0 0 4.221 1.546l18.615-1.729a.996.996 0 0 1 .779.27c.474.448 11.611 11.133 11.966 24.662.071 2.678-.454 5.637-1.561 8.795a1 1 0 0 1-1.72.299 559.925 559.925 0 0 1-17.552-22.845 6.841 6.841 0 0 0-5.544-2.833z"/></g></g><g><path style="fill:#fff" d="M488.114 383.418 364.988 239.852a17.065 17.065 0 0 0-8.558-5.416c-7.304-1.956-20.647-3.612-33.108 4.947-12.634 8.678-32.009 28.519-32.009 28.519l103.69 186.247c11.291 16.901 29.844 26.037 48.751 26.037 11.18 0 22.486-3.198 32.48-9.874 26.895-17.968 29.848-60.001 11.88-86.895v.001z"/><path d="M443.754 481.186c-19.969 0-38.505-9.899-49.583-26.481L290.439 268.388a1 1 0 0 1 .158-1.185c.194-.199 19.589-20.012 32.158-28.645 12.92-8.874 26.806-6.997 33.933-5.089a17.984 17.984 0 0 1 9.06 5.732l123.125 143.563c.026.03.05.062.072.096 8.949 13.395 12.975 30.694 11.046 47.465-2.035 17.685-10.275 32.181-23.202 40.816-9.835 6.572-21.259 10.045-33.035 10.045zM292.551 268.07l103.325 185.593c10.664 15.956 28.578 25.523 47.877 25.523 11.379 0 22.419-3.356 31.924-9.706 12.431-8.304 20.359-22.29 22.326-39.383 1.874-16.283-2.021-33.071-10.686-46.071l-123.09-143.522a16.002 16.002 0 0 0-8.058-5.102c-6.795-1.82-20.024-3.615-32.283 4.806-11.258 7.733-28.159 24.65-31.335 27.862z"/></g><g><g><path style="fill:#fff" d="M55.523 413.29c1.639 15.002 22.552 30.501 42.586 40.398 36.489 18.027 89.267 41.05 166.82 44.05 34.421 1.332 60.573-.602 77.238-5.367 12.231-3.497 19.256-8.651 19.377-15.892l1.632-97.236s20.192-70.271-51.558-119.988h.001c-14.066-9.746-62.725-36.025-62.725-36.025l-93.996-49.002c-33.198-17.307-73.936-10.686-99.699 16.479-11.284 11.898-22.233 28.131-31.299 50.271-10.512 25.671-17.772 65.086-22.652 102.056-1.082 8.198 1.078 27.398 12.472 41.863 10.424 13.233 25.779 22.726 41.803 28.393"/><path d="M284.972 499.142a518.356 518.356 0 0 1-20.082-.405c-74.435-2.879-126.303-23.935-167.224-44.152-9.478-4.683-40.334-21.33-43.059-40.56-17.3-6.226-32.082-16.334-41.673-28.51C1.515 371.017-.902 351.684.257 342.903c6.052-45.852 13.695-80.271 22.718-102.305 8.304-20.279 18.901-37.297 31.499-50.581 25.884-27.291 67.37-34.148 100.887-16.677l93.996 49.002c.5.27 48.882 26.424 62.832 36.089 37.351 25.883 49.493 57.408 53.102 79.298 3.733 22.648-.664 39.969-1.117 41.655l-1.63 97.11c-.125 7.395-6.888 13.06-20.102 16.838-13.431 3.84-33.07 5.81-57.47 5.81zM116.07 165.739c-22.26 0-44.225 8.868-60.146 25.655-12.426 13.103-22.889 29.912-31.099 49.962-8.957 21.874-16.556 56.128-22.586 101.809-1.116 8.457 1.227 27.098 12.266 41.112 9.467 12.02 24.153 21.988 41.351 28.07a1 1 0 0 1 .661.834c1.604 14.686 22.766 30.091 42.035 39.61 40.732 20.124 92.356 41.082 166.416 43.947 33.585 1.298 60.185-.544 76.924-5.33 12.269-3.508 18.544-8.536 18.652-14.947l1.632-97.236a.984.984 0 0 1 .039-.259c.05-.175 4.949-17.697 1.087-41.003-3.56-21.481-15.515-52.431-52.253-77.888-13.859-9.603-62.144-35.704-62.629-35.967l-93.983-48.995c-12.113-6.314-25.291-9.374-38.367-9.374z"/></g><g><path d="M55.522 414.29a1 1 0 0 1-.999-.967l-2.208-66.872a1 1 0 0 1 .966-1.032c.545-.032 1.015.413 1.033.966l2.208 66.872a1 1 0 0 1-.966 1.032l-.034.001zm187.392-20.624a.999.999 0 0 1-.873-.511c-.103-.183-10.234-18.522-11.296-43.587-.981-23.149 5.761-56.952 43.453-86.525a1 1 0 0 1 1.235 1.574c-37.024 29.049-43.65 62.185-42.689 84.866 1.042 24.594 10.942 42.516 11.042 42.693a.998.998 0 0 1-.872 1.49z"/></g><g><path d="M154.875 169.985c0 10.044-14.786 46.233-14.786 46.233l-21.457-40.845s12.386-23.575 20.874-23.575 15.369 8.142 15.369 18.187z"/><path d="M140.089 217.218a1 1 0 0 1-.885-.535l-21.457-40.846a1 1 0 0 1 0-.93c.031-.06 3.175-6.02 7.322-11.898 5.716-8.103 10.573-12.211 14.437-12.211 9.026 0 16.369 8.606 16.369 19.186v.001c0 10.124-14.253 45.127-14.86 46.611a1 1 0 0 1-.878.621l-.048.001zm-20.326-41.843 20.206 38.464c3.077-7.713 13.907-35.46 13.907-43.854 0-9.477-6.446-17.187-14.369-17.187-6.315 0-16.152 15.868-19.744 22.577z"/></g><g><g><circle cx="202.495" cy="87.034" r="86.034"/><path d="M202.495 174.068c-47.991 0-87.034-39.043-87.034-87.034C115.461 39.043 154.504 0 202.495 0s87.034 39.043 87.034 87.034c0 47.991-39.043 87.034-87.034 87.034zm0-172.068c-46.888 0-85.034 38.146-85.034 85.034s38.146 85.034 85.034 85.034c46.888 0 85.034-38.146 85.034-85.034S249.383 2 202.495 2z"/></g><g><path style="fill:#fff" d="M242.702 54.786c-23.906 0-102.575 89.776-102.575 89.776v55.709s-2.347 24.155 29.957 39.257c24.575 11.489 47.66 2.387 57.386-2.685a9.025 9.025 0 0 0 4.844-8.011v-25.168c5.181 2.088 10.259 3.64 15.569 5.461 20.2 6.926 38.904-32.748 40.646-75.583 3.463-85.127-21.921-78.756-45.827-78.756z"/><path d="M195.013 246.046c-7.907 0-16.546-1.495-25.352-5.611-16.971-7.934-24.368-18.408-27.586-25.799-3.515-8.071-2.968-14.204-2.943-14.461l-.005-55.612a1 1 0 0 1 .248-.659c3.224-3.68 79.245-90.117 103.327-90.117 1.553 0 3.111-.027 4.668-.054 10.442-.176 21.236-.367 29.284 7.872 10.35 10.595 14.441 33.466 12.874 71.979-1.343 33.036-12.768 64.163-27.166 74.011-4.881 3.339-9.861 4.171-14.804 2.478-1.459-.5-2.9-.98-4.331-1.457-3.39-1.128-6.615-2.202-9.914-3.479v23.697a9.997 9.997 0 0 1-5.382 8.898c-5.93 3.091-18.142 8.314-32.918 8.314zM141.127 144.94v55.331c-.026.33-1.847 23.753 29.38 38.351 24.455 11.437 47.659 1.945 56.5-2.665a8.006 8.006 0 0 0 4.307-7.125v-25.168a1.001 1.001 0 0 1 1.373-.928c3.727 1.502 7.343 2.706 11.171 3.98 1.437.479 2.884.96 4.348 1.462 4.313 1.48 8.695.726 13.026-2.236 13.917-9.52 24.977-39.985 26.296-72.441 1.542-37.924-2.368-60.326-12.307-70.499-7.446-7.622-17.339-7.45-27.818-7.27-1.568.027-3.139.054-4.703.054-22.526 0-96.681 83.607-101.573 89.154z"/></g><g><path style="fill:#fff" d="M242.913 173.067c-9.149 0-16.566-11.97-16.566-26.736s7.417-26.736 16.566-26.736 16.566 11.97 16.566 26.736"/><path d="M242.913 174.067c-9.686 0-17.566-12.442-17.566-27.736 0-15.293 7.88-27.735 17.566-27.735s17.566 12.442 17.566 27.735a1 1 0 1 1-2 0c0-14.19-6.983-25.735-15.566-25.735s-15.566 11.545-15.566 25.735c0 14.191 6.983 25.736 15.566 25.736a1 1 0 1 1 0 2z"/></g><g><path d="M249.825 122.034s29.195-9.079 44.331-36.515c21.573-39.104 4.005-83.779 4.005-83.779s-1.082 7.115-7.343 12.35c-6.701 5.603-17.023 3.672-17.023 3.672l7.072-14.858s-10.865 2.821-20.757 2.508C231.052 4.492 209.375 1 209.375 1l-39.291 97.946 39.291 73.848s6.04-.723 10.665-1.518c4.425-.76 12.274-3.519 12.274-3.519l17.511-45.723z"/><path d="M209.375 173.794a.998.998 0 0 1-.882-.53l-39.291-73.848a.997.997 0 0 1-.045-.842L208.448.628a1 1 0 0 1 1.087-.615c.216.035 21.954 3.492 50.607 4.4 9.619.307 20.366-2.448 20.474-2.477a.998.998 0 0 1 1.154 1.397l-6.479 13.614c2.904.281 9.997.464 14.886-3.625 5.876-4.913 6.986-11.667 6.997-11.735a1 1 0 0 1 1.919-.214c.177.451 17.491 45.564-4.061 84.628-14.103 25.564-40.594 35.5-44.441 36.83l-17.342 45.283a1.004 1.004 0 0 1-.603.586c-.324.114-7.979 2.796-12.436 3.561-4.597.79-10.655 1.518-10.716 1.525a.802.802 0 0 1-.119.008zm-38.19-74.907 38.75 72.831c1.705-.212 6.291-.801 9.936-1.427 3.704-.636 9.976-2.742 11.676-3.326l17.344-45.288c.11-.286.345-.506.637-.598.289-.09 28.997-9.295 43.753-36.042 17.92-32.482 8.363-69.322 4.979-79.932-.978 2.67-2.952 6.535-6.8 9.753-6.983 5.84-17.408 3.971-17.849 3.888a.999.999 0 0 1-.719-1.412l6.176-12.977c-3.641.803-11.522 2.297-18.99 2.057-25.716-.814-45.899-3.676-50.07-4.303l-38.823 96.776zm61.129 68.87h.01-.01z"/></g><g><path d="m124.138 122.606 15.99 44.028s13.805 11.679 20.996 13.246c46.215 10.073 71.191-12.123 71.191-12.123s-33.309-62.542-40.264-69.787c-26.405-27.506-67.913 24.636-67.913 24.636z"/><path d="M184.362 183.474c-7.097 0-14.922-.758-23.451-2.616-7.35-1.603-20.857-12.977-21.429-13.46a1.013 1.013 0 0 1-.294-.422l-15.99-44.028a1 1 0 0 1 .158-.965c.063-.079 6.437-8.045 15.622-16.031 12.412-10.792 23.78-16.5 33.79-16.964 7.656-.347 14.385 2.434 20.005 8.29 6.971 7.262 39.063 67.452 40.426 70.01a1 1 0 0 1-.219 1.217c-.208.184-17.29 14.969-48.618 14.969zm-43.386-17.434c1.722 1.433 13.956 11.468 20.361 12.863 23.587 5.142 41.446 1.635 52.275-2.212 9.667-3.435 15.607-7.743 17.435-9.186-3.738-6.994-33.335-62.195-39.717-68.843-5.204-5.42-11.416-8.004-18.468-7.677-21.368.989-44.479 28.051-47.59 31.813l15.704 43.242z"/></g><g><path style="fill:#fff" d="M242.913 173.067c-9.149 0-16.566-11.97-16.566-26.736s7.417-26.736 16.566-26.736 16.566 11.97 16.566 26.736"/><path d="M242.913 174.067c-9.686 0-17.566-12.442-17.566-27.736 0-15.293 7.88-27.735 17.566-27.735s17.566 12.442 17.566 27.735a1 1 0 1 1-2 0c0-14.19-6.983-25.735-15.566-25.735s-15.566 11.545-15.566 25.735c0 14.191 6.983 25.736 15.566 25.736a1 1 0 1 1 0 2z"/></g><path d="M247.882 210.124a.99.99 0 0 1-.466-.116c-.359-.189-8.908-4.789-17.548-16.671a1 1 0 1 1 1.617-1.175c8.346 11.477 16.782 16.034 16.866 16.079a1 1 0 0 1-.469 1.883z"/></g></g><g><path style="fill:#fff" d="M311.619 259.254c26.314 14.924 66.552 57.939 66.552 57.939l94.906 53.758c27.981 16.224 37.511 52.06 21.287 80.041-10.861 18.733-30.519 29.198-50.719 29.198-81.617 12.809-182.342-65.291-182.342-65.291"/><path d="M425.195 482.563c-24.07.001-58.404-6.338-103.779-29.323-35.063-17.762-60.473-37.354-60.726-37.551a.999.999 0 1 1 1.226-1.58c.251.194 25.536 19.688 60.437 37.363 27.485 13.92 65.919 29.116 102.668 29.118 6.227 0 12.4-.436 18.469-1.389.052-.008.104-.012.155-.012 20.488 0 39.59-10.997 49.854-28.7 15.922-27.459 6.536-62.752-20.923-78.674l-94.897-53.753a1.024 1.024 0 0 1-.238-.187c-.401-.43-40.436-43.075-66.314-57.753a1 1 0 1 1 .987-1.74c25.485 14.455 64.366 55.552 66.684 58.015l94.774 53.683c28.422 16.48 38.134 52.999 21.659 81.413-10.607 18.295-30.337 29.669-51.506 29.696-5.308.83-11.482 1.374-18.53 1.374z"/></g><g><path style="fill:#fff" d="M273.311 229.444c-5.209-6.393-35.816-23.837-56.298-21.413-30.416 3.599-47.207 15.237-72.357.872-5.599-3.198-18.397-13.287-17.957-22.55s14.116-17.701 14.116-17.701l-6.065-16.823s-29.95.953-43.562 23.613c-8.942 14.884-28.151 77.191 15.722 99.808 36.526 18.83 94.346-14.478 117.372-30.17 21.419-14.597 55.316-3.971 59.88-2.319l-10.851-13.317z"/><path d="M132.254 281.879c-9.756 0-18.376-1.913-25.802-5.741-12.942-6.671-21.558-17.279-25.608-31.527-7.348-25.854 2.553-58.143 9.486-69.684 13.734-22.863 44.083-24.089 44.388-24.098.465-.031.826.253.973.66l6.065 16.823a.999.999 0 0 1-.416 1.189c-.132.082-13.232 8.273-13.643 16.898-.408 8.579 11.583 18.28 17.454 21.634 17.668 10.092 31.279 7.075 48.511 3.255 6.815-1.511 14.54-3.223 23.232-4.252 21.051-2.484 52.064 15.482 57.191 21.774l10.851 13.317a1.001 1.001 0 0 1-1.116 1.572c-.364-.132-36.661-13.003-58.977 2.204-8.134 5.544-29.663 19.383-53.846 28.145-14.399 5.221-27.347 7.831-38.743 7.831zm1.809-129.007c-4.6.338-30.011 3.097-42.018 23.085-5.19 8.64-17.03 40.828-9.277 68.107 3.893 13.695 12.169 23.889 24.6 30.297 15.585 8.032 36.764 7.298 62.95-2.19 23.968-8.685 45.329-22.416 53.401-27.917 19.154-13.054 47.964-6.266 57.554-3.455l-8.737-10.723c-4.959-6.087-34.999-23.466-55.405-21.052-8.594 1.017-16.266 2.718-23.035 4.218-17.652 3.913-31.596 7.006-49.936-3.471-4.944-2.824-18.947-13.197-18.46-23.466.407-8.554 11.041-16.164 13.905-18.062l-5.542-15.371z"/></g></g></svg></g><g transform="translate(522.0 660.0) rotate(0.0 246.59999999999997 321.0) scale(2.800299788785174 2.7822800828616745)"><svg width="176.124" height="230.746" viewBox="0 0 176.124 230.746"><g stroke="#000" stroke-linecap="round" stroke-linejoin="round" stroke-miterlimit="10" stroke-width="2"><g fill="#fff"><path d="M18.161 100.019a26.34 26.34 0 0 0-2.797 12.177l1.52 109.22c.05 3.45 2.08 6.19 4.81 7.49-3.07-1.27-12.84-5.34-14.92-6.52-2.44-1.4-4.2-4-4.25-7.21l-1.52-109.22c-.067-4.953.718-10.582 2.783-15.474z"/><path d="M3.787 90.483c1.929-4.57 4.975-8.496 9.487-10.626l132.24-76.87a14.694 14.694 0 0 1 16.15.92l10.11 7.53c-2.09-1.31-4.84-1.55-7.29-.15l-135.85 77.68a26.307 26.307 0 0 0-10.473 11.053zm108.544 80.994 14.667 16.686 15.196 7.666-19.367-30.138z"/></g><path d="M164.486 11.291 28.635 88.966a26.33 26.33 0 0 0-13.27 23.231l1.524 109.219c.09 6.449 7.091 10.415 12.669 7.177l93.209-54.107 19.438 21.077.225-32.491 16.894-9.807a31.733 31.733 0 0 0 15.8-27.73l.001-108.074c-.001-5.458-5.9-8.88-10.639-6.17z" fill="#87C159"/></g></svg></g><g transform="translate(673.1999999999999 799.1999999999999) rotate(0.0 133.2 169.2) scale(2.4032693123077338 2.429114923551791)"><svg width="110.849" height="139.31" viewBox="0 0 110.849 139.31"><path d="M25.218 38.008c9.765-7.152 21.857-8.879 30.228 1.283 6.037-14.078 26.4-48.77 46.166-35.202 12.34 8.471 7.973 30.036 4.935 41.91-4.836 18.9-13.961 36.668-23.989 53.294-8.179 13.561-17.25 26.648-27.143 39.018-27.505-2.39-53.295-19.102-54.388-48.923-.616-18.997 8.683-40.022 24.19-51.38z" fill="#fff"/><path d="M55.416 139.31a.857.857 0 0 1-.087-.004c-26.701-2.32-54.155-18.644-55.3-49.882-.647-19.987 9.238-40.972 24.599-52.223l.591.807-.591-.807c8.822-6.463 21.307-9.616 30.536.252C60.459 25.755 73.084 4.839 87.266.729 92.499-.788 97.518.065 102.18 3.264c13.895 9.538 7.453 34.71 5.337 42.982-5.416 21.172-16.349 40.709-24.101 53.562-8.288 13.743-17.446 26.906-27.219 39.126a1.002 1.002 0 0 1-.781.375zM25.81 38.815C10.958 49.692 1.401 70.003 2.027 89.355c1.093 29.806 27.288 45.497 52.943 47.911 9.592-12.032 18.585-24.98 26.732-38.49 7.687-12.745 18.525-32.108 23.876-53.025 2.031-7.937 8.211-32.091-4.532-40.838-4.143-2.844-8.594-3.605-13.225-2.263-14.067 4.077-26.729 26.008-31.457 37.035a1.001 1.001 0 0 1-1.69.242c-8.429-10.232-20.437-7.285-28.865-1.112z"/></svg></g><g transform="translate(2074.7999999999997 1885.1999999999998) rotate(0.0 147.60000000000014 431.4000000000001) scale(1.0849311443597924 1.0806545550190696)"><svg width="272.091" height="798.405" viewBox="0 0 272.091 798.405"><g><g><path style="fill:#adc4cb" d="m2.001 358.513 267.718 4.147-45.46 383.103s-.112.939-.172 1.405c-3.521 27.744-42.253 49.237-88.462 49.237s-85.192-21.628-88.515-49.499c-.045-.38-.14-1.144-.14-1.144L6.197 399.095l-4.196-40.582z"/><path d="M135.625 798.405c-47.321 0-87.074-22.517-90.501-51.263l-.139-1.135L4.21 399.329l-4.199-40.61a1.998 1.998 0 0 1 .515-1.557c.386-.421.923-.675 1.505-.648l267.718 4.146a2.001 2.001 0 0 1 1.955 2.236l-45.46 383.102s-.113.954-.175 1.428c-1.783 14.052-12.166 27.021-29.234 36.513-16.775 9.329-38.514 14.466-61.21 14.466zM4.222 360.548l3.964 38.342 40.771 346.639.14 1.143c3.191 26.767 41.199 47.734 86.529 47.734 45.113 0 83.099-20.859 86.478-47.489.061-.464.17-1.387.17-1.389l45.199-380.902-263.251-4.078z"/></g><g><path style="fill:#fff" d="m269.611 366.857-1.874 26.088s-.376 1.663-.626 2.356c-12.831 35.312-67.004 61.761-131.32 61.761-65.214 0-119.528-27.231-131.382-63.27-.239-.727-.659-2.182-.659-2.182l-1.5-28.265v-.045L2 358.515l267.61 8.344v-.002h.001z"/><path d="M135.791 459.062c-64.908 0-120.961-27.188-133.282-64.646-.247-.75-.681-2.252-.681-2.252a2 2 0 0 1-.076-.449l-1.5-28.265a1.875 1.875 0 0 1-.003-.106l-.247-4.726a2.003 2.003 0 0 1 2.06-2.104l267.544 8.342h.005a2 2 0 0 1 1.995 2.142l-1.874 26.088a2.12 2.12 0 0 1-.044.298c-.067.298-.418 1.823-.696 2.594-6.437 17.714-23.261 33.783-47.375 45.251-24.181 11.5-54.662 17.833-85.826 17.833zM5.735 391.274c.124.423.399 1.36.574 1.893 11.796 35.864 66.251 61.896 129.482 61.896 62.276 0 116.714-25.421 129.44-60.445.132-.364.372-1.321.522-1.969l1.713-23.855-263.355-8.212.136 2.613.003.104 1.485 27.975z"/></g><g><path style="fill:#fff" d="M2.003 358.516c0 43.126 59.898 78.086 133.785 78.086s134.303-34.96 134.303-78.086-60.416-78.086-134.303-78.086S2.003 315.39 2.003 358.516z"/><path d="M135.788 438.602c-36.084 0-70.039-8.219-95.608-23.144C14.272 400.337.003 380.114.003 358.516s14.269-41.821 40.177-56.942c25.57-14.924 59.524-23.144 95.608-23.144 75.157 0 136.303 35.926 136.303 80.086s-61.146 80.086-136.303 80.086zm0-156.172c-72.667 0-131.785 34.132-131.785 76.086s59.119 76.085 131.785 76.085c72.952 0 132.303-34.132 132.303-76.085 0-41.954-59.351-76.086-132.303-76.086z"/></g><g><path style="fill:#fff" d="M19.222 355.395c0 33.88 52.448 67.042 116.825 67.042s116.308-33.162 116.308-67.042-52.189-61.344-116.566-61.344-116.566 27.465-116.567 61.344z"/><path d="M136.047 424.437c-30.913 0-60.593-7.491-83.572-21.095-22.403-13.262-35.252-30.738-35.252-47.947 0-17.164 12.505-33.197 35.211-45.146 22.299-11.735 51.902-18.198 83.356-18.198s61.058 6.462 83.356 18.197c22.705 11.949 35.21 27.982 35.21 45.147 0 17.225-12.753 34.7-34.989 47.944-22.844 13.605-52.433 21.098-83.32 21.098zM21.222 355.395c0 15.76 12.134 31.981 33.29 44.505 22.372 13.243 51.328 20.537 81.535 20.537 30.177 0 59.04-7.293 81.272-20.534 20.995-12.504 33.036-28.727 33.036-44.507 0-32.723-51.395-59.344-114.566-59.344s-114.566 26.62-114.567 59.343z"/></g><g><ellipse style="fill:#fff" cx="135.789" cy="358.516" rx="91.679" ry="48.247"/><path d="M135.789 408.763c-24.807 0-48.161-5.101-65.758-14.361-18.005-9.475-27.921-22.219-27.921-35.885s9.916-26.41 27.921-35.886c17.598-9.261 40.951-14.361 65.758-14.361 24.807 0 48.16 5.1 65.758 14.361 18.005 9.476 27.921 22.22 27.921 35.886s-9.916 26.41-27.921 35.885c-17.598 9.26-40.951 14.361-65.758 14.361zm0-96.494c-49.449 0-89.679 20.747-89.679 46.247s40.23 46.247 89.679 46.247 89.679-20.746 89.679-46.247-40.23-46.247-89.679-46.247z"/></g><g><ellipse cx="135.789" cy="357.668" rx="40.628" ry="21.381"/><path d="M135.789 381.049c-23.903 0-42.628-10.27-42.628-23.381s18.725-23.381 42.628-23.381 42.628 10.27 42.628 23.381-18.725 23.381-42.628 23.381zm0-42.762c-20.938 0-38.628 8.875-38.628 19.381s17.689 19.381 38.628 19.381 38.628-8.875 38.628-19.381-17.689-19.381-38.628-19.381z"/></g><g><path style="fill:#dbf301" d="M130.644 378.868c1.682.125 3.398.182 5.148.182 7.592 0 14.695-1.103 20.775-3.012l8.694-33.084 87.093-331.432-24.148-4.741-86.435 329.741-11.127 42.347v-.001z"/><path d="M135.792 381.05c-1.843 0-3.625-.063-5.296-.187a1.998 1.998 0 0 1-1.785-2.503l11.127-42.346 86.435-329.74a2 2 0 0 1 2.32-1.455L252.74 9.56a1.997 1.997 0 0 1 1.549 2.471l-95.786 364.516a2.003 2.003 0 0 1-1.335 1.4c-6.468 2.03-13.858 3.103-21.376 3.103zm-2.59-4.046c.844.03 1.709.045 2.59.045 6.71 0 13.296-.897 19.125-2.602l94.961-361.374-20.214-3.969-85.958 327.924-10.504 39.976z"/></g><g><ellipse transform="matrix(0.2134 -0.977 0.977 0.2134 179.7697 242.0894)" style="fill:#fff" cx="240.224" cy="9.406" rx="7.086" ry="12.302"/><path d="M243.074 18.812c-1.555 0-3.171-.176-4.789-.529-7.835-1.712-13.12-6.952-12.033-11.929.563-2.578 2.672-4.568 5.938-5.605 2.885-.916 6.427-.993 9.974-.219 7.835 1.711 13.121 6.951 12.034 11.929-.563 2.578-2.672 4.568-5.938 5.606-1.57.497-3.333.747-5.186.747zm-5.698-14.808c-1.445 0-2.808.186-3.976.557-1.818.577-2.999 1.542-3.24 2.646-.514 2.35 3.048 5.872 8.979 7.167 2.832.618 5.714.573 7.909-.124 1.818-.578 3-1.542 3.241-2.647.514-2.35-3.048-5.872-8.979-7.167a18.669 18.669 0 0 0-3.934-.432z"/></g></g></svg></g><g transform="translate(1276.8 198.0) rotate(0.0 281.4 346.8) scale(2.3777334640213605 2.3761643582197953)"><svg width="236.696" height="291.899" viewBox="0 0 236.696 291.899"><path d="M177.354 63.608c55.291 56.783 74.22 124.808 44.031 151.093-6.954 6.055-19.168 11.057-19.168 11.057L20.974 13.961s6.924-4.372 8.94-5.684c31.36-20.412 96.875 3.403 147.439 55.331z" fill="#fff"/><path d="M202.217 226.758c-.286 0-.565-.123-.76-.35L20.215 14.611a1.004 1.004 0 0 1-.229-.799c.044-.287.21-.541.455-.696.069-.044 6.941-4.383 8.929-5.677 15.525-10.104 39.466-9.948 67.412.439 27.995 10.404 56.863 29.949 81.289 55.033 37.543 38.556 59.983 83.93 58.563 118.414-.599 14.539-5.645 26.341-14.592 34.131-6.999 6.094-18.94 11.021-19.445 11.228-.123.05-.251.075-.379.075zM22.486 14.189l180.015 210.362c2.621-1.131 12.395-5.527 18.228-10.604 8.521-7.42 13.331-18.729 13.906-32.705 1.398-33.953-20.825-78.76-57.998-116.936C127.231 13.568 61.656-11.19 30.461 9.115c-1.542 1.003-5.989 3.818-7.975 5.074zm158.285 270.659-10.511 6.051-4.335-65.718h15.118z"/><path d="M170.26 291.899a1 1 0 0 1-.998-.934l-4.334-65.718a1 1 0 0 1 .998-1.066h15.117a1 1 0 0 1 1 1.005l-.271 59.667a1 1 0 0 1-.501.862l-10.512 6.051a.995.995 0 0 1-.499.133zm-3.266-65.718 4.158 63.051 8.622-4.963.264-58.087h-13.044zm13.777 58.667h.01zm20.597-192.903c36.131 49.446 45.303 100.743 20.017 122.754-6.53 5.68-17.66 10.43-19.03 11 3.16-1.54 6.02-3.43 8.53-5.69 24.935-22.43 14.993-73.173-21.409-122.442l11.891-5.622z"/><path d="M202.355 226.699a1 1 0 0 1-.438-1.899c3.115-1.518 5.907-3.38 8.3-5.534 24.028-21.614 15.169-71.414-21.544-121.104a.999.999 0 0 1 .377-1.498l11.891-5.622a1 1 0 0 1 1.235.314c37.182 50.883 45.352 101.914 19.866 124.098-6.722 5.846-18.034 10.641-19.303 11.169a.997.997 0 0 1-.384.077zM191.001 97.952c35.895 49.073 44.813 98.298 22.202 121.224 2.66-1.555 5.349-3.339 7.525-5.233 11.877-10.339 16.384-28.156 12.692-50.169-3.652-21.783-15.141-46.817-32.375-70.573L191 97.951z"/><path d="M165.439 69.351C111.624 14.084 42.269-8.348 13.577 19.563s-6.368 95.848 47.42 151.141c21.062 21.651 44.412 37.68 66.673 47.693l42.589 72.502v-60.567c16.903 1.494 31.206-1.858 40.621-10.326 29.762-26.767 9.85-93.872-45.442-150.655z" fill="#fff"/><path d="M170.26 291.899a.996.996 0 0 1-.862-.494l-42.428-72.228c-23.599-10.664-46.652-27.179-66.689-47.776-26.287-27.023-45.776-57.647-54.876-86.233-9.258-29.074-6.602-52.628 7.475-66.321 29.166-28.373 99.358-5.566 153.276 49.807 37.813 38.833 60.601 84.13 59.471 118.214-.475 14.31-5.342 26.026-14.077 33.882-9.234 8.305-23.144 11.985-40.29 10.669V290.9a1 1 0 0 1-1 1zM47.736 8.517c-13.64 0-25.245 3.77-33.462 11.763C.768 33.418-1.704 56.247 7.309 84.562c9.008 28.295 28.329 58.64 54.404 85.445 19.945 20.503 42.895 36.92 66.367 47.478a1 1 0 0 1 .452.406l40.727 69.332v-56.891a1.001 1.001 0 0 1 1.088-.997c17.073 1.509 30.858-1.974 39.864-10.074 8.44-7.59 12.954-18.512 13.416-32.461 1.112-33.559-21.459-78.296-58.905-116.752-37.774-38.793-83.5-61.531-116.986-61.531z"/></svg></g><g transform="translate(1362.0 346.8) rotate(0.0 181.19999999999993 141.6) scale(2.368906145821076 2.379312083074286)"><svg width="152.982" height="119.026" viewBox="0 0 152.982 119.026"><ellipse cx="20.899" cy="26.743" fill="#dbf301" rx="16.211" ry="28.205" transform="matrix(.8660254 -.5 .5 .8660254 -10.572 14.032)"/><path d="M29.853 53.494c-2.906 0-6.108-.967-9.41-2.882-5.465-3.169-10.596-8.59-14.448-15.263-8.052-13.947-7.918-29.153.301-33.898 8.222-4.744 21.455 2.741 29.508 16.687 3.853 6.674 5.981 13.828 5.994 20.144.013 6.518-2.224 11.402-6.297 13.754-1.688.974-3.594 1.458-5.648 1.458zM11.988 1.983c-1.697 0-3.283.386-4.691 1.199-7.264 4.194-7.071 18.175.43 31.166 3.681 6.375 8.553 11.537 13.719 14.533 4.994 2.896 9.631 3.4 13.056 1.422 3.427-1.978 5.309-6.246 5.297-12.018-.012-5.972-2.045-12.773-5.727-19.148C28.025 8.665 19.047 1.983 11.988 1.983z"/><ellipse cx="76.427" cy="57.649" fill="#dbf301" rx="16.211" ry="28.205" transform="matrix(.8660254 -.5 .5 .8660254 -18.585 45.937)"/><path d="M85.467 84.367c-7.835 0-17.533-7.008-23.945-18.113-3.853-6.674-5.981-13.828-5.994-20.144-.013-6.518 2.224-11.402 6.297-13.754 4.074-2.352 9.423-1.845 15.059 1.424 5.465 3.169 10.596 8.59 14.449 15.263 8.051 13.946 7.915 29.153-.303 33.898-1.675.967-3.558 1.426-5.563 1.426zM67.48 32.9c-1.71 0-3.28.394-4.655 1.188-3.427 1.978-5.309 6.246-5.297 12.018.012 5.972 2.045 12.773 5.727 19.148 7.501 12.991 19.511 20.149 26.775 15.955 7.263-4.193 7.069-18.175-.43-31.166-3.681-6.375-8.554-11.537-13.72-14.533-2.988-1.733-5.851-2.61-8.4-2.61z"/><ellipse cx="132.082" cy="92.283" fill="#dbf301" rx="16.211" ry="28.205" transform="matrix(.8660254 -.5 .5 .8660254 -28.446 78.405)"/><path d="M141.036 119.033c-2.906 0-6.108-.967-9.41-2.882-5.465-3.169-10.596-8.59-14.449-15.263-8.051-13.946-7.915-29.153.303-33.898 8.222-4.745 21.455 2.741 29.508 16.687 8.052 13.947 7.916 29.153-.303 33.898-1.688.974-3.594 1.458-5.648 1.458zm-17.864-51.51c-1.698 0-3.284.386-4.692 1.199-7.263 4.194-7.07 18.175.43 31.166 3.681 6.375 8.554 11.537 13.72 14.533 4.992 2.896 9.631 3.4 13.056 1.422 7.264-4.193 7.07-18.174-.43-31.166-6.046-10.472-15.025-17.154-22.083-17.154z"/></svg></g></svg>