<svg xmlns="http://www.w3.org/2000/svg" viewBox="0 0 3000 3000" width="3000" height="3000"><g transform="translate(1754.3999999999999 543.6) rotate(0.0 237.60000000000002 521.3999999999999) scale(1.1994124090723233 1.1988866495670876)"><svg width="396.194" height="869.807" viewBox="0 0 396.194 869.807"><path d="M240.844 868.807 38.724 749.53v-16.412l202.342 118.587z" fill="#fff"/><path d="M240.844 869.806a.991.991 0 0 1-.508-.139L38.215 750.391a1 1 0 0 1-.492-.861v-16.413a1.002 1.002 0 0 1 1.506-.863l202.342 118.587a1 1 0 0 1 .494.876l-.222 17.102a1 1 0 0 1-1 .986zM39.723 748.959l200.143 118.109.192-14.795L39.723 734.862z"/><path d="m395.194 778.455-154.128 90.352v-17.102l154.128-89.844z"/><path d="M241.066 869.806a1.002 1.002 0 0 1-1-1v-17.102c0-.356.189-.685.497-.864l154.128-89.844a.998.998 0 0 1 1.503.864v16.593c0 .355-.188.683-.494.863l-154.128 90.352a1.004 1.004 0 0 1-.506.137zm1-17.527v14.781l152.128-89.179v-14.28zm153.128-73.825h.01z"/><path d="m395.194 761.861-154.128 89.844L38.724 733.112l154.583-88.099z" fill="#adc4cb"/><path d="M241.066 852.705c-.175 0-.35-.046-.506-.137L38.218 733.975a1.001 1.001 0 0 1 .011-1.732l154.583-88.099a1 1 0 0 1 .996.003l201.888 116.848a.999.999 0 0 1 .002 1.729L241.57 852.568a.995.995 0 0 1-.503.136zM40.722 733.124l200.345 117.423 152.136-88.683-199.901-115.698-152.581 86.958z"/><path d="m254.926 757.976-13.562 8.265-29.955-37.265-13.563-661.561 13.563-8.265 43.517 22z"/><path d="M241.364 767.241a1 1 0 0 1-.78-.374l-29.955-37.265a.999.999 0 0 1-.221-.606L196.845 67.434a1.002 1.002 0 0 1 .479-.875l13.563-8.265c.296-.18.663-.194.972-.039l43.518 22c.336.17.549.516.549.893v676.827c0 .349-.182.672-.479.854l-13.563 8.265a.994.994 0 0 1-.52.146zm-28.962-38.625 29.191 36.315 12.333-7.516V81.764l-42.472-21.471-12.596 7.676 13.543 660.646zm42.525 29.361h.01z"/><path d="m241.364 766.241-43.518-29V67.415l43.518 22z" fill="#fff"/><path d="M241.364 767.241a.998.998 0 0 1-.555-.168l-43.517-29a1 1 0 0 1-.445-.832V67.415a1 1 0 0 1 1.451-.893l43.517 22c.336.17.549.516.549.893v676.826a1 1 0 0 1-1 1zm-42.517-30.535 41.517 27.667V90.03l-41.517-20.989zm165.632-309.65-109.384 63.438v-14.978l109.384-64.344z"/><path d="M255.095 491.493a.998.998 0 0 1-1-1v-14.978c0-.354.188-.682.493-.862l109.384-64.344a.999.999 0 0 1 1.506.862v15.884a1 1 0 0 1-.499.865l-109.384 63.438a.997.997 0 0 1-.501.135zm1-15.406v12.67l107.384-62.278V412.92zm108.384-49.032h.01z"/><path d="M255.095 490.494 1 344.326v-15.78l254.095 146.97z" fill="#fff"/><path d="M255.095 491.493a1 1 0 0 1-.499-.133L.501 345.193a1 1 0 0 1-.501-.867v-15.781a1 1 0 0 1 1.5-.866l254.095 146.97c.309.179.5.509.5.866v14.978a1 1 0 0 1-1 1zM2 343.748l252.095 145.017v-12.672L2 330.279z"/><path d="M255.095 475.516 1 328.546l109.312-62.689 254.167 145.315z" fill="#fff"/><path d="M255.095 476.516a1 1 0 0 1-.5-.134L.499 329.411a1.001 1.001 0 0 1 .002-1.734l109.312-62.688a.997.997 0 0 1 .994 0l254.167 145.315a1 1 0 0 1 .01 1.73L255.6 476.378a1 1 0 0 1-.507.138zM3.003 328.55 255.09 474.359l107.395-63.174L110.313 267.01zm340.802-16.57-9.225 5.349V134.888l9.225-5.828z"/><path d="M334.58 318.329a.998.998 0 0 1-1-1V134.888a1 1 0 0 1 .466-.845l9.225-5.829a1 1 0 0 1 1.535.845V311.98a1 1 0 0 1-.499.865l-9.225 5.349a.997.997 0 0 1-.501.135zm1-182.89v180.154l7.225-4.189v-180.53zm8.225 176.541h.01z"/><path d="M334.58 134.888 111.278 6.32 120.995 1l222.81 128.06z" fill="#fff"/><path d="M334.58 135.888a1 1 0 0 1-.499-.133L110.779 7.187a1 1 0 0 1 .019-1.743l9.718-5.321c.305-.167.676-.163.979.01l222.809 128.059a1 1 0 0 1 .035 1.712l-9.225 5.829a1 1 0 0 1-.534.155zM113.32 6.342 334.555 133.72l7.313-4.62L120.984 2.147l-7.664 4.196z"/><path d="M334.58 317.329 111.278 187.981V6.32L334.58 134.888z" fill="#fff"/><path d="M334.58 318.329a.997.997 0 0 1-.501-.135L110.776 188.846a.999.999 0 0 1-.499-.865V6.32a1 1 0 0 1 1.5-.866l223.302 128.568a1 1 0 0 1 .501.867V317.33a1 1 0 0 1-1 1zM112.278 187.405l221.302 128.19V135.467L112.278 8.05z"/><path d="M324.18 298.499 120.713 180.437V23.396L324.18 140.762z" fill="#adc4cb"/><path d="M324.18 299.499a1 1 0 0 1-.502-.135L120.211 181.302a1 1 0 0 1-.498-.865V23.396a.998.998 0 0 1 1.5-.866L324.68 139.897a1 1 0 0 1 .5.866v157.736a1.002 1.002 0 0 1-1 1zM121.713 179.861 323.18 296.762V141.34L121.713 25.127z"/></svg></g><g transform="translate(447.59999999999997 885.6) rotate(0.0 1013.4000000000001 881.4000000000001) scale(1.199965187510842 1.199510070767556)"><svg width="1689.049" height="1469.6" viewBox="0 0 1689.049 1469.6"><path d="M1082.452 1417.189c9.396 16.274 10.185 33.779 2.272 41.233-5.455 5.139-13.905 8.848-13.905 8.848s-17.335-14.331-25.573-28.6c-7.78-13.475-11.914-34.336-11.914-34.336s9.767-6.822 12.158-8.203c10.274-5.932 26.823 3.496 36.962 21.058z"/><path d="M1070.819 1468.27a.996.996 0 0 1-.637-.229c-.713-.59-17.569-14.61-25.802-28.871-7.772-13.463-11.988-34.432-12.029-34.642a1 1 0 0 1 .408-1.014c.4-.28 9.831-6.863 12.231-8.249 5.289-3.053 12.224-2.444 19.526 1.716 7.132 4.063 13.81 11.063 18.801 19.708 9.628 16.676 10.508 34.533 2.091 42.46-5.518 5.197-13.836 8.882-14.188 9.036a.993.993 0 0 1-.402.084zm-36.374-63.494c.766 3.59 4.815 21.526 11.667 33.394 7.293 12.632 22.03 25.509 24.867 27.926 1.958-.918 8.593-4.196 13.059-8.403 7.624-7.181 6.569-24.379-2.453-40.004-4.816-8.342-11.229-15.08-18.059-18.97-6.66-3.795-12.888-4.406-17.536-1.722-2.006 1.158-9.465 6.332-11.545 7.779z"/><ellipse cx="1053.301" cy="1435.027" rx="21.481" ry="36.718" transform="matrix(.8660254 -.5 .5 .8660254 -576.398 718.908)"/><path d="M1064.82 1469.574c-10.19 0-22.731-9.004-30.989-23.307-10.398-18.011-10.125-37.707.61-43.905 10.734-6.198 27.929 3.415 38.328 21.424 4.991 8.645 7.714 17.927 7.667 26.136-.048 8.404-2.988 14.715-8.277 17.769-2.21 1.276-4.696 1.882-7.339 1.882zm-22.917-67.133c-2.334 0-4.519.532-6.461 1.654-9.78 5.646-9.726 24.117.122 41.173 9.848 17.057 25.818 26.339 35.596 20.692 4.649-2.684 7.233-8.383 7.277-16.048.045-7.86-2.583-16.783-7.399-25.125-7.891-13.668-19.715-22.346-29.134-22.346z"/><ellipse cx="1052.242" cy="1435.292" fill="#adc4cb" rx="12.413" ry="23.956" transform="matrix(.8660254 -.5 .5 .8660254 -576.672 718.414)"/><path d="M1060.628 1457.958c-2.44 0-5.188-.93-8.056-2.765-4.425-2.831-8.667-7.517-11.946-13.194-6.997-12.119-7.375-24.559-.862-28.319 3.212-1.854 7.526-1.246 12.148 1.712 4.425 2.831 8.667 7.517 11.945 13.194 6.997 12.119 7.375 24.559.862 28.319-1.219.704-2.599 1.053-4.092 1.053zm-16.759-43.332c-1.149 0-2.194.26-3.104.786-5.357 3.093-4.627 14.811 1.594 25.587 3.121 5.405 7.131 9.848 11.291 12.51 3.963 2.535 7.539 3.126 10.07 1.664 5.357-3.093 4.627-14.811-1.594-25.587-3.121-5.406-7.13-9.848-11.291-12.51-2.538-1.624-4.917-2.45-6.966-2.45zm-792.417-477.98c9.396 16.274 10.185 33.779 2.272 41.233-5.455 5.139-13.905 8.848-13.905 8.848s-17.335-14.331-25.573-28.6c-7.78-13.475-11.914-34.336-11.914-34.336s9.767-6.822 12.158-8.203c10.274-5.932 26.823 3.496 36.962 21.058z"/><path d="M239.819 987.727a.996.996 0 0 1-.637-.229c-.713-.59-17.568-14.609-25.802-28.871-7.772-13.463-11.987-34.431-12.029-34.642a1 1 0 0 1 .408-1.014c.4-.28 9.831-6.863 12.231-8.25 10.736-6.197 27.929 3.413 38.328 21.424 9.628 16.676 10.507 34.534 2.091 42.461-5.518 5.197-13.837 8.881-14.188 9.036a.993.993 0 0 1-.402.084zm-36.374-63.493c.766 3.59 4.814 21.525 11.667 33.393 7.293 12.633 22.03 25.509 24.867 27.926 1.958-.918 8.594-4.196 13.06-8.402 7.624-7.181 6.569-24.379-2.453-40.005-9.846-17.055-25.815-26.34-35.596-20.692-2.006 1.158-9.464 6.332-11.544 7.78z"/><ellipse cx="222.301" cy="954.484" rx="21.481" ry="36.718" transform="matrix(.8660254 -.5 .5 .8660254 -447.459 239.027)"/><path d="M233.729 989.066c-3.741 0-7.856-1.219-12.095-3.634-7.133-4.064-13.811-11.063-18.802-19.708-10.398-18.011-10.125-37.707.61-43.905 10.738-6.197 27.93 3.414 38.328 21.424 10.398 18.011 10.125 37.707-.61 43.905-2.219 1.281-4.728 1.917-7.431 1.917zm-22.825-67.168c-2.334 0-4.519.532-6.461 1.654-9.78 5.646-9.725 24.117.122 41.173 4.816 8.342 11.23 15.08 18.059 18.97 6.66 3.794 12.888 4.406 17.537 1.722 9.779-5.646 9.723-24.118-.122-41.173-7.892-13.668-19.716-22.346-29.134-22.346z"/><ellipse cx="221.242" cy="954.749" fill="#adc4cb" rx="12.413" ry="23.956" transform="matrix(.8660254 -.5 .5 .8660254 -447.734 238.533)"/><path d="M229.627 977.414c-2.44 0-5.188-.93-8.056-2.765-4.425-2.831-8.667-7.517-11.945-13.194-3.278-5.678-5.215-11.694-5.454-16.942-.25-5.482 1.381-9.522 4.592-11.376 3.212-1.854 7.526-1.245 12.148 1.712 4.425 2.831 8.667 7.517 11.946 13.194 3.278 5.677 5.215 11.694 5.454 16.942.25 5.482-1.381 9.523-4.592 11.377-1.22.704-2.599 1.053-4.093 1.053zm-16.759-43.331c-1.149 0-2.194.26-3.104.786-2.532 1.461-3.808 4.854-3.594 9.553.225 4.934 2.067 10.628 5.188 16.033 3.121 5.406 7.13 9.848 11.291 12.51 3.962 2.535 7.538 3.127 10.07 1.664 2.532-1.461 3.808-4.854 3.594-9.553-.225-4.934-2.067-10.628-5.188-16.033-3.121-5.405-7.131-9.848-11.291-12.51-2.538-1.624-4.918-2.45-6.966-2.45zm1410.364 156.534c9.396 16.274 10.185 33.779 2.272 41.233-5.455 5.139-13.905 8.848-13.905 8.848s-17.335-14.331-25.573-28.6c-7.78-13.475-11.914-34.336-11.914-34.336s9.767-6.822 12.158-8.203c10.274-5.932 26.823 3.496 36.962 21.058z"/><path d="M1611.599 1141.699a.996.996 0 0 1-.637-.229c-.713-.59-17.568-14.609-25.802-28.871-7.772-13.463-11.987-34.431-12.029-34.642a1 1 0 0 1 .408-1.014c.4-.28 9.831-6.863 12.231-8.25 10.735-6.197 27.93 3.413 38.328 21.424 9.627 16.676 10.507 34.533 2.091 42.461-5.518 5.197-13.837 8.881-14.188 9.036a.993.993 0 0 1-.402.084zm-36.374-63.493c.766 3.59 4.814 21.525 11.667 33.393 7.293 12.633 22.03 25.509 24.867 27.926 1.958-.918 8.594-4.196 13.06-8.402 7.623-7.181 6.569-24.379-2.453-40.005-9.847-17.056-25.815-26.34-35.596-20.692-2.006 1.158-9.464 6.332-11.544 7.78z"/><ellipse cx="1594.081" cy="1108.456" rx="21.481" ry="36.718" transform="matrix(.8660254 -.5 .5 .8660254 -340.661 945.545)"/><path d="M1605.601 1143.003c-10.191 0-22.731-9.004-30.989-23.307-10.398-18.011-10.125-37.707.61-43.905 10.735-6.196 27.929 3.413 38.328 21.424 10.398 18.011 10.125 37.707-.61 43.905-2.211 1.276-4.697 1.882-7.339 1.882zm-22.917-67.133c-2.334 0-4.519.532-6.461 1.654-9.78 5.646-9.725 24.117.122 41.173s25.815 26.339 35.596 20.692c9.78-5.646 9.725-24.117-.122-41.173-7.891-13.668-19.715-22.346-29.134-22.346z"/><ellipse cx="1593.023" cy="1108.721" rx="12.413" ry="23.956" transform="matrix(.8660254 -.5 .5 .8660254 -340.936 945.052)"/><path d="M1601.408 1131.386c-2.44 0-5.188-.93-8.056-2.765-4.425-2.831-8.667-7.517-11.945-13.194-6.997-12.119-7.375-24.559-.862-28.319 6.514-3.759 17.097 2.787 24.094 14.906s7.375 24.559.862 28.319c-1.22.704-2.599 1.053-4.093 1.053zm-16.801-43.319c-1.122 0-2.155.249-3.063.773-5.357 3.093-4.627 14.811 1.595 25.587 3.121 5.406 7.13 9.848 11.291 12.51 3.961 2.535 7.538 3.127 10.07 1.664 5.357-3.093 4.626-14.811-1.594-25.587-5.168-8.952-12.794-14.947-18.299-14.947zM792.232 610.074c9.396 16.274 10.185 33.779 2.272 41.233-5.455 5.139-13.905 8.848-13.905 8.848s-17.335-14.331-25.573-28.6c-7.78-13.475-11.914-34.336-11.914-34.336s9.767-6.822 12.158-8.203c10.274-5.932 26.823 3.496 36.962 21.058z"/><path d="M780.599 661.155a.996.996 0 0 1-.637-.229c-.713-.59-17.568-14.609-25.802-28.871-7.772-13.462-11.988-34.431-12.029-34.642a1 1 0 0 1 .408-1.014c.4-.28 9.831-6.863 12.231-8.25 5.289-3.053 12.224-2.444 19.526 1.716 7.133 4.063 13.811 11.063 18.802 19.708 9.627 16.676 10.507 34.533 2.091 42.461-5.518 5.197-13.837 8.881-14.188 9.036a.993.993 0 0 1-.402.084zm-36.374-63.493c.766 3.59 4.815 21.526 11.667 33.393 7.293 12.633 22.03 25.509 24.867 27.926 1.958-.918 8.594-4.196 13.06-8.402 7.623-7.181 6.569-24.379-2.453-40.005-4.816-8.342-11.23-15.08-18.059-18.97-6.66-3.795-12.888-4.406-17.537-1.722-2.006 1.158-9.465 6.332-11.545 7.78z"/><ellipse cx="763.081" cy="627.912" rx="21.481" ry="36.718" transform="matrix(.8660254 -.5 .5 .8660254 -211.723 465.665)"/><path d="M774.6 662.459c-10.19 0-22.731-9.004-30.988-23.307-4.991-8.645-7.714-17.927-7.667-26.136.048-8.404 2.988-14.715 8.277-17.769 5.289-3.053 12.224-2.444 19.526 1.716 7.133 4.064 13.81 11.063 18.802 19.708 10.398 18.011 10.125 37.707-.61 43.905-2.211 1.276-4.697 1.882-7.34 1.882zm-22.941-67.126c-2.359 0-4.53.546-6.437 1.647-4.649 2.684-7.233 8.383-7.277 16.048-.045 7.859 2.583 16.782 7.399 25.125 9.847 17.056 25.814 26.339 35.596 20.692 9.78-5.646 9.726-24.117-.122-41.173-4.816-8.342-11.23-15.079-18.06-18.97-3.928-2.238-7.707-3.369-11.099-3.369z"/><ellipse cx="762.022" cy="628.177" fill="#adc4cb" rx="12.413" ry="23.956" transform="matrix(.8660254 -.5 .5 .8660254 -211.997 465.171)"/><path d="M770.408 650.843c-2.44 0-5.188-.93-8.056-2.765-4.425-2.831-8.667-7.517-11.945-13.194-6.997-12.119-7.375-24.558-.862-28.319 3.212-1.854 7.526-1.246 12.148 1.712 4.425 2.831 8.667 7.517 11.945 13.194 6.997 12.119 7.375 24.558.862 28.319-1.22.704-2.599 1.053-4.093 1.053zm-16.759-43.331c-1.149 0-2.194.26-3.104.786-5.357 3.093-4.627 14.81 1.595 25.586 3.121 5.406 7.13 9.848 11.291 12.51 3.962 2.535 7.539 3.127 10.07 1.664 5.357-3.093 4.627-14.81-1.595-25.586-3.121-5.406-7.13-9.848-11.291-12.51-2.538-1.624-4.917-2.45-6.966-2.45z"/><path d="m423.739 1006.672-225.57-130.4 20.101-11.889 225.571 130.4z" fill="#adc4cb"/><path d="M423.739 1007.672a1 1 0 0 1-.5-.134l-225.57-130.4a1 1 0 0 1-.009-1.727l20.102-11.889a1.002 1.002 0 0 1 1.01-.005l225.57 130.4a1 1 0 0 1 .009 1.727l-20.102 11.889a.997.997 0 0 1-.509.139zM200.15 876.262l223.583 129.251 18.127-10.721-223.583-129.251z"/><path d="m919.633 1293.343.841-213.948-496.402-285.758-.333 213.035-225.57-130.4-.587 36.861 903.583 522.35.081-37.152z" fill="#fff"/><path d="M1101.165 1436.483a1 1 0 0 1-.5-.134L197.082 913.998a1.003 1.003 0 0 1-.5-.882l.586-36.861a1.002 1.002 0 0 1 1.5-.85l224.073 129.534.331-211.304a1 1 0 0 1 1.499-.865l496.402 285.758c.311.179.502.512.501.871l-.838 213.368 181.11 104.698c.31.179.5.51.5.868l-.081 37.152a.998.998 0 0 1-1 .997zM198.591 912.561l901.577 521.191.076-34.845-181.111-104.699a1.001 1.001 0 0 1-.5-.87l.838-213.367-494.402-284.607-.331 211.308a.998.998 0 0 1-.501.865c-.309.178-.69.177-1 0L199.14 877.989l-.55 34.572z"/><path d="m1121.266 1423.594-20.101 11.889.081-37.152 20.101-11.889z"/><path d="M1101.165 1436.483a1 1 0 0 1-1-1.002l.081-37.152a1 1 0 0 1 .491-.859l20.102-11.889a1 1 0 0 1 1.509.863l-.081 37.152a1 1 0 0 1-.491.859l-20.102 11.889a.997.997 0 0 1-.509.139zm1.08-37.581-.076 34.825 18.1-10.705.075-34.825zm19.022 24.691h.01z"/><path d="m1101.246 1398.331-181.613-104.988 20.572-12.164 181.142 105.263z" fill="#adc4cb"/><path d="M1101.246 1399.331a1 1 0 0 1-.5-.134l-181.612-104.988a1 1 0 0 1-.009-1.727l20.572-12.164a1 1 0 0 1 1.011-.004l181.142 105.263a1.001 1.001 0 0 1 .007 1.726l-20.102 11.889a.997.997 0 0 1-.509.139zm-179.631-105.998 179.625 103.84 18.13-10.723-179.161-104.111-18.595 10.995z"/><path d="m940.205 1281.179-20.572 12.164.841-213.948 20.102-11.889z"/><path d="M919.633 1294.343a1.002 1.002 0 0 1-1-1.004l.841-213.948a1 1 0 0 1 .491-.857l20.102-11.889a1 1 0 0 1 1.509.863l-.371 213.673a.999.999 0 0 1-.491.859l-20.572 12.164a.997.997 0 0 1-.509.139zm1.838-214.376-.832 211.619 18.566-10.977.367-211.348zm18.733 201.212h.01z"/><path d="M920.474 1079.395 424.072 793.637l20.102-11.888 496.402 285.757z" fill="#fff"/><path d="M920.474 1080.395a1 1 0 0 1-.499-.133L423.573 794.504a1 1 0 0 1-.01-1.728l20.102-11.889a.999.999 0 0 1 1.008-.006l496.402 285.758a1 1 0 0 1 .01 1.728l-20.102 11.889a.997.997 0 0 1-.509.139zm-494.418-286.77 494.411 284.612 18.125-10.72-494.411-284.612z"/><path d="m972.528 686.805-225.57-130.4 20.102-11.889 225.57 130.4z" fill="#fff"/><path d="M972.528 687.805a1 1 0 0 1-.5-.134l-225.57-130.4a1 1 0 0 1-.009-1.727l20.102-11.889a1 1 0 0 1 1.01-.005l225.57 130.4a1 1 0 0 1 .009 1.727l-20.102 11.889a.997.997 0 0 1-.509.139zm-223.589-131.41 223.583 129.251 18.126-10.721-223.583-129.251z"/><path d="m1468.423 973.476.84-213.947-496.401-285.758-.334 213.034-225.57-130.4-.586 36.861 903.582 522.351.081-37.152z"/><path d="M1649.954 1116.616a1 1 0 0 1-.5-.134L745.871 594.131a1.003 1.003 0 0 1-.5-.882l.586-36.861a1.002 1.002 0 0 1 1.5-.85L971.53 685.072l.331-211.304a1 1 0 0 1 1.499-.865l496.402 285.758c.311.179.502.512.501.871l-.838 213.368 181.11 104.698c.31.179.5.51.5.868l-.081 37.152a.998.998 0 0 1-1 .997zM747.381 592.694l901.577 521.191.076-34.845-181.111-104.699a1.001 1.001 0 0 1-.5-.87l.838-213.367-494.402-284.607-.331 211.308a1.003 1.003 0 0 1-1.501.865L747.93 558.122l-.55 34.572z"/><path d="m1670.056 1103.728-20.102 11.889.081-37.152 20.102-11.889z"/><path d="M1649.954 1116.616a1 1 0 0 1-1-1.002l.081-37.152a1 1 0 0 1 .491-.859l20.102-11.889a1 1 0 0 1 1.509.863l-.081 37.152a1 1 0 0 1-.491.859l-20.102 11.889a.997.997 0 0 1-.509.139zm1.08-37.581-.076 34.825 18.099-10.705.076-34.825zm19.022 24.691h.01z"/><path d="m1650.035 1078.465-181.612-104.989 20.571-12.163 181.143 105.263z" fill="#adc4cb"/><path d="M1650.035 1079.465a1 1 0 0 1-.5-.134l-181.612-104.988a1 1 0 0 1-.009-1.727l20.571-12.164a1 1 0 0 1 1.011-.004l181.143 105.263a1.001 1.001 0 0 1 .007 1.726l-20.102 11.889a.997.997 0 0 1-.509.139zm-179.631-105.998 179.625 103.84 18.13-10.723-179.161-104.111-18.594 10.995z"/><path d="m1488.994 961.313-20.571 12.163.84-213.947 20.102-11.889z" fill="#fff"/><path d="M1468.423 974.476a1.002 1.002 0 0 1-1-1.004l.841-213.948a1 1 0 0 1 .491-.857l20.102-11.889a1 1 0 0 1 1.509.863l-.371 213.673a.999.999 0 0 1-.491.859l-20.571 12.164a.997.997 0 0 1-.509.139zm1.838-214.376-.832 211.619 18.565-10.977.367-211.348-18.101 10.706zm18.733 201.212h.01z"/><path d="M1469.263 759.529 972.862 473.771l20.101-11.889 496.402 285.758z" fill="#fff"/><path d="M1469.264 760.529a1 1 0 0 1-.499-.133L972.363 474.638a1 1 0 0 1-.01-1.728l20.102-11.889a.999.999 0 0 1 1.008-.006l496.402 285.758a1 1 0 0 1 .01 1.728l-20.102 11.889a.997.997 0 0 1-.509.139zm-494.418-286.77 494.411 284.612 18.125-10.72-494.411-284.612z"/><path d="m919.613 419.543-586.002 397.19L1 483.518l16.819-44.09z" fill="#fff"/><path d="M333.612 817.733c-.258 0-.515-.1-.708-.293L.292 484.224a1.002 1.002 0 0 1-.227-1.063l16.819-44.09c.145-.38.506-.634.913-.644l901.794-19.884c.448-.045.84.273.975.695s-.024.883-.392 1.132L334.172 817.559a.993.993 0 0 1-.561.172zM2.165 483.269l331.57 332.171 582.511-394.823-897.732 19.795z"/><path d="M919.613 419.543 333.621 756.516 17.819 439.428l583.245-335.981z" fill="#adc4cb"/><path d="M333.621 757.516c-.26 0-.516-.101-.709-.294L17.111 440.133a1 1 0 0 1 .209-1.572L600.564 102.58a1 1 0 0 1 1.204.157l318.55 316.096a1.002 1.002 0 0 1-.206 1.576L334.119 757.382a.995.995 0 0 1-.498.133zM19.447 439.644l314.341 315.623L917.979 419.33 600.901 104.695z"/><path d="M1100.296 1256.879 333.611 816.733l.01-60.217 1354.428 104.621v56.385z" fill="#fff"/><path d="M1100.296 1257.879a.994.994 0 0 1-.498-.133L333.112 817.6a.998.998 0 0 1-.502-.867l.009-60.216c0-.279.116-.545.321-.734a.978.978 0 0 1 .756-.263l1354.428 104.621a1 1 0 0 1 .923.997v56.385c0 .357-.19.688-.5.866l-587.752 339.357a1.003 1.003 0 0 1-.5.134zM334.611 816.153l765.684 439.572 586.753-338.781v-54.882L334.62 757.596z"/><path d="M1100.296 1201.879 333.621 756.516l585.992-336.973 768.436 441.594z" fill="#adc4cb"/><path d="M1100.296 1202.879a1 1 0 0 1-.502-.135L333.118 757.381a1 1 0 0 1 .003-1.732l585.993-336.973a1 1 0 0 1 .997 0l768.436 441.594a.998.998 0 0 1 .002 1.732l-587.752 340.742a.997.997 0 0 1-.501.135zM335.619 756.521l764.678 444.202 585.751-339.582-766.434-440.444z"/><g fill="#fff"><path d="m1500.465 565.082-359.98-205.73c-7.61-4.36-16.93-3.16-23.45.9-4.77 2.97-9.71 5.87-11.64 7-.03.01-.05.03-.07.04-.11.06-.22.12-.33.19-.13.07-.25.14-.37.22-.03.01-.05.02-.07.04l2.06 157.65 427.38 261.63 12.71-7.63.63-131.48c0-34.8-16.67-65.54-46.87-82.83zm-280.71-68.46-50.12-28.62v-45.479l50.12 29.31v44.79zm124.77 72.12-50.11-28.62v-45.48l50.11 29.32zm126.7 73.43-50.12-28.62v-45.48l50.12 29.31z" stroke="#000" stroke-linecap="round" stroke-linejoin="round" stroke-width="2"/><path d="m1485.165 572.522-358.14-205.07c-7.2-4.13-15.27-3.7-21.63-.2-.03.01-.05.03-.07.04-.11.06-.22.12-.33.19-.13.07-.25.14-.37.22-.03.01-.05.02-.07.04-6.24 3.78-10.65 10.58-10.65 18.91v146.37l440.09 254V656.751c0-34.8-18.63-66.94-48.83-84.229zm-13.94 24.86v44.79l-50.12-28.62v-45.48zm-126.7-73.42v44.78l-50.11-28.62v-45.48zm-124.77-72.13v44.79l-50.12-28.62v-45.479l50.12 29.31z" stroke="#000" stroke-linecap="round" stroke-linejoin="round" stroke-width="2"/><path d="M1219.755 496.622v16.2l-62.67-37.65v-59.99l12.55 7.34v45.479z"/></g><path d="M1219.755 513.822c-.178 0-.356-.048-.515-.143l-62.67-37.65a1 1 0 0 1-.485-.857v-59.99a1 1 0 0 1 1.504-.863l12.55 7.34a1 1 0 0 1 .495.863v44.899l49.616 28.333a.999.999 0 0 1 .504.868v16.2a1 1 0 0 1-1 1zm-61.67-39.216 60.67 36.448v-13.852l-49.616-28.333a.999.999 0 0 1-.504-.868v-44.906l-10.55-6.171v57.681z"/><path d="M1169.635 422.522v45.479l-12.55 7.171v-59.99z"/><path d="M1157.085 476.172a1 1 0 0 1-1-1v-59.99a1 1 0 0 1 1.504-.864l12.55 7.34a1 1 0 0 1 .495.863V468c0 .359-.192.69-.504.868l-12.55 7.17a.999.999 0 0 1-.496.132zm1-59.247v56.524l10.55-6.028v-44.325z"/><path d="M1219.755 496.622v16.2l-62.67-37.65 12.55-7.171z" fill="#fff"/><path d="M1219.755 513.822c-.178 0-.356-.048-.515-.143l-62.67-37.65a1 1 0 0 1 .019-1.725l12.55-7.17a1 1 0 0 1 .992 0l50.12 28.62a.999.999 0 0 1 .504.868v16.2a1 1 0 0 1-1 1zm-60.692-38.628 59.692 35.861v-13.852l-49.12-28.049z"/><path d="M1344.525 568.742v16.2l-62.66-37.65v-59.99l12.55 7.34v45.48z" fill="#fff"/><path d="M1344.525 585.942a1 1 0 0 1-.515-.143l-62.66-37.65a1 1 0 0 1-.485-.857v-59.99a1 1 0 0 1 1.504-.863l12.55 7.34a.999.999 0 0 1 .495.863v44.899l49.606 28.333a.999.999 0 0 1 .504.868v16.2a1.002 1.002 0 0 1-1 1zm-61.66-39.216 60.66 36.449v-13.852l-49.606-28.333a.999.999 0 0 1-.504-.868v-44.906l-10.55-6.17v57.681z"/><path d="M1294.415 494.642v45.48l-12.55 7.17v-59.99z"/><path d="M1281.865 548.292a1 1 0 0 1-1-1v-59.99a1 1 0 0 1 1.504-.863l12.55 7.34a.999.999 0 0 1 .495.863v45.48c0 .359-.192.69-.504.868l-12.55 7.17a.999.999 0 0 1-.496.132zm1-59.247v56.523l10.55-6.027v-44.326z"/><path d="M1344.525 568.742v16.2l-62.66-37.65 12.55-7.17z" fill="#fff"/><path d="M1344.525 585.942a1 1 0 0 1-.515-.143l-62.66-37.65a1 1 0 0 1 .019-1.725l12.55-7.17a.998.998 0 0 1 .992 0l50.11 28.62a.999.999 0 0 1 .504.868v16.2a.999.999 0 0 1-1 1zm-60.682-38.628 59.682 35.861v-13.852l-49.11-28.049z"/><path d="M1471.225 642.172v16.2l-62.66-37.65v-59.99l12.54 7.34v45.48z" fill="#fff"/><path d="M1471.226 659.372a1 1 0 0 1-.515-.143l-62.66-37.65a1 1 0 0 1-.485-.857v-59.99a.999.999 0 0 1 1.505-.863l12.54 7.34a1 1 0 0 1 .495.863v44.899l49.616 28.333a.999.999 0 0 1 .504.868v16.2a1.002 1.002 0 0 1-1 1zm-61.66-39.216 60.66 36.448v-13.852l-49.616-28.333a.999.999 0 0 1-.504-.868v-44.907l-10.54-6.169v57.68z"/><path d="M1421.105 568.072v45.48l-12.54 7.17v-59.99z"/><path d="M1408.565 621.722a1 1 0 0 1-1-1v-59.99a1.001 1.001 0 0 1 1.505-.863l12.54 7.34a1 1 0 0 1 .495.863v45.48a1 1 0 0 1-.503.868l-12.54 7.17a1 1 0 0 1-.497.132zm1-59.246v56.522l10.54-6.026v-44.327z"/><path d="M1471.225 642.172v16.2l-62.66-37.65 12.54-7.17z" fill="#fff"/><path d="M1471.226 659.372a1 1 0 0 1-.515-.143l-62.66-37.65a1 1 0 0 1 .018-1.725l12.54-7.17c.308-.175.685-.176.993 0l50.12 28.62a.999.999 0 0 1 .504.868v16.2a.999.999 0 0 1-1 1zm-60.683-38.628 59.683 35.861v-13.852l-49.12-28.049z"/><path d="m920.838 238.126-229.2-225.98c-10.629-10.592-26.345-13.619-39.143-9.15-4.468 1.56-19.03 10.682-19.03 10.682l-.787 82.787c.01 0 274.683 301.178 274.683 301.178l-4.399 30.678 14.829-8.527s25.863-63.891 28.853-75.281c9.23-35.23.794-80.158-25.806-106.388z" fill="#fff" stroke="#000" stroke-linecap="round" stroke-linejoin="round" stroke-width="2"/><path d="m908.318 245.716-229.2-225.98c-10.48-10.44-25.91-13.52-38.62-9.32-8.15 2.68-15.18 8.38-19.05 17.05l-34.287 83.768 315.874 317.089 9.43-26s14.739-37.849 19.579-56.319c9.24-35.23 2.884-74.047-23.726-100.287z" fill="#fff"/><path d="M903.035 429.323a1 1 0 0 1-.708-.294l-315.874-317.09a1 1 0 0 1-.217-1.084l34.287-83.768c3.767-8.441 10.746-14.688 19.663-17.621 13.7-4.527 29.261-.776 39.638 9.562l229.197 225.977c25.147 24.798 34.116 62.649 23.991 101.253-4.799 18.313-19.467 56.049-19.615 56.428l-9.421 25.978a1.001 1.001 0 0 1-.94.659zM588.338 110.998 902.632 426.5l8.893-24.519c.155-.4 14.782-38.029 19.552-56.232 9.94-37.901 1.167-75.032-23.461-99.322l-229.2-225.979c-9.851-9.813-24.611-13.377-37.604-9.082-8.376 2.754-14.929 8.617-18.451 16.508l-34.023 83.125z"/><path d="M347.18 667.255 146.615 466.848c-6.898-6.893-9.015-16.433-6.843-24.968h-.003s-22.006 56.842-22.965 64.611c-.942 7.626 1.639 17.207 7.664 23.228l222.711 217.537 47.037-29.681-47.037-50.319z" fill="#fff"/><path d="M347.18 748.255a.997.997 0 0 1-.699-.285L123.77 530.433c-5.823-5.818-9.018-15.486-7.958-24.065.964-7.802 22.125-62.522 23.025-64.848.09-.232.263-.422.485-.534a1 1 0 0 1 1.419 1.139c-2.216 8.706.244 17.683 6.58 24.014l200.565 200.407a.51.51 0 0 1 .023.024l47.037 50.319a1 1 0 0 1-.197 1.529l-47.037 29.681a.995.995 0 0 1-.533.154zM137.957 449.391c-5.924 15.506-19.43 51.301-20.161 57.222-.822 6.657 1.14 16.164 7.379 22.397l222.138 216.977 45.347-28.614-46.199-49.423-200.554-200.396c-4.958-4.954-7.718-11.409-7.95-18.164z"/><path d="M882.789 360.376 347.18 667.255 146.615 466.847c-12.164-12.154-9.477-32.54 5.42-41.128l470.551-271.272c18.832-10.718 42.488-7.645 57.957 7.529l202.247 198.4z" fill="#dbf301"/><path d="M347.181 668.255c-.259 0-.515-.1-.708-.292L145.908 467.556c-6.02-6.015-8.834-14.303-7.723-22.74s5.978-15.712 13.35-19.962l470.551-271.272c19.126-10.886 43.451-7.726 59.157 7.682l202.247 198.4a.998.998 0 0 1-.203 1.581L347.678 668.124a.998.998 0 0 1-.497.132zM646.5 149.142c-8.042 0-16.124 2.021-23.42 6.174l-470.546 271.27c-6.829 3.937-11.336 10.677-12.366 18.491s1.578 15.492 7.153 21.063l200.024 199.867 533.8-305.842L679.841 162.69c-9.079-8.906-21.161-13.548-33.342-13.548z"/><path d="m1610.147 791.964-.009-.004c-.089 5.725-2.948 11.413-8.594 14.709L1128.506 1082.9a61.561 61.561 0 0 1-61.845.14L347.179 667.255l-16.105 28.116 16.105 51.884 719.482 415.785a61.561 61.561 0 0 0 61.845-.14l473.038-276.231c5.206-3.04 8.048-8.112 8.529-13.373.581-6.353.073-81.333.073-81.333z" fill="#dbf301"/><path d="M1097.463 1172.28a62.536 62.536 0 0 1-31.302-8.374L346.679 748.121a.999.999 0 0 1-.455-.569l-16.105-51.884a1 1 0 0 1 .087-.793l16.105-28.116a.998.998 0 0 1 1.368-.368l719.482 415.785c18.788 10.856 42.1 10.805 60.84-.138l473.038-276.232c4.981-2.908 8.008-8.09 8.098-13.861a.998.998 0 0 1 1.447-.879c.336.168.559.516.562.892.021 3.063.501 75.102-.078 81.431-.545 5.96-3.833 11.116-9.02 14.145l-473.038 276.231a62.55 62.55 0 0 1-31.548 8.517zM348.018 746.585l719.144 415.589c18.788 10.856 42.1 10.805 60.84-.138l473.038-276.232c4.623-2.699 7.552-7.292 8.038-12.6.457-4.999.229-53.756.118-73.249-1.561 3.106-4.008 5.743-7.146 7.576l-473.038 276.231c-19.358 11.305-43.441 11.359-62.85.143L347.549 668.622l-15.39 26.867 15.86 51.095z"/><path d="M1066.662 1083.04 347.18 667.255l535.609-306.879 718.703 416.292c11.517 6.671 11.546 23.289.053 30l-473.038 276.231a61.561 61.561 0 0 1-61.845.14z" fill="#dbf301"/><path d="M1097.463 1092.28a62.533 62.533 0 0 1-31.301-8.374L346.68 668.121a1.001 1.001 0 0 1 .003-1.734l535.609-306.879a1 1 0 0 1 .998.002l718.703 416.292c5.721 3.313 9.143 9.238 9.154 15.849.012 6.611-3.39 12.547-9.098 15.88l-473.039 276.231a62.55 62.55 0 0 1-31.548 8.517zm-30.3-10.105c18.788 10.856 42.1 10.805 60.84-.138l473.039-276.232c5.086-2.97 8.117-8.26 8.106-14.149-.01-5.89-3.06-11.17-8.156-14.122L882.787 361.531 349.186 667.26l717.978 414.916z"/><path d="m1610.147 791.964-.009-.004c-.089 5.725-2.948 11.413-8.594 14.709L1128.506 1082.9a61.561 61.561 0 0 1-61.845.14L446.193 724.529l-3.381 77.992 623.849 360.519a61.561 61.561 0 0 0 61.845-.14l473.038-276.231c5.206-3.04 8.048-8.112 8.529-13.373.581-6.353.073-81.333.073-81.333z" fill="#87c159"/><path d="M1097.463 1172.28a62.533 62.533 0 0 1-31.301-8.374l-623.85-360.52a1.002 1.002 0 0 1-.499-.909l3.381-77.992a.998.998 0 0 1 1.499-.822l620.468 358.511c18.79 10.857 42.102 10.804 60.84-.138l473.038-276.232c4.981-2.908 8.008-8.09 8.098-13.861a.998.998 0 0 1 1.447-.879c.336.168.559.516.562.892.021 3.063.501 75.102-.078 81.431-.545 5.96-3.833 11.116-9.02 14.145l-473.038 276.231a62.548 62.548 0 0 1-31.548 8.516zM443.838 801.958l623.325 360.216c18.789 10.857 42.101 10.804 60.84-.138l473.038-276.232c4.623-2.699 7.552-7.292 8.038-12.6.457-4.999.229-53.756.118-73.249-1.561 3.106-4.008 5.743-7.146 7.576l-473.038 276.231c-19.357 11.303-43.44 11.359-62.85.142l-619.04-357.686-3.284 75.738z"/><path d="M1066.662 1083.04 413.228 705.424l536.901-307.619 651.364 378.864c11.517 6.671 11.546 23.289.053 30L1128.508 1082.9a61.561 61.561 0 0 1-61.845.14z" fill="#87c159"/><path d="M1097.463 1092.28a62.536 62.536 0 0 1-31.302-8.374L412.727 706.29a1.001 1.001 0 0 1 .003-1.734l536.9-307.62a1 1 0 0 1 1 .003l651.364 378.864c5.719 3.313 9.141 9.237 9.152 15.848.012 6.61-3.389 12.547-9.098 15.88l-473.039 276.231a62.548 62.548 0 0 1-31.548 8.516zm-30.301-10.105c18.789 10.857 42.101 10.804 60.84-.138l473.039-276.232c5.086-2.97 8.117-8.26 8.106-14.149-.01-5.891-3.06-11.169-8.156-14.122L950.125 398.96 415.233 705.429l651.93 376.747z"/><path d="m1037.292 448.495-536.624 307.46-87.44-50.531 536.901-307.619z" fill="#fff"/><path d="M500.668 756.955a1 1 0 0 1-.5-.134l-87.44-50.531a1.001 1.001 0 0 1 .003-1.734l536.9-307.62a1 1 0 0 1 1 .003l87.163 50.69a.999.999 0 0 1-.006 1.732l-536.623 307.46a1.002 1.002 0 0 1-.497.132zm-85.436-51.527 85.438 49.374 534.621-306.313-85.167-49.529-534.892 306.469z"/><path d="M500.612 755.955v80l-87.384-50.463v-80z" fill="#fff"/><path d="M500.612 836.955a.992.992 0 0 1-.5-.134l-87.384-50.464a1 1 0 0 1-.5-.866v-80a.998.998 0 0 1 1.5-.866l87.384 50.464a1 1 0 0 1 .5.866v80a.998.998 0 0 1-1 1zm-86.384-52.041 85.384 49.309v-77.69l-85.384-49.309z"/><path d="m351.496 566.32-229.2-225.98c-10.629-10.592-26.345-13.619-39.143-9.15-4.468 1.56-19.03 10.682-19.03 10.682l-.787 82.787c.01 0 274.683 301.178 274.683 301.178l-4.399 30.678 14.829-8.527s25.863-63.891 28.853-75.281c9.23-35.23.794-80.158-25.806-106.388z" fill="#fff" stroke="#000" stroke-linecap="round" stroke-linejoin="round" stroke-width="2"/><path d="m338.976 573.91-229.2-225.98c-10.48-10.44-25.91-13.52-38.62-9.32-8.15 2.68-15.18 8.38-19.05 17.05l-34.287 83.768 315.874 317.089 9.43-26s14.739-37.849 19.579-56.319c9.24-35.23 2.884-74.047-23.726-100.287z" fill="#fff"/><path d="M333.693 757.516a1 1 0 0 1-.708-.294L17.111 440.133a1 1 0 0 1-.217-1.084l34.287-83.768c3.767-8.441 10.746-14.688 19.663-17.621 13.702-4.527 29.262-.775 39.638 9.562l229.197 225.977c25.147 24.798 34.116 62.649 23.991 101.253-4.799 18.313-19.467 56.049-19.615 56.428l-9.421 25.978a1.001 1.001 0 0 1-.94.659zM18.996 439.192 333.29 754.694l8.893-24.519c.155-.4 14.782-38.029 19.552-56.232 9.94-37.901 1.167-75.033-23.461-99.322l-229.2-225.98c-9.85-9.813-24.61-13.377-37.604-9.082-8.376 2.754-14.929 8.617-18.451 16.508z"/><path d="m926.566 898.595-359.98-205.73c-7.61-4.36-16.93-3.16-23.45.9-4.77 2.97-9.71 5.87-11.64 7-.03.01-.05.03-.07.04-.11.06-.22.12-.33.19-.13.07-.25.14-.37.22-.03.01-.05.02-.07.04l2.06 157.65 427.38 261.63 16.193-9.721V981.521c0-34.8-19.523-65.636-49.723-82.926zm-280.71-68.46-50.12-28.62v-45.479l50.12 29.31v44.79zm124.77 72.12-50.11-28.62v-45.48l50.11 29.32zm126.7 73.43-50.12-28.62v-45.48l50.12 29.31z" fill="#fff" stroke="#000" stroke-linecap="round" stroke-linejoin="round" stroke-width="2"/><path d="m911.266 906.035-358.14-205.07c-7.2-4.13-15.27-3.7-21.63-.2-.03.01-.05.03-.07.04-.11.06-.22.12-.33.19-.13.07-.25.14-.37.22-.03.01-.05.02-.07.04-6.24 3.78-10.65 10.58-10.65 18.91v144.623l440.09 255.747V990.264c0-34.8-18.63-66.94-48.83-84.229zm-13.94 24.86v44.79l-50.12-28.62v-45.48zm-126.7-73.42v44.78l-50.11-28.62v-45.48zm-124.77-71.13v43.79l-50.12-28.62v-44.479l50.12 29.31z" fill="#fff" stroke="#000" stroke-linecap="round" stroke-linejoin="round" stroke-width="2"/><path d="M645.856 830.135v16.2l-62.67-37.65v-58.106l12.55 6.711v44.225z" fill="#fff"/><path d="M645.856 847.335c-.178 0-.356-.048-.515-.143l-62.67-37.65a1 1 0 0 1-.485-.857v-58.107a1.001 1.001 0 0 1 1.472-.882l12.55 6.712a1 1 0 0 1 .528.882v43.644l49.616 28.333a.999.999 0 0 1 .504.868v16.2a1 1 0 0 1-1 1zm-61.67-39.216 60.67 36.448v-13.852l-49.616-28.333a.999.999 0 0 1-.504-.868v-43.625l-10.55-5.642z"/><path d="M595.736 757.035v44.48l-12.55 7.17v-58.99z"/><path d="M583.186 809.685a1 1 0 0 1-1-1v-58.99a1 1 0 0 1 1.504-.864l12.55 7.34a.999.999 0 0 1 .495.863v44.479c0 .359-.192.69-.504.868l-12.55 7.17a.999.999 0 0 1-.496.132zm1-58.247v55.524l10.55-6.028v-43.325z"/><path d="M645.856 830.135v16.2l-62.67-37.65 12.55-7.17z" fill="#fff"/><path d="M645.856 847.335c-.178 0-.356-.048-.515-.143l-62.67-37.65a1.002 1.002 0 0 1 .019-1.725l12.55-7.17c.308-.175.685-.175.992 0l50.12 28.62a.999.999 0 0 1 .504.868v16.2a1 1 0 0 1-1 1zm-60.692-38.628 59.692 35.861v-13.852l-49.12-28.049z"/><path d="M770.626 902.255v16.2l-62.66-37.65v-59.99l12.55 7.34v45.48z" fill="#fff"/><path d="M770.626 919.455a1 1 0 0 1-.515-.143l-62.66-37.65a1 1 0 0 1-.485-.857v-59.99a1 1 0 0 1 1.504-.863l12.55 7.34a.999.999 0 0 1 .495.863v44.899l49.606 28.333a.999.999 0 0 1 .504.868v16.2a.999.999 0 0 1-1 1zm-61.66-39.216 60.66 36.449v-13.852l-49.606-28.333a.999.999 0 0 1-.504-.868v-44.906l-10.55-6.17v57.681z"/><path d="M720.516 828.155v45.48l-12.55 7.17v-59.99z"/><path d="M707.966 881.805a1 1 0 0 1-1-1v-59.99a1 1 0 0 1 1.504-.863l12.55 7.34a.999.999 0 0 1 .495.863v45.48c0 .359-.192.69-.504.868l-12.55 7.17a.999.999 0 0 1-.496.132zm1-59.247v56.523l10.55-6.027v-44.326z"/><path d="M770.626 902.255v16.2l-62.66-37.65 12.55-7.17z" fill="#fff"/><path d="M770.626 919.455a1 1 0 0 1-.515-.143l-62.66-37.65a1 1 0 0 1 .019-1.725l12.55-7.17a1 1 0 0 1 .992 0l50.11 28.62a.999.999 0 0 1 .504.868v16.2a.999.999 0 0 1-1 1zm-60.682-38.628 59.682 35.861v-13.852l-49.11-28.049z"/><path d="M897.326 975.685v16.2l-62.66-37.65v-59.99l12.54 7.34v45.48z" fill="#fff"/><path d="M897.326 992.885a1 1 0 0 1-.515-.143l-62.66-37.65a1 1 0 0 1-.485-.857v-59.99a1.001 1.001 0 0 1 1.505-.863l12.54 7.34a1 1 0 0 1 .495.863v44.899l49.616 28.333a.999.999 0 0 1 .504.868v16.2a1.002 1.002 0 0 1-1 1zm-61.66-39.216 60.66 36.448v-13.852l-49.616-28.333a.999.999 0 0 1-.504-.868v-44.907l-10.54-6.169v57.68z"/><path d="M847.206 901.585v45.48l-12.54 7.17v-59.99z"/><path d="M834.666 955.235a1 1 0 0 1-1-1v-59.99a1.001 1.001 0 0 1 1.505-.863l12.54 7.34a1 1 0 0 1 .495.863v45.48a1 1 0 0 1-.503.868l-12.54 7.17a1 1 0 0 1-.497.132zm1-59.246v56.522l10.54-6.026v-44.327z"/><path d="M897.326 975.685v16.2l-62.66-37.65 12.54-7.17z" fill="#fff"/><path d="M897.326 992.885a1 1 0 0 1-.515-.143l-62.66-37.65a1 1 0 0 1 .018-1.725l12.54-7.17c.307-.175.685-.176.993 0l50.12 28.62a.999.999 0 0 1 .504.868v16.2a.999.999 0 0 1-1 1zm-60.683-38.628 59.683 35.861v-13.852l-49.12-28.049z"/><path d="M1611.974 736.324c-.74-.67-16.491-13.622-27.451-15.283-5.14-.78-11.95.34-17.05 3.26l-361.36 206.62c-26.41 15.11-42.71 43.2-42.71 73.62v137.76l19.31 11.493 421.41-267.493z" fill="#fff" stroke="#000" stroke-linecap="round" stroke-linejoin="round" stroke-width="2"/><path d="M1614.486 738.035c-.01-.021-.03-.03-.04-.04-7.39-5.71-17.93-7.21-27.19-1.92l-361.36 206.63a84.8 84.8 0 0 0-42.71 73.62l-.431 145.75 33.62-14.67 374.538-203.961 33.003-38.368v-147.73c0-8.13-3.8-14.95-9.43-19.31z" fill="#fff"/><path d="M1623.916 898.075v-140.73c0-8.13-3.8-14.95-9.43-19.31-.01-.021-.03-.03-.04-.04-7.39-5.71-17.93-7.21-27.19-1.92l-361.36 206.63a84.8 84.8 0 0 0-42.71 73.62l-.431 137.75" fill="none" stroke="#000" stroke-linecap="round" stroke-linejoin="round" stroke-width="2"/></svg></g><g transform="translate(505.2 325.2) rotate(0.0 295.19999999999993 421.79999999999995) scale(1.1988790967794336 1.1983873763044324)"><svg width="492.46" height="703.946" viewBox="0 0 492.46 703.946"><path d="M429.562 2.38C423.197.081 415.346.616 407.788 4.281c-5.84 2.832-373.794 213.682-373.794 213.682s-27.37 13.053-32.186 44.575C.13 273.525 1.566 600.779 1.7 652.868c-.069 10.651 2.88 16.539 7.506 19.292 4.019 2.394 48.292 28.692 48.292 28.692l401.418-264.429 22.26-403.795S437.431 5.222 429.563 2.38z" fill="#fff"/><path d="M57.497 701.852a.998.998 0 0 1-.511-.14s-44.273-26.299-48.292-28.693C3.324 669.822.634 663.04.7 652.861c-.019-7.491-.066-20.694-.126-37.836C.214 512.339-.629 271.869.82 262.387c4.839-31.679 32.465-45.194 32.744-45.327C48.522 208.485 401.547 6.195 407.351 3.381 414.928-.292 423.147-1 429.902 1.44c7.877 2.845 50.014 29.219 51.804 30.34a1 1 0 0 1 .468.903l-22.26 403.795a1.004 1.004 0 0 1-.448.78L58.047 701.687a.998.998 0 0 1-.55.165zM421.406 2.008c-4.305 0-8.848 1.071-13.183 3.172C402.48 7.965 38.169 216.721 34.49 218.829c-.335.164-27.019 13.251-31.694 43.858-1.425 9.329-.583 249.69-.223 352.329.06 17.144.106 30.348.126 37.848-.061 9.427 2.3 15.627 7.017 18.436 3.758 2.238 42.705 25.374 47.752 28.373l400.475-263.808 22.2-402.703c-4.875-3.045-43.692-27.231-50.922-29.842-2.431-.878-5.075-1.312-7.815-1.312z"/><path d="M50.166 681.668c-.134-52.089-1.57-379.343.108-390.33 4.815-31.521 32.186-44.574 32.186-44.574S450.413 35.914 456.254 33.082c16.903-8.196 35.266-.737 35.206 19.048-.164 53.931-.261 381.469-1.28 391.887-2.234 22.834-19.574 36.23-35.919 46.495-50.164 31.502-354.218 199.457-354.218 199.457-17.224 9.997-50.104 26.976-49.875-8.301z" fill="#adc4cb"/><path d="M65.769 703.932c-3.14 0-6.02-.61-8.479-2.037-5.456-3.165-8.189-9.97-8.124-20.226-.02-7.488-.065-20.662-.125-37.766-.36-102.709-1.204-343.233.246-352.718 4.839-31.679 32.465-45.193 32.743-45.326C96.989 237.284 450.014 34.995 455.818 32.18c9.399-4.556 19.388-4.525 26.719.084 6.426 4.039 9.949 11.095 9.923 19.867-.039 12.763-.074 40.86-.118 76.433-.144 115.027-.384 307.548-1.167 315.549-2.235 22.844-18.807 36.207-36.383 47.244-49.614 31.157-351.226 197.806-354.267 199.486-10.327 5.994-24.05 13.088-34.756 13.088zM469.865 30.785c-4.263 0-8.78 1.065-13.174 3.196-5.743 2.785-370.054 211.542-373.733 213.65-.335.163-27.019 13.251-31.694 43.857-1.426 9.331-.583 249.747-.223 352.409.06 17.104.106 30.28.125 37.768v.009c-.062 9.491 2.336 15.712 7.127 18.492 9.945 5.771 28.304-3.55 41.246-11.062 3.059-1.69 304.622-168.312 354.188-199.439 17.144-10.766 33.305-23.76 35.456-45.745.773-7.905 1.014-200.366 1.157-315.357.044-35.574.079-63.672.118-76.437.024-8.058-3.167-14.51-8.987-18.168-3.367-2.116-7.361-3.174-11.608-3.174z"/><path d="M85.029 510.904c-.071-27.578-.831-200.841.057-206.659 2.549-16.689 17.041-23.6 17.041-23.6S296.938 169.012 300.03 167.512c8.949-4.339 18.671-.39 18.639 10.085-.087 28.553-.138 201.967-.678 207.483-1.183 12.089-10.364 19.182-19.017 24.616-26.559 16.678-187.539 105.601-187.539 105.601-9.119 5.293-26.527 14.282-26.406-4.395z"/><path d="M93.345 523.185c-1.758 0-3.378-.35-4.781-1.164-3.045-1.767-4.571-5.508-4.536-11.121-.01-3.979-.035-10.984-.067-20.078-.19-54.363-.636-181.673.136-186.728 2.599-17.017 16.987-24.06 17.598-24.352 7.889-4.524 194.811-111.632 197.897-113.13 5.123-2.484 10.582-2.459 14.603.069 3.544 2.228 5.488 6.105 5.474 10.918-.021 6.761-.039 21.642-.063 40.492-.076 60.9-.204 162.828-.62 167.085-1.206 12.329-10.524 19.741-19.481 25.366-26.279 16.502-185.977 104.741-187.587 105.63-5.919 3.435-12.955 7.01-18.574 7.01zm213.892-356.417c-2.187 0-4.508.548-6.77 1.646-3.026 1.467-195.895 111.984-197.843 113.101-.206.102-14.114 6.939-16.549 22.883-.749 4.902-.287 136.775-.113 186.419.032 9.1.057 16.108.067 20.086v.009c-.031 4.844 1.16 8 3.54 9.38 5.637 3.271 17.475-3.6 21.365-5.856 1.628-.9 161.277-89.111 187.509-105.583 8.975-5.637 17.435-12.429 18.554-23.867.407-4.162.534-106.03.61-166.894.023-18.852.042-33.735.063-40.496.012-4.098-1.599-7.372-4.538-9.219-1.706-1.072-3.734-1.608-5.895-1.608z"/><path d="M443.34 77.913c-.959.465-31.993 18.779-31.993 18.779s-10.403 5.5-12.953 22.188c-.889 5.817-.128 322.081-.057 349.659-.121 18.677 14.066 11.496 23.185 6.203 0 0 22.422-13.24 24.976-14.844 8.654-5.435 14.914-10.628 16.097-22.717.54-5.516.591-319.93.678-348.483.032-10.475-10.985-15.124-19.934-10.784z" fill="#fff"/><path d="M406.158 481.629c-1.548 0-2.977-.315-4.232-1.043-3.085-1.79-4.629-5.845-4.589-12.053-.009-3.427-.877-343.612.069-349.803 2.596-16.991 13.031-22.688 13.474-22.921 3.139-1.854 31.056-18.326 32.024-18.795 5.083-2.464 10.982-2.27 15.396.504 3.866 2.431 5.988 6.402 5.973 11.184-.022 7.369-.042 33.228-.069 69.018-.078 103.011-.208 275.42-.614 279.56-1.259 12.874-8.245 18.244-16.561 23.466-2.536 1.593-24.083 14.317-24.999 14.858-5.342 3.101-11.158 6.026-15.873 6.026zm37.621-402.817c-.908.456-23.352 13.684-31.923 18.742-.139.075-10.037 5.539-12.472 21.478-.766 5.012-.293 253.992-.046 349.505-.035 5.447 1.173 8.916 3.592 10.319 4.758 2.76 14.101-2.664 18.091-4.979.218-.128 22.433-13.248 24.946-14.826 8.141-5.112 14.46-9.976 15.634-21.967.396-4.044.531-183.147.604-279.367.027-35.791.046-61.651.069-69.022.012-4.066-1.777-7.435-5.038-9.484-3.835-2.411-8.991-2.563-13.457-.399zm-.439-.898h.01z"/><path d="M336.205 433.751c-.959.465-33.287 18.08-33.287 18.08s-10.403 5.5-12.953 22.188c-.889 5.817-.128 26.081-.057 53.659-.121 18.677 14.066 11.496 23.185 6.203 0 0 22.422-13.24 24.976-14.844 8.654-5.435 14.736-9.151 15.919-21.24.54-5.516.769-27.122.856-55.675.032-10.475-9.691-12.71-18.64-8.37z" fill="#fff"/><path d="M297.73 540.767c-1.548 0-2.977-.315-4.232-1.043-3.085-1.79-4.629-5.845-4.589-12.053-.025-9.542-.131-18.136-.225-25.718-.18-14.574-.299-24.202.294-28.085 2.595-16.991 13.031-22.688 13.474-22.922 1.31-.713 32.349-17.625 33.318-18.095 5.614-2.722 11.502-2.905 15.366-.476 2.158 1.356 4.727 4.148 4.709 9.749-.101 33.074-.374 50.795-.861 55.77-1.22 12.47-7.483 16.402-16.15 21.844l-.232.146c-2.536 1.593-24.083 14.317-25 14.858-5.342 3.101-11.158 6.026-15.873 6.026zm38.476-107.017.436.9c-.748.363-22.073 11.971-33.244 18.058-.109.058-10.008 5.522-12.442 21.461-.568 3.721-.444 13.803-.271 27.759.094 7.586.2 16.186.225 25.747-.035 5.447 1.173 8.916 3.593 10.319 4.758 2.762 14.101-2.664 18.09-4.979.218-.129 22.433-13.248 24.946-14.826l.232-.146c8.49-5.331 14.099-8.853 15.224-20.345.474-4.843.752-23.023.851-55.581.011-3.707-1.294-6.491-3.774-8.05-3.285-2.064-8.43-1.842-13.429.583zm0 0h.01z"/><path d="M246.255 485.224c-.959.465-33.287 18.08-33.287 18.08s-10.403 5.5-12.953 22.188c-.889 5.817-.128 26.081-.057 53.659-.121 18.677 14.066 11.496 23.185 6.203 0 0 22.422-13.24 24.976-14.844 8.654-5.435 14.736-9.151 15.919-21.24.54-5.516.769-27.122.856-55.675.032-10.475-9.691-12.71-18.64-8.37z" fill="#fff"/><path d="M207.78 592.241c-1.548 0-2.977-.315-4.232-1.043-3.085-1.79-4.629-5.845-4.589-12.053-.024-9.545-.131-18.141-.225-25.725-.18-14.571-.299-24.196.294-28.079 2.595-16.991 13.03-22.688 13.473-22.922 1.31-.713 32.349-17.625 33.318-18.095 5.613-2.722 11.501-2.905 15.366-.476 2.158 1.356 4.727 4.149 4.709 9.749-.1 33.068-.374 50.79-.861 55.77-1.22 12.469-7.482 16.402-16.15 21.844l-.232.146c-2.536 1.593-24.083 14.317-24.999 14.858-5.342 3.101-11.158 6.026-15.873 6.026zm38.476-107.017.436.9c-.748.363-22.073 11.971-33.245 18.058-.109.058-10.007 5.522-12.442 21.461-.568 3.72-.444 13.8-.271 27.752.094 7.588.2 16.189.225 25.753-.035 5.447 1.173 8.916 3.593 10.319 4.757 2.761 14.101-2.663 18.091-4.979.218-.128 22.433-13.248 24.946-14.826l.232-.146c8.49-5.331 14.099-8.852 15.223-20.344.474-4.849.752-23.029.851-55.581.011-3.707-1.294-6.491-3.774-8.05-3.286-2.065-8.431-1.842-13.429.583l-.437-.9zm0 0h.01z"/><path d="M156.305 536.698c-.959.465-33.287 18.08-33.287 18.08s-10.403 5.5-12.953 22.188c-.889 5.817-.128 26.081-.057 53.659-.121 18.677 14.066 11.496 23.185 6.203 0 0 22.422-13.24 24.976-14.844 8.654-5.435 14.736-9.151 15.919-21.24.54-5.516.769-27.122.856-55.675.032-10.475-9.691-12.71-18.64-8.37z" fill="#fff"/><path d="M117.83 643.715c-1.548 0-2.977-.315-4.232-1.043-3.085-1.79-4.629-5.845-4.589-12.053-.025-9.542-.131-18.136-.225-25.718-.18-14.574-.299-24.202.293-28.085 2.596-16.991 13.031-22.688 13.474-22.922 1.31-.713 32.349-17.625 33.318-18.095 5.614-2.722 11.502-2.905 15.366-.476 2.158 1.356 4.727 4.148 4.709 9.749-.101 33.074-.374 50.795-.861 55.77-1.22 12.47-7.483 16.402-16.15 21.844l-.232.146c-2.536 1.593-24.083 14.317-25 14.858-5.342 3.101-11.158 6.026-15.873 6.026zm38.476-107.017.436.9c-.748.363-22.073 11.971-33.244 18.058-.109.058-10.008 5.522-12.442 21.461-.568 3.721-.444 13.803-.271 27.759.094 7.586.2 16.186.225 25.747-.035 5.447 1.173 8.916 3.593 10.319 4.757 2.761 14.101-2.664 18.09-4.979.218-.129 22.433-13.248 24.946-14.826l.232-.146c8.49-5.331 14.099-8.853 15.224-20.345.474-4.843.752-23.023.851-55.581.011-3.707-1.294-6.491-3.774-8.05-3.285-2.064-8.43-1.842-13.429.583zm0 0h.01z"/><path d="M426.539 104.527c-.371.18-12.873 6.992-12.873 6.992s-4.023 2.127-5.009 8.581c-.344 2.25-.05 10.087-.022 20.752-.047 7.223 5.44 4.446 8.967 2.399 0 0 8.672-5.121 9.659-5.741 3.347-2.102 5.699-3.539 6.157-8.214.209-2.133.298-10.489.331-21.532.012-4.051-3.748-4.915-7.209-3.237z" fill="#87c159"/><path d="M411.671 146.537c-.704 0-1.362-.149-1.957-.494-1.397-.811-2.097-2.559-2.08-5.196-.009-3.684-.051-7.037-.087-9.937-.07-5.666-.116-9.409.121-10.96 1.05-6.873 5.348-9.218 5.531-9.314 2.08-1.133 12.531-6.827 12.905-7.008 2.396-1.162 4.839-1.218 6.536-.151 1.365.858 2.114 2.382 2.108 4.291-.039 12.811-.146 19.683-.336 21.626-.501 5.123-3.162 6.793-6.53 8.908l-.09.056c-.987.621-9.328 5.546-9.683 5.755-2.233 1.296-4.506 2.423-6.438 2.423zm15.307-41.11c-.384.193-7.88 4.272-12.833 6.971-.152.083-3.609 2.029-4.499 7.854-.212 1.389-.165 5.267-.098 10.634.036 2.905.078 6.265.087 9.965-.008 1.292.173 2.933 1.084 3.462 1.53.885 5.055-1.156 6.381-1.925.08-.047 8.665-5.117 9.629-5.723l.09-.057c3.241-2.035 5.198-3.264 5.604-7.409.181-1.854.288-8.867.326-21.438.004-1.229-.391-2.101-1.173-2.592-1.092-.687-2.853-.589-4.597.257zm-.438-.899h.01z"/><path d="M426.539 151.42c-.371.18-12.873 6.992-12.873 6.992s-4.023 2.127-5.009 8.581c-.344 2.25-.05 10.087-.022 20.752-.047 7.223 5.44 4.446 8.967 2.399 0 0 8.672-5.121 9.659-5.741 3.347-2.102 5.699-3.539 6.157-8.214.209-2.133.298-10.489.331-21.532.012-4.051-3.748-4.915-7.209-3.237z" fill="#dbf301"/><path d="M411.671 193.429c-.704 0-1.362-.149-1.957-.494-1.397-.811-2.097-2.559-2.08-5.196-.009-3.684-.051-7.037-.087-9.937-.07-5.666-.116-9.409.121-10.96 1.05-6.873 5.348-9.218 5.531-9.314 2.08-1.133 12.531-6.827 12.905-7.008 2.396-1.162 4.839-1.219 6.536-.151 1.365.858 2.114 2.382 2.108 4.291-.039 12.811-.146 19.683-.336 21.626-.501 5.123-3.162 6.793-6.531 8.908l-.089.056c-.987.621-9.328 5.546-9.683 5.756-2.233 1.296-4.506 2.423-6.438 2.423zm15.307-41.11c-.384.193-7.88 4.272-12.833 6.971-.152.083-3.609 2.029-4.499 7.854-.212 1.389-.165 5.267-.098 10.634.036 2.905.078 6.265.087 9.965-.008 1.292.173 2.933 1.084 3.462 1.53.886 5.055-1.156 6.381-1.925.08-.047 8.665-5.117 9.629-5.723l.09-.056c3.242-2.035 5.198-3.263 5.604-7.409.181-1.854.288-8.867.326-21.438.004-1.229-.391-2.101-1.172-2.592-1.092-.686-2.854-.588-4.598.257zm-.438-.899h.01z"/><path d="M426.539 222.596c-.371.18-12.873 6.992-12.873 6.992s-4.023 2.127-5.009 8.581c-.344 2.25-.05 10.087-.022 20.752-.047 7.223 5.44 4.446 8.967 2.399 0 0 8.672-5.121 9.659-5.741 3.347-2.102 5.699-3.539 6.157-8.214.209-2.133.298-10.489.331-21.532.012-4.051-3.748-4.915-7.209-3.237z" fill="#adc4cb"/><path d="M411.671 264.606c-.703 0-1.361-.149-1.957-.494-1.397-.811-2.097-2.559-2.08-5.196-.009-3.684-.051-7.037-.087-9.937-.07-5.666-.116-9.409.121-10.96 1.05-6.873 5.348-9.218 5.531-9.314 2.08-1.133 12.531-6.827 12.904-7.008 2.396-1.162 4.839-1.218 6.537-.151 1.365.858 2.114 2.382 2.108 4.292-.039 12.811-.146 19.683-.336 21.626-.501 5.123-3.163 6.793-6.532 8.909l-.088.055c-.987.621-9.328 5.546-9.683 5.755-2.233 1.296-4.506 2.424-6.438 2.424zm15.308-41.111c-.382.193-7.879 4.272-12.834 6.972-.152.083-3.609 2.029-4.499 7.854-.212 1.389-.165 5.267-.098 10.634.036 2.905.078 6.265.087 9.965-.008 1.292.173 2.933 1.084 3.462 1.53.887 5.055-1.156 6.381-1.926.08-.047 8.665-5.117 9.629-5.723l.088-.056c3.242-2.035 5.199-3.264 5.605-7.409.181-1.854.288-8.867.326-21.438.004-1.229-.391-2.101-1.173-2.592-1.092-.687-2.854-.588-4.596.256z"/><path d="M426.539 269.489c-.371.18-12.873 6.992-12.873 6.992s-4.023 2.127-5.009 8.581c-.344 2.25-.05 10.087-.022 20.752-.047 7.223 5.44 4.446 8.967 2.399 0 0 8.672-5.121 9.659-5.741 3.347-2.102 5.699-3.539 6.157-8.214.209-2.133.298-10.489.331-21.532.012-4.051-3.748-4.915-7.209-3.237z" fill="#87c159"/><path d="M411.671 311.498c-.704 0-1.362-.149-1.957-.495-1.397-.811-2.097-2.559-2.08-5.196-.009-3.684-.051-7.037-.087-9.936-.07-5.666-.116-9.409.121-10.96 1.05-6.873 5.348-9.218 5.531-9.314 2.08-1.134 12.531-6.827 12.904-7.008 2.396-1.162 4.839-1.217 6.537-.151 1.365.858 2.114 2.382 2.108 4.292-.039 12.811-.146 19.683-.336 21.626-.501 5.123-3.163 6.793-6.532 8.909l-.088.055c-.987.621-9.328 5.546-9.683 5.755-2.233 1.296-4.506 2.424-6.438 2.424zm15.308-41.111c-.378.19-7.878 4.271-12.834 6.972-.152.083-3.609 2.029-4.499 7.854-.212 1.389-.165 5.267-.098 10.634.036 2.905.078 6.264.087 9.964-.008 1.292.173 2.934 1.084 3.462 1.53.889 5.055-1.156 6.381-1.925.08-.047 8.665-5.117 9.629-5.723l.088-.056c3.242-2.035 5.199-3.264 5.605-7.409.181-1.854.288-8.867.326-21.438.004-1.229-.391-2.101-1.173-2.592-1.092-.687-2.853-.588-4.596.256z"/><path d="M426.539 357.516c-.371.18-12.873 6.992-12.873 6.992s-4.023 2.127-5.009 8.581c-.344 2.25-.05 10.087-.022 20.752-.047 7.223 5.44 4.446 8.967 2.399 0 0 8.672-5.121 9.659-5.741 3.347-2.102 5.699-3.539 6.157-8.214.209-2.133.298-10.489.331-21.532.012-4.051-3.748-4.915-7.209-3.237z" fill="#dbf301"/><path d="M411.671 399.526c-.704 0-1.362-.149-1.957-.495-1.397-.811-2.097-2.559-2.08-5.196-.009-3.684-.051-7.037-.087-9.936-.07-5.666-.116-9.41.121-10.96 1.05-6.874 5.348-9.218 5.531-9.315 2.08-1.133 12.531-6.827 12.905-7.008 2.396-1.162 4.839-1.218 6.536-.151 1.365.858 2.114 2.382 2.108 4.292-.039 12.811-.146 19.683-.336 21.626-.501 5.122-3.162 6.792-6.53 8.908l-.09.056c-.987.621-9.328 5.546-9.683 5.755-2.233 1.296-4.506 2.423-6.438 2.424zm15.308-41.111c-.378.19-7.878 4.271-12.834 6.972-.152.083-3.609 2.029-4.499 7.854-.212 1.389-.165 5.267-.098 10.634.036 2.905.078 6.264.087 9.964-.008 1.292.173 2.934 1.084 3.462 1.53.888 5.055-1.156 6.381-1.925.08-.047 8.665-5.117 9.629-5.723l.09-.057c3.241-2.035 5.198-3.264 5.604-7.408.181-1.854.288-8.867.326-21.438.004-1.229-.391-2.101-1.173-2.592-1.092-.687-2.853-.588-4.597.256zm-.439-.898h.01z"/><path d="M426.539 404.409c-.371.18-12.873 6.992-12.873 6.992s-4.023 2.127-5.009 8.581c-.344 2.25-.05 10.087-.022 20.752-.047 7.223 5.44 4.446 8.967 2.399 0 0 8.672-5.121 9.659-5.741 3.347-2.102 5.699-3.539 6.157-8.214.209-2.133.298-10.489.331-21.532.012-4.051-3.748-4.915-7.209-3.237z" fill="#dbf301"/><path d="M411.671 446.418c-.704 0-1.362-.149-1.957-.494-1.397-.811-2.097-2.559-2.08-5.196-.009-3.684-.051-7.037-.087-9.936-.07-5.666-.116-9.41.121-10.961 1.05-6.873 5.348-9.218 5.531-9.314 2.08-1.133 12.531-6.827 12.905-7.008 2.396-1.162 4.839-1.218 6.536-.151 1.365.858 2.114 2.382 2.108 4.292-.039 12.81-.146 19.682-.336 21.626-.501 5.123-3.162 6.793-6.53 8.908l-.09.056c-.987.621-9.328 5.546-9.683 5.755-2.233 1.296-4.506 2.423-6.438 2.423zm15.308-41.111c-.378.19-7.878 4.271-12.834 6.972-.152.083-3.609 2.029-4.499 7.854-.212 1.389-.165 5.267-.098 10.635.036 2.905.078 6.265.087 9.964-.008 1.292.173 2.933 1.084 3.462 1.53.887 5.055-1.156 6.381-1.925.08-.047 8.665-5.117 9.629-5.723l.09-.057c3.241-2.035 5.198-3.264 5.604-7.409.181-1.854.288-8.867.326-21.438.004-1.229-.391-2.101-1.173-2.592-1.092-.687-2.853-.588-4.597.256zm-.439-.898h.01z"/></svg></g><g transform="translate(1857.6 1618.8) rotate(0.0 413.4000000000001 529.1999999999999) scale(1.1996239205125827 1.1987061584321683)"><svg width="689.216" height="882.952" viewBox="0 0 689.216 882.952"><circle cx="220.614" cy="853.573" r="28.379"/><path d="M220.614 882.952c-16.2 0-29.379-13.179-29.379-29.379s13.18-29.379 29.379-29.379 29.379 13.18 29.379 29.379-13.179 29.379-29.379 29.379zm0-56.758c-15.097 0-27.379 12.282-27.379 27.379s12.282 27.379 27.379 27.379 27.379-12.282 27.379-27.379-12.282-27.379-27.379-27.379z"/><circle cx="64.066" cy="762.252" r="28.379"/><path d="M64.066 791.631c-16.2 0-29.379-13.179-29.379-29.379s13.179-29.379 29.379-29.379 29.379 13.179 29.379 29.379-13.18 29.379-29.379 29.379zm0-56.758c-15.097 0-27.379 12.282-27.379 27.379s12.282 27.379 27.379 27.379 27.379-12.282 27.379-27.379-12.282-27.379-27.379-27.379z"/><circle cx="569.142" cy="646.907" r="28.379"/><path d="M569.141 676.286c-16.2 0-29.379-13.179-29.379-29.379s13.179-29.379 29.379-29.379 29.379 13.18 29.379 29.379-13.18 29.379-29.379 29.379zm0-56.758c-15.097 0-27.379 12.282-27.379 27.379s12.282 27.379 27.379 27.379 27.379-12.282 27.379-27.379-12.282-27.379-27.379-27.379z"/><circle cx="412.594" cy="555.586" r="28.379"/><path d="M412.594 584.965c-16.2 0-29.379-13.179-29.379-29.379s13.179-29.379 29.379-29.379 29.379 13.18 29.379 29.379-13.18 29.379-29.379 29.379zm0-56.758c-15.097 0-27.379 12.282-27.379 27.379s12.282 27.379 27.379 27.379 27.379-12.282 27.379-27.379-12.282-27.379-27.379-27.379z"/><path d="m410.079 522.858-44.364 26.609 71.611 42.36-295.955 172.968-120.417-32.952v16l199.66 116.934 45.58-26.834-71.07-43.121 295.744-171.391 75.842 40.394 44.276-25.125z"/><path d="M220.614 865.777a1 1 0 0 1-.505-.137L20.449 748.706a1 1 0 0 1-.495-.863v-16a1 1 0 0 1 1.265-.964l120.012 32.84 294.123-171.897-70.147-41.495a1.001 1.001 0 0 1-.005-1.718l44.365-26.608a1 1 0 0 1 1.014-.009l200.907 115.842a1 1 0 0 1-.006 1.736l-44.276 25.125a1.003 1.003 0 0 1-.964.013l-75.352-40.133-293.803 170.266 69.627 42.247a.999.999 0 0 1-.012 1.717l-45.58 26.834a1.002 1.002 0 0 1-.507.138zM21.954 747.27l198.659 116.348 43.632-25.687-69.639-42.253a.998.998 0 0 1 .018-1.72l295.743-171.391c.299-.173.666-.179.972-.018l75.357 40.136 42.277-23.991L410.09 524.019l-42.42 25.442 70.167 41.506a1 1 0 0 1-.005 1.724L141.877 765.658a.998.998 0 0 1-.768.101L21.955 733.154v14.116z"/><path d="m437.326 591.827-71.611-42.36v-16l78.407 45.968z" fill="#adc4cb"/><path d="M437.326 592.827a.997.997 0 0 1-.509-.139l-71.611-42.361a1 1 0 0 1-.491-.861v-16a1.002 1.002 0 0 1 1.506-.863l78.407 45.969a1 1 0 0 1 .371 1.344l-6.796 12.392a1 1 0 0 1-.877.519zm-70.611-43.931 70.231 41.544 5.832-10.634-76.063-44.594z"/><path d="m410.079 506.858-44.364 26.609 71.611 42.36-295.955 172.968-75.513-42.641-44.904 25.689 199.66 116.934 45.58-26.834-71.07-43.121 295.744-171.391 75.842 40.394 44.276-25.125z" fill="#fff"/><path d="M220.614 849.777a1 1 0 0 1-.505-.137L20.449 732.706a1 1 0 0 1 .008-1.731l44.904-25.689a.998.998 0 0 1 .988-.002l75.013 42.358 293.99-171.819-70.147-41.495a1.001 1.001 0 0 1-.005-1.718l44.365-26.608a1 1 0 0 1 1.014-.009l200.907 115.842a1 1 0 0 1-.006 1.736l-44.276 25.125a1.003 1.003 0 0 1-.964.013l-75.352-40.133-293.803 170.266 69.627 42.247a.999.999 0 0 1-.012 1.717l-45.58 26.834a1.002 1.002 0 0 1-.507.138zM22.95 731.853l197.663 115.764 43.632-25.687-69.639-42.253a.998.998 0 0 1 .018-1.72l295.743-171.391a1 1 0 0 1 .972-.018l75.357 40.136 42.277-23.991L410.09 508.018l-42.42 25.442 70.167 41.506a1 1 0 0 1-.005 1.724L141.877 749.657a.996.996 0 0 1-.996.007l-75.019-42.361-42.911 24.549z"/><path d="m266.194 837.943-45.58 26.834v-16l45.58-26.834z"/><path d="M220.614 865.777a.999.999 0 0 1-1-1v-16c0-.354.188-.682.493-.862l45.58-26.834a.999.999 0 0 1 1.507.862v16c0 .354-.188.682-.493.862l-45.58 26.834a1 1 0 0 1-.507.138zm1-16.428v13.679l43.58-25.657v-13.679zm44.58-11.406h.01z"/><path d="m566.71 663.825-75.842-40.394v-16l75.842 40.394z" fill="#adc4cb"/><path d="M566.71 664.825a1 1 0 0 1-.47-.117l-75.842-40.394a1 1 0 0 1-.53-.883v-16a.999.999 0 0 1 1.47-.882l75.842 40.394a1 1 0 0 1 .53.883v16a.999.999 0 0 1-1 1zm-74.842-41.995 73.842 39.329v-13.734l-73.842-39.329z"/><path d="m610.986 638.7-44.276 25.125v-16l44.276-25.125z"/><path d="M566.71 664.825a.999.999 0 0 1-1-1v-16a1 1 0 0 1 .506-.87l44.277-25.125a.999.999 0 0 1 1.494.869v16a1 1 0 0 1-.506.87l-44.277 25.125a.997.997 0 0 1-.494.13zm1-16.417v13.7l42.277-23.99v-13.7zm43.277-9.708h.01zM182.204 788.609l-12.388 8.06-89.462-68.06-12.388-441.191 12.388-8.06 103.156 57.795z"/><path d="M169.816 797.669a.994.994 0 0 1-.605-.204l-89.461-68.06a.997.997 0 0 1-.394-.768L66.967 287.446a.999.999 0 0 1 .454-.866l12.389-8.06a1 1 0 0 1 1.034-.034L184 336.28c.316.178.512.513.511.875l-1.306 451.456a.997.997 0 0 1-.455.835l-12.389 8.06a1.002 1.002 0 0 1-.545.162zm-88.475-69.566 88.52 67.344 11.345-7.381 1.303-450.328-102.116-57.211-11.412 7.424zm100.864 60.506h.01z"/><path d="m169.816 796.669-101.85-60V287.418l101.85 58z" fill="#adc4cb"/><path d="M169.816 797.669a.996.996 0 0 1-.507-.138l-101.851-60a1.001 1.001 0 0 1-.492-.862V287.418a1 1 0 0 1 1.495-.869l101.85 58a1 1 0 0 1 .505.869v451.251a.999.999 0 0 1-1 1zm-100.85-61.572 99.85 58.822v-448.92l-99.85-56.861z"/><path d="M237.663 414.322 1.003 276.612v-16l236.66 137.71z" fill="#fff"/><path d="M237.663 415.322a.993.993 0 0 1-.503-.136L.5 277.476a.999.999 0 0 1-.497-.864v-16a1 1 0 0 1 1.502-.865l236.66 137.71a.999.999 0 0 1 .497.864v16a1 1 0 0 1-1 1zM2.003 276.036l234.66 136.546v-13.686L2.003 262.35z"/><path d="m237.663 398.322 450.55-261.37v16l-450.55 261.37z"/><path d="M237.663 415.322a.998.998 0 0 1-1-1v-16c0-.356.19-.686.498-.865l450.55-261.37a1 1 0 0 1 1.502.866v16c0 .356-.19.686-.498.865l-450.55 261.369a1 1 0 0 1-.502.135zm1-16.424v13.688l448.55-260.21v-13.688z"/><path d="M688.216 136.953 237.663 398.326 1 260.616 451.15 1z" fill="#fff"/><path d="M237.663 399.326a.993.993 0 0 1-.503-.136L.497 261.48a.999.999 0 0 1 .003-1.73L450.65.134a1 1 0 0 1 .997-.001l237.066 135.953a1 1 0 0 1 .004 1.732L238.165 399.191a1 1 0 0 1-.502.135zM2.995 260.619l234.669 136.55 448.551-260.211L451.151 2.154z"/><path d="M220.614 864.777 20.954 747.843v-16l199.66 116.934z" fill="#adc4cb"/><path d="M220.614 865.777a1 1 0 0 1-.505-.137L20.449 748.706a1 1 0 0 1-.495-.863v-16c0-.358.192-.689.503-.868s.693-.176 1.002.005l199.66 116.934a1 1 0 0 1 .495.863v16a1.002 1.002 0 0 1-1 1zM21.954 747.27l197.66 115.763v-13.682L21.954 733.588z"/></svg></g><g transform="translate(315.59999999999997 1018.8) rotate(0.0 136.20000000000002 635.9999999999999) scale(1.1948626171175916 1.2012704001118162)"><svg width="227.976" height="1058.879" viewBox="0 0 227.976 1058.879"><path d="m226.976 958.464-54.025-31.079-58.963 33.963-58.963-33.963L1 958.464l58.896 34.042L1 1026.431l53.98 31.448 59.008-34.107 59.009 34.107 53.979-31.448-58.896-33.925z" fill="#fff"/><path d="M172.996 1058.879a1 1 0 0 1-.5-.134l-58.508-33.818-58.508 33.818c-.31.179-.693.179-1.004-.001l-53.98-31.449a1.002 1.002 0 0 1 .004-1.731l57.395-33.06L.499 959.33a1 1 0 0 1 .001-1.733l54.025-31.079a1 1 0 0 1 .998 0l58.464 33.676 58.464-33.676a1 1 0 0 1 .998 0l54.025 31.079a.998.998 0 0 1 .001 1.733l-57.396 33.175 57.395 33.06a1 1 0 0 1 .004 1.731l-53.98 31.447c-.156.09-.33.136-.503.136zm-59.008-36.107a1 1 0 0 1 .5.134l58.506 33.816 51.987-30.286-57.4-33.063a1.003 1.003 0 0 1-.001-1.733l57.395-33.174-52.023-29.927-58.464 33.676a1 1 0 0 1-.998 0l-58.464-33.676-52.023 29.927 57.395 33.174a1 1 0 0 1-.001 1.733l-57.4 33.063 51.987 30.286 58.506-33.816c.155-.089.328-.134.5-.134z"/><path d="M59.896 992.506 1 958.203v-16.739l58.896 34.042z" fill="#fff"/><path d="M59.896 993.506a.993.993 0 0 1-.503-.136L.496 959.067a.999.999 0 0 1-.497-.864v-16.739a1 1 0 0 1 1.5-.866l58.896 34.042c.309.179.5.509.5.866v17a1 1 0 0 1-1 1zM2 957.628l56.896 33.138v-14.683L2 943.197zm224.976.836-58.896 34.042v-17l58.896-34.042z"/><path d="M168.08 993.506a1.002 1.002 0 0 1-1-1v-17a1 1 0 0 1 .5-.866l58.896-34.042a.998.998 0 0 1 1.5.866v17a1 1 0 0 1-.5.866l-58.896 34.042a1.005 1.005 0 0 1-.5.134zm1-17.423v14.69l56.896-32.886v-14.69zm57.896-17.619h.01zm0 67.967-53.979 31.448v-17l53.979-31.448z"/><path d="M172.996 1058.879a1 1 0 0 1-1-1v-17c0-.356.189-.685.497-.864l53.98-31.447a1 1 0 0 1 1.503.864v17a.999.999 0 0 1-.497.864l-53.98 31.447c-.156.09-.33.136-.503.136zm1-17.425v14.686l51.98-30.282v-14.686zm52.98-15.022h.01z"/><path d="m172.997 1057.879-59.009-33.801v-17.306l59.009 34.107z" fill="#fff"/><path d="M172.996 1058.879c-.171 0-.343-.044-.497-.132l-59.008-33.8a1 1 0 0 1-.503-.868v-17.307a1 1 0 0 1 1.5-.866l59.008 34.107c.309.179.5.509.5.866v17a.999.999 0 0 1-1 1zm-58.008-35.38 57.008 32.655v-14.698l-57.008-32.951z"/><path d="m113.988 1024.078-59.008 33.801v-17l59.008-34.107z"/><path d="M54.98 1058.879a1 1 0 0 1-1-1v-17a1 1 0 0 1 .5-.866l59.008-34.107a.998.998 0 0 1 1.5.866v17.307c0 .358-.192.689-.503.868l-59.008 33.8a1.002 1.002 0 0 1-.497.132zm1-17.423v14.698l57.008-32.655v-14.994zm58.008-17.377h.01z"/><path d="M54.98 1057.879 1 1026.431v-17l53.98 31.448z" fill="#fff"/><path d="M54.98 1058.879a.993.993 0 0 1-.503-.136L.496 1027.295a.999.999 0 0 1-.497-.864v-17a1 1 0 0 1 1.503-.864l53.98 31.447a.999.999 0 0 1 .497.864v17a1 1 0 0 1-1 1zM2 1025.857l51.98 30.282v-14.686L2 1011.171z"/><path d="m226.976 941.464-54.025-31.079-58.963 33.963-58.963-33.963L1 941.464l58.896 34.042L1 1009.431l53.98 31.448 59.008-34.107 59.009 34.107 53.979-31.448-58.896-33.925z" fill="#fff"/><path d="M172.996 1041.879a1 1 0 0 1-.5-.134l-58.508-33.818-58.508 33.818c-.31.179-.693.179-1.004-.001l-53.98-31.449a1.002 1.002 0 0 1 .004-1.731l57.395-33.06L.499 942.33a1 1 0 0 1 .001-1.733l54.025-31.079a1 1 0 0 1 .998 0l58.464 33.676 58.464-33.676a1 1 0 0 1 .998 0l54.025 31.079a.998.998 0 0 1 .001 1.733l-57.396 33.175 57.395 33.06a1 1 0 0 1 .004 1.731l-53.98 31.447c-.156.09-.33.136-.503.136zm-59.008-36.107a1 1 0 0 1 .5.134l58.506 33.816 51.987-30.286-57.4-33.063a1.003 1.003 0 0 1-.001-1.733l57.395-33.174-52.023-29.927-58.464 33.676a1 1 0 0 1-.998 0l-58.464-33.676-52.023 29.927 57.395 33.174a1 1 0 0 1-.001 1.733l-57.4 33.063 51.987 30.286 58.506-33.816c.155-.089.328-.134.5-.134zM75.055 108.001c-23.004 0-41.719-12.542-41.719-27.958s18.715-27.958 41.719-27.958 41.718 12.542 41.718 27.958c0 4.116-1.296 8.078-3.851 11.775a1.001 1.001 0 0 1-1.646-1.138c2.32-3.356 3.497-6.935 3.497-10.637 0-14.313-17.817-25.958-39.718-25.958S35.336 65.73 35.336 80.043s17.818 25.958 39.719 25.958a1 1 0 0 1 0 2z"/><path d="M105.758 4.996v978.441c0 2.207 3.656 3.996 8.167 3.996s8.167-1.789 8.167-3.996V4.996z" fill="#fff"/><path d="M113.925 988.433c-5.226 0-9.167-2.148-9.167-4.996V4.996a1 1 0 0 1 1-1h16.334a1 1 0 0 1 1 1v978.441c0 2.848-3.941 4.996-9.167 4.996zM106.758 5.996v977.441c0 1.415 3.065 2.996 7.167 2.996s7.167-1.582 7.167-2.996V5.996h-14.333z"/><ellipse cx="113.925" cy="4.996" fill="#fff" rx="8.167" ry="3.996"/><path d="M113.925 9.993c-5.226 0-9.167-2.148-9.167-4.997S108.699 0 113.925 0s9.167 2.148 9.167 4.996-3.941 4.997-9.167 4.997zm0-7.993c-4.102 0-7.167 1.582-7.167 2.996s3.065 2.997 7.167 2.997 7.167-1.582 7.167-2.997S118.027 2 113.925 2zm42.392 106.001c-23.004 0-41.719-12.542-41.719-27.958a1 1 0 0 1 2 0c0 14.313 17.818 25.958 39.719 25.958s39.718-11.645 39.718-25.958c0-9.138-7.515-17.712-19.613-22.378a1 1 0 0 1 .72-1.866c12.888 4.97 20.894 14.26 20.894 24.244 0 15.416-18.715 27.958-41.718 27.958z"/></svg></g><g transform="translate(2380.7999999999997 1602.0) rotate(0.0 46.80000000000018 72.60000000000002) scale(1.2046177011878916 1.210443829404115)"><svg width="77.701" height="119.956" viewBox="0 0 77.701 119.956"><path d="M38.85 1C18.187 1 1.392 10.626 1.007 22.588c-.005.14-.007.281-.007.421 0 12.153 16.907 23.236 37.812 23.236 20.741 0 37.623-10.911 37.887-22.95.002-.097.002-.191.002-.286C76.701 10.854 59.753 1 38.851 1z" fill="#fff" stroke="#000" stroke-linecap="round" stroke-linejoin="round" stroke-width="2"/><path d="M38.812 46.245c-19.381 0-35.314-9.527-37.537-20.599 1.369 13.104 7.439 70.948 8.457 76.301 1.754 9.229 13.097 17.009 29.253 17.009s27.964-7.704 29.253-17.009c1.335-9.632 8.307-76.945 8.307-76.945s.006-.049.013-.141c-1.615 11.402-17.911 21.384-37.747 21.384z" fill="#fff"/><path d="M38.985 119.956c-15.557 0-28.273-7.496-30.236-17.823C7.744 96.843 2.013 42.331.28 25.75a1 1 0 0 1 1.975-.301C4.484 36.55 20.541 45.245 38.811 45.245c18.665 0 35.154-9.207 36.757-20.524a1 1 0 0 1 1.987.22l-.017.18c-.068.658-6.988 67.425-8.31 76.964-1.436 10.356-14.155 17.872-30.244 17.872zM2.952 32.057c2.03 19.324 6.874 65.029 7.762 69.703 1.529 8.048 11.731 16.196 28.271 16.196 14.837 0 26.987-6.941 28.263-16.146 1.061-7.655 5.752-52.421 7.576-69.915-5.914 8.901-20.237 15.35-36.012 15.35S8.897 40.936 2.953 32.057z"/><path d="M70.517 35.434c-6.77 6.35-18.46 10.81-31.71 10.81s-24.88-4.45-31.63-10.8c.66-.93 1.45-1.83 2.37-2.67 5.9-5.52 16.81-9.21 29.3-9.21s23.39 3.69 29.3 9.2a17.2 17.2 0 0 1 2.37 2.67z" fill="#adc4cb"/><path d="M38.807 47.244c-12.866 0-24.946-4.139-32.315-11.071a1 1 0 0 1-.13-1.307 17.79 17.79 0 0 1 2.511-2.83c6.336-5.928 17.545-9.472 29.974-9.472s23.622 3.54 29.982 9.469c.962.89 1.806 1.84 2.503 2.822.29.408.233.966-.131 1.309-7.397 6.938-19.507 11.081-32.395 11.081zM8.524 35.319c7.061 6.229 18.296 9.925 30.283 9.925s23.273-3.7 30.361-9.936a16.851 16.851 0 0 0-1.7-1.81c-5.913-5.512-16.879-8.935-28.622-8.935s-22.722 3.426-28.617 8.94a16.133 16.133 0 0 0-1.706 1.814z"/><path d="M38.85 1C18.187 1 1.392 10.626 1.007 22.588c-.005.14-.007.281-.007.421 0 12.153 16.907 23.236 37.812 23.236 20.741 0 37.623-10.911 37.887-22.95.002-.097.002-.191.002-.286C76.701 10.854 59.753 1 38.851 1z" fill="none" stroke="#000" stroke-linecap="round" stroke-linejoin="round" stroke-width="2"/></svg></g><g transform="translate(2046.0 1762.8) rotate(0.0 188.39999999999986 110.39999999999998) scale(1.213155395289685 1.2108914420466694)"><svg width="310.595" height="182.345" viewBox="0 0 310.595 182.345"><path d="M126.268 181.345 2.414 107.849a11.787 11.787 0 0 1-.021-11.157l.021-.039L158.745 16.58l127.649 71.997-160.126 92.769z"/><path d="M126.268 182.345a1 1 0 0 1-.51-.14L1.904 108.709a.999.999 0 0 1-.37-.385 12.757 12.757 0 0 1-.023-12.104c.096-.18.266-.365.447-.458L158.289 15.69a1 1 0 0 1 .947.019l127.649 71.997a.998.998 0 0 1 .01 1.736l-160.126 92.769a1 1 0 0 1-.501.135zm-123.1-75.211 123.106 73.053 158.105-91.598-125.657-70.874L3.155 97.397c-1.549 3.096-1.539 6.682.013 9.736z"/><path d="M206.03 26.658 55.086 113.131l103.044 59.597 151.465-87.402z" fill="#fff"/><path d="M158.131 173.727a1 1 0 0 1-.5-.134L54.586 113.997a1.001 1.001 0 0 1 .003-1.734L205.533 25.79a1 1 0 0 1 .99-.002l103.564 58.668a1 1 0 0 1 .007 1.736L158.63 173.593a1.005 1.005 0 0 1-.5.134zM57.09 113.135l101.041 58.438L307.58 85.334 206.033 27.809z"/><path d="M185.818 1 20.371 95.615l106.477 63.975L293.77 63.373z" fill="#fff"/><path d="M126.848 160.59c-.178 0-.356-.048-.515-.143L19.856 96.473a1 1 0 0 1 .018-1.725L185.321.132c.309-.176.689-.176.997.002L294.27 62.507a1.002 1.002 0 0 1 0 1.732l-166.922 96.217a1.003 1.003 0 0 1-.5.134zm-104.5-64.953 104.511 62.793L291.77 63.372 185.816 2.153z"/><path d="M126.268 170.15 2.414 96.653 158.745 5.384l72.861 41.861c2.619 1.505 2.601 5.289-.032 6.768l-5.24 2.945c-1.821 1.024-1.862 3.632-.072 4.711l42.747 25.784-142.74 82.696z" fill="#dbf301"/><path d="M126.268 171.15a1 1 0 0 1-.51-.14L1.904 97.513a1 1 0 0 1 .006-1.723L158.241 4.52a1 1 0 0 1 1.002-.004l72.861 41.861c1.546.888 2.464 2.482 2.456 4.265s-.941 3.369-2.495 4.242l-5.241 2.945c-.542.305-.871.857-.88 1.479s.302 1.184.834 1.504l42.747 25.784a1 1 0 0 1-.016 1.721l-142.74 82.696a1 1 0 0 1-.501.135zM4.385 96.66l121.889 72.331 140.77-81.555-41.299-24.91c-1.148-.693-1.822-1.907-1.801-3.248s.731-2.534 1.9-3.191l5.241-2.945a2.864 2.864 0 0 0 1.475-2.508 2.858 2.858 0 0 0-1.452-2.521L158.749 6.539z"/></svg></g></svg>