<svg xmlns="http://www.w3.org/2000/svg" viewBox="0 0 3000 3000" width="3000" height="3000"><g transform="translate(298.8 348.0) rotate(0.0 674.4 612.0) scale(1.680764418835328 1.6773533994499268)"><svg width="802.492" height="729.721" viewBox="0 0 802.492 729.721"><path d="M792.311 19.744s-26.843-16.981-30.689-18.07C757.283.44 752.426.838 747.98 3.386L33.614 410.57a64.89 64.89 0 0 0-32.526 54.674L1 465.213V692.17c0 4.857 1.805 9.077 4.658 12.262 3.064 3.41 29.363 20.373 29.363 20.373z" fill="#fff"/><path d="M35.021 725.805a.99.99 0 0 1-.542-.16c-1.078-.696-26.447-17.075-29.565-20.545C1.699 701.511 0 697.04 0 692.17V465.213c0-.154.035-.303.101-.438.706-22.684 13.326-43.755 33.015-55.073L747.484 2.517c4.439-2.544 9.558-3.185 14.411-1.805 3.873 1.097 28.19 16.441 30.95 18.187a1.002 1.002 0 0 1 .147 1.577L35.703 725.537a1 1 0 0 1-.682.268zM2 465.654V692.17c0 4.37 1.522 8.379 4.403 11.594 2.296 2.556 19.276 13.81 28.507 19.778L790.679 19.897c-8.127-5.12-26.429-16.439-29.33-17.26-4.332-1.232-8.903-.657-12.873 1.617L34.109 411.439c-19.212 11.043-31.483 31.67-32.021 53.829a.995.995 0 0 1-.088.386z"/><path d="M774.836 19.886 60.473 427.066a64.88 64.88 0 0 0-32.546 56.247V710.28c0 14.186 15.366 23.044 27.642 15.935l710.704-407.88a70.6 70.6 0 0 0 35.219-61.094V35.309c0-13.68-14.796-22.241-26.656-15.423z" fill="#fff"/><path d="M46.342 729.725c-3.33 0-6.66-.875-9.697-2.626-6.085-3.508-9.718-9.795-9.718-16.819V483.313c0-23.512 12.663-45.397 33.048-57.114l714.363-407.18c5.882-3.382 12.901-3.372 18.775.027 5.873 3.398 9.379 9.478 9.379 16.264v221.931c0 25.459-13.686 49.201-35.718 61.96L56.066 727.082c-3.042 1.762-6.383 2.643-9.724 2.643zm737.36-711.232c-2.873 0-5.747.753-8.368 2.26l-.003.002-714.363 407.18c-19.762 11.36-32.041 32.58-32.041 55.379v226.967c0 6.3 3.259 11.94 8.717 15.087 5.458 3.146 11.971 3.14 17.423-.017l710.708-407.882c21.413-12.4 34.717-35.479 34.717-60.227V35.309c0-6.063-3.133-11.496-8.381-14.533-2.631-1.522-5.52-2.284-8.408-2.284zm-8.866 1.393h.01z"/><path d="M751.981 156.361c0-6.86-7.406-11.163-13.366-7.766L88.214 519.317a30.545 30.545 0 0 0-15.419 26.535v50.47c0 8.47 9.146 13.784 16.505 9.59l649.743-370.346a25.632 25.632 0 0 0 12.938-22.268z" fill="#fff"/><path d="M83.833 608.379c-2.079 0-4.156-.55-6.047-1.648-3.751-2.179-5.99-6.071-5.99-10.409v-50.47c0-11.305 6.101-21.806 15.923-27.404L738.12 147.726c3.111-1.774 6.818-1.759 9.915.041 3.097 1.799 4.946 5.012 4.946 8.594v56.937c0 9.544-5.151 18.41-13.443 23.136L89.796 606.781a12.012 12.012 0 0 1-5.963 1.598zm659.21-459.97c-1.35 0-2.699.351-3.933 1.054L88.709 520.185c-9.199 5.243-14.914 15.078-14.914 25.667v50.47c0 3.617 1.867 6.862 4.995 8.679 3.128 1.818 6.871 1.833 10.014.042l649.744-370.346a24.683 24.683 0 0 0 12.434-21.399v-56.937a7.86 7.86 0 0 0-3.95-6.864 7.926 7.926 0 0 0-3.988-1.087z"/><path d="m149.156 571.736-59.232 34.167c-7.614 4.392-17.128-1.103-17.128-9.893v-49.882a31.464 31.464 0 0 1 16.255-27.544l60.105-34.003z" fill="#87c159"/><path d="M84.217 608.451a12.4 12.4 0 0 1-6.213-1.685c-3.887-2.245-6.208-6.266-6.208-10.756v-49.882a32.47 32.47 0 0 1 16.772-28.419l60.096-33.998a.998.998 0 0 1 1.492.871v87.155a1 1 0 0 1-.5.866L90.424 606.77a12.394 12.394 0 0 1-6.207 1.682zm63.939-122.155-58.612 33.159a30.473 30.473 0 0 0-15.748 26.673v49.882c0 3.767 1.947 7.14 5.209 9.024s7.157 1.885 10.42.003l58.731-33.878zm1 85.441h.01z"/><path d="m225.515 528.714-76.359 43.022v-87.155l76.359-43.524z" fill="#87c159"/><path d="M149.156 572.736a1.004 1.004 0 0 1-1-1v-87.155c0-.359.193-.691.505-.869l76.36-43.524a1 1 0 0 1 1.496.869v87.657a1 1 0 0 1-.509.871l-76.36 43.022a1.001 1.001 0 0 1-.491.129zm1-87.574v84.863l74.36-41.896v-85.352l-74.36 42.384zm75.36 43.552h.01z"/><path d="m301.512 484.923-75.997 43.791v-87.657l75.781-42.895z" fill="#87c159"/><path d="M225.515 529.714a1.003 1.003 0 0 1-1-1v-87.657a1 1 0 0 1 .507-.87l75.78-42.895a.999.999 0 0 1 1.492.868l.217 86.761c0 .358-.19.69-.501.869l-75.997 43.79a1.002 1.002 0 0 1-.499.134zm1-88.074v85.344l73.995-42.637-.211-84.472z"/><path d="m377.872 441.429-76.36 43.494-.216-86.761 76.576-43.947z" fill="#87c159"/><path d="M301.512 485.923a1 1 0 0 1-1-.998l-.217-86.761c0-.359.191-.691.502-.87l76.576-43.947a1.001 1.001 0 0 1 1.498.867v87.215c0 .359-.193.691-.505.869l-76.36 43.494a1.002 1.002 0 0 1-.495.131zm.785-87.183.211 84.465 74.364-42.357v-84.906zm75.575 42.689h.01z"/><path d="m456.062 396.862-78.19 44.567v-87.214l76.544-43.629z" fill="#87c159"/><path d="M377.872 442.429a.998.998 0 0 1-1-1v-87.215c0-.359.193-.691.505-.869l76.544-43.629a1 1 0 0 1 1.495.85l1.646 86.276a1 1 0 0 1-.505.888l-78.19 44.568a.991.991 0 0 1-.495.131zm1-87.633v84.912l76.179-43.421-1.603-83.999z"/><path d="m532.424 353.336-76.362 43.526-1.646-86.276 77.815-44.354z" fill="#87c159"/><path d="M456.062 397.862a1 1 0 0 1-1-.981l-1.646-86.276a1 1 0 0 1 .505-.888l77.815-44.354a1 1 0 0 1 1.496.867l.193 87.104c0 .36-.192.693-.505.871l-76.362 43.526a1.002 1.002 0 0 1-.495.131zm-.635-86.702 1.603 83.999 74.393-42.403-.188-84.805-75.808 43.21z"/><path d="m602.357 313.488-69.933 39.848v-87.215l69.933-40.072z" fill="#fff"/><path d="M532.424 354.336a.998.998 0 0 1-1-1v-87.215c0-.358.192-.689.503-.868l69.933-40.072a.999.999 0 0 1 1.498.868v87.439c0 .359-.193.691-.505.869l-69.933 39.848a1.005 1.005 0 0 1-.495.131zm1-87.636v84.915l67.933-38.709v-85.132zm68.933 46.787h.01z"/><path d="m739.856 234.979-65.775 37.397-.108-87.041 64.243-36.618c6.217-3.543 13.941.956 13.925 8.112l-.129 57.309a24.036 24.036 0 0 1-12.156 20.842z" fill="#fff"/><path d="M674.081 273.375a.998.998 0 0 1-1-.998l-.108-87.041a1 1 0 0 1 .505-.87l64.244-36.618c3.233-1.843 7.083-1.824 10.298.049 3.216 1.873 5.13 5.213 5.122 8.934l-.129 57.309a25.093 25.093 0 0 1-12.662 21.709l-.494-.869.494.869-65.775 37.397a1 1 0 0 1-.494.131zm.893-87.46.105 84.743 64.283-36.548a23.087 23.087 0 0 0 11.651-19.974l.129-57.309a8.231 8.231 0 0 0-4.128-7.202 8.228 8.228 0 0 0-8.301-.039l-63.738 36.33z"/><path d="m674.081 272.375-73.755 42.04-1.646-86.276 75.293-42.805z" fill="#fff"/><path d="M600.326 315.415a1 1 0 0 1-1-.981l-1.646-86.276a1 1 0 0 1 .506-.888l75.293-42.804a1 1 0 0 1 1.495.868l.108 87.041a1 1 0 0 1-.505.87l-73.755 42.04a1.002 1.002 0 0 1-.495.131zm-.635-86.701 1.603 83.998 71.787-40.918-.105-84.743-73.284 41.662z"/></svg></g><g transform="translate(1383.6 910.8) rotate(0.0 612.0 824.9999999999999) scale(2.183690472579877 2.183484126070403)"><svg width="560.519" height="755.673" viewBox="0 0 560.519 755.673"><path d="M343.4 754.673 23.476 568.771l193.423-111.129 320.144 184.201z" fill="#adc4cb"/><path d="M343.4 755.673a.998.998 0 0 1-.502-.135L22.973 569.636a1.001 1.001 0 0 1 .004-1.732l193.424-111.129a1 1 0 0 1 .997 0l320.144 184.201a.998.998 0 0 1 .004 1.731L343.903 755.536a.998.998 0 0 1-.503.136zM25.474 568.776l317.925 184.74 191.648-111.667-318.148-183.053z"/><path d="M537.043 642.327a.499.499 0 0 1-.25-.067L216.98 458.078a.499.499 0 0 1-.25-.433V242.324a.499.499 0 0 1 .75-.433L537.293 426.09c.155.089.25.254.25.433v215.304a.499.499 0 0 1-.5.5zM217.73 457.356l318.813 183.606v-214.15L217.73 243.189z"/><path d="M23.475 569.271a.499.499 0 0 1-.5-.5V353.45c0-.179.096-.344.251-.434L216.65 241.887a.502.502 0 0 1 .75.433v215.321a.502.502 0 0 1-.251.434L23.725 569.204a.503.503 0 0 1-.249.067zm.5-215.531v214.167l192.424-110.555V243.185zm192.924 103.902h.01z"/><path d="M343.4 539.852a.5.5 0 0 1-.251-.068L23.224 353.883a.498.498 0 0 1 .002-.866L216.65 241.888a.5.5 0 0 1 .499 0l320.144 184.201a.5.5 0 0 1 .001.865L343.651 539.783a.504.504 0 0 1-.251.068zM24.475 353.453l318.924 185.321 192.646-112.248-319.146-183.628z"/><path d="M288.69 503.177c-33.623 7.217-65.735-8.363-96.789-23.43-38.128-18.497-81.342-39.464-123.33-9.589l25.476 35.805c19.8-14.089 41.688-4.624 78.673 13.32 21.381 10.373 44.455 21.569 69.818 26.768 17.328 3.553 35.725 4.308 55.375.09l-9.223-42.965z" fill="#fff"/><path d="M270.864 550.027c-9.321 0-18.785-.998-28.528-2.996-25.481-5.224-48.134-16.214-70.042-26.843-36.656-17.784-58.331-27.172-77.669-13.411a.999.999 0 0 1-1.395-.235l-25.476-35.805a1 1 0 0 1 .235-1.395c42.47-30.218 85.964-9.116 124.34 9.501 25.56 12.401 51.838 25.148 78.989 25.149 5.683 0 11.399-.558 17.161-1.794a1 1 0 0 1 1.188.768l9.223 42.965a1 1 0 0 1-.768 1.188 129.268 129.268 0 0 1-27.258 2.908zm-155.745-51.88c15.258 0 33.305 8.238 58.037 20.236 21.808 10.58 44.347 21.515 69.582 26.688 18.718 3.837 36.389 3.936 53.986.298l-8.803-41.011c-33.601 6.782-65.55-8.717-96.455-23.711-37.635-18.258-80.25-38.928-121.498-10.25l24.32 34.18c6.579-4.461 13.373-6.431 20.832-6.431z"/><path d="M193.105 652.733c23.242 11.408 48.341 16.674 71.6 21.555 40.233 8.442 63.335 14.35 70.373 37.61l42.059-12.728c-14.925-49.323-61.933-59.185-103.408-67.889-33.78-7.088-68.712-14.417-90.888-40.7l-33.587 28.336c12.96 15.361 27.972 26.022 43.851 33.816z" fill="#fff"/><path d="M335.078 712.897a.999.999 0 0 1-.957-.71c-6.875-22.719-29.761-28.557-69.622-36.921-23.843-5.003-48.485-10.174-71.834-21.635-17.723-8.7-32.173-19.844-44.175-34.069a.997.997 0 0 1 .12-1.409l33.587-28.336a1 1 0 0 1 1.409.119c21.954 26.02 56.712 33.313 90.327 40.366 41.752 8.762 89.066 18.691 104.162 68.578a1 1 0 0 1-.667 1.247l-42.059 12.728a.99.99 0 0 1-.29.043zm-141.532-61.062c23.125 11.351 47.642 16.496 71.352 21.471 40.066 8.407 63.304 14.339 70.837 37.348l40.15-12.15c-15.072-47.923-61.427-57.654-102.355-66.243-33.626-7.056-68.38-14.35-90.803-40.275l-32.06 27.048c11.691 13.646 25.728 24.382 42.879 32.801z"/><path d="M509.724 591.861c-33.384 8.255-65.963-6.323-97.469-20.42-38.683-17.307-82.526-36.925-123.567-5.763l26.572 42.688c19.354-14.696 41.524-5.913 79.048 10.876 21.693 9.706 45.102 20.181 70.614 24.593 17.43 3.014 35.842 3.199 55.351-1.626l-10.55-50.348z" fill="#fff"/><path d="M489.285 646.994c-8.009 0-16.158-.725-24.534-2.174-25.63-4.432-48.613-14.715-70.838-24.659-37.191-16.64-59.145-25.352-78.048-10.999a1.002 1.002 0 0 1-1.454-.268l-26.573-42.688a1 1 0 0 1 .245-1.325c41.512-31.519 85.64-11.775 124.573 5.643 31.36 14.032 63.779 28.538 96.828 20.366a1.001 1.001 0 0 1 1.219.766l10.549 50.348a1 1 0 0 1-.738 1.176 129.255 129.255 0 0 1-31.229 3.814zM337.427 599.88c14.981 0 32.931 7.55 57.289 18.449 22.127 9.9 44.993 20.131 70.376 24.52 18.839 3.258 36.516 2.806 54.004-1.383l-10.14-48.393c-33.364 7.803-65.764-6.695-97.109-20.721-38.205-17.092-81.467-36.448-121.827-6.427l25.516 40.991c6.8-4.902 13.926-7.037 21.891-7.037z"/><path d="M92.12 382.96c1.912-18.027 10.541-36.184 25.646-53.966l-33.492-28.449c-20.929 24.639-32.992 50.808-35.853 77.781-2.726 25.715 3.35 45.243 8.712 62.472 4.862 15.624 8.703 27.964 5.662 43.29-2.933 14.787-11.603 28.958-25.768 42.12l29.91 32.192c21.083-19.588 34.191-41.714 38.962-65.763 5.211-26.275-1.175-46.793-6.808-64.896-4.69-15.074-8.742-28.091-6.972-44.78z" fill="#fff"/><path d="M66.939 559.4a.998.998 0 0 1-.733-.319l-29.91-32.192a.996.996 0 0 1 .052-1.413c14.008-13.015 22.576-27.005 25.468-41.582 2.991-15.076-.816-27.308-5.635-42.795-5.391-17.324-11.501-36.955-8.753-62.878 2.883-27.176 15.024-53.528 36.085-78.323a1 1 0 0 1 1.41-.114l33.491 28.449a1 1 0 0 1 .115 1.41c-14.973 17.626-23.523 35.6-25.414 53.424-1.748 16.48 2.273 29.403 6.93 44.367 5.672 18.228 12.097 38.875 6.837 65.398-4.813 24.261-18.023 46.568-39.262 66.301a.997.997 0 0 1-.68.267zm-28.5-33.143 28.55 30.728c20.496-19.271 33.257-40.983 37.931-64.542 5.161-26.025-1.184-46.414-6.782-64.403-4.726-15.187-8.804-28.294-7.013-45.184 1.906-17.972 10.396-36.05 25.233-53.744l-31.967-27.155c-20.4 24.26-32.165 49.984-34.975 76.475-2.705 25.512 3.34 44.934 8.673 62.069 4.905 15.761 8.778 28.207 5.688 43.782-2.924 14.742-11.447 28.859-25.338 41.974z"/><path d="M283.465 550.629c-11.529-25.779-25.876-57.862-28.762-117.795l-55.976 2.115c3.285 68.201 20.194 106.012 32.54 133.62 13.807 30.878 17.975 40.197-3.386 72.29l48.666 24.348c34.784-52.263 21.872-81.14 6.919-114.576z" fill="#fff"/><path d="M276.546 666.205a.992.992 0 0 1-.447-.106l-48.666-24.348a1 1 0 0 1-.385-1.448c21.055-31.633 16.94-40.835 3.306-71.325-12.379-27.682-29.333-65.592-32.627-133.982a1.001 1.001 0 0 1 .961-1.047l55.976-2.115a.996.996 0 0 1 1.037.951c2.877 59.746 17.182 91.733 28.676 117.435 15.073 33.706 28.091 62.816-6.999 115.539a1 1 0 0 1-.833.446zm-47.208-25.737 46.864 23.446c33.869-51.339 21.112-79.87 6.35-112.878-11.499-25.713-25.794-57.68-28.799-117.167l-53.978 2.039c3.394 67.38 20.152 104.851 32.405 132.25 13.845 30.962 18.118 40.514-2.842 72.309z"/><path d="M284.413 574.911c-18.049-29.8-38.507-63.576-15.045-112.749l46.251 18.923c-12.686 26.589-4.737 41.823 12.972 71.062 13.942 23.019 31.293 51.667 32.733 92.259l-50.507 1.557c-1.035-29.164-13.358-49.511-26.404-71.051z" fill="#fff"/><path d="M310.817 646.962c-.536 0-.979-.425-.999-.965-1.025-28.904-13.283-49.142-26.26-70.568s.855-.518.855-.518l-.857.515c-18.179-30.016-38.784-64.036-15.089-113.695a1 1 0 0 1 1.281-.495l46.251 18.923a1.002 1.002 0 0 1 .524 1.356c-12.463 26.122-4.595 41.186 12.925 70.113 14.002 23.117 31.428 51.888 32.877 92.741a.999.999 0 0 1-.969 1.035l-50.507 1.557h-.031zm-25.548-72.569c12.968 21.41 25.225 41.646 26.508 70.539l48.509-1.496c-1.678-39.805-18.783-68.043-32.55-90.772-17.686-29.2-25.736-44.587-13.469-71.053l-44.398-18.165c-22.588 48.223-2.414 81.534 15.399 110.944l-.854.521z"/><path d="M372.187 593.491c-12.437-18.574-23.179-34.615-15.759-78.673l-43.333-7.3c-10.323 61.288 7.921 88.532 22.579 110.422 10.941 16.338 18.168 27.131 13.199 54.288l43.224 7.91c8.18-44.699-7.395-67.959-19.911-86.648z" fill="#fff"/><path d="M392.099 681.14c-.06 0-.12-.005-.181-.016l-43.224-7.91a1 1 0 0 1-.804-1.164c4.896-26.759-2.241-37.417-13.046-53.552-14.757-22.039-33.123-49.466-22.734-111.145a1.002 1.002 0 0 1 1.152-.82l43.333 7.3a1 1 0 0 1 .82 1.152c-7.354 43.663 3.284 59.551 15.602 77.948l-.83.559.831-.556c12.616 18.839 28.317 42.285 20.063 87.385a1 1 0 0 1-.983.82zm-42.065-9.714 41.258 7.55c7.7-43.659-7.613-66.527-19.935-84.928l.831-.556-.833.554c-12.462-18.611-23.237-34.706-16.076-78.406l-41.361-6.967c-9.895 60.199 8.107 87.087 22.587 108.712 10.944 16.343 18.218 27.208 13.528 54.041z"/><path d="M446.538 427.432c-28.991 32.428-36.138 72.279-42.445 107.439-6.197 34.552-12.051 67.188-36.861 91.154l30.531 31.605c35.026-33.834 42.76-76.955 49.584-115.001 5.789-32.275 11.257-62.76 31.952-85.91l-32.76-29.287z" fill="#fff"/><path d="M397.762 658.63a.996.996 0 0 1-.719-.305l-30.53-31.605a1 1 0 0 1 .024-1.414c24.58-23.744 30.405-56.224 36.571-90.611 6.332-35.294 13.506-75.292 42.684-107.929a1 1 0 0 1 1.412-.079l32.76 29.287a1 1 0 0 1 .079 1.412c-20.506 22.939-25.95 53.288-31.713 85.42-6.852 38.197-14.616 81.486-49.874 115.544a.996.996 0 0 1-.695.281zm-29.12-32.585 29.142 30.168c34.183-33.504 41.827-76.124 48.577-113.758 5.753-32.075 11.192-62.39 31.529-85.654l-31.271-27.955c-28.245 32.08-35.308 71.439-41.542 106.195-6.167 34.387-11.993 66.88-36.436 91.004z"/><path d="M295.708 526.22c-40.298 22.705-72.429 17.393-103.502 12.257-31.793-5.257-67.834-11.214-99.588 21.494l31.528 30.61c15.104-15.559 29.585-13.925 60.894-8.749 33.113 5.474 78.462 12.972 132.239-17.326l-21.57-38.285z" fill="#fff"/><path d="M124.146 591.58c-.26 0-.51-.101-.697-.282l-31.528-30.61a1 1 0 0 1-.021-1.414c32.122-33.087 68.434-27.082 100.469-21.784 30.905 5.108 62.858 10.39 102.848-12.141a1.002 1.002 0 0 1 1.362.38l21.57 38.285a.998.998 0 0 1-.381 1.362c-54.083 30.471-99.633 22.94-132.892 17.442-30.953-5.117-45.26-6.739-60.014 8.459-.185.19-.438.299-.703.303h-.015zm-30.111-31.627 30.096 29.219c15.199-15.157 29.881-13.484 61.072-8.328 32.788 5.42 77.624 12.834 130.712-16.722l-20.589-36.543c-40.191 22.31-72.26 17.012-103.28 11.884-31.319-5.179-66.788-11.042-98.011 20.489z"/><path d="M238.081 358.4c-22.066 6.41-37.354 24.068-45.437 52.485-5.963 20.957-7.78 45.364-9.704 71.205-2.77 37.191-5.908 79.345-23.382 96.528l30.812 31.332c29.257-28.771 32.884-77.485 36.392-124.597 2.779-37.324 5.928-79.628 23.578-84.755l-12.258-42.199z" fill="#fff"/><path d="M190.369 610.95a.997.997 0 0 1-.713-.299l-30.812-31.332a1 1 0 0 1 .012-1.415c17.205-16.917 20.329-58.867 23.085-95.879 1.929-25.905 3.75-50.361 9.74-71.415 8.185-28.77 23.702-46.66 46.121-53.172a1 1 0 0 1 1.239.681l12.258 42.199a1.004 1.004 0 0 1-.682 1.24c-16.982 4.933-20.104 46.869-22.859 83.868-3.522 47.299-7.164 96.203-36.688 125.236a.995.995 0 0 1-.701.287zm-29.408-32.331 29.415 29.912c28.341-28.596 31.922-76.707 35.388-123.248 2.754-36.994 5.868-78.831 23.346-85.331l-11.708-40.305c-21.199 6.538-35.931 23.862-43.796 51.512-5.935 20.858-7.748 45.215-9.668 71.002-2.747 36.877-5.855 78.595-22.976 96.458z"/><path d="M137.08 520.888c10.216-24.549 13.96-51.462 17.262-75.207 1.655-11.891 3.217-23.123 5.356-31.814 2.458-9.989 4.665-12.306 4.757-12.4-.324.327-1.074.703-1.619.833l1.907-43.857c-11.508-.5-32.479 2.949-43.625 31.675-5.319 13.708-7.738 31.098-10.3 49.508-7.168 51.529-15.009 88.986-50.816 101.705l14.708 41.408c28.522-10.13 49.506-30.94 62.369-61.851z" fill="#fff"/><path d="M74.712 583.739a1 1 0 0 1-.942-.666l-14.708-41.408a1.002 1.002 0 0 1 .607-1.277c35.276-12.53 43.041-49.724 50.16-100.9 2.57-18.476 4.997-35.918 10.358-49.732 11.372-29.306 32.826-32.824 44.601-32.312a1 1 0 0 1 .956 1.042l-1.833 42.142a1 1 0 0 1 1.258 1.54c-.018.019-2.137 2.335-4.499 11.937-2.125 8.636-3.683 19.835-5.333 31.691-3.315 23.829-7.068 50.809-17.333 75.476l-.923-.384.923.384c-12.976 31.183-34.158 52.18-62.957 62.409a1.01 1.01 0 0 1-.335.058zm-13.434-41.808 14.04 39.526c27.767-10.153 48.231-30.655 60.839-60.953 10.166-24.429 13.9-51.273 17.195-74.958 1.661-11.934 3.226-23.183 5.375-31.919 1.328-5.397 2.602-8.631 3.536-10.509a1.002 1.002 0 0 1-.425-.862l1.863-42.847c-11.427-.239-31.045 3.743-41.65 31.07-5.276 13.597-7.688 30.927-10.24 49.275-7.156 51.441-14.996 88.956-50.533 102.177z"/><g opacity=".35"><path d="M343.4 754.673 23.476 568.771v-215.32L343.4 539.352z" fill="#dbf301"/><path d="M343.4 755.673a.998.998 0 0 1-.502-.135L22.973 569.636a1 1 0 0 1-.498-.865V353.45a1 1 0 0 1 1.502-.865l319.924 185.902a1 1 0 0 1 .498.865v215.321a1 1 0 0 1-1 1zM24.475 568.196l317.924 184.74V539.928L24.475 355.188z"/></g><g opacity=".35"><path d="m343.4 539.352 193.643-112.829v215.304L343.4 754.673z" fill="#dbf301"/><path d="M343.4 755.673a.998.998 0 0 1-1-1V539.352c0-.356.189-.685.497-.864L536.54 425.659a1 1 0 0 1 1.503.864v215.304a.999.999 0 0 1-.497.864L343.903 755.537a.995.995 0 0 1-.503.136zm1-215.746v213.006l191.643-111.681V428.263z"/></g><path d="M343.4 755.673a.998.998 0 0 1-.502-.135L22.973 569.636a1 1 0 0 1-.498-.865V353.45a1 1 0 0 1 1.502-.865l319.924 185.902a1 1 0 0 1 .498.865v215.321a1 1 0 0 1-1 1zM24.475 568.196l317.924 184.74V539.928L24.475 355.188z"/><path d="M343.4 755.673a.998.998 0 0 1-1-1V539.352c0-.356.189-.685.497-.864L536.54 425.659a1 1 0 0 1 1.503.864v215.304a.999.999 0 0 1-.497.864L343.903 755.537a.995.995 0 0 1-.503.136zm1-215.746v213.006l191.643-111.681V428.263z"/><path d="M343.4 539.352 23.476 353.451 1 295.763l347.926 202.173z" fill="#adc4cb"/><path d="M343.4 540.352a.995.995 0 0 1-.502-.135L22.973 354.315a1 1 0 0 1-.429-.502L.068 296.126a1 1 0 0 1 1.434-1.228l347.926 202.173c.349.203.542.596.489.997l-5.526 41.417a1 1 0 0 1-.991.868zM24.28 352.762l318.326 184.973 5.24-39.27L2.97 298.064l21.311 54.698z"/><path d="m348.926 497.936 210.593-122.705-22.476 51.292L343.4 539.352z"/><path d="M343.4 540.352a.998.998 0 0 1-.992-1.132l5.526-41.417c.041-.306.221-.576.488-.732l210.592-122.705a.999.999 0 0 1 1.419 1.266l-22.476 51.292a.998.998 0 0 1-.413.463L343.901 540.216a.998.998 0 0 1-.503.136zm6.453-41.799-5.191 38.907 191.597-111.637 21.114-48.184-207.519 120.914z"/><path d="M348.926 497.936 1 295.763l210.354-120.856 348.165 200.324z" fill="#fff"/><path d="M348.926 498.936a1 1 0 0 1-.502-.135L.497 296.627a1 1 0 0 1 .004-1.732l210.354-120.856a1 1 0 0 1 .997 0l348.165 200.324a.998.998 0 0 1 .004 1.731L349.429 498.799a.998.998 0 0 1-.503.136zM2.999 295.767l345.927 201.011 208.597-121.543-346.17-199.175z"/><path d="M559.519 375.231 348.926 497.936V325.459l210.593-122.705z" fill="#adc4cb"/><path d="M348.926 498.936a1 1 0 0 1-1-1V325.46c0-.356.189-.685.497-.864l210.592-122.705a1 1 0 0 1 1.503.864v172.476a.999.999 0 0 1-.497.864L349.429 498.8a.998.998 0 0 1-.503.136zm1-172.902v170.161l208.592-121.54V204.494zm209.592 49.197h.01z"/><path d="M348.926 497.936 1 297.537V125.078l347.926 200.381z" fill="#fff"/><path d="M348.926 498.936a.998.998 0 0 1-.499-.133L.501 298.404a1 1 0 0 1-.501-.867V125.078a1 1 0 0 1 1.5-.866l347.926 200.382a1 1 0 0 1 .501.867v172.476a1 1 0 0 1-1 1zM2 296.959l345.926 199.247V326.038L2 126.808V296.96z"/><path d="M348.926 325.459 1 125.078 210.674 1l348.845 201.754z" fill="#fff"/><path d="M348.926 326.459a.998.998 0 0 1-.499-.133L.501 125.944a1 1 0 0 1-.01-1.728L210.165.139a1 1 0 0 1 1.01-.005l348.844 201.754a1 1 0 0 1 .003 1.73L349.43 326.323a.995.995 0 0 1-.503.136zM2.983 125.066l345.94 199.238 208.604-121.546L210.68 2.159z"/><ellipse cx="297.912" cy="386.681" fill="#dbf301" rx="17.809" ry="30.986" transform="matrix(.8660254 -.5 .5 .8660254 -153.428 200.762)"/><path d="M307.837 415.936c-8.569 0-19.188-7.683-26.214-19.851-8.818-15.274-8.686-31.919.296-37.105 8.981-5.185 23.463 3.024 32.282 18.296 4.224 7.317 6.558 15.159 6.572 22.081.014 7.123-2.425 12.459-6.868 15.024-1.826 1.054-3.881 1.555-6.068 1.555zm-19.721-56.552c-1.88 0-3.637.428-5.197 1.329-8.026 4.634-7.831 20.054.437 34.373s21.522 22.198 29.549 17.564c3.796-2.192 5.88-6.911 5.868-13.288-.013-6.578-2.252-14.066-6.304-21.085-6.66-11.536-16.559-18.893-24.352-18.893zM144.05 99.916l245.677 141.505 22.381-13.041L168.31 85.78zm315.839 282.145c3.409.253 6.367-3.32 6.344-6.906l-.349-55.019a1.53 1.53 0 0 0-1.54-1.521c-3.389.022-6.272 3.618-6.251 7.008l.351 55.319c.004.649.839 1.074 1.445 1.119z"/><path d="M460.229 383.074c-.138 0-.276-.005-.415-.015-1.16-.086-2.363-.899-2.371-2.11l-.352-55.318c-.023-3.685 3.136-7.988 7.245-8.014 1.361-.013 2.538 1.119 2.546 2.514l.35 55.019c.014 2.249-.979 4.529-2.658 6.098-1.271 1.187-2.8 1.827-4.346 1.827zm-.786-2.217c.089.082.322.193.52.207 1.125.083 2.275-.371 3.246-1.278 1.259-1.177 2.035-2.948 2.024-4.624l-.35-55.019c-.002-.292-.285-.541-.534-.527-2.672.017-5.276 2.99-5.257 6.001zm18.897-11.024c3.409.253 6.367-3.32 6.344-6.906l-.349-55.019a1.53 1.53 0 0 0-1.54-1.521c-3.389.022-6.272 3.618-6.251 7.008l.351 55.319c.004.649.839 1.074 1.445 1.119z"/><path d="M478.68 370.846c-.138 0-.276-.005-.415-.015-1.159-.086-2.362-.899-2.371-2.11l-.351-55.319c-.012-1.893.749-3.871 2.088-5.426 1.407-1.633 3.286-2.576 5.156-2.588a2.525 2.525 0 0 1 2.546 2.514l.35 55.019c.014 2.249-.979 4.529-2.658 6.098-1.271 1.187-2.8 1.827-4.346 1.827zm-.266-2.01c1.129.084 2.275-.371 3.246-1.278 1.259-1.177 2.035-2.948 2.024-4.624l-.35-55.019a.53.53 0 0 0-.53-.527h-.003c-1.292.008-2.624.698-3.653 1.893-1.013 1.176-1.613 2.712-1.604 4.108l.351 55.24c.089.082.322.193.52.208zm18.377-11.231c3.409.253 6.367-3.32 6.344-6.906l-.349-55.019a1.53 1.53 0 0 0-1.54-1.521c-3.389.022-6.272 3.618-6.251 7.008l.351 55.319c.004.649.839 1.074 1.445 1.119z"/><path d="M497.131 358.618c-.138 0-.276-.005-.415-.015-1.159-.086-2.363-.899-2.371-2.11l-.351-55.319c-.012-1.893.75-3.871 2.088-5.426 1.407-1.633 3.286-2.576 5.156-2.588h.016a2.533 2.533 0 0 1 2.53 2.514l.349 55.019c.014 2.249-.979 4.529-2.658 6.098-1.271 1.187-2.799 1.827-4.345 1.827zm-.786-2.217c.089.082.322.193.52.208 1.123.083 2.274-.371 3.246-1.278 1.259-1.177 2.035-2.948 2.024-4.624l-.349-55.019a.531.531 0 0 0-.534-.527c-1.292.008-2.624.698-3.653 1.893-1.013 1.176-1.613 2.712-1.604 4.108l.351 55.24zm-73.751 50.117c3.409.253 6.367-3.32 6.344-6.906l-.349-55.019a1.53 1.53 0 0 0-1.54-1.521c-3.389.022-6.272 3.618-6.251 7.008l.351 55.319c.004.649.839 1.074 1.445 1.119z"/><path d="M422.934 407.531c-.138 0-.276-.005-.415-.015-1.16-.086-2.363-.899-2.371-2.11l-.352-55.318c-.023-3.685 3.136-7.988 7.245-8.014a2.527 2.527 0 0 1 2.546 2.514l.35 55.019c.014 2.249-.979 4.529-2.658 6.098-1.271 1.187-2.8 1.827-4.346 1.827zm-.266-2.01c1.125.083 2.275-.371 3.246-1.278 1.259-1.177 2.035-2.948 2.024-4.624l-.35-55.019a.52.52 0 0 0-.534-.527c-2.672.017-5.276 2.99-5.257 6.001l.351 55.24c.089.082.322.193.52.207zm18.377-11.231c3.409.253 6.367-3.32 6.344-6.906l-.349-55.019a1.53 1.53 0 0 0-1.54-1.521c-3.389.022-6.272 3.618-6.251 7.008l.351 55.319c.004.649.839 1.074 1.445 1.119z"/><path d="M441.385 395.302c-.138 0-.276-.005-.415-.015-1.159-.086-2.362-.899-2.371-2.11l-.351-55.319c-.012-1.893.75-3.871 2.088-5.426 1.407-1.633 3.286-2.576 5.156-2.588.685.003 1.313.255 1.793.73s.748 1.109.752 1.784l.35 55.019c.014 2.249-.979 4.529-2.658 6.098-1.271 1.187-2.8 1.827-4.346 1.827zm-.266-2.01c1.126.084 2.275-.371 3.246-1.278 1.259-1.177 2.035-2.948 2.024-4.624l-.35-55.019a.523.523 0 0 0-.158-.374.567.567 0 0 0-.375-.153c-1.292.008-2.624.698-3.653 1.893-1.013 1.176-1.613 2.712-1.604 4.108l.351 55.24c.089.082.322.193.52.208z"/></svg></g><g transform="translate(432.0 1821.6) rotate(0.0 675.0 479.4000000000001) scale(1.8651277750683535 1.8662701069776864)"><svg width="723.811" height="513.752" viewBox="0 0 723.811 513.752"><path d="m1 282.125 385.582 230.627 287.832-159.601V227.669L278.205 1 1.452 163.034z" fill="#fff"/><path d="M386.582 513.752a.993.993 0 0 1-.513-.142L.487 282.983a1 1 0 0 1-.487-.862L.452 163.03a.996.996 0 0 1 .495-.859L277.7.137a1 1 0 0 1 1.002-.005l396.209 226.669a1 1 0 0 1 .503.868v125.483a1 1 0 0 1-.515.875L387.066 513.628a.996.996 0 0 1-.485.125zM2.002 281.559l384.599 230.039 286.813-159.036V228.248L278.211 2.155 2.45 163.608l-.448 117.95z"/><path d="M674.414 353.151 386.582 512.752l-.075-119.426 287.907-165.657z"/><path d="M386.582 513.752a1 1 0 0 1-1-.999l-.075-119.427a1 1 0 0 1 .501-.867l287.907-165.657a1 1 0 0 1 1.499.866v125.483a1 1 0 0 1-.515.875L387.066 513.627a.996.996 0 0 1-.485.125zm.926-119.848.073 117.151 285.833-158.492V229.398L387.507 393.904z"/><g fill="#fff"><path d="M439.718 426.872a1 1 0 0 1-.5-1.866l215.619-124.064a1 1 0 1 1 .998 1.733l-215.62 124.064a.991.991 0 0 1-.498.134zm-4.753 24.647a1 1 0 0 1-.5-1.866l186.744-107.45a1 1 0 1 1 .998 1.733l-186.745 107.45a.991.991 0 0 1-.498.134zM278.205 1.597 1.452 163.631l385.055 230.291 287.907-165.657z"/></g><path d="M386.507 394.922a.993.993 0 0 1-.513-.142L.939 164.489a1.003 1.003 0 0 1-.487-.863.997.997 0 0 1 .495-.858L277.7.733a1 1 0 0 1 1.002-.005L674.91 227.397a.998.998 0 0 1 .003 1.735L387.005 394.789a.998.998 0 0 1-.499.133zM3.415 163.64l383.102 229.123 285.888-164.495L278.211 2.752z"/><path d="m24.293 207.41 324.996 194.373" fill="#fff"/><path d="M349.288 402.783a.993.993 0 0 1-.512-.142L23.779 208.268a1 1 0 1 1 1.027-1.716l324.997 194.372a1 1 0 0 1-.514 1.858z"/><path d="m49.908 245.626 276.817 165.557" fill="#fff"/><path d="M326.724 412.183a.993.993 0 0 1-.512-.142L49.395 246.484a1 1 0 1 1 1.027-1.716l276.816 165.557a1 1 0 0 1-.514 1.858z"/><path d="m27.508 254.715 321.781 192.449" fill="#fff"/><path d="M349.288 448.164a.993.993 0 0 1-.512-.142L26.995 255.573a1 1 0 1 1 1.027-1.716l321.781 192.449a1 1 0 0 1-.514 1.858z"/><path d="M326.603 1.597 49.849 163.631l385.055 230.291 287.907-165.657z" fill="#fff"/><path d="M434.904 394.922a.993.993 0 0 1-.513-.142L49.336 164.489a1.003 1.003 0 0 1-.487-.863.997.997 0 0 1 .495-.858L326.098.733A1 1 0 0 1 327.1.728l396.208 226.669a.998.998 0 0 1 .003 1.735L435.403 394.789a.998.998 0 0 1-.499.133zM51.813 163.64l383.102 229.123 285.888-164.495L326.609 2.752z"/><path d="M407.271 341.281a1 1 0 0 1-.507-1.863l128.128-75.198a1 1 0 0 1 1.013 1.725l-128.128 75.198a.998.998 0 0 1-.505.138zm-41.611-24.558a1 1 0 0 1-.507-1.863l225.263-132.194a1 1 0 0 1 1.013 1.725L366.166 316.585a.998.998 0 0 1-.505.138zm-41.324-24.39a1 1 0 0 1-.507-1.863l224.502-131.734a1 1 0 1 1 1.012 1.725L324.841 292.195a.998.998 0 0 1-.505.138zm39.244-89.232a1 1 0 0 1-.507-1.863l127.72-74.928a1 1 0 1 1 1.012 1.725l-127.72 74.928a.998.998 0 0 1-.505.138zm-95.275 55.894a1 1 0 0 1-.507-1.863l66.59-39.066a1 1 0 1 1 1.012 1.725l-66.59 39.066a.998.998 0 0 1-.505.138zM372.178 150.42a1 1 0 0 1-.507-1.862l77.891-45.691a1 1 0 0 1 1.012 1.725l-77.891 45.691a.998.998 0 0 1-.505.138zM227.82 235.101a1 1 0 0 1-.507-1.862l124.978-73.312a1 1 0 0 1 1.012 1.725l-124.978 73.312a.998.998 0 0 1-.505.138zm-40.212-23.733a1 1 0 0 1-.507-1.862L408.609 79.582a1 1 0 1 1 1.012 1.725L188.113 211.231a.998.998 0 0 1-.505.138z"/><path d="M351.368 46.569 130.596 176.048l-22.6-12.666 220.04-129.037z" fill="#87c159"/><path d="M130.596 177.048a.992.992 0 0 1-.489-.128l-22.6-12.666a.998.998 0 0 1-.017-1.735L327.53 33.482a.997.997 0 0 1 .97-.023l23.332 12.224a1.002 1.002 0 0 1 .042 1.748l-220.772 129.48a.994.994 0 0 1-.506.137zm-20.59-13.686 20.579 11.533L349.307 46.618l-21.244-11.13-218.057 127.875z"/><path d="M177.425 321.89 131 349.071l29.476 17.629v.026l46.847-26.955z" fill="#dbf301"/><path d="M160.476 367.726a1 1 0 0 1-.682-.269l-29.306-17.528a1.001 1.001 0 0 1 .008-1.721l46.424-27.181a1 1 0 0 1 1.019.005l29.898 17.881a1 1 0 0 1-.014 1.725l-46.847 26.955a.995.995 0 0 1-.499.133zm-27.512-18.646 27.544 16.474 44.838-25.799-27.927-16.702-44.456 26.028z"/><path d="m81.327 242.067-46.425 27.181 29.476 17.629v.026l46.846-26.955z" fill="#adc4cb"/><path d="M64.378 287.903a1 1 0 0 1-.683-.269l-29.306-17.527a1.001 1.001 0 0 1 .008-1.721l46.425-27.181a1.002 1.002 0 0 1 1.019.005l29.897 17.881a1 1 0 0 1-.014 1.725l-46.847 26.955a.995.995 0 0 1-.499.133zm-27.512-18.646L64.41 285.73l44.838-25.799-27.927-16.702-44.456 26.028z"/><path d="m302.883 444.563 20.725-12.61-29.876-17.892-20.801 12.823z" fill="#87c159"/><path d="M302.883 445.563a.991.991 0 0 1-.508-.139l-29.952-17.679a1.001 1.001 0 0 1-.017-1.713l20.8-12.823a1.002 1.002 0 0 1 1.039-.007l29.876 17.892a.998.998 0 0 1 .006 1.712l-20.725 12.61c-.16.097-.34.146-.52.146zm-28.016-18.698 28.008 16.532 18.798-11.438-27.934-16.728z"/></svg></g><g transform="translate(1704.0 804.0) rotate(0.0 538.8 315.6) scale(1.2081083171800042 1.2090101133925835)"><svg width="891.973" height="522.08" viewBox="0 0 891.973 522.08"><g><path style="fill:#fff" d="M-539.406-82.99c6.008-15.55 44.536-79.886 106.704-114.584 8.982-5.013 85.603-47.893 142.11-22.317l-242.274-140.463c-51.831-29.853-132.991 16.352-142.075 21.422-62.168 34.697-101.555 100.372-107.563 115.922l243.098 140.02z" transform="translate(1415.0 670.0) rotate(0.0 446.0 261.0) scale(1.8059897309642203 1.8041308375038017)"/><path d="M440.838 522.08c-.312 0-.625-.082-.9-.24L.904 269.224a1.806 1.806 0 0 1-.784-2.214c12.8-33.102 85.672-149.073 195.061-210.065l.74-.414c42.048-23.493 78.15-36.519 101.03-43.31C361.634-5.974 414.32-4.26 453.548 18.31l437.55 253.417a1.806 1.806 0 0 1-1.651 3.204c-93.73-42.38-218.82 20.008-254.925 40.139-108.034 60.234-179.515 173.57-192.002 205.855a1.809 1.809 0 0 1-1.683 1.154zM4.061 266.877 439.94 517.675c14.581-34.983 86.005-146.196 192.726-205.7C666.74 292.979 778.782 237 870.973 264.24L451.743 21.435C413.41-.621 361.676-2.221 297.98 16.683c-22.707 6.738-58.538 19.668-100.296 43l-.742.414c-107 59.66-178.727 172.196-192.881 206.78z"/></g><g><path d="m72.204 228.321 1.948-3.494 357.752 199.415-1.948 3.494zm33.329-41.479 1.948-3.494 357.75 199.415-1.947 3.494zm38.099-39.65 1.948-3.494 357.75 199.414-1.947 3.494zm114.048 7.918 1.947-3.494 283.357 157.947-1.948 3.494zm42.106-28.875 1.947-3.494L585.09 280.687l-1.948 3.494zm48.26-25.347 1.948-3.494L633.35 255.34l-1.947 3.494zM402.843 72.1l1.948-3.493 176.387 98.32-1.947 3.495z"/></g></svg></g></svg>