<svg xmlns="http://www.w3.org/2000/svg" viewBox="0 0 3000 3000" width="3000" height="3000"><g transform="translate(414.0 330.0) rotate(0.0 1120.5 1228.5) scale(2.9990284272029677 2.9976319073942803)"><svg width="747.242" height="819.647" viewBox="0 0 747.242 819.647"><path d="M672.249 315.03v453.04H47.189V315.03C47.189 141.04 188.229 0 362.219 0c36.17 0 70.92 6.1 103.27 17.32 10.448 3.624 15.646 7.782 25.562 12.441 107.065 50.315 181.198 159.13 181.198 285.269z" fill="#e97656"/><path d="M677.249 315.03v26.55l-4 3.846v67.705l4 4.329v350.61H92.189V321.5c0-171.5 139.03-310.53 310.53-310.53 21.5 0 42.5 2.19 62.77 6.35 123.26 42.75 211.76 159.89 211.76 297.71z" fill="#006"/><path d="M75.712 819.647h671.53l-.058-23.567-34.66-30.262-11.161 4.65H3.014z" fill="#006"/><g fill="#fff"><path d="M0 765.797h712.552v31.36H0z"/><circle cx="353.859" cy="85.04" r="6"/><circle cx="312.819" cy="542.24" r="6"/></g><circle cx="521.619" cy="280.16" fill="#e97656" r="6"/><circle cx="635.139" cy="620" fill="#e97656" r="6"/><path d="M677.249 341.578v61.8l-2 3.116v6.964c-11.286-2.523-17.715-5.953-22.936-15.937-.553-1.057-2.058-2.142-2.514-3.253a38.71 38.71 0 0 1-2.9-14.75c0-18.54 12.98-34.05 30.35-37.94z" fill="#fff"/><path d="M677.249 403.378v14.08c-12.48-2.79-22.69-11.58-27.45-23.19a38.928 38.928 0 0 0 27.45 9.11z" fill="#e97656"/></svg></g><g transform="translate(174.0 987.0) rotate(0.0 748.5 816.0) scale(2.994545007191309 2.9969589681058926)"><svg width="499.909" height="544.552" viewBox="0 0 499.909 544.552"><path d="m111.267 262.426-7.4-5.886-15.342 19.316 6.866 5.84a1.482 1.482 0 0 0 2.126-.214l13.905-17.735a.944.944 0 0 0-.155-1.321zm1.996-56.383-6.504-12.539 31.79-16.489 6.503 12.54z" fill="#006"/><path d="m256.788 191.883 54.033-28.026 12.835 24.745-54.033 28.026z" fill="#e97656"/><path d="M272.314 247.911h14v296.64h-14zm144.937-136.667-101.036 52.407-3.45 5.789-172.174 89.305-4.25-.314-26.351-50.588 1.25-5.686L302.985 102.7l3.969 1.461 81.924-42.494z" fill="#fff"/><path d="M202.274 414.928h154.08v7.2h-154.08z" fill="#e97656"/><path d="m171.408 542.594 6.086 1.958 94.156-292.591-8.942-2.878-93.284 289.877z" fill="#e97656"/><path d="m254.487 246.436 11.08 3.565-94.156 292.592-11.08-3.565zm132.408 296.157-6.087 1.959-94.156-292.591 8.794-2.83 93.395 290.225z" fill="#fff"/><path d="m397.974 539.026-11.08 3.565L292.74 250l11.08-3.565zm-120.86-133.458h4.32v23.76h-4.32zm-6.881-205.92h18.161v71.76h-18.161z" fill="#e97656"/><path d="M270.994 234.208h15.12c12.12 0 21.96 9.84 21.96 21.96v6.12h-59.04v-6.12c0-12.12 9.84-21.96 21.96-21.96zm-3.197-36.907-18.326 16.047a9.001 9.001 0 0 0-.842 12.7l1.47 1.679a9 9 0 0 0 12.7.842l18.326-16.047a9.001 9.001 0 0 0 .842-12.7l-1.47-1.679a9.001 9.001 0 0 0-12.7-.842zm-13.52 17.539 14.364-12.578a5.828 5.828 0 1 1 7.679 8.769l-14.364 12.578a5.828 5.828 0 1 1-7.679-8.769z" fill="#e97656"/><circle cx="279.934" cy="199.507" fill="#006" r="7.02"/><path d="M150.357 316.369a7 7 0 0 1-4.472-12.388l25.377-21.045a7 7 0 0 1 8.936 10.777l-25.377 21.045a6.972 6.972 0 0 1-4.464 1.611z" fill="#006"/><path d="M179.311 288.374a3 3 0 0 1-1.917-5.31l71.977-59.688a3 3 0 0 1 3.83 4.62l-71.977 59.688a2.99 2.99 0 0 1-1.914.69z" fill="#e97656"/><path d="m99.388 208.306 11.85-6.147 29.352 56.588-11.851 6.147z" fill="#006"/><path d="m52.069 247.677 59.305-30.76 17.23 33.219-59.305 30.76z" fill="#006"/><circle cx="103.795" cy="272.449" fill="#006" r="12.51"/><circle cx="97.794" cy="267.448" fill="#fff" r="12.51"/><path d="m70.35 282.919-20.132-38.813a1 1 0 0 0-1.345-.429L15.996 260.58a1 1 0 0 0 .075 1.814l53.009 21.91c.862.356 1.699-.557 1.27-1.385z" fill="#e97656"/><g fill="#006"><path d="m.172 208.443 19.51-10.166 11.978 22.986-19.51 10.167z"/><path d="m7.734 232.693 27.491-14.325 13.309 25.54-27.492 14.325z"/><ellipse cx="9.927" cy="203.36" rx="11" ry="3.96" transform="matrix(.8868254 -.46210464 .46210464 .8868254 -92.85 27.602)"/><ellipse cx="21.48" cy="225.53" rx="15.5" ry="3.96" transform="matrix(.8868254 -.46210464 .46210464 .8868254 -101.788 35.45)"/><path d="m417.251 115.244-84.039 43.591-19.694 10.215a85.043 85.043 0 0 0-6.663-61.024l-2.994-5.779L387.9 58.656l29.352 56.588z"/></g><path d="m496.384 98.388-145.39 60.5-25.39-47.73-4.393-6.685-9.607-18.515 118.234-74.799c9.422-5.96 21.926-2.579 27.059 7.318z" fill="#fff"/><path d="M478.601 47.516c-14.368-27.7-28.357-48.94-31.247-47.441-.002 0-.003.003-.004.004l-17.752 11.23c5.28 4.802 16.928 23.316 28.842 46.287a526.859 526.859 0 0 1 5.551 11.009c2.992 7.892-.35 16.895-8.168 20.414l-82 36.87c-14.24 6.6-31.13 3.1-41.57-8.63l-8.536-9.587-2.534-3.243 1.42 2.73 28.39 54.73 148.388-61.504c2.886-1.504-6.418-25.172-20.784-52.868z" fill="#e97656"/><path d="m155.71 154.71 6.134 11.824L59.87 219.425l-6.133-11.824z" fill="#006"/><path d="m145.943 175.619-6.453-12.298 1.288-3.705 16.617-8.62 8.454 16.298-16.618 8.62z" fill="#006"/><path d="m140.779 159.615 8.453 16.298-76.377 39.616-8.454-16.298z" fill="#e97656"/></svg></g><g transform="translate(1743.0 642.0) rotate(0.0 273.0 153.0) scale(2.9957368360410186 2.9991179064980886)"><svg width="182.259" height="102.03" viewBox="0 0 182.259 102.03"><path d="M137.641 71.945a51.866 51.866 0 0 1-3.364 6.281c-.808 1.285-1.667-1.476-2.574-.285-6.795 8.931-16.242 15.191-26.686 18.151-1.629.462-3.282 4.843-4.952 5.142-9.761 1.746-20.136.668-29.863-3.708-12.81-5.763-22.084-16.163-26.721-28.323-.736-1.925 1.644-3.895 1.145-5.897a50.684 50.684 0 0 1 .694-27.123l.003-.006c.007-.031.02-.06.027-.091.619-2.02.374-.021 1.263-1.996C58.171 8.401 88.366-3.054 114.055 8.503c2.836 1.276 3.496-1.223 5.969.476 19.965 13.691 27.899 40.113 17.617 62.965z" fill="#e97656"/><path d="M100.671 69.615a51.274 51.274 0 0 1-19.357 7.773c-9.761 1.746-20.136.668-29.863-3.708a51.112 51.112 0 0 1-7.969-4.476c-3.945-10.322-4.557-21.913-1.161-33.02l.003-.006c.007-.031.02-.06.027-.091a51.04 51.04 0 0 1 2.263-5.996c11.558-25.689 61.907 35.634 56.058 39.525z" fill="#fff"/><path d="M134.277 78.226c-7.811 12.42-20.397 20.538-34.212 23.008-.327-5.795-2.068-12.681-7.672-17.198-12.198-9.824-13.184-9.874-26.467-18.605-12.933-8.498-22.182-20.702-22.182-20.702l-1.423-8.545.003-.006-.026-.143.053.051L55.39 48.629l78.888 29.597z" fill="#006"/><ellipse cx="91.129" cy="51.016" fill="#e97656" rx="16.842" ry="99.636" transform="matrix(.41030507 -.91194833 .91194833 .41030507 7.215 113.189)"/><path d="M118.89 48.099a49.08 49.08 0 0 1-1.845 3.685 46.51 46.51 0 0 1-1.52 2.596 50.6 50.6 0 0 1-6.934 8.721c-5.989-2.218-12.535-4.901-19.322-7.955-24.845-11.178-43.822-23.244-43.467-27.517.146-.293.297-.584.458-.864C58.837 3.433 87.503-6.543 112.055 4.503a51.046 51.046 0 0 1 7.969 4.476c4.668 12.228 4.66 26.24-1.134 39.119z" fill="#fff"/></svg></g><g fill-opacity=".22" transform="translate(1698.0 1509.0) rotate(0.0 135.0 135.0) scale(2.9991002699190243 2.999033644714481)"><svg width="90.027" height="90.029" viewBox="0 0 90.027 90.029"><path d="M85.453 30.037c.332.939.631 1.877.888 2.823a44.449 44.449 0 0 1 1.554 15.524 44.74 44.74 0 0 1-2.992 13.082 44.456 44.456 0 0 1-3.009 6.203c-5.177 8.909-11.429 14.085-21.901 17.782s-18.4 5.292-28.024 1.607a45.006 45.006 0 0 1-6.236-2.94c-2.455-1.395-5.783-3.025-7.942-4.868-.914-.78-3.798-1.599-4.648-2.455a38.45 38.45 0 0 1-.951-.981c-.405-.43 2.199-1.868 1.81-2.315a44.432 44.432 0 0 1-6.717-10.336c-.217-.464-3.427.067-3.629-.408A44.905 44.905 0 0 1 .006 44.3c.014-.885 3.054-2.765 3.121-3.641.067-.885-2.839-.765-2.72-1.641.25-1.87.619-3.725 1.106-5.538.265-.997 3.564-2.984 3.896-3.958.332-.975-2.303-.937-1.906-1.885C8.239 16.325 17.558 6.984 30.034 2.58a44.825 44.825 0 0 1 27.967-.659c2.921.884 2.74 2.058 5.415 3.507 1.809.978 4.553 2.08 6.218 3.299a43.804 43.804 0 0 1 4.337 3.616 44.381 44.381 0 0 1 3.628 3.86 44.894 44.894 0 0 1 7.855 13.834z" fill="#e97656"/><path d="M87.453 30.037c.332.939.631 1.877.888 2.823.122.432-2.763 1.864-2.654 2.297a44.43 44.43 0 0 1 1.299 12.697c-.022.511 2.948.021 2.909.53a44.74 44.74 0 0 1-2.992 13.082 43.851 43.851 0 0 1-2.317 4.973c-.222.416-3.454 1.822-3.692 2.23a44.777 44.777 0 0 1-5.308 7.322c-.289.323 2.418-.357 2.119-.042-4.75 5.036-10.737 9.04-17.713 11.502-6.976 2.463-14.149 3.105-21.008 2.167-.474-.064 2.053-1.136 1.582-1.215a44.762 44.762 0 0 1-8.597-2.345c-.441-.169-3.877.661-4.311.477a44.801 44.801 0 0 1-4.925-2.416 44.602 44.602 0 0 1-9.59-7.323 44.843 44.843 0 0 0 27.938-.668c23.434-8.273 35.732-33.98 27.457-57.42A44.922 44.922 0 0 0 57.999 1.921a45.078 45.078 0 0 1 8.415 3.507c.182.098-1.637 1.198-1.456 1.299 1.382.772 1.726.617 3.023 1.532.218.154 3.435.31 3.651.468a43.804 43.804 0 0 1 4.337 3.616c.192.182-1.617 1.365-1.427 1.551.902.883.769 1.805 1.598 2.77.154.179 3.306-.641 3.457-.46a44.894 44.894 0 0 1 7.855 13.834z" fill="#006"/><path d="m65.959 9.729-.951 1.336L1.512 33.48a45.235 45.235 0 0 1 1.99-5.844L62.269 6.891l2.204.575 1.486 2.264zm4.031 8.866-1.028 1.363L.006 44.3c.028-1.779.163-3.538.4-5.282l66.829-23.592 2.044.631.711 2.537z" fill="#fff"/><path d="M84.587 66.438c-.222.416-.454.822-.692 1.23a44.75 44.75 0 0 1-6.189 8.28L38.985 89.617a44.724 44.724 0 0 1-10.015-2.56 40.187 40.187 0 0 1-1.311-.523z" fill="#e97656"/><path d="m67.285 55.366-2.945 2.04-52.147 18.409a44.447 44.447 0 0 1-8.536-13.059l67.134-23.699 1.973 1.304-5.479 15.007z" fill="#fff"/><g fill="#e97656"><path d="M65.008 11.065a43.25 43.25 0 0 0-2.74-4.174l4.147-1.464a45.317 45.317 0 0 1 5.218 3.299zm2.227 4.361 8.736-3.084a44.381 44.381 0 0 1 3.628 3.86l-10.636 3.755a45.797 45.797 0 0 0-1.726-4.532zM88.342 32.86a44.449 44.449 0 0 1 1.554 15.524l-25.55 9.019a45.056 45.056 0 0 0 6.446-18.348z"/></g></svg></g><g transform="translate(1584.0 2472.0) rotate(0.0 340.5 76.5) scale(5.064590259030365 5.033557046979865)"><svg width="134.463" height="30.396" viewBox="0 0 134.463 30.396"><path d="M124.094 26.485H5.874V5.695h115.22c-2.4 1.69-4.21 3.5-5.28 5.43-.52.93 2.14 1.9 1.97 2.89-.62 3.67 1.24 7.78 6.31 12.47z" fill="#E97656"/><path d="M124.094 5.695c-2.4 1.69-4.21 3.5-5.28 5.43-.52.93-.86 1.9-1.03 2.89-21.05-1.72-62.52-3.1-101.31-3.15-5.68 0-7.99 1.21-10.56 3.28-.01.01-.03.02-.04.03-.7.55-1.4 1.17-2.2 1.85l-1.42 1.19v-3.32c0-2.1 1.44-3.95 3.62-5.03.01-.01.03-.01.04-.02.1-.04.21-.1.32-.15l3.26-1.92 105.74-1.08z" fill="#006"/><path d="M130.922 30.396H15.752C7.36 30.396 0 25.261 0 19.408v-8.421C0 5.134 7.36 0 15.752 0h115.17c1.933 0 3.5 1.567 3.5 3.5s.433 3.5-1.5 3.5H15.752C10.363 7 7.1 10.004 7 11v8.409c.1.983 3.362 3.987 8.752 3.987h117.17c1.933 0 1.5 1.567 1.5 3.5s-1.568 3.5-3.5 3.5z" fill="#E97656"/></svg></g><g transform="translate(1695.0 1509.0) rotate(0.0 135.0 135.0) scale(2.9991002699190243 2.999033644714481)"><svg width="90.027" height="90.029" viewBox="0 0 90.027 90.029"><path d="M85.453 30.037c.332.939.631 1.877.888 2.823a44.449 44.449 0 0 1 1.554 15.524 44.74 44.74 0 0 1-2.992 13.082 44.456 44.456 0 0 1-3.009 6.203c-5.177 8.909-11.429 14.085-21.901 17.782s-18.4 5.292-28.024 1.607a45.006 45.006 0 0 1-6.236-2.94c-2.455-1.395-5.783-3.025-7.942-4.868-.914-.78-3.798-1.599-4.648-2.455a38.45 38.45 0 0 1-.951-.981c-.405-.43 2.199-1.868 1.81-2.315a44.432 44.432 0 0 1-6.717-10.336c-.217-.464-3.427.067-3.629-.408A44.905 44.905 0 0 1 .006 44.3c.014-.885 3.054-2.765 3.121-3.641.067-.885-2.839-.765-2.72-1.641.25-1.87.619-3.725 1.106-5.538.265-.997 3.564-2.984 3.896-3.958.332-.975-2.303-.937-1.906-1.885C8.239 16.325 17.558 6.984 30.034 2.58a44.825 44.825 0 0 1 27.967-.659c2.921.884 2.74 2.058 5.415 3.507 1.809.978 4.553 2.08 6.218 3.299a43.804 43.804 0 0 1 4.337 3.616 44.381 44.381 0 0 1 3.628 3.86 44.894 44.894 0 0 1 7.855 13.834z" fill="#e97656"/><path d="M87.453 30.037c.332.939.631 1.877.888 2.823.122.432-2.763 1.864-2.654 2.297a44.43 44.43 0 0 1 1.299 12.697c-.022.511 2.948.021 2.909.53a44.74 44.74 0 0 1-2.992 13.082 43.851 43.851 0 0 1-2.317 4.973c-.222.416-3.454 1.822-3.692 2.23a44.777 44.777 0 0 1-5.308 7.322c-.289.323 2.418-.357 2.119-.042-4.75 5.036-10.737 9.04-17.713 11.502-6.976 2.463-14.149 3.105-21.008 2.167-.474-.064 2.053-1.136 1.582-1.215a44.762 44.762 0 0 1-8.597-2.345c-.441-.169-3.877.661-4.311.477a44.801 44.801 0 0 1-4.925-2.416 44.602 44.602 0 0 1-9.59-7.323 44.843 44.843 0 0 0 27.938-.668c23.434-8.273 35.732-33.98 27.457-57.42A44.922 44.922 0 0 0 57.999 1.921a45.078 45.078 0 0 1 8.415 3.507c.182.098-1.637 1.198-1.456 1.299 1.382.772 1.726.617 3.023 1.532.218.154 3.435.31 3.651.468a43.804 43.804 0 0 1 4.337 3.616c.192.182-1.617 1.365-1.427 1.551.902.883.769 1.805 1.598 2.77.154.179 3.306-.641 3.457-.46a44.894 44.894 0 0 1 7.855 13.834z" fill="#006"/><path d="m65.959 9.729-.951 1.336L1.512 33.48a45.235 45.235 0 0 1 1.99-5.844L62.269 6.891l2.204.575 1.486 2.264zm4.031 8.866-1.028 1.363L.006 44.3c.028-1.779.163-3.538.4-5.282l66.829-23.592 2.044.631.711 2.537z" fill="#fff"/><path d="M84.587 66.438c-.222.416-.454.822-.692 1.23a44.75 44.75 0 0 1-6.189 8.28L38.985 89.617a44.724 44.724 0 0 1-10.015-2.56 40.187 40.187 0 0 1-1.311-.523z" fill="#e97656"/><path d="m67.285 55.366-2.945 2.04-52.147 18.409a44.447 44.447 0 0 1-8.536-13.059l67.134-23.699 1.973 1.304-5.479 15.007z" fill="#fff"/><g fill="#e97656"><path d="M65.008 11.065a43.25 43.25 0 0 0-2.74-4.174l4.147-1.464a45.317 45.317 0 0 1 5.218 3.299zm2.227 4.361 8.736-3.084a44.381 44.381 0 0 1 3.628 3.86l-10.636 3.755a45.797 45.797 0 0 0-1.726-4.532zM88.342 32.86a44.449 44.449 0 0 1 1.554 15.524l-25.55 9.019a45.056 45.056 0 0 0 6.446-18.348z"/></g></svg></g><g transform="translate(1641.0 2319.0) rotate(0.0 340.5 76.5) scale(5.064590259030365 5.033557046979865)"><svg width="134.463" height="30.396" viewBox="0 0 134.463 30.396"><path d="M124.094 26.485H5.874V5.695h115.22c-2.4 1.69-4.21 3.5-5.28 5.43-.52.93 2.14 1.9 1.97 2.89-.62 3.67 1.24 7.78 6.31 12.47z" fill="#FFF"/><path d="M124.094 5.695c-2.4 1.69-4.21 3.5-5.28 5.43-.52.93-.86 1.9-1.03 2.89-21.05-1.72-62.52-3.1-101.31-3.15-5.68 0-7.99 1.21-10.56 3.28-.01.01-.03.02-.04.03-.7.55-1.4 1.17-2.2 1.85l-1.42 1.19v-3.32c0-2.1 1.44-3.95 3.62-5.03.01-.01.03-.01.04-.02.1-.04.21-.1.32-.15l3.26-1.92 105.74-1.08z" fill="#E97656"/><path d="M130.922 30.396H15.752C7.36 30.396 0 25.261 0 19.408v-8.421C0 5.134 7.36 0 15.752 0h115.17c1.933 0 3.5 1.567 3.5 3.5s.433 3.5-1.5 3.5H15.752C10.363 7 7.1 10.004 7 11v8.409c.1.983 3.362 3.987 8.752 3.987h117.17c1.933 0 1.5 1.567 1.5 3.5s-1.568 3.5-3.5 3.5z" fill="#FFF"/></svg></g></svg>