<svg xmlns="http://www.w3.org/2000/svg" viewBox="0 0 3000 2000" width="3000" height="2000"><g transform="translate(1997.0 1038.0) rotate(0.0 474.0 329.0) scale(1.157831484222714 1.1577210138680198)"><svg width="818.772" height="568.358" viewBox="0 0 818.772 568.358"><path d="M818.772 568.358H0L409.386 0z" fill="#eaeaea"/><g fill="#fff"><path d="M556.481 397.617h2v64.146h-2z"/><path d="M372.914 459.777h184.511v2H372.914zm184.567-63.16h138.307v2H557.481z"/><path d="M465.226 396.617h184.511v2H465.226zm82.181-64.146h102.33v2h-102.33zm10.074 127.306h82.181v2h-82.181z"/><path d="M620.708 333.471h2v64.146h-2zM444.907 461.763h2v64.146h-2z"/></g></svg></g><g transform="translate(996.0 299.0) rotate(0.0 618.5 698.5) scale(1.1587984842878356 1.1577632709754466)"><svg width="1067.485" height="1206.637" viewBox="0 0 1067.485 1206.637"><g fill="#eaeaea"><path d="M254.467 474.211c24.77 0 44.851-20.661 44.851-46.148s-20.081-46.148-44.851-46.148c-.255 0-.506.015-.76.02v-.02H62.204c-24.77 0-44.851 20.661-44.851 46.148s20.08 46.148 44.851 46.148v699.726H42.132v32.7H273.78v-32.7h-20.072V474.192c.254.004.505.02.76.02zm374.867 0c24.77 0 44.851-20.661 44.851-46.148s-20.081-46.148-44.851-46.148c-.255 0-.506.015-.76.02v-.02H437.071c-24.77 0-44.851 20.661-44.851 46.148s20.08 46.148 44.851 46.148v699.726h-20.072v32.7h231.648v-32.7h-20.072V474.192c.254.004.505.02.76.02zm374.866 0c24.77 0 44.851-20.661 44.851-46.148s-20.081-46.148-44.851-46.148c-.255 0-.506.015-.76.02v-.02H811.937c-24.77 0-44.851 20.661-44.851 46.148s20.08 46.148 44.851 46.148v699.726h-20.072v32.7h231.648v-32.7h-20.072V474.192c.254.004.505.02.76.02z"/><path d="M62.204 327.499h941.237v58.518H62.204z"/><path d="M1067.485 361.408H0V321.82L532.823 0l534.662 321.82z"/></g><path d="M1026.297 324.994H51.666L532.523 38.428l.509.295zm-967.369-2h959.938L532.537 40.748 58.929 322.994z" fill="#fff"/></svg></g><g transform="translate(63.0 1322.0) rotate(0.0 524.5 187.0) scale(1.1592415532289684 1.1553372565373863)"><svg width="904.902" height="323.715" viewBox="0 0 904.902 323.715"><path d="M92.863 0h812.039v142.816H92.863z" fill="#B4B3B3"/><path d="M0 142.816h811.535v73.631H0z" fill="#D0E4FF"/><path d="M830.646 230.875v78.42h25.55v14.42h-744.53c-29.62 0-53.64-24.01-53.64-53.63 0-14.81 6.01-28.23 15.71-37.93 9.71-9.71 23.12-15.71 37.93-15.71h744.53v14.43z" fill="#b4b3b3"/><path d="M830.646 230.875v78.42h-717.49c-21.65 0-39.21-17.56-39.21-39.21 0-10.83 4.39-20.63 11.49-27.73 7.09-7.09 16.9-11.48 27.72-11.48z" fill="#fff"/><path d="M830.146 230.875h1v78.42h-1z"/></svg></g><g transform="translate(236.0 791.0) rotate(0.0 290.0 266.0) scale(1.1528775226649757 1.1515301064515988)"><svg width="503.089" height="461.994" viewBox="0 0 503.089 461.994"><path d="M292.151 426.647V297.183c17.938-12.042 29.656-31.831 29.656-54.221 0-8.311-1.627-16.26-4.573-23.594h1.198l128.727-78.694L501.625 1H1.463l54.466 139.675 128.727 78.694h1.198a63.112 63.112 0 0 0-4.573 23.594c0 22.39 11.718 42.179 29.656 54.221v129.464L55.706 460.995h391.675L292.15 426.648z" fill="#fff"/><path d="M447.382 461.994H55.707l-.216-1.976 154.447-34.174v-128.13c-18.58-12.675-29.656-33.103-29.656-54.752 0-7.74 1.382-15.334 4.111-22.594h-.018L55.12 141.352 0 0h503.089l-55.12 141.352-129.273 79.017a63.962 63.962 0 0 1 4.112 22.594c0 21.648-11.076 42.076-29.656 54.752v128.13l154.446 34.174-.216 1.976zm-382.526-2h373.378L291.152 427.45v-130.8l.443-.297c18.292-12.28 29.213-32.239 29.213-53.391a62.016 62.016 0 0 0-4.501-23.221l-.552-1.373h2.397l128.199-78.372L500.162 2H2.926l53.812 137.997 128.199 78.371h2.396l-.552 1.373a62.039 62.039 0 0 0-4.5 23.221c0 21.152 10.921 41.111 29.213 53.391l.443.297v130.8L64.854 459.994z"/><g fill="#ee5a25"><ellipse cx="251.544" cy="83.545" rx="29.298" ry="57.654"/><ellipse cx="36.103" cy="86.066" rx="29.061" ry="58.124" transform="matrix(.91798321 -.39661924 .39661924 .91798321 -31.174 21.378)"/><ellipse cx="467.103" cy="86.066" rx="58.124" ry="29.061" transform="matrix(.39661924 -.91798321 .91798321 .39661924 202.835 480.724)"/></g></svg></g><g transform="translate(1153.0 1089.0) rotate(0.0 180.0 303.0) scale(0.8162728528055978 0.8146431432857811)"><svg width="441.029" height="743.884" viewBox="0 0 441.029 743.884"><path d="m203.312 649.194 43.763-2.915 4.5 67.554-43.763 2.915z" fill="#ffbe9d"/><path d="M133.695 743.884h121.868l-4.979-44.959c-5.31 3.006-9.669 4.284-16.069 4.284-12.69 0-23.984-5.367-28.622-17.647l-65.628 32.632a12.973 12.973 0 0 0-4.37 3.525c-6.84 8.628-2.2 22.165-2.2 22.165z"/><path d="m360.712 662.543 40.59-16.616 25.65 62.658-40.59 16.616z" fill="#ffbe9d"/><path d="M297.939 743.884h143.09l-19.117-47.618c-5.31 3.006-16.753 6.943-23.153 6.943-12.69 0-23.984-5.367-28.622-17.647l-65.628 32.632a12.973 12.973 0 0 0-4.37 3.525c-6.84 8.628-2.2 22.165-2.2 22.165z"/><path d="M93.226 196.761s-68.057-15.046-89.532 10.258c0 0-8.453 10.769.214 17.935 3.019 2.497 6.99 3.505 10.889 3.11 13.379-1.356 55.058 1.285 62.172 5.357l16.258-36.66zM85.355 63.907S54.985 1.171 21.817 0c0 0-13.69.04-13.943 11.283-.088 3.917 1.582 7.658 4.308 10.473 9.356 9.659 33.114 44.006 34.327 52.112z" fill="#ffbe9d"/><path d="M332.489 689.062c-41.815-75.885-84.57-188.267-127.076-334.021l86.4-25.197c40.661 139.427 80.867 245.672 119.5 315.784l-78.824 43.435z" fill="#0a4ed0"/><path d="M182.038 683.509c-20.741-134.82-21.992-225.765-21.495-339.528l90 .394c-.495 113.085.661 196.832 20.448 325.449z" fill="#0a4ed0"/><path d="M268.223 119.722c0 3.975-.565 7.822-1.607 11.456-4.968 17.242-20.856 29.847-39.696 29.847-22.804 0-41.303-18.489-41.303-41.303 0-16.482 9.664-30.714 23.623-37.338a41.128 41.128 0 0 1 17.681-3.965c22.814 0 41.303 18.489 41.303 41.303z" fill="#ffbe9d"/><path d="M268.223 119.722c0 3.975-.565 7.822-1.607 11.456a46.106 46.106 0 0 1-11.612 1.481c-25.396 0-45.969-20.583-45.969-45.969 0-1.451.068-2.893.205-4.306a41.128 41.128 0 0 1 17.681-3.965c22.814 0 41.303 18.489 41.303 41.303zm-15.161 388.023c-2.337-29.005-2.337-55.978 0-82.46l.996.088c-2.332 26.426-2.331 53.344 0 82.292z"/><g fill="#ee5a25"><circle cx="221.326" cy="224.788" r="49.784"/><path d="M212.454 249.119c-57.43-9.548-101.086-30.913-133.463-65.315C51.325 154.407 32.1 115.846 18.489 62.453l72.676-18.526c21.151 82.973 57.357 118.534 133.59 131.208z"/><path d="M296.726 346.532H160.28V233.42l109.872-18.384z"/></g><path d="M170.812 302.266c-21.138 0-43.386-5.789-66.459-17.326l-2.151-1.076-61.387-41.258 41.836-62.247 57.276 38.495c38.012 18.241 53.451 3.699 63.528-13.049l64.263 38.669c-17.105 28.426-41.265 47.262-69.865 54.472-8.783 2.214-17.809 3.319-27.041 3.319z" fill="#ee5a26"/><path d="M170.907 302.597c-3.497 0-7.05-.159-10.671-.476l.088-.996c15.504 1.36 29.771-.206 43.608-4.784 16.678-5.518 32.285-15.693 45.133-29.427l.73.684c-12.962 13.855-28.713 24.123-45.549 29.693-10.736 3.552-21.725 5.307-33.34 5.307zm-1.592-75.223c-2.935 0-5.978-.295-9.128-.887-16.685-1.895-50.04-25.308-77.369-45.622l-2.749 4.05-.828-.562 3.337-4.915.419.312c27.305 20.31 60.771 43.865 77.34 45.748 13.446 2.521 24.885-.45 34.039-8.832 4.139-3.789 7.57-8.741 10.199-14.719 7.382-16.778 20.741-23.738 40.828-21.271l-.121.992c-19.593-2.404-32.612 4.362-39.791 20.682-2.687 6.106-6.198 11.171-10.439 15.054-7.244 6.633-15.872 9.969-25.736 9.969z"/></svg></g><g transform="translate(1969.0 268.0) rotate(0.0 188.5 714.5) scale(1.1535013508510514 1.15689204877567)"><svg width="326.831" height="1235.206" viewBox="0 0 326.831 1235.206"><path d="M.725 1033.569a296.795 296.795 0 0 1 .553-48.237l9.018-97.228 8.948-16.529-5.422-21.481L73.62 205.399l92.64-11.536 86.951 11.536 59.798 644.695-2.205 21.138 5.73 16.871 9.018 97.228a297.051 297.051 0 0 1 .739 45.392c-6.692 110.403-317.885 111.956-325.567 2.845z" fill="#0a4ed0"/><g fill="#d0e4ff"><path d="M112.854 1221.234c-12.32-24.66-22.02-54.16-22.02-85.84 0-28.45 7.83-55.13 18.34-78.14v-.01c21.5-47.06 54.24-78.75 54.24-78.75s33.25 32.18 54.73 79.84v.01c10.27 22.76 17.85 49.05 17.85 77.05 0 31.68-9.7 61.18-22.02 85.84"/><path d="M326.294 1030.724c-5.34 88.08-49.88 163.59-112.32 190.51-4.35 1.88-8.79 3.53-13.31 4.92l17.48-167.81v-.01c40.41-46.23 95.18-68.26 95.18-68.26s7.08 16.08 12.97 40.65zm-198.82 195.82c-4.97-1.47-9.85-3.24-14.62-5.31-61.28-26.42-105.32-99.64-111.98-185.62 6.06-27.31 14.1-45.54 14.1-45.54s53.9 21.68 94.2 67.17v.01z"/></g><path d="m214.869 1221.68-1.789-.894c14.542-29.107 21.915-57.837 21.915-85.393 0-24.735-5.976-50.52-17.762-76.639l-.088-.206c-19.443-43.035-48.848-73.718-53.73-78.644-4.841 4.885-33.797 35.1-53.243 77.562l-.088.202c-12.109 26.512-18.25 52.663-18.25 77.725 0 27.556 7.373 56.286 21.915 85.393l-1.789.894c-14.682-29.387-22.125-58.418-22.125-86.287 0-25.289 6.169-51.649 18.34-78.357s.09-.208.09-.208c21.332-46.692 54.125-78.735 54.455-79.053l.695-.673.695.673c.334.323 33.634 32.86 54.946 80.148l.088.206c11.844 26.312 17.85 52.307 17.85 77.265 0 27.869-7.444 56.9-22.125 86.287z"/><path d="M33.471 1189.57H293.36v45.635H33.471zm129.945-979.686c-68.839 0-126.077-31.937-131.373-100.572L24.031 5.494h278.77l-8.011 103.818c-5.296 68.635-62.534 100.572-131.373 100.572z" fill="#0a4ed0"/><path d="M9.619 0h307.594v43.309H9.619zm.677 888.104h306.239l-3.526-38.009H13.822zm65.327-701.583 175.825-.134 1.763 19.012H73.62z" fill="#d0e4ff"/></svg></g><g transform="translate(599.0 1053.0) rotate(0.0 156.5 212.5) scale(1.1467763859323878 1.1544019383087605)"><svg width="272.939" height="368.156" viewBox="0 0 272.939 368.156"><path d="m168.487 345.069-28.147-.249.384-43.449 28.147.249z" fill="#ffbe9d"/><path d="m215.739 368.156-76.102-.671.257-29.123a23.064 23.064 0 0 0 11.371 3.119c8.144.072 14.132-3.965 17.178-11.82l43.225 21.97a8.33 8.33 0 0 1 2.784 2.286c4.34 5.576 1.286 14.238 1.286 14.238z"/><path d="M221.877 300.321 197.5 314.395l-21.726-37.63 24.377-14.074z" fill="#ffbe9d"/><path d="m272.938 304.827-65.391 29.338-14.068-26.732c3.894.416 5.938.785 9.708-.847 7.474-3.237 12.286-9.634 11.887-18.049l47.444 2.836a8.329 8.329 0 0 1 3.473.961c6.228 3.337 6.949 12.493 6.949 12.493z"/><path d="M29.229 41.033a29.221 29.221 0 0 0 3.06 7.544c6.345 10.918 19.349 16.8 32.209 13.572 15.566-3.907 25.025-19.696 21.117-35.268-2.824-11.25-11.859-19.31-22.521-21.439a28.939 28.939 0 0 0-12.747.323C34.774 9.674 25.322 25.462 29.23 41.033z" fill="#ffbe9d"/><path d="M29.229 41.033a29.221 29.221 0 0 0 3.06 7.544c2.698.023 5.44-.29 8.18-.979 17.335-4.351 27.852-21.925 23.503-39.253a31.405 31.405 0 0 0-.878-2.904 28.939 28.939 0 0 0-12.747.323C34.774 9.673 25.322 25.461 29.23 41.032z"/><circle cx="16.78" cy="16.78" r="16.78"/><path d="M178.019 294.772c-12.485-32.766-22.214-52.121-35.869-71.333-31.773-6.719-57.804-8.083-93.839-9.392l1.738-47.81c37.464 1.361 66.734 2.909 102.333 10.466 11.566 2.456 21.741 9.155 28.651 18.863 18.61 26.15 29.75 50.829 41.693 82.173z"/><path d="M161.191 91.935s22.098-23.56 24.522-43.324c1.414-11.529-2.635-13.765-6.255-13.627-2.2.084-4.239 1.102-5.731 2.694-.493.526-.886 1.135-1.238 1.763-3.733 6.669-8.313 13.103-13.571 19.348-1.476 2.12-18.663 21.334-18.663 21.334z" fill="#ffbe9d"/><path d="M94.836 140.693c-20.975 0-42.158-7.504-62.085-22.128L65.1 74.485c19.444 14.271 43.854 22.977 77.456-20.666l43.324 33.357c-22.645 29.411-47.808 46.905-74.792 51.996a87.553 87.553 0 0 1-16.252 1.521z" fill="#0a4ed0"/><path d="M160.886 141.019s32.055-3.988 46.554-17.635c8.458-7.961 6.774-12.269 3.903-14.477-1.746-1.342-3.965-1.862-6.129-1.592-.715.09-1.407.306-2.078.565-7.135 2.742-14.77 4.76-22.804 6.2-2.491.687-4.858-1.546-4.231-4.053l.028-.109c.671-2.512 3.551-6.837 5.291-9.302 1.227-1.739.965-4.205-.742-5.475-.876-.652-2.033-1.225-3.714-.489-.599.262-1.128.663-1.592 1.124l-23.029 22.777 8.546 22.467z" fill="#ffbe9d"/><path d="M114.655 164.798c-11.175 0-21.736-1.693-31.639-5.084-25.181-8.622-45.218-28.193-57.947-56.599l49.895-22.359c9.865 22.01 26.792 41.634 77.56 20.273l21.204 50.397c-21.173 8.908-40.932 13.371-59.075 13.371z" fill="#0a4ed0"/><path d="M88.795 161.998a92.403 92.403 0 0 1-5.94-1.81C57.54 151.52 37.4 131.856 24.614 103.32l.912-.409c12.67 28.276 32.606 47.755 57.653 56.331a91.216 91.216 0 0 0 5.875 1.791l-.259.966zm68.421-48.53-4.958-11.785c-50.806 21.216-67.815 1.442-77.749-20.723l.912-.409c9.767 21.791 26.542 41.209 76.91 20.017l.461-.194 5.346 12.706z"/><circle cx="51.448" cy="95.199" fill="#0a4ed0" r="27.565"/><path d="m178.416 324.087-47.621-4.598c2.428-25.145 2.844-52.066 1.238-80.025-28.23-5.274-53.164-6.51-85.217-7.675l1.738-47.81c34.44 1.251 61.277 2.603 93.096 8.614 21.171 3.998 36.838 21.822 38.1 43.343 1.799 30.679 1.35 60.337-1.335 88.152z"/><circle cx="45.908" cy="201.529" r="30.294"/><path d="m181.423 293.924-.999-.043c2.019-46.674.388-73.058-14.131-87.732-13.878-14.025-39.012-17.728-90.1-20.723l.059-.998c51.353 3.01 76.644 6.759 90.752 21.018 14.778 14.936 16.451 41.515 14.419 88.478z" fill="#fff"/><path d="M28.348 80.157S9.195 107.59 15.871 197.202c0 0 45.657 15.653 78.279-28.727z" fill="#0a4ed0"/></svg></g><g transform="translate(1585.0 1334.0) rotate(0.0 190.0 180.5) scale(1.1569739650411184 1.1541031403753872)"><svg width="328.443" height="312.797" viewBox="0 0 328.443 312.797"><g fill="#b4b3b3"><path d="M30.551 156.278H261.69v78.26H30.551zm22.883-39.13h231.139v39.13H53.434z"/><path d="M23.99 78.26h231.139v39.13H23.99zM0 39.13h231.139v39.13H0zM43.92 0h231.139v39.13H43.92zm53.384 234.537h231.139v39.13H97.304z"/><path d="M76.361 273.667H307.5v39.13H76.361z"/></g><path d="M30.551 194.408H261.69v2H30.551zM43.921 38.13h187.218v2H43.921zM23.99 77.26h207.148v2H23.99zm29.444 40.889.002-2 201.695.243-.003 2zm0 37.129H261.69v2H53.434zm43.87 78.259h164.385v2H97.304zm0 39.13h210.195v2H97.304z"/></svg></g><g transform="translate(753.0 993.0) rotate(0.0 103.0 103.0) scale(1.1577977113823879 1.1577977113823879)"><svg width="177.924" height="177.924" viewBox="0 0 177.924 177.924"><path d="M88.962 0C39.83 0 0 39.83 0 88.962s39.83 88.962 88.962 88.962 88.962-39.83 88.962-88.962S138.095 0 88.962 0zm25.799 114.761H63.163V63.162h51.598z" fill="#d0e4ff"/><path d="M88.962 158.107c-38.126 0-69.145-31.018-69.145-69.145s31.019-69.144 69.145-69.144 69.145 31.018 69.145 69.145-31.018 69.145-69.145 69.145zm0-136.289c-37.023 0-67.145 30.121-67.145 67.145s30.121 67.145 67.145 67.145 67.145-30.121 67.145-67.145-30.121-67.145-67.145-67.145z"/></svg></g><g transform="translate(627.0 1145.0) rotate(0.0 110.0 49.0) scale(1.1636025133814287 1.1632599767348006)"><svg width="189.068" height="84.246" viewBox="0 0 189.068 84.246"><g><path d="M136.273 60.467s32.055-3.988 46.554-17.635c8.458-7.961 6.774-12.269 3.903-14.477-1.746-1.342-3.965-1.862-6.129-1.592-.715.09-1.407.306-2.078.565-7.135 2.742-14.77 4.76-22.804 6.2-2.491.687-4.858-1.546-4.231-4.053l.028-.109c.671-2.512 3.551-6.837 5.291-9.302 1.227-1.739.965-4.205-.742-5.475-.876-.652-2.033-1.225-3.714-.489-.599.262-1.128.663-1.592 1.124L127.73 38.001l8.546 22.467Z" fill="#ffbe9d"/><path d="M90.042 84.246c-11.175 0-21.736-1.693-31.639-5.084C33.223 70.541 13.185 50.97.456 22.564L50.351.205c9.865 22.01 26.792 41.634 77.56 20.273l21.204 50.397c-21.173 8.908-40.932 13.371-59.075 13.371Z" fill="#0a4ed0"/><path d="M64.182 81.446a91.59 91.59 0 0 1-5.94-1.811C32.926 70.968 12.787 51.304 0 22.768l.912-.409c12.67 28.276 32.606 47.755 57.653 56.331a91.024 91.024 0 0 0 5.875 1.791l-.259.966Zm68.42-48.529-4.958-11.785C76.84 42.347 59.829 22.574 49.895.409L50.808 0c9.767 21.79 26.54 41.21 76.91 20.017l.461-.194 5.346 12.706-.922.388Z"/></g></svg></g></svg>